<svg width="226" height="42" viewBox="0 0 226 42" fill="none" xmlns="http://www.w3.org/2000/svg">
<path d="M87.7159 0.00585938L87.8439 0.03125L88.0323 0.0839844L88.2218 0.136719C88.3039 0.159639 88.3847 0.170512 88.464 0.169922L88.6544 0.167969L88.8458 0.166992L88.9435 0.170898C89.1675 0.191205 89.3663 0.285531 89.5314 0.423828L89.7013 0.566406L89.8302 0.674805L89.9757 0.629883L90.1788 0.567383L90.2784 0.541016C90.4797 0.499531 90.6854 0.521055 90.8751 0.615234L90.9689 0.668945L91.1359 0.776367L91.295 0.878906C91.2973 0.878637 91.3005 0.878657 91.3038 0.87793L91.7257 0.786133L91.8361 0.767578C92.0551 0.745061 92.2683 0.800055 92.4493 0.933594L92.5372 1.00684L92.6886 1.14941L92.8341 1.28613L93.0392 1.27539L93.2491 1.26367C93.3376 1.25889 93.4826 1.25812 93.6232 1.31641C93.7016 1.34899 93.8037 1.41066 93.881 1.52344C93.9623 1.64215 93.9859 1.77336 93.9777 1.88477L93.9757 1.89746L94.0646 1.96387L94.2189 2.0791C94.261 2.1106 94.3056 2.13035 94.3575 2.14062L94.547 2.17773L94.7355 2.21484C94.8588 2.23912 94.9834 2.26262 95.1075 2.28516L95.297 2.32031L95.4874 2.35449C95.6757 2.38874 95.8529 2.45739 96.0148 2.55957L96.1749 2.66016L96.3351 2.76172C96.4856 2.85673 96.6208 2.97356 96.7404 3.10938L96.8761 3.26465L96.9454 3.34375L97.1134 3.30176L97.3458 3.24316L97.4659 3.2207C97.5913 3.206 97.73 3.21676 97.8673 3.27539C98.0053 3.33442 98.1088 3.42787 98.1847 3.53027L98.2521 3.63477L98.3644 3.84082L98.4542 4.00488L98.5763 4.00977L98.7784 4.01758C98.919 4.02321 99.0589 4.03125 99.1974 4.04199L99.3956 4.05762L99.5948 4.07324C99.7771 4.08744 99.9538 4.12864 100.121 4.19922L100.467 4.3457C100.598 4.40082 100.726 4.4622 100.851 4.53027L101.181 4.70996C101.37 4.81359 101.523 4.96304 101.643 5.1377L101.767 5.31934L101.868 5.4668L102.018 5.46973L102.223 5.47168C102.461 5.47493 102.687 5.54922 102.88 5.69922L103.185 5.93555C103.208 5.95336 103.231 5.96441 103.27 5.96777L103.468 5.98535L103.666 6.00195C103.866 6.01929 104.057 6.07725 104.233 6.17773L104.397 6.27148L104.56 6.36523C104.67 6.42831 104.78 6.49171 104.89 6.55566L105.052 6.65039L105.215 6.74609C105.391 6.84907 105.538 6.98903 105.657 7.15332L105.784 7.32812L105.824 7.38281L105.96 7.33887L106.201 7.25977C106.453 7.17747 106.755 7.16329 107.026 7.33691L107.187 7.43945L107.346 7.54102C107.457 7.61208 107.568 7.68554 107.677 7.76074L107.834 7.86816L107.991 7.97656C108.093 8.04658 108.195 8.11593 108.298 8.18359L108.457 8.28809L108.615 8.39258C108.729 8.46765 108.842 8.54648 108.952 8.62891L109.107 8.74316L109.261 8.8584C109.359 8.93174 109.458 9.00351 109.558 9.07324L109.715 9.18262L109.871 9.29199C109.939 9.33907 110.009 9.37527 110.084 9.40137L110.262 9.46387L110.439 9.52637C110.466 9.53574 110.514 9.54406 110.595 9.53125L110.816 9.49609L111.037 9.46094C111.273 9.42386 111.518 9.4494 111.742 9.57324L111.907 9.66406L112.072 9.75586C112.136 9.7907 112.204 9.81613 112.28 9.83105L112.469 9.86816L112.658 9.90527C112.896 9.9522 113.099 10.073 113.258 10.248L113.396 10.3994L113.519 10.5342L113.706 10.5312L113.913 10.5273C114.141 10.5234 114.363 10.5797 114.56 10.707L114.719 10.8096L114.878 10.9131C114.965 10.9695 115.056 11.0193 115.149 11.0625L115.318 11.1416L115.487 11.2207C115.67 11.3063 115.828 11.4304 115.959 11.582L116.095 11.7393L116.195 11.8555L116.368 11.8389L116.583 11.8184L116.694 11.8135C116.95 11.8172 117.186 11.9224 117.361 12.1279L117.496 12.2861L117.612 12.4219L117.792 12.4199L117.999 12.417C118.159 12.4148 118.321 12.4556 118.465 12.5508C118.605 12.6432 118.701 12.7695 118.767 12.8965L118.877 13.1094L118.902 13.1592L118.982 13.1348L119.222 13.0586C119.36 13.0146 119.523 12.9906 119.694 13.0283C119.873 13.0677 120.02 13.1651 120.129 13.2939L120.264 13.4531L120.398 13.6123C120.452 13.6765 120.506 13.7187 120.557 13.7471L120.722 13.8389L120.886 13.9297C120.955 13.9677 121.029 13.996 121.109 14.0146L121.294 14.0576L121.481 14.1016C121.626 14.1356 121.769 14.1793 121.907 14.2324L122.082 14.2998L122.258 14.3662C122.462 14.4447 122.634 14.5752 122.772 14.7393L122.905 14.8984L122.986 14.9951L123.149 14.9668L123.372 14.9268C123.604 14.8853 123.848 14.9022 124.075 15.0156L124.411 15.1836C124.621 15.2884 124.78 15.4519 124.899 15.6416L125.019 15.834L125.13 16.0137L125.282 16.0312L125.477 16.0547C125.592 16.0684 125.712 16.0778 125.833 16.082L126.237 16.0957C126.502 16.1051 126.726 16.2195 126.89 16.4043L126.955 16.4883L127.082 16.665L127.208 16.8408C127.259 16.9114 127.306 16.9535 127.348 16.9785L127.51 17.0752L127.671 17.1729C127.678 17.177 127.697 17.1876 127.748 17.1836L127.962 17.167L128.175 17.1494C128.416 17.1304 128.656 17.1817 128.866 17.3252L129.181 17.54C129.22 17.5671 129.265 17.5851 129.319 17.5928L129.513 17.6191L129.706 17.6465C129.928 17.6776 130.13 17.7679 130.301 17.9121L130.45 18.0371L130.6 18.1631C130.719 18.2631 130.831 18.3737 130.938 18.4932L131.073 18.6465L131.21 18.7998C131.245 18.8389 131.273 18.8532 131.297 18.8604L131.479 18.9141L131.659 18.9688C131.734 18.991 131.818 19.0038 131.912 19.0059L132.116 19.0107L132.319 19.0146C132.58 19.0203 132.817 19.1186 133.005 19.3027L133.148 19.4424L133.291 19.582C133.308 19.5987 133.318 19.6025 133.336 19.6045L133.37 19.6084L133.708 19.4482C133.824 19.3934 133.941 19.3392 134.058 19.2861L134.231 19.208L134.402 19.1299C134.431 19.1169 134.461 19.0952 134.492 19.0518L134.727 18.7217C134.89 18.4921 135.129 18.3568 135.403 18.3262L135.611 18.3037L135.818 18.2803L135.819 18.2793L135.939 18.1318L136.063 17.9775L136.129 17.9023C136.291 17.7372 136.498 17.6416 136.727 17.6152L136.933 17.5908L137.017 17.5811L137.065 17.4189L137.135 17.1797L137.178 17.0635C137.229 16.9467 137.31 16.8292 137.436 16.7393C137.564 16.6474 137.705 16.6087 137.837 16.6016L137.966 16.6045L138.201 16.626L138.344 16.6387L138.393 16.5498L138.496 16.3613L138.556 16.2666C138.622 16.1741 138.707 16.0912 138.815 16.0283C138.957 15.9452 139.109 15.913 139.255 15.9121L139.476 15.9102L139.674 15.9092L139.771 15.7861L139.893 15.6279C139.984 15.511 140.079 15.3996 140.179 15.2939L140.312 15.1533L140.444 15.0117C140.555 14.8945 140.676 14.7893 140.806 14.6973L141.112 14.4805C141.224 14.4012 141.339 14.3258 141.456 14.2549L141.616 14.1582L141.776 14.0605C141.887 13.9936 141.999 13.9284 142.111 13.8643L142.275 13.7715L142.438 13.6777C142.554 13.6112 142.673 13.5484 142.794 13.4883L142.962 13.4033L143.131 13.3193C143.257 13.2567 143.386 13.2002 143.518 13.1484L143.695 13.0781L143.872 13.0088C144 12.9588 144.13 12.9121 144.261 12.8691L144.445 12.8086L144.629 12.748C144.661 12.7374 144.687 12.7209 144.713 12.6904L144.967 12.3896C145.06 12.2791 145.157 12.1729 145.258 12.0723L145.395 11.9365L145.53 11.8008L145.615 11.7256C145.821 11.5665 146.068 11.521 146.302 11.543L146.537 11.5654L146.729 11.582L146.801 11.4863L146.921 11.3252C147.044 11.1598 147.199 11.0245 147.385 10.9307L147.553 10.8457L147.722 10.7617C147.755 10.745 147.789 10.7177 147.823 10.6689L148.058 10.3369L148.132 10.2441C148.316 10.045 148.565 9.95888 148.824 9.9668L149.05 9.97363L149.276 9.98047C149.343 9.98247 149.367 9.96877 149.371 9.96582L149.528 9.86328L149.687 9.76172C149.751 9.7201 149.811 9.66737 149.867 9.60254L149.996 9.45508L150.124 9.30762C150.247 9.16639 150.392 9.0485 150.556 8.95898L150.886 8.7793C150.96 8.73867 151.03 8.6888 151.095 8.62988L151.236 8.50195L151.377 8.37402C151.494 8.26748 151.621 8.17337 151.756 8.0918L151.916 7.99414L152.077 7.89746C152.19 7.82923 152.304 7.76272 152.42 7.69922L152.585 7.60938L152.749 7.51855C152.838 7.47 152.923 7.4155 153.004 7.35449L153.153 7.24121L153.304 7.12793C153.468 7.00381 153.655 6.92336 153.856 6.88379L154.053 6.84473L154.25 6.80664C154.326 6.79156 154.388 6.76624 154.44 6.73438L154.599 6.63574L154.758 6.53613C154.784 6.51987 154.818 6.4907 154.853 6.42969L154.958 6.24414L155.065 6.05859C155.185 5.84698 155.365 5.67643 155.607 5.58594L155.785 5.51953L155.963 5.45312C156.032 5.42724 156.096 5.3905 156.156 5.34277L156.307 5.22266L156.457 5.10352C156.612 4.98068 156.787 4.89279 156.978 4.84277L157.162 4.79395L157.347 4.74609C157.401 4.7318 157.454 4.70612 157.507 4.66504L157.819 4.4209L157.925 4.34961C158.176 4.20747 158.453 4.22255 158.692 4.31641L158.917 4.40527L159.124 4.4873L159.234 4.41602L159.397 4.30957C159.52 4.22846 159.649 4.15461 159.78 4.08789L159.954 4L160.127 3.91211C160.244 3.85273 160.364 3.79342 160.484 3.73438L160.663 3.64746L160.841 3.55957C161.145 3.41087 161.455 3.46805 161.702 3.61914L161.905 3.74316L161.997 3.79785L162.078 3.72754L162.257 3.57129C162.439 3.41174 162.663 3.2954 162.925 3.27832L163.116 3.2666L163.308 3.25391C163.55 3.23811 163.776 3.30414 163.976 3.4248L164.347 3.64941C164.439 3.7051 164.523 3.74123 164.598 3.76367L164.779 3.81836L164.961 3.87207C165.059 3.90138 165.157 3.92349 165.254 3.9375L165.438 3.96387L165.62 3.99023C165.649 3.99437 165.696 3.99381 165.77 3.96777L165.975 3.89453L166.18 3.82227C166.412 3.73993 166.663 3.72795 166.908 3.82129L167.087 3.88965L167.266 3.95703C167.439 4.02284 167.597 4.11715 167.741 4.23535L167.898 4.36426L168.051 4.48926L168.256 4.46973L168.462 4.44922C168.686 4.42668 168.908 4.46173 169.114 4.56641L169.283 4.65234L169.453 4.73828C169.617 4.82161 169.764 4.93135 169.893 5.06348L170.032 5.20605L170.172 5.34961L170.184 5.35059L170.391 5.36035L170.599 5.36914C170.857 5.38043 171.087 5.48931 171.249 5.68848L171.315 5.7793L171.422 5.94922L171.424 5.95215C171.51 5.97279 171.572 6.00873 171.599 6.02539C171.676 6.0734 171.746 6.13832 171.796 6.18848L171.933 6.32422L172.068 6.45996C172.106 6.49727 172.148 6.52353 172.198 6.54102L172.38 6.60449L172.562 6.66699C172.68 6.70827 172.8 6.74939 172.92 6.78906L173.103 6.84961L173.286 6.91016C173.468 6.97035 173.634 7.06261 173.78 7.18652L173.925 7.30859L174.069 7.43164C174.205 7.54672 174.323 7.68185 174.422 7.83301L174.534 8.00488L174.593 8.09375L174.765 8.0752L175.002 8.0498L175.125 8.04395C175.251 8.04687 175.386 8.07722 175.514 8.1543C175.685 8.25782 175.788 8.41267 175.845 8.56348L175.928 8.7832L175.994 8.95801L176.114 8.98047L176.313 9.0166C176.451 9.04182 176.589 9.0696 176.725 9.09961L177.113 9.18555C177.292 9.22507 177.462 9.29031 177.618 9.38379L177.778 9.48047L177.94 9.57617C178.061 9.64902 178.179 9.72862 178.293 9.81348L178.444 9.92578L178.595 10.0381C178.768 10.1672 178.899 10.3356 178.993 10.5254L179.091 10.7217L179.171 10.8828L179.318 10.9062L179.521 10.9375C179.756 10.9739 179.97 11.0784 180.14 11.2539L180.274 11.3926L180.408 11.5312C180.429 11.5521 180.451 11.5666 180.488 11.5752L180.682 11.6191L180.876 11.6641C181.072 11.7092 181.253 11.793 181.412 11.917L181.562 12.0322L181.71 12.1475C181.81 12.2253 181.91 12.3041 182.01 12.3828L182.158 12.5L182.306 12.6162C182.466 12.7428 182.591 12.9026 182.687 13.082L182.788 13.2725L182.819 13.332L182.961 13.3076L183.211 13.2637C183.439 13.2231 183.698 13.2392 183.923 13.3848L184.017 13.4551L184.161 13.5781L184.305 13.7012C184.405 13.787 184.504 13.8752 184.602 13.9648L184.883 14.2227C184.974 14.3063 185.066 14.3893 185.158 14.4707L185.301 14.5957L185.443 14.7217C185.546 14.812 185.646 14.9059 185.744 15.0029L185.88 15.1377L186.017 15.2734C186.104 15.36 186.192 15.4451 186.281 15.5283L186.561 15.7881C186.621 15.8441 186.686 15.8895 186.756 15.9258L186.923 16.0127L187.091 16.0986C187.116 16.1117 187.162 16.1273 187.244 16.126L187.692 16.1182C187.93 16.1142 188.17 16.1738 188.375 16.3281L188.526 16.4414L188.676 16.5537C188.734 16.5972 188.798 16.6318 188.871 16.6572L189.234 16.7842C189.464 16.8638 189.648 17.0114 189.781 17.207L189.897 17.377L189.998 17.5273L190.186 17.5508L190.391 17.5762C190.617 17.604 190.828 17.6901 191.006 17.8438L191.293 18.0918C191.372 18.1598 191.454 18.2217 191.539 18.2773L191.854 18.4824C192.023 18.5928 192.161 18.7376 192.27 18.9062L192.382 19.0801L192.465 19.209L192.639 19.2178L192.855 19.2266C193.154 19.2393 193.416 19.3808 193.582 19.6416L193.693 19.8174L193.79 19.9688L193.968 19.9912L194.173 20.0176C194.332 20.0377 194.486 20.1005 194.615 20.2148C194.741 20.3259 194.819 20.4638 194.866 20.5986L194.946 20.8252L194.965 20.8789L195.046 20.8652L195.294 20.8223C195.437 20.798 195.602 20.7983 195.766 20.8594C195.894 20.9073 196.001 20.985 196.084 21.0811L196.16 21.1836L196.381 21.5352C196.426 21.6063 196.473 21.6562 196.52 21.6914L196.82 21.918C196.883 21.9652 196.952 22.0036 197.028 22.0332L197.207 22.1025L197.385 22.1709C197.525 22.225 197.659 22.2884 197.789 22.3604L198.117 22.542C198.309 22.6482 198.461 22.8006 198.574 22.9824L198.685 23.1592L198.751 23.2666L198.916 23.2607L199.143 23.2529C199.378 23.2441 199.617 23.2944 199.826 23.4385L199.981 23.5449L200.136 23.6514C200.329 23.7846 200.464 23.9691 200.555 24.1738L200.647 24.3809L200.733 24.5732L200.88 24.6133L201.069 24.6631C201.182 24.6929 201.299 24.7181 201.419 24.7393L201.618 24.7744L201.818 24.8105C202.078 24.8567 202.283 25.0012 202.419 25.207L202.474 25.2988L202.573 25.4912L202.674 25.6836C202.714 25.7604 202.756 25.8083 202.793 25.8389L203.086 26.0771C203.092 26.0822 203.109 26.0945 203.161 26.0977L203.375 26.1113L203.588 26.124C203.829 26.1387 204.06 26.223 204.248 26.3945L204.39 26.5234L204.53 26.6514C204.566 26.6837 204.607 26.7075 204.66 26.7227L205.035 26.8301C205.251 26.8918 205.437 27.009 205.587 27.1758L205.718 27.3213L205.848 27.4658C205.951 27.5815 206.047 27.7067 206.136 27.8398L206.25 28.0107L206.363 28.1816C206.392 28.2249 206.418 28.2435 206.441 28.2539L206.613 28.333L206.785 28.4121C206.856 28.4445 206.937 28.4692 207.03 28.4844L207.232 28.5166L207.432 28.5498C207.689 28.5917 207.91 28.7213 208.07 28.9297L208.193 29.0889L208.315 29.2471C208.329 29.2659 208.338 29.2709 208.356 29.2754L208.736 29.375C208.864 29.4081 208.991 29.4411 209.118 29.4746L209.309 29.5244L209.498 29.5752C209.666 29.6195 209.826 29.6839 209.975 29.7705L210.299 29.96C210.456 30.0512 210.594 30.167 210.714 30.3037L210.844 30.4502L210.973 30.5977C211.005 30.6346 211.039 30.6578 211.079 30.6729L211.259 30.7393L211.439 30.8066C211.57 30.8554 211.698 30.909 211.824 30.9668L211.996 31.0449L212.168 31.124C212.415 31.2373 212.58 31.4363 212.68 31.6631L212.771 31.8701L212.852 32.0557L212.995 32.0889L213.189 32.1328C213.407 32.1833 213.602 32.2905 213.761 32.4521L213.897 32.5898L214.031 32.7266C214.074 32.7703 214.121 32.8022 214.175 32.8242L214.352 32.8965L214.527 32.9678C214.764 33.0645 214.939 33.2374 215.056 33.4492L215.159 33.6367L215.263 33.8252C215.29 33.8745 215.312 33.8873 215.322 33.8926L215.49 33.9785L215.658 34.0635C215.659 34.0637 215.66 34.0639 215.662 34.0645C215.665 34.0654 215.671 34.0673 215.68 34.0684C215.697 34.0705 215.728 34.0709 215.773 34.0645L216.016 34.0303L216.259 33.9951C216.412 33.9734 216.592 33.9832 216.765 34.0723C216.897 34.1408 216.994 34.2402 217.063 34.3496L217.122 34.4619L217.304 34.876C217.342 34.9632 217.383 35.0164 217.418 35.0488L217.558 35.1787L217.69 35.3018C217.694 35.3027 217.703 35.3056 217.719 35.3057H217.941L218.161 35.3066C218.441 35.3074 218.689 35.4243 218.856 35.6465L218.922 35.748L219.026 35.9336L219.078 36.0273L219.227 36.0156L219.459 35.998L219.577 35.9961C219.697 36.0016 219.824 36.0307 219.944 36.0996C220.066 36.1695 220.157 36.2655 220.223 36.3701L220.279 36.4766L220.372 36.6816L220.465 36.8857C220.496 36.9546 220.524 36.9786 220.537 36.9873L220.693 37.0918L220.848 37.1973C220.891 37.2263 220.945 37.2495 221.015 37.2627L221.411 37.3369C221.581 37.3689 221.744 37.4197 221.899 37.4912L222.069 37.5713L222.241 37.6504C222.384 37.7168 222.52 37.7965 222.648 37.8887L222.8 37.999L222.952 38.1084C223.056 38.1833 223.159 38.2592 223.262 38.3359L223.412 38.4492L223.563 38.5615C223.678 38.6476 223.789 38.74 223.895 38.8389L224.034 38.9697L224.174 39.0996C224.239 39.16 224.308 39.211 224.382 39.2529L224.546 39.3457L224.709 39.4375C224.825 39.5029 224.939 39.5711 225.051 39.6416L225.209 39.7412L225.368 39.8408C225.4 39.8608 225.439 39.8868 225.476 39.916C225.493 39.9296 225.524 39.9564 225.556 39.9932C225.572 40.0117 225.597 40.0436 225.62 40.0869C225.642 40.1271 225.679 40.2082 225.682 40.3174C225.685 40.4441 225.639 40.5746 225.543 40.6758C225.46 40.7637 225.367 40.7999 225.317 40.8145C225.223 40.8415 225.144 40.8348 225.122 40.833C225.063 40.8281 225.007 40.814 224.976 40.8057L224.818 40.7637L224.723 40.7383L224.537 40.8652L224.35 40.9932C224.107 41.1576 223.809 41.2159 223.509 41.0967L223.321 41.0215L223.134 40.9473C223.121 40.942 223.114 40.9415 223.112 40.9414C223.111 40.9414 223.106 40.9416 223.098 40.9443L222.91 41.0049L222.723 41.0664C222.473 41.1474 222.219 41.1267 221.986 41.0205L221.799 40.9355L221.636 40.8604L221.471 40.9395L221.283 41.0283C220.99 41.1677 220.683 41.1337 220.425 40.9697L220.05 40.7314C220.03 40.7188 220.019 40.714 220.015 40.7129L219.831 40.7412L219.644 40.7695C219.496 40.7919 219.347 40.8033 219.198 40.8047L218.823 40.8086C218.717 40.8096 218.609 40.8165 218.502 40.8291L218.315 40.8506L218.127 40.873C217.914 40.898 217.705 40.8663 217.509 40.7881L217.321 40.7139L217.191 40.6611L217.035 40.7666L216.848 40.8936C216.642 41.0318 216.397 41.1118 216.128 41.0762L215.941 41.0508L215.753 41.0264C215.68 41.0166 215.607 41.0179 215.532 41.0312L215.345 41.0654L215.157 41.0986C214.939 41.1379 214.723 41.1147 214.519 41.0381L214.331 40.9678L214.144 40.8984C214.009 40.848 213.874 40.7929 213.74 40.7334L213.553 40.6494L213.365 40.5664C213.32 40.5462 213.29 40.5454 213.267 40.5488L213.079 40.5762L212.892 40.6045C212.738 40.6272 212.583 40.6363 212.429 40.6318L212.241 40.626L212.054 40.6211C211.994 40.6194 211.931 40.6285 211.86 40.6533L211.485 40.7861C211.257 40.8672 211.017 40.8706 210.786 40.7939L210.599 40.7314L210.411 40.6699C210.353 40.6506 210.302 40.6465 210.254 40.6523L209.879 40.6973C209.794 40.7076 209.706 40.7287 209.614 40.7617L209.427 40.8301L209.239 40.8975C209.015 40.9788 208.779 40.9874 208.549 40.918L208.174 40.8047L208.168 40.8037C208.168 40.8038 208.166 40.8041 208.164 40.8047C208.161 40.8054 208.156 40.8063 208.149 40.8096L207.961 40.8945L207.774 40.9785C207.529 41.0885 207.264 41.0982 207.011 40.999L206.823 40.9258L206.646 40.8555L206.464 40.9395L206.276 41.0254C206.085 41.1128 205.88 41.1572 205.666 41.1455L205.479 41.1348L205.291 41.125C205.106 41.1148 204.927 41.0717 204.754 41.001L204.379 40.8467C204.263 40.7992 204.148 40.7561 204.032 40.7168L203.845 40.6533L203.657 40.5889C203.593 40.5671 203.536 40.5612 203.483 40.5654L203.108 40.5947C203.037 40.6003 202.962 40.6177 202.881 40.6504L202.693 40.7256L202.506 40.8018C202.385 40.8505 202.264 40.9008 202.143 40.9531L201.955 41.0342L201.768 41.1162C201.461 41.2488 201.153 41.1888 200.906 41.0156L200.719 40.8838L200.629 40.8203L200.541 40.8818L200.354 41.0117C200.231 41.0965 200.081 41.1608 199.907 41.1699C199.732 41.1791 199.574 41.1291 199.441 41.0508L199.253 40.9404L199.066 40.8311C199.007 40.7963 198.97 40.7908 198.949 40.791L198.574 40.7949C198.384 40.797 198.198 40.7625 198.02 40.6963L197.645 40.5576C197.618 40.5479 197.604 40.5483 197.585 40.5537L197.398 40.6094L197.21 40.6641C197.136 40.6858 197.054 40.7234 196.963 40.7812L196.776 40.9004L196.588 41.0205C196.456 41.1047 196.295 41.1617 196.113 41.1553C195.933 41.1489 195.778 41.0812 195.654 40.9932L195.279 40.7275C195.256 40.7111 195.242 40.7048 195.237 40.7031L195.058 40.7227L194.87 40.7422C194.681 40.7618 194.492 40.7447 194.309 40.6934L193.934 40.5879C193.92 40.5841 193.908 40.583 193.882 40.5938L193.507 40.7461C193.278 40.839 193.033 40.8515 192.794 40.7764L192.607 40.7178L192.419 40.6582C192.35 40.6366 192.287 40.6298 192.227 40.6338L191.852 40.6592C191.799 40.6627 191.738 40.677 191.665 40.7129L191.29 40.8984C191.09 40.9974 190.87 41.0449 190.641 41.0205L190.453 41L190.266 40.9805C190.142 40.9673 190.018 40.9544 189.895 40.9424L189.707 40.9248L189.52 40.9062C189.411 40.8957 189.303 40.8904 189.194 40.8906H189.007L188.819 40.8916C188.776 40.8917 188.724 40.9016 188.658 40.9326L188.283 41.1104C188.059 41.2171 187.811 41.247 187.563 41.1797L187.188 41.0781C187.069 41.046 186.951 41.0164 186.832 40.9893L186.457 40.9033C186.393 40.8886 186.331 40.8861 186.27 40.8955L186.082 40.9248L185.895 40.9531C185.71 40.9814 185.525 40.9765 185.342 40.9385L184.967 40.8604C184.856 40.8373 184.745 40.8186 184.635 40.8057L184.447 40.7842L184.26 40.7617C184.113 40.7445 183.967 40.7179 183.822 40.6816L183.635 40.6348L183.484 40.5967L183.297 40.7314L183.109 40.8652C182.929 40.9946 182.722 41.0873 182.491 41.1094L182.304 41.127L182.116 41.1455C181.962 41.1603 181.807 41.161 181.652 41.1484L181.465 41.1328L181.277 41.1182C181.062 41.1004 180.861 41.0255 180.681 40.9141L180.493 40.7979L180.401 40.7402L180.297 40.8154L180.109 40.9502C179.91 41.0928 179.668 41.1825 179.399 41.1582L179.211 41.1416L179.024 41.124C178.879 41.111 178.734 41.089 178.59 41.0586L178.402 41.0195L178.215 40.9795C178.101 40.9553 177.986 40.9353 177.872 40.9189L177.685 40.8916L177.497 40.8652C177.326 40.8406 177.159 40.7918 176.997 40.7227L176.81 40.6426L176.63 40.5654L176.451 40.6426L176.264 40.7217C176.047 40.8135 175.814 40.8391 175.579 40.7842L175.204 40.6963C175.094 40.6703 174.983 40.6495 174.873 40.6338L174.686 40.6064L174.498 40.5801C174.47 40.5761 174.436 40.5774 174.389 40.5977L174.201 40.6777L174.014 40.7568C173.887 40.8106 173.761 40.8639 173.634 40.916L173.259 41.0703C173.069 41.1485 172.867 41.1857 172.66 41.1719L172.285 41.1465C172.181 41.1395 172.076 41.1387 171.972 41.1445L171.597 41.166C171.383 41.1779 171.178 41.134 170.986 41.0469L170.799 40.9609L170.611 40.876C170.527 40.8374 170.448 40.8148 170.375 40.8047L170.188 40.7783L170.01 40.7539C170.004 40.7563 169.994 40.7619 169.979 40.7725L169.604 41.0322C169.352 41.2063 169.04 41.2588 168.735 41.1191L168.36 40.9473C168.256 40.8993 168.153 40.86 168.052 40.8301L167.864 40.7744L167.677 40.7197C167.609 40.6998 167.547 40.693 167.486 40.6982L167.111 40.7314C167.048 40.7369 166.978 40.7538 166.901 40.7891L166.713 40.874L166.526 40.96C166.352 41.0385 166.17 41.0883 165.982 41.1025L165.794 41.1162L165.607 41.1309C165.326 41.1521 165.08 41.0451 164.884 40.8906L164.696 40.7422L164.595 40.6621L164.517 40.71L164.329 40.8242C164.092 40.9688 163.812 41.0162 163.529 40.918L163.154 40.7871C163.089 40.7643 163.03 40.7582 162.976 40.7617L162.788 40.7734L162.601 40.7861C162.546 40.7898 162.483 40.8047 162.41 40.8398L162.035 41.0195C161.835 41.1157 161.616 41.1599 161.389 41.1348L161.014 41.0938C160.861 41.0768 160.709 41.0471 160.559 41.0049L160.184 40.8994C160.141 40.8875 160.104 40.8866 160.064 40.8965L159.876 40.9434L159.689 40.9893C159.491 41.038 159.289 41.0423 159.09 41L158.715 40.9199C158.56 40.887 158.407 40.8394 158.256 40.7783L158.068 40.7021L157.887 40.6279L157.703 40.708L157.516 40.7881C157.285 40.8871 157.037 40.9041 156.793 40.8271L156.606 40.7676L156.418 40.709C156.34 40.6843 156.266 40.6727 156.194 40.6729L156.007 40.6738H155.819C155.79 40.674 155.746 40.6819 155.685 40.7158L155.497 40.8184L155.31 40.9219C155.144 41.0132 154.968 41.0794 154.784 41.1133L154.409 41.1816C154.153 41.2289 153.908 41.1734 153.695 41.0518L153.508 40.9453L153.342 40.8496L153.192 40.9111L153.004 40.9854C152.797 41.0679 152.576 41.0938 152.353 41.0527L151.978 40.9844C151.883 40.967 151.79 40.9584 151.697 40.959L151.51 40.96L151.322 40.9619C151.238 40.9625 151.151 40.9727 151.063 40.9941L150.688 41.0859C150.427 41.1496 150.173 41.1023 149.951 40.9795L149.764 40.876L149.576 40.7715C149.511 40.7351 149.461 40.7249 149.426 40.7236L149.238 40.7168L149.051 40.7109C148.923 40.7065 148.794 40.7004 148.666 40.6934L148.479 40.6826L148.291 40.6729H148.29C148.289 40.673 148.287 40.6738 148.283 40.6748C148.275 40.6776 148.257 40.6851 148.23 40.7041L148.042 40.835L147.855 40.9648C147.726 41.0543 147.564 41.1207 147.377 41.1191C147.191 41.1175 147.03 41.0493 146.903 40.959L146.528 40.6914C146.526 40.6894 146.523 40.687 146.521 40.6855L146.362 40.7207L146.175 40.7607C145.983 40.8024 145.789 40.8045 145.597 40.7666L145.409 40.7295L145.222 40.6934C145.149 40.679 145.077 40.6757 145.006 40.6846L144.631 40.7314C144.48 40.7503 144.329 40.7578 144.178 40.7529L143.803 40.7412C143.717 40.7385 143.63 40.7451 143.542 40.7627L143.355 40.8008L143.167 40.8379C143.034 40.8645 142.901 40.8884 142.768 40.9082L142.58 40.9355L142.393 40.9639C142.241 40.9864 142.089 40.9963 141.937 40.9941L141.749 40.9922L141.562 40.9893C141.332 40.986 141.12 40.9127 140.932 40.7969L140.744 40.6816L140.557 40.5654C140.545 40.558 140.536 40.5543 140.532 40.5527L140.354 40.5898L140.166 40.627C140.097 40.6408 140.02 40.6689 139.935 40.7158L139.747 40.8184L139.56 40.9219C139.36 41.0315 139.137 41.0889 138.901 41.0684L138.526 41.0352C138.352 41.02 138.182 40.9804 138.017 40.918L137.642 40.7754C137.595 40.7575 137.559 40.7562 137.526 40.7617L137.338 40.792L137.151 40.8232C136.942 40.8577 136.735 40.8392 136.536 40.7734L136.349 40.7119L136.161 40.6494C136.132 40.6398 136.11 40.6398 136.084 40.6475L135.897 40.7031L135.709 40.7578C135.513 40.8152 135.311 40.8293 135.109 40.7949L134.922 40.7627L134.746 40.7324C134.741 40.7347 134.732 40.7393 134.721 40.7471L134.346 40.9971C134.108 41.1556 133.817 41.2148 133.522 41.1064L133.334 41.0381L133.147 40.9688C133.036 40.928 132.924 40.8935 132.815 40.8643L132.627 40.8145L132.44 40.7637C132.313 40.73 132.187 40.696 132.061 40.6611L131.686 40.5576C131.668 40.5528 131.652 40.5515 131.624 40.5625L131.437 40.6348L131.249 40.708C131.142 40.7496 131.033 40.7987 130.924 40.8555L130.736 40.9531L130.549 41.0498C130.34 41.1579 130.108 41.2063 129.865 41.168L129.678 41.1377L129.49 41.1084C129.388 41.0922 129.286 41.0828 129.185 41.0811L128.81 41.0752C128.688 41.0731 128.566 41.0714 128.443 41.0713H128.068C127.982 41.0713 127.894 41.0812 127.805 41.1016L127.43 41.1875C127.216 41.2362 127.001 41.2257 126.793 41.1602L126.606 41.1006L126.418 41.042C126.246 40.9876 126.08 40.9068 125.923 40.8057L125.735 40.6855L125.607 40.6025L125.491 40.665L125.304 40.7646C125.143 40.8506 124.974 40.9153 124.8 40.9531L124.612 40.9932L124.425 41.0342C124.135 41.0969 123.868 41.0124 123.653 40.8594L123.466 40.7256L123.372 40.6582L123.285 40.7178L123.098 40.8438C122.871 40.9963 122.593 41.0646 122.302 40.9785L121.927 40.8672C121.83 40.8384 121.734 40.8188 121.64 40.8086L121.452 40.7891L121.265 40.7686C121.222 40.7639 121.175 40.7681 121.118 40.7891L120.931 40.8594L120.743 40.9287C120.525 41.0099 120.294 41.0234 120.066 40.9629L119.691 40.8633C119.544 40.8245 119.399 40.7763 119.255 40.7178L119.068 40.6416L118.92 40.5811L118.76 40.6768L118.572 40.7871C118.303 40.9451 117.994 40.9589 117.711 40.8105L117.524 40.7129L117.336 40.6143C117.318 40.6046 117.307 40.6021 117.304 40.6016C117.302 40.6012 117.3 40.6008 117.296 40.6016L117.109 40.6416L116.921 40.6807C116.857 40.6941 116.783 40.7218 116.699 40.7715L116.324 40.9941C116.118 41.1165 115.88 41.1803 115.627 41.1465L115.252 41.0957C115.07 41.0713 114.894 41.0157 114.726 40.9346L114.538 40.8438L114.351 40.7539C114.334 40.7457 114.325 40.7442 114.324 40.7441H114.323C114.323 40.7442 114.321 40.7445 114.318 40.7451L114.131 40.793L113.943 40.8418C113.838 40.8688 113.731 40.9029 113.624 40.9443L113.249 41.0889C113.049 41.1661 112.837 41.1939 112.622 41.1631L112.435 41.1367L112.247 41.1094C112.166 41.0978 112.086 41.0974 112.006 41.1074L111.631 41.1543C111.469 41.1745 111.307 41.1762 111.145 41.1602L110.77 41.123C110.588 41.105 110.411 41.0569 110.242 40.9824L109.867 40.8164C109.766 40.7718 109.667 40.7384 109.57 40.7139L109.383 40.666L109.248 40.6309L109.068 40.7764L108.881 40.9268C108.692 41.0778 108.46 41.1867 108.192 41.1855L108.004 41.1846H107.817C107.656 41.1839 107.496 41.1655 107.337 41.1309L106.962 41.0488C106.842 41.0226 106.722 40.998 106.602 40.9756L106.414 40.9414L106.227 40.9062C106.085 40.8797 105.944 40.845 105.803 40.8037L105.615 40.749L105.441 40.6973C105.439 40.698 105.438 40.6994 105.437 40.7002L105.062 40.9092C104.777 41.0672 104.462 41.0575 104.188 40.8936L104 40.7822L103.813 40.6699L103.778 40.6543L103.593 40.6865L103.405 40.7197C103.353 40.7289 103.287 40.7523 103.208 40.8018L102.833 41.0361C102.563 41.2049 102.245 41.2244 101.955 41.0674L101.58 40.8643C101.504 40.8228 101.417 40.7702 101.344 40.7041C101.293 40.6584 101.128 40.5019 101.132 40.249L101.133 40.1836L101.134 40.1172L101.151 39.9902C101.179 39.8744 101.236 39.7895 101.268 39.7471C101.32 39.6767 101.383 39.613 101.443 39.5596L101.726 39.3057C101.826 39.2154 101.936 39.1374 102.053 39.0703H101.876C101.79 39.0703 101.702 39.0802 101.612 39.1006L101.237 39.1865C101.024 39.2352 100.808 39.2247 100.601 39.1592L100.413 39.0996L100.226 39.041C100.053 38.9866 99.8879 38.9058 99.7306 38.8047L99.5431 38.6846L99.4142 38.6016L99.299 38.6641L99.1115 38.7637C98.9503 38.8496 98.7819 38.9143 98.6075 38.9521L98.42 38.9922L98.2325 39.0332C97.9426 39.096 97.6757 39.0114 97.4611 38.8584L97.2736 38.7246L97.1798 38.6572L97.0929 38.7168L96.9054 38.8428C96.6783 38.9954 96.4002 39.0636 96.1095 38.9775L95.7345 38.8662C95.6374 38.8374 95.5413 38.8178 95.4474 38.8076L95.2599 38.7881L95.0724 38.7676C95.0295 38.7629 94.9823 38.7673 94.9259 38.7881L94.7384 38.8584L94.5509 38.9277C94.3323 39.009 94.1013 39.0224 93.8732 38.9619L93.4982 38.8623C93.3519 38.8235 93.2063 38.7753 93.0626 38.7168L92.8751 38.6406L92.7277 38.5801L92.5675 38.6758L92.38 38.7861C92.1111 38.9442 91.8016 38.9578 91.5187 38.8096L91.3312 38.7119L91.1437 38.6133C91.1256 38.6038 91.115 38.6012 91.1115 38.6006C91.1095 38.6003 91.1071 38.5999 91.1036 38.6006L90.9161 38.6406L90.7286 38.6797C90.6646 38.6931 90.5907 38.7209 90.507 38.7705L90.132 38.9932C89.9258 39.1156 89.6877 39.1792 89.4347 39.1455L89.0597 39.0947C88.8773 39.0703 88.7011 39.0147 88.5333 38.9336L88.3458 38.8428L88.1583 38.7529C88.1436 38.7458 88.1354 38.7436 88.1329 38.7432H88.131C88.1306 38.7432 88.1287 38.7435 88.1261 38.7441L87.9386 38.792L87.7511 38.8408C87.6459 38.8678 87.539 38.9019 87.4318 38.9434L87.0568 39.0879C86.857 39.1651 86.6448 39.1929 86.4298 39.1621L86.2423 39.1357L86.0548 39.1084C85.9742 39.0969 85.8939 39.0964 85.8136 39.1064L85.4386 39.1533C85.2769 39.1736 85.1143 39.1752 84.9523 39.1592L84.5773 39.1221C84.3955 39.1041 84.2189 39.0559 84.0499 38.9814L83.6749 38.8154C83.5739 38.7709 83.4745 38.7374 83.3781 38.7129L83.1906 38.665L83.0558 38.6299L82.8761 38.7754L82.6886 38.9258C82.5 39.0768 82.2671 39.1856 81.9991 39.1846L81.8116 39.1836H81.6241C81.4633 39.1829 81.3031 39.1645 81.1447 39.1299L80.7697 39.0479C80.6496 39.0216 80.5292 38.997 80.4093 38.9746L80.2218 38.9404L80.0343 38.9053C79.8925 38.8788 79.7511 38.844 79.6105 38.8027L79.423 38.748L79.2482 38.6963C79.247 38.6969 79.2456 38.6984 79.2443 38.6992L78.8693 38.9082C78.585 39.0663 78.2699 39.0565 77.9952 38.8926L77.8077 38.7812L77.6202 38.6689L77.5861 38.6533L77.4005 38.6855L77.213 38.7188C77.1608 38.7279 77.0956 38.7516 77.0167 38.8008L76.6417 39.0352C76.3712 39.2042 76.0532 39.2235 75.7628 39.0664L75.3878 38.8633C75.3711 38.8543 75.3621 38.8519 75.3605 38.8516L75.173 38.8936L74.9855 38.9365C74.8527 38.9663 74.7191 38.9918 74.5861 39.0146L74.2111 39.0791C74.0433 39.1078 73.8733 39.1145 73.7042 39.0986L73.3292 39.0635C73.2027 39.0516 73.0758 39.0386 72.9493 39.0254L72.5743 38.9863C72.4563 38.974 72.3378 38.9645 72.2198 38.957L71.8448 38.9336C71.754 38.9279 71.6621 38.9315 71.5704 38.9443L71.1954 38.9971C71.0001 39.0245 70.8048 39.0103 70.6154 38.957L70.2404 38.8516C70.1114 38.8153 69.9825 38.7762 69.8536 38.7363L69.6661 38.6787L69.4786 38.6201C69.4167 38.6009 69.3596 38.5966 69.3058 38.6025L68.9308 38.6436C68.8146 38.6564 68.6975 38.6725 68.5812 38.6914L68.3937 38.7227L68.2062 38.7529C68.1041 38.7696 68.0007 38.7937 67.8966 38.8252L67.5216 38.9385C67.3776 38.9821 67.2318 39.0169 67.0861 39.042L66.7111 39.1064C66.458 39.1499 66.2171 39.0945 66.006 38.9756L65.8185 38.8691L65.631 38.7637C65.5821 38.7361 65.5569 38.7364 65.547 38.7373L65.172 38.7725C65.053 38.7835 64.9336 38.7963 64.8146 38.8115L64.6271 38.8359L64.4396 38.8594C64.2819 38.8795 64.1232 38.8835 63.965 38.8721L63.7775 38.8594L63.59 38.8457C63.524 38.8409 63.4556 38.8474 63.3839 38.8672L63.0089 38.9707C62.7997 39.0284 62.5853 39.0295 62.3751 38.9746L62.0001 38.877C61.9979 38.8764 61.996 38.8761 61.9952 38.876C61.9949 38.876 61.9861 38.8769 61.9698 38.8848L61.5948 39.0664C61.452 39.1358 61.2884 39.1681 61.1173 39.1436C60.9507 39.1195 60.8092 39.0469 60.6954 38.959L60.5079 38.8135L60.3204 38.6689C60.3054 38.6574 60.2944 38.6516 60.2882 38.6484L60.1212 38.668L59.9337 38.6895C59.8747 38.6962 59.8062 38.7154 59.7286 38.7549L59.3536 38.9463C59.1235 39.0637 58.8656 39.097 58.6075 39.0195L58.2325 38.9062C58.0984 38.8659 57.9639 38.8221 57.8302 38.7734L57.6427 38.7051L57.4728 38.6426L57.2921 38.7363L57.1046 38.832C56.8696 38.9529 56.6062 38.9836 56.3448 38.8975L56.1573 38.835L55.9708 38.7734C55.969 38.7741 55.9661 38.7759 55.963 38.7773L55.7755 38.8652L55.588 38.9521C55.4104 39.0353 55.2216 39.0869 55.0255 39.0967L54.838 39.1055L54.6505 39.1152C54.43 39.1261 54.22 39.074 54.0275 38.9775L53.84 38.8838L53.6525 38.7891C53.6508 38.7882 53.6489 38.7877 53.6476 38.7871L53.4679 38.8457L53.2804 38.9062C53.0675 38.9752 52.8461 38.9833 52.6281 38.9277L52.4406 38.8799L52.2648 38.835C52.2622 38.8362 52.2588 38.8386 52.255 38.8408L51.88 39.0615C51.7395 39.1441 51.5692 39.1922 51.3839 39.1719C51.2033 39.152 51.053 39.0715 50.9366 38.9775L50.5616 38.6748C50.5308 38.6499 50.5102 38.6394 50.5011 38.6357L50.4991 38.6348H50.1261C50.0511 38.6347 49.9735 38.6453 49.8927 38.6689L49.7052 38.7246L49.5177 38.7793C49.3959 38.8151 49.2733 38.8523 49.1515 38.8906L48.964 38.9492L48.7765 39.0088C48.5865 39.0686 48.389 39.0885 48.1906 39.0645L48.0031 39.041L47.8156 39.0186C47.6857 39.0028 47.5557 38.9847 47.4259 38.9648L47.2384 38.9365L47.0509 38.9072C46.9737 38.8954 46.8963 38.8947 46.8195 38.9053L46.632 38.9316L46.4445 38.957C46.3016 38.9768 46.1581 38.9893 46.0148 38.9932L45.6398 39.0029C45.4238 39.0088 45.218 38.9567 45.0284 38.8623L44.8409 38.7695L44.6534 38.6758C44.6148 38.6565 44.5971 38.6586 44.588 38.6602L44.213 38.7266C44.0732 38.7513 43.9325 38.7696 43.7921 38.7812L43.4171 38.8125C43.2295 38.828 43.0434 38.8083 42.8624 38.7559L42.6749 38.7012L42.5031 38.6504C42.502 38.651 42.5004 38.6525 42.4991 38.6533L42.1241 38.8682C41.9936 38.9428 41.8395 38.9892 41.671 38.9834C41.5036 38.9775 41.3552 38.921 41.2316 38.8418L41.0441 38.7207L40.9337 38.6504L40.8273 38.7168L40.6398 38.833C40.4161 38.9714 40.1511 39.03 39.8751 38.958L39.5001 38.8604C39.436 38.8436 39.3749 38.84 39.3156 38.8477L38.9406 38.8965C38.7841 38.9169 38.6269 38.922 38.4698 38.9121L38.0948 38.8887C37.9922 38.8822 37.889 38.8825 37.7863 38.8896L37.5988 38.9033L37.4113 38.916C37.2547 38.927 37.0977 38.9231 36.9415 38.9043L36.5665 38.8594C36.439 38.844 36.3112 38.827 36.1837 38.8096L35.8087 38.7588C35.7775 38.7545 35.7408 38.7571 35.6915 38.7773L35.3165 38.9316C35.0559 39.0389 34.7824 39.0258 34.5333 38.9053L34.1583 38.7236L34.1573 38.7227L33.9777 38.7852L33.7902 38.8506C33.5343 38.9392 33.2727 38.9175 33.0353 38.8037L32.8478 38.7139L32.7706 38.6768L32.6447 38.7891L32.4572 38.9551C32.3387 39.0596 32.1736 39.1547 31.9679 39.167C31.7577 39.1793 31.5798 39.1002 31.4474 38.999L31.2599 38.8555L31.1456 38.7686L31.0577 38.8184L30.8702 38.9229C30.7404 38.9953 30.5884 39.0403 30.423 39.0352C30.2584 39.03 30.1112 38.9763 29.9874 38.8994L29.7999 38.7822L29.631 38.6777L29.4845 38.7314L29.297 38.7988C29.1577 38.8494 29.0167 38.8933 28.8761 38.9297L28.5011 39.0273C28.3454 39.0676 28.1872 39.0928 28.0284 39.1016L27.8409 39.1113L27.6534 39.1221C27.5167 39.1296 27.3791 39.1322 27.2423 39.1299L27.0548 39.126L26.8673 39.123C26.7382 39.1208 26.6087 39.1169 26.4796 39.1113L26.1046 39.0957C25.9704 39.0899 25.8354 39.0797 25.7013 39.0664L25.5148 39.0479L25.3273 39.0293C25.1876 39.0154 25.0474 38.9951 24.9083 38.9688L24.5333 38.8984C24.3988 38.873 24.2641 38.8431 24.13 38.8096L23.755 38.7158C23.7219 38.7075 23.6905 38.7077 23.6525 38.7197L23.2775 38.8389C23.1397 38.8827 23.0011 38.9206 22.8624 38.9521L22.4874 39.0381C22.1843 39.107 21.9097 39.0087 21.6964 38.8447L21.5089 38.7012L21.3566 38.583L21.2443 38.6279L21.0568 38.7002C20.8645 38.7746 20.6615 38.8057 20.4542 38.7861L20.0792 38.751C20.0422 38.7475 19.9987 38.7525 19.9435 38.7754L19.756 38.8525L19.5685 38.9307C19.269 39.0553 18.9676 39.0013 18.7218 38.8359L18.3468 38.584C18.2919 38.5471 18.2648 38.5459 18.2589 38.5459L18.0714 38.5479L17.8839 38.5508C17.8076 38.5519 17.7279 38.5641 17.6456 38.5889L17.2706 38.7021C17.0913 38.7562 16.9065 38.7792 16.7198 38.7676L16.5323 38.7559L16.3448 38.7432C16.2603 38.7379 16.1751 38.7436 16.089 38.7588L15.714 38.8252C15.5579 38.8529 15.3999 38.865 15.2423 38.8623L15.0548 38.8594L14.8673 38.8555C14.7356 38.8532 14.6035 38.8487 14.4718 38.8408L14.2843 38.8291L14.0968 38.8184C13.9962 38.8123 13.8948 38.8137 13.7941 38.8223L13.4191 38.8535C13.2139 38.871 13.013 38.8397 12.8224 38.7666L12.4474 38.6221C12.3748 38.5942 12.3086 38.5834 12.2482 38.583L12.0607 38.5811L11.8732 38.5801C11.8436 38.5799 11.8004 38.5871 11.7394 38.6201L11.5519 38.7217L11.3644 38.8242C11.156 38.9372 10.921 38.9891 10.6749 38.9512L10.4874 38.9219L10.2999 38.8936C10.2361 38.8837 10.1724 38.8854 10.1066 38.8994L9.91907 38.9395L9.73157 38.9805C9.54715 39.0201 9.35929 39.0254 9.17297 38.9961L8.98547 38.9658L8.79797 38.9365C8.75225 38.9294 8.70512 38.9325 8.65149 38.9492L8.46399 39.0078L8.27649 39.0674C7.95244 39.1692 7.65544 39.0633 7.43469 38.8828L7.24719 38.7295L7.08313 38.5957L6.96887 38.6328L6.78137 38.6943C6.64773 38.7378 6.51313 38.7771 6.37903 38.8125L6.19153 38.8623L6.00403 38.9111C5.88566 38.9423 5.76618 38.9763 5.64758 39.0127L5.27258 39.1279C4.95844 39.2241 4.66724 39.1299 4.44446 38.957L4.25696 38.8105L4.1886 38.7568L4.12024 38.8115L3.93274 38.957C3.74887 39.0998 3.52855 39.2029 3.27844 39.2168L3.09094 39.2275L2.90344 39.2373C2.67083 39.2501 2.45237 39.1894 2.25696 39.0801L2.06946 38.9756L1.88196 38.8701C1.79707 38.8226 1.7206 38.7951 1.65247 38.7812L1.27747 38.7051C1.18392 38.6861 1.09074 38.6762 0.999146 38.6758H0.811646L0.624146 38.6748C0.581469 38.6746 0.529971 38.6724 0.478638 38.665C0.445884 38.6603 0.333887 38.6444 0.225708 38.5703C0.162432 38.527 0.0698385 38.4424 0.0245361 38.3018C-0.0227085 38.1548 0.0061626 38.0223 0.0450439 37.9346C0.107234 37.7946 0.215615 37.7187 0.240356 37.7012L0.332153 37.6357L0.422974 37.5713C0.547723 37.4828 0.698261 37.4239 0.839966 37.3809L1.02063 37.3252L1.20227 37.2705C1.36917 37.2199 1.54266 37.1935 1.71985 37.1895L1.92297 37.1855L2.10657 37.1807L2.23254 37.0361L2.36731 36.8789C2.50831 36.7151 2.68415 36.5873 2.8927 36.5137L3.24817 36.3887C3.41212 36.3309 3.5832 36.2965 3.75891 36.2852L3.95911 36.2725L4.14563 36.2598L4.27844 36.1055L4.41223 35.9473L4.48645 35.8691C4.66607 35.6989 4.89684 35.611 5.15051 35.6182L5.35852 35.624L5.51282 35.6279L5.6134 35.4922L5.74133 35.3184L5.81555 35.2285C5.97377 35.061 6.18155 34.9669 6.41223 34.959L6.5304 34.9619L6.95813 35.001C6.98014 35.0029 6.99136 35.0007 6.99426 35L6.99622 34.999H6.99719L7.15344 34.8896L7.30969 34.7793C7.48783 34.6547 7.68992 34.5832 7.90442 34.5635L8.10168 34.5459L8.27161 34.5293L8.39368 34.3633L8.52063 34.1895L8.59583 34.0996C8.77942 33.9039 9.02996 33.8065 9.30774 33.8301L9.52161 33.8486L9.60754 33.8555L9.672 33.7256L9.77942 33.5059C9.84284 33.3765 9.93784 33.2457 10.0792 33.1494C10.2256 33.0499 10.3914 33.008 10.5548 33.0117L10.7618 33.0166L10.9337 33.0205L11.046 32.8848L11.1788 32.7236C11.3305 32.5394 11.5306 32.4052 11.7726 32.3496L12.1456 32.2637C12.2455 32.2407 12.3423 32.2103 12.4347 32.1738L12.6085 32.1055L12.7833 32.0361C12.9826 31.9575 13.1931 31.9347 13.4025 31.9541L13.6163 31.9746L13.8312 31.9941C13.8359 31.9945 13.84 31.9941 13.8429 31.9941L13.9874 31.8789L14.1378 31.7578C14.3119 31.6175 14.5154 31.5321 14.7365 31.5049L14.9308 31.4805L15.1095 31.459L15.1115 31.457L15.3693 31.1152C15.4891 30.9564 15.6336 30.8202 15.8048 30.7188L15.9669 30.623L16.129 30.5264C16.2622 30.4475 16.4023 30.3805 16.547 30.3262L16.7228 30.2598L16.8986 30.1943C17.1147 30.1133 17.3405 30.1046 17.5587 30.1426L17.7814 30.1816L17.8771 30.1973L17.9318 30.0996L18.046 29.8945L18.1124 29.791C18.1878 29.6902 18.2899 29.5981 18.4249 29.5391C18.5599 29.4802 18.6966 29.4677 18.8214 29.4805L18.9415 29.501L19.171 29.5547L19.254 29.5742L19.296 29.4961L19.4073 29.2852C19.5345 29.0446 19.7478 28.8386 20.0597 28.7812L20.2491 28.7471L20.4396 28.7119C20.5599 28.6898 20.6798 28.665 20.798 28.6387L20.9845 28.5977L21.171 28.5557C21.1906 28.5512 21.2123 28.5428 21.2404 28.5127L21.379 28.3633L21.5177 28.2148C21.6988 28.0208 21.9357 27.9108 22.2023 27.8994L22.4044 27.8906L22.6056 27.8818C22.6119 27.8815 22.6162 27.8803 22.6183 27.8799C22.6194 27.8797 22.6208 27.88 22.6212 27.8799L22.6232 27.8789C22.6243 27.8779 22.6266 27.8753 22.63 27.8721L22.9191 27.6006C23.1105 27.4206 23.3505 27.3289 23.6085 27.3271L23.8126 27.3262L23.9806 27.3242L24.0939 27.1816L24.2247 27.0146L24.3029 26.9277C24.3865 26.8457 24.4888 26.778 24.6095 26.7363C24.768 26.6817 24.9271 26.6813 25.0695 26.709L25.295 26.7529L25.5197 26.7969C25.6005 26.8125 25.6412 26.8029 25.6583 26.7969L25.8361 26.7344L26.0128 26.6709C26.073 26.6494 26.1309 26.6169 26.1866 26.5703L26.4855 26.3203C26.6029 26.2221 26.7262 26.1327 26.8546 26.0537L27.0157 25.9551L27.1769 25.8555C27.2945 25.783 27.4151 25.7154 27.5372 25.6523L27.7042 25.5654L27.8712 25.4795C28.0279 25.3987 28.195 25.3428 28.3693 25.3115L28.5597 25.2773L28.7491 25.2432C28.8567 25.2238 28.9617 25.1988 29.0626 25.168L29.2433 25.1123L29.424 25.0576C29.4937 25.0363 29.5595 25.0041 29.6212 24.9609L29.9337 24.7422C30.0741 24.6441 30.2259 24.5659 30.3868 24.5088L30.5646 24.4463L30.7413 24.3828C30.8242 24.3534 30.9041 24.3152 30.9796 24.2676L31.1398 24.167L31.2999 24.0654C31.3782 24.016 31.4544 23.9563 31.5284 23.8867L31.8175 23.6152C31.9437 23.4966 32.0829 23.3955 32.2335 23.3145L32.3986 23.2256L32.5646 23.1357C32.7966 23.011 33.0491 22.9937 33.2863 23.0391L33.5109 23.082L33.6027 23.0996L33.6544 23.0068L33.7677 22.8008C33.8907 22.577 34.0836 22.3833 34.3615 22.3027L34.7247 22.1973C34.7927 22.1775 34.8565 22.1471 34.9161 22.1055L35.2286 21.8867C35.3655 21.7911 35.5128 21.7128 35.6681 21.6533L36.0197 21.5186C36.1327 21.4753 36.2456 21.4306 36.3575 21.3848L36.7052 21.2422C36.9359 21.148 37.1777 21.1461 37.4044 21.1963L37.632 21.2471L37.8605 21.2979C37.8632 21.2984 37.866 21.2984 37.8683 21.2988L37.9962 21.2061L38.1515 21.0938C38.2113 21.0501 38.2721 20.9907 38.3322 20.9121L38.462 20.7432L38.5909 20.5732C38.7232 20.4002 38.8925 20.2598 39.0997 20.1738L39.2736 20.1016L39.4464 20.0303C39.5991 19.967 39.7591 19.9219 39.924 19.8955L40.1154 19.8652L40.3068 19.834C40.4176 19.8162 40.5261 19.7929 40.631 19.7646L40.8146 19.7158L40.9972 19.666C41.0431 19.6536 41.0863 19.6311 41.129 19.5938L41.2765 19.4648L41.4249 19.335L41.5079 19.2695C41.7081 19.1302 41.9423 19.0842 42.1759 19.1113L42.3927 19.1357L42.6095 19.1611C42.6197 19.1623 42.6269 19.1613 42.631 19.1611L42.7765 19.0527L42.9308 18.9375C43.0489 18.8491 43.1715 18.7681 43.298 18.6953L43.4611 18.6016L43.6251 18.5068C43.6828 18.4735 43.7418 18.4268 43.7999 18.3613L43.9366 18.207L44.0734 18.0537C44.2454 17.86 44.473 17.7396 44.7365 17.7158L44.9337 17.6973L45.131 17.6797C45.2056 17.6729 45.2685 17.6546 45.3234 17.6279L45.6613 17.4639C45.717 17.4366 45.7734 17.3966 45.8292 17.3389L45.9698 17.1943L46.1105 17.0488C46.2424 16.9125 46.3937 16.7999 46.5646 16.7188L46.7335 16.6387L46.9034 16.5576C47.0437 16.491 47.1903 16.4371 47.3409 16.3965L47.5236 16.3477L47.7072 16.2979C47.9157 16.2417 48.1301 16.2433 48.339 16.2832L48.5646 16.3262L48.7277 16.3574L48.8087 16.2627L48.9435 16.1055C49.1027 15.9188 49.3125 15.79 49.5626 15.7461L49.7531 15.7119L49.9435 15.6787C49.9492 15.6777 49.9518 15.6766 49.9532 15.6758C49.9557 15.6743 49.964 15.6689 49.9757 15.6553L50.1105 15.4971L50.2452 15.3398L50.3282 15.2549C50.4175 15.1756 50.5249 15.1137 50.6486 15.0791C50.8093 15.0342 50.9675 15.0428 51.1066 15.0762L51.337 15.1318L51.4777 15.165L51.5382 15.0859L51.6671 14.915L51.7325 14.8359C51.8927 14.6611 52.1064 14.5495 52.3585 14.5312L52.5577 14.5166L52.7003 14.5059L52.8048 14.3389L52.924 14.1455C53.0432 13.9525 53.2068 13.7865 53.423 13.6836L53.5919 13.6025L53.7609 13.5225L53.8615 13.4814C54.0951 13.4027 54.3344 13.4284 54.5431 13.4971L54.7833 13.5762L54.8917 13.6113L54.924 13.5615L55.0431 13.3701C55.149 13.1998 55.2785 13.0482 55.4357 12.9277L55.7423 12.6934C55.8784 12.5892 56.0259 12.5037 56.1837 12.4395L56.3575 12.3691L56.5314 12.2979C56.7498 12.209 56.9799 12.1973 57.2013 12.2354L57.424 12.2744L57.5323 12.293L57.5929 12.1943L57.7101 11.999C57.7962 11.8567 57.9299 11.7241 58.1202 11.6572C58.3057 11.5922 58.4876 11.6092 58.6359 11.6533L58.8732 11.7246L59.0851 11.7871L59.1749 11.7109L59.3234 11.583C59.4387 11.4838 59.5601 11.3928 59.6857 11.3115L59.8448 11.209L60.004 11.1055C60.1292 11.0245 60.2594 10.9522 60.3937 10.8896L60.7335 10.7314C60.8685 10.6686 61.0084 10.6154 61.1515 10.5723L61.3331 10.5176L61.5138 10.4629C61.5678 10.4466 61.6187 10.42 61.6681 10.3789L61.8185 10.2539L61.9679 10.1289L62.0558 10.0645C62.266 9.92754 62.5081 9.89308 62.7413 9.93164L62.963 9.96875L63.1847 10.0049C63.2139 10.0097 63.229 10.0084 63.2325 10.0078C63.2338 10.0077 63.2319 10.0085 63.2296 10.0098L63.3917 9.91211L63.5538 9.81543C63.5655 9.80834 63.5999 9.78271 63.6417 9.70312L63.7521 9.49219L63.8634 9.28125C63.99 9.04093 64.2026 8.83499 64.5138 8.77637L64.7032 8.74023L64.8927 8.70508C65.0239 8.68037 65.1563 8.6575 65.2892 8.63672L65.4816 8.60645L65.673 8.57617C65.709 8.57048 65.7377 8.55785 65.7667 8.5332L65.9161 8.40625L66.0646 8.2793C66.2579 8.11485 66.4915 8.0337 66.7394 8.03223L67.1495 8.03027C67.2383 8.02968 67.3144 8.01667 67.38 7.99512L67.5587 7.93652L67.7384 7.87695C67.7807 7.86294 67.8235 7.83866 67.8673 7.7959L68.1525 7.5166C68.2921 7.38033 68.4539 7.27296 68.6359 7.20117L68.8107 7.13184L68.9855 7.06348C69.0664 7.03154 69.1446 6.99026 69.2189 6.93945L69.5333 6.72461C69.629 6.65915 69.7236 6.58936 69.8165 6.5166L69.9689 6.39746L70.1202 6.27832C70.2994 6.1381 70.5088 6.05754 70.7335 6.03711L70.9308 6.01953L71.1281 6.00098C71.2433 5.99048 71.3559 5.9751 71.465 5.9541L71.6544 5.91699L71.8439 5.88086C71.8829 5.87323 71.9166 5.85804 71.9503 5.8291L72.0988 5.70117L72.2472 5.57422L72.3292 5.51074C72.5272 5.37485 72.7574 5.32737 72.9884 5.35156L73.42 5.39648C73.48 5.40272 73.5054 5.39216 73.5157 5.38672L73.6827 5.29883L73.8488 5.21191C73.9275 5.17033 74.0035 5.11811 74.0773 5.05664L74.2277 4.93262L74.3771 4.80762C74.5006 4.70485 74.6325 4.61509 74.7716 4.53906L74.9366 4.44824L75.1017 4.3584C75.2444 4.28046 75.3951 4.21845 75.5519 4.17383L75.7345 4.12207L75.9161 4.07031C75.968 4.0555 76.0174 4.03073 76.0646 3.99121L76.3634 3.74121C76.4937 3.63216 76.6354 3.53941 76.7872 3.4668L76.9562 3.38574L77.1251 3.30566C77.3137 3.21559 77.5165 3.17535 77.7228 3.17773L77.9288 3.18066L78.0665 3.18164L78.1613 3.03809L78.2833 2.85156C78.4225 2.63887 78.6265 2.47088 78.8966 2.4082L79.2697 2.32227C79.3674 2.29956 79.4612 2.26942 79.5509 2.23242L79.7247 2.16113L79.8976 2.08984C79.9799 2.05584 80.0599 2.01225 80.1359 1.95996L80.2921 1.85156L80.4493 1.74414C80.5538 1.67228 80.6597 1.59945 80.7657 1.52637L80.9249 1.41602L81.0851 1.30664L81.1818 1.24805C81.4114 1.12899 81.662 1.1269 81.8898 1.19141L82.1154 1.25488L82.2316 1.28711L82.3009 1.19336L82.4376 1.00488L82.5206 0.90625C82.6134 0.811857 82.7366 0.73188 82.8917 0.697266C83.0937 0.652393 83.2781 0.700585 83.4191 0.768555L83.6427 0.875977L83.799 0.952148L83.8751 0.889648L84.0372 0.755859C84.1864 0.632205 84.3524 0.534239 84.5343 0.470703L84.7159 0.407227L84.8966 0.344727C85.0327 0.297225 85.1716 0.255828 85.3116 0.22168L85.4982 0.175781L85.6857 0.130859L85.7999 0.110352C86.0628 0.0819764 86.2999 0.177624 86.4874 0.318359L86.6847 0.466797L86.7404 0.508789L86.8058 0.447266L86.9913 0.272461C87.1727 0.101005 87.4243 -0.0289903 87.7159 0.00585938Z" fill="#C2DBFA"/>
</svg>
