<svg width="276" height="71" viewBox="0 0 276 71" fill="none" xmlns="http://www.w3.org/2000/svg">
<path d="M188.525 0.0475437C188.761 -0.0315299 189.008 -0.0119482 189.236 0.106137L189.419 0.201841L189.602 0.296567C189.684 0.339155 189.758 0.36366 189.825 0.375669L190.008 0.408872L190.192 0.441098C190.194 0.441555 190.199 0.442577 190.208 0.441098C190.219 0.439275 190.239 0.433675 190.268 0.419614L190.467 0.323911L190.666 0.227231C190.866 0.130782 191.09 0.0898653 191.319 0.137387L191.417 0.162778L191.781 0.279966C191.825 0.29424 191.875 0.298611 191.935 0.289731L192.132 0.260434L192.33 0.231137C192.572 0.195464 192.809 0.239359 193.022 0.36102L193.193 0.458676L193.365 0.557309C193.507 0.63898 193.643 0.734414 193.771 0.843442L194.044 1.07782L194.217 1.03387L194.429 0.980161C194.658 0.921488 194.899 0.924278 195.13 1.01922L195.305 1.09051L195.48 1.16278C195.639 1.22832 195.789 1.31518 195.926 1.42157L196.081 1.54168L196.236 1.6618C196.345 1.7461 196.452 1.83233 196.556 1.92059L196.704 2.04559L196.851 2.16864H196.865L197.074 2.15887L197.284 2.14813C197.498 2.13794 197.71 2.17462 197.907 2.2702L198.075 2.35321L198.245 2.43524C198.45 2.53503 198.611 2.68893 198.731 2.87469L198.959 3.23016C198.971 3.24902 198.979 3.25666 198.982 3.25848C198.983 3.25973 198.985 3.26042 198.988 3.26141L199.169 3.32L199.35 3.3786C199.543 3.44134 199.716 3.54569 199.862 3.68817L199.997 3.82098L200.132 3.95282C200.212 4.03111 200.294 4.10441 200.378 4.17352L200.521 4.29168L200.663 4.40887C200.715 4.45177 200.776 4.48842 200.848 4.51629L201.029 4.58563L201.208 4.65497C201.358 4.71297 201.502 4.78569 201.626 4.88055L201.739 4.96649C201.837 4.96775 201.912 4.99664 201.95 5.01434C202.034 5.05275 202.091 5.10571 202.113 5.12567C202.166 5.17618 202.217 5.23965 202.259 5.29461L202.375 5.44696L202.492 5.5993C202.525 5.64129 202.562 5.67288 202.61 5.69696L202.953 5.87079C203.065 5.92758 203.178 5.98438 203.291 6.03973L203.639 6.20965C203.811 6.2937 203.963 6.40722 204.091 6.5495L204.345 6.83075C204.464 6.96301 204.562 7.11293 204.64 7.27606L204.729 7.46161L204.775 7.55731L204.948 7.56219L205.186 7.56903C205.345 7.57332 205.524 7.61703 205.679 7.74188C205.796 7.83618 205.871 7.95366 205.916 8.07293L205.952 8.1911L206.005 8.42059L206.047 8.60223L206.162 8.64032L206.355 8.70379C206.488 8.74733 206.621 8.79261 206.751 8.84051L206.939 8.90985L207.125 8.97821C207.297 9.0414 207.457 9.12928 207.599 9.24286L207.745 9.36004L207.892 9.47625C208.003 9.56476 208.109 9.65913 208.21 9.75848L208.345 9.89032L208.479 10.0222C208.633 10.1733 208.74 10.3577 208.808 10.5583L208.878 10.7663L208.936 10.9362L209.079 10.9792L209.275 11.0378C209.503 11.1055 209.701 11.2375 209.846 11.4343L209.96 11.5895L210.075 11.7448C210.093 11.7683 210.113 11.7859 210.149 11.7995L210.335 11.8688L210.521 11.9391C210.709 12.0101 210.877 12.118 211.019 12.2624L211.151 12.3962L211.283 12.5309C211.371 12.6216 211.46 12.713 211.548 12.8044L211.81 13.0759C211.952 13.2228 212.055 13.3971 212.125 13.5876L212.2 13.7907L212.223 13.8542L212.366 13.8483L212.619 13.8386C212.851 13.829 213.105 13.8792 213.309 14.0534L213.393 14.1364L213.645 14.4196C213.733 14.5182 213.82 14.6183 213.905 14.7204L214.026 14.8669L214.148 15.0134C214.227 15.1085 214.307 15.2025 214.388 15.2956L214.636 15.5827C214.725 15.686 214.813 15.7927 214.897 15.902L215.013 16.0544L215.13 16.2067C215.205 16.3042 215.281 16.4004 215.359 16.4948L215.48 16.6423L215.6 16.7897C215.652 16.8534 215.711 16.9074 215.776 16.9528L215.929 17.0612L216.083 17.1686C216.107 17.185 216.15 17.2068 216.232 17.2165L216.454 17.2429L216.676 17.2692C216.913 17.2974 217.143 17.3886 217.325 17.569L217.593 17.8327C217.644 17.8835 217.704 17.9266 217.773 17.9616L218.116 18.1354C218.333 18.2451 218.495 18.417 218.601 18.6286L218.692 18.8122L218.773 18.9743L218.955 19.0231L219.156 19.0759C219.376 19.1338 219.574 19.2477 219.729 19.4235L219.855 19.5661L219.98 19.7087C220.048 19.7866 220.121 19.8589 220.199 19.9255L220.341 20.0475L220.483 20.1706C220.636 20.3026 220.753 20.4645 220.838 20.6462L220.926 20.8337L220.991 20.9733L221.162 21.0046L221.375 21.0427C221.633 21.089 221.85 21.2294 221.987 21.4518L222.04 21.5524L222.127 21.7409L222.202 21.904L222.375 21.9499L222.575 22.0036C222.73 22.0449 222.874 22.128 222.987 22.2585C223.096 22.3854 223.156 22.5325 223.185 22.6725L223.233 22.9069L223.244 22.9626L223.326 22.9606L223.577 22.9518C223.722 22.947 223.887 22.9687 224.041 23.0514C224.162 23.1162 224.257 23.2079 224.326 23.3141L224.388 23.4255L224.56 23.8044C224.595 23.8808 224.635 23.9361 224.676 23.9772L224.944 24.2429C224.999 24.298 225.063 24.345 225.134 24.3845L225.302 24.4772L225.469 24.569C225.6 24.6413 225.725 24.7216 225.844 24.8102L226.145 25.0348C226.32 25.1658 226.45 25.3376 226.538 25.5329L226.623 25.7233L226.675 25.8386L226.839 25.8552L227.066 25.8766C227.3 25.8996 227.53 25.9822 227.718 26.153L227.857 26.279L227.995 26.4059C228.169 26.5638 228.279 26.7642 228.341 26.9792L228.404 27.197L228.463 27.4001L228.604 27.4587L228.785 27.5339C228.893 27.5785 229.006 27.6189 229.121 27.6559L229.314 27.7175L229.507 27.78C229.759 27.8608 229.943 28.0316 230.05 28.2536L230.091 28.3522L230.164 28.5563L230.239 28.7604C230.268 28.842 230.302 28.8951 230.335 28.9304L230.465 29.0681L230.594 29.2057C230.6 29.2116 230.614 29.2259 230.665 29.236L230.875 29.278L231.085 29.319C231.322 29.3661 231.54 29.4811 231.703 29.6764L231.825 29.822L231.948 29.9684C231.978 30.0053 232.016 30.0341 232.067 30.0563L232.245 30.1345L232.424 30.2136C232.629 30.3037 232.799 30.4452 232.925 30.6306L233.144 30.9528C233.231 31.0813 233.309 31.2182 233.379 31.362L233.469 31.5466L233.559 31.7321C233.581 31.7786 233.604 31.7998 233.625 31.8132L233.785 31.9147L233.946 32.0153C234.012 32.0571 234.089 32.0932 234.179 32.1208L234.568 32.2399C234.816 32.3159 235.019 32.4739 235.15 32.7018L235.349 33.0495C235.361 33.07 235.37 33.076 235.386 33.0827L235.568 33.1579L235.75 33.2321C235.872 33.282 235.994 33.3323 236.116 33.3825L236.296 33.4577L236.478 33.5329C236.638 33.5994 236.788 33.6858 236.924 33.7917L237.072 33.9069L237.22 34.0222C237.363 34.1336 237.485 34.267 237.585 34.4186L237.694 34.5817L237.801 34.7448C237.828 34.786 237.86 34.8134 237.898 34.8337L238.067 34.9235L238.236 35.0143C238.359 35.0802 238.479 35.1503 238.596 35.2243L238.755 35.3259L238.915 35.4264C239.145 35.5718 239.281 35.7918 239.35 36.03L239.412 36.2477L239.468 36.4411L239.606 36.4938L239.791 36.5632C240.001 36.6426 240.18 36.7753 240.316 36.9567L240.546 37.2653C240.583 37.3145 240.626 37.3515 240.676 37.3806L240.841 37.4763L241.005 37.571C241.226 37.6986 241.377 37.8933 241.464 38.1188L241.541 38.319L241.619 38.5182C241.64 38.5712 241.66 38.5878 241.669 38.5944L241.824 38.7009L241.979 38.8083C241.979 38.8086 241.981 38.8093 241.983 38.8102C241.986 38.8116 241.991 38.8139 241.999 38.8161C242.017 38.8206 242.047 38.8252 242.092 38.8249L242.338 38.8229L242.584 38.822L242.703 38.8278C242.826 38.842 242.955 38.8821 243.074 38.9655C243.197 39.0512 243.279 39.1633 243.332 39.2809L243.376 39.3991L243.501 39.8347C243.528 39.9262 243.56 39.9844 243.59 40.0212L243.711 40.1686L243.826 40.3083C243.831 40.3099 243.84 40.314 243.855 40.3161L244.292 40.3766C244.569 40.415 244.8 40.564 244.935 40.8063L244.987 40.9157L245.065 41.1139L245.105 41.2136L245.252 41.2223L245.486 41.236C245.639 41.2448 245.807 41.2893 245.953 41.402C246.064 41.4874 246.141 41.5946 246.192 41.7067L246.235 41.82L246.298 42.0358L246.363 42.2507C246.384 42.3232 246.41 42.3507 246.421 42.361L246.561 42.486L246.701 42.611C246.74 42.6455 246.79 42.6755 246.858 42.6979L247.048 42.7614L247.24 42.8249C247.404 42.8794 247.559 42.952 247.702 43.0436L247.862 43.1452L248.021 43.2477C248.153 43.3327 248.277 43.4295 248.391 43.5378L248.528 43.6667L248.663 43.7966C248.756 43.8848 248.848 43.9743 248.94 44.0641L249.074 44.196L249.208 44.3278C249.311 44.4285 249.408 44.535 249.499 44.6472L249.62 44.7946L249.741 44.9431C249.798 45.0116 249.859 45.0713 249.927 45.1227L250.076 45.236L250.226 45.3503C250.331 45.4304 250.435 45.5127 250.536 45.5973L250.681 45.7175L250.824 45.8376C250.95 45.9424 251.064 46.0608 251.163 46.1921L251.28 46.3454L251.38 46.4782C251.383 46.4786 251.386 46.4789 251.389 46.4792L251.615 46.5016L251.84 46.5251C252.095 46.5507 252.331 46.666 252.489 46.8845L252.552 46.9841L252.743 47.3395C252.75 47.3521 252.755 47.3563 252.756 47.3571C252.757 47.3579 252.761 47.3603 252.77 47.3639L252.952 47.4382L253.135 47.5114C253.379 47.6094 253.561 47.7882 253.671 48.0192L253.761 48.2048L253.838 48.3659L254.015 48.4118L254.216 48.4636C254.491 48.5345 254.688 48.7148 254.795 48.9538L254.836 49.0593L254.971 49.4831C254.978 49.5049 254.984 49.5156 254.987 49.5192L255.146 49.6159L255.308 49.7145C255.436 49.7922 255.557 49.8781 255.672 49.9723L255.818 50.0915L255.962 50.2106C256.045 50.2784 256.132 50.342 256.222 50.4011L256.38 50.5036L256.537 50.6071C256.717 50.7246 256.857 50.8829 256.957 51.069L257.054 51.2468L257.119 51.3679L257.307 51.3884L257.533 51.4118C257.748 51.4342 257.958 51.5112 258.13 51.6638L258.201 51.7341L258.329 51.8737L258.457 52.0124C258.507 52.0668 258.565 52.1127 258.63 52.1501L258.795 52.2438L258.961 52.3386C259.154 52.4483 259.305 52.6046 259.412 52.7946L259.512 52.9684L259.611 53.1432C259.681 53.2681 259.749 53.3967 259.814 53.528L259.904 53.7116L259.994 53.8962C260.016 53.941 260.039 53.961 260.059 53.9733L260.22 54.072L260.382 54.1706C260.515 54.2517 260.639 54.3444 260.755 54.447L260.895 54.571L261.035 54.695C261.08 54.7346 261.135 54.7686 261.205 54.7946L261.392 54.8639L261.577 54.9333C261.805 55.0179 261.991 55.1687 262.119 55.3757L262.223 55.5436L262.327 55.7116C262.36 55.7637 262.396 55.7993 262.437 55.8259L262.595 55.9294L262.754 56.0319C262.826 56.0786 262.907 56.119 262.998 56.152L263.373 56.2888C263.597 56.3702 263.783 56.5148 263.915 56.7155L264.023 56.8786L264.13 57.0427L264.134 57.0475C264.134 57.0478 264.136 57.0485 264.138 57.0495C264.141 57.0508 264.146 57.0532 264.154 57.0554L264.351 57.111L264.549 57.1667C264.807 57.2392 265.016 57.4013 265.147 57.6393L265.244 57.8161L265.336 57.9831L265.529 58.0358L265.728 58.0905C265.931 58.146 266.116 58.2444 266.273 58.3903L266.41 58.5182L266.547 58.6462C266.682 58.7725 266.793 58.9208 266.88 59.0856L266.975 59.2653L267.07 59.444C267.128 59.5548 267.189 59.6622 267.252 59.7663L267.355 59.9362L267.457 60.1052C267.492 60.1629 267.533 60.204 267.576 60.235L267.73 60.3444L267.883 60.4528C267.941 60.4938 268.01 60.5294 268.093 60.5563L268.285 60.6188L268.478 60.6804C268.602 60.7205 268.727 60.7592 268.854 60.7966L269.05 60.8552L269.245 60.9128C269.526 60.9958 269.712 61.1931 269.807 61.4362L269.842 61.5427L269.902 61.7643L269.929 61.8698L270.036 61.8796L270.264 61.9001C270.412 61.9136 270.569 61.9602 270.707 62.0641C270.847 62.1693 270.938 62.3094 270.99 62.4548L271.136 62.8649C271.159 62.9294 271.184 62.9565 271.199 62.9694L271.345 63.0876L271.491 63.2067C271.638 63.327 271.757 63.4732 271.852 63.6384L271.951 63.8112L272.051 63.985C272.065 64.0096 272.077 64.0181 272.095 64.0261L272.274 64.1042L272.453 64.1823C272.524 64.2129 272.611 64.238 272.717 64.2516L272.938 64.279L273.158 64.3073C273.313 64.3272 273.474 64.3871 273.61 64.5085C273.71 64.5988 273.778 64.7069 273.822 64.8171L273.858 64.9274L273.916 65.1501L273.975 65.3718C273.982 65.3983 273.989 65.412 273.991 65.4167L274.142 65.5182L274.298 65.6227C274.456 65.7292 274.59 65.8632 274.698 66.0202L274.807 66.1813L274.881 66.2897L274.971 66.3181L275.158 66.3766C275.191 66.387 275.221 66.3976 275.245 66.4059C275.257 66.41 275.272 66.4149 275.286 66.4206C275.292 66.4227 275.336 66.4399 275.381 66.4684C275.395 66.4772 275.428 66.4988 275.464 66.5339C275.481 66.55 275.6 66.6648 275.613 66.861C275.63 67.1422 275.43 67.2922 275.338 67.3386C275.257 67.3793 275.185 67.3873 275.165 67.3893C275.115 67.3946 275.075 67.3911 275.066 67.3903C275.05 67.389 275.037 67.3867 275.029 67.3854C275 67.3811 274.967 67.3752 274.943 67.3698L274.798 67.3376L274.653 67.3054C274.55 67.2826 274.459 67.2416 274.379 67.1901C274.349 67.1867 274.32 67.1863 274.291 67.1882L273.916 67.2136C273.864 67.217 273.802 67.2316 273.73 67.2673L273.355 67.4528C273.155 67.5518 272.935 67.5991 272.705 67.5749L272.518 67.5544L272.33 67.5348C272.207 67.5217 272.083 67.5088 271.959 67.4968L271.772 67.4792L271.584 67.4606C271.476 67.4501 271.367 67.4448 271.259 67.445H271.072L270.884 67.446C270.841 67.4461 270.788 67.4561 270.723 67.487L270.348 67.6647C270.123 67.7715 269.876 67.8013 269.627 67.7341L269.252 67.6325C269.134 67.6003 269.014 67.5708 268.896 67.5436L268.521 67.4577C268.457 67.4431 268.396 67.4406 268.334 67.4499L268.147 67.4792L267.959 67.5075C267.775 67.5358 267.588 67.5309 267.406 67.4929L267.031 67.4147C266.92 67.3917 266.809 67.373 266.699 67.36L266.512 67.3386L266.324 67.3161C266.178 67.2989 266.032 67.2722 265.887 67.236L265.699 67.1891L265.548 67.1511L265.362 67.2858L265.174 67.4196C264.994 67.549 264.786 67.6416 264.556 67.6638L264.368 67.6813L264.181 67.6999C264.027 67.7147 263.871 67.7154 263.717 67.7028L263.53 67.6872L263.342 67.6725C263.126 67.6549 262.926 67.5799 262.745 67.4684L262.558 67.3522L262.465 67.2946L262.362 67.3698L262.174 67.5046C261.975 67.6472 261.732 67.7367 261.463 67.7126L261.276 67.696L261.088 67.6784C260.943 67.6653 260.798 67.6434 260.655 67.613L260.467 67.5739L260.28 67.5339C260.165 67.5097 260.051 67.4897 259.937 67.4733L259.749 67.446L259.562 67.4196C259.391 67.395 259.224 67.3461 259.062 67.277L258.874 67.197L258.695 67.1198L258.516 67.197L258.328 67.2761C258.112 67.3679 257.878 67.3934 257.644 67.3386L257.269 67.2507C257.158 67.2247 257.048 67.2039 256.938 67.1882L256.75 67.1608L256.563 67.1345C256.535 67.1305 256.501 67.132 256.453 67.152L256.266 67.2321L256.078 67.3112C255.952 67.3649 255.825 67.4183 255.699 67.4704L255.324 67.6247C255.134 67.7029 254.932 67.74 254.725 67.7263L254.35 67.7009C254.245 67.6939 254.14 67.6931 254.035 67.6989L253.66 67.7204C253.447 67.7322 253.242 67.6882 253.051 67.6013L252.864 67.5153L252.676 67.4304C252.591 67.3918 252.513 67.3692 252.44 67.3591L252.252 67.3327L252.074 67.3083C252.069 67.3106 252.058 67.3161 252.042 67.3268L251.667 67.5866C251.416 67.7606 251.104 67.8133 250.799 67.6735L250.424 67.5016C250.32 67.4538 250.217 67.4143 250.116 67.3845L249.929 67.3288L249.741 67.2741C249.674 67.2542 249.611 67.2475 249.551 67.2526L249.176 67.2858C249.113 67.2913 249.043 67.3083 248.965 67.3434L248.778 67.4284L248.59 67.5143C248.417 67.5929 248.235 67.6426 248.046 67.6569L247.859 67.6706L247.671 67.6852C247.39 67.7065 247.144 67.5995 246.949 67.445L246.761 67.2966L246.658 67.2155L246.58 67.2643L246.393 67.3786C246.156 67.523 245.876 67.5704 245.594 67.4723L245.219 67.3415C245.154 67.3188 245.095 67.3126 245.04 67.3161L244.853 67.3278L244.665 67.3405C244.611 67.3441 244.548 67.3592 244.475 67.3942L244.1 67.5739C243.9 67.67 243.681 67.7142 243.453 67.6891L243.078 67.6481C242.926 67.6312 242.773 67.6015 242.622 67.5593L242.247 67.4538C242.205 67.442 242.168 67.4412 242.128 67.4509L241.941 67.4977L241.753 67.5436C241.556 67.5924 241.354 67.5965 241.155 67.5544L240.78 67.4743C240.624 67.4414 240.471 67.3937 240.321 67.3327L240.133 67.2565L239.951 67.1823L239.768 67.2624L239.58 67.3425C239.35 67.4415 239.102 67.4584 238.858 67.3815L238.67 67.322L238.483 67.2634C238.404 67.2387 238.33 67.2271 238.259 67.2272L238.072 67.2282H237.884C237.854 67.2283 237.811 67.2364 237.749 67.2702L237.562 67.3727L237.374 67.4763C237.208 67.5676 237.032 67.6338 236.849 67.6677L236.474 67.736C236.218 67.7833 235.973 67.7277 235.76 67.6061L235.573 67.4997L235.407 67.404L235.256 67.4655L235.069 67.5397C234.862 67.6223 234.64 67.6481 234.417 67.6071L234.042 67.5388C233.948 67.5214 233.854 67.5128 233.761 67.5134L233.574 67.5143L233.386 67.5163C233.301 67.5169 233.214 67.527 233.126 67.5485L232.751 67.6403C232.491 67.7039 232.238 67.6565 232.016 67.5339L231.828 67.4304L231.641 67.3259C231.575 67.2895 231.526 67.2793 231.491 67.278L231.303 67.2712L231.116 67.2653C230.987 67.2609 230.859 67.2548 230.731 67.2477L230.543 67.237L230.356 67.2272H230.355C230.354 67.2274 230.351 67.2281 230.348 67.2292C230.34 67.2319 230.322 67.2395 230.294 67.2585L230.107 67.3893L229.919 67.5192C229.791 67.6087 229.628 67.6749 229.442 67.6735C229.255 67.6719 229.095 67.6036 228.968 67.5134L228.593 67.2458C228.59 67.2438 228.587 67.2414 228.585 67.2399L228.427 67.2751L228.24 67.3151C228.048 67.3567 227.854 67.3588 227.661 67.321L227.474 67.2839L227.286 67.2477C227.213 67.2333 227.141 67.2301 227.07 67.2389L226.695 67.2858C226.544 67.3046 226.393 67.3121 226.242 67.3073L225.867 67.2956C225.782 67.2929 225.695 67.2995 225.607 67.3171L225.419 67.3552L225.232 67.3923C225.099 67.4189 224.965 67.4427 224.831 67.4626L224.644 67.4899L224.456 67.5182C224.305 67.5407 224.153 67.5506 224.001 67.5485L223.814 67.5466L223.626 67.5436C223.396 67.5404 223.184 67.4672 222.995 67.3513L222.808 67.236L222.62 67.1198C222.609 67.1128 222.601 67.1087 222.597 67.1071L222.418 67.1442L222.231 67.1813C222.162 67.1952 222.085 67.2234 221.999 67.2702L221.812 67.3727L221.624 67.4763C221.425 67.5859 221.201 67.6434 220.964 67.6227L220.589 67.5895C220.416 67.5744 220.246 67.5347 220.081 67.4723L219.706 67.3298C219.659 67.312 219.623 67.3107 219.59 67.3161L219.403 67.3464L219.215 67.3776C219.007 67.4121 218.8 67.3945 218.601 67.3288L218.226 67.2038C218.197 67.1941 218.175 67.1942 218.149 67.2018L217.961 67.2575L217.774 67.3122C217.578 67.3697 217.376 67.3836 217.174 67.3493L216.987 67.3171L216.811 67.2868C216.806 67.289 216.797 67.2937 216.785 67.3014L216.41 67.5514C216.172 67.7101 215.882 67.769 215.586 67.6608L215.399 67.5925L215.211 67.5231C215.1 67.4824 214.989 67.4479 214.879 67.4186L214.692 67.3688L214.504 67.3181C214.378 67.2844 214.251 67.2504 214.124 67.2155L213.749 67.112C213.732 67.1072 213.717 67.1061 213.689 67.1169L213.501 67.1901L213.314 67.2624C213.207 67.304 213.098 67.3531 212.989 67.4098L212.801 67.5075L212.614 67.6042C212.405 67.7122 212.172 67.7606 211.93 67.7223L211.742 67.6921L211.555 67.6628C211.453 67.6466 211.351 67.6372 211.249 67.6354L210.874 67.6296C210.752 67.6275 210.63 67.6257 210.508 67.6257H210.133C210.047 67.6256 209.959 67.6356 209.869 67.6559L209.494 67.7419C209.281 67.7906 209.065 67.78 208.858 67.7145L208.67 67.655L208.483 67.5964C208.31 67.5419 208.145 67.4611 207.988 67.36L207.8 67.2399L207.671 67.1569L207.556 67.2194L207.368 67.319C207.207 67.405 207.038 67.4697 206.864 67.5075L206.676 67.5475L206.489 67.5886C206.199 67.6512 205.933 67.5667 205.718 67.4138L205.531 67.28L205.437 67.2126L205.349 67.2722L205.161 67.3981C204.934 67.5507 204.656 67.6191 204.366 67.5329L203.991 67.4216C203.894 67.3928 203.798 67.3732 203.704 67.363L203.517 67.3434L203.329 67.3229C203.286 67.3183 203.238 67.3225 203.182 67.3434L202.994 67.4138L202.807 67.4831C202.589 67.5642 202.358 67.5776 202.13 67.5173L201.755 67.4177C201.609 67.3789 201.463 67.3306 201.32 67.2722L201.132 67.196L200.985 67.1354L200.824 67.2311L200.636 67.3415C200.367 67.4994 200.059 67.5132 199.776 67.3649L199.588 67.2673L199.401 67.1686C199.382 67.1587 199.371 67.1565 199.367 67.1559C199.366 67.1557 199.364 67.1553 199.361 67.1559L199.173 67.196L198.986 67.235C198.921 67.2485 198.847 67.276 198.763 67.3259L198.388 67.5485C198.182 67.6709 197.945 67.7346 197.692 67.7009L197.317 67.6501C197.134 67.6257 196.958 67.5701 196.79 67.4889L196.603 67.3981L196.415 67.3083C196.399 67.3006 196.391 67.2988 196.389 67.2985H196.388C196.388 67.2986 196.385 67.2988 196.382 67.2995L196.195 67.3473L196.007 67.3962C195.902 67.4232 195.796 67.4574 195.689 67.4987L195.314 67.6432C195.114 67.7205 194.902 67.7483 194.687 67.7175L194.499 67.6911L194.312 67.6638C194.231 67.6522 194.151 67.6518 194.071 67.6618L193.696 67.7087C193.534 67.7289 193.371 67.7305 193.209 67.7145L192.834 67.6774C192.652 67.6594 192.475 67.6114 192.306 67.5368L191.931 67.3708C191.83 67.3264 191.731 67.2927 191.635 67.2682L191.448 67.2204L191.313 67.1852L191.133 67.3307L190.946 67.4811C190.757 67.6322 190.524 67.7409 190.256 67.7399L190.069 67.7389H189.881C189.72 67.7383 189.56 67.7198 189.402 67.6852L189.027 67.6032C188.907 67.577 188.786 67.5524 188.666 67.53L188.479 67.4958L188.291 67.4606C188.15 67.4341 188.008 67.3993 187.867 67.3581L187.68 67.3034L187.505 67.2516C187.504 67.2522 187.503 67.2537 187.501 67.2546L187.126 67.4636C186.842 67.6217 186.526 67.612 186.251 67.4479L186.064 67.3366L185.876 67.2243C185.856 67.2121 185.844 67.2092 185.842 67.2087L185.658 67.2409L185.47 67.2741C185.418 67.2833 185.352 67.3068 185.273 67.3561L184.898 67.5905C184.627 67.7594 184.31 67.7788 184.02 67.6218L183.645 67.4186C183.628 67.4098 183.619 67.4073 183.617 67.4069L183.43 67.4489L183.242 67.4919C183.109 67.5217 182.975 67.5472 182.842 67.57L182.467 67.6345C182.299 67.6632 182.13 67.6699 181.961 67.654L181.586 67.6188C181.46 67.6069 181.333 67.5939 181.206 67.5807L180.831 67.5417C180.713 67.5294 180.595 67.5198 180.477 67.5124L180.102 67.4889C180.011 67.4832 179.919 67.4868 179.827 67.4997L179.452 67.5524C179.257 67.5799 179.062 67.5657 178.872 67.5124L178.497 67.4069C178.368 67.3706 178.239 67.3317 178.11 67.2917L177.922 67.2341L177.735 67.1755C177.673 67.1564 177.616 67.152 177.563 67.1579L177.188 67.1989C177.072 67.2118 176.955 67.2278 176.838 67.2468L176.651 67.278L176.463 67.3083C176.361 67.3249 176.257 67.349 176.153 67.3806L175.778 67.4938C175.634 67.5374 175.489 67.5723 175.343 67.5973L174.968 67.6618C174.715 67.7053 174.473 67.6501 174.262 67.5309L174.074 67.4245L173.887 67.319C173.838 67.2916 173.814 67.2918 173.804 67.2927L173.429 67.3278C173.31 67.3388 173.191 67.3517 173.072 67.3669L172.884 67.3913L172.697 67.4147C172.539 67.4348 172.38 67.4389 172.222 67.4274L172.034 67.4147L171.847 67.4011C171.781 67.3963 171.713 67.4028 171.641 67.4225L171.266 67.5261C171.057 67.5838 170.841 67.585 170.631 67.53L170.256 67.4323C170.254 67.4318 170.253 67.4315 170.252 67.4313H170.251C170.251 67.4314 170.243 67.4323 170.227 67.4401L169.852 67.6218C169.709 67.6911 169.545 67.7234 169.374 67.6989C169.208 67.6749 169.066 67.6022 168.952 67.5143L168.765 67.3688L168.577 67.2243C168.563 67.2128 168.551 67.207 168.545 67.2038L168.377 67.2233L168.19 67.2448C168.131 67.2516 168.063 67.2709 167.986 67.3102L167.611 67.5016C167.381 67.619 167.123 67.6522 166.865 67.5749L166.49 67.4616C166.355 67.4213 166.221 67.3774 166.087 67.3288L165.9 67.2604L165.73 67.1979L165.549 67.2917L165.362 67.3874C165.126 67.5083 164.862 67.5391 164.601 67.4528L164.413 67.3903L164.228 67.3288C164.226 67.3295 164.223 67.3312 164.22 67.3327L164.033 67.4206L163.845 67.5075C163.667 67.5907 163.479 67.6423 163.283 67.652L163.095 67.6608L162.908 67.6706C162.687 67.6815 162.476 67.6295 162.283 67.5329L162.096 67.4391L161.908 67.3444C161.907 67.3437 161.906 67.343 161.905 67.3425L161.725 67.4011L161.537 67.4616C161.324 67.5306 161.102 67.5387 160.884 67.4831L160.697 67.4352L160.521 67.3903C160.518 67.3916 160.515 67.394 160.511 67.3962L160.136 67.6169C159.996 67.6993 159.826 67.7475 159.641 67.7272C159.46 67.7073 159.31 67.6269 159.194 67.5329L158.819 67.2302C158.788 67.2052 158.767 67.1948 158.758 67.1911C158.757 67.1907 158.756 67.1904 158.755 67.1901H158.383C158.308 67.1901 158.23 67.2005 158.149 67.2243L157.961 67.28L157.774 67.3347C157.652 67.3704 157.53 67.4077 157.408 67.446L157.221 67.5046L157.033 67.5641C156.843 67.6239 156.646 67.6439 156.448 67.6198L156.26 67.5964L156.073 67.5739C155.942 67.5581 155.812 67.5401 155.682 67.5202L155.494 67.4919L155.307 67.4626C155.23 67.4508 155.153 67.4501 155.076 67.4606L154.889 67.487L154.701 67.5124C154.559 67.5321 154.415 67.5446 154.272 67.5485L153.897 67.5583C153.681 67.5642 153.475 67.512 153.285 67.4177L153.098 67.3249L152.91 67.2311C152.872 67.2119 152.854 67.2139 152.845 67.2155L152.47 67.2819C152.33 67.3067 152.19 67.325 152.049 67.3366L151.674 67.3679C151.486 67.3834 151.3 67.3638 151.118 67.3112L150.931 67.2565L150.76 67.2057C150.759 67.2064 150.757 67.2078 150.756 67.2087L150.381 67.4235C150.251 67.4982 150.097 67.5446 149.928 67.5388C149.76 67.5329 149.611 67.4766 149.488 67.3972L149.3 67.2761L149.19 67.2057L149.083 67.2722L148.896 67.3884C148.672 67.5267 148.407 67.5854 148.131 67.5134L147.756 67.4157C147.692 67.399 147.632 67.3953 147.573 67.403L147.198 67.4518C147.041 67.4722 146.884 67.4774 146.727 67.4675L146.352 67.444C146.249 67.4375 146.146 67.4379 146.043 67.445L145.856 67.4587L145.668 67.4714C145.512 67.4823 145.355 67.4784 145.199 67.4597L144.824 67.4147C144.696 67.3994 144.568 67.3823 144.441 67.3649L144.066 67.3141C144.034 67.3099 143.998 67.3125 143.949 67.3327L143.574 67.487C143.313 67.5944 143.039 67.5812 142.79 67.4606L142.415 67.279L142.413 67.278L142.234 67.3405L142.046 67.4059C141.79 67.4944 141.529 67.4727 141.292 67.3591L141.105 67.2692L141.028 67.2321L140.902 67.3444L140.714 67.5104C140.596 67.615 140.431 67.7101 140.225 67.7223C140.015 67.7347 139.837 67.6556 139.704 67.5544L139.517 67.4108L139.402 67.3229L139.314 67.3737L139.126 67.4782C138.996 67.5505 138.845 67.5956 138.68 67.5905C138.515 67.5854 138.368 67.5316 138.244 67.4548L138.057 67.3376L137.888 67.2331L137.741 67.2868L137.554 67.3542C137.415 67.4048 137.274 67.4486 137.133 67.485L136.758 67.5827C136.602 67.623 136.444 67.6481 136.285 67.6569L136.098 67.6667L135.91 67.6774C135.774 67.685 135.636 67.6876 135.499 67.6852L135.312 67.6813L135.124 67.6784C134.995 67.6762 134.866 67.6722 134.737 67.6667L134.362 67.6511C134.227 67.6453 134.092 67.6351 133.958 67.6218L133.583 67.5847C133.444 67.5708 133.304 67.5504 133.165 67.5241L132.79 67.4538C132.656 67.4283 132.521 67.3985 132.387 67.3649L132.012 67.2712C131.979 67.2629 131.948 67.263 131.909 67.2751L131.534 67.3942C131.397 67.4381 131.257 67.4759 131.118 67.5075L130.802 67.5798L130.832 67.78C130.846 67.874 130.872 67.9358 130.897 67.9763L130.997 68.1384L131.093 68.2927C131.097 68.2947 131.105 68.2994 131.119 68.3034L131.333 68.362L131.546 68.4216C131.816 68.496 132.025 68.6742 132.126 68.9323L132.163 69.0475L132.267 69.4616C132.302 69.601 132.329 69.7153 132.348 69.8014L132.375 69.9206L132.402 70.0407C132.412 70.0856 132.443 70.2378 132.367 70.402C132.322 70.5 132.244 70.589 132.136 70.6462C132.035 70.6993 131.938 70.7085 131.872 70.7067C131.754 70.7034 131.661 70.6626 131.619 70.6432C131.567 70.6188 131.519 70.589 131.477 70.5612L131.102 70.3132C131.039 70.2718 131.002 70.2669 130.987 70.2663L130.612 70.2546C130.56 70.2529 130.502 70.2617 130.436 70.2878L130.248 70.362L130.061 70.4352C129.9 70.4987 129.734 70.5426 129.566 70.5641L129.378 70.5886L129.191 70.612C129.034 70.632 128.877 70.6367 128.72 70.6266L128.345 70.6032C128.217 70.595 128.09 70.5852 127.962 70.5749L127.775 70.5602L127.587 70.5446C127.444 70.533 127.301 70.5133 127.158 70.486L126.971 70.4509L126.783 70.4147C126.697 70.3981 126.611 70.3923 126.526 70.3962L126.338 70.405L126.151 70.4128C126.018 70.4189 125.886 70.4224 125.753 70.4225H125.378C125.215 70.4227 125.052 70.4046 124.891 70.3679L124.703 70.3249L124.54 70.2868C124.538 70.2881 124.536 70.2908 124.533 70.2927L124.346 70.4196L124.158 70.5475C123.916 70.7121 123.617 70.7702 123.318 70.6511L123.13 70.5759L122.943 70.5016C122.93 70.4966 122.923 70.4959 122.921 70.4958C122.92 70.4958 122.915 70.4959 122.907 70.4987L122.719 70.5593L122.532 70.6208C122.282 70.7018 122.028 70.6811 121.795 70.5749L121.608 70.4899L121.445 70.4147L121.28 70.4938L121.092 70.5827C120.799 70.7222 120.492 70.6881 120.234 70.5241L119.859 70.2858C119.839 70.2734 119.828 70.2685 119.824 70.2673L119.64 70.2956L119.452 70.3239C119.305 70.3463 119.156 70.3577 119.007 70.3591L118.632 70.363C118.525 70.364 118.418 70.3709 118.311 70.3835L118.123 70.405L117.936 70.4274C117.723 70.4524 117.514 70.4207 117.318 70.3425L117.13 70.2682L116.999 70.2155L116.844 70.321L116.657 70.4479C116.451 70.5862 116.205 70.6661 115.937 70.6306L115.749 70.6052L115.562 70.5807C115.489 70.571 115.415 70.5723 115.341 70.5856L115.154 70.6198L114.966 70.653C114.748 70.6923 114.531 70.6691 114.326 70.5925L114.139 70.5222L113.951 70.4528C113.817 70.4025 113.683 70.3472 113.549 70.2878L113.362 70.2038L113.174 70.1208C113.129 70.1006 113.099 70.0998 113.075 70.1032L112.888 70.1306L112.7 70.1589C112.547 70.1816 112.392 70.1907 112.238 70.1862L112.05 70.1804L111.863 70.1755C111.803 70.1738 111.739 70.1829 111.669 70.2077L111.294 70.3405C111.065 70.4216 110.826 70.4249 110.595 70.3483L110.408 70.2858L110.22 70.2243C110.162 70.2051 110.111 70.201 110.063 70.2067L109.688 70.2516C109.603 70.262 109.514 70.2831 109.423 70.3161L109.236 70.3845L109.048 70.4518C108.824 70.5332 108.588 70.5417 108.358 70.4723L107.983 70.3591L107.977 70.3581C107.977 70.3581 107.975 70.3584 107.973 70.3591C107.97 70.3598 107.965 70.3607 107.957 70.3639L107.77 70.4489L107.582 70.5329C107.338 70.643 107.073 70.6526 106.82 70.5534L106.632 70.4802L106.454 70.4098L106.273 70.4938L106.085 70.5798C105.894 70.6673 105.688 70.7116 105.475 70.6999L105.287 70.6891L105.1 70.6794C104.915 70.6692 104.735 70.626 104.563 70.5554L104.188 70.4011C104.072 70.3536 103.956 70.3105 103.841 70.2712L103.654 70.2077L103.466 70.1432C103.402 70.1214 103.345 70.1156 103.291 70.1198L102.916 70.1491C102.846 70.1547 102.771 70.1722 102.69 70.2048L102.502 70.28L102.315 70.3561C102.194 70.4049 102.072 70.4551 101.95 70.5075L101.763 70.5886L101.575 70.6706C101.269 70.8031 100.961 70.7434 100.714 70.57L100.527 70.4382L100.437 70.3747L100.35 70.4362L100.162 70.5661C100.04 70.6508 99.8893 70.7151 99.7161 70.7243C99.541 70.7335 99.3825 70.6834 99.2493 70.6052L99.0618 70.4948L98.8743 70.3854C98.8156 70.3509 98.7785 70.3453 98.7581 70.3454L98.3831 70.3493C98.1929 70.3514 98.0069 70.3169 97.8284 70.2507L97.4534 70.112C97.427 70.1022 97.4117 70.1026 97.3929 70.1081L97.2054 70.1638L97.0179 70.2184C96.9441 70.2401 96.8621 70.2779 96.7718 70.3356L96.5843 70.4548L96.3968 70.5749C96.2651 70.6591 96.1037 70.716 95.9222 70.7097C95.742 70.7033 95.5872 70.6356 95.4632 70.5475L95.0882 70.2819C95.0639 70.2647 95.0492 70.2588 95.0452 70.2575L94.8665 70.277L94.679 70.2966C94.4894 70.3162 94.3009 70.2991 94.1175 70.2477L93.7425 70.1423C93.7287 70.1384 93.717 70.1375 93.6907 70.1481L93.3157 70.3005C93.0865 70.3935 92.8412 70.406 92.6018 70.3307L92.4143 70.2722L92.2268 70.2126C92.1585 70.1912 92.0955 70.1842 92.0354 70.1882L91.6604 70.2136C91.6081 70.217 91.5464 70.2315 91.4739 70.2673L91.0989 70.4528C90.8986 70.5518 90.6787 70.5992 90.4495 70.5749L90.262 70.5544L90.0745 70.5348C89.951 70.5217 89.8269 70.5088 89.7034 70.4968L89.5159 70.4792L89.3284 70.4606C89.22 70.4501 89.1114 70.4448 89.0032 70.445H88.8157L88.6282 70.446C88.5848 70.4461 88.5323 70.456 88.4671 70.487L88.0921 70.6647C87.8673 70.7715 87.6198 70.8014 87.3714 70.7341L86.9964 70.6325C86.8778 70.6004 86.7592 70.5708 86.6409 70.5436L86.2659 70.4577C86.2018 70.443 86.1399 70.4405 86.0784 70.4499L85.8909 70.4792L85.7034 70.5075C85.519 70.5358 85.3334 70.5309 85.1507 70.4929L84.7757 70.4147C84.665 70.3917 84.5537 70.373 84.4436 70.36L84.2561 70.3386L84.0686 70.3161C83.9221 70.2989 83.7762 70.2723 83.6311 70.236L83.4436 70.1891L83.2923 70.1511L83.1057 70.2858L82.9182 70.4196C82.7377 70.549 82.5305 70.6416 82.3001 70.6638L82.1126 70.6813L81.9251 70.6999C81.7708 70.7147 81.6156 70.7154 81.4612 70.7028L81.2737 70.6872L81.0862 70.6725C80.8702 70.6548 80.6701 70.5799 80.4895 70.4684L80.302 70.3522L80.2093 70.2946L80.1057 70.3698L79.9182 70.5046C79.7186 70.6472 79.4765 70.7368 79.2073 70.7126L79.0198 70.696L78.8323 70.6784C78.6874 70.6653 78.5426 70.6434 78.3987 70.613L78.2112 70.5739L78.0237 70.5339C77.9094 70.5097 77.7949 70.4897 77.6809 70.4733L77.4934 70.446L77.3059 70.4196C77.1348 70.395 76.9679 70.3462 76.8059 70.277L76.6184 70.197L76.4388 70.1198L76.26 70.197L76.0725 70.2761C75.8559 70.3679 75.6224 70.3935 75.388 70.3386L75.013 70.2507C74.9023 70.2247 74.7919 70.2039 74.6819 70.1882L74.4944 70.1608L74.3069 70.1345C74.279 70.1305 74.2451 70.1319 74.1975 70.152L74.01 70.2321L73.8225 70.3112C73.696 70.3649 73.5692 70.4183 73.4427 70.4704L73.0677 70.6247C72.8777 70.7029 72.6762 70.74 72.469 70.7263L72.094 70.7009C71.9896 70.6939 71.885 70.6931 71.7805 70.6989L71.4055 70.7204C71.1922 70.7323 70.9864 70.6883 70.7952 70.6013L70.6077 70.5153L70.4202 70.4304C70.3355 70.3918 70.2568 70.3692 70.1839 70.3591L69.9964 70.3327L69.8186 70.3083C69.8132 70.3106 69.802 70.3161 69.7864 70.3268L69.4114 70.5866C69.1597 70.7606 68.8479 70.8133 68.5432 70.6735L68.1682 70.5016C68.0639 70.4537 67.9615 70.4143 67.8606 70.3845L67.6731 70.3288L67.4856 70.2741C67.4183 70.2542 67.3554 70.2475 67.2952 70.2526L66.9202 70.2858C66.8571 70.2913 66.7871 70.3082 66.7093 70.3434L66.5218 70.4284L66.3343 70.5143C66.1612 70.5929 65.9788 70.6426 65.7903 70.6569L65.6028 70.6706L65.4153 70.6852C65.1342 70.7065 64.8885 70.5995 64.6927 70.445L64.5052 70.2966L64.4026 70.2155L64.3245 70.2643L64.137 70.3786C63.8998 70.523 63.6202 70.5704 63.3382 70.4723L62.9632 70.3415C62.8978 70.3187 62.8389 70.3126 62.7845 70.3161L62.597 70.3278L62.4095 70.3405C62.355 70.3441 62.2922 70.3592 62.219 70.3942L61.844 70.5739C61.6437 70.6701 61.4248 70.7142 61.1975 70.6891L60.8225 70.6481C60.6698 70.6312 60.5177 70.6014 60.3675 70.5593L59.9925 70.4538C59.9502 70.4419 59.9124 70.4411 59.8723 70.4509L59.6848 70.4977L59.4973 70.5436C59.2998 70.5924 59.098 70.5966 58.8987 70.5544L58.5237 70.4743C58.3686 70.4414 58.2153 70.3937 58.0647 70.3327L57.8772 70.2565L57.6956 70.1823L57.512 70.2624L57.3245 70.3425C57.094 70.4415 56.8457 70.4585 56.6018 70.3815L56.4143 70.322L56.2268 70.2634C56.1486 70.2387 56.0742 70.2271 56.0032 70.2272L55.8157 70.2282H55.6282C55.5983 70.2283 55.5551 70.2363 55.4934 70.2702L55.3059 70.3727L55.1184 70.4763C54.9523 70.5676 54.7766 70.6338 54.593 70.6677L54.218 70.736C53.9616 70.7833 53.7173 70.7278 53.5042 70.6061L53.3167 70.4997L53.1507 70.404L53.0003 70.4655L52.8128 70.5397C52.6057 70.6223 52.3845 70.6482 52.1614 70.6071L51.7864 70.5388C51.6922 70.5214 51.5988 70.5128 51.5061 70.5134L51.3186 70.5143L51.1311 70.5163C51.0461 70.5169 50.9587 70.527 50.8704 70.5485L50.4954 70.6403C50.2346 70.7038 49.9817 70.6566 49.76 70.5339L49.5725 70.4304L49.385 70.3259C49.3194 70.2895 49.2702 70.2793 49.2347 70.278L49.0472 70.2712L48.8938 70.2663C48.8716 70.2775 48.8476 70.2899 48.8206 70.2985C48.6371 70.3567 48.4551 70.3016 48.3352 70.194C48.2461 70.1139 48.211 70.024 48.2005 69.9958C48.1864 69.9579 48.18 69.9261 48.177 69.9098C48.1675 69.8563 48.1692 69.8107 48.1692 69.8102C48.1694 69.7981 48.1698 69.7877 48.1702 69.7819C48.1716 69.7614 48.1741 69.7371 48.1761 69.7204C48.1806 69.6814 48.1883 69.6227 48.1985 69.5475L48.2122 69.4479L48.0794 69.4372L47.8919 69.4225C47.6759 69.4049 47.4758 69.3299 47.2952 69.2184L47.1077 69.1022L47.0149 69.0446L46.9104 69.1198L46.7229 69.2546C46.5235 69.397 46.2819 69.4867 46.013 69.4626L45.8255 69.446L45.638 69.4284C45.4931 69.4153 45.3483 69.3934 45.2044 69.363L45.0169 69.3239L44.8294 69.2839C44.7151 69.2597 44.6005 69.2397 44.4866 69.2233L44.2991 69.196L44.1116 69.1696C43.9405 69.145 43.7735 69.0961 43.6116 69.027L43.4241 68.947L43.2444 68.8698L43.0657 68.947L42.8782 69.0261C42.6616 69.1179 42.4279 69.1434 42.1936 69.0886L41.8186 69.0007C41.7078 68.9747 41.5967 68.9539 41.4866 68.9382L41.2991 68.9108L41.1116 68.8845C41.0838 68.8805 41.0505 68.8821 41.0032 68.902L40.8157 68.9821L40.6282 69.0612C40.5018 69.1149 40.3748 69.1683 40.2483 69.2204L39.8733 69.3747C39.6835 69.4529 39.4817 69.4899 39.2747 69.4763L38.8997 69.4509C38.7951 69.4439 38.6898 69.4431 38.5852 69.4489L38.2102 69.4704C37.9969 69.4823 37.7912 69.4384 37.5999 69.3513L37.4124 69.2653L37.2249 69.1804C37.1402 69.1418 37.0615 69.1192 36.9886 69.1091L36.8011 69.0827L36.6233 69.0583C36.6177 69.0607 36.6072 69.0664 36.5921 69.0768L36.2171 69.3366C35.9653 69.5108 35.6537 69.5634 35.3489 69.4235L34.9739 69.2516C34.8694 69.2037 34.7663 69.1644 34.6653 69.1345L34.4778 69.0788L34.2903 69.0241C34.2232 69.0042 34.1609 68.9975 34.1009 69.0026L33.7259 69.0358C33.6626 69.0413 33.5919 69.0581 33.5139 69.0934L33.3264 69.1784L33.1389 69.2643C32.9658 69.3429 32.7835 69.3926 32.595 69.4069L32.4075 69.4206L32.22 69.4352C31.939 69.4564 31.6931 69.3495 31.4973 69.195L31.3098 69.0466L31.2083 68.9665L31.1302 69.0143L30.9427 69.1286C30.7054 69.2731 30.4251 69.3206 30.1429 69.2223L29.7679 69.0915C29.7027 69.0688 29.6444 69.0626 29.5901 69.0661L29.4026 69.0778L29.2151 69.0905C29.1605 69.0941 29.0971 69.109 29.0237 69.1442L28.6487 69.3239C28.4484 69.4201 28.2296 69.4643 28.0022 69.4391L27.6272 69.3981C27.4744 69.3812 27.3224 69.3515 27.1722 69.3093L26.7972 69.2038C26.7548 69.1919 26.7172 69.191 26.677 69.2009L26.4895 69.2477L26.302 69.2936C26.1044 69.3424 25.9027 69.3466 25.7034 69.3044L25.3284 69.2243C25.1733 69.1914 25.02 69.1437 24.8694 69.0827L24.6819 69.0065L24.5003 68.9323L24.3177 69.0124L24.1302 69.0925C23.8996 69.1916 23.6505 69.2085 23.4065 69.1315L23.219 69.072L23.0315 69.0134C22.9535 68.9887 22.8797 68.9771 22.8089 68.9772L22.6214 68.9782H22.4339C22.404 68.9783 22.36 68.9862 22.2981 69.0202L22.1106 69.1227L21.9231 69.2263C21.7571 69.3175 21.5812 69.3838 21.3977 69.4177L21.0227 69.486C20.7664 69.5332 20.5228 69.4777 20.3098 69.3561L20.1223 69.2497L19.9563 69.154L19.805 69.2155L19.6175 69.2897C19.4104 69.3722 19.1901 69.3981 18.9671 69.3571L18.5921 69.2888C18.4976 69.2714 18.4037 69.2627 18.3108 69.2634L18.1233 69.2643L17.9358 69.2663C17.8509 69.2669 17.7643 69.277 17.6761 69.2985L17.3011 69.3903C17.0403 69.4539 16.7874 69.4065 16.5657 69.2839L16.3782 69.1804L16.1907 69.0759C16.125 69.0395 16.0759 69.0293 16.0403 69.028L15.8528 69.0212L15.6653 69.0153C15.5369 69.0109 15.4079 69.0048 15.2796 68.9977L15.0921 68.987L14.9046 68.9772C14.904 68.9773 14.9016 68.9779 14.8977 68.9792C14.8895 68.9818 14.8709 68.9891 14.843 69.0085L14.6555 69.1393L14.468 69.2692C14.3394 69.3588 14.1774 69.4251 13.9905 69.4235C13.804 69.4219 13.6436 69.3537 13.5169 69.2634L13.1419 68.9958C13.1389 68.9937 13.1364 68.9915 13.1341 68.9899L12.9759 69.0251L12.7884 69.0651C12.5971 69.1067 12.4033 69.1088 12.2112 69.071L12.0237 69.0339L11.8362 68.9977C11.763 68.9833 11.6909 68.98 11.6194 68.9889L11.2444 69.0358C11.0938 69.0547 10.9424 69.0621 10.7913 69.0573L10.4163 69.0456C10.3305 69.0429 10.2435 69.0495 10.1555 69.0671L9.96805 69.1052L9.78055 69.1423C9.6476 69.1689 9.5143 69.1927 9.38113 69.2126L9.19363 69.2399L9.00613 69.2682C8.85478 69.2908 8.70231 69.3007 8.55008 69.2985L8.36258 69.2966L8.17508 69.2936C7.94535 69.2903 7.73335 69.2172 7.5452 69.1013L7.3577 68.986L7.1702 68.8698C7.15791 68.8622 7.14978 68.8586 7.14578 68.8571L6.96805 68.8942L6.78055 68.9313C6.71126 68.9452 6.63354 68.9733 6.54813 69.0202L6.36063 69.1227L6.17313 69.2263C5.97374 69.3358 5.75048 69.3934 5.51395 69.3727L5.13895 69.3395C4.96542 69.3244 4.79522 69.2849 4.63016 69.2223L4.25516 69.0798C4.20823 69.062 4.17193 69.0607 4.13895 69.0661L3.95145 69.0964L3.76395 69.1276C3.55609 69.162 3.34925 69.1444 3.15067 69.0788L2.77567 68.9538C2.74625 68.9441 2.72468 68.9442 2.69852 68.9518L2.51102 69.0075L2.32352 69.0622C2.12779 69.1197 1.92581 69.1336 1.72391 69.0993L1.53641 69.0671L1.36063 69.0368C1.35572 69.039 1.34718 69.0435 1.33524 69.0514L0.960237 69.3014C0.908602 69.3359 0.836679 69.377 0.751252 69.404C0.668919 69.43 0.519229 69.459 0.354768 69.3923C0.174976 69.3192 0.0817259 69.1753 0.0403147 69.0622C0.00276925 68.9594 -0.00129087 68.862 0.000275622 68.7985L0.0100412 68.4001C0.0166842 68.1379 0.119306 67.8991 0.313752 67.7165L0.596955 67.4509C0.692299 67.3614 0.788617 67.2721 0.885041 67.1833L1.02762 67.0514L1.17117 66.9196C1.18443 66.9073 1.19292 66.8946 1.19852 66.8649L1.23563 66.6677L1.27371 66.4694C1.295 66.3564 1.30994 66.238 1.31961 66.1149L1.33621 65.904L1.35281 65.694C1.37127 65.4599 1.454 65.2368 1.61453 65.0514L1.86258 64.7643C1.93027 64.6862 1.99215 64.6043 2.04715 64.5192L2.14871 64.362L2.25125 64.2048C2.31753 64.1023 2.383 63.9988 2.44754 63.8952L2.54617 63.736L2.64578 63.5768C2.69135 63.5036 2.72925 63.4239 2.75906 63.3376L2.82156 63.155L2.88406 62.9733C2.95555 62.7663 3.07901 62.5886 3.24442 62.447L3.39285 62.319L3.54227 62.1911C3.67945 62.0736 3.83537 61.9763 4.00418 61.8962L4.20535 61.8005L4.34305 61.7341L4.35184 61.6032L4.36649 61.3913C4.37874 61.209 4.41286 61.032 4.47293 60.8639L4.53738 60.6833L4.60281 60.5026L4.64481 60.402C4.75579 60.1789 4.94559 60.0287 5.15848 59.9401L5.37137 59.8513L5.47586 59.8073L5.47293 59.7018L5.46512 59.4763C5.45566 59.2028 5.544 58.9305 5.77078 58.7292L6.06375 58.4694C6.13938 58.4023 6.20674 58.3318 6.26492 58.2575L6.49735 57.9606C6.52392 57.9266 6.54487 57.8838 6.55692 57.8249L6.63699 57.4323C6.68355 57.2039 6.79327 57.0002 6.96512 56.8386L7.24832 56.5729C7.3584 56.4694 7.47648 56.3719 7.60184 56.2809L7.7659 56.1618L7.89285 56.069L7.89871 55.8815L7.9036 55.6638C7.91164 55.3521 8.06287 55.0824 8.33817 54.9206L8.52078 54.8132L8.7034 54.7067C8.72189 54.6958 8.7297 54.6875 8.73172 54.6852C8.73299 54.6837 8.73439 54.6818 8.73563 54.6784L8.86649 54.319C8.88895 54.2574 8.90449 54.1794 8.90653 54.0817L8.91629 53.6462C8.92134 53.4065 8.99229 53.1712 9.15457 52.9743L9.27469 52.8278L9.39578 52.6823C9.51291 52.5403 9.65327 52.4206 9.81082 52.321L10.1624 52.0983C10.1769 52.0891 10.1827 52.0822 10.1839 52.0807L10.1848 52.0798C10.1852 52.0791 10.1861 52.0771 10.1868 52.0749L10.2454 51.8903L10.303 51.7048C10.3356 51.6012 10.3636 51.4925 10.385 51.3796L10.4222 51.1823L10.4602 50.985C10.5003 50.7747 10.5881 50.5799 10.7278 50.4138L10.8499 50.2692L10.972 50.1237C11.0244 50.0613 11.0669 49.9932 11.1009 49.9196L11.18 49.7487L11.2591 49.5768C11.3273 49.429 11.4119 49.2898 11.511 49.1608L11.6263 49.0114L11.7405 48.862C11.8519 48.7171 11.9864 48.5921 12.1389 48.488L12.3089 48.3727L12.4778 48.2575C12.5689 48.1953 12.6502 48.1291 12.722 48.0602L12.8616 47.9264L12.9602 47.8307L12.9339 47.6013L12.9055 47.362C12.8771 47.1221 12.9076 46.8672 13.0501 46.6403L13.2493 46.322C13.3348 46.1859 13.4351 46.0592 13.5481 45.9431L13.6819 45.8054L13.8157 45.6686C13.9013 45.5806 13.9853 45.491 14.0677 45.4011L14.3255 45.1198C14.4229 45.0135 14.5267 44.9107 14.636 44.8132L14.7815 44.6833L14.9163 44.5622C14.9165 44.5608 14.9172 44.559 14.9173 44.5573L14.928 44.3434L14.9378 44.1286C14.9538 43.8038 15.129 43.5408 15.4134 43.3942L15.6077 43.2946L15.8011 43.194C15.8232 43.1826 15.8322 43.1746 15.8333 43.1735H15.8323L15.9026 42.9987L15.9739 42.822C15.9936 42.7727 16.0092 42.705 16.0091 42.612L16.0081 42.3913V42.1696C16.0077 41.8509 16.1581 41.5713 16.4446 41.4079L16.8157 41.197C16.8315 41.1879 16.8377 41.1809 16.8391 41.1794L16.9661 40.8161C17.0111 40.6875 17.0596 40.5604 17.1106 40.4352L17.1819 40.2595L17.2542 40.0827C17.3184 39.9252 17.4024 39.7783 17.5052 39.6432L17.6194 39.4929L17.7327 39.3434C17.8096 39.2423 17.8881 39.1411 17.9661 39.0407L18.0813 38.8913L18.1975 38.7429C18.2704 38.6491 18.3408 38.553 18.4095 38.4567L18.5188 38.3044L18.6282 38.1511C18.681 38.077 18.7265 37.9973 18.7639 37.9128L18.8401 37.7399L18.9173 37.5671C18.9972 37.3867 19.1117 37.2281 19.2571 37.0954L19.4016 36.9645L19.5452 36.8327C19.6442 36.7423 19.7449 36.6525 19.847 36.5641L19.9954 36.4362L20.1438 36.3073C20.1928 36.2648 20.2269 36.2195 20.2503 36.1706L20.3313 36.0007L20.4134 35.8307C20.4639 35.7252 20.5115 35.6174 20.5569 35.5085L20.6302 35.3327L20.7034 35.1579C20.7433 35.0622 20.7776 34.9614 20.8059 34.8561L20.9075 34.4772C20.9466 34.3319 20.9943 34.1904 21.0501 34.0534L21.1223 33.8776L21.1936 33.7009C21.2905 33.4633 21.4645 33.2879 21.677 33.1716L21.8665 33.0681L22.055 32.9645C22.1046 32.9373 22.1171 32.9165 22.1214 32.9079L22.2054 32.7399L22.2903 32.571C22.3438 32.4642 22.3956 32.3558 22.4456 32.2468L22.5247 32.0749L22.6028 31.903C22.6691 31.7585 22.7497 31.6211 22.843 31.4929L22.9534 31.3415L23.0638 31.1891C23.1026 31.1357 23.1335 31.0748 23.1546 31.0036L23.2093 30.8171L23.2649 30.6306C23.3265 30.4222 23.4381 30.2381 23.596 30.0886L23.7366 29.9557L23.8772 29.822C23.8793 29.8201 23.881 29.8192 23.8811 29.819V29.8181C23.882 29.8161 23.8853 29.8085 23.887 29.7927L23.9085 29.5856L23.93 29.3776C23.9467 29.2199 24.0054 29.0645 24.1165 28.9323C24.225 28.8034 24.3625 28.7217 24.4973 28.6716L24.719 28.5895L24.9407 28.5065C24.9572 28.5003 24.9678 28.4935 24.9739 28.4899L25.0472 28.3376L25.1282 28.1667C25.1536 28.1129 25.1735 28.0446 25.1809 27.9577L25.1985 27.7487L25.2161 27.5388C25.2381 27.2814 25.3461 27.045 25.5481 26.8669L25.6956 26.737L25.8421 26.6081C25.9472 26.5155 26.0563 26.4244 26.1682 26.3366L26.3255 26.2136L26.4671 26.1022L26.4837 25.9001L26.5013 25.6901C26.5229 25.4267 26.6366 25.1868 26.8479 25.0104L26.9993 24.8835L27.1487 24.7595C27.1493 24.7575 27.1511 24.7542 27.1516 24.7497L27.1761 24.5446L27.2005 24.3386C27.2238 24.1438 27.2799 23.9565 27.3753 23.7848L27.4671 23.6208L27.5579 23.4567C27.6653 23.2637 27.8204 23.1122 28.0042 22.9997L28.3616 22.7809C28.3635 22.7797 28.3652 22.7779 28.3665 22.777L28.4114 22.5944L28.4593 22.403C28.5134 22.186 28.623 21.9933 28.7854 21.8376L28.9251 21.7038L29.055 21.5788C29.0553 21.5758 29.0558 21.5718 29.0559 21.5671L29.0618 21.3493L29.0677 21.1325L29.0794 21.0095C29.1002 20.8862 29.1492 20.763 29.2356 20.653C29.3478 20.5105 29.4949 20.4258 29.636 20.3766L29.8636 20.2966L30.0911 20.2175C30.1285 20.2044 30.1486 20.1929 30.1565 20.1872C30.158 20.186 30.1588 20.1839 30.1595 20.1833L30.2571 20.028L30.3567 19.8688C30.3963 19.8051 30.4279 19.7332 30.4505 19.652L30.5032 19.4636L30.555 19.2761C30.5889 19.1537 30.6218 19.0297 30.6536 18.9059L30.7513 18.5251C30.8009 18.3323 30.8886 18.1544 31.0139 17.9987L31.1321 17.8522L31.2503 17.7048C31.3324 17.6027 31.4166 17.5009 31.5022 17.4011L31.6263 17.2575L31.7493 17.1139C31.8001 17.0547 31.8417 16.9895 31.8733 16.9186L31.9495 16.7458L32.0266 16.5729C32.0854 16.4412 32.1515 16.3129 32.2239 16.1891L32.4134 15.8649C32.5225 15.6786 32.6756 15.5316 32.8557 15.4206L33.0345 15.3102L33.2122 15.2009C33.2488 15.1783 33.2566 15.1625 33.26 15.154L33.3304 14.9772L33.4016 14.8005C33.4546 14.6686 33.5131 14.5391 33.5774 14.4138L33.6634 14.2468L33.7493 14.0788C33.8354 13.9111 33.9508 13.7634 34.0911 13.6374L34.2366 13.5075L34.3684 13.3874C34.3686 13.3863 34.3694 13.3847 34.3694 13.3835L34.3772 13.1677L34.386 12.9518L34.3968 12.8386C34.4151 12.725 34.4562 12.6115 34.5266 12.5065C34.6202 12.3673 34.7474 12.2708 34.8802 12.2077L35.0813 12.112L35.1985 12.0554L35.1995 11.9304V11.7097C35.2002 11.4466 35.2902 11.1901 35.4973 10.9938L35.638 10.861L35.7786 10.7272C35.8266 10.6817 35.8612 10.6323 35.886 10.5778L35.9651 10.4059L36.0432 10.2341C36.1087 10.0904 36.1871 9.95309 36.2786 9.82489L36.388 9.67254L36.4964 9.51922C36.5562 9.43542 36.6113 9.34757 36.6595 9.25653L36.8352 8.9245C36.9086 8.78591 36.9947 8.65444 37.093 8.53192L37.2112 8.38543L37.3294 8.23797C37.4112 8.13611 37.4942 8.03497 37.5784 7.93622L37.7005 7.79364L37.8216 7.65106C37.8551 7.61168 37.8849 7.56063 37.9065 7.4909L37.9671 7.29754L38.0276 7.10321L38.0677 6.99676C38.1746 6.75929 38.373 6.59281 38.6272 6.5202L38.8264 6.46356L39.0257 6.40594C39.0622 6.39546 39.0759 6.3831 39.0862 6.36981L39.2054 6.21454L39.3255 6.06024L39.3968 5.97723C39.5734 5.79668 39.8074 5.70853 40.0598 5.71649L40.263 5.72332L40.388 5.72723L40.51 5.54266L40.6468 5.33368L40.722 5.23309C40.8079 5.13355 40.9284 5.03922 41.0911 4.99579C41.3136 4.93661 41.5134 4.99897 41.6565 5.08075L41.8636 5.19891L42.0374 5.29852L42.1741 5.22723L42.3636 5.12665C42.4992 5.05512 42.6645 5.0114 42.845 5.03485C42.9795 5.05243 43.0957 5.10383 43.1927 5.17059L43.2835 5.2409L43.6116 5.53387C43.6185 5.53994 43.6238 5.54336 43.6272 5.54559L43.8147 5.53875L44.0091 5.53192C44.1827 5.5257 44.3556 5.5421 44.5257 5.58075L44.718 5.62469L44.9114 5.66864C45.096 5.71066 45.2698 5.78308 45.429 5.88543L45.7591 6.09832C45.9001 6.18904 46.03 6.29427 46.1477 6.41375L46.2854 6.5534L46.4231 6.69403C46.5354 6.80791 46.6372 6.93085 46.7278 7.06219L46.8391 7.22332L46.9505 7.38348C46.9956 7.44883 47.0461 7.53162 47.0804 7.62079C47.0975 7.66549 47.1199 7.73467 47.1243 7.81805C47.1278 7.88486 47.1193 7.97921 47.0745 8.07684L47.1204 8.20868L47.1839 8.39032C47.2013 8.44029 47.2273 8.48247 47.2649 8.5202L47.4007 8.65594L47.5364 8.79266C47.6252 8.88177 47.7155 8.97016 47.8059 9.05829L47.9436 9.19305L48.0823 9.32782C48.2195 9.46144 48.3283 9.61736 48.4055 9.79266L48.4817 9.96551L48.5579 10.1393C48.6296 10.3021 48.6762 10.4747 48.6995 10.654L48.7259 10.8581L48.7386 10.9636L48.9016 11.0222L49.1272 11.1032C49.2766 11.1569 49.4331 11.2546 49.5413 11.4216C49.6499 11.5895 49.675 11.7737 49.6604 11.9343L49.6389 12.1677L49.6214 12.3542L49.72 12.4264L49.8831 12.5466C49.9964 12.6296 50.1073 12.7143 50.2161 12.8005L50.5286 13.0485C50.6721 13.1622 50.7963 13.2947 50.8958 13.447L51.1009 13.7614C51.1783 13.88 51.2494 14.0026 51.3147 14.1286L51.4886 14.4626C51.5879 14.6544 51.6312 14.8632 51.6331 15.0749L51.6341 15.2946L51.635 15.4733L51.7591 15.5602L51.927 15.6764C52.1228 15.8121 52.269 15.9993 52.345 16.2311L52.4055 16.4147L52.4651 16.5983C52.4742 16.626 52.4888 16.6483 52.5188 16.6725L52.8274 16.9225C52.9839 17.0488 53.1112 17.203 53.2005 17.3845L53.3665 17.7223C53.4225 17.8361 53.4783 17.9508 53.5335 18.0651L53.6155 18.235L53.6975 18.404C53.7863 18.5879 53.8289 18.7869 53.8362 18.9899L53.844 19.2057L53.846 19.2731L53.9847 19.3132L54.2278 19.3815C54.4509 19.4448 54.6767 19.5731 54.8157 19.8024L54.8694 19.9069L54.9446 20.0807L55.0208 20.2546C55.0734 20.3757 55.1235 20.4983 55.1722 20.6218L55.2425 20.7985L55.3128 20.9763C55.358 21.0911 55.404 21.2056 55.4514 21.319L55.5247 21.4948L55.5979 21.6696C55.6506 21.7956 55.6999 21.9243 55.7454 22.0544L55.8089 22.235L55.8723 22.4167C55.9129 22.5326 55.9555 22.6477 55.9993 22.7614L56.0677 22.9401L56.136 23.1179C56.1656 23.1945 56.2049 23.2635 56.2522 23.3268L56.3645 23.4782L56.4768 23.6286C56.4939 23.6514 56.5284 23.6857 56.6028 23.7204L56.8059 23.8151L57.0091 23.9089C57.2252 24.0096 57.4145 24.1679 57.5315 24.3962L57.6175 24.5641L57.7034 24.7311C57.7364 24.7955 57.7795 24.8549 57.8343 24.9098L57.97 25.0466L58.1057 25.1823C58.2771 25.3542 58.3773 25.5684 58.4114 25.8024L58.4417 26.0046L58.4671 26.1852L58.6253 26.2878L58.7991 26.4001C58.99 26.5239 59.1422 26.6943 59.2347 26.9098L59.3098 27.0847L59.3841 27.2585C59.425 27.3541 59.4722 27.4464 59.5247 27.5339L59.6214 27.694L59.718 27.8552C59.822 28.0284 59.8823 28.2194 59.9065 28.4186L59.9319 28.6237L59.9495 28.777L60.1028 28.86L60.2923 28.9626C60.5555 29.1048 60.7295 29.3469 60.7649 29.654L60.7893 29.86L60.8089 30.0388L60.9593 30.1374L61.1321 30.2507C61.2661 30.3382 61.3773 30.4624 61.4436 30.6218C61.5079 30.7765 61.5175 30.9348 61.5013 31.0768L61.4739 31.3141L61.4671 31.3708L61.5462 31.3942L61.7884 31.4645C61.9275 31.5052 62.0757 31.5779 62.1966 31.7048C62.2911 31.804 62.3533 31.9201 62.386 32.0427L62.4095 32.1677L62.4319 32.3747L62.4544 32.5807C62.4635 32.6644 62.4844 32.7298 62.511 32.7819L62.596 32.9499L62.6819 33.1179C62.7177 33.1877 62.763 33.2523 62.8186 33.3122L63.0784 33.5915C63.1803 33.7012 63.2744 33.8177 63.3597 33.9391L63.468 34.0925L63.5755 34.2458C63.7012 34.425 63.7707 34.6286 63.7932 34.8415L63.8147 35.0485L63.8284 35.1755L63.9788 35.2419L64.1868 35.3327C64.4025 35.4279 64.5951 35.5786 64.72 35.7995L64.8128 35.9626L64.9046 36.1266C65.0199 36.3307 65.0619 36.5554 65.054 36.779L65.0452 37.0056L65.0374 37.2155L65.1536 37.3161L65.303 37.445C65.3914 37.521 65.4851 37.5944 65.5833 37.6657L65.7464 37.7848L65.9104 37.904C66.1247 38.0595 66.2462 38.2795 66.2786 38.5241L66.2864 38.6306L66.2932 38.8473L66.2991 39.0641C66.3016 39.1506 66.3178 39.2117 66.3382 39.2556L66.4182 39.4274L66.4973 39.5983C66.5007 39.6055 66.5104 39.6244 66.5559 39.6501L66.7425 39.7546L66.928 39.86C67.1386 39.9788 67.3092 40.1555 67.4036 40.3923L67.4739 40.569L67.5452 40.7458C67.563 40.7905 67.5891 40.83 67.6302 40.8669L67.7757 40.9968L67.9212 41.1276C68.0877 41.2773 68.2043 41.465 68.2659 41.6804L68.3733 42.0554C68.4159 42.2046 68.4477 42.359 68.469 42.5173L68.4964 42.7204L68.5237 42.9245C68.5307 42.9761 68.546 43.0039 68.5618 43.0231L68.6819 43.1696L68.803 43.3151C68.8527 43.3754 68.9144 43.4336 68.9915 43.488L69.1575 43.6052L69.3245 43.7223C69.5371 43.8724 69.6789 44.0869 69.7317 44.3444L69.7727 44.5397L69.8128 44.736C69.8176 44.7591 69.8238 44.7675 69.8372 44.779L70.136 45.0348C70.1395 45.0379 70.1432 45.0406 70.1468 45.0436L70.2122 44.9899C70.3535 44.8721 70.5136 44.7803 70.6868 44.7116L70.8802 44.6345L71.0745 44.5573C71.0914 44.5505 71.0982 44.5452 71.0989 44.5446L71.0999 44.5436C71.1004 44.5431 71.1017 44.5418 71.1028 44.5397L71.1936 44.3688L71.2854 44.1979C71.3366 44.1022 71.3831 44.0003 71.4251 43.8932L71.4983 43.7057L71.5725 43.5192C71.6508 43.32 71.7728 43.1449 71.9407 43.0075L72.0882 42.8874L72.2347 42.7673C72.2977 42.7156 72.3527 42.6565 72.3997 42.5905L72.5091 42.4372L72.6184 42.2829C72.7129 42.1501 72.8213 42.0291 72.9427 41.9206L73.0833 41.7946L73.2239 41.6696C73.3602 41.5478 73.5156 41.4508 73.6848 41.3766L73.8723 41.2936L74.0598 41.2116C74.1609 41.1674 74.253 41.1176 74.3362 41.0632L74.4983 40.9577L74.6136 40.8815L74.6292 40.6511L74.6458 40.4118C74.6621 40.1706 74.739 39.9249 74.9212 39.7282L75.0481 39.5905L75.1761 39.4528C75.2853 39.3348 75.4068 39.2287 75.5393 39.1354L75.8538 38.9147C75.9541 38.8442 76.0532 38.772 76.1507 38.6989L76.303 38.5847L76.4563 38.4704C76.5717 38.3839 76.6922 38.3019 76.8177 38.2263L76.9847 38.1257L77.1389 38.0319C77.1396 38.0305 77.1414 38.0289 77.1419 38.027L77.1917 37.8181L77.2415 37.61L77.2766 37.4958C77.3737 37.2394 77.5758 37.0563 77.844 36.9763L78.054 36.9138L78.263 36.8513C78.2851 36.8446 78.2949 36.8382 78.2972 36.8366L78.3987 36.6774L78.5013 36.5173C78.5298 36.4726 78.5574 36.4086 78.5745 36.3171L78.6145 36.1003L78.6555 35.8825L78.6839 35.7682C78.7657 35.5097 78.9529 35.3086 79.2259 35.2145L79.427 35.1452L79.6292 35.0759C79.6463 35.0699 79.6538 35.0645 79.6555 35.0632L79.7522 34.8962L79.8479 34.7302C79.916 34.612 79.9865 34.4952 80.0598 34.3815L80.1634 34.2223L80.2659 34.0622C80.3582 33.9193 80.4681 33.7902 80.594 33.6764L80.7337 33.5495L80.8743 33.4235C80.9685 33.3385 81.0634 33.2537 81.1585 33.1696L81.3001 33.0446L81.4407 32.9196C81.5296 32.841 81.6172 32.7603 81.7024 32.6784L81.8382 32.5485L81.9739 32.4177C82.0394 32.3547 82.0983 32.2848 82.1507 32.2087L82.2581 32.0534L82.3655 31.8972C82.4775 31.7347 82.6199 31.6003 82.7874 31.4968L82.9534 31.3942L83.1194 31.2927C83.2333 31.2222 83.3486 31.1526 83.4651 31.0847L83.635 30.985L83.805 30.8864C83.8607 30.8538 83.9019 30.8157 83.9339 30.7722L84.0462 30.6198L84.1575 30.4675C84.2266 30.3731 84.2939 30.276 84.3587 30.1774L84.4632 30.0192L84.5677 29.86C84.6245 29.7734 84.6767 29.6808 84.7239 29.5827L84.8938 29.2292C84.9591 29.0937 85.0325 28.9638 85.1126 28.8395L85.2151 28.6794L85.3186 28.5192C85.4579 28.3036 85.6614 28.1635 85.8919 28.0886L86.097 28.0222L86.3011 27.9557C86.3648 27.935 86.3901 27.9115 86.4007 27.8991L86.5208 27.7595L86.6399 27.6188C86.7324 27.5108 86.8325 27.4078 86.9378 27.3102L87.0745 27.1833L87.2122 27.0563C87.3467 26.9317 87.5 26.833 87.6692 26.7624L87.8421 26.6901L88.0139 26.6179C88.0986 26.5825 88.1836 26.5377 88.2679 26.4821L88.4319 26.3737L88.595 26.2663C88.7976 26.1326 89.0296 26.0728 89.2718 26.0934L89.6624 26.1266C89.6936 26.1293 89.7316 26.1254 89.7845 26.0993L89.9759 26.0046L90.1663 25.9108L90.2815 25.8639C90.401 25.8253 90.5341 25.8121 90.6731 25.8405C90.8532 25.8775 90.995 25.9741 91.0999 26.0788L91.2679 26.2468L91.4368 26.4147C91.4777 26.4555 91.502 26.4689 91.51 26.4723L91.6888 26.5007L91.8665 26.53C91.9476 26.5432 92.0439 26.5489 92.1565 26.5446L92.5784 26.529L92.6839 26.5309C92.8924 26.5448 93.0867 26.6239 93.2434 26.7712L93.3186 26.8503L93.4475 27.0016L93.5755 27.154C93.6846 27.2829 93.7785 27.4224 93.8557 27.571L93.9368 27.7253C94.0913 27.7329 94.2158 27.8063 94.2854 27.8639C94.3818 27.9438 94.4475 28.0447 94.4895 28.1179L94.5852 28.2848L94.6809 28.4509C94.7073 28.4968 94.7405 28.533 94.7845 28.5632L94.9427 28.6716L95.1018 28.7809C95.2055 28.852 95.3102 28.9221 95.4153 28.9919L95.5764 29.0993L95.7366 29.2057C95.8961 29.3117 96.0325 29.4452 96.1409 29.6032L96.2483 29.7585L96.3548 29.9147C96.4554 30.0615 96.5331 30.2232 96.5891 30.3952L96.6526 30.5915L96.6858 30.6921L96.8567 30.7194L97.0921 30.7575C97.2487 30.7826 97.4208 30.849 97.5579 30.9929C97.6612 31.1015 97.72 31.2283 97.7493 31.3522L97.7698 31.4753L97.7923 31.7087L97.8098 31.8952L97.9192 31.9479L98.1018 32.0358C98.2288 32.0966 98.3538 32.1596 98.4768 32.2243L98.6536 32.3161L98.8294 32.4089C98.9915 32.4941 99.1379 32.6028 99.2639 32.7341L99.3938 32.8688L99.5237 33.0046C99.6218 33.1068 99.7145 33.2141 99.802 33.3259L99.9182 33.4733L100.034 33.6218C100.168 33.7919 100.248 33.9892 100.289 34.197L100.332 34.4128L100.366 34.5886L100.503 34.6501L100.69 34.7331C100.907 34.8302 101.086 34.9877 101.203 35.2018L101.297 35.3708L101.39 35.5397C101.404 35.5653 101.422 35.5849 101.456 35.6032L101.806 35.7907C101.983 35.8858 102.136 36.0147 102.257 36.1764L102.37 36.3268L102.484 36.4782C102.56 36.5796 102.636 36.6818 102.711 36.7839L102.823 36.9352L102.935 37.0866C103.056 37.251 103.135 37.4382 103.18 37.6364L103.227 37.8473L103.241 37.9138L103.384 37.9264L103.637 37.9499C103.868 37.9708 104.113 38.054 104.292 38.2536L104.365 38.3464L104.471 38.5036L104.577 38.6598C104.652 38.7691 104.724 38.8806 104.794 38.9929L104.997 39.3151C105.063 39.4196 105.13 39.5239 105.198 39.6266L105.302 39.7858L105.407 39.944C105.482 40.0581 105.554 40.1753 105.622 40.2946L105.718 40.4616L105.815 40.6276C105.876 40.734 105.939 40.8394 106.003 40.9431L106.103 41.1052L106.203 41.2673C106.247 41.3371 106.298 41.3984 106.356 41.4518L106.494 41.5798L106.633 41.7067C106.654 41.726 106.694 41.7528 106.774 41.7731L106.991 41.8288L107.207 41.8835C107.438 41.9425 107.655 42.0634 107.812 42.2663L108.042 42.5632C108.087 42.6203 108.139 42.6707 108.203 42.7145L108.363 42.8239L108.521 42.9323C108.721 43.0695 108.86 43.2613 108.937 43.485L109.003 43.6784L109.062 43.8503L109.236 43.9225L109.427 44.0007C109.638 44.0871 109.82 44.2267 109.95 44.4216L110.161 44.736C110.219 44.8223 110.282 44.904 110.35 44.9802L110.475 45.1208L110.6 45.2604C110.734 45.4115 110.829 45.5876 110.89 45.779L110.952 45.9763L110.998 46.1237L111.163 46.1764L111.369 46.2429C111.619 46.3226 111.816 46.4897 111.922 46.7282L111.962 46.8347L112.024 47.0329L112.075 47.2038L112.241 47.2731L112.433 47.3522C112.581 47.4135 112.713 47.5155 112.808 47.6598C112.9 47.8 112.938 47.9538 112.949 48.0964L112.966 48.3356L112.97 48.3913L113.051 48.4001L113.302 48.4245C113.446 48.4387 113.606 48.4823 113.748 48.5847C113.897 48.6915 113.993 48.8392 114.042 49.0007L114.163 49.3991C114.188 49.4795 114.22 49.5394 114.256 49.5856L114.371 49.735L114.487 49.8835C114.535 49.9456 114.591 50.0009 114.657 50.0495L114.81 50.1628L114.964 50.2761C115.085 50.365 115.198 50.4616 115.304 50.5651L115.439 50.696L115.574 50.8278C115.73 50.9807 115.835 51.1677 115.897 51.3727L115.957 51.572L115.993 51.6931L116.154 51.7311L116.374 51.7829C116.604 51.8365 116.822 51.9482 116.986 52.1423L117.228 52.4294C117.366 52.5937 117.444 52.7874 117.483 52.9889L117.522 52.9333C117.608 52.807 117.703 52.6877 117.805 52.5768L117.933 52.4382L118.061 52.2985C118.155 52.1968 118.252 52.0985 118.353 52.0046L118.49 51.8766L118.627 51.7487C118.756 51.6284 118.902 51.5293 119.061 51.4518L119.235 51.3669L119.408 51.2829C119.507 51.2351 119.6 51.1817 119.689 51.1247L119.848 51.0231L120.007 50.9206C120.068 50.8811 120.123 50.8323 120.17 50.7741L120.412 50.4792C120.521 50.3467 120.645 50.2301 120.784 50.1315L120.939 50.0231L121.092 49.9138C121.164 49.863 121.23 49.8043 121.289 49.738L121.543 49.4567C121.605 49.3879 121.663 49.3103 121.715 49.2233L121.818 49.0534L121.919 48.8825C122.008 48.7341 122.115 48.599 122.238 48.4802L122.373 48.3493L122.508 48.2194C122.698 48.0363 122.935 47.951 123.176 47.9304L123.404 47.9108L123.497 47.902L123.522 47.7985L123.574 47.57C123.632 47.3213 123.766 47.0823 124.011 46.9294L124.172 46.8288L124.332 46.7292C124.392 46.6917 124.445 46.6449 124.491 46.5886L124.734 46.2936C124.84 46.1643 124.96 46.0484 125.093 45.9489L125.243 45.8376L125.395 45.7253C125.492 45.6529 125.589 45.5791 125.684 45.5046L125.831 45.3884L125.979 45.2731C126.175 45.1196 126.408 45.0519 126.64 45.0388L126.873 45.0261L127.107 45.0124C127.109 45.0122 127.112 45.0116 127.115 45.0114L127.212 44.8884L127.331 44.737C127.377 44.6788 127.42 44.6052 127.456 44.5134L127.534 44.3151L127.614 44.1169C127.694 43.9145 127.818 43.7334 127.994 43.5944L128.289 43.362C128.419 43.2597 128.561 43.1733 128.712 43.1032L128.888 43.0212L129.064 42.9401C129.165 42.893 129.264 42.8414 129.357 42.7858L129.683 42.5905C129.724 42.5661 129.759 42.5335 129.79 42.486L129.898 42.321L130.004 42.1569L130.067 42.071C130.222 41.8825 130.434 41.7743 130.666 41.737L130.882 41.7018L131.098 41.6677C131.108 41.666 131.115 41.6631 131.118 41.6618L131.229 41.5173L131.346 41.3649C131.436 41.2478 131.532 41.1363 131.634 41.0319L131.766 40.8972L131.897 40.7624C131.943 40.7145 131.987 40.653 132.026 40.5739L132.116 40.3893L132.205 40.2038C132.318 39.9708 132.505 39.7933 132.752 39.6989L132.937 39.6286L133.122 39.5573C133.192 39.5306 133.248 39.4962 133.293 39.4557L133.434 39.3307L133.574 39.2057C133.62 39.1644 133.664 39.1106 133.702 39.0397L133.894 38.6843C133.984 38.5173 134.099 38.3683 134.241 38.2438L134.383 38.1198L134.524 37.9968C134.641 37.8946 134.767 37.8033 134.901 37.7233L135.064 37.6257L135.227 37.529C135.412 37.4183 135.619 37.3607 135.831 37.3425L136.06 37.3229L136.225 37.3083L136.278 37.196L136.365 37.0075C136.467 36.7847 136.634 36.604 136.863 36.4938L137.036 36.4098L137.211 36.3259C137.217 36.3232 137.219 36.3212 137.22 36.32C137.222 36.3179 137.228 36.3107 137.236 36.2946L137.409 35.9177C137.476 35.774 137.582 35.6466 137.728 35.5573C137.87 35.4706 138.024 35.436 138.167 35.4304L138.405 35.4216L138.549 35.4147L138.585 35.322L138.663 35.1227L138.704 35.029C138.811 34.817 138.987 34.6511 139.225 34.5651L139.412 34.4977L139.547 34.4479L139.601 34.2595L139.663 34.0417C139.726 33.8235 139.838 33.6184 140.018 33.4606L140.159 33.3376L140.3 33.2136C140.521 33.0206 140.795 32.9674 141.046 32.9782L141.299 32.9889L141.413 32.9929L141.43 32.9362L141.493 32.7194C141.549 32.5268 141.633 32.3457 141.751 32.1872L141.982 31.8786C142.085 31.7412 142.204 31.6192 142.339 31.5143L142.487 31.3991L142.635 31.2839C142.821 31.1392 143.04 31.0661 143.263 31.0427L143.488 31.0182L143.596 31.0065L143.627 30.8962L143.688 30.6764L143.731 30.5563C143.783 30.4372 143.867 30.3231 143.991 30.236C144.151 30.1232 144.331 30.0902 144.486 30.0925L144.733 30.0964L144.953 30.0993L145.02 30.0007L145.128 29.8376C145.212 29.711 145.304 29.5914 145.403 29.4792L145.528 29.3366L145.654 29.194C145.752 29.0821 145.858 28.9772 145.97 28.8806L146.112 28.7585L146.254 28.6354C146.367 28.5383 146.487 28.4492 146.614 28.3688L146.932 28.1657C146.98 28.1353 147.021 28.0957 147.058 28.0427L147.168 27.8815L147.279 27.7214L147.345 27.6345C147.51 27.4457 147.734 27.3481 147.969 27.322L148.193 27.2966L148.416 27.2722C148.443 27.2691 148.456 27.2634 148.461 27.2614L148.59 27.1257L148.72 26.9889C148.729 26.979 148.755 26.9451 148.774 26.8571L148.824 26.6237L148.872 26.3913C148.929 26.1255 149.078 25.8691 149.362 25.7282L149.534 25.6423L149.706 25.5563C149.826 25.4969 149.948 25.4396 150.071 25.3835L150.246 25.3024L150.423 25.2214C150.456 25.2061 150.481 25.1858 150.502 25.154L150.719 24.8298C150.861 24.6188 151.064 24.4766 151.302 24.4079L151.499 24.3513L151.696 24.2946C151.781 24.2699 151.851 24.2366 151.908 24.1979L152.065 24.0934L152.221 23.988C152.258 23.963 152.293 23.9278 152.324 23.8747L152.523 23.529C152.62 23.3598 152.747 23.212 152.903 23.0934L153.051 22.9802L153.2 22.8659C153.27 22.8132 153.334 22.7523 153.392 22.6833L153.514 22.5378L153.636 22.3913C153.71 22.3025 153.782 22.21 153.852 22.1149L154.08 21.8024C154.215 21.6189 154.394 21.4846 154.605 21.404L154.789 21.3337L154.975 21.2624C155.083 21.221 155.187 21.1755 155.286 21.1257L155.458 21.0388L155.631 20.9528C155.667 20.9349 155.694 20.9106 155.719 20.8737L155.936 20.5475L155.998 20.4636C156.152 20.2795 156.361 20.1718 156.589 20.1325L157.017 20.0583C157.077 20.0479 157.098 20.0311 157.107 20.0231L157.242 19.8932L157.379 19.7643C157.444 19.703 157.504 19.6326 157.558 19.5534L157.667 19.3932L157.778 19.2321C157.869 19.0995 157.972 18.977 158.085 18.8659L158.219 18.7341L158.354 18.6022C158.47 18.4887 158.598 18.3888 158.737 18.3034L158.899 18.2038L159.06 18.1042C159.106 18.0759 159.145 18.0387 159.18 17.988L159.29 17.8268L159.4 17.6667C159.496 17.5263 159.607 17.3989 159.734 17.2878L159.874 17.1638L160.015 17.0407C160.172 16.9028 160.357 16.8092 160.556 16.7556L160.755 16.7018L160.888 16.6657L160.941 16.5026L161.007 16.2897C161.083 16.0471 161.234 15.8297 161.477 15.696L161.645 15.6042L161.812 15.5124C161.9 15.464 161.982 15.4093 162.059 15.3493L162.206 15.2331L162.354 15.1179C162.424 15.0628 162.488 14.9993 162.547 14.9284L162.791 14.6354C162.871 14.5397 162.95 14.4426 163.029 14.3454L163.148 14.197L163.268 14.0475C163.456 13.8145 163.72 13.7156 163.983 13.7009L164.216 13.6872L164.315 13.6813L164.338 13.5895L164.394 13.3639L164.434 13.2419C164.483 13.121 164.564 13.0034 164.689 12.9128C164.851 12.7945 165.034 12.7609 165.191 12.7634L165.439 12.7673L165.595 12.7692L165.628 12.6921L165.71 12.4977C165.782 12.3267 165.875 12.1686 165.992 12.029L166.115 11.8835L166.238 11.737C166.324 11.6342 166.413 11.5333 166.503 11.4352L166.632 11.2966L166.76 11.1579L166.841 11.0798C167.037 10.9146 167.28 10.8579 167.507 10.86L167.753 10.862H167.802L167.811 10.7966L167.843 10.5427C167.879 10.2677 168.011 9.97394 168.324 9.82L168.497 9.73504L168.67 9.64911C168.736 9.6165 168.792 9.57638 168.84 9.52801L168.972 9.39325L169.105 9.25946C169.283 9.0783 169.509 8.98311 169.744 8.95086L169.964 8.92059L170.115 8.89911L170.166 8.77411L170.245 8.57684C170.347 8.32653 170.534 8.12959 170.798 8.02997L170.984 7.95965L171.146 7.89813L171.219 7.7077L171.296 7.5075L171.341 7.4079C171.456 7.18547 171.648 7.02147 171.903 6.94989L172.101 6.89422L172.273 6.8454L172.349 6.6784L172.436 6.48895C172.531 6.2814 172.677 6.10482 172.878 5.98211L173.202 5.78485C173.322 5.71188 173.446 5.64328 173.573 5.57977L173.745 5.49286L173.917 5.40692C174.07 5.33066 174.232 5.27311 174.403 5.23309L174.607 5.18524L174.793 5.14129L174.88 4.98211L174.976 4.80438C175.044 4.67781 175.115 4.55131 175.19 4.42743L175.296 4.25262L175.402 4.07782C175.54 3.84866 175.753 3.69107 176.015 3.62762L176.211 3.57977L176.408 3.5329C176.438 3.52536 176.455 3.51385 176.47 3.49579L176.598 3.3454L176.727 3.195C176.898 2.994 177.127 2.87821 177.384 2.8493L177.794 2.80243C177.889 2.79175 177.969 2.77094 178.037 2.74286L178.385 2.60028C178.536 2.5384 178.693 2.49396 178.856 2.46649L179.046 2.43426L179.22 2.40399C179.221 2.40262 179.223 2.40086 179.224 2.39911L179.348 2.21942L179.472 2.04071L179.54 1.95282C179.709 1.75957 179.945 1.64501 180.222 1.65106L180.425 1.65497L180.579 1.6579L180.698 1.5075L180.833 1.33172C180.932 1.20436 181.073 1.09268 181.258 1.04364C181.394 1.00769 181.526 1.01298 181.644 1.03973L181.757 1.07293L181.98 1.15301L182.157 1.21649L182.25 1.14032L182.408 1.01141C182.573 0.875081 182.766 0.780987 182.982 0.743833L183.167 0.711606L183.352 0.680356C183.401 0.671794 183.455 0.651335 183.514 0.611997L183.683 0.500669L183.852 0.388364C184.06 0.250606 184.3 0.189926 184.551 0.219419L184.746 0.24188L184.942 0.265317C185.009 0.273237 185.07 0.267498 185.127 0.251645L185.311 0.200864L185.493 0.150083C185.668 0.101472 185.847 0.0817974 186.028 0.091489L186.217 0.101255L186.408 0.11102C186.502 0.116076 186.596 0.112149 186.688 0.0993015L186.874 0.0739109L187.061 0.0475437C187.274 0.0178786 187.484 0.0450576 187.682 0.119809L187.87 0.191098L188.052 0.259458L188.238 0.174497L188.425 0.0875827L188.525 0.0475437Z" fill="#C2DBFA"/>
</svg>
