<svg width="9" height="6" viewBox="0 0 9 6" fill="none" xmlns="http://www.w3.org/2000/svg">
<path d="M4.48855 2C4.48855 1.8067 4.33185 1.65 4.13855 1.65C3.94525 1.65 3.78855 1.8067 3.78855 2H4.13855H4.48855ZM4.13855 2.1H3.78855V2.22763L3.87071 2.3253L4.13855 2.1ZM4.17211 2.1399L4.43995 1.9146L4.43995 1.9146L4.17211 2.1399ZM4.16939 2.14555L3.95225 1.87105L3.95225 1.87105L4.16939 2.14555ZM4.08413 2.213L4.30127 2.4875H4.30127L4.08413 2.213ZM3.99886 2.28045L3.78172 2.00595L3.78172 2.00595L3.99886 2.28045ZM3.99706 2.28755L4.27634 2.07659L4.27633 2.07659L3.99706 2.28755ZM4.04801 2.355L3.76873 2.56596L3.76873 2.56596L4.04801 2.355ZM4.09896 2.42245L4.37824 2.21149L4.37823 2.21149L4.09896 2.42245ZM4.09847 2.42955L3.83737 2.19647L3.83737 2.19647L4.09847 2.42955ZM4.03826 2.497L4.29936 2.73008L4.29936 2.73008L4.03826 2.497ZM3.97805 2.56445L3.71695 2.33137L3.71695 2.33137L3.97805 2.56445ZM3.97814 2.57155L4.23577 2.33463L4.23577 2.33463L3.97814 2.57155ZM4.04017 2.639L3.78255 2.87592L3.78255 2.87592L4.04017 2.639ZM4.1022 2.70645L4.35983 2.46953L4.35983 2.46953L4.1022 2.70645ZM4.10444 2.71355L3.76821 2.61633L3.76821 2.61633L4.10444 2.71355ZM4.08494 2.781L4.42117 2.87822V2.87822L4.08494 2.781ZM4.06544 2.84845L3.72921 2.75123L3.72921 2.75123L4.06544 2.84845ZM4.06483 2.85555L4.41244 2.81471L4.41244 2.81471L4.06483 2.85555ZM4.07275 2.923L3.72514 2.96384V2.96384L4.07275 2.923ZM4.08067 2.99045L4.42828 2.94961V2.94961L4.08067 2.99045ZM4.08002 2.99755L3.74497 2.89634L3.74497 2.89634L4.08002 2.99755ZM4.05964 3.065L4.39469 3.16621V3.16621L4.05964 3.065ZM4.03927 3.13245L3.70422 3.03124L3.70422 3.03124L4.03927 3.13245ZM4.04157 3.13955L4.29521 2.89837L4.29521 2.89837L4.04157 3.13955ZM4.10571 3.207L3.85207 3.44818H3.85207L4.10571 3.207ZM4.16985 3.27445L4.42348 3.03327L4.42348 3.03327L4.16985 3.27445ZM4.16997 3.28155L3.91186 3.04517L3.91186 3.04517L4.16997 3.28155ZM4.1082 3.349L4.36632 3.58538L4.36632 3.58538L4.1082 3.349ZM4.04643 3.41645L3.78831 3.18007L3.78831 3.18007L4.04643 3.41645ZM4.04427 3.42355L4.37893 3.32107L4.37892 3.32107L4.04427 3.42355ZM4.06492 3.491L3.73026 3.59348V3.59348L4.06492 3.491ZM4.08558 3.55845L4.42024 3.45597L4.42024 3.45597L4.08558 3.55845ZM4.08342 3.56555L3.82488 3.32964L3.82488 3.32964L4.08342 3.56555ZM4.02188 3.633L4.28043 3.86891L4.28043 3.86891L4.02188 3.633ZM3.96034 3.70045L3.70179 3.46454L3.70179 3.46454L3.96034 3.70045ZM3.96275 3.70755L4.14898 3.41121L4.14898 3.41121L3.96275 3.70755ZM4.07008 3.775L3.88384 4.07134H3.88384L4.07008 3.775ZM4.1774 3.84245L4.36364 3.54611L4.36364 3.54611L4.1774 3.84245ZM4.18354 3.84955L4.53027 3.80177L4.53027 3.80177L4.18354 3.84955ZM4.19284 3.917L3.84612 3.96478V3.96478L4.19284 3.917ZM4.20213 3.98445L4.54886 3.93667L4.54886 3.93667L4.20213 3.98445ZM4.20102 3.9883L4.1366 3.64428L4.13659 3.64428L4.20102 3.9883ZM4.17059 3.994L3.8393 4.10691L3.93708 4.39382L4.23502 4.33802L4.17059 3.994ZM4.13855 3.9L4.46984 3.78709L3.78855 3.9H4.13855ZM3.78855 4C3.78855 4.1933 3.94525 4.35 4.13855 4.35C4.33185 4.35 4.48855 4.1933 4.48855 4H4.13855H3.78855ZM4.13855 2H3.78855V2.1H4.13855H4.48855V2H4.13855ZM4.13855 2.1L3.87071 2.3253L3.90427 2.3652L4.17211 2.1399L4.43995 1.9146L4.40639 1.8747L4.13855 2.1ZM4.17211 2.1399L3.90427 2.3652C3.86326 2.31644 3.83037 2.24965 3.82379 2.16979C3.8175 2.09348 3.83733 2.0313 3.85698 1.99049C3.89145 1.91892 3.94102 1.87994 3.95225 1.87105L4.16939 2.14555L4.38654 2.42005C4.40076 2.4088 4.45227 2.36769 4.48765 2.29423C4.50776 2.25248 4.52778 2.18943 4.52142 2.11229C4.51477 2.03161 4.48156 1.96406 4.43995 1.9146L4.17211 2.1399ZM4.16939 2.14555L3.95225 1.87105L3.86698 1.9385L4.08413 2.213L4.30127 2.4875L4.38654 2.42005L4.16939 2.14555ZM4.08413 2.213L3.86698 1.9385L3.78172 2.00595L3.99886 2.28045L4.21601 2.55495L4.30127 2.4875L4.08413 2.213ZM3.99886 2.28045L3.78172 2.00595C3.75172 2.02968 3.68421 2.09064 3.65697 2.19772C3.62481 2.32415 3.66802 2.43264 3.71778 2.49851L3.99706 2.28755L4.27633 2.07659C4.32431 2.1401 4.36692 2.24622 4.33537 2.37028C4.30873 2.475 4.24301 2.53358 4.21601 2.55495L3.99886 2.28045ZM3.99706 2.28755L3.71778 2.49851L3.76873 2.56596L4.04801 2.355L4.32729 2.14404L4.27634 2.07659L3.99706 2.28755ZM4.04801 2.355L3.76873 2.56596L3.81968 2.63341L4.09896 2.42245L4.37823 2.21149L4.32729 2.14404L4.04801 2.355ZM4.09896 2.42245L3.81968 2.63341C3.78289 2.5847 3.74396 2.50452 3.751 2.40203C3.75779 2.30311 3.80405 2.23379 3.83737 2.19647L4.09847 2.42955L4.35957 2.66263C4.395 2.62294 4.4424 2.55126 4.44935 2.44997C4.45655 2.34511 4.41682 2.26257 4.37824 2.21149L4.09896 2.42245ZM4.09847 2.42955L3.83737 2.19647L3.77716 2.26392L4.03826 2.497L4.29936 2.73008L4.35957 2.66263L4.09847 2.42955ZM4.03826 2.497L3.77716 2.26392L3.71695 2.33137L3.97805 2.56445L4.23915 2.79753L4.29936 2.73008L4.03826 2.497ZM3.97805 2.56445L3.71695 2.33137C3.67776 2.37527 3.62497 2.45771 3.62652 2.57272C3.62806 2.6868 3.68223 2.76683 3.72052 2.80847L3.97814 2.57155L4.23577 2.33463C4.27189 2.37391 4.32495 2.45157 4.32646 2.56328C4.32798 2.67593 4.27622 2.756 4.23915 2.79753L3.97805 2.56445ZM3.97814 2.57155L3.72052 2.80847L3.78255 2.87592L4.04017 2.639L4.2978 2.40208L4.23577 2.33463L3.97814 2.57155ZM4.04017 2.639L3.78255 2.87592L3.84458 2.94337L4.1022 2.70645L4.35983 2.46953L4.2978 2.40208L4.04017 2.639ZM4.1022 2.70645L3.84458 2.94337C3.8208 2.91751 3.7895 2.87523 3.77059 2.81523C3.75039 2.75115 3.74925 2.68191 3.76821 2.61633L4.10444 2.71355L4.44067 2.81077C4.48563 2.65526 4.41607 2.53069 4.35983 2.46953L4.1022 2.70645ZM4.10444 2.71355L3.76821 2.61633L3.74871 2.68378L4.08494 2.781L4.42117 2.87822L4.44067 2.81077L4.10444 2.71355ZM4.08494 2.781L3.74871 2.68378L3.72921 2.75123L4.06544 2.84845L4.40166 2.94567L4.42117 2.87822L4.08494 2.781ZM4.06544 2.84845L3.72921 2.75123C3.71602 2.79685 3.71131 2.84613 3.71722 2.89639L4.06483 2.85555L4.41244 2.81471C4.41778 2.86024 4.41348 2.90479 4.40166 2.94567L4.06544 2.84845ZM4.06483 2.85555L3.71722 2.89639L3.72514 2.96384L4.07275 2.923L4.42036 2.88216L4.41244 2.81471L4.06483 2.85555ZM4.07275 2.923L3.72514 2.96384L3.73306 3.03129L4.08067 2.99045L4.42828 2.94961L4.42036 2.88216L4.07275 2.923ZM4.08067 2.99045L3.73306 3.03129C3.72753 2.98415 3.73233 2.9382 3.74497 2.89634L4.08002 2.99755L4.41507 3.09876C4.42914 3.05217 4.43438 3.00149 4.42828 2.94961L4.08067 2.99045ZM4.08002 2.99755L3.74497 2.89634L3.7246 2.96379L4.05964 3.065L4.39469 3.16621L4.41507 3.09876L4.08002 2.99755ZM4.05964 3.065L3.7246 2.96379L3.70422 3.03124L4.03927 3.13245L4.37432 3.23366L4.39469 3.16621L4.05964 3.065ZM4.03927 3.13245L3.70422 3.03124C3.65546 3.19265 3.73085 3.3207 3.78794 3.38073L4.04157 3.13955L4.29521 2.89837C4.31933 2.92374 4.35225 2.9664 4.37223 3.028C4.39372 3.09424 4.39474 3.16605 4.37432 3.23366L4.03927 3.13245ZM4.04157 3.13955L3.78793 3.38073L3.85207 3.44818L4.10571 3.207L4.35935 2.96582L4.29521 2.89837L4.04157 3.13955ZM4.10571 3.207L3.85207 3.44818L3.91621 3.51563L4.16985 3.27445L4.42348 3.03327L4.35935 2.96582L4.10571 3.207ZM4.16985 3.27445L3.91621 3.51563C3.88004 3.47759 3.82364 3.39918 3.82162 3.28414C3.81958 3.16778 3.87435 3.08613 3.91186 3.04517L4.16997 3.28155L4.42809 3.51793C4.46776 3.47461 4.52359 3.39059 4.52151 3.27186C4.51945 3.15446 4.46191 3.07367 4.42348 3.03327L4.16985 3.27445ZM4.16997 3.28155L3.91186 3.04517L3.85009 3.11262L4.1082 3.349L4.36632 3.58538L4.42809 3.51793L4.16997 3.28155ZM4.1082 3.349L3.85009 3.11262L3.78831 3.18007L4.04643 3.41645L4.30454 3.65283L4.36632 3.58538L4.1082 3.349ZM4.04643 3.41645L3.78831 3.18007C3.73087 3.2428 3.66174 3.36973 3.70961 3.52603L4.04427 3.42355L4.37892 3.32107C4.39896 3.38649 4.39903 3.45653 4.37906 3.52204C4.36038 3.58334 4.32864 3.62652 4.30454 3.65283L4.04643 3.41645ZM4.04427 3.42355L3.70961 3.52603L3.73026 3.59348L4.06492 3.491L4.39958 3.38852L4.37893 3.32107L4.04427 3.42355ZM4.06492 3.491L3.73026 3.59348L3.75092 3.66093L4.08558 3.55845L4.42024 3.45597L4.39958 3.38852L4.06492 3.491ZM4.08558 3.55845L3.75092 3.66093C3.73094 3.59571 3.73081 3.52588 3.75063 3.46047C3.76919 3.39924 3.80079 3.35604 3.82488 3.32964L4.08342 3.56555L4.34197 3.80146C4.39941 3.73851 4.46794 3.61175 4.42024 3.45597L4.08558 3.55845ZM4.08342 3.56555L3.82488 3.32964L3.76333 3.39709L4.02188 3.633L4.28043 3.86891L4.34197 3.80146L4.08342 3.56555ZM4.02188 3.633L3.76333 3.39709L3.70179 3.46454L3.96034 3.70045L4.21888 3.93636L4.28043 3.86891L4.02188 3.633ZM3.96034 3.70045L3.70179 3.46454C3.64299 3.52899 3.57462 3.65953 3.62789 3.81649C3.6677 3.9338 3.75393 3.9897 3.77651 4.00389L3.96275 3.70755L4.14898 3.41121C4.1678 3.42304 4.25174 3.47657 4.29075 3.59151C4.31308 3.65732 4.31551 3.7296 4.29573 3.79863C4.27725 3.86314 4.24416 3.90866 4.21888 3.93636L3.96034 3.70045ZM3.96275 3.70755L3.77651 4.00389L3.88384 4.07134L4.07008 3.775L4.25631 3.47866L4.14898 3.41121L3.96275 3.70755ZM4.07008 3.775L3.88384 4.07134L3.99117 4.13879L4.1774 3.84245L4.36364 3.54611L4.25631 3.47866L4.07008 3.775ZM4.1774 3.84245L3.99117 4.13879C3.97498 4.12862 3.946 4.10845 3.91699 4.0749C3.88724 4.04049 3.84835 3.98102 3.83682 3.89733L4.18354 3.84955L4.53027 3.80177C4.5075 3.63658 4.38529 3.55972 4.36364 3.54611L4.1774 3.84245ZM4.18354 3.84955L3.83682 3.89733L3.84612 3.96478L4.19284 3.917L4.53956 3.86922L4.53027 3.80177L4.18354 3.84955ZM4.19284 3.917L3.84612 3.96478L3.85541 4.03223L4.20213 3.98445L4.54886 3.93667L4.53956 3.86922L4.19284 3.917ZM4.20213 3.98445L3.85541 4.03223C3.85334 4.01721 3.84563 3.96 3.86586 3.89002C3.87716 3.85093 3.90075 3.79551 3.95046 3.74426C4.00336 3.68972 4.06961 3.65683 4.1366 3.64428L4.20102 3.9883L4.26545 4.33232C4.42829 4.30182 4.51158 4.17697 4.53834 4.08436C4.55894 4.01309 4.55125 3.95406 4.54886 3.93667L4.20213 3.98445ZM4.20102 3.9883L4.13659 3.64428L4.10616 3.64998L4.17059 3.994L4.23502 4.33802L4.26545 4.33232L4.20102 3.9883ZM4.17059 3.994L4.50187 3.88109L4.46984 3.78709L4.13855 3.9L3.80726 4.01291L3.8393 4.10691L4.17059 3.994ZM4.13855 3.9H3.78855V4H4.13855H4.48855V3.9H4.13855Z" fill="#99A67C"/>
<path d="M7.7016 2.15652C7.78805 1.98363 7.71797 1.7734 7.54507 1.68695C7.37218 1.6005 7.16195 1.67058 7.0755 1.84348L7.38855 2L7.7016 2.15652ZM7.34383 2.08944L7.03078 1.93292L6.90831 2.17785L7.11659 2.35564L7.34383 2.08944ZM7.46997 2.19712L7.24273 2.46332L7.24273 2.46332L7.46997 2.19712ZM7.4667 2.20181L7.50132 1.85352V1.85352L7.4667 2.20181ZM7.27845 2.18309L7.24384 2.53138L7.27845 2.18309ZM7.09021 2.16438L7.12483 1.8161V1.8161L7.09021 2.16438ZM7.08261 2.16852L6.76354 2.31237L6.76354 2.31238L7.08261 2.16852ZM7.12651 2.26588L7.44558 2.12203V2.12203L7.12651 2.26588ZM7.1704 2.36324L6.85133 2.50709L6.85133 2.50709L7.1704 2.36324ZM7.17319 2.37257L6.82547 2.41242L6.82547 2.41242L7.17319 2.37257ZM7.18236 2.45257L7.53008 2.41272L7.53008 2.41272L7.18236 2.45257ZM7.19153 2.53256L6.8438 2.57241L6.8438 2.57241L7.19153 2.53256ZM7.18472 2.5371L7.16923 2.18744L7.16923 2.18744L7.18472 2.5371ZM7.04617 2.54323L7.06166 2.89289H7.06166L7.04617 2.54323ZM6.90762 2.54937L6.89213 2.19971L6.89213 2.19971L6.90762 2.54937ZM6.90249 2.55474L6.58067 2.69234L6.58067 2.69234L6.90249 2.55474ZM6.9435 2.65066L7.26532 2.51306V2.51306L6.9435 2.65066ZM6.98451 2.74658L6.66269 2.88417L6.66269 2.88417L6.98451 2.74658ZM6.98094 2.75273L6.91458 2.40908L6.91458 2.40908L6.98094 2.75273ZM6.87214 2.77374L6.9385 3.11739H6.9385L6.87214 2.77374ZM6.76334 2.79475L6.69698 2.4511L6.69697 2.4511L6.76334 2.79475ZM6.75849 2.80026L6.4152 2.86849L6.4152 2.86849L6.75849 2.80026ZM6.77513 2.884L7.11842 2.81577V2.81577L6.77513 2.884ZM6.79177 2.96773L6.44849 3.03596L6.44849 3.03596L6.79177 2.96773ZM6.7936 2.97658L6.4514 3.05005L6.4514 3.05005L6.7936 2.97658ZM6.81174 3.06106L7.15394 2.98759V2.98759L6.81174 3.06106ZM6.82988 3.14554L6.48768 3.21901L6.48768 3.21901L6.82988 3.14554ZM6.82593 3.15151L6.72239 2.81717L6.72239 2.81717L6.82593 3.15151ZM6.7328 3.18035L6.83634 3.51469L6.83634 3.51469L6.7328 3.18035ZM6.63966 3.2092L6.53612 2.87486L6.53612 2.87486L6.63966 3.2092ZM6.63866 3.21663L6.93096 3.02413L6.93096 3.02413L6.63866 3.21663ZM6.71271 3.32907L6.4204 3.52157H6.4204L6.71271 3.32907ZM6.78675 3.4415L7.07906 3.249L7.07906 3.249L6.78675 3.4415ZM6.78481 3.44847L6.72301 3.10397L6.72301 3.10397L6.78481 3.44847ZM6.67381 3.46838L6.73561 3.81288H6.73561L6.67381 3.46838ZM6.56281 3.48829L6.50101 3.14379L6.50101 3.14379L6.56281 3.48829ZM6.55646 3.49305L6.20968 3.44565L6.20968 3.44565L6.55646 3.49305ZM6.54681 3.56364L6.89359 3.61104V3.61104L6.54681 3.56364ZM6.53716 3.63423L6.19039 3.58683L6.19039 3.58683L6.53716 3.63423ZM6.53227 3.63972L6.40107 3.31524L6.40107 3.31524L6.53227 3.63972ZM6.44888 3.67343L6.58007 3.99791H6.58007L6.44888 3.67343ZM6.36549 3.70715L6.23429 3.38267L6.23429 3.38267L6.36549 3.70715ZM6.35851 3.7116L6.10664 3.46859L6.10663 3.46859L6.35851 3.7116ZM6.30943 3.76247L6.56131 4.00549H6.56131L6.30943 3.76247ZM6.26035 3.81334L6.00847 3.57033L6.00847 3.57033L6.26035 3.81334ZM6.26017 3.82019L6.56347 3.64552L6.56347 3.64552L6.26017 3.82019ZM6.30572 3.89929L6.00242 4.07396H6.00242L6.30572 3.89929ZM6.35128 3.9784L6.65458 3.80374L6.65458 3.80374L6.35128 3.9784ZM6.35455 3.983L6.51107 3.66995L6.51107 3.66995L6.35455 3.983ZM6.37111 3.99128L6.21459 4.30433L6.4725 4.43329L6.64843 4.20481L6.37111 3.99128ZM6.43327 3.91056L6.74632 4.06708L6.15596 3.69702L6.43327 3.91056ZM6.0755 3.84348C5.98905 4.01637 6.05913 4.2266 6.23203 4.31305C6.40492 4.3995 6.61515 4.32942 6.7016 4.15652L6.38855 4L6.0755 3.84348ZM7.38855 2L7.0755 1.84348L7.03078 1.93292L7.34383 2.08944L7.65688 2.24597L7.7016 2.15652L7.38855 2ZM7.34383 2.08944L7.11659 2.35564L7.24273 2.46332L7.46997 2.19712L7.69721 1.93092L7.57107 1.82324L7.34383 2.08944ZM7.46997 2.19712L7.24273 2.46332C7.23557 2.45721 7.20372 2.43028 7.17544 2.38502C7.15499 2.35229 7.06031 2.1801 7.18548 2.00079C7.23651 1.92768 7.30152 1.89307 7.33966 1.87751C7.37852 1.86167 7.41172 1.8564 7.42977 1.85427C7.46541 1.85009 7.49293 1.85269 7.50132 1.85352L7.4667 2.20181L7.43208 2.55009C7.44378 2.55125 7.47391 2.5539 7.51147 2.54949C7.53048 2.54726 7.56448 2.5418 7.60395 2.5257C7.64271 2.5099 7.70816 2.47496 7.75947 2.40146C7.88518 2.22137 7.79036 2.04813 7.76907 2.01406C7.73995 1.96747 7.70658 1.93892 7.69721 1.93092L7.46997 2.19712ZM7.4667 2.20181L7.50132 1.85352L7.31307 1.83481L7.27845 2.18309L7.24384 2.53138L7.43208 2.55009L7.4667 2.20181ZM7.27845 2.18309L7.31307 1.83481L7.12483 1.8161L7.09021 2.16438L7.05559 2.51267L7.24384 2.53138L7.27845 2.18309ZM7.09021 2.16438L7.12483 1.8161C7.11081 1.8147 7.0872 1.81308 7.0584 1.81536C7.0339 1.8173 6.9777 1.82391 6.91591 1.85758C6.8427 1.89746 6.76423 1.97582 6.73948 2.09542C6.71836 2.19751 6.74793 2.27774 6.76354 2.31237L7.08261 2.16852L7.40168 2.02467C7.41652 2.05759 7.44583 2.13638 7.42496 2.23726C7.40046 2.35566 7.32274 2.43308 7.2508 2.47227C7.19028 2.50524 7.13585 2.51142 7.11363 2.51318C7.08712 2.51528 7.06631 2.51373 7.05559 2.51267L7.09021 2.16438ZM7.08261 2.16852L6.76354 2.31238L6.80743 2.40973L7.12651 2.26588L7.44558 2.12203L7.40168 2.02467L7.08261 2.16852ZM7.12651 2.26588L6.80743 2.40973L6.85133 2.50709L7.1704 2.36324L7.48947 2.21938L7.44558 2.12203L7.12651 2.26588ZM7.1704 2.36324L6.85133 2.50709C6.84255 2.48761 6.83036 2.4551 6.82547 2.41242L7.17319 2.37257L7.52092 2.33272C7.51538 2.28443 7.50133 2.2457 7.48947 2.21938L7.1704 2.36324ZM7.17319 2.37257L6.82547 2.41242L6.83464 2.49242L7.18236 2.45257L7.53008 2.41272L7.52092 2.33272L7.17319 2.37257ZM7.18236 2.45257L6.83464 2.49242L6.8438 2.57241L7.19153 2.53256L7.53925 2.49271L7.53008 2.41272L7.18236 2.45257ZM7.19153 2.53256L6.8438 2.57241C6.83809 2.52255 6.84192 2.45772 6.87225 2.39049C6.90293 2.3225 6.95042 2.27487 6.99611 2.24446C7.07514 2.19184 7.15114 2.18824 7.16923 2.18744L7.18472 2.5371L7.20021 2.88675C7.22316 2.88574 7.30272 2.88127 7.38402 2.82714C7.43084 2.79597 7.47915 2.74743 7.51032 2.67836C7.54114 2.61005 7.54513 2.54398 7.53925 2.49271L7.19153 2.53256ZM7.18472 2.5371L7.16923 2.18744L7.03068 2.19358L7.04617 2.54323L7.06166 2.89289L7.20021 2.88675L7.18472 2.5371ZM7.04617 2.54323L7.03068 2.19358L6.89213 2.19971L6.90762 2.54937L6.92311 2.89903L7.06166 2.89289L7.04617 2.54323ZM6.90762 2.54937L6.89213 2.19971C6.87524 2.20046 6.75058 2.20347 6.64967 2.30905C6.5079 2.45739 6.55529 2.63297 6.58067 2.69234L6.90249 2.55474L7.22431 2.41715C7.23678 2.44631 7.25523 2.50062 7.25151 2.57097C7.24734 2.65007 7.21575 2.72989 7.15572 2.7927C7.10167 2.84925 7.04218 2.87377 7.00673 2.88459C6.97043 2.89566 6.94017 2.89827 6.92311 2.89903L6.90762 2.54937ZM6.90249 2.55474L6.58067 2.69234L6.62168 2.78826L6.9435 2.65066L7.26532 2.51306L7.22431 2.41715L6.90249 2.55474ZM6.9435 2.65066L6.62168 2.78826L6.66269 2.88417L6.98451 2.74658L7.30633 2.60898L7.26532 2.51306L6.9435 2.65066ZM6.98451 2.74658L6.66269 2.88417C6.64419 2.8409 6.60219 2.71258 6.68191 2.57509C6.7569 2.44574 6.87897 2.41595 6.91458 2.40908L6.98094 2.75273L7.0473 3.09638C7.08673 3.08877 7.2113 3.05759 7.28749 2.92619C7.36839 2.78664 7.32627 2.65562 7.30633 2.60898L6.98451 2.74658ZM6.98094 2.75273L6.91458 2.40908L6.80578 2.43009L6.87214 2.77374L6.9385 3.11739L7.0473 3.09638L6.98094 2.75273ZM6.87214 2.77374L6.80578 2.43009L6.69698 2.4511L6.76334 2.79475L6.8297 3.1384L6.9385 3.11739L6.87214 2.77374ZM6.76334 2.79475L6.69697 2.4511C6.66071 2.4581 6.57088 2.48095 6.49649 2.56549C6.40747 2.66666 6.39896 2.78675 6.4152 2.86849L6.75849 2.80026L7.10177 2.73203C7.11744 2.81084 7.10944 2.92854 7.02203 3.02788C6.94927 3.11058 6.86215 3.13214 6.8297 3.1384L6.76334 2.79475ZM6.75849 2.80026L6.4152 2.86849L6.43185 2.95223L6.77513 2.884L7.11842 2.81577L7.10177 2.73203L6.75849 2.80026ZM6.77513 2.884L6.43185 2.95223L6.44849 3.03596L6.79177 2.96773L7.13506 2.8995L7.11842 2.81577L6.77513 2.884ZM6.79177 2.96773L6.44849 3.03596C6.44942 3.04067 6.4504 3.04537 6.4514 3.05005L6.7936 2.97658L7.13581 2.90311C7.13554 2.90187 7.13529 2.90067 7.13506 2.8995L6.79177 2.96773ZM6.7936 2.97658L6.4514 3.05005L6.46954 3.13453L6.81174 3.06106L7.15394 2.98759L7.13581 2.90311L6.7936 2.97658ZM6.81174 3.06106L6.46954 3.13453L6.48768 3.21901L6.82988 3.14554L7.17208 3.07207L7.15394 2.98759L6.81174 3.06106ZM6.82988 3.14554L6.48768 3.21901C6.47389 3.15481 6.47302 3.05353 6.5375 2.9561C6.59729 2.86575 6.67965 2.83041 6.72239 2.81717L6.82593 3.15151L6.92947 3.48584C6.97549 3.47159 7.06014 3.43475 7.12124 3.34242C7.18704 3.24299 7.1865 3.13924 7.17208 3.07207L6.82988 3.14554ZM6.82593 3.15151L6.72239 2.81717L6.62926 2.84602L6.7328 3.18035L6.83634 3.51469L6.92948 3.48584L6.82593 3.15151ZM6.7328 3.18035L6.62926 2.84602L6.53612 2.87486L6.63966 3.2092L6.74321 3.54353L6.83634 3.51469L6.7328 3.18035ZM6.63966 3.2092L6.53612 2.87486C6.46057 2.89826 6.31527 2.97877 6.29011 3.16495C6.27216 3.29781 6.33475 3.39152 6.34635 3.40914L6.63866 3.21663L6.93096 3.02413C6.93997 3.0378 7.00142 3.1283 6.98381 3.25867C6.97335 3.33612 6.93709 3.40755 6.88131 3.4616C6.83056 3.51077 6.77678 3.53313 6.74321 3.54353L6.63966 3.2092ZM6.63866 3.21663L6.34635 3.40914L6.4204 3.52157L6.71271 3.32907L7.00501 3.13656L6.93096 3.02413L6.63866 3.21663ZM6.71271 3.32907L6.4204 3.52157L6.49445 3.63401L6.78675 3.4415L7.07906 3.249L7.00501 3.13656L6.71271 3.32907ZM6.78675 3.4415L6.49445 3.63401C6.48425 3.61851 6.46664 3.5891 6.4539 3.54814C6.44113 3.5071 6.42769 3.43596 6.45111 3.35208C6.50654 3.15356 6.68433 3.11091 6.72301 3.10397L6.78481 3.44847L6.8466 3.79297C6.88918 3.78533 7.06925 3.74117 7.12532 3.54033C7.16977 3.38113 7.08821 3.2629 7.07906 3.249L6.78675 3.4415ZM6.78481 3.44847L6.72301 3.10397L6.61201 3.12388L6.67381 3.46838L6.73561 3.81288L6.84661 3.79297L6.78481 3.44847ZM6.67381 3.46838L6.61201 3.12388L6.50101 3.14379L6.56281 3.48829L6.6246 3.83279L6.73561 3.81288L6.67381 3.46838ZM6.56281 3.48829L6.50101 3.14379C6.46973 3.1494 6.40931 3.16424 6.34828 3.21002C6.27725 3.2633 6.22332 3.34586 6.20968 3.44565L6.55646 3.49305L6.90323 3.54045C6.88993 3.63777 6.83723 3.7183 6.76832 3.76999C6.70941 3.81418 6.65199 3.82788 6.62461 3.83279L6.56281 3.48829ZM6.55646 3.49305L6.20968 3.44565L6.20003 3.51624L6.54681 3.56364L6.89359 3.61104L6.90323 3.54045L6.55646 3.49305ZM6.54681 3.56364L6.20003 3.51624L6.19039 3.58683L6.53716 3.63423L6.88394 3.68163L6.89359 3.61104L6.54681 3.56364ZM6.53716 3.63423L6.19039 3.58683C6.19945 3.5205 6.228 3.4566 6.27449 3.40448C6.31816 3.35552 6.36657 3.32919 6.40107 3.31524L6.53227 3.63972L6.66346 3.9642C6.74721 3.93033 6.86199 3.84222 6.88394 3.68163L6.53716 3.63423ZM6.53227 3.63972L6.40107 3.31524L6.31768 3.34895L6.44888 3.67343L6.58007 3.99791L6.66346 3.9642L6.53227 3.63972ZM6.44888 3.67343L6.31768 3.34895L6.23429 3.38267L6.36549 3.70715L6.49668 4.03163L6.58007 3.99791L6.44888 3.67343ZM6.36549 3.70715L6.23429 3.38267C6.19782 3.39742 6.15037 3.42326 6.10664 3.46859L6.35851 3.7116L6.61039 3.95462C6.57011 3.99638 6.5273 4.01925 6.49668 4.03163L6.36549 3.70715ZM6.35851 3.7116L6.10663 3.46859L6.05755 3.51946L6.30943 3.76247L6.56131 4.00549L6.61039 3.95462L6.35851 3.7116ZM6.30943 3.76247L6.05755 3.51946L6.00847 3.57033L6.26035 3.81334L6.51223 4.05636L6.56131 4.00549L6.30943 3.76247ZM6.26035 3.81334L6.00847 3.57033C5.9527 3.62814 5.91176 3.71047 5.90914 3.80691C5.90679 3.89357 5.93628 3.95911 5.95687 3.99485L6.26017 3.82019L6.56347 3.64552C6.58246 3.67849 6.61117 3.7415 6.60889 3.82588C6.60633 3.92004 6.56628 4.00034 6.51223 4.05636L6.26035 3.81334ZM6.26017 3.82019L5.95686 3.99485L6.00242 4.07396L6.30572 3.89929L6.60903 3.72463L6.56347 3.64552L6.26017 3.82019ZM6.30572 3.89929L6.00242 4.07396L6.04798 4.15306L6.35128 3.9784L6.65458 3.80374L6.60903 3.72463L6.30572 3.89929ZM6.35128 3.9784L6.04798 4.15306C6.05106 4.15842 6.0581 4.17045 6.06803 4.18442C6.07284 4.19119 6.08237 4.20416 6.09596 4.219C6.10379 4.22754 6.13907 4.26657 6.19803 4.29605L6.35455 3.983L6.51107 3.66995C6.54426 3.68654 6.56782 3.70498 6.58079 3.71599C6.5948 3.72788 6.60531 3.73872 6.61207 3.7461C6.62525 3.76048 6.6343 3.77284 6.63857 3.77885C6.6474 3.79128 6.65309 3.80115 6.65458 3.80374L6.35128 3.9784ZM6.35455 3.983L6.19802 4.29605L6.21459 4.30433L6.37111 3.99128L6.52764 3.67823L6.51107 3.66995L6.35455 3.983ZM6.37111 3.99128L6.64843 4.20481L6.71059 4.12409L6.43327 3.91056L6.15596 3.69702L6.0938 3.77775L6.37111 3.99128ZM6.43327 3.91056L6.12022 3.75403L6.0755 3.84348L6.38855 4L6.7016 4.15652L6.74632 4.06708L6.43327 3.91056Z" fill="#99A67C"/>
<path d="M0.636037 1.75251C0.499354 1.61583 0.277746 1.61583 0.141062 1.75251C0.00437894 1.8892 0.00437894 2.1108 0.141062 2.24749L0.38855 2L0.636037 1.75251ZM0.45926 2.07071L0.752261 2.26215L0.907732 2.02421L0.706748 1.82322L0.45926 2.07071ZM0.352891 2.23351L0.0598906 2.04206L0.0598906 2.04206L0.352891 2.23351ZM0.352078 2.24231L0.369322 1.89274L0.369321 1.89274L0.352078 2.24231ZM0.442982 2.2468L0.425738 2.59637H0.425738L0.442982 2.2468ZM0.533887 2.25128L0.551131 1.9017L0.551131 1.9017L0.533887 2.25128ZM0.544735 2.25047L0.485384 1.90554L0.485384 1.90554L0.544735 2.25047ZM0.659948 2.23065L0.719299 2.57558H0.719299L0.659948 2.23065ZM0.775161 2.21082L0.71581 1.86589L0.71581 1.86589L0.775161 2.21082ZM0.781572 2.21445L0.432535 2.2404L0.432535 2.2404L0.781572 2.21445ZM0.788173 2.30324L1.13721 2.27729V2.27729L0.788173 2.30324ZM0.794775 2.39203L0.445738 2.41798L0.445738 2.41798L0.794775 2.39203ZM0.79599 2.40085L0.453397 2.47248L0.453397 2.47248L0.79599 2.40085ZM0.812484 2.47975L1.15508 2.40813V2.40813L0.812484 2.47975ZM0.828977 2.55864L0.486384 2.63027L0.486384 2.63027L0.828977 2.55864ZM0.831493 2.56617L0.51699 2.71975L0.51699 2.71975L0.831493 2.56617ZM0.862791 2.63026L1.17729 2.47668V2.47668L0.862791 2.63026ZM0.894089 2.69435L0.579586 2.84793L0.579586 2.84793L0.894089 2.69435ZM0.902434 2.69605L0.817382 2.35654L0.817381 2.35654L0.902434 2.69605ZM1.02971 2.66416L1.11476 3.00367V3.00367L1.02971 2.66416ZM1.15698 2.63228L1.07193 2.29277L1.07193 2.29277L1.15698 2.63228ZM1.16224 2.63706L0.820605 2.561L0.820605 2.561L1.16224 2.63706ZM1.13492 2.75977L1.47656 2.83583V2.83583L1.13492 2.75977ZM1.1076 2.88247L0.765966 2.80641L0.765966 2.80641L1.1076 2.88247ZM1.10974 2.89037L1.2404 2.56567L1.2404 2.56567L1.10974 2.89037ZM1.17776 2.91774L1.04711 3.24244H1.04711L1.17776 2.91774ZM1.24578 2.94511L1.37643 2.62041L1.37643 2.62041L1.24578 2.94511ZM1.25182 2.94911L1.50409 2.7065V2.7065L1.25182 2.94911ZM1.29859 2.99774L1.04632 3.24035L1.29859 2.99774ZM1.34535 3.04636L1.59762 2.80375V2.80375L1.34535 3.04636ZM1.35489 3.04687L1.25721 2.71077L1.25721 2.71077L1.35489 3.04687ZM1.48936 3.00779L1.58703 3.34388V3.34388L1.48936 3.00779ZM1.62382 2.96871L1.52615 2.63261L1.52615 2.63261L1.62382 2.96871ZM1.63176 2.97082L1.28892 3.04127L1.28892 3.04127L1.63176 2.97082ZM1.64802 3.04994L1.99085 2.97949V2.97949L1.64802 3.04994ZM1.66428 3.12907L1.32144 3.19953L1.32144 3.19953L1.66428 3.12907ZM1.66448 3.13891L1.31678 3.09888L1.31678 3.09888L1.66448 3.13891ZM1.65207 3.24671L1.99978 3.28673V3.28673L1.65207 3.24671ZM1.63966 3.3545L1.29196 3.31448L1.29196 3.31448L1.63966 3.3545ZM1.64095 3.36326L1.34489 3.54993L1.34489 3.54993L1.64095 3.36326ZM1.67784 3.42176L1.9739 3.23509H1.9739L1.67784 3.42176ZM1.71472 3.48026L1.41866 3.66694L1.41866 3.66694L1.71472 3.48026ZM1.71965 3.48537L1.91658 3.19603L1.91658 3.19603L1.71965 3.48537ZM1.77641 3.524L1.57949 3.81335V3.81335L1.77641 3.524ZM1.83317 3.56263L2.0301 3.27329L2.0301 3.27329L1.83317 3.56263ZM1.84065 3.56519L1.88163 3.2176L1.88162 3.2176L1.84065 3.56519ZM1.92598 3.57525L1.885 3.92285H1.885L1.92598 3.57525ZM2.01131 3.58531L2.05229 3.23772L2.05228 3.23772L2.01131 3.58531ZM2.02084 3.58582L2.01961 3.23583H2.0196L2.02084 3.58582ZM2.11657 3.58549L2.1178 3.93549H2.1178L2.11657 3.58549ZM2.21229 3.58515L2.21106 3.23515H2.21106L2.21229 3.58515ZM2.21761 3.58987L1.86825 3.61088L1.86825 3.61088L2.21761 3.58987ZM2.22303 3.67984L2.57239 3.65883V3.65883L2.22303 3.67984ZM2.22844 3.76982L1.87907 3.79083L1.87907 3.79084L2.22844 3.76982ZM2.23166 3.77664L2.43358 3.49075L2.43358 3.49075L2.23166 3.77664ZM2.28757 3.81612L2.08565 4.102V4.102L2.28757 3.81612ZM2.34347 3.85561L2.54539 3.56972L2.54539 3.56972L2.34347 3.85561ZM2.34748 3.86123L2.01227 3.96191L2.01227 3.96191L2.34748 3.86123ZM2.36772 3.92861L2.70292 3.82792V3.82792L2.36772 3.92861ZM2.38795 3.99598L2.05275 4.09667L2.05275 4.09667L2.38795 3.99598ZM2.38901 3.99954L2.14199 3.75158L2.1415 3.75208L2.38901 3.99954ZM2.38878 3.99977L2.14212 4.24807L2.38963 4.49394L2.6363 4.24723L2.38878 3.99977ZM2.31784 3.92929L2.5645 3.68098L2.07035 4.17678L2.31784 3.92929ZM2.14106 4.24749C2.27775 4.38417 2.49935 4.38417 2.63604 4.24749C2.77272 4.1108 2.77272 3.8892 2.63604 3.75251L2.38855 4L2.14106 4.24749ZM0.38855 2L0.141062 2.24749L0.211773 2.3182L0.45926 2.07071L0.706748 1.82322L0.636037 1.75251L0.38855 2ZM0.45926 2.07071L0.16626 1.87927L0.0598906 2.04206L0.352891 2.23351L0.645892 2.42495L0.752261 2.26215L0.45926 2.07071ZM0.352891 2.23351L0.0598906 2.04206C0.0576915 2.04543 0.010241 2.11187 0.0013749 2.20777C-0.00422978 2.2684 0.00286663 2.38344 0.0957987 2.4819C0.183186 2.5745 0.288278 2.58959 0.334834 2.59189L0.352078 2.24231L0.369321 1.89274C0.414282 1.89495 0.518212 1.90962 0.60487 2.00144C0.697072 2.09913 0.703872 2.21305 0.698403 2.27221C0.693234 2.32812 0.675599 2.36867 0.66835 2.38432C0.659419 2.40361 0.650626 2.41771 0.645892 2.42495L0.352891 2.23351ZM0.352078 2.24231L0.334834 2.59189L0.425738 2.59637L0.442982 2.2468L0.460226 1.89722L0.369322 1.89274L0.352078 2.24231ZM0.442982 2.2468L0.425738 2.59637L0.516643 2.60085L0.533887 2.25128L0.551131 1.9017L0.460226 1.89722L0.442982 2.2468ZM0.533887 2.25128L0.516642 2.60085C0.551495 2.60257 0.581508 2.59929 0.604086 2.5954L0.544735 2.25047L0.485384 1.90554C0.499876 1.90305 0.522657 1.9003 0.551131 1.9017L0.533887 2.25128ZM0.544735 2.25047L0.604086 2.5954L0.719299 2.57558L0.659948 2.23065L0.600597 1.88572L0.485384 1.90554L0.544735 2.25047ZM0.659948 2.23065L0.719299 2.57558L0.834512 2.55575L0.775161 2.21082L0.71581 1.86589L0.600597 1.88572L0.659948 2.23065ZM0.775161 2.21082L0.834512 2.55575C0.805957 2.56067 0.710238 2.57403 0.607364 2.51579C0.479101 2.44317 0.438429 2.31967 0.432535 2.2404L0.781572 2.21445L1.13061 2.1885C1.12448 2.10612 1.08263 1.98046 0.952227 1.90663C0.847216 1.84718 0.748407 1.86028 0.71581 1.86589L0.775161 2.21082ZM0.781572 2.21445L0.432535 2.2404L0.439137 2.32919L0.788173 2.30324L1.13721 2.27729L1.13061 2.1885L0.781572 2.21445ZM0.788173 2.30324L0.439137 2.32919L0.445738 2.41798L0.794775 2.39203L1.14381 2.36608L1.13721 2.27729L0.788173 2.30324ZM0.794775 2.39203L0.445738 2.41798C0.446994 2.43487 0.449362 2.45318 0.453397 2.47248L0.79599 2.40085L1.13858 2.32923C1.14146 2.34299 1.14302 2.35541 1.14381 2.36608L0.794775 2.39203ZM0.79599 2.40085L0.453397 2.47248L0.46989 2.55137L0.812484 2.47975L1.15508 2.40813L1.13858 2.32923L0.79599 2.40085ZM0.812484 2.47975L0.46989 2.55137L0.486384 2.63027L0.828977 2.55864L1.17157 2.48702L1.15508 2.40813L0.812484 2.47975ZM0.828977 2.55864L0.486384 2.63027C0.49214 2.6578 0.501646 2.68833 0.51699 2.71975L0.831493 2.56617L1.146 2.41259C1.15914 2.43951 1.16697 2.46502 1.17157 2.48702L0.828977 2.55864ZM0.831493 2.56617L0.51699 2.71975L0.548288 2.78384L0.862791 2.63026L1.17729 2.47668L1.146 2.41259L0.831493 2.56617ZM0.862791 2.63026L0.548288 2.78384L0.579586 2.84793L0.894089 2.69435L1.20859 2.54077L1.17729 2.47668L0.862791 2.63026ZM0.894089 2.69435L0.579586 2.84793C0.634731 2.96086 0.735637 3.02083 0.827334 3.03946C0.902102 3.05464 0.962458 3.04182 0.987487 3.03555L0.902434 2.69605L0.817381 2.35654C0.837945 2.35139 0.894677 2.33884 0.966664 2.35346C1.05558 2.37152 1.15454 2.43009 1.20859 2.54077L0.894089 2.69435ZM0.902434 2.69605L0.987487 3.03555L1.11476 3.00367L1.02971 2.66416L0.944654 2.32465L0.817382 2.35654L0.902434 2.69605ZM1.02971 2.66416L1.11476 3.00367L1.24203 2.97179L1.15698 2.63228L1.07193 2.29277L0.944654 2.32465L1.02971 2.66416ZM1.15698 2.63228L1.24203 2.97179C1.22234 2.97672 1.18319 2.98475 1.13318 2.98093C1.08092 2.97694 0.999397 2.95812 0.926269 2.89167C0.775615 2.75477 0.816992 2.57723 0.820605 2.561L1.16224 2.63706L1.50388 2.71312C1.50845 2.69258 1.54943 2.51209 1.39702 2.3736C1.25381 2.24347 1.08709 2.28897 1.07193 2.29277L1.15698 2.63228ZM1.16224 2.63706L0.820605 2.561L0.793286 2.68371L1.13492 2.75977L1.47656 2.83583L1.50388 2.71312L1.16224 2.63706ZM1.13492 2.75977L0.793286 2.68371L0.765966 2.80641L1.1076 2.88247L1.44924 2.95854L1.47656 2.83583L1.13492 2.75977ZM1.1076 2.88247L0.765966 2.80641C0.759939 2.83348 0.747968 2.89945 0.769619 2.97929C0.796666 3.07902 0.869187 3.17085 0.979092 3.21507L1.10974 2.89037L1.2404 2.56567C1.28714 2.58448 1.33415 2.61537 1.37325 2.66068C1.41186 2.70542 1.43374 2.75373 1.44522 2.79607C1.46615 2.87328 1.45431 2.93577 1.44924 2.95854L1.1076 2.88247ZM1.10974 2.89037L0.979091 3.21507L1.04711 3.24244L1.17776 2.91774L1.30841 2.59304L1.2404 2.56567L1.10974 2.89037ZM1.17776 2.91774L1.04711 3.24244L1.11513 3.26981L1.24578 2.94511L1.37643 2.62041L1.30841 2.59304L1.17776 2.91774ZM1.24578 2.94511L1.11513 3.26981C1.07566 3.25393 1.03508 3.22867 0.999552 3.19172L1.25182 2.94911L1.50409 2.7065C1.46528 2.66614 1.42067 2.63821 1.37643 2.62041L1.24578 2.94511ZM1.25182 2.94911L0.999552 3.19172L1.04632 3.24035L1.29859 2.99774L1.55086 2.75513L1.50409 2.7065L1.25182 2.94911ZM1.29859 2.99774L1.04632 3.24035L1.09308 3.28897L1.34535 3.04636L1.59762 2.80375L1.55086 2.75513L1.29859 2.99774ZM1.34535 3.04636L1.09308 3.28897C1.17416 3.37328 1.27148 3.39417 1.33055 3.39728C1.38658 3.40023 1.43071 3.38931 1.45256 3.38296L1.35489 3.04687L1.25721 2.71077C1.27434 2.70579 1.31453 2.69547 1.36738 2.69825C1.42328 2.7012 1.51818 2.72115 1.59762 2.80375L1.34535 3.04636ZM1.35489 3.04687L1.45256 3.38296L1.58703 3.34388L1.48936 3.00779L1.39168 2.67169L1.25721 2.71077L1.35489 3.04687ZM1.48936 3.00779L1.58703 3.34388L1.7215 3.3048L1.62382 2.96871L1.52615 2.63261L1.39168 2.67169L1.48936 3.00779ZM1.62382 2.96871L1.7215 3.3048C1.70462 3.30971 1.63139 3.33089 1.53947 3.30647C1.48615 3.2923 1.42518 3.26217 1.37389 3.20666C1.32318 3.15178 1.29908 3.09069 1.28892 3.04127L1.63176 2.97082L1.97459 2.90036C1.96415 2.84956 1.93951 2.78733 1.88799 2.73158C1.8359 2.67521 1.77386 2.64446 1.71922 2.62994C1.62466 2.60482 1.54774 2.62634 1.52615 2.63261L1.62382 2.96871ZM1.63176 2.97082L1.28892 3.04127L1.30518 3.1204L1.64802 3.04994L1.99085 2.97949L1.97459 2.90036L1.63176 2.97082ZM1.64802 3.04994L1.30518 3.1204L1.32144 3.19953L1.66428 3.12907L2.00711 3.05861L1.99085 2.97949L1.64802 3.04994ZM1.66428 3.12907L1.32144 3.19953C1.31248 3.15591 1.31433 3.12014 1.31678 3.09888L1.66448 3.13891L2.01219 3.17894C2.0155 3.15011 2.01722 3.10778 2.00711 3.05861L1.66428 3.12907ZM1.66448 3.13891L1.31678 3.09888L1.30437 3.20668L1.65207 3.24671L1.99978 3.28673L2.01219 3.17894L1.66448 3.13891ZM1.65207 3.24671L1.30437 3.20668L1.29196 3.31448L1.63966 3.3545L1.98737 3.39453L1.99978 3.28673L1.65207 3.24671ZM1.63966 3.3545L1.29196 3.31448C1.28729 3.35506 1.2828 3.45146 1.34489 3.54993L1.64095 3.36326L1.93701 3.17658C1.99651 3.27095 1.99117 3.36152 1.98737 3.39453L1.63966 3.3545ZM1.64095 3.36326L1.34489 3.54993L1.38178 3.60843L1.67784 3.42176L1.9739 3.23509L1.93701 3.17658L1.64095 3.36326ZM1.67784 3.42176L1.38178 3.60843L1.41866 3.66694L1.71472 3.48026L2.01079 3.29359L1.9739 3.23509L1.67784 3.42176ZM1.71472 3.48026L1.41866 3.66694C1.44541 3.70935 1.48069 3.74611 1.52273 3.77472L1.71965 3.48537L1.91658 3.19603C1.95463 3.22193 1.98663 3.25528 2.01079 3.29359L1.71472 3.48026ZM1.71965 3.48537L1.52273 3.77472L1.57949 3.81335L1.77641 3.524L1.97334 3.23466L1.91658 3.19603L1.71965 3.48537ZM1.77641 3.524L1.57949 3.81335L1.63625 3.85198L1.83317 3.56263L2.0301 3.27329L1.97334 3.23466L1.77641 3.524ZM1.83317 3.56263L1.63625 3.85198C1.69503 3.89199 1.75454 3.90747 1.79968 3.91279L1.84065 3.56519L1.88162 3.2176C1.92077 3.22222 1.9753 3.23599 2.0301 3.27329L1.83317 3.56263ZM1.84065 3.56519L1.79967 3.91279L1.885 3.92285L1.92598 3.57525L1.96696 3.22766L1.88163 3.2176L1.84065 3.56519ZM1.92598 3.57525L1.885 3.92285L1.97033 3.93291L2.01131 3.58531L2.05228 3.23772L1.96696 3.22766L1.92598 3.57525ZM2.01131 3.58531L1.97033 3.93291C1.98881 3.93508 2.00618 3.93588 2.02207 3.93582L2.02084 3.58582L2.0196 3.23583C2.02878 3.23579 2.0398 3.23625 2.05229 3.23772L2.01131 3.58531ZM2.02084 3.58582L2.02207 3.93582L2.1178 3.93549L2.11657 3.58549L2.11533 3.23549L2.01961 3.23583L2.02084 3.58582ZM2.11657 3.58549L2.1178 3.93549L2.21352 3.93515L2.21229 3.58515L2.21106 3.23515L2.11533 3.23549L2.11657 3.58549ZM2.21229 3.58515L2.21352 3.93515C2.16483 3.93532 2.06985 3.92435 1.98399 3.84825C1.89463 3.76904 1.8718 3.67 1.86825 3.61088L2.21761 3.58987L2.56698 3.56886C2.56324 3.50657 2.53943 3.40517 2.44829 3.32439C2.36065 3.24672 2.26312 3.23497 2.21106 3.23515L2.21229 3.58515ZM2.21761 3.58987L1.86825 3.61088L1.87366 3.70086L2.22303 3.67984L2.57239 3.65883L2.56698 3.56886L2.21761 3.58987ZM2.22303 3.67984L1.87366 3.70086L1.87907 3.79083L2.22844 3.76982L2.57781 3.74881L2.57239 3.65883L2.22303 3.67984ZM2.22844 3.76982L1.87907 3.79084C1.88346 3.86387 1.91512 3.98156 2.02974 4.06252L2.23166 3.77664L2.43358 3.49075C2.54429 3.56894 2.57379 3.68209 2.57781 3.74881L2.22844 3.76982ZM2.23166 3.77664L2.02974 4.06252L2.08565 4.102L2.28757 3.81612L2.48949 3.53024L2.43358 3.49075L2.23166 3.77664ZM2.28757 3.81612L2.08565 4.102L2.14155 4.14149L2.34347 3.85561L2.54539 3.56972L2.48949 3.53024L2.28757 3.81612ZM2.34347 3.85561L2.14155 4.14149C2.07775 4.09642 2.03338 4.03218 2.01227 3.96191L2.34748 3.86123L2.68269 3.76055C2.66016 3.68555 2.61312 3.61756 2.54539 3.56972L2.34347 3.85561ZM2.34748 3.86123L2.01227 3.96191L2.03251 4.02929L2.36772 3.92861L2.70292 3.82792L2.68268 3.76055L2.34748 3.86123ZM2.36772 3.92861L2.03251 4.02929L2.05275 4.09667L2.38795 3.99598L2.72316 3.8953L2.70292 3.82792L2.36772 3.92861ZM2.38795 3.99598L2.05275 4.09667C2.05307 4.09775 2.05318 4.0981 2.05315 4.09801C2.05313 4.09795 2.05308 4.09778 2.05301 4.09752C2.05294 4.0973 2.05278 4.09676 2.05258 4.09604C2.05248 4.09572 2.05189 4.09366 2.05117 4.091C2.05095 4.09019 2.04984 4.08609 2.04858 4.08082C2.04817 4.0791 2.0463 4.07133 2.0445 4.06128C2.04384 4.05761 2.04136 4.04382 2.04001 4.02596C2.03943 4.01829 2.03796 3.997 2.04027 3.96987C2.04141 3.95642 2.0443 3.93097 2.0534 3.90022C2.06102 3.87446 2.08268 3.81067 2.14199 3.75158L2.38901 3.99954L2.63602 4.2475C2.69534 4.18841 2.717 4.12463 2.72462 4.09886C2.73372 4.06811 2.7366 4.04266 2.73775 4.02921C2.74006 4.00209 2.73859 3.9808 2.73801 3.97312C2.73666 3.95526 2.73418 3.94147 2.73352 3.9378C2.73172 3.92774 2.72985 3.91996 2.72943 3.91824C2.72817 3.91294 2.72705 3.90882 2.72682 3.90797C2.72608 3.90523 2.72545 3.90306 2.72531 3.90259C2.72488 3.90107 2.7245 3.89978 2.72435 3.89929C2.72397 3.89801 2.72354 3.89658 2.72316 3.8953L2.38795 3.99598ZM2.38901 3.99954L2.1415 3.75208L2.14127 3.7523L2.38878 3.99977L2.6363 4.24723L2.63652 4.247L2.38901 3.99954ZM2.38878 3.99977L2.63545 3.75146L2.5645 3.68098L2.31784 3.92929L2.07117 4.1776L2.14212 4.24807L2.38878 3.99977ZM2.31784 3.92929L2.07035 4.17678L2.14106 4.24749L2.38855 4L2.63604 3.75251L2.56533 3.6818L2.31784 3.92929Z" fill="#99A67C"/>
</svg>
