<svg width="9" height="6" viewBox="0 0 9 6" fill="none" xmlns="http://www.w3.org/2000/svg">
<path d="M4.48867 2C4.48867 1.8067 4.33197 1.65 4.13867 1.65C3.94537 1.65 3.78867 1.8067 3.78867 2H4.13867H4.48867ZM4.13867 2.1H3.78867V2.22763L3.87083 2.3253L4.13867 2.1ZM4.17224 2.1399L4.44007 1.9146L4.44007 1.9146L4.17224 2.1399ZM4.16951 2.14555L3.95237 1.87105L3.95237 1.87105L4.16951 2.14555ZM4.08425 2.213L4.30139 2.4875H4.30139L4.08425 2.213ZM3.99899 2.28045L3.78184 2.00595L3.78184 2.00595L3.99899 2.28045ZM3.99718 2.28755L4.27646 2.07659L4.27646 2.07659L3.99718 2.28755ZM4.04813 2.355L3.76885 2.56596L3.76885 2.56596L4.04813 2.355ZM4.09908 2.42245L4.37836 2.21149L4.37836 2.21149L4.09908 2.42245ZM4.09859 2.42955L3.83749 2.19647L3.83749 2.19647L4.09859 2.42955ZM4.03838 2.497L4.29948 2.73008L4.29948 2.73008L4.03838 2.497ZM3.97817 2.56445L3.71707 2.33137L3.71707 2.33137L3.97817 2.56445ZM3.97827 2.57155L4.23589 2.33463L4.23589 2.33463L3.97827 2.57155ZM4.0403 2.639L3.78267 2.87592L3.78267 2.87592L4.0403 2.639ZM4.10233 2.70645L4.35995 2.46953L4.35995 2.46953L4.10233 2.70645ZM4.10456 2.71355L3.76834 2.61633L3.76834 2.61633L4.10456 2.71355ZM4.08506 2.781L4.42129 2.87822V2.87822L4.08506 2.781ZM4.06556 2.84845L3.72933 2.75123L3.72933 2.75123L4.06556 2.84845ZM4.06495 2.85555L4.41256 2.81471L4.41256 2.81471L4.06495 2.85555ZM4.07287 2.923L3.72526 2.96384V2.96384L4.07287 2.923ZM4.0808 2.99045L4.42841 2.94961V2.94961L4.0808 2.99045ZM4.08014 2.99755L3.74509 2.89634L3.74509 2.89634L4.08014 2.99755ZM4.05977 3.065L4.39481 3.16621V3.16621L4.05977 3.065ZM4.03939 3.13245L3.70434 3.03124L3.70434 3.03124L4.03939 3.13245ZM4.04169 3.13955L4.29533 2.89837L4.29533 2.89837L4.04169 3.13955ZM4.10583 3.207L3.85219 3.44818H3.85219L4.10583 3.207ZM4.16997 3.27445L4.42361 3.03327L4.42361 3.03327L4.16997 3.27445ZM4.17009 3.28155L3.91198 3.04517L3.91198 3.04517L4.17009 3.28155ZM4.10832 3.349L4.36644 3.58538L4.36644 3.58538L4.10832 3.349ZM4.04655 3.41645L3.78844 3.18007L3.78844 3.18007L4.04655 3.41645ZM4.04439 3.42355L4.37905 3.32107L4.37905 3.32107L4.04439 3.42355ZM4.06504 3.491L3.73038 3.59348V3.59348L4.06504 3.491ZM4.0857 3.55845L4.42036 3.45597L4.42036 3.45597L4.0857 3.55845ZM4.08355 3.56555L3.825 3.32964L3.825 3.32964L4.08355 3.56555ZM4.022 3.633L4.28055 3.86891L4.28055 3.86891L4.022 3.633ZM3.96046 3.70045L3.70191 3.46454L3.70191 3.46454L3.96046 3.70045ZM3.96287 3.70755L4.1491 3.41121L4.1491 3.41121L3.96287 3.70755ZM4.0702 3.775L3.88397 4.07134H3.88397L4.0702 3.775ZM4.17753 3.84245L4.36376 3.54611L4.36376 3.54611L4.17753 3.84245ZM4.18367 3.84955L4.53039 3.80177L4.53039 3.80177L4.18367 3.84955ZM4.19296 3.917L3.84624 3.96478V3.96478L4.19296 3.917ZM4.20226 3.98445L4.54898 3.93667L4.54898 3.93667L4.20226 3.98445ZM4.20114 3.9883L4.13672 3.64428L4.13671 3.64428L4.20114 3.9883ZM4.17071 3.994L3.83942 4.10691L3.9372 4.39382L4.23514 4.33802L4.17071 3.994ZM4.13867 3.9L4.46996 3.78709L3.78867 3.9H4.13867ZM3.78867 4C3.78867 4.1933 3.94537 4.35 4.13867 4.35C4.33197 4.35 4.48867 4.1933 4.48867 4H4.13867H3.78867ZM4.13867 2H3.78867V2.1H4.13867H4.48867V2H4.13867ZM4.13867 2.1L3.87083 2.3253L3.9044 2.3652L4.17224 2.1399L4.44007 1.9146L4.40651 1.8747L4.13867 2.1ZM4.17224 2.1399L3.9044 2.3652C3.86338 2.31644 3.83049 2.24965 3.82391 2.16979C3.81762 2.09348 3.83745 2.0313 3.8571 1.99049C3.89157 1.91892 3.94114 1.87994 3.95237 1.87105L4.16951 2.14555L4.38666 2.42005C4.40088 2.4088 4.4524 2.36769 4.48777 2.29423C4.50788 2.25248 4.5279 2.18943 4.52154 2.11229C4.51489 2.03161 4.48168 1.96406 4.44007 1.9146L4.17224 2.1399ZM4.16951 2.14555L3.95237 1.87105L3.8671 1.9385L4.08425 2.213L4.30139 2.4875L4.38666 2.42005L4.16951 2.14555ZM4.08425 2.213L3.8671 1.9385L3.78184 2.00595L3.99899 2.28045L4.21613 2.55495L4.30139 2.4875L4.08425 2.213ZM3.99899 2.28045L3.78184 2.00595C3.75184 2.02968 3.68433 2.09064 3.65709 2.19772C3.62493 2.32415 3.66814 2.43264 3.7179 2.49851L3.99718 2.28755L4.27646 2.07659C4.32443 2.1401 4.36705 2.24622 4.33549 2.37028C4.30885 2.475 4.24314 2.53358 4.21613 2.55495L3.99899 2.28045ZM3.99718 2.28755L3.7179 2.49851L3.76885 2.56596L4.04813 2.355L4.32741 2.14404L4.27646 2.07659L3.99718 2.28755ZM4.04813 2.355L3.76885 2.56596L3.8198 2.63341L4.09908 2.42245L4.37836 2.21149L4.32741 2.14404L4.04813 2.355ZM4.09908 2.42245L3.8198 2.63341C3.78301 2.5847 3.74408 2.50452 3.75112 2.40203C3.75791 2.30311 3.80418 2.23379 3.83749 2.19647L4.09859 2.42955L4.35969 2.66263C4.39512 2.62294 4.44252 2.55126 4.44948 2.44997C4.45667 2.34511 4.41694 2.26257 4.37836 2.21149L4.09908 2.42245ZM4.09859 2.42955L3.83749 2.19647L3.77728 2.26392L4.03838 2.497L4.29948 2.73008L4.35969 2.66263L4.09859 2.42955ZM4.03838 2.497L3.77728 2.26392L3.71707 2.33137L3.97817 2.56445L4.23927 2.79753L4.29948 2.73008L4.03838 2.497ZM3.97817 2.56445L3.71707 2.33137C3.67789 2.37527 3.62509 2.45771 3.62664 2.57272C3.62818 2.6868 3.68235 2.76683 3.72064 2.80847L3.97827 2.57155L4.23589 2.33463C4.27201 2.37391 4.32507 2.45157 4.32658 2.56328C4.3281 2.67593 4.27634 2.756 4.23927 2.79753L3.97817 2.56445ZM3.97827 2.57155L3.72064 2.80847L3.78267 2.87592L4.0403 2.639L4.29792 2.40208L4.23589 2.33463L3.97827 2.57155ZM4.0403 2.639L3.78267 2.87592L3.8447 2.94337L4.10233 2.70645L4.35995 2.46953L4.29792 2.40208L4.0403 2.639ZM4.10233 2.70645L3.8447 2.94337C3.82092 2.91751 3.78963 2.87523 3.77071 2.81523C3.75051 2.75115 3.74938 2.68191 3.76834 2.61633L4.10456 2.71355L4.44079 2.81077C4.48576 2.65526 4.41619 2.53069 4.35995 2.46953L4.10233 2.70645ZM4.10456 2.71355L3.76834 2.61633L3.74883 2.68378L4.08506 2.781L4.42129 2.87822L4.44079 2.81077L4.10456 2.71355ZM4.08506 2.781L3.74883 2.68378L3.72933 2.75123L4.06556 2.84845L4.40178 2.94567L4.42129 2.87822L4.08506 2.781ZM4.06556 2.84845L3.72933 2.75123C3.71614 2.79685 3.71143 2.84613 3.71734 2.89639L4.06495 2.85555L4.41256 2.81471C4.41791 2.86024 4.41361 2.90479 4.40178 2.94567L4.06556 2.84845ZM4.06495 2.85555L3.71734 2.89639L3.72526 2.96384L4.07287 2.923L4.42048 2.88216L4.41256 2.81471L4.06495 2.85555ZM4.07287 2.923L3.72526 2.96384L3.73319 3.03129L4.0808 2.99045L4.42841 2.94961L4.42048 2.88216L4.07287 2.923ZM4.0808 2.99045L3.73319 3.03129C3.72765 2.98415 3.73245 2.9382 3.74509 2.89634L4.08014 2.99755L4.41519 3.09876C4.42926 3.05217 4.4345 3.00149 4.42841 2.94961L4.0808 2.99045ZM4.08014 2.99755L3.74509 2.89634L3.72472 2.96379L4.05977 3.065L4.39481 3.16621L4.41519 3.09876L4.08014 2.99755ZM4.05977 3.065L3.72472 2.96379L3.70434 3.03124L4.03939 3.13245L4.37444 3.23366L4.39481 3.16621L4.05977 3.065ZM4.03939 3.13245L3.70434 3.03124C3.65559 3.19265 3.73097 3.3207 3.78806 3.38073L4.04169 3.13955L4.29533 2.89837C4.31945 2.92374 4.35237 2.9664 4.37235 3.028C4.39384 3.09424 4.39486 3.16605 4.37444 3.23366L4.03939 3.13245ZM4.04169 3.13955L3.78806 3.38073L3.85219 3.44818L4.10583 3.207L4.35947 2.96582L4.29533 2.89837L4.04169 3.13955ZM4.10583 3.207L3.85219 3.44818L3.91633 3.51563L4.16997 3.27445L4.42361 3.03327L4.35947 2.96582L4.10583 3.207ZM4.16997 3.27445L3.91633 3.51563C3.88016 3.47759 3.82376 3.39918 3.82174 3.28414C3.8197 3.16778 3.87447 3.08613 3.91198 3.04517L4.17009 3.28155L4.42821 3.51793C4.46789 3.47461 4.52372 3.39059 4.52163 3.27186C4.51957 3.15446 4.46203 3.07367 4.42361 3.03327L4.16997 3.27445ZM4.17009 3.28155L3.91198 3.04517L3.85021 3.11262L4.10832 3.349L4.36644 3.58538L4.42821 3.51793L4.17009 3.28155ZM4.10832 3.349L3.85021 3.11262L3.78844 3.18007L4.04655 3.41645L4.30467 3.65283L4.36644 3.58538L4.10832 3.349ZM4.04655 3.41645L3.78844 3.18007C3.73099 3.2428 3.66186 3.36973 3.70973 3.52603L4.04439 3.42355L4.37905 3.32107C4.39908 3.38649 4.39915 3.45653 4.37918 3.52204C4.3605 3.58334 4.32876 3.62652 4.30467 3.65283L4.04655 3.41645ZM4.04439 3.42355L3.70973 3.52603L3.73038 3.59348L4.06504 3.491L4.3997 3.38852L4.37905 3.32107L4.04439 3.42355ZM4.06504 3.491L3.73038 3.59348L3.75104 3.66093L4.0857 3.55845L4.42036 3.45597L4.3997 3.38852L4.06504 3.491ZM4.0857 3.55845L3.75104 3.66093C3.73107 3.59571 3.73093 3.52588 3.75075 3.46047C3.76931 3.39924 3.80092 3.35604 3.825 3.32964L4.08355 3.56555L4.34209 3.80146C4.39953 3.73851 4.46806 3.61175 4.42036 3.45597L4.0857 3.55845ZM4.08355 3.56555L3.825 3.32964L3.76346 3.39709L4.022 3.633L4.28055 3.86891L4.34209 3.80146L4.08355 3.56555ZM4.022 3.633L3.76346 3.39709L3.70191 3.46454L3.96046 3.70045L4.219 3.93636L4.28055 3.86891L4.022 3.633ZM3.96046 3.70045L3.70191 3.46454C3.64311 3.52899 3.57474 3.65953 3.62801 3.81649C3.66783 3.9338 3.75405 3.9897 3.77664 4.00389L3.96287 3.70755L4.1491 3.41121C4.16792 3.42304 4.25186 3.47657 4.29087 3.59151C4.31321 3.65732 4.31563 3.7296 4.29586 3.79863C4.27737 3.86314 4.24428 3.90866 4.21901 3.93636L3.96046 3.70045ZM3.96287 3.70755L3.77664 4.00389L3.88397 4.07134L4.0702 3.775L4.25643 3.47866L4.1491 3.41121L3.96287 3.70755ZM4.0702 3.775L3.88397 4.07134L3.9913 4.13879L4.17753 3.84245L4.36376 3.54611L4.25643 3.47866L4.0702 3.775ZM4.17753 3.84245L3.99129 4.13879C3.97511 4.12862 3.94612 4.10845 3.91712 4.0749C3.88736 4.04049 3.84848 3.98102 3.83694 3.89733L4.18367 3.84955L4.53039 3.80177C4.50762 3.63658 4.38541 3.55972 4.36376 3.54611L4.17753 3.84245ZM4.18367 3.84955L3.83694 3.89733L3.84624 3.96478L4.19296 3.917L4.53968 3.86922L4.53039 3.80177L4.18367 3.84955ZM4.19296 3.917L3.84624 3.96478L3.85553 4.03223L4.20226 3.98445L4.54898 3.93667L4.53968 3.86922L4.19296 3.917ZM4.20226 3.98445L3.85553 4.03223C3.85346 4.01721 3.84576 3.96 3.86598 3.89002C3.87728 3.85093 3.90087 3.79551 3.95058 3.74426C4.00348 3.68972 4.06973 3.65683 4.13672 3.64428L4.20114 3.9883L4.26557 4.33232C4.42841 4.30182 4.5117 4.17697 4.53846 4.08436C4.55906 4.01309 4.55138 3.95406 4.54898 3.93667L4.20226 3.98445ZM4.20114 3.9883L4.13671 3.64428L4.10628 3.64998L4.17071 3.994L4.23514 4.33802L4.26557 4.33232L4.20114 3.9883ZM4.17071 3.994L4.502 3.88109L4.46996 3.78709L4.13867 3.9L3.80738 4.01291L3.83942 4.10691L4.17071 3.994ZM4.13867 3.9H3.78867V4H4.13867H4.48867V3.9H4.13867Z" fill="#99A67C"/>
<path d="M7.70172 2.15652C7.78817 1.98363 7.71809 1.7734 7.5452 1.68695C7.3723 1.6005 7.16207 1.67058 7.07562 1.84348L7.38867 2L7.70172 2.15652ZM7.34395 2.08944L7.0309 1.93292L6.90844 2.17785L7.11671 2.35564L7.34395 2.08944ZM7.47009 2.19712L7.24285 2.46332L7.24285 2.46332L7.47009 2.19712ZM7.46682 2.20181L7.50144 1.85352V1.85352L7.46682 2.20181ZM7.27858 2.18309L7.24396 2.53138L7.27858 2.18309ZM7.09033 2.16438L7.12495 1.8161V1.8161L7.09033 2.16438ZM7.08273 2.16852L6.76366 2.31237L6.76366 2.31238L7.08273 2.16852ZM7.12663 2.26588L7.4457 2.12203V2.12203L7.12663 2.26588ZM7.17052 2.36324L6.85145 2.50709L6.85145 2.50709L7.17052 2.36324ZM7.17331 2.37257L6.82559 2.41242L6.82559 2.41242L7.17331 2.37257ZM7.18248 2.45257L7.53021 2.41272L7.53021 2.41272L7.18248 2.45257ZM7.19165 2.53256L6.84393 2.57241L6.84393 2.57241L7.19165 2.53256ZM7.18484 2.5371L7.16935 2.18744L7.16935 2.18744L7.18484 2.5371ZM7.04629 2.54323L7.06178 2.89289H7.06178L7.04629 2.54323ZM6.90775 2.54937L6.89226 2.19971L6.89226 2.19971L6.90775 2.54937ZM6.90261 2.55474L6.58079 2.69234L6.58079 2.69234L6.90261 2.55474ZM6.94362 2.65066L7.26544 2.51306V2.51306L6.94362 2.65066ZM6.98463 2.74658L6.66281 2.88417L6.66281 2.88417L6.98463 2.74658ZM6.98106 2.75273L6.9147 2.40908L6.9147 2.40908L6.98106 2.75273ZM6.87226 2.77374L6.93863 3.11739H6.93863L6.87226 2.77374ZM6.76346 2.79475L6.6971 2.4511L6.6971 2.4511L6.76346 2.79475ZM6.75861 2.80026L6.41533 2.86849L6.41533 2.86849L6.75861 2.80026ZM6.77525 2.884L7.11854 2.81577V2.81577L6.77525 2.884ZM6.7919 2.96773L6.44861 3.03596L6.44861 3.03596L6.7919 2.96773ZM6.79373 2.97658L6.45152 3.05005L6.45152 3.05005L6.79373 2.97658ZM6.81186 3.06106L7.15407 2.98759V2.98759L6.81186 3.06106ZM6.83 3.14554L6.4878 3.21901L6.4878 3.21901L6.83 3.14554ZM6.82606 3.15151L6.72251 2.81717L6.72251 2.81717L6.82606 3.15151ZM6.73292 3.18035L6.83646 3.51469L6.83646 3.51469L6.73292 3.18035ZM6.63979 3.2092L6.53624 2.87486L6.53624 2.87486L6.63979 3.2092ZM6.63878 3.21663L6.93108 3.02413L6.93108 3.02413L6.63878 3.21663ZM6.71283 3.32907L6.42053 3.52157H6.42053L6.71283 3.32907ZM6.78688 3.4415L7.07918 3.249L7.07918 3.249L6.78688 3.4415ZM6.78493 3.44847L6.72314 3.10397L6.72314 3.10397L6.78493 3.44847ZM6.67393 3.46838L6.73573 3.81288H6.73573L6.67393 3.46838ZM6.56293 3.48829L6.50113 3.14379L6.50113 3.14379L6.56293 3.48829ZM6.55658 3.49305L6.20981 3.44565L6.20981 3.44565L6.55658 3.49305ZM6.54693 3.56364L6.89371 3.61104V3.61104L6.54693 3.56364ZM6.53728 3.63423L6.19051 3.58683L6.19051 3.58683L6.53728 3.63423ZM6.53239 3.63972L6.40119 3.31524L6.40119 3.31524L6.53239 3.63972ZM6.449 3.67343L6.58019 3.99791H6.58019L6.449 3.67343ZM6.36561 3.70715L6.23441 3.38267L6.23441 3.38267L6.36561 3.70715ZM6.35864 3.7116L6.10676 3.46859L6.10676 3.46859L6.35864 3.7116ZM6.30956 3.76247L6.56144 4.00549H6.56144L6.30956 3.76247ZM6.26047 3.81334L6.0086 3.57033L6.00859 3.57033L6.26047 3.81334ZM6.26029 3.82019L6.56359 3.64552L6.56359 3.64552L6.26029 3.82019ZM6.30585 3.89929L6.00254 4.07396H6.00254L6.30585 3.89929ZM6.3514 3.9784L6.6547 3.80374L6.6547 3.80374L6.3514 3.9784ZM6.35467 3.983L6.5112 3.66995L6.51119 3.66995L6.35467 3.983ZM6.37124 3.99128L6.21471 4.30433L6.47263 4.43329L6.64855 4.20481L6.37124 3.99128ZM6.43339 3.91056L6.74644 4.06708L6.15608 3.69702L6.43339 3.91056ZM6.07562 3.84348C5.98918 4.01637 6.05925 4.2266 6.23215 4.31305C6.40504 4.3995 6.61528 4.32942 6.70172 4.15652L6.38867 4L6.07562 3.84348ZM7.38867 2L7.07562 1.84348L7.0309 1.93292L7.34395 2.08944L7.657 2.24597L7.70172 2.15652L7.38867 2ZM7.34395 2.08944L7.11671 2.35564L7.24285 2.46332L7.47009 2.19712L7.69733 1.93092L7.57119 1.82324L7.34395 2.08944ZM7.47009 2.19712L7.24285 2.46332C7.2357 2.45721 7.20385 2.43028 7.17557 2.38502C7.15511 2.35229 7.06043 2.1801 7.1856 2.00079C7.23664 1.92768 7.30164 1.89307 7.33978 1.87751C7.37864 1.86167 7.41184 1.8564 7.42989 1.85427C7.46553 1.85009 7.49305 1.85269 7.50144 1.85352L7.46682 2.20181L7.4322 2.55009C7.4439 2.55125 7.47403 2.5539 7.51159 2.54949C7.5306 2.54726 7.5646 2.5418 7.60407 2.5257C7.64283 2.5099 7.70828 2.47496 7.75959 2.40146C7.8853 2.22137 7.79048 2.04813 7.76919 2.01406C7.74007 1.96747 7.7067 1.93892 7.69733 1.93092L7.47009 2.19712ZM7.46682 2.20181L7.50144 1.85352L7.3132 1.83481L7.27858 2.18309L7.24396 2.53138L7.4322 2.55009L7.46682 2.20181ZM7.27858 2.18309L7.3132 1.83481L7.12495 1.8161L7.09033 2.16438L7.05571 2.51267L7.24396 2.53138L7.27858 2.18309ZM7.09033 2.16438L7.12495 1.8161C7.11093 1.8147 7.08732 1.81308 7.05853 1.81536C7.03402 1.8173 6.97782 1.82391 6.91603 1.85758C6.84282 1.89746 6.76435 1.97582 6.7396 2.09542C6.71848 2.19751 6.74805 2.27774 6.76366 2.31237L7.08273 2.16852L7.4018 2.02467C7.41665 2.05759 7.44596 2.13638 7.42508 2.23726C7.40058 2.35566 7.32286 2.43308 7.25093 2.47227C7.1904 2.50524 7.13597 2.51142 7.11376 2.51318C7.08724 2.51528 7.06643 2.51373 7.05571 2.51267L7.09033 2.16438ZM7.08273 2.16852L6.76366 2.31238L6.80756 2.40973L7.12663 2.26588L7.4457 2.12203L7.4018 2.02467L7.08273 2.16852ZM7.12663 2.26588L6.80756 2.40973L6.85145 2.50709L7.17052 2.36324L7.48959 2.21938L7.4457 2.12203L7.12663 2.26588ZM7.17052 2.36324L6.85145 2.50709C6.84267 2.48761 6.83048 2.4551 6.82559 2.41242L7.17331 2.37257L7.52104 2.33272C7.5155 2.28443 7.50146 2.2457 7.48959 2.21938L7.17052 2.36324ZM7.17331 2.37257L6.82559 2.41242L6.83476 2.49242L7.18248 2.45257L7.53021 2.41272L7.52104 2.33272L7.17331 2.37257ZM7.18248 2.45257L6.83476 2.49242L6.84393 2.57241L7.19165 2.53256L7.53937 2.49271L7.53021 2.41272L7.18248 2.45257ZM7.19165 2.53256L6.84393 2.57241C6.83821 2.52255 6.84204 2.45772 6.87237 2.39049C6.90305 2.3225 6.95055 2.27487 6.99623 2.24446C7.07526 2.19184 7.15126 2.18824 7.16935 2.18744L7.18484 2.5371L7.20033 2.88675C7.22328 2.88574 7.30284 2.88127 7.38415 2.82714C7.43097 2.79597 7.47928 2.74743 7.51044 2.67836C7.54126 2.61005 7.54525 2.54398 7.53937 2.49271L7.19165 2.53256ZM7.18484 2.5371L7.16935 2.18744L7.0308 2.19358L7.04629 2.54323L7.06178 2.89289L7.20033 2.88675L7.18484 2.5371ZM7.04629 2.54323L7.0308 2.19358L6.89226 2.19971L6.90775 2.54937L6.92324 2.89903L7.06178 2.89289L7.04629 2.54323ZM6.90775 2.54937L6.89226 2.19971C6.87536 2.20046 6.7507 2.20347 6.64979 2.30905C6.50802 2.45739 6.55541 2.63297 6.58079 2.69234L6.90261 2.55474L7.22443 2.41715C7.2369 2.44631 7.25535 2.50062 7.25164 2.57097C7.24746 2.65007 7.21587 2.72989 7.15584 2.7927C7.10179 2.84925 7.0423 2.87377 7.00685 2.88459C6.97056 2.89566 6.94029 2.89827 6.92324 2.89903L6.90775 2.54937ZM6.90261 2.55474L6.58079 2.69234L6.6218 2.78826L6.94362 2.65066L7.26544 2.51306L7.22443 2.41715L6.90261 2.55474ZM6.94362 2.65066L6.6218 2.78826L6.66281 2.88417L6.98463 2.74658L7.30645 2.60898L7.26544 2.51306L6.94362 2.65066ZM6.98463 2.74658L6.66281 2.88417C6.64431 2.8409 6.60231 2.71258 6.68203 2.57509C6.75702 2.44574 6.87909 2.41595 6.9147 2.40908L6.98106 2.75273L7.04743 3.09638C7.08685 3.08877 7.21143 3.05759 7.28761 2.92619C7.36852 2.78664 7.32639 2.65562 7.30645 2.60898L6.98463 2.74658ZM6.98106 2.75273L6.9147 2.40908L6.8059 2.43009L6.87226 2.77374L6.93863 3.11739L7.04743 3.09638L6.98106 2.75273ZM6.87226 2.77374L6.8059 2.43009L6.6971 2.4511L6.76346 2.79475L6.82983 3.1384L6.93863 3.11739L6.87226 2.77374ZM6.76346 2.79475L6.6971 2.4511C6.66083 2.4581 6.571 2.48095 6.49662 2.56549C6.40759 2.66666 6.39908 2.78675 6.41533 2.86849L6.75861 2.80026L7.1019 2.73203C7.11756 2.81084 7.10956 2.92854 7.02216 3.02788C6.94939 3.11058 6.86228 3.13214 6.82983 3.1384L6.76346 2.79475ZM6.75861 2.80026L6.41533 2.86849L6.43197 2.95223L6.77525 2.884L7.11854 2.81577L7.1019 2.73203L6.75861 2.80026ZM6.77525 2.884L6.43197 2.95223L6.44861 3.03596L6.7919 2.96773L7.13518 2.8995L7.11854 2.81577L6.77525 2.884ZM6.7919 2.96773L6.44861 3.03596C6.44955 3.04067 6.45052 3.04537 6.45152 3.05005L6.79373 2.97658L7.13593 2.90311C7.13566 2.90187 7.13541 2.90067 7.13518 2.8995L6.7919 2.96773ZM6.79373 2.97658L6.45152 3.05005L6.46966 3.13453L6.81186 3.06106L7.15407 2.98759L7.13593 2.90311L6.79373 2.97658ZM6.81186 3.06106L6.46966 3.13453L6.4878 3.21901L6.83 3.14554L7.1722 3.07207L7.15407 2.98759L6.81186 3.06106ZM6.83 3.14554L6.4878 3.21901C6.47402 3.15481 6.47314 3.05353 6.53762 2.9561C6.59741 2.86575 6.67977 2.83041 6.72251 2.81717L6.82606 3.15151L6.9296 3.48584C6.97561 3.47159 7.06026 3.43475 7.12137 3.34242C7.18716 3.24299 7.18662 3.13924 7.1722 3.07207L6.83 3.14554ZM6.82606 3.15151L6.72251 2.81717L6.62938 2.84602L6.73292 3.18035L6.83646 3.51469L6.9296 3.48584L6.82606 3.15151ZM6.73292 3.18035L6.62938 2.84602L6.53624 2.87486L6.63979 3.2092L6.74333 3.54353L6.83646 3.51469L6.73292 3.18035ZM6.63979 3.2092L6.53624 2.87486C6.46069 2.89826 6.31539 2.97877 6.29023 3.16495C6.27229 3.29781 6.33487 3.39152 6.34648 3.40914L6.63878 3.21663L6.93108 3.02413C6.94009 3.0378 7.00155 3.1283 6.98393 3.25867C6.97347 3.33612 6.93721 3.40755 6.88143 3.4616C6.83068 3.51077 6.7769 3.53313 6.74333 3.54353L6.63979 3.2092ZM6.63878 3.21663L6.34648 3.40914L6.42053 3.52157L6.71283 3.32907L7.00513 3.13656L6.93108 3.02413L6.63878 3.21663ZM6.71283 3.32907L6.42053 3.52157L6.49457 3.63401L6.78688 3.4415L7.07918 3.249L7.00513 3.13656L6.71283 3.32907ZM6.78688 3.4415L6.49457 3.63401C6.48437 3.61851 6.46676 3.5891 6.45402 3.54814C6.44125 3.5071 6.42781 3.43596 6.45123 3.35208C6.50666 3.15356 6.68445 3.11091 6.72314 3.10397L6.78493 3.44847L6.84673 3.79297C6.88931 3.78533 7.06937 3.74117 7.12545 3.54033C7.16989 3.38113 7.08833 3.2629 7.07918 3.249L6.78688 3.4415ZM6.78493 3.44847L6.72314 3.10397L6.61214 3.12388L6.67393 3.46838L6.73573 3.81288L6.84673 3.79297L6.78493 3.44847ZM6.67393 3.46838L6.61214 3.12388L6.50113 3.14379L6.56293 3.48829L6.62473 3.83279L6.73573 3.81288L6.67393 3.46838ZM6.56293 3.48829L6.50113 3.14379C6.46985 3.1494 6.40943 3.16424 6.34841 3.21002C6.27738 3.2633 6.22345 3.34586 6.20981 3.44565L6.55658 3.49305L6.90336 3.54045C6.89005 3.63777 6.83735 3.7183 6.76844 3.76999C6.70953 3.81418 6.65212 3.82788 6.62473 3.83279L6.56293 3.48829ZM6.55658 3.49305L6.20981 3.44565L6.20016 3.51624L6.54693 3.56364L6.89371 3.61104L6.90336 3.54045L6.55658 3.49305ZM6.54693 3.56364L6.20016 3.51624L6.19051 3.58683L6.53728 3.63423L6.88406 3.68163L6.89371 3.61104L6.54693 3.56364ZM6.53728 3.63423L6.19051 3.58683C6.19957 3.5205 6.22813 3.4566 6.27462 3.40448C6.31829 3.35552 6.36669 3.32919 6.40119 3.31524L6.53239 3.63972L6.66358 3.9642C6.74734 3.93033 6.86211 3.84222 6.88406 3.68163L6.53728 3.63423ZM6.53239 3.63972L6.40119 3.31524L6.3178 3.34895L6.449 3.67343L6.58019 3.99791L6.66358 3.9642L6.53239 3.63972ZM6.449 3.67343L6.3178 3.34895L6.23441 3.38267L6.36561 3.70715L6.4968 4.03163L6.58019 3.99791L6.449 3.67343ZM6.36561 3.70715L6.23441 3.38267C6.19794 3.39742 6.15049 3.42326 6.10676 3.46859L6.35864 3.7116L6.61052 3.95462C6.57023 3.99638 6.52742 4.01925 6.49681 4.03163L6.36561 3.70715ZM6.35864 3.7116L6.10676 3.46859L6.05768 3.51946L6.30956 3.76247L6.56144 4.00549L6.61052 3.95462L6.35864 3.7116ZM6.30956 3.76247L6.05768 3.51946L6.0086 3.57033L6.26047 3.81334L6.51235 4.05636L6.56144 4.00549L6.30956 3.76247ZM6.26047 3.81334L6.00859 3.57033C5.95282 3.62814 5.91188 3.71047 5.90927 3.80691C5.90692 3.89357 5.9364 3.95911 5.95699 3.99485L6.26029 3.82019L6.56359 3.64552C6.58258 3.67849 6.6113 3.7415 6.60901 3.82588C6.60645 3.92004 6.5664 4.00034 6.51236 4.05636L6.26047 3.81334ZM6.26029 3.82019L5.95699 3.99485L6.00254 4.07396L6.30585 3.89929L6.60915 3.72463L6.56359 3.64552L6.26029 3.82019ZM6.30585 3.89929L6.00254 4.07396L6.0481 4.15306L6.3514 3.9784L6.6547 3.80374L6.60915 3.72463L6.30585 3.89929ZM6.3514 3.9784L6.0481 4.15306C6.05118 4.15842 6.05822 4.17045 6.06815 4.18442C6.07296 4.19119 6.08249 4.20416 6.09609 4.219C6.10392 4.22754 6.13919 4.26657 6.19815 4.29605L6.35467 3.983L6.51119 3.66995C6.54438 3.68654 6.56794 3.70498 6.58091 3.71599C6.59492 3.72788 6.60543 3.73872 6.61219 3.7461C6.62537 3.76048 6.63442 3.77284 6.63869 3.77885C6.64752 3.79128 6.65322 3.80115 6.6547 3.80374L6.3514 3.9784ZM6.35467 3.983L6.19815 4.29605L6.21471 4.30433L6.37124 3.99128L6.52776 3.67823L6.5112 3.66995L6.35467 3.983ZM6.37124 3.99128L6.64855 4.20481L6.71071 4.12409L6.43339 3.91056L6.15608 3.69702L6.09392 3.77775L6.37124 3.99128ZM6.43339 3.91056L6.12034 3.75403L6.07562 3.84348L6.38867 4L6.70172 4.15652L6.74644 4.06708L6.43339 3.91056Z" fill="#99A67C"/>
<path d="M0.636159 1.75251C0.499476 1.61583 0.277868 1.61583 0.141185 1.75251C0.00450101 1.8892 0.00450101 2.1108 0.141185 2.24749L0.388672 2L0.636159 1.75251ZM0.459383 2.07071L0.752383 2.26215L0.907854 2.02421L0.70687 1.82322L0.459383 2.07071ZM0.353014 2.23351L0.0600127 2.04206L0.0600127 2.04206L0.353014 2.23351ZM0.3522 2.24231L0.369444 1.89274L0.369443 1.89274L0.3522 2.24231ZM0.443104 2.2468L0.42586 2.59637H0.42586L0.443104 2.2468ZM0.534009 2.25128L0.551253 1.9017L0.551253 1.9017L0.534009 2.25128ZM0.544857 2.25047L0.485506 1.90554L0.485506 1.90554L0.544857 2.25047ZM0.66007 2.23065L0.719421 2.57558H0.719421L0.66007 2.23065ZM0.775283 2.21082L0.715932 1.86589L0.715932 1.86589L0.775283 2.21082ZM0.781694 2.21445L0.432658 2.2404L0.432658 2.2404L0.781694 2.21445ZM0.788295 2.30324L1.13733 2.27729V2.27729L0.788295 2.30324ZM0.794897 2.39203L0.44586 2.41798L0.44586 2.41798L0.794897 2.39203ZM0.796112 2.40085L0.453519 2.47248L0.453519 2.47248L0.796112 2.40085ZM0.812606 2.47975L1.1552 2.40813V2.40813L0.812606 2.47975ZM0.8291 2.55864L0.486506 2.63027L0.486506 2.63027L0.8291 2.55864ZM0.831615 2.56617L0.517112 2.71975L0.517112 2.71975L0.831615 2.56617ZM0.862913 2.63026L1.17742 2.47668V2.47668L0.862913 2.63026ZM0.894211 2.69435L0.579708 2.84793L0.579708 2.84793L0.894211 2.69435ZM0.902556 2.69605L0.817504 2.35654L0.817503 2.35654L0.902556 2.69605ZM1.02983 2.66416L1.11488 3.00367V3.00367L1.02983 2.66416ZM1.1571 2.63228L1.07205 2.29277L1.07205 2.29277L1.1571 2.63228ZM1.16236 2.63706L0.820727 2.561L0.820727 2.561L1.16236 2.63706ZM1.13504 2.75977L1.47668 2.83583V2.83583L1.13504 2.75977ZM1.10772 2.88247L0.766088 2.80641L0.766088 2.80641L1.10772 2.88247ZM1.10987 2.89037L1.24052 2.56567L1.24052 2.56567L1.10987 2.89037ZM1.17788 2.91774L1.04723 3.24244H1.04723L1.17788 2.91774ZM1.2459 2.94511L1.37656 2.62041L1.37656 2.62041L1.2459 2.94511ZM1.25195 2.94911L1.50422 2.7065V2.7065L1.25195 2.94911ZM1.29871 2.99774L1.04644 3.24035L1.29871 2.99774ZM1.34547 3.04636L1.59774 2.80375V2.80375L1.34547 3.04636ZM1.35501 3.04687L1.25733 2.71077L1.25733 2.71077L1.35501 3.04687ZM1.48948 3.00779L1.58715 3.34388V3.34388L1.48948 3.00779ZM1.62395 2.96871L1.52627 2.63261L1.52627 2.63261L1.62395 2.96871ZM1.63188 2.97082L1.28904 3.04127L1.28904 3.04127L1.63188 2.97082ZM1.64814 3.04994L1.99098 2.97949V2.97949L1.64814 3.04994ZM1.6644 3.12907L1.32157 3.19953L1.32157 3.19953L1.6644 3.12907ZM1.6646 3.13891L1.3169 3.09888L1.3169 3.09888L1.6646 3.13891ZM1.65219 3.24671L1.9999 3.28673V3.28673L1.65219 3.24671ZM1.63978 3.3545L1.29208 3.31448L1.29208 3.31448L1.63978 3.3545ZM1.64107 3.36326L1.34501 3.54993L1.34501 3.54993L1.64107 3.36326ZM1.67796 3.42176L1.97402 3.23509H1.97402L1.67796 3.42176ZM1.71485 3.48026L1.41878 3.66694L1.41879 3.66694L1.71485 3.48026ZM1.71978 3.48537L1.9167 3.19603L1.9167 3.19603L1.71978 3.48537ZM1.77653 3.524L1.57961 3.81335V3.81335L1.77653 3.524ZM1.83329 3.56263L2.03022 3.27329L2.03022 3.27329L1.83329 3.56263ZM1.84077 3.56519L1.88175 3.2176L1.88175 3.2176L1.84077 3.56519ZM1.9261 3.57525L1.88513 3.92285H1.88513L1.9261 3.57525ZM2.01143 3.58531L2.05241 3.23772L2.05241 3.23772L2.01143 3.58531ZM2.02096 3.58582L2.01973 3.23583H2.01973L2.02096 3.58582ZM2.11669 3.58549L2.11792 3.93549H2.11792L2.11669 3.58549ZM2.21241 3.58515L2.21118 3.23515H2.21118L2.21241 3.58515ZM2.21774 3.58987L1.86837 3.61088L1.86837 3.61088L2.21774 3.58987ZM2.22315 3.67984L2.57252 3.65883V3.65883L2.22315 3.67984ZM2.22856 3.76982L1.87919 3.79083L1.87919 3.79084L2.22856 3.76982ZM2.23179 3.77664L2.43371 3.49075L2.43371 3.49075L2.23179 3.77664ZM2.28769 3.81612L2.08577 4.102V4.102L2.28769 3.81612ZM2.34359 3.85561L2.54551 3.56972L2.54551 3.56972L2.34359 3.85561ZM2.3476 3.86123L2.0124 3.96191L2.0124 3.96191L2.3476 3.86123ZM2.36784 3.92861L2.70304 3.82792V3.82792L2.36784 3.92861ZM2.38808 3.99598L2.05287 4.09667L2.05287 4.09667L2.38808 3.99598ZM2.38913 3.99954L2.14211 3.75158L2.14162 3.75208L2.38913 3.99954ZM2.38891 3.99977L2.14224 4.24807L2.38975 4.49394L2.63642 4.24723L2.38891 3.99977ZM2.31796 3.92929L2.56463 3.68098L2.07047 4.17678L2.31796 3.92929ZM2.14118 4.24749C2.27787 4.38417 2.49948 4.38417 2.63616 4.24749C2.77284 4.1108 2.77284 3.8892 2.63616 3.75251L2.38867 4L2.14118 4.24749ZM0.388672 2L0.141185 2.24749L0.211895 2.3182L0.459383 2.07071L0.70687 1.82322L0.636159 1.75251L0.388672 2ZM0.459383 2.07071L0.166382 1.87927L0.0600127 2.04206L0.353014 2.23351L0.646014 2.42495L0.752383 2.26215L0.459383 2.07071ZM0.353014 2.23351L0.0600127 2.04206C0.0578136 2.04543 0.0103631 2.11187 0.00149697 2.20777C-0.00410771 2.2684 0.0029887 2.38344 0.0959208 2.4819C0.183308 2.5745 0.2884 2.58959 0.334956 2.59189L0.3522 2.24231L0.369443 1.89274C0.414404 1.89495 0.518334 1.90962 0.604992 2.00144C0.697194 2.09913 0.703994 2.21305 0.698525 2.27221C0.693356 2.32812 0.675722 2.36867 0.668472 2.38432C0.659541 2.40361 0.650748 2.41771 0.646014 2.42495L0.353014 2.23351ZM0.3522 2.24231L0.334956 2.59189L0.42586 2.59637L0.443104 2.2468L0.460348 1.89722L0.369444 1.89274L0.3522 2.24231ZM0.443104 2.2468L0.42586 2.59637L0.516765 2.60085L0.534009 2.25128L0.551253 1.9017L0.460348 1.89722L0.443104 2.2468ZM0.534009 2.25128L0.516765 2.60085C0.551617 2.60257 0.581631 2.59929 0.604208 2.5954L0.544857 2.25047L0.485506 1.90554C0.499998 1.90305 0.522779 1.9003 0.551253 1.9017L0.534009 2.25128ZM0.544857 2.25047L0.604208 2.5954L0.719421 2.57558L0.66007 2.23065L0.600719 1.88572L0.485506 1.90554L0.544857 2.25047ZM0.66007 2.23065L0.719421 2.57558L0.834634 2.55575L0.775283 2.21082L0.715932 1.86589L0.600719 1.88572L0.66007 2.23065ZM0.775283 2.21082L0.834634 2.55575C0.806079 2.56067 0.71036 2.57403 0.607486 2.51579C0.479223 2.44317 0.438551 2.31967 0.432658 2.2404L0.781694 2.21445L1.13073 2.1885C1.12461 2.10612 1.08275 1.98046 0.952349 1.90663C0.847338 1.84718 0.748529 1.86028 0.715932 1.86589L0.775283 2.21082ZM0.781694 2.21445L0.432658 2.2404L0.439259 2.32919L0.788295 2.30324L1.13733 2.27729L1.13073 2.1885L0.781694 2.21445ZM0.788295 2.30324L0.439259 2.32919L0.44586 2.41798L0.794897 2.39203L1.14393 2.36608L1.13733 2.27729L0.788295 2.30324ZM0.794897 2.39203L0.44586 2.41798C0.447116 2.43487 0.449484 2.45318 0.453519 2.47248L0.796112 2.40085L1.13871 2.32923C1.14158 2.34299 1.14314 2.35541 1.14393 2.36608L0.794897 2.39203ZM0.796112 2.40085L0.453519 2.47248L0.470012 2.55137L0.812606 2.47975L1.1552 2.40813L1.13871 2.32923L0.796112 2.40085ZM0.812606 2.47975L0.470012 2.55137L0.486506 2.63027L0.8291 2.55864L1.17169 2.48702L1.1552 2.40813L0.812606 2.47975ZM0.8291 2.55864L0.486506 2.63027C0.492262 2.6578 0.501768 2.68833 0.517112 2.71975L0.831615 2.56617L1.14612 2.41259C1.15927 2.43951 1.16709 2.46502 1.17169 2.48702L0.8291 2.55864ZM0.831615 2.56617L0.517112 2.71975L0.54841 2.78384L0.862913 2.63026L1.17742 2.47668L1.14612 2.41259L0.831615 2.56617ZM0.862913 2.63026L0.54841 2.78384L0.579708 2.84793L0.894211 2.69435L1.20871 2.54077L1.17742 2.47668L0.862913 2.63026ZM0.894211 2.69435L0.579708 2.84793C0.634853 2.96086 0.735759 3.02083 0.827456 3.03946C0.902224 3.05464 0.96258 3.04182 0.98761 3.03555L0.902556 2.69605L0.817503 2.35654C0.838067 2.35139 0.894799 2.33884 0.966786 2.35346C1.0557 2.37152 1.15467 2.43009 1.20871 2.54077L0.894211 2.69435ZM0.902556 2.69605L0.987609 3.03555L1.11488 3.00367L1.02983 2.66416L0.944777 2.32465L0.817504 2.35654L0.902556 2.69605ZM1.02983 2.66416L1.11488 3.00367L1.24215 2.97179L1.1571 2.63228L1.07205 2.29277L0.944777 2.32465L1.02983 2.66416ZM1.1571 2.63228L1.24215 2.97179C1.22247 2.97672 1.18331 2.98475 1.13331 2.98093C1.08104 2.97694 0.999519 2.95812 0.926391 2.89167C0.775737 2.75477 0.817114 2.57723 0.820727 2.561L1.16236 2.63706L1.504 2.71312C1.50857 2.69258 1.54955 2.51209 1.39714 2.3736C1.25393 2.24347 1.08721 2.28897 1.07205 2.29277L1.1571 2.63228ZM1.16236 2.63706L0.820727 2.561L0.793408 2.68371L1.13504 2.75977L1.47668 2.83583L1.504 2.71312L1.16236 2.63706ZM1.13504 2.75977L0.793408 2.68371L0.766088 2.80641L1.10772 2.88247L1.44936 2.95854L1.47668 2.83583L1.13504 2.75977ZM1.10772 2.88247L0.766088 2.80641C0.760061 2.83348 0.74809 2.89945 0.769741 2.97929C0.796788 3.07902 0.869309 3.17085 0.979214 3.21507L1.10987 2.89037L1.24052 2.56567C1.28727 2.58448 1.33427 2.61537 1.37337 2.66068C1.41198 2.70542 1.43386 2.75373 1.44534 2.79607C1.46628 2.87328 1.45443 2.93577 1.44936 2.95854L1.10772 2.88247ZM1.10987 2.89037L0.979213 3.21507L1.04723 3.24244L1.17788 2.91774L1.30854 2.59304L1.24052 2.56567L1.10987 2.89037ZM1.17788 2.91774L1.04723 3.24244L1.11525 3.26981L1.2459 2.94511L1.37656 2.62041L1.30854 2.59304L1.17788 2.91774ZM1.2459 2.94511L1.11525 3.26981C1.07578 3.25393 1.03521 3.22867 0.999674 3.19172L1.25195 2.94911L1.50422 2.7065C1.4654 2.66614 1.4208 2.63821 1.37656 2.62041L1.2459 2.94511ZM1.25195 2.94911L0.999674 3.19172L1.04644 3.24035L1.29871 2.99774L1.55098 2.75513L1.50422 2.7065L1.25195 2.94911ZM1.29871 2.99774L1.04644 3.24035L1.0932 3.28897L1.34547 3.04636L1.59774 2.80375L1.55098 2.75513L1.29871 2.99774ZM1.34547 3.04636L1.0932 3.28897C1.17428 3.37328 1.2716 3.39417 1.33068 3.39728C1.3867 3.40023 1.43084 3.38931 1.45269 3.38296L1.35501 3.04687L1.25733 2.71077C1.27447 2.70579 1.31465 2.69547 1.3675 2.69825C1.4234 2.7012 1.5183 2.72115 1.59774 2.80375L1.34547 3.04636ZM1.35501 3.04687L1.45269 3.38296L1.58715 3.34388L1.48948 3.00779L1.3918 2.67169L1.25733 2.71077L1.35501 3.04687ZM1.48948 3.00779L1.58715 3.34388L1.72162 3.3048L1.62395 2.96871L1.52627 2.63261L1.3918 2.67169L1.48948 3.00779ZM1.62395 2.96871L1.72162 3.3048C1.70475 3.30971 1.63151 3.33089 1.53959 3.30647C1.48628 3.2923 1.4253 3.26217 1.37401 3.20666C1.3233 3.15178 1.2992 3.09069 1.28904 3.04127L1.63188 2.97082L1.97471 2.90036C1.96427 2.84956 1.93963 2.78733 1.88811 2.73158C1.83602 2.67521 1.77398 2.64446 1.71934 2.62994C1.62478 2.60482 1.54786 2.62634 1.52627 2.63261L1.62395 2.96871ZM1.63188 2.97082L1.28904 3.04127L1.30531 3.1204L1.64814 3.04994L1.99098 2.97949L1.97471 2.90036L1.63188 2.97082ZM1.64814 3.04994L1.30531 3.1204L1.32157 3.19953L1.6644 3.12907L2.00724 3.05861L1.99098 2.97949L1.64814 3.04994ZM1.6644 3.12907L1.32157 3.19953C1.3126 3.15591 1.31445 3.12014 1.3169 3.09888L1.6646 3.13891L2.01231 3.17894C2.01563 3.15011 2.01734 3.10778 2.00724 3.05861L1.6644 3.12907ZM1.6646 3.13891L1.3169 3.09888L1.30449 3.20668L1.65219 3.24671L1.9999 3.28673L2.01231 3.17894L1.6646 3.13891ZM1.65219 3.24671L1.30449 3.20668L1.29208 3.31448L1.63978 3.3545L1.98749 3.39453L1.9999 3.28673L1.65219 3.24671ZM1.63978 3.3545L1.29208 3.31448C1.28741 3.35506 1.28292 3.45146 1.34501 3.54993L1.64107 3.36326L1.93714 3.17658C1.99664 3.27095 1.99129 3.36152 1.98749 3.39453L1.63978 3.3545ZM1.64107 3.36326L1.34501 3.54993L1.3819 3.60843L1.67796 3.42176L1.97402 3.23509L1.93713 3.17658L1.64107 3.36326ZM1.67796 3.42176L1.3819 3.60843L1.41878 3.66694L1.71485 3.48026L2.01091 3.29359L1.97402 3.23509L1.67796 3.42176ZM1.71485 3.48026L1.41879 3.66694C1.44553 3.70935 1.48081 3.74611 1.52285 3.77472L1.71978 3.48537L1.9167 3.19603C1.95475 3.22193 1.98675 3.25528 2.01091 3.29359L1.71485 3.48026ZM1.71978 3.48537L1.52285 3.77472L1.57961 3.81335L1.77653 3.524L1.97346 3.23466L1.9167 3.19603L1.71978 3.48537ZM1.77653 3.524L1.57961 3.81335L1.63637 3.85198L1.83329 3.56263L2.03022 3.27329L1.97346 3.23466L1.77653 3.524ZM1.83329 3.56263L1.63637 3.85198C1.69515 3.89199 1.75466 3.90747 1.7998 3.91279L1.84077 3.56519L1.88175 3.2176C1.92089 3.22222 1.97542 3.23599 2.03022 3.27329L1.83329 3.56263ZM1.84077 3.56519L1.7998 3.91279L1.88513 3.92285L1.9261 3.57525L1.96708 3.22766L1.88175 3.2176L1.84077 3.56519ZM1.9261 3.57525L1.88513 3.92285L1.97046 3.93291L2.01143 3.58531L2.05241 3.23772L1.96708 3.22766L1.9261 3.57525ZM2.01143 3.58531L1.97046 3.93291C1.98893 3.93508 2.0063 3.93588 2.0222 3.93582L2.02096 3.58582L2.01973 3.23583C2.02891 3.23579 2.03992 3.23625 2.05241 3.23772L2.01143 3.58531ZM2.02096 3.58582L2.02219 3.93582L2.11792 3.93549L2.11669 3.58549L2.11545 3.23549L2.01973 3.23583L2.02096 3.58582ZM2.11669 3.58549L2.11792 3.93549L2.21365 3.93515L2.21241 3.58515L2.21118 3.23515L2.11545 3.23549L2.11669 3.58549ZM2.21241 3.58515L2.21364 3.93515C2.16495 3.93532 2.06998 3.92435 1.98411 3.84825C1.89475 3.76904 1.87192 3.67 1.86837 3.61088L2.21774 3.58987L2.5671 3.56886C2.56336 3.50657 2.53955 3.40517 2.44841 3.32439C2.36078 3.24672 2.26324 3.23497 2.21118 3.23515L2.21241 3.58515ZM2.21774 3.58987L1.86837 3.61088L1.87378 3.70086L2.22315 3.67984L2.57252 3.65883L2.5671 3.56886L2.21774 3.58987ZM2.22315 3.67984L1.87378 3.70086L1.87919 3.79083L2.22856 3.76982L2.57793 3.74881L2.57252 3.65883L2.22315 3.67984ZM2.22856 3.76982L1.87919 3.79084C1.88358 3.86387 1.91524 3.98156 2.02987 4.06252L2.23179 3.77664L2.43371 3.49075C2.54441 3.56894 2.57391 3.68209 2.57793 3.74881L2.22856 3.76982ZM2.23179 3.77664L2.02987 4.06252L2.08577 4.102L2.28769 3.81612L2.48961 3.53024L2.43371 3.49075L2.23179 3.77664ZM2.28769 3.81612L2.08577 4.102L2.14167 4.14149L2.34359 3.85561L2.54551 3.56972L2.48961 3.53024L2.28769 3.81612ZM2.34359 3.85561L2.14167 4.14149C2.07787 4.09642 2.0335 4.03218 2.0124 3.96191L2.3476 3.86123L2.68281 3.76055C2.66028 3.68555 2.61324 3.61756 2.54551 3.56972L2.34359 3.85561ZM2.3476 3.86123L2.0124 3.96191L2.03263 4.02929L2.36784 3.92861L2.70304 3.82792L2.68281 3.76055L2.3476 3.86123ZM2.36784 3.92861L2.03263 4.02929L2.05287 4.09667L2.38808 3.99598L2.72328 3.8953L2.70304 3.82792L2.36784 3.92861ZM2.38808 3.99598L2.05287 4.09667C2.0532 4.09775 2.0533 4.0981 2.05327 4.09801C2.05326 4.09795 2.0532 4.09778 2.05313 4.09752C2.05306 4.0973 2.05291 4.09676 2.0527 4.09604C2.05261 4.09572 2.05201 4.09366 2.05129 4.091C2.05107 4.09019 2.04996 4.08609 2.0487 4.08082C2.04829 4.0791 2.04642 4.07133 2.04462 4.06128C2.04396 4.05761 2.04148 4.04382 2.04013 4.02596C2.03955 4.01829 2.03808 3.997 2.04039 3.96987C2.04153 3.95642 2.04442 3.93097 2.05352 3.90022C2.06114 3.87446 2.0828 3.81067 2.14211 3.75158L2.38913 3.99954L2.63615 4.2475C2.69546 4.18841 2.71712 4.12463 2.72474 4.09886C2.73384 4.06811 2.73673 4.04266 2.73787 4.02921C2.74018 4.00209 2.73871 3.9808 2.73813 3.97312C2.73678 3.95526 2.7343 3.94147 2.73364 3.9378C2.73184 3.92774 2.72997 3.91996 2.72956 3.91824C2.72829 3.91294 2.72717 3.90882 2.72694 3.90797C2.7262 3.90523 2.72557 3.90306 2.72544 3.90259C2.725 3.90107 2.72462 3.89978 2.72447 3.89929C2.72409 3.89801 2.72367 3.89658 2.72328 3.8953L2.38808 3.99598ZM2.38913 3.99954L2.14162 3.75208L2.14139 3.7523L2.38891 3.99977L2.63642 4.24723L2.63664 4.247L2.38913 3.99954ZM2.38891 3.99977L2.63557 3.75146L2.56463 3.68098L2.31796 3.92929L2.0713 4.1776L2.14224 4.24807L2.38891 3.99977ZM2.31796 3.92929L2.07047 4.17678L2.14118 4.24749L2.38867 4L2.63616 3.75251L2.56545 3.6818L2.31796 3.92929Z" fill="#99A67C"/>
</svg>
