<svg width="39" height="12" viewBox="0 0 39 12" fill="none" xmlns="http://www.w3.org/2000/svg">
<g clip-path="url(#clip0_119_1271)">
<path d="M38.9277 7.9927C38.6352 6.83747 38.0985 5.90935 36.893 5.56172C36.2213 5.368 35.5472 5.203 34.85 5.15972C34.5862 5.1433 34.3136 5.18327 34.152 4.88477C33.0068 2.77 31.1503 2.64767 29.1401 2.9986C28.848 3.0496 28.6177 3.05995 28.4421 2.78867C27.1458 0.786772 25.0957 0.208972 23.005 0.048622C20.1977 -0.166703 17.4848 0.263122 15.5516 2.7664C15.3423 3.03737 15.1165 2.9392 14.8543 2.9578C14.179 3.0055 13.3753 2.95195 13.0499 3.74207C12.7857 4.38355 12.5465 4.24255 12.0885 3.98447C10.439 3.055 8.55045 3.27002 7.10956 4.567C6.72065 4.9171 6.45062 4.82912 6.05184 4.66562C4.72736 4.12255 3.3734 3.90827 1.98138 4.43155C1.16609 4.73792 0.225222 4.9594 0.0826576 6.01502C-0.0785715 7.2097 -0.112197 8.4391 1.02396 9.26635C1.81754 10.0061 2.93351 10.0496 3.79557 10.6102C5.85451 11.9492 8.02624 12.0338 10.2954 11.4001C10.6859 11.291 11.1251 11.2067 11.4683 11.4089C13.2495 12.4576 14.9137 11.9099 16.559 11.0677C16.8827 10.9021 17.2144 10.8522 17.5222 10.9523C18.0773 11.1326 18.6488 11.1998 19.1962 11.1032C20.7874 10.8222 22.4413 11.1851 24.0031 10.5564C24.3479 10.4176 24.8205 10.4387 25.1836 10.5549C28.8793 11.7383 32.5198 10.772 36.1704 10.2834C36.6243 10.2227 37.0835 10.0637 37.4977 9.85862C38.2528 9.48475 39.0108 9.07037 38.9277 7.9927Z" fill="white"/>
</g>
<defs>
<clipPath id="clip0_119_1271">
<rect width="39" height="12" fill="white"/>
</clipPath>
</defs>
</svg>
