<svg width="41" height="23" viewBox="0 0 41 23" fill="none" xmlns="http://www.w3.org/2000/svg">
<g clip-path="url(#clip0_177_280)">
<path d="M37.5877 8.72735C36.0574 8.25454 34.6616 8.71881 33.261 9.34858C32.8448 9.5359 32.8036 9.3538 32.7176 8.91324C32.5174 7.88559 32.2415 6.90868 31.7589 6.04464C30.4718 3.74132 28.4339 3.23817 26.6484 4.83394C26.2934 5.1512 25.9598 5.51493 25.6193 5.86207C25.4555 6.02899 25.3014 6.12811 25.2382 5.74778C24.91 3.78258 24.0415 2.35279 22.8858 1.20469C22.1491 0.790686 21.4446 0.258128 20.6332 0.130087C19.3165 -0.0776247 18.0109 -0.0785766 16.7262 0.440702C16.321 0.60431 15.9175 0.775035 15.513 0.942437C15.4133 1.2284 15.1938 1.27961 15.0184 1.41145C13.8555 2.2845 12.8738 3.43307 12.1199 4.94775C11.6284 5.9351 11.378 7.04763 11.1943 8.19526C11.1386 8.54382 11.0663 8.70838 10.7919 8.53007C10.4517 8.30908 10.0819 8.37404 9.72144 8.37784C8.68922 8.38779 8.03845 9.13755 7.8448 10.5251C7.80421 10.8168 7.75778 11.107 7.71238 11.4086C7.65838 11.3949 7.60918 11.3953 7.5686 11.3697C5.73632 10.206 3.93742 10.3397 2.19698 11.7012C0.829741 12.7711 -0.0752169 14.2763 0.00492576 16.599C0.0365701 16.8575 0.068559 17.1164 0.100203 17.3749C-0.0858789 17.8481 0.0451724 18.1332 0.386724 18.2925C0.768176 18.853 0.975584 19.6322 1.51354 19.9954C1.58439 20.1112 1.64493 20.2435 1.72748 20.3402C2.85876 21.66 4.0922 22.6938 5.61457 22.8512C6.47137 22.9399 7.32473 23.1386 8.18841 22.8256C9.27945 22.4301 10.2824 21.8113 11.1602 20.8334C11.3473 20.6247 11.4708 20.6437 11.649 20.8457C12.8955 22.258 14.3126 22.818 15.931 22.6212C17.173 22.47 18.3087 21.9573 19.3953 21.1625C19.6326 20.989 19.8614 20.7874 20.1434 21.0288C20.5197 21.3508 20.9517 21.4992 21.3531 21.7411C22.5388 22.4548 23.7822 22.7265 25.0641 22.7284C25.7861 22.7294 26.5074 22.6653 27.228 22.6274C28.5759 22.5558 29.8734 22.2158 31.1126 21.5215C31.9722 21.0397 32.9098 20.7305 33.5778 19.7337C33.8509 19.6455 34.1209 19.5056 34.3968 19.4776C35.8232 19.3339 37.1746 18.9161 38.4782 18.0193C39.6621 17.2046 40.5898 16.1988 40.9471 14.382C41.1834 11.4731 39.2542 9.24236 37.5877 8.72735Z" fill="white"/>
</g>
<defs>
<clipPath id="clip0_177_280">
<rect width="41" height="23" fill="white"/>
</clipPath>
</defs>
</svg>
