<svg width="34" height="17" viewBox="0 0 34 17" fill="none" xmlns="http://www.w3.org/2000/svg">
<g clip-path="url(#clip0_177_289)">
<path d="M0.0169379 11.2265C0.0191362 9.89024 0.9652 8.77819 2.40089 8.4278C3.1349 8.24889 3.72953 8.13902 4.10917 7.23705C4.57133 6.13985 6.63111 5.81248 7.91989 6.39374C9.2697 7.00248 9.49004 6.8681 9.48081 5.35888C9.4693 3.46735 10.5297 2.2744 11.9863 1.34199C13.8206 0.166841 15.8515 -0.155342 17.9692 0.0644706C19.605 0.233654 20.6856 1.32194 20.9801 2.96181C21.141 3.85857 21.4712 3.964 22.3845 3.66335C25.2314 2.72575 27.7744 3.33744 28.4216 7.15613C28.6224 8.34167 28.8364 8.49015 30.015 8.4753C32.7746 8.44041 34.6362 10.8152 33.7968 12.9911C33.3705 14.0957 32.4014 14.5901 31.3717 14.9524C30.9648 15.0956 30.513 15.2567 30.1019 15.2137C27.717 14.9613 25.8384 16.6739 23.5841 16.8892C21.0469 17.1312 18.7997 16.5165 17.1184 14.4609C16.6601 13.9005 16.4051 13.9754 15.9352 14.4201C13.567 16.6635 10.2532 16.7556 7.69984 14.6562C7.29286 14.3214 6.947 14.3667 6.49716 14.4891C4.53029 15.0229 2.74361 14.6562 1.11307 13.3838C0.361408 12.7966 -0.0955405 12.1351 0.0169379 11.2265Z" fill="white"/>
</g>
<defs>
<clipPath id="clip0_177_289">
<rect width="34" height="17" fill="white"/>
</clipPath>
</defs>
</svg>
