<svg width="57" height="23" viewBox="0 0 57 23" fill="none" xmlns="http://www.w3.org/2000/svg">
<g clip-path="url(#clip0_177_274)">
<path d="M52.256 8.72735C50.1286 8.25454 48.1881 8.71881 46.2409 9.34858C45.6623 9.5359 45.6049 9.3538 45.4854 8.91324C45.2071 7.88559 44.8236 6.90868 44.1527 6.04464C42.3633 3.74132 39.53 3.23817 37.0478 4.83394C36.5543 5.1512 36.0904 5.51493 35.617 5.86207C35.3894 6.02899 35.1752 6.12811 35.0872 5.74778C34.631 3.78258 33.4236 2.35279 31.8169 1.20469C30.7926 0.790686 29.8133 0.258128 28.6852 0.130087C26.8547 -0.0776247 25.0395 -0.0785766 23.2535 0.440702C22.6902 0.60431 22.1292 0.775035 21.5669 0.942437C21.4282 1.2284 21.1231 1.27961 20.8793 1.41145C19.2625 2.2845 17.8978 3.43307 16.8496 4.94775C16.1663 5.9351 15.8181 7.04763 15.5628 8.19526C15.4853 8.54382 15.3849 8.70838 15.0033 8.53007C14.5304 8.30908 14.0163 8.37404 13.5152 8.37784C12.0801 8.38779 11.1754 9.13755 10.9062 10.5251C10.8498 10.8168 10.7852 11.107 10.7221 11.4086C10.647 11.3949 10.5786 11.3953 10.5222 11.3697C7.97489 10.206 5.47397 10.3397 3.05434 11.7012C1.15354 12.7711 -0.10457 14.2763 0.00684801 16.599C0.0508413 16.8575 0.0953137 17.1164 0.139307 17.3749C-0.119393 17.8481 0.0628007 18.1332 0.537641 18.2925C1.06795 18.853 1.3563 19.6322 2.10419 19.9954C2.20269 20.1112 2.28685 20.2435 2.40162 20.3402C3.97438 21.66 5.68916 22.6938 7.80562 22.8512C8.99678 22.9399 10.1832 23.1386 11.3839 22.8256C12.9007 22.4301 14.2951 21.8113 15.5154 20.8334C15.7756 20.6247 15.9472 20.6437 16.1949 20.8457C17.9279 22.258 19.898 22.818 22.1479 22.6212C23.8746 22.47 25.4536 21.9573 26.9642 21.1625C27.2942 20.989 27.6122 20.7874 28.0043 21.0288C28.5274 21.3508 29.128 21.4992 29.6861 21.7411C31.3344 22.4548 33.063 22.7265 34.8452 22.7284C35.8489 22.7294 36.8517 22.6653 37.8535 22.6274C39.7275 22.5558 41.5312 22.2158 43.2542 21.5215C44.4491 21.0397 45.7527 20.7305 46.6813 19.7337C47.061 19.6455 47.4364 19.5056 47.8199 19.4776C49.8029 19.3339 51.6817 18.9161 53.4941 18.0193C55.14 17.2046 56.4297 16.1988 56.9265 14.382C57.255 11.4731 54.5729 9.24236 52.256 8.72735Z" fill="white"/>
</g>
<defs>
<clipPath id="clip0_177_274">
<rect width="57" height="23" fill="white"/>
</clipPath>
</defs>
</svg>
