<svg width="54" height="17" viewBox="0 0 54 17" fill="none" xmlns="http://www.w3.org/2000/svg">
<g clip-path="url(#clip0_177_292)">
<path d="M0.0269014 11.2265C0.0303928 9.89024 1.53297 8.77819 3.81319 8.4278C4.97896 8.24889 5.92338 8.13902 6.52634 7.23705C7.26034 6.13985 10.5318 5.81248 12.5786 6.39374C14.7225 7.00248 15.0724 6.8681 15.0578 5.35888C15.0395 3.46735 16.7236 2.2744 19.0371 1.34199C21.9504 0.166841 25.1759 -0.155342 28.5394 0.0644706C31.1374 0.233654 32.8535 1.32194 33.3213 2.96181C33.577 3.85857 34.1014 3.964 35.5519 3.66335C40.0734 2.72575 44.1123 3.33744 45.1402 7.15613C45.4592 8.34167 45.799 8.49015 47.671 8.4753C52.0538 8.44041 55.0104 10.8152 53.6773 12.9911C53.0002 14.0957 51.4611 14.5901 49.8256 14.9524C49.1793 15.0956 48.4619 15.2567 47.8089 15.2137C44.0212 14.9613 41.0375 16.6739 37.457 16.8892C33.4274 17.1312 29.8584 16.5165 27.1881 14.4609C26.4601 13.9005 26.0551 13.9754 25.3088 14.4201C21.5475 16.6635 16.2845 16.7556 12.2292 14.6562C11.5828 14.3214 11.0335 14.3667 10.319 14.4891C7.19517 15.0229 4.35749 14.6562 1.76782 13.3838C0.574 12.7966 -0.151741 12.1351 0.0269014 11.2265Z" fill="white"/>
</g>
<defs>
<clipPath id="clip0_177_292">
<rect width="54" height="17" fill="white"/>
</clipPath>
</defs>
</svg>
