<svg width="22" height="1" viewBox="0 0 22 1" fill="none" xmlns="http://www.w3.org/2000/svg">
<path d="M21.1068 0.45459L21.0622 0.157919L21.0844 0.15459H21.1068V0.45459ZM20.4193 0.364929L20.5358 0.0884786L20.4193 0.364929ZM20.1943 0.392217L20.3602 0.642136L20.1943 0.392217ZM20.0818 0.46692L20.2477 0.716839L20.0818 0.46692ZM19.2943 0.5605L19.1325 0.813104L19.2943 0.5605ZM19.1818 0.488424L19.3436 0.23582L19.1818 0.488424ZM18.8443 0.367331L18.9045 0.661222L18.8443 0.367331ZM17.7193 0.390965L17.7699 0.686672V0.686672L17.7193 0.390965ZM17.4943 0.407186L17.5023 0.107294L17.4943 0.407186ZM17.0443 0.435307L17.1384 0.720161L17.0443 0.435307ZM16.8193 0.509649L16.7252 0.224795V0.224795L16.8193 0.509649ZM16.1443 0.522168L16.3087 0.27126L16.1443 0.522168ZM15.9193 0.374696L15.7548 0.625604L15.9193 0.374696ZM15.0193 0.481672L15.0723 0.776958L15.0193 0.481672ZM14.1193 0.414113L14.1196 0.714113L14.1193 0.414113ZM13.8943 0.394503L13.8425 0.689993V0.689993L13.8943 0.394503ZM13.6693 0.35504L13.7211 0.0595507L13.6693 0.35504ZM13.4443 0.374083L13.542 0.65771L13.4443 0.374083ZM13.2193 0.451632L13.317 0.735259L13.2193 0.451632ZM12.9943 0.507443L13.0392 0.804061L12.9943 0.507443ZM12.7693 0.541517L12.7244 0.244898L12.7693 0.541517ZM12.5443 0.496007L12.6901 0.233805L12.5443 0.496007ZM11.8693 0.322006L11.8814 0.621762L11.8693 0.322006ZM11.6443 0.377239L11.7675 0.650759L11.6443 0.377239ZM11.4193 0.478614L11.2961 0.205094L11.4193 0.478614ZM10.7443 0.309922L10.7573 0.0102029L10.7443 0.309922ZM9.73179 0.539006L9.81275 0.250137L9.73179 0.539006ZM8.71929 0.372223L8.78583 0.66475L8.71929 0.372223ZM4.44429 0.35776L4.60189 0.613024V0.613024L4.44429 0.35776ZM4.21929 0.496683L4.06168 0.24142L4.21929 0.496683ZM3.54429 0.544342L3.61511 0.252821L3.54429 0.544342ZM3.31929 0.489682L3.24847 0.781204L3.31929 0.489682ZM2.64429 0.590386L2.54903 0.87486L2.64429 0.590386ZM2.41928 0.515041L2.51455 0.230567L2.41928 0.515041ZM2.19429 0.512993L2.28485 0.798996L2.19429 0.512993ZM1.96929 0.58424L1.87872 0.298236L1.96929 0.58424ZM1.29429 0.549769L1.47038 0.306891L1.29429 0.549769ZM1.06929 0.386633L0.893188 0.62951L1.06929 0.386633ZM0.844288 0.322163L0.799212 0.0255687L0.844288 0.322163ZM0.619286 0.356359L0.664362 0.652953L0.619286 0.356359ZM0.486828 0.39374L0.272985 0.183333L0.486828 0.39374ZM0.466871 0.414023L0.299004 0.66266L-5.72205e-06 0.460782L0.253029 0.203616L0.466871 0.414023ZM0.526957 0.45459L0.694824 0.205953L1.50743 0.75459H0.526957V0.45459ZM21.2068 0.45459V0.75459H21.1068V0.45459V0.15459H21.2068V0.45459ZM21.1068 0.45459L21.1514 0.75126L20.9764 0.777552L20.9318 0.480881L20.8872 0.184211L21.0622 0.157919L21.1068 0.45459ZM20.9318 0.480881L20.9764 0.777552C20.8283 0.799801 20.6715 0.796785 20.5278 0.736208L20.6443 0.459758L20.7608 0.183308C20.7671 0.18595 20.802 0.197017 20.8872 0.184211L20.9318 0.480881ZM20.6443 0.459758L20.5278 0.736208L20.4153 0.688793L20.5318 0.412343L20.6483 0.135893L20.7608 0.183308L20.6443 0.459758ZM20.5318 0.412343L20.4153 0.688793L20.3028 0.641379L20.4193 0.364929L20.5358 0.0884786L20.6483 0.135893L20.5318 0.412343ZM20.4193 0.364929L20.3028 0.641379C20.3054 0.642488 20.3108 0.64437 20.3185 0.645531C20.3264 0.646709 20.3347 0.646851 20.3429 0.645861C20.3599 0.643798 20.3662 0.638183 20.3602 0.642136L20.1943 0.392217L20.0283 0.142298C20.1766 0.0438373 20.3571 0.0131723 20.5358 0.0884786L20.4193 0.364929ZM20.1943 0.392217L20.3602 0.642136L20.2477 0.716839L20.0818 0.46692L19.9158 0.217001L20.0283 0.142298L20.1943 0.392217ZM20.0818 0.46692L20.2477 0.716839L20.1352 0.791542L19.9693 0.541623L19.8033 0.291704L19.9158 0.217001L20.0818 0.46692ZM19.9693 0.541623L20.1352 0.791542C20.0234 0.865814 19.8956 0.91512 19.7551 0.920193L19.7443 0.620388L19.7335 0.320584C19.743 0.32024 19.7652 0.317036 19.8033 0.291704L19.9693 0.541623ZM19.7443 0.620388L19.7551 0.920193L19.6426 0.924255L19.6318 0.624451L19.621 0.324646L19.7335 0.320584L19.7443 0.620388ZM19.6318 0.624451L19.6426 0.924255L19.5301 0.928318L19.5193 0.628513L19.5085 0.328709L19.621 0.324646L19.6318 0.624451ZM19.5193 0.628513L19.5301 0.928318C19.3834 0.933616 19.249 0.887798 19.1325 0.813104L19.2943 0.5605L19.4561 0.307896C19.4895 0.329302 19.5052 0.328827 19.5085 0.328709L19.5193 0.628513ZM19.2943 0.5605L19.1325 0.813104L19.02 0.741029L19.1818 0.488424L19.3436 0.23582L19.4561 0.307896L19.2943 0.5605ZM19.1818 0.488424L19.02 0.741029L18.9075 0.668953L19.0693 0.416349L19.2311 0.163744L19.3436 0.23582L19.1818 0.488424ZM19.0693 0.416349L18.9075 0.668953C18.8952 0.661114 18.8905 0.660658 18.8929 0.661181C18.894 0.661425 18.896 0.661725 18.8986 0.661742C18.9012 0.661758 18.9032 0.661484 18.9045 0.661222L18.8443 0.367331L18.7841 0.0734401C18.9481 0.039814 19.1019 0.0809431 19.2311 0.163744L19.0693 0.416349ZM18.8443 0.367331L18.9045 0.661222L18.792 0.684279L18.7318 0.390389L18.6716 0.0964978L18.7841 0.0734401L18.8443 0.367331ZM18.7318 0.390389L18.792 0.684279L18.6795 0.707337L18.6193 0.413446L18.5591 0.119555L18.6716 0.0964978L18.7318 0.390389ZM18.6193 0.413446L18.6795 0.707337C18.5622 0.731374 18.4438 0.729852 18.3272 0.703092L18.3943 0.41069L18.4614 0.118289C18.4948 0.125947 18.5263 0.126261 18.5591 0.119555L18.6193 0.413446ZM18.3943 0.41069L18.3272 0.703092L18.2147 0.677279L18.2818 0.384877L18.3489 0.0924756L18.4614 0.118289L18.3943 0.41069ZM18.2818 0.384877L18.2147 0.677279L18.1022 0.651465L18.1693 0.359064L18.2364 0.0666622L18.3489 0.0924756L18.2818 0.384877ZM18.1693 0.359064L18.1022 0.651465C18.0654 0.643014 18.0304 0.642126 17.9949 0.648196L17.9443 0.352489L17.8937 0.056781C18.0082 0.0372002 18.1232 0.0406955 18.2364 0.0666622L18.1693 0.359064ZM17.9443 0.352489L17.9949 0.648196L17.8824 0.667434L17.8318 0.371727L17.7812 0.0760191L17.8937 0.056781L17.9443 0.352489ZM17.8318 0.371727L17.8824 0.667434L17.7699 0.686672L17.7193 0.390965L17.6687 0.0952573L17.7812 0.0760191L17.8318 0.371727ZM17.7193 0.390965L17.7699 0.686672C17.6758 0.70276 17.5811 0.709623 17.4862 0.707078L17.4943 0.407186L17.5023 0.107294C17.5574 0.108771 17.6128 0.10482 17.6687 0.0952573L17.7193 0.390965ZM17.4943 0.407186L17.4862 0.707078L17.3737 0.704062L17.3818 0.404169L17.3898 0.104277L17.5023 0.107294L17.4943 0.407186ZM17.3818 0.404169L17.3737 0.704062L17.2612 0.701045L17.2693 0.401153L17.2773 0.10126L17.3898 0.104277L17.3818 0.404169ZM17.2693 0.401153L17.2612 0.701045C17.2227 0.700011 17.1822 0.70568 17.1384 0.720161L17.0443 0.435307L16.9502 0.150453C17.0563 0.115372 17.1659 0.0982713 17.2773 0.10126L17.2693 0.401153ZM17.0443 0.435307L17.1384 0.720161L17.0259 0.757332L16.9318 0.472478L16.8377 0.187624L16.9502 0.150453L17.0443 0.435307ZM16.9318 0.472478L17.0259 0.757332L16.9134 0.794503L16.8193 0.509649L16.7252 0.224795L16.8377 0.187624L16.9318 0.472478ZM16.8193 0.509649L16.9134 0.794503C16.8193 0.825583 16.7237 0.846753 16.6268 0.857322L16.5943 0.559091L16.5618 0.26086C16.6149 0.255068 16.6692 0.243276 16.7252 0.224795L16.8193 0.509649ZM16.5943 0.559091L16.6268 0.857322L16.5143 0.869593L16.4818 0.571362L16.4493 0.273131L16.5618 0.26086L16.5943 0.559091ZM16.4818 0.571362L16.5143 0.869593L16.4018 0.881864L16.3693 0.583633L16.3368 0.285402L16.4493 0.273131L16.4818 0.571362ZM16.3693 0.583633L16.4018 0.881864C16.2452 0.898952 16.1016 0.852864 15.9798 0.773077L16.1443 0.522168L16.3087 0.27126C16.3239 0.281205 16.3329 0.2842 16.3358 0.285007C16.3382 0.28564 16.3378 0.285286 16.3368 0.285402L16.3693 0.583633ZM16.1443 0.522168L15.9798 0.773077L15.8673 0.69934L16.0318 0.448432L16.1962 0.197524L16.3087 0.27126L16.1443 0.522168ZM16.0318 0.448432L15.8673 0.69934L15.7548 0.625604L15.9193 0.374696L16.0837 0.123787L16.1962 0.197524L16.0318 0.448432ZM15.9193 0.374696L15.7548 0.625604C15.7443 0.61873 15.7428 0.620085 15.7496 0.621402C15.7529 0.622037 15.757 0.622431 15.7615 0.622267C15.7659 0.622105 15.7695 0.621438 15.7717 0.620845L15.6943 0.331001L15.6169 0.0411565C15.7875 -0.00440457 15.9496 0.0358388 16.0837 0.123787L15.9193 0.374696ZM15.6943 0.331001L15.7717 0.620845L15.6592 0.650886L15.5818 0.361042L15.5044 0.0711975L15.6169 0.0411565L15.6943 0.331001ZM15.5818 0.361042L15.6592 0.650886L15.5467 0.680927L15.4693 0.391083L15.3919 0.101239L15.5044 0.0711975L15.5818 0.361042ZM15.4693 0.391083L15.5467 0.680927C15.4638 0.703067 15.3806 0.721636 15.2973 0.736592L15.2443 0.441306L15.1913 0.146021C15.2579 0.134066 15.3248 0.119153 15.3919 0.101239L15.4693 0.391083ZM15.2443 0.441306L15.2973 0.736592L15.1848 0.756775L15.1318 0.461489L15.0788 0.166203L15.1913 0.146021L15.2443 0.441306ZM15.1318 0.461489L15.1848 0.756775L15.0723 0.776958L15.0193 0.481672L14.9663 0.186386L15.0788 0.166203L15.1318 0.461489ZM15.0193 0.481672L15.0723 0.776958C14.9605 0.797 14.848 0.796047 14.7366 0.774238L14.7943 0.479828L14.8519 0.185418C14.8905 0.192978 14.928 0.193254 14.9663 0.186386L15.0193 0.481672ZM14.7943 0.479828L14.7366 0.774238L14.6241 0.752212L14.6818 0.457802L14.7394 0.163392L14.8519 0.185418L14.7943 0.479828ZM14.6818 0.457802L14.6241 0.752212L14.5116 0.730185L14.5693 0.435775L14.6269 0.141365L14.7394 0.163392L14.6818 0.457802ZM14.5693 0.435775L14.5116 0.730185C14.4554 0.719169 14.3998 0.713811 14.3446 0.71387L14.3443 0.41387L14.344 0.11387C14.4388 0.113768 14.5332 0.123013 14.6269 0.141365L14.5693 0.435775ZM14.3443 0.41387L14.3446 0.71387L14.2321 0.713992L14.2318 0.413992L14.2315 0.113992L14.344 0.11387L14.3443 0.41387ZM14.2318 0.413992L14.2321 0.713992L14.1196 0.714113L14.1193 0.414113L14.119 0.114113L14.2315 0.113992L14.2318 0.413992ZM14.1193 0.414113L14.1196 0.714113C14.0269 0.714213 13.9344 0.706121 13.8425 0.689993L13.8943 0.394503L13.9461 0.0990136C14.0042 0.109194 14.0617 0.114175 14.119 0.114113L14.1193 0.414113ZM13.8943 0.394503L13.8425 0.689993L13.73 0.670261L13.7818 0.374772L13.8336 0.0792822L13.9461 0.0990136L13.8943 0.394503ZM13.7818 0.374772L13.73 0.670261L13.6175 0.65053L13.6693 0.35504L13.7211 0.0595507L13.8336 0.0792822L13.7818 0.374772ZM13.6693 0.35504L13.6175 0.65053C13.5947 0.646529 13.5711 0.647702 13.542 0.65771L13.4443 0.374083L13.3465 0.0904569C13.4675 0.0487657 13.5939 0.0372426 13.7211 0.0595507L13.6693 0.35504ZM13.4443 0.374083L13.542 0.65771L13.4295 0.696484L13.3318 0.412858L13.234 0.129231L13.3465 0.0904569L13.4443 0.374083ZM13.3318 0.412858L13.4295 0.696484L13.317 0.735259L13.2193 0.451632L13.1215 0.168006L13.234 0.129231L13.3318 0.412858ZM13.2193 0.451632L13.317 0.735259C13.2256 0.76676 13.133 0.789861 13.0392 0.804061L12.9943 0.507443L12.9494 0.210825C13.0056 0.20231 13.0629 0.188203 13.1215 0.168006L13.2193 0.451632ZM12.9943 0.507443L13.0392 0.804061L12.9267 0.821098L12.8818 0.52448L12.8369 0.227862L12.9494 0.210825L12.9943 0.507443ZM12.8818 0.52448L12.9267 0.821098L12.8142 0.838135L12.7693 0.541517L12.7244 0.244898L12.8369 0.227862L12.8818 0.52448ZM12.7693 0.541517L12.8142 0.838135C12.6651 0.860719 12.5235 0.827708 12.3985 0.758209L12.5443 0.496007L12.6901 0.233805C12.7151 0.247701 12.7235 0.24503 12.7244 0.244898L12.7693 0.541517ZM12.5443 0.496007L12.3985 0.758209L12.286 0.695663L12.4318 0.433461L12.5776 0.171259L12.6901 0.233805L12.5443 0.496007ZM12.4318 0.433461L12.286 0.695663L12.1735 0.633117L12.3193 0.370915L12.4651 0.108713L12.5776 0.171259L12.4318 0.433461ZM12.3193 0.370915L12.1735 0.633117C12.1396 0.614289 12.1188 0.61217 12.1064 0.61267L12.0943 0.312915L12.0822 0.0131594C12.2198 0.00759903 12.3489 0.0441468 12.4651 0.108713L12.3193 0.370915ZM12.0943 0.312915L12.1064 0.61267L11.9939 0.617216L11.9818 0.317461L11.9697 0.0177051L12.0822 0.0131594L12.0943 0.312915ZM11.9818 0.317461L11.9939 0.617216L11.8814 0.621762L11.8693 0.322006L11.8572 0.0222508L11.9697 0.0177051L11.9818 0.317461ZM11.8693 0.322006L11.8814 0.621762C11.8483 0.623099 11.8109 0.631227 11.7675 0.650759L11.6443 0.377239L11.5211 0.10372C11.6277 0.0556682 11.7403 0.0269746 11.8572 0.0222508L11.8693 0.322006ZM11.6443 0.377239L11.7675 0.650759L11.655 0.701446L11.5318 0.427927L11.4086 0.154407L11.5211 0.10372L11.6443 0.377239ZM11.5318 0.427927L11.655 0.701446L11.5425 0.752134L11.4193 0.478614L11.2961 0.205094L11.4086 0.154407L11.5318 0.427927ZM11.4193 0.478614L11.5425 0.752134C11.3862 0.822575 11.2189 0.819746 11.0652 0.746481L11.1943 0.475675L11.3234 0.204868C11.325 0.205654 11.3245 0.205211 11.3219 0.204577C11.3192 0.203921 11.3153 0.203309 11.3107 0.203248C11.3061 0.203188 11.302 0.203698 11.2989 0.204368C11.296 0.205018 11.2949 0.205597 11.2961 0.205094L11.4193 0.478614ZM11.1943 0.475675L11.0652 0.746481L10.9527 0.692855L11.0818 0.422048L11.2109 0.151241L11.3234 0.204868L11.1943 0.475675ZM11.0818 0.422048L10.9527 0.692855L10.8402 0.639228L10.9693 0.368421L11.0984 0.0976148L11.2109 0.151241L11.0818 0.422048ZM10.9693 0.368421L10.8402 0.639228C10.7977 0.618956 10.762 0.610968 10.7313 0.609641L10.7443 0.309922L10.7573 0.0102029C10.8766 0.0153726 10.9909 0.0463851 11.0984 0.0976148L10.9693 0.368421ZM10.7443 0.309922L10.7313 0.609641L10.6188 0.604768L10.6318 0.305049L10.6448 0.00532991L10.7573 0.0102029L10.7443 0.309922ZM10.6318 0.305049L10.6188 0.604768L10.5063 0.599895L10.5193 0.300176L10.5323 0.000456929L10.6448 0.00532991L10.6318 0.305049ZM10.5193 0.300176L10.5063 0.599895C10.5058 0.599872 10.5035 0.599729 10.498 0.601488C10.492 0.603417 10.4804 0.6082 10.4633 0.619876L10.2943 0.371994L10.1253 0.124111C10.2423 0.0443479 10.38 -0.00613871 10.5323 0.000456929L10.5193 0.300176ZM10.2943 0.371994L10.4633 0.619876L10.3508 0.696567L10.1818 0.448684L10.0128 0.200802L10.1253 0.124111L10.2943 0.371994ZM10.1818 0.448684L10.3508 0.696567L10.2383 0.773257L10.0693 0.525375L9.90031 0.277492L10.0128 0.200802L10.1818 0.448684ZM10.0693 0.525375L10.2383 0.773257C10.1035 0.865101 9.93813 0.908395 9.76333 0.859405L9.84429 0.570536L9.92525 0.281666C9.92234 0.280851 9.91793 0.279991 9.91246 0.279774C9.90696 0.279555 9.9019 0.280044 9.89775 0.280877C9.88925 0.282583 9.8899 0.284584 9.90031 0.277492L10.0693 0.525375ZM9.84429 0.570536L9.76333 0.859405L9.65083 0.827875L9.73179 0.539006L9.81275 0.250137L9.92525 0.281666L9.84429 0.570536ZM9.73179 0.539006L9.65083 0.827875L9.53833 0.796346L9.61929 0.507476L9.70025 0.218607L9.81275 0.250137L9.73179 0.539006ZM9.61929 0.507476L9.53833 0.796346C9.45253 0.772299 9.36728 0.743222 9.28261 0.70926L9.39429 0.430823L9.50597 0.152386C9.5713 0.178589 9.63605 0.200615 9.70025 0.218607L9.61929 0.507476ZM9.39429 0.430823L9.28261 0.70926L9.1701 0.664136L9.28179 0.385699L9.39347 0.107262L9.50597 0.152386L9.39429 0.430823ZM9.28179 0.385699L9.1701 0.664136L9.0576 0.619012L9.16929 0.340575L9.28097 0.0621375L9.39347 0.107262L9.28179 0.385699ZM9.16929 0.340575L9.0576 0.619012C9.03617 0.610413 9.02326 0.610741 9.01083 0.613569L8.94429 0.321041L8.87774 0.0285141C9.01531 -0.00277889 9.15241 0.0105708 9.28097 0.0621375L9.16929 0.340575ZM8.94429 0.321041L9.01083 0.613569L8.89833 0.639159L8.83179 0.346632L8.76524 0.0541049L8.87774 0.0285141L8.94429 0.321041ZM8.83179 0.346632L8.89833 0.639159L8.78583 0.66475L8.71929 0.372223L8.65274 0.0796956L8.76524 0.0541049L8.83179 0.346632ZM8.71929 0.372223L8.78583 0.66475C8.68847 0.686897 8.58999 0.697641 8.49086 0.69651L8.49429 0.39653L8.49771 0.0965495C8.54858 0.0971299 8.60011 0.0916695 8.65274 0.0796956L8.71929 0.372223ZM8.49429 0.39653L8.49086 0.69651L8.37836 0.695227L8.38179 0.395246L8.38521 0.095266L8.49771 0.0965495L8.49429 0.39653ZM8.38179 0.395246L8.37836 0.695227L8.26586 0.693943L8.26929 0.393963L8.27271 0.0939824L8.38521 0.095266L8.38179 0.395246ZM8.26929 0.393963L8.26586 0.693943C8.20975 0.693303 8.15333 0.697914 8.09637 0.707956L8.04429 0.412512L7.9922 0.117067C8.08524 0.100666 8.17882 0.0929112 8.27271 0.0939824L8.26929 0.393963ZM8.04429 0.412512L8.09637 0.707956L7.98387 0.727788L7.93179 0.432344L7.8797 0.136899L7.9922 0.117067L8.04429 0.412512ZM7.93179 0.432344L7.98387 0.727788L7.87137 0.74762L7.81929 0.452176L7.7672 0.156732L7.8797 0.136899L7.93179 0.432344ZM7.81929 0.452176L7.87137 0.74762C7.80973 0.758487 7.7475 0.773754 7.68462 0.793609L7.59429 0.507533L7.50395 0.221457C7.59107 0.193946 7.67885 0.172308 7.7672 0.156732L7.81929 0.452176ZM7.59429 0.507533L7.68462 0.793609L7.57212 0.829134L7.48179 0.543058L7.39145 0.256983L7.50395 0.221457L7.59429 0.507533ZM7.48179 0.543058L7.57212 0.829134L7.45962 0.864659L7.36929 0.578583L7.27895 0.292508L7.39145 0.256983L7.48179 0.543058ZM7.36929 0.578583L7.45962 0.864659C7.33439 0.904203 7.20462 0.91 7.07601 0.87994L7.14429 0.587813L7.21257 0.295687C7.23396 0.300687 7.25418 0.30033 7.27895 0.292508L7.36929 0.578583ZM7.14429 0.587813L7.07601 0.87994L6.96351 0.853645L7.03179 0.561518L7.10007 0.269392L7.21257 0.295687L7.14429 0.587813ZM7.03179 0.561518L6.96351 0.853645L6.85101 0.82735L6.91929 0.535224L6.98757 0.243097L7.10007 0.269392L7.03179 0.561518ZM6.91929 0.535224L6.85101 0.82735C6.79563 0.814408 6.74123 0.807517 6.68748 0.806297L6.69429 0.506374L6.7011 0.206451C6.79735 0.208637 6.89294 0.22098 6.98757 0.243097L6.91929 0.535224ZM6.69429 0.506374L6.68748 0.806297L6.57498 0.803742L6.58179 0.50382L6.5886 0.203897L6.7011 0.206451L6.69429 0.506374ZM6.58179 0.50382L6.57498 0.803742L6.46248 0.801188L6.46929 0.501265L6.4761 0.201343L6.5886 0.203897L6.58179 0.50382ZM6.46929 0.501265L6.46248 0.801188C6.38965 0.799534 6.31683 0.798674 6.24401 0.798607L6.24429 0.498608L6.24456 0.198608C6.32174 0.198679 6.39892 0.19959 6.4761 0.201343L6.46929 0.501265ZM6.24429 0.498608L6.24401 0.798607L6.13151 0.798504L6.13179 0.498504L6.13206 0.198505L6.24456 0.198608L6.24429 0.498608ZM6.13179 0.498504L6.13151 0.798504L6.01901 0.798401L6.01929 0.498401L6.01956 0.198401L6.13206 0.198505L6.13179 0.498504ZM6.01929 0.498401L6.01901 0.798401C5.94558 0.798334 5.87214 0.79884 5.7987 0.799921L5.79429 0.499953L5.78987 0.199986C5.86644 0.198859 5.943 0.198331 6.01956 0.198401L6.01929 0.498401ZM5.79429 0.499953L5.7987 0.799921L5.6862 0.801576L5.68179 0.501609L5.67737 0.201641L5.78987 0.199986L5.79429 0.499953ZM5.68179 0.501609L5.6862 0.801576L5.5737 0.803232L5.56929 0.503264L5.56487 0.203297L5.67737 0.201641L5.68179 0.501609ZM5.56929 0.503264L5.5737 0.803232C5.51149 0.804147 5.44913 0.809031 5.38654 0.817935L5.34429 0.520926L5.30203 0.223917C5.38944 0.21148 5.47708 0.204589 5.56487 0.203297L5.56929 0.503264ZM5.34429 0.520926L5.38654 0.817935L5.27404 0.833942L5.23179 0.536933L5.18953 0.239924L5.30203 0.223917L5.34429 0.520926ZM5.23179 0.536933L5.27404 0.833942L5.16154 0.849948L5.11929 0.552939L5.07703 0.25593L5.18953 0.239924L5.23179 0.536933ZM5.11929 0.552939L5.16154 0.849948C5.00527 0.872183 4.85993 0.83092 4.73553 0.753337L4.89429 0.498784L5.05304 0.244231C5.06712 0.253014 5.075 0.255254 5.07699 0.255733C5.07804 0.255986 5.07823 0.255941 5.07778 0.255919C5.07732 0.255897 5.07698 0.255937 5.07703 0.25593L5.11929 0.552939ZM4.89429 0.498784L4.73553 0.753337L4.62303 0.683175L4.78179 0.428622L4.94054 0.17407L5.05304 0.244231L4.89429 0.498784ZM4.78179 0.428622L4.62303 0.683175L4.51053 0.613013L4.66928 0.358461L4.82804 0.103908L4.94054 0.17407L4.78179 0.428622ZM4.66928 0.358461L4.51053 0.613013C4.51182 0.613818 4.52824 0.623117 4.55585 0.623203C4.58352 0.623289 4.60023 0.614055 4.60189 0.613024L4.44429 0.35776L4.28668 0.102497C4.36335 0.0551581 4.45505 0.0228867 4.55772 0.0232062C4.66033 0.0235256 4.75175 0.0563286 4.82804 0.103908L4.66928 0.358461ZM4.44429 0.35776L4.60189 0.613024L4.4894 0.682485L4.33179 0.427222L4.17418 0.171958L4.28668 0.102497L4.44429 0.35776ZM4.33179 0.427222L4.4894 0.682485L4.3769 0.751947L4.21929 0.496683L4.06168 0.24142L4.17418 0.171958L4.33179 0.427222ZM4.21929 0.496683L4.3769 0.751947C4.26379 0.82178 4.13628 0.865805 3.99797 0.867504L3.99429 0.567526L3.9906 0.267549C4.0023 0.267405 4.02478 0.264201 4.06168 0.24142L4.21929 0.496683ZM3.99429 0.567526L3.99797 0.867504L3.88547 0.868886L3.88179 0.568908L3.8781 0.268931L3.9906 0.267549L3.99429 0.567526ZM3.88179 0.568908L3.88547 0.868886L3.77297 0.870268L3.76929 0.57029L3.7656 0.270313L3.8781 0.268931L3.88179 0.568908ZM3.76929 0.57029L3.77297 0.870268C3.67216 0.871506 3.57214 0.859834 3.47346 0.835863L3.54429 0.544342L3.61511 0.252821C3.66643 0.26529 3.71641 0.270917 3.7656 0.270313L3.76929 0.57029ZM3.54429 0.544342L3.47346 0.835863L3.36097 0.808533L3.43179 0.517012L3.50261 0.225491L3.61511 0.252821L3.54429 0.544342ZM3.43179 0.517012L3.36097 0.808533L3.24847 0.781204L3.31929 0.489682L3.39011 0.198161L3.50261 0.225491L3.43179 0.517012ZM3.31929 0.489682L3.24847 0.781204C3.23347 0.777561 3.21918 0.777484 3.19795 0.785299L3.09429 0.503779L2.99062 0.222259C3.1194 0.174839 3.2551 0.165364 3.39011 0.198161L3.31929 0.489682ZM3.09429 0.503779L3.19795 0.785299L3.08545 0.826726L2.98179 0.545206L2.87812 0.263686L2.99062 0.222259L3.09429 0.503779ZM2.98179 0.545206L3.08545 0.826726L2.97295 0.868152L2.86929 0.586632L2.76562 0.305113L2.87812 0.263686L2.98179 0.545206ZM2.86929 0.586632L2.97295 0.868152C2.83464 0.919083 2.68948 0.921892 2.54903 0.87486L2.64429 0.590386L2.73955 0.305913C2.7491 0.309111 2.75393 0.309417 2.76562 0.305113L2.86929 0.586632ZM2.64429 0.590386L2.54903 0.87486L2.43653 0.837188L2.53179 0.552714L2.62705 0.26824L2.73955 0.305913L2.64429 0.590386ZM2.53179 0.552714L2.43653 0.837188L2.32402 0.799515L2.41928 0.515041L2.51455 0.230567L2.62705 0.26824L2.53179 0.552714ZM2.41928 0.515041L2.32402 0.799515C2.30889 0.794449 2.29896 0.794529 2.28485 0.798996L2.19429 0.512993L2.10372 0.226989C2.23961 0.183958 2.37968 0.185404 2.51455 0.230567L2.41928 0.515041ZM2.19429 0.512993L2.28485 0.798996L2.17235 0.83462L2.08179 0.548616L1.99122 0.262613L2.10372 0.226989L2.19429 0.512993ZM2.08179 0.548616L2.17235 0.83462L2.05985 0.870243L1.96929 0.58424L1.87872 0.298236L1.99122 0.262613L2.08179 0.548616ZM1.96929 0.58424L2.05985 0.870243C1.95931 0.902081 1.85643 0.91997 1.75193 0.922634L1.74429 0.622732L1.73664 0.322829C1.78215 0.321669 1.82926 0.313898 1.87872 0.298236L1.96929 0.58424ZM1.74429 0.622732L1.75193 0.922634L1.63943 0.925503L1.63179 0.6256L1.62414 0.325698L1.73664 0.322829L1.74429 0.622732ZM1.63179 0.6256L1.63943 0.925503L1.52693 0.928371L1.51929 0.628468L1.51164 0.328566L1.62414 0.325698L1.63179 0.6256ZM1.51929 0.628468L1.52693 0.928371C1.37187 0.932324 1.23372 0.876416 1.11819 0.792646L1.29429 0.549769L1.47038 0.306891C1.48811 0.319741 1.49996 0.324994 1.50583 0.32705C1.50874 0.328067 1.51043 0.328392 1.51105 0.328493C1.51139 0.328547 1.51157 0.328561 1.51161 0.328564C1.51164 0.328566 1.51165 0.328566 1.51165 0.328566C1.51165 0.328566 1.51164 0.328566 1.51164 0.328566C1.51164 0.328566 1.51164 0.328566 1.51164 0.328566L1.51929 0.628468ZM1.29429 0.549769L1.11819 0.792646L1.00569 0.711078L1.18179 0.468201L1.35789 0.225324L1.47038 0.306891L1.29429 0.549769ZM1.18179 0.468201L1.00569 0.711078L0.893188 0.62951L1.06929 0.386633L1.24539 0.143756L1.35789 0.225324L1.18179 0.468201ZM1.06929 0.386633L0.893188 0.62951C0.87879 0.61907 0.872454 0.61764 0.874153 0.618126C0.875019 0.618374 0.877203 0.618889 0.8804 0.619104C0.883623 0.619321 0.88674 0.619156 0.889364 0.618757L0.844288 0.322163L0.799212 0.0255687C0.968695 -0.000189602 1.12156 0.0539797 1.24539 0.143756L1.06929 0.386633ZM0.844288 0.322163L0.889364 0.618757L0.776863 0.635855L0.731787 0.339261L0.68671 0.0426665L0.799212 0.0255687L0.844288 0.322163ZM0.731787 0.339261L0.776863 0.635855L0.664362 0.652953L0.619286 0.356359L0.574209 0.0597643L0.68671 0.0426665L0.731787 0.339261ZM0.619286 0.356359L0.664362 0.652953C0.632332 0.657821 0.616339 0.661583 0.611403 0.662976C0.608912 0.663678 0.615137 0.662151 0.626202 0.657147C0.632025 0.654515 0.641647 0.649818 0.653315 0.642458C0.664577 0.635354 0.682037 0.623086 0.700672 0.604147L0.486828 0.39374L0.272985 0.183333C0.313833 0.141818 0.357414 0.1202 0.378981 0.110447C0.404409 0.0989477 0.428856 0.0910572 0.448441 0.08553C0.487658 0.0744625 0.53124 0.0662949 0.574209 0.0597643L0.619286 0.356359ZM0.486828 0.39374L0.700672 0.604147L0.680714 0.62443L0.466871 0.414023L0.253029 0.203616L0.272985 0.183333L0.486828 0.39374ZM0.466871 0.414023L0.634739 0.165386L0.694824 0.205953L0.526957 0.45459L0.359087 0.703227L0.299004 0.66266L0.466871 0.414023ZM0.526957 0.45459V0.75459H0.426956V0.45459V0.15459H0.526957V0.45459Z" fill="#7E8B69"/>
</svg>
