<svg width="66" height="1" viewBox="0 0 66 1" fill="none" xmlns="http://www.w3.org/2000/svg">
<path d="M65.1 0.464355L65.0554 0.167685L65.0775 0.164355H65.1V0.464355ZM64.6375 0.469524L64.754 0.193074V0.193074L64.6375 0.469524ZM64.1875 0.401983L64.3534 0.651902L64.1875 0.401983ZM64.075 0.476686L63.909 0.226766L64.075 0.476686ZM63.9625 0.551389L64.1284 0.801308L63.9625 0.551389ZM63.5125 0.638279L63.5233 0.938083L63.5125 0.638279ZM63.2875 0.570266L63.1256 0.82287L63.2875 0.570266ZM63.175 0.49819L63.3368 0.245586L63.175 0.49819ZM63.0625 0.426114L62.9006 0.678719L63.0625 0.426114ZM62.8375 0.377096L62.8977 0.670987L62.8375 0.377096ZM62.6125 0.423212L62.6727 0.717103L62.6125 0.423212ZM62.3875 0.420456L62.3204 0.712858L62.3875 0.420456ZM62.275 0.394643L62.342 0.102241L62.275 0.394643ZM62.1625 0.368829L62.2295 0.0764278L62.1625 0.368829ZM61.7125 0.40073L61.763 0.696438L61.7125 0.40073ZM61.375 0.413935L61.383 0.114043L61.375 0.413935ZM61.2625 0.410918L61.2705 0.111026L61.2625 0.410918ZM61.0375 0.445072L60.9433 0.160219L61.0375 0.445072ZM60.8125 0.519415L60.9066 0.804268L60.8125 0.519415ZM60.5875 0.568857L60.5549 0.270626L60.5875 0.568857ZM60.3625 0.593399L60.395 0.89163L60.3625 0.593399ZM60.1375 0.531934L60.3019 0.281026L60.1375 0.531934ZM60.025 0.458198L59.8605 0.709106L60.025 0.458198ZM59.9125 0.384461L60.0769 0.133553L59.9125 0.384461ZM59.6875 0.340766L59.7648 0.63061L59.6875 0.340766ZM59.4625 0.400848L59.3851 0.111004L59.4625 0.400848ZM59.2375 0.451072L59.2904 0.746358L59.2375 0.451072ZM59.125 0.471255L59.072 0.175969L59.125 0.471255ZM58.7875 0.489594L58.7298 0.784004L58.7875 0.489594ZM58.5625 0.445541L58.6201 0.151131L58.5625 0.445541ZM57.8875 0.404269L57.8356 0.699758L57.8875 0.404269ZM57.775 0.384537L57.8268 0.0890478L57.775 0.384537ZM57.4375 0.383849L57.5352 0.667475L57.4375 0.383849ZM57.2125 0.461398L57.3102 0.745024L57.2125 0.461398ZM56.9875 0.517209L56.9425 0.220591V0.220591L56.9875 0.517209ZM56.7625 0.551282L56.8074 0.8479V0.8479L56.7625 0.551282ZM56.5375 0.505773L56.3917 0.767974L56.5375 0.505773ZM56.3125 0.380681L56.4582 0.118479L56.3125 0.380681ZM55.6375 0.387005L55.7607 0.660525V0.660525L55.6375 0.387005ZM55.4125 0.488379L55.2892 0.21486V0.21486L55.4125 0.488379ZM55.075 0.431814L55.204 0.161007L55.075 0.431814ZM54.9625 0.378187L54.8334 0.648994L54.9625 0.378187ZM54.7375 0.319687L54.7504 0.0199685L54.7375 0.319687ZM54.2875 0.381759L54.4564 0.629642L54.2875 0.381759ZM54.0625 0.53514L53.8935 0.287258L54.0625 0.53514ZM53.8375 0.580301L53.9184 0.291432L53.8375 0.580301ZM53.725 0.548772L53.8059 0.259902L53.725 0.548772ZM53.6125 0.517242L53.5315 0.806111L53.6125 0.517242ZM53.3875 0.440588L53.4991 0.162151L53.3875 0.440588ZM53.1625 0.35034L53.0508 0.628777L53.1625 0.35034ZM52.9375 0.330807L53.004 0.623334L52.9375 0.330807ZM52.7125 0.381988L52.6459 0.0894613L52.7125 0.381988ZM52.375 0.405012L52.3784 0.105032L52.375 0.405012ZM52.0375 0.422277L51.9854 0.126833L52.0375 0.422277ZM51.1375 0.597579L51.2057 0.305453L51.1375 0.597579ZM50.9125 0.544989L50.8442 0.837116L50.9125 0.544989ZM50.6875 0.51614L50.6943 0.216217L50.6875 0.51614ZM50.2375 0.508373L50.2377 0.208373L50.2375 0.508373ZM49.5625 0.51303L49.5669 0.812998L49.5625 0.51303ZM49.3375 0.530692L49.3797 0.827701L49.3375 0.530692ZM49.1124 0.562705L49.1547 0.859714L49.1124 0.562705ZM48.4374 0.367526L48.2798 0.112263L48.4374 0.367526ZM48.2125 0.506449L48.3701 0.761712L48.2125 0.506449ZM47.5375 0.554108L47.6083 0.262587L47.5375 0.554108ZM47.3125 0.499448L47.3833 0.207927L47.3125 0.499448ZM47.0875 0.513545L46.9838 0.232025L47.0875 0.513545ZM46.8624 0.596398L46.9661 0.877918L46.8624 0.596398ZM46.6374 0.600152L46.5422 0.884626L46.6374 0.600152ZM46.4125 0.524807L46.3172 0.809281L46.4125 0.524807ZM46.1875 0.522758L46.278 0.808762L46.1875 0.522758ZM46.075 0.558382L45.9844 0.272378L46.075 0.558382ZM45.9625 0.594006L45.8719 0.308002L45.9625 0.594006ZM45.7375 0.632498L45.7451 0.9324L45.7375 0.632498ZM45.5124 0.638234L45.5048 0.338332L45.5124 0.638234ZM45.2875 0.559534L45.4635 0.316657L45.2875 0.559534ZM45.1749 0.477967L45.351 0.235089L45.1749 0.477967ZM45.0625 0.396399L44.8864 0.639276L45.0625 0.396399ZM44.8375 0.331929L44.7924 0.0353343L44.8375 0.331929ZM44.6125 0.366124L44.6575 0.662718L44.6125 0.366124ZM44.3875 0.444468L44.244 0.180984L44.3875 0.444468ZM44.1624 0.566961L44.019 0.303476L44.1624 0.566961ZM43.7125 0.629191L43.7133 0.92919L43.7125 0.629191ZM43.4875 0.545652L43.3081 0.786172L43.4875 0.545652ZM43.2625 0.377917L43.4418 0.137397L43.2625 0.377917ZM43.0375 0.371584L43.2077 0.6186L43.0375 0.371584ZM42.8125 0.526654L42.9827 0.773671L42.8125 0.526654ZM42.5875 0.539567L42.438 0.799705L42.5875 0.539567ZM42.3624 0.410323L42.213 0.67046L42.3624 0.410323ZM42.1375 0.382603L42.0439 0.0975468L42.1375 0.382603ZM41.9125 0.456407L42.006 0.741463L41.9125 0.456407ZM41.6875 0.502574L41.7121 0.801561L41.6875 0.502574ZM41.4625 0.521103L41.4871 0.820091L41.4625 0.521103ZM41.2374 0.484108L41.1234 0.761567L41.2374 0.484108ZM41.0124 0.39159L40.8984 0.669049L41.0124 0.39159ZM40.5625 0.35358L40.5698 0.653491L40.5625 0.35358ZM40.3375 0.364288L40.3586 0.66354L40.3375 0.364288ZM40.2249 0.372246L40.2461 0.671498L40.2249 0.372246ZM40.1124 0.380203L40.1336 0.679456L40.1124 0.380203ZM39.8874 0.433899L39.7745 0.155989L39.8874 0.433899ZM39.6624 0.525375L39.7754 0.803285L39.6624 0.525375ZM39.4375 0.575884L39.4502 0.875615L39.4375 0.575884ZM39.3249 0.580655L39.3377 0.880385L39.3249 0.580655ZM39.2125 0.585426L39.1997 0.285695L39.2125 0.585426ZM38.9874 0.599526L38.9627 0.300552L38.9874 0.599526ZM38.7624 0.618184L38.7377 0.31921L38.7624 0.618184ZM38.5374 0.580591L38.422 0.857474L38.5374 0.580591ZM38.3124 0.486748L38.4279 0.209866L38.3124 0.486748ZM38.0875 0.45696L38.1326 0.75354L38.0875 0.45696ZM37.9749 0.474094L38.0201 0.770674L37.9749 0.474094ZM37.8624 0.491227L37.8173 0.194647L37.8624 0.491227ZM37.6375 0.499718L37.6604 0.200599L37.6375 0.499718ZM37.4125 0.482432L37.4354 0.183314L37.4125 0.482432ZM37.1875 0.494506L37.1331 0.199467L37.1875 0.494506ZM36.9625 0.53594L37.0168 0.830979L36.9625 0.53594ZM36.7374 0.524448L36.6549 0.81286L36.7374 0.524448ZM36.5124 0.460029L36.4299 0.748441L36.5124 0.460029ZM36.2875 0.403464L36.3509 0.110257L36.2875 0.403464ZM36.0625 0.354753L36.1259 0.0615452L36.0625 0.354753ZM35.8375 0.401841L35.6766 0.148593L35.8375 0.401841ZM35.6124 0.544729L35.7733 0.797977L35.6124 0.544729ZM35.3874 0.589017L35.3171 0.880641L35.3874 0.589017ZM35.1624 0.534704L35.0921 0.826328L35.1624 0.534704ZM34.9375 0.474806L35.0213 0.186758L34.9375 0.474806ZM34.825 0.442064L34.7411 0.730112L34.825 0.442064ZM34.7125 0.409322L34.6286 0.69737L34.7125 0.409322ZM34.4875 0.37883L34.4935 0.67877L34.4875 0.37883ZM34.2624 0.383331L34.2565 0.0833909L34.2624 0.383331ZM34.0374 0.361865L33.9756 0.655413L34.0374 0.361865ZM33.8124 0.314432L33.7506 0.60798L33.8124 0.314432ZM33.5875 0.3061L33.6281 0.603334L33.5875 0.3061ZM33.3624 0.33687L33.3218 0.0396366L33.3624 0.33687ZM33.1375 0.371679L33.0864 0.0760538L33.1375 0.371679ZM32.9124 0.410529L32.9635 0.706154L32.9124 0.410529ZM32.2374 0.424643L32.2519 0.124993L32.2374 0.424643ZM32.1249 0.419208L32.1105 0.718859L32.1249 0.419208ZM32.0124 0.413773L32.0269 0.114123L32.0124 0.413773ZM31.7874 0.391966L31.8307 0.0950933L31.7874 0.391966ZM31.5625 0.359221L31.5192 0.656094L31.5625 0.359221ZM31.3375 0.348539L31.3526 0.648156V0.648156L31.3375 0.348539ZM31.1124 0.359918L31.0973 0.0603015V0.0603015L31.1124 0.359918ZM30.8875 0.429264L31.0352 0.690365L30.8875 0.429264ZM30.7749 0.492919L30.6272 0.231819L30.7749 0.492919ZM30.6624 0.556575L30.8102 0.817676L30.6624 0.556575ZM30.4375 0.585299L30.5264 0.298792L30.4375 0.585299ZM30.2124 0.515437L30.1235 0.801943L30.2124 0.515437ZM29.9874 0.503784L30.0482 0.79756L29.9874 0.503784ZM29.875 0.527062L29.8142 0.233285L29.875 0.527062ZM29.7625 0.55034L29.7017 0.256563L29.7625 0.55034ZM29.5374 0.517668L29.4039 0.786282L29.5374 0.517668ZM29.4249 0.461717L29.5585 0.193104L29.4249 0.461717ZM29.3125 0.405767L29.1789 0.674381L29.3125 0.405767ZM29.0874 0.354954L29.1011 0.654642L29.0874 0.354954ZM28.8624 0.36523L28.8488 0.0655422L28.8624 0.36523ZM28.6374 0.424748L28.768 0.694848L28.6374 0.424748ZM28.4124 0.53351L28.2819 0.263411L28.4124 0.53351ZM28.1875 0.566176L28.2443 0.271613L28.1875 0.566176ZM28.0749 0.54446L28.0181 0.839023L28.0749 0.54446ZM27.9624 0.522745L28.0193 0.228182L27.9624 0.522745ZM27.7374 0.520154L27.7877 0.815911L27.7374 0.520154ZM27.5124 0.558404L27.4622 0.262647L27.5124 0.558404ZM27.2874 0.54196L27.197 0.828004L27.2874 0.54196ZM27.0625 0.470823L27.1529 0.184779L27.0625 0.470823ZM26.8375 0.431627L26.8278 0.731471L26.8375 0.431627ZM26.725 0.427999L26.7346 0.128155L26.725 0.427999ZM26.6125 0.424372L26.6028 0.724216V0.724216L26.6125 0.424372ZM26.3875 0.438214L26.3414 0.141766L26.3875 0.438214ZM26.1624 0.473151L26.2085 0.769599L26.1624 0.473151ZM25.9374 0.443745L26.0528 0.166822L25.9374 0.443745ZM25.7124 0.349995L25.5971 0.626918L25.7124 0.349995ZM25.4874 0.321957L25.537 0.617838V0.617838L25.4874 0.321957ZM25.2624 0.359629L25.2129 0.0637479V0.0637479L25.2624 0.359629ZM24.8125 0.560783L24.955 0.824732L24.8125 0.560783ZM24.5875 0.542722L24.7596 0.297038L24.5875 0.542722ZM24.3624 0.385055L24.1903 0.630739L24.3624 0.385055ZM24.1375 0.368838L24.2834 0.63097L24.1375 0.368838ZM24.025 0.431454L24.1709 0.693586L24.025 0.431454ZM23.9125 0.494071L23.7666 0.231939L23.9125 0.494071ZM23.6875 0.568473L23.7187 0.86684V0.86684L23.6875 0.568473ZM23.5749 0.580259L23.5437 0.281892V0.281892L23.5749 0.580259ZM23.2374 0.584063L23.2894 0.28859L23.2374 0.584063ZM23.0124 0.544526L22.9605 0.839999L23.0124 0.544526ZM22.7874 0.468307L22.922 0.200171L22.7874 0.468307ZM22.5625 0.355404L22.4279 0.623539L22.5625 0.355404ZM22.3375 0.380003L22.5128 0.623411L22.3375 0.380003ZM22.2249 0.461053L22.0496 0.217644L22.2249 0.461053ZM22.1124 0.542103L22.2878 0.785512L22.1124 0.542103ZM21.8875 0.547727L22.0545 0.298549L21.8875 0.547727ZM21.6624 0.396872L21.4954 0.64605L21.6624 0.396872ZM21.4375 0.379L21.5741 0.646078L21.4375 0.379ZM21.2125 0.494109L21.0758 0.227031L21.2125 0.494109ZM20.9874 0.538563L21.0221 0.240576L20.9874 0.538563ZM20.8749 0.525462L20.8402 0.823449L20.8749 0.525462ZM20.7624 0.512362L20.7277 0.810348L20.7624 0.512362ZM20.5374 0.47242L20.6071 0.18061L20.5374 0.47242ZM20.3125 0.418737L20.2428 0.710546L20.3125 0.418737ZM20.0874 0.374714L20.1327 0.0781529L20.0874 0.374714ZM19.9749 0.357533L20.0202 0.0609714L19.9749 0.357533ZM19.8624 0.340351L19.8172 0.636913L19.8624 0.340351ZM19.6375 0.328944L19.6528 0.62855L19.6375 0.328944ZM19.5249 0.334718L19.5096 0.0351128L19.5249 0.334718ZM19.4124 0.340493L19.4278 0.640098L19.4124 0.340493ZM19.1875 0.369202L19.2474 0.663156L19.1875 0.369202ZM18.9624 0.415071L18.9025 0.121117L18.9624 0.415071ZM18.7374 0.483551L18.85 0.761626L18.7374 0.483551ZM18.5124 0.574643L18.3999 0.296568L18.5124 0.574643ZM18.2874 0.61219L18.2662 0.911434L18.2874 0.61219ZM18.0625 0.596192L18.0837 0.296947L18.0625 0.596192ZM17.8375 0.572322L17.7955 0.86938V0.86938L17.8375 0.572322ZM17.6124 0.54058L17.6544 0.243521V0.243521L17.6124 0.54058ZM17.3874 0.521278L17.3966 0.221417L17.3874 0.521278ZM17.1624 0.514416L17.1533 0.814277L17.1624 0.514416ZM16.9375 0.459862L17.0616 0.18674L16.9375 0.459862ZM16.8249 0.408739L16.7008 0.681861V0.681861L16.8249 0.408739ZM16.7124 0.357615L16.8366 0.0844935V0.0844935L16.7124 0.357615ZM16.4874 0.379814L16.6513 0.631146L16.4874 0.379814ZM16.2624 0.526457L16.0986 0.275125L16.2624 0.526457ZM16.0374 0.563039L16.1306 0.277861L16.0374 0.563039ZM15.8124 0.48956L15.7193 0.774737L15.8124 0.48956ZM15.5874 0.469884L15.5425 0.173276L15.5874 0.469884ZM15.1375 0.529493L15.1151 0.23033L15.1375 0.529493ZM14.9124 0.54633L14.9348 0.845494L14.9124 0.54633ZM14.6874 0.503594L14.8116 0.230501L14.6874 0.503594ZM14.4624 0.401283L14.3383 0.674376L14.4624 0.401283ZM14.2374 0.335932L14.275 0.0382925L14.2374 0.335932ZM14.0124 0.307541L13.9749 0.60518L14.0124 0.307541ZM13.7874 0.314654L13.8433 0.609413L13.7874 0.314654ZM13.6749 0.335963L13.6191 0.0412043L13.6749 0.335963ZM13.5624 0.357272L13.6183 0.652031L13.5624 0.357272ZM13.3374 0.401093L13.2786 0.106924L13.3374 0.401093ZM13.1124 0.446115L13.1713 0.740283L13.1124 0.446115ZM12.8875 0.433462L12.977 0.147123L12.8875 0.433462ZM12.6625 0.363134L12.573 0.649472L12.6625 0.363134ZM12.4375 0.399914L12.5991 0.652653L12.4375 0.399914ZM12.3249 0.471859L12.1633 0.219121L12.3249 0.471859ZM11.9874 0.575135L12.0893 0.292959L11.9874 0.575135ZM11.7624 0.493908L11.6606 0.776083L11.7624 0.493908ZM11.5374 0.417619L11.6281 0.131653L11.5374 0.417619ZM11.4249 0.381944L11.3343 0.66791L11.4249 0.381944ZM11.3124 0.346269L11.2218 0.632235L11.3124 0.346269ZM11.0874 0.365692L10.9555 0.0962699L11.0874 0.365692ZM10.8624 0.475888L10.9944 0.74531L10.8624 0.475888ZM10.6375 0.531366L10.6385 0.831364L10.6375 0.531366ZM10.1875 0.54218L10.2132 0.841076L10.1875 0.54218ZM9.96245 0.561534L9.93674 0.262637L9.96245 0.561534ZM9.73745 0.583605L9.7046 0.285409L9.73745 0.583605ZM9.62495 0.595998L9.6578 0.894194L9.62495 0.595998ZM9.51245 0.608392L9.4796 0.310196L9.51245 0.608392ZM9.28745 0.603621L9.2422 0.900188L9.28745 0.603621ZM9.06245 0.56929L9.1077 0.272722L9.06245 0.56929ZM8.83745 0.494591L8.97404 0.227493L8.83745 0.494591ZM8.61245 0.379525L8.47585 0.646623L8.61245 0.379525ZM8.38745 0.343073L8.4427 0.637941L8.38745 0.343073ZM8.27495 0.364153L8.2197 0.0692851L8.27495 0.364153ZM8.16245 0.385234L8.2177 0.680102L8.16245 0.385234ZM7.93745 0.415164L7.96098 0.71424L7.93745 0.415164ZM7.71245 0.432863L7.68892 0.133787L7.71245 0.432863ZM7.48745 0.425309L7.53074 0.128448L7.48745 0.425309ZM7.26245 0.392501L7.21916 0.689362L7.26245 0.392501ZM7.03745 0.393346L6.99198 0.0968111L7.03745 0.393346ZM6.92495 0.410595L6.97041 0.70713L6.92495 0.410595ZM6.81245 0.427844L6.76698 0.131309L6.81245 0.427844ZM6.58745 0.418334L6.65687 0.126477L6.58745 0.418334ZM6.36245 0.364816L6.29303 0.656674L6.36245 0.364816ZM6.13745 0.329258L6.16084 0.0301712L6.13745 0.329258ZM5.91245 0.311658L5.88905 0.610745L5.91245 0.311658ZM5.68745 0.357023L5.81759 0.627326L5.68745 0.357023ZM5.57495 0.411187L5.44481 0.140885L5.57495 0.411187ZM5.46245 0.465352L5.59259 0.735654L5.46245 0.465352ZM4.78745 0.509615L4.82167 0.211574V0.211574L4.78745 0.509615ZM4.56245 0.483779L4.52822 0.781821V0.781821L4.56245 0.483779ZM4.33745 0.49636L4.27113 0.203781L4.33745 0.49636ZM3.88745 0.558699L3.92491 0.261047L3.88745 0.558699ZM3.66245 0.530386L3.625 0.828038L3.66245 0.530386ZM3.43745 0.532453L3.39463 0.235525L3.43745 0.532453ZM3.21245 0.564902L3.25527 0.86183L3.21245 0.564902ZM2.98745 0.545975L3.07692 0.259627L2.98745 0.545975ZM2.87495 0.510825L2.78548 0.797173L2.87495 0.510825ZM2.76245 0.475674L2.67298 0.762022L2.76245 0.475674ZM2.53745 0.417392L2.59787 0.123539L2.53745 0.417392ZM2.42495 0.39426L2.36452 0.688112L2.42495 0.39426ZM2.31245 0.371128L2.37287 0.0772754L2.31245 0.371128ZM2.08745 0.396533L1.96861 0.121076L2.08745 0.396533ZM1.86245 0.493605L1.98129 0.769062L1.86245 0.493605ZM1.63745 0.547189L1.6509 0.846888L1.63745 0.547189ZM1.41245 0.557283L1.39901 0.257585L1.41245 0.557283ZM1.18745 0.571236L1.21112 0.870301L1.18745 0.571236ZM0.962448 0.589047L0.938774 0.289982L0.962448 0.589047ZM0.73745 0.570346L0.808945 0.27899L0.73745 0.570346ZM0.512444 0.515133L0.440948 0.806489L0.512444 0.515133ZM0.29995 0.475941L0.265419 0.773948L-0.000106812 0.743184L-5.34058e-05 0.475881L0.29995 0.475941ZM0.29995 0.464355V0.164355H0.600014L0.599953 0.464416L0.29995 0.464355ZM65.2 0.464355V0.764355H65.1V0.464355V0.164355H65.2V0.464355ZM65.1 0.464355L65.1445 0.761026L64.9695 0.787317L64.925 0.490647L64.8804 0.193976L65.0554 0.167685L65.1 0.464355ZM64.925 0.490647L64.9695 0.787317C64.8214 0.809566 64.6647 0.806551 64.5209 0.745973L64.6375 0.469524L64.754 0.193074C64.7602 0.195716 64.7951 0.206782 64.8804 0.193976L64.925 0.490647ZM64.6375 0.469524L64.5209 0.745973L64.4084 0.698559L64.525 0.422109L64.6415 0.145659L64.754 0.193074L64.6375 0.469524ZM64.525 0.422109L64.4084 0.698559L64.2959 0.651144L64.4125 0.374694L64.529 0.0982442L64.6415 0.145659L64.525 0.422109ZM64.4125 0.374694L64.2959 0.651144C64.2986 0.652253 64.3039 0.654136 64.3117 0.655296C64.3195 0.656475 64.3279 0.656617 64.3361 0.655627C64.3531 0.653564 64.3594 0.647948 64.3534 0.651902L64.1875 0.401983L64.0215 0.152063C64.1698 0.0536029 64.3503 0.0229379 64.529 0.0982442L64.4125 0.374694ZM64.1875 0.401983L64.3534 0.651902L64.2409 0.726605L64.075 0.476686L63.909 0.226766L64.0215 0.152063L64.1875 0.401983ZM64.075 0.476686L64.2409 0.726605L64.1284 0.801308L63.9625 0.551389L63.7965 0.301469L63.909 0.226766L64.075 0.476686ZM63.9625 0.551389L64.1284 0.801308C64.0166 0.875579 63.8887 0.924886 63.7483 0.929959L63.7375 0.630154L63.7266 0.330349C63.7362 0.330005 63.7583 0.326802 63.7965 0.301469L63.9625 0.551389ZM63.7375 0.630154L63.7483 0.929959L63.6358 0.934021L63.625 0.634216L63.6141 0.334412L63.7266 0.330349L63.7375 0.630154ZM63.625 0.634216L63.6358 0.934021L63.5233 0.938083L63.5125 0.638279L63.5016 0.338474L63.6141 0.334412L63.625 0.634216ZM63.5125 0.638279L63.5233 0.938083C63.3766 0.943381 63.2422 0.897564 63.1256 0.82287L63.2875 0.570266L63.4493 0.317661C63.4827 0.339068 63.4983 0.338593 63.5016 0.338474L63.5125 0.638279ZM63.2875 0.570266L63.1256 0.82287L63.0131 0.750794L63.175 0.49819L63.3368 0.245586L63.4493 0.317661L63.2875 0.570266ZM63.175 0.49819L63.0131 0.750794L62.9006 0.678719L63.0625 0.426114L63.2243 0.17351L63.3368 0.245586L63.175 0.49819ZM63.0625 0.426114L62.9006 0.678719C62.8884 0.670879 62.8837 0.670423 62.8861 0.670947C62.8872 0.67119 62.8892 0.671491 62.8918 0.671507C62.8943 0.671524 62.8964 0.671249 62.8977 0.670987L62.8375 0.377096L62.7772 0.0832058C62.9413 0.0495796 63.095 0.0907087 63.2243 0.17351L63.0625 0.426114ZM62.8375 0.377096L62.8977 0.670987L62.7852 0.694045L62.725 0.400154L62.6647 0.106263L62.7772 0.0832058L62.8375 0.377096ZM62.725 0.400154L62.7852 0.694045L62.6727 0.717103L62.6125 0.423212L62.5522 0.129321L62.6647 0.106263L62.725 0.400154ZM62.6125 0.423212L62.6727 0.717103C62.5554 0.74114 62.437 0.739618 62.3204 0.712858L62.3875 0.420456L62.4545 0.128055C62.4879 0.135712 62.5195 0.136027 62.5522 0.129321L62.6125 0.423212ZM62.3875 0.420456L62.3204 0.712858L62.2079 0.687044L62.275 0.394643L62.342 0.102241L62.4545 0.128055L62.3875 0.420456ZM62.275 0.394643L62.2079 0.687044L62.0954 0.661231L62.1625 0.368829L62.2295 0.0764278L62.342 0.102241L62.275 0.394643ZM62.1625 0.368829L62.0954 0.661231C62.0585 0.65278 62.0235 0.651892 61.988 0.657962L61.9375 0.362254L61.8869 0.0665466C62.0014 0.0469658 62.1164 0.0504611 62.2295 0.0764278L62.1625 0.368829ZM61.9375 0.362254L61.988 0.657962L61.8755 0.6772L61.825 0.381492L61.7744 0.0857848L61.8869 0.0665466L61.9375 0.362254ZM61.825 0.381492L61.8755 0.6772L61.763 0.696438L61.7125 0.40073L61.6619 0.105023L61.7744 0.0857848L61.825 0.381492ZM61.7125 0.40073L61.763 0.696438C61.6689 0.712526 61.5743 0.719389 61.4794 0.716844L61.4875 0.416952L61.4955 0.11706C61.5506 0.118537 61.606 0.114586 61.6619 0.105023L61.7125 0.40073ZM61.4875 0.416952L61.4794 0.716844L61.3669 0.713827L61.375 0.413935L61.383 0.114043L61.4955 0.11706L61.4875 0.416952ZM61.375 0.413935L61.3669 0.713827L61.2544 0.71081L61.2625 0.410918L61.2705 0.111026L61.383 0.114043L61.375 0.413935ZM61.2625 0.410918L61.2544 0.71081C61.2159 0.709777 61.1754 0.715446 61.1316 0.729926L61.0375 0.445072L60.9433 0.160219C61.0495 0.125138 61.159 0.108037 61.2705 0.111026L61.2625 0.410918ZM61.0375 0.445072L61.1316 0.729926L61.0191 0.767097L60.925 0.482244L60.8308 0.19739L60.9433 0.160219L61.0375 0.445072ZM60.925 0.482244L61.0191 0.767097L60.9066 0.804268L60.8125 0.519415L60.7183 0.234561L60.8308 0.19739L60.925 0.482244ZM60.8125 0.519415L60.9066 0.804268C60.8125 0.835349 60.7169 0.856518 60.62 0.867088L60.5875 0.568857L60.5549 0.270626C60.608 0.264834 60.6624 0.253042 60.7183 0.234561L60.8125 0.519415ZM60.5875 0.568857L60.62 0.867088L60.5075 0.879359L60.475 0.581128L60.4424 0.282897L60.5549 0.270626L60.5875 0.568857ZM60.475 0.581128L60.5075 0.879359L60.395 0.89163L60.3625 0.593399L60.3299 0.295168L60.4424 0.282897L60.475 0.581128ZM60.3625 0.593399L60.395 0.89163C60.2383 0.908717 60.0947 0.86263 59.973 0.782842L60.1375 0.531934L60.3019 0.281026C60.3171 0.290971 60.3261 0.293965 60.329 0.294772C60.3313 0.295405 60.331 0.295051 60.3299 0.295168L60.3625 0.593399ZM60.1375 0.531934L59.973 0.782842L59.8605 0.709106L60.025 0.458198L60.1894 0.207289L60.3019 0.281026L60.1375 0.531934ZM60.025 0.458198L59.8605 0.709106L59.748 0.63537L59.9125 0.384461L60.0769 0.133553L60.1894 0.207289L60.025 0.458198ZM59.9125 0.384461L59.748 0.63537C59.7375 0.628496 59.736 0.62985 59.7428 0.631168C59.746 0.631803 59.7501 0.632197 59.7546 0.632033C59.7591 0.63187 59.7626 0.631203 59.7648 0.63061L59.6875 0.340766L59.6101 0.0509221C59.7807 0.00536108 59.9427 0.0456044 60.0769 0.133553L59.9125 0.384461ZM59.6875 0.340766L59.7648 0.63061L59.6523 0.660651L59.575 0.370807L59.4976 0.0809631L59.6101 0.0509221L59.6875 0.340766ZM59.575 0.370807L59.6523 0.660651L59.5398 0.690692L59.4625 0.400848L59.3851 0.111004L59.4976 0.0809631L59.575 0.370807ZM59.4625 0.400848L59.5398 0.690692C59.4569 0.712832 59.3738 0.731402 59.2904 0.746358L59.2375 0.451072L59.1845 0.155786C59.2511 0.143832 59.318 0.128919 59.3851 0.111004L59.4625 0.400848ZM59.2375 0.451072L59.2904 0.746358L59.1779 0.766541L59.125 0.471255L59.072 0.175969L59.1845 0.155786L59.2375 0.451072ZM59.125 0.471255L59.1779 0.766541L59.0654 0.786723L59.0125 0.491438L58.9595 0.196152L59.072 0.175969L59.125 0.471255ZM59.0125 0.491438L59.0654 0.786723C58.9537 0.806766 58.8412 0.805813 58.7298 0.784004L58.7875 0.489594L58.8451 0.195184C58.8837 0.202744 58.9212 0.203019 58.9595 0.196152L59.0125 0.491438ZM58.7875 0.489594L58.7298 0.784004L58.6173 0.761977L58.675 0.467567L58.7326 0.173157L58.8451 0.195184L58.7875 0.489594ZM58.675 0.467567L58.6173 0.761977L58.5048 0.739951L58.5625 0.445541L58.6201 0.151131L58.7326 0.173157L58.675 0.467567ZM58.5625 0.445541L58.5048 0.739951C58.4485 0.728934 58.393 0.723576 58.3378 0.723636L58.3375 0.423636L58.3371 0.123636C58.432 0.123534 58.5264 0.132779 58.6201 0.151131L58.5625 0.445541ZM58.3375 0.423636L58.3378 0.723636L58.2253 0.723757L58.225 0.423757L58.2246 0.123757L58.3371 0.123636L58.3375 0.423636ZM58.225 0.423757L58.2253 0.723757L58.1128 0.723879L58.1125 0.423879L58.1121 0.123879L58.2246 0.123757L58.225 0.423757ZM58.1125 0.423879L58.1128 0.723879C58.02 0.723979 57.9276 0.715886 57.8356 0.699758L57.8875 0.404269L57.9393 0.108779C57.9973 0.11896 58.0549 0.123941 58.1121 0.123879L58.1125 0.423879ZM57.8875 0.404269L57.8356 0.699758L57.7231 0.680027L57.775 0.384537L57.8268 0.0890478L57.9393 0.108779L57.8875 0.404269ZM57.775 0.384537L57.7231 0.680027L57.6106 0.660295L57.6625 0.364806L57.7143 0.0693164L57.8268 0.0890478L57.775 0.384537ZM57.6625 0.364806L57.6106 0.660295C57.5878 0.656295 57.5642 0.657467 57.5352 0.667475L57.4375 0.383849L57.3397 0.100222C57.4607 0.0585313 57.5871 0.0470082 57.7143 0.0693164L57.6625 0.364806ZM57.4375 0.383849L57.5352 0.667475L57.4227 0.70625L57.325 0.422623L57.2272 0.138997L57.3397 0.100222L57.4375 0.383849ZM57.325 0.422623L57.4227 0.70625L57.3102 0.745024L57.2125 0.461398L57.1147 0.177771L57.2272 0.138997L57.325 0.422623ZM57.2125 0.461398L57.3102 0.745024C57.2188 0.776526 57.1261 0.799627 57.0324 0.813827L56.9875 0.517209L56.9425 0.220591C56.9988 0.212076 57.0561 0.197969 57.1147 0.177771L57.2125 0.461398ZM56.9875 0.517209L57.0324 0.813827L56.9199 0.830864L56.875 0.534246L56.83 0.237627L56.9425 0.220591L56.9875 0.517209ZM56.875 0.534246L56.9199 0.830864L56.8074 0.8479L56.7625 0.551282L56.7175 0.254664L56.83 0.237627L56.875 0.534246ZM56.7625 0.551282L56.8074 0.8479C56.6582 0.870484 56.5167 0.837474 56.3917 0.767974L56.5375 0.505773L56.6832 0.243571C56.7082 0.257466 56.7167 0.254796 56.7175 0.254664L56.7625 0.551282ZM56.5375 0.505773L56.3917 0.767974L56.2792 0.705428L56.425 0.443227L56.5707 0.181025L56.6832 0.243571L56.5375 0.505773ZM56.425 0.443227L56.2792 0.705428L56.1667 0.642882L56.3125 0.380681L56.4582 0.118479L56.5707 0.181025L56.425 0.443227ZM56.3125 0.380681L56.1667 0.642882C56.1328 0.624054 56.1119 0.621935 56.0996 0.622436L56.0875 0.32268L56.0753 0.022925C56.213 0.0173647 56.3421 0.0539124 56.4582 0.118479L56.3125 0.380681ZM56.0875 0.32268L56.0996 0.622436L55.9871 0.626982L55.975 0.327226L55.9628 0.0274708L56.0753 0.022925L56.0875 0.32268ZM55.975 0.327226L55.9871 0.626982L55.8746 0.631527L55.8625 0.331772L55.8503 0.0320165L55.9628 0.0274708L55.975 0.327226ZM55.8625 0.331772L55.8746 0.631527C55.8415 0.632864 55.804 0.640993 55.7607 0.660525L55.6375 0.387005L55.5142 0.113485C55.6209 0.0654338 55.7334 0.0367402 55.8503 0.0320165L55.8625 0.331772ZM55.6375 0.387005L55.7607 0.660525L55.6482 0.711212L55.525 0.437692L55.4017 0.164172L55.5142 0.113485L55.6375 0.387005ZM55.525 0.437692L55.6482 0.711212L55.5357 0.761899L55.4125 0.488379L55.2892 0.21486L55.4017 0.164172L55.525 0.437692ZM55.4125 0.488379L55.5357 0.761899C55.3793 0.83234 55.2121 0.829512 55.0584 0.756247L55.1875 0.48544L55.3165 0.214634C55.3182 0.215419 55.3176 0.214977 55.3151 0.214343C55.3124 0.213687 55.3085 0.213075 55.3039 0.213014C55.2992 0.212953 55.2952 0.213464 55.2921 0.214133C55.2891 0.214784 55.2881 0.215362 55.2892 0.21486L55.4125 0.488379ZM55.1875 0.48544L55.0584 0.756247L54.9459 0.70262L55.075 0.431814L55.204 0.161007L55.3165 0.214634L55.1875 0.48544ZM55.075 0.431814L54.9459 0.70262L54.8334 0.648994L54.9625 0.378187L55.0915 0.107381L55.204 0.161007L55.075 0.431814ZM54.9625 0.378187L54.8334 0.648994C54.7908 0.628721 54.7551 0.620734 54.7245 0.619406L54.7375 0.319687L54.7504 0.0199685C54.8698 0.0251382 54.9841 0.0561507 55.0915 0.107381L54.9625 0.378187ZM54.7375 0.319687L54.7245 0.619406L54.612 0.614533L54.625 0.314815L54.6379 0.0150955L54.7504 0.0199685L54.7375 0.319687ZM54.625 0.314815L54.612 0.614533L54.4995 0.609661L54.5125 0.309942L54.5254 0.0102226L54.6379 0.0150955L54.625 0.314815ZM54.5125 0.309942L54.4995 0.609661C54.499 0.609638 54.4967 0.609494 54.4912 0.611254C54.4851 0.613182 54.4736 0.617966 54.4564 0.629642L54.2875 0.381759L54.1185 0.133877C54.2355 0.0541134 54.3732 0.00362691 54.5254 0.0102226L54.5125 0.309942ZM54.2875 0.381759L54.4564 0.629642L54.3439 0.706332L54.175 0.45845L54.006 0.210567L54.1185 0.133877L54.2875 0.381759ZM54.175 0.45845L54.3439 0.706332L54.2314 0.783023L54.0625 0.53514L53.8935 0.287258L54.006 0.210567L54.175 0.45845ZM54.0625 0.53514L54.2314 0.783023C54.0967 0.874867 53.9313 0.918161 53.7565 0.869171L53.8375 0.580301L53.9184 0.291432C53.9155 0.290616 53.9111 0.289757 53.9056 0.289539C53.9001 0.289321 53.8951 0.28981 53.8909 0.290642C53.8824 0.292349 53.8831 0.294349 53.8935 0.287258L54.0625 0.53514ZM53.8375 0.580301L53.7565 0.869171L53.644 0.837641L53.725 0.548772L53.8059 0.259902L53.9184 0.291432L53.8375 0.580301ZM53.725 0.548772L53.644 0.837641L53.5315 0.806111L53.6125 0.517242L53.6934 0.228373L53.8059 0.259902L53.725 0.548772ZM53.6125 0.517242L53.5315 0.806111C53.4457 0.782064 53.3604 0.752987 53.2758 0.719025L53.3875 0.440588L53.4991 0.162151C53.5645 0.188355 53.6292 0.21038 53.6934 0.228373L53.6125 0.517242ZM53.3875 0.440588L53.2758 0.719025L53.1633 0.673901L53.275 0.395464L53.3866 0.117027L53.4991 0.162151L53.3875 0.440588ZM53.275 0.395464L53.1633 0.673901L53.0508 0.628777L53.1625 0.35034L53.2741 0.0719032L53.3866 0.117027L53.275 0.395464ZM53.1625 0.35034L53.0508 0.628777C53.0293 0.620179 53.0164 0.620506 53.004 0.623334L52.9375 0.330807L52.8709 0.0382798C53.0085 0.00698677 53.1456 0.0203364 53.2741 0.0719032L53.1625 0.35034ZM52.9375 0.330807L53.004 0.623334L52.8915 0.648925L52.825 0.356398L52.7584 0.0638705L52.8709 0.0382798L52.9375 0.330807ZM52.825 0.356398L52.8915 0.648925L52.779 0.674516L52.7125 0.381988L52.6459 0.0894613L52.7584 0.0638705L52.825 0.356398ZM52.7125 0.381988L52.779 0.674516C52.6816 0.696663 52.5832 0.707407 52.484 0.706276L52.4875 0.406296L52.4909 0.106315C52.5417 0.106896 52.5933 0.101435 52.6459 0.0894613L52.7125 0.381988ZM52.4875 0.406296L52.484 0.706276L52.3715 0.704993L52.375 0.405012L52.3784 0.105032L52.4909 0.106315L52.4875 0.406296ZM52.375 0.405012L52.3715 0.704993L52.259 0.703709L52.2625 0.403728L52.2659 0.103748L52.3784 0.105032L52.375 0.405012ZM52.2625 0.403728L52.259 0.703709C52.2029 0.703069 52.1465 0.70768 52.0895 0.717722L52.0375 0.422277L51.9854 0.126833C52.0784 0.110431 52.172 0.102677 52.2659 0.103748L52.2625 0.403728ZM52.0375 0.422277L52.0895 0.717722L51.977 0.737554L51.925 0.442109L51.8729 0.146665L51.9854 0.126833L52.0375 0.422277ZM51.925 0.442109L51.977 0.737554L51.8645 0.757386L51.8125 0.461942L51.7604 0.166497L51.8729 0.146665L51.925 0.442109ZM51.8125 0.461942L51.8645 0.757386C51.8029 0.768253 51.7407 0.78352 51.6778 0.803375L51.5875 0.517299L51.4971 0.231223C51.5842 0.203711 51.672 0.182073 51.7604 0.166497L51.8125 0.461942ZM51.5875 0.517299L51.6778 0.803375L51.5653 0.8389L51.475 0.552824L51.3846 0.266748L51.4971 0.231223L51.5875 0.517299ZM51.475 0.552824L51.5653 0.8389L51.4528 0.874425L51.3625 0.588349L51.2721 0.302273L51.3846 0.266748L51.475 0.552824ZM51.3625 0.588349L51.4528 0.874425C51.3276 0.913969 51.1978 0.919766 51.0692 0.889706L51.1375 0.597579L51.2057 0.305453C51.2271 0.310452 51.2473 0.310096 51.2721 0.302273L51.3625 0.588349ZM51.1375 0.597579L51.0692 0.889706L50.9567 0.863411L51.025 0.571284L51.0932 0.279158L51.2057 0.305453L51.1375 0.597579ZM51.025 0.571284L50.9567 0.863411L50.8442 0.837116L50.9125 0.544989L50.9807 0.252863L51.0932 0.279158L51.025 0.571284ZM50.9125 0.544989L50.8442 0.837116C50.7888 0.824173 50.7344 0.817283 50.6806 0.816062L50.6875 0.51614L50.6943 0.216217C50.7905 0.218403 50.8861 0.230745 50.9807 0.252863L50.9125 0.544989ZM50.6875 0.51614L50.6806 0.816062L50.5681 0.813508L50.575 0.513585L50.5818 0.213663L50.6943 0.216217L50.6875 0.51614ZM50.575 0.513585L50.5681 0.813508L50.4556 0.810954L50.4625 0.511031L50.4693 0.211108L50.5818 0.213663L50.575 0.513585ZM50.4625 0.511031L50.4556 0.810954C50.3828 0.8093 50.31 0.80844 50.2372 0.808373L50.2375 0.508373L50.2377 0.208373C50.3149 0.208444 50.3921 0.209356 50.4693 0.211108L50.4625 0.511031ZM50.2375 0.508373L50.2372 0.808373L50.1247 0.80827L50.125 0.50827L50.1252 0.20827L50.2377 0.208373L50.2375 0.508373ZM50.125 0.50827L50.1247 0.80827L50.0122 0.808167L50.0125 0.508167L50.0127 0.208167L50.1252 0.20827L50.125 0.50827ZM50.0125 0.508167L50.0122 0.808167C49.9387 0.808099 49.8653 0.808606 49.7919 0.809687L49.7875 0.509719L49.783 0.209752C49.8596 0.208625 49.9362 0.208097 50.0127 0.208167L50.0125 0.508167ZM49.7875 0.509719L49.7919 0.809687L49.6794 0.811342L49.675 0.511375L49.6705 0.211407L49.783 0.209752L49.7875 0.509719ZM49.675 0.511375L49.6794 0.811342L49.5669 0.812998L49.5625 0.51303L49.558 0.213062L49.6705 0.211407L49.675 0.511375ZM49.5625 0.51303L49.5669 0.812998C49.5047 0.813913 49.4423 0.818796 49.3797 0.827701L49.3375 0.530692L49.2952 0.233683C49.3826 0.221246 49.4702 0.214354 49.558 0.213062L49.5625 0.51303ZM49.3375 0.530692L49.3797 0.827701L49.2672 0.843707L49.2249 0.546698L49.1827 0.24969L49.2952 0.233683L49.3375 0.530692ZM49.2249 0.546698L49.2672 0.843707L49.1547 0.859714L49.1124 0.562705L49.0702 0.265696L49.1827 0.24969L49.2249 0.546698ZM49.1124 0.562705L49.1547 0.859714C48.9984 0.881949 48.8531 0.840685 48.7287 0.763103L48.8874 0.50855L49.0462 0.253997C49.0603 0.26278 49.0682 0.26502 49.0702 0.265499C49.0712 0.265751 49.0714 0.265707 49.0709 0.265685C49.0705 0.265662 49.0701 0.265702 49.0702 0.265696L49.1124 0.562705ZM48.8874 0.50855L48.7287 0.763103L48.6162 0.692941L48.775 0.438388L48.9337 0.183835L49.0462 0.253997L48.8874 0.50855ZM48.775 0.438388L48.6162 0.692941L48.5037 0.622779L48.6624 0.368226L48.8212 0.113673L48.9337 0.183835L48.775 0.438388ZM48.6624 0.368226L48.5037 0.622779C48.505 0.623584 48.5214 0.632883 48.549 0.632969C48.5767 0.633055 48.5934 0.623821 48.5951 0.622789L48.4374 0.367526L48.2798 0.112263C48.3565 0.0649237 48.4482 0.0326523 48.5509 0.0329718C48.6535 0.0332912 48.7449 0.0660942 48.8212 0.113673L48.6624 0.368226ZM48.4374 0.367526L48.5951 0.622789L48.4826 0.692251L48.3249 0.436987L48.1673 0.181724L48.2798 0.112263L48.4374 0.367526ZM48.3249 0.436987L48.4826 0.692251L48.3701 0.761712L48.2125 0.506449L48.0548 0.251185L48.1673 0.181724L48.3249 0.436987ZM48.2125 0.506449L48.3701 0.761712C48.257 0.831546 48.1294 0.87557 47.9911 0.877269L47.9874 0.577292L47.9838 0.277315C47.9955 0.277171 48.0179 0.273967 48.0548 0.251185L48.2125 0.506449ZM47.9874 0.577292L47.9911 0.877269L47.8786 0.878651L47.875 0.578674L47.8713 0.278697L47.9838 0.277315L47.9874 0.577292ZM47.875 0.578674L47.8786 0.878651L47.7661 0.880033L47.7625 0.580056L47.7588 0.280078L47.8713 0.278697L47.875 0.578674ZM47.7625 0.580056L47.7661 0.880033C47.6653 0.881272 47.5653 0.8696 47.4666 0.845629L47.5375 0.554108L47.6083 0.262587C47.6596 0.275056 47.7096 0.280683 47.7588 0.280078L47.7625 0.580056ZM47.5375 0.554108L47.4666 0.845629L47.3541 0.818299L47.4249 0.526778L47.4958 0.235257L47.6083 0.262587L47.5375 0.554108ZM47.4249 0.526778L47.3541 0.818299L47.2416 0.790969L47.3125 0.499448L47.3833 0.207927L47.4958 0.235257L47.4249 0.526778ZM47.3125 0.499448L47.2416 0.790969C47.2266 0.787327 47.2123 0.78725 47.1911 0.795065L47.0875 0.513545L46.9838 0.232025C47.1126 0.184605 47.2483 0.17513 47.3833 0.207927L47.3125 0.499448ZM47.0875 0.513545L47.1911 0.795065L47.0786 0.836491L46.975 0.554971L46.8713 0.273452L46.9838 0.232025L47.0875 0.513545ZM46.975 0.554971L47.0786 0.836491L46.9661 0.877918L46.8624 0.596398L46.7588 0.314878L46.8713 0.273452L46.975 0.554971ZM46.8624 0.596398L46.9661 0.877918C46.8278 0.928849 46.6826 0.931658 46.5422 0.884626L46.6374 0.600152L46.7327 0.315678C46.7423 0.318876 46.7471 0.319183 46.7588 0.314878L46.8624 0.596398ZM46.6374 0.600152L46.5422 0.884626L46.4297 0.846953L46.525 0.56248L46.6202 0.278006L46.7327 0.315678L46.6374 0.600152ZM46.525 0.56248L46.4297 0.846953L46.3172 0.809281L46.4125 0.524807L46.5077 0.240333L46.6202 0.278006L46.525 0.56248ZM46.4125 0.524807L46.3172 0.809281C46.3021 0.804214 46.2921 0.804295 46.278 0.808762L46.1875 0.522758L46.0969 0.236755C46.2328 0.193724 46.3728 0.19517 46.5077 0.240333L46.4125 0.524807ZM46.1875 0.522758L46.278 0.808762L46.1655 0.844385L46.075 0.558382L45.9844 0.272378L46.0969 0.236755L46.1875 0.522758ZM46.075 0.558382L46.1655 0.844385L46.053 0.880009L45.9625 0.594006L45.8719 0.308002L45.9844 0.272378L46.075 0.558382ZM45.9625 0.594006L46.053 0.880009C45.9525 0.911846 45.8496 0.929736 45.7451 0.9324L45.7375 0.632498L45.7298 0.332595C45.7753 0.331435 45.8224 0.323663 45.8719 0.308002L45.9625 0.594006ZM45.7375 0.632498L45.7451 0.9324L45.6326 0.935268L45.625 0.635366L45.6173 0.335463L45.7298 0.332595L45.7375 0.632498ZM45.625 0.635366L45.6326 0.935268L45.5201 0.938137L45.5124 0.638234L45.5048 0.338332L45.6173 0.335463L45.625 0.635366ZM45.5124 0.638234L45.5201 0.938137C45.365 0.94209 45.2269 0.886182 45.1114 0.802412L45.2875 0.559534L45.4635 0.316657C45.4813 0.329507 45.4931 0.33476 45.499 0.336816C45.5019 0.337833 45.5036 0.338158 45.5042 0.338258C45.5046 0.338313 45.5047 0.338327 45.5048 0.33833C45.5048 0.338331 45.5048 0.338332 45.5048 0.338332C45.5048 0.338332 45.5048 0.338331 45.5048 0.338331C45.5048 0.338331 45.5048 0.338332 45.5048 0.338332L45.5124 0.638234ZM45.2875 0.559534L45.1114 0.802412L44.9989 0.720844L45.1749 0.477967L45.351 0.235089L45.4635 0.316657L45.2875 0.559534ZM45.1749 0.477967L44.9989 0.720844L44.8864 0.639276L45.0625 0.396399L45.2386 0.153521L45.351 0.235089L45.1749 0.477967ZM45.0625 0.396399L44.8864 0.639276C44.872 0.628836 44.8656 0.627405 44.8673 0.627892C44.8682 0.62814 44.8704 0.628655 44.8736 0.62887C44.8768 0.629086 44.8799 0.628922 44.8825 0.628523L44.8375 0.331929L44.7924 0.0353343C44.9619 0.00957596 45.1147 0.0637454 45.2386 0.153521L45.0625 0.396399ZM44.8375 0.331929L44.8825 0.628523L44.77 0.645621L44.725 0.349026L44.6799 0.0524321L44.7924 0.0353343L44.8375 0.331929ZM44.725 0.349026L44.77 0.645621L44.6575 0.662718L44.6125 0.366124L44.5674 0.06953L44.6799 0.0524321L44.725 0.349026ZM44.6125 0.366124L44.6575 0.662718C44.621 0.668264 44.5791 0.681714 44.5309 0.707953L44.3875 0.444468L44.244 0.180984C44.3458 0.125561 44.4539 0.0867811 44.5674 0.06953L44.6125 0.366124ZM44.3875 0.444468L44.5309 0.707953L44.4184 0.769199L44.275 0.505715L44.1315 0.24223L44.244 0.180984L44.3875 0.444468ZM44.275 0.505715L44.4184 0.769199L44.3059 0.830445L44.1624 0.566961L44.019 0.303476L44.1315 0.24223L44.275 0.505715ZM44.1624 0.566961L44.3059 0.830445C44.1933 0.891757 44.0697 0.928151 43.9383 0.928534L43.9375 0.628535L43.9366 0.328536C43.9552 0.328482 43.9816 0.323826 44.019 0.303476L44.1624 0.566961ZM43.9375 0.628535L43.9383 0.928534L43.8258 0.928862L43.8249 0.628863L43.8241 0.328865L43.9366 0.328536L43.9375 0.628535ZM43.8249 0.628863L43.8258 0.928862L43.7133 0.92919L43.7125 0.629191L43.7116 0.329193L43.8241 0.328865L43.8249 0.628863ZM43.7125 0.629191L43.7133 0.92919C43.5588 0.929641 43.4221 0.871135 43.3081 0.786172L43.4875 0.545652L43.6668 0.305132C43.6851 0.31883 43.6977 0.324761 43.7044 0.32723C43.7077 0.328448 43.7097 0.328894 43.7105 0.329056C43.711 0.329141 43.7113 0.329172 43.7114 0.329183C43.7115 0.329193 43.7116 0.329193 43.7116 0.329193L43.7125 0.629191ZM43.4875 0.545652L43.3081 0.786172L43.1956 0.702304L43.375 0.461784L43.5543 0.221265L43.6668 0.305132L43.4875 0.545652ZM43.375 0.461784L43.1956 0.702304L43.0831 0.618436L43.2625 0.377917L43.4418 0.137397L43.5543 0.221265L43.375 0.461784ZM43.2625 0.377917L43.0831 0.618436C43.0828 0.618194 43.1035 0.633212 43.1415 0.634281C43.1803 0.635373 43.2042 0.620995 43.2077 0.6186L43.0375 0.371584L42.8672 0.124568C42.9457 0.0704834 43.0446 0.0313155 43.1584 0.0345184C43.2714 0.0376976 43.3671 0.0817271 43.4418 0.137397L43.2625 0.377917ZM43.0375 0.371584L43.2077 0.6186L43.0952 0.696135L42.9249 0.449119L42.7547 0.202103L42.8672 0.124568L43.0375 0.371584ZM42.9249 0.449119L43.0952 0.696135L42.9827 0.773671L42.8125 0.526654L42.6422 0.279638L42.7547 0.202103L42.9249 0.449119ZM42.8125 0.526654L42.9827 0.773671C42.9096 0.824058 42.8201 0.862247 42.7171 0.868157C42.613 0.874132 42.5182 0.845768 42.438 0.799705L42.5875 0.539567L42.7369 0.27943C42.7317 0.276448 42.7119 0.267473 42.6828 0.269143C42.6548 0.270749 42.6403 0.280941 42.6422 0.279638L42.8125 0.526654ZM42.5875 0.539567L42.438 0.799705L42.3255 0.735083L42.475 0.474945L42.6244 0.214808L42.7369 0.27943L42.5875 0.539567ZM42.475 0.474945L42.3255 0.735083L42.213 0.67046L42.3624 0.410323L42.5119 0.150186L42.6244 0.214808L42.475 0.474945ZM42.3624 0.410323L42.213 0.67046C42.2052 0.665988 42.2057 0.667901 42.2133 0.668831C42.2168 0.669264 42.2206 0.669313 42.2243 0.668936C42.2279 0.668565 42.2302 0.6679 42.231 0.667659L42.1375 0.382603L42.0439 0.0975468C42.2081 0.0437105 42.371 0.0692672 42.5119 0.150186L42.3624 0.410323ZM42.1375 0.382603L42.231 0.667659L42.1185 0.704561L42.025 0.419505L41.9314 0.134449L42.0439 0.0975468L42.1375 0.382603ZM42.025 0.419505L42.1185 0.704561L42.006 0.741463L41.9125 0.456407L41.8189 0.171351L41.9314 0.134449L42.025 0.419505ZM41.9125 0.456407L42.006 0.741463C41.9097 0.773034 41.8116 0.793364 41.7121 0.801561L41.6875 0.502574L41.6628 0.203586C41.7133 0.19943 41.7652 0.188983 41.8189 0.171351L41.9125 0.456407ZM41.6875 0.502574L41.7121 0.801561L41.5996 0.810826L41.5749 0.511838L41.5503 0.21285L41.6628 0.203586L41.6875 0.502574ZM41.5749 0.511838L41.5996 0.810826L41.4871 0.820091L41.4625 0.521103L41.4378 0.222115L41.5503 0.21285L41.5749 0.511838ZM41.4625 0.521103L41.4871 0.820091C41.3612 0.830459 41.2388 0.809019 41.1234 0.761567L41.2374 0.484108L41.3515 0.206649C41.3861 0.220876 41.4137 0.224099 41.4378 0.222115L41.4625 0.521103ZM41.2374 0.484108L41.1234 0.761567L41.0109 0.715308L41.125 0.437849L41.239 0.16039L41.3515 0.206649L41.2374 0.484108ZM41.125 0.437849L41.0109 0.715308L40.8984 0.669049L41.0124 0.39159L41.1265 0.11413L41.239 0.16039L41.125 0.437849ZM41.0124 0.39159L40.8984 0.669049C40.8587 0.652736 40.8249 0.647255 40.7948 0.647991L40.7874 0.348081L40.7801 0.0481702C40.9 0.0452402 41.0162 0.0687648 41.1265 0.11413L41.0124 0.39159ZM40.7874 0.348081L40.7948 0.647991L40.6823 0.650741L40.6749 0.350831L40.6676 0.0509201L40.7801 0.0481702L40.7874 0.348081ZM40.6749 0.350831L40.6823 0.650741L40.5698 0.653491L40.5625 0.35358L40.5551 0.05367L40.6676 0.0509201L40.6749 0.350831ZM40.5625 0.35358L40.5698 0.653491C40.4994 0.655211 40.429 0.65856 40.3586 0.66354L40.3375 0.364288L40.3163 0.0650357C40.3959 0.0594055 40.4755 0.0556164 40.5551 0.05367L40.5625 0.35358ZM40.3375 0.364288L40.3586 0.66354L40.2461 0.671498L40.2249 0.372246L40.2038 0.0729933L40.3163 0.0650357L40.3375 0.364288ZM40.2249 0.372246L40.2461 0.671498L40.1336 0.679456L40.1124 0.380203L40.0913 0.0809509L40.2038 0.0729933L40.2249 0.372246ZM40.1124 0.380203L40.1336 0.679456C40.0925 0.682365 40.0484 0.692311 40.0004 0.711809L39.8874 0.433899L39.7745 0.155989C39.8765 0.114503 39.9824 0.088652 40.0913 0.0809509L40.1124 0.380203ZM39.8874 0.433899L40.0004 0.711809L39.8879 0.757547L39.775 0.479637L39.662 0.201727L39.7745 0.155989L39.8874 0.433899ZM39.775 0.479637L39.8879 0.757547L39.7754 0.803285L39.6624 0.525375L39.5495 0.247465L39.662 0.201727L39.775 0.479637ZM39.6624 0.525375L39.7754 0.803285C39.671 0.845734 39.5622 0.870863 39.4502 0.875615L39.4375 0.575884L39.4247 0.276153C39.4627 0.274544 39.5039 0.266 39.5495 0.247465L39.6624 0.525375ZM39.4375 0.575884L39.4502 0.875615L39.3377 0.880385L39.3249 0.580655L39.3122 0.280924L39.4247 0.276153L39.4375 0.575884ZM39.3249 0.580655L39.3377 0.880385L39.2252 0.885156L39.2125 0.585426L39.1997 0.285695L39.3122 0.280924L39.3249 0.580655ZM39.2125 0.585426L39.2252 0.885156C39.1542 0.888166 39.0832 0.892613 39.0122 0.8985L38.9874 0.599526L38.9627 0.300552C39.0417 0.294 39.1207 0.289047 39.1997 0.285695L39.2125 0.585426ZM38.9874 0.599526L39.0122 0.8985L38.8997 0.907829L38.875 0.608855L38.8502 0.309881L38.9627 0.300552L38.9874 0.599526ZM38.875 0.608855L38.8997 0.907829L38.7872 0.917158L38.7624 0.618184L38.7377 0.31921L38.8502 0.309881L38.875 0.608855ZM38.7624 0.618184L38.7872 0.917158C38.6606 0.927657 38.5377 0.905729 38.422 0.857474L38.5374 0.580591L38.6529 0.303709C38.6872 0.318016 38.7143 0.32115 38.7377 0.31921L38.7624 0.618184ZM38.5374 0.580591L38.422 0.857474L38.3095 0.810552L38.4249 0.53367L38.5404 0.256787L38.6529 0.303709L38.5374 0.580591ZM38.4249 0.53367L38.3095 0.810552L38.197 0.763631L38.3124 0.486748L38.4279 0.209866L38.5404 0.256787L38.4249 0.53367ZM38.3124 0.486748L38.197 0.763631C38.1689 0.751945 38.1494 0.750986 38.1326 0.75354L38.0875 0.45696L38.0423 0.16038C38.1755 0.14009 38.306 0.15899 38.4279 0.209866L38.3124 0.486748ZM38.0875 0.45696L38.1326 0.75354L38.0201 0.770674L37.9749 0.474094L37.9298 0.177513L38.0423 0.16038L38.0875 0.45696ZM37.9749 0.474094L38.0201 0.770674L37.9076 0.787807L37.8624 0.491227L37.8173 0.194647L37.9298 0.177513L37.9749 0.474094ZM37.8624 0.491227L37.9076 0.787807C37.8103 0.802634 37.7124 0.80636 37.6145 0.798836L37.6375 0.499718L37.6604 0.200599C37.7125 0.204599 37.7646 0.202665 37.8173 0.194647L37.8624 0.491227ZM37.6375 0.499718L37.6145 0.798836L37.502 0.790194L37.525 0.491075L37.5479 0.191956L37.6604 0.200599L37.6375 0.499718ZM37.525 0.491075L37.502 0.790194L37.3895 0.781551L37.4125 0.482432L37.4354 0.183314L37.5479 0.191956L37.525 0.491075ZM37.4125 0.482432L37.3895 0.781551C37.3407 0.777801 37.2917 0.780362 37.2418 0.789545L37.1875 0.494506L37.1331 0.199467C37.2332 0.181028 37.3342 0.175539 37.4354 0.183314L37.4125 0.482432ZM37.1875 0.494506L37.2418 0.789545L37.1293 0.810262L37.075 0.515223L37.0206 0.220184L37.1331 0.199467L37.1875 0.494506ZM37.075 0.515223L37.1293 0.810262L37.0168 0.830979L36.9625 0.53594L36.9081 0.240901L37.0206 0.220184L37.075 0.515223ZM36.9625 0.53594L37.0168 0.830979C36.8952 0.853373 36.7733 0.846774 36.6549 0.81286L36.7374 0.524448L36.82 0.236036C36.8516 0.245068 36.8797 0.24613 36.9081 0.240901L36.9625 0.53594ZM36.7374 0.524448L36.6549 0.81286L36.5424 0.78065L36.625 0.492238L36.7075 0.203826L36.82 0.236036L36.7374 0.524448ZM36.625 0.492238L36.5424 0.78065L36.4299 0.748441L36.5124 0.460029L36.595 0.171617L36.7075 0.203826L36.625 0.492238ZM36.5124 0.460029L36.4299 0.748441C36.3611 0.728745 36.2924 0.711497 36.224 0.696671L36.2875 0.403464L36.3509 0.110257C36.4324 0.127906 36.5138 0.148367 36.595 0.171617L36.5124 0.460029ZM36.2875 0.403464L36.224 0.696671L36.1115 0.672316L36.1749 0.379108L36.2384 0.0859009L36.3509 0.110257L36.2875 0.403464ZM36.1749 0.379108L36.1115 0.672316L35.999 0.64796L36.0625 0.354753L36.1259 0.0615452L36.2384 0.0859009L36.1749 0.379108ZM36.0625 0.354753L35.999 0.64796C36.0002 0.648237 36.0024 0.64855 36.0051 0.64856C36.0078 0.64857 36.01 0.648272 36.0114 0.647985C36.0143 0.647373 36.0101 0.647566 35.9983 0.655089L35.8375 0.401841L35.6766 0.148593C35.8069 0.0658742 35.9616 0.0259687 36.1259 0.0615452L36.0625 0.354753ZM35.8375 0.401841L35.9983 0.655089L35.8858 0.726533L35.7249 0.473285L35.5641 0.220037L35.6766 0.148593L35.8375 0.401841ZM35.7249 0.473285L35.8858 0.726533L35.7733 0.797977L35.6124 0.544729L35.4516 0.291481L35.5641 0.220037L35.7249 0.473285ZM35.6124 0.544729L35.7733 0.797977C35.6409 0.882019 35.4833 0.920775 35.3171 0.880641L35.3874 0.589017L35.4578 0.297393C35.4563 0.297022 35.4537 0.296581 35.4504 0.296507C35.447 0.296432 35.4441 0.296754 35.442 0.297171C35.4375 0.298051 35.4405 0.298517 35.4516 0.291481L35.6124 0.544729ZM35.3874 0.589017L35.3171 0.880641L35.2046 0.853485L35.275 0.561861L35.3453 0.270236L35.4578 0.297393L35.3874 0.589017ZM35.275 0.561861L35.2046 0.853485L35.0921 0.826328L35.1624 0.534704L35.2328 0.24308L35.3453 0.270236L35.275 0.561861ZM35.1624 0.534704L35.0921 0.826328C35.0125 0.807123 34.933 0.785962 34.8536 0.762854L34.9375 0.474806L35.0213 0.186758C35.0919 0.207306 35.1624 0.226077 35.2328 0.24308L35.1624 0.534704ZM34.9375 0.474806L34.8536 0.762854L34.7411 0.730112L34.825 0.442064L34.9088 0.154016L35.0213 0.186758L34.9375 0.474806ZM34.825 0.442064L34.7411 0.730112L34.6286 0.69737L34.7125 0.409322L34.7963 0.121273L34.9088 0.154016L34.825 0.442064ZM34.7125 0.409322L34.6286 0.69737C34.5816 0.683679 34.5368 0.677902 34.4935 0.67877L34.4875 0.37883L34.4815 0.0788901C34.5881 0.0767576 34.6933 0.0913087 34.7963 0.121273L34.7125 0.409322ZM34.4875 0.37883L34.4935 0.67877L34.381 0.681021L34.375 0.381081L34.3689 0.0811405L34.4815 0.0788901L34.4875 0.37883ZM34.375 0.381081L34.381 0.681021L34.2684 0.683271L34.2624 0.383331L34.2565 0.0833909L34.3689 0.0811405L34.375 0.381081ZM34.2624 0.383331L34.2684 0.683271C34.1702 0.685237 34.0724 0.675824 33.9756 0.655413L34.0374 0.361865L34.0993 0.0683169C34.1525 0.0795271 34.2047 0.0844253 34.2565 0.0833909L34.2624 0.383331ZM34.0374 0.361865L33.9756 0.655413L33.8631 0.631696L33.9249 0.338148L33.9868 0.0446005L34.0993 0.0683169L34.0374 0.361865ZM33.9249 0.338148L33.8631 0.631696L33.7506 0.60798L33.8124 0.314432L33.8743 0.0208841L33.9868 0.0446005L33.9249 0.338148ZM33.8124 0.314432L33.7506 0.60798C33.7088 0.599185 33.6685 0.597805 33.6281 0.603334L33.5875 0.3061L33.5468 0.00886697C33.6564 -0.00611708 33.7661 -0.00194278 33.8743 0.0208841L33.8124 0.314432ZM33.5875 0.3061L33.6281 0.603334L33.5156 0.618719L33.475 0.321485L33.4343 0.0242518L33.5468 0.00886697L33.5875 0.3061ZM33.475 0.321485L33.5156 0.618719L33.4031 0.634104L33.3624 0.33687L33.3218 0.0396366L33.4343 0.0242518L33.475 0.321485ZM33.3624 0.33687L33.4031 0.634104C33.3316 0.643882 33.2601 0.654949 33.1885 0.667305L33.1375 0.371679L33.0864 0.0760538C33.1648 0.0625106 33.2433 0.0503708 33.3218 0.0396366L33.3624 0.33687ZM33.1375 0.371679L33.1885 0.667305L33.076 0.68673L33.0249 0.391104L32.9739 0.0954784L33.0864 0.0760538L33.1375 0.371679ZM33.0249 0.391104L33.076 0.68673L32.9635 0.706154L32.9124 0.410529L32.8614 0.114903L32.9739 0.0954784L33.0249 0.391104ZM32.9124 0.410529L32.9635 0.706154C32.8719 0.721967 32.7799 0.729959 32.6875 0.729985L32.6875 0.429985L32.6874 0.129985C32.745 0.129969 32.803 0.12499 32.8614 0.114903L32.9124 0.410529ZM32.6875 0.429985L32.6875 0.729985L32.575 0.730016L32.575 0.430016L32.5749 0.130016L32.6874 0.129985L32.6875 0.429985ZM32.575 0.430016L32.575 0.730016L32.4625 0.730047L32.4625 0.430047L32.4624 0.130047L32.5749 0.130016L32.575 0.430016ZM32.4625 0.430047L32.4625 0.730047C32.3827 0.730069 32.3028 0.728151 32.223 0.724294L32.2374 0.424643L32.2519 0.124993C32.3221 0.128382 32.3922 0.130066 32.4624 0.130047L32.4625 0.430047ZM32.2374 0.424643L32.223 0.724294L32.1105 0.718859L32.1249 0.419208L32.1394 0.119558L32.2519 0.124993L32.2374 0.424643ZM32.1249 0.419208L32.1105 0.718859L31.998 0.713424L32.0124 0.413773L32.0269 0.114123L32.1394 0.119558L32.1249 0.419208ZM32.0124 0.413773L31.998 0.713424C31.9133 0.709332 31.8287 0.701127 31.7442 0.688839L31.7874 0.391966L31.8307 0.0950933C31.8962 0.104635 31.9616 0.110968 32.0269 0.114123L32.0124 0.413773ZM31.7874 0.391966L31.7442 0.688839L31.6317 0.672466L31.6749 0.375593L31.7182 0.0787209L31.8307 0.0950933L31.7874 0.391966ZM31.6749 0.375593L31.6317 0.672466L31.5192 0.656094L31.5625 0.359221L31.6057 0.0623485L31.7182 0.0787209L31.6749 0.375593ZM31.5625 0.359221L31.5192 0.656094C31.4634 0.647964 31.4079 0.645357 31.3526 0.648156L31.3375 0.348539L31.3223 0.0489216C31.417 0.0441331 31.5115 0.0486483 31.6057 0.0623485L31.5625 0.359221ZM31.3375 0.348539L31.3526 0.648156L31.2401 0.653846L31.2249 0.354229L31.2098 0.0546115L31.3223 0.0489216L31.3375 0.348539ZM31.2249 0.354229L31.2401 0.653846L31.1276 0.659536L31.1124 0.359918L31.0973 0.0603015L31.2098 0.0546115L31.2249 0.354229ZM31.1124 0.359918L31.1276 0.659536C31.1056 0.660647 31.0756 0.6675 31.0352 0.690365L30.8875 0.429264L30.7397 0.168163C30.8493 0.106154 30.9693 0.0667767 31.0973 0.0603015L31.1124 0.359918ZM30.8875 0.429264L31.0352 0.690365L30.9227 0.75402L30.7749 0.492919L30.6272 0.231819L30.7397 0.168163L30.8875 0.429264ZM30.7749 0.492919L30.9227 0.75402L30.8102 0.817676L30.6624 0.556575L30.5147 0.295474L30.6272 0.231819L30.7749 0.492919ZM30.6624 0.556575L30.8102 0.817676C30.6709 0.89646 30.5107 0.922162 30.3485 0.871806L30.4375 0.585299L30.5264 0.298792C30.526 0.29865 30.5241 0.298127 30.521 0.297849C30.5179 0.297567 30.5148 0.297638 30.512 0.297999C30.5058 0.29878 30.5064 0.300187 30.5147 0.295474L30.6624 0.556575ZM30.4375 0.585299L30.3485 0.871806L30.236 0.836874L30.325 0.550368L30.4139 0.263861L30.5264 0.298792L30.4375 0.585299ZM30.325 0.550368L30.236 0.836874L30.1235 0.801943L30.2124 0.515437L30.3014 0.22893L30.4139 0.263861L30.325 0.550368ZM30.2124 0.515437L30.1235 0.801943C30.0957 0.793315 30.0722 0.7926 30.0482 0.79756L29.9874 0.503784L29.9267 0.210007C30.0527 0.18393 30.1792 0.190983 30.3014 0.22893L30.2124 0.515437ZM29.9874 0.503784L30.0482 0.79756L29.9357 0.820839L29.875 0.527062L29.8142 0.233285L29.9267 0.210007L29.9874 0.503784ZM29.875 0.527062L29.9357 0.820839L29.8232 0.844117L29.7625 0.55034L29.7017 0.256563L29.8142 0.233285L29.875 0.527062ZM29.7625 0.55034L29.8232 0.844117C29.6762 0.874544 29.533 0.850516 29.4039 0.786282L29.5374 0.517668L29.671 0.249054C29.6919 0.25942 29.6987 0.257174 29.7017 0.256563L29.7625 0.55034ZM29.5374 0.517668L29.4039 0.786282L29.2914 0.730331L29.4249 0.461717L29.5585 0.193104L29.671 0.249054L29.5374 0.517668ZM29.4249 0.461717L29.2914 0.730331L29.1789 0.674381L29.3125 0.405767L29.446 0.137153L29.5585 0.193104L29.4249 0.461717ZM29.3125 0.405767L29.1789 0.674381C29.1441 0.657108 29.1195 0.653803 29.1011 0.654642L29.0874 0.354954L29.0738 0.0552667C29.2054 0.0492555 29.3308 0.0798259 29.446 0.137153L29.3125 0.405767ZM29.0874 0.354954L29.1011 0.654642L28.9886 0.65978L28.9749 0.360092L28.9613 0.0604044L29.0738 0.0552667L29.0874 0.354954ZM28.9749 0.360092L28.9886 0.65978L28.8761 0.664917L28.8624 0.36523L28.8488 0.0655422L28.9613 0.0604044L28.9749 0.360092ZM28.8624 0.36523L28.8761 0.664917C28.8459 0.666297 28.8105 0.674322 28.768 0.694848L28.6374 0.424748L28.5069 0.154649C28.6144 0.102667 28.729 0.0710129 28.8488 0.0655422L28.8624 0.36523ZM28.6374 0.424748L28.768 0.694848L28.6555 0.749229L28.5249 0.479129L28.3944 0.20903L28.5069 0.154649L28.6374 0.424748ZM28.5249 0.479129L28.6555 0.749229L28.543 0.803609L28.4124 0.53351L28.2819 0.263411L28.3944 0.20903L28.5249 0.479129ZM28.4124 0.53351L28.543 0.803609C28.4154 0.865304 28.2749 0.888592 28.1306 0.860738L28.1875 0.566176L28.2443 0.271613C28.25 0.272713 28.2595 0.274224 28.2819 0.263411L28.4124 0.53351ZM28.1875 0.566176L28.1306 0.860738L28.0181 0.839023L28.0749 0.54446L28.1318 0.249898L28.2443 0.271613L28.1875 0.566176ZM28.0749 0.54446L28.0181 0.839023L27.9056 0.817308L27.9624 0.522745L28.0193 0.228182L28.1318 0.249898L28.0749 0.54446ZM27.9624 0.522745L27.9056 0.817308C27.8658 0.809626 27.8271 0.80922 27.7877 0.815911L27.7374 0.520154L27.6872 0.224398C27.7978 0.205589 27.9091 0.20691 28.0193 0.228182L27.9624 0.522745ZM27.7374 0.520154L27.7877 0.815911L27.6752 0.835036L27.625 0.539279L27.5747 0.243522L27.6872 0.224398L27.7374 0.520154ZM27.625 0.539279L27.6752 0.835036L27.5627 0.854161L27.5124 0.558404L27.4622 0.262647L27.5747 0.243522L27.625 0.539279ZM27.5124 0.558404L27.5627 0.854161C27.4391 0.875179 27.3159 0.865587 27.197 0.828004L27.2874 0.54196L27.3779 0.255917C27.409 0.265759 27.4358 0.267129 27.4622 0.262647L27.5124 0.558404ZM27.2874 0.54196L27.197 0.828004L27.0845 0.792435L27.1749 0.506391L27.2654 0.220348L27.3779 0.255917L27.2874 0.54196ZM27.1749 0.506391L27.0845 0.792435L26.972 0.756866L27.0625 0.470823L27.1529 0.184779L27.2654 0.220348L27.1749 0.506391ZM27.0625 0.470823L26.972 0.756866C26.9219 0.741027 26.8741 0.732963 26.8278 0.731471L26.8375 0.431627L26.8471 0.131782C26.9508 0.135127 27.053 0.153194 27.1529 0.184779L27.0625 0.470823ZM26.8375 0.431627L26.8278 0.731471L26.7153 0.727844L26.725 0.427999L26.7346 0.128155L26.8471 0.131782L26.8375 0.431627ZM26.725 0.427999L26.7153 0.727844L26.6028 0.724216L26.6125 0.424372L26.6221 0.124528L26.7346 0.128155L26.725 0.427999ZM26.6125 0.424372L26.6028 0.724216C26.5466 0.722406 26.4903 0.725843 26.4335 0.734661L26.3875 0.438214L26.3414 0.141766C26.4346 0.127293 26.5283 0.121502 26.6221 0.124528L26.6125 0.424372ZM26.3875 0.438214L26.4335 0.734661L26.321 0.75213L26.275 0.455683L26.2289 0.159235L26.3414 0.141766L26.3875 0.438214ZM26.275 0.455683L26.321 0.75213L26.2085 0.769599L26.1624 0.473151L26.1164 0.176704L26.2289 0.159235L26.275 0.455683ZM26.1624 0.473151L26.2085 0.769599C26.075 0.79032 25.9443 0.771603 25.8221 0.720668L25.9374 0.443745L26.0528 0.166822C26.0806 0.178388 26.0999 0.179275 26.1164 0.176704L26.1624 0.473151ZM25.9374 0.443745L25.8221 0.720668L25.7096 0.673793L25.8249 0.39687L25.9403 0.119947L26.0528 0.166822L25.9374 0.443745ZM25.8249 0.39687L25.7096 0.673793L25.5971 0.626918L25.7124 0.349995L25.8278 0.0730722L25.9403 0.119947L25.8249 0.39687ZM25.7124 0.349995L25.5971 0.626918C25.5704 0.615825 25.5525 0.615244 25.537 0.617838L25.4874 0.321957L25.4379 0.0260752C25.5724 0.00355354 25.7045 0.0216658 25.8278 0.0730722L25.7124 0.349995ZM25.4874 0.321957L25.537 0.617838L25.4245 0.636674L25.3749 0.340793L25.3254 0.0449116L25.4379 0.0260752L25.4874 0.321957ZM25.3749 0.340793L25.4245 0.636674L25.312 0.65551L25.2624 0.359629L25.2129 0.0637479L25.3254 0.0449116L25.3749 0.340793ZM25.2624 0.359629L25.312 0.65551C25.2732 0.662 25.2295 0.676484 25.18 0.703187L25.0374 0.439238L24.8949 0.175289C24.9954 0.120961 25.1017 0.0823738 25.2129 0.0637479L25.2624 0.359629ZM25.0374 0.439238L25.18 0.703187L25.0675 0.763959L24.9249 0.50001L24.7824 0.236061L24.8949 0.175289L25.0374 0.439238ZM24.9249 0.50001L25.0675 0.763959L24.955 0.824732L24.8125 0.560783L24.6699 0.296834L24.7824 0.236061L24.9249 0.50001ZM24.8125 0.560783L24.955 0.824732C24.8735 0.868757 24.7786 0.893934 24.6759 0.885692C24.5747 0.877567 24.4871 0.838698 24.4153 0.788406L24.5875 0.542722L24.7596 0.297038C24.7628 0.299301 24.7502 0.28972 24.724 0.287616C24.6963 0.285394 24.6764 0.293323 24.6699 0.296834L24.8125 0.560783ZM24.5875 0.542722L24.4153 0.788406L24.3028 0.709572L24.475 0.463888L24.6471 0.218204L24.7596 0.297038L24.5875 0.542722ZM24.475 0.463888L24.3028 0.709572L24.1903 0.630739L24.3624 0.385055L24.5346 0.139371L24.6471 0.218204L24.475 0.463888ZM24.3624 0.385055L24.1903 0.630739C24.1875 0.628815 24.2011 0.63884 24.2284 0.640808C24.2571 0.642875 24.2773 0.634363 24.2834 0.63097L24.1375 0.368838L23.9916 0.106706C24.0726 0.0615681 24.1678 0.0348876 24.2715 0.0423601C24.3738 0.0497334 24.4624 0.088739 24.5346 0.139371L24.3624 0.385055ZM24.1375 0.368838L24.2834 0.63097L24.1709 0.693586L24.025 0.431454L23.8791 0.169323L23.9916 0.106706L24.1375 0.368838ZM24.025 0.431454L24.1709 0.693586L24.0583 0.756203L23.9125 0.494071L23.7666 0.231939L23.8791 0.169323L24.025 0.431454ZM23.9125 0.494071L24.0583 0.756203C23.9528 0.814928 23.8392 0.85422 23.7187 0.86684L23.6875 0.568473L23.6562 0.270106C23.6857 0.267012 23.7221 0.256703 23.7666 0.231939L23.9125 0.494071ZM23.6875 0.568473L23.7187 0.86684L23.6062 0.878626L23.5749 0.580259L23.5437 0.281892L23.6562 0.270106L23.6875 0.568473ZM23.5749 0.580259L23.6062 0.878626L23.4937 0.890412L23.4624 0.592045L23.4312 0.293678L23.5437 0.281892L23.5749 0.580259ZM23.4624 0.592045L23.4937 0.890412C23.3907 0.901203 23.2877 0.897491 23.1855 0.879536L23.2374 0.584063L23.2894 0.28859C23.3372 0.296992 23.3842 0.298602 23.4312 0.293678L23.4624 0.592045ZM23.2374 0.584063L23.1855 0.879536L23.073 0.859768L23.1249 0.564295L23.1769 0.268821L23.2894 0.28859L23.2374 0.584063ZM23.1249 0.564295L23.073 0.859768L22.9605 0.839999L23.0124 0.544526L23.0644 0.249053L23.1769 0.268821L23.1249 0.564295ZM23.0124 0.544526L22.9605 0.839999C22.854 0.821288 22.7513 0.785837 22.6529 0.736442L22.7874 0.468307L22.922 0.200171C22.9736 0.226045 23.0209 0.241407 23.0644 0.249053L23.0124 0.544526ZM22.7874 0.468307L22.6529 0.736442L22.5404 0.679991L22.6749 0.411855L22.8095 0.14372L22.922 0.200171L22.7874 0.468307ZM22.6749 0.411855L22.5404 0.679991L22.4279 0.623539L22.5625 0.355404L22.697 0.0872684L22.8095 0.14372L22.6749 0.411855ZM22.5625 0.355404L22.4279 0.623539C22.4361 0.627633 22.4563 0.634424 22.4826 0.631551C22.507 0.62888 22.5177 0.619917 22.5128 0.623411L22.3375 0.380003L22.1621 0.136594C22.2322 0.0860546 22.3179 0.0459755 22.4173 0.0351047C22.5186 0.024032 22.6138 0.0455405 22.697 0.0872684L22.5625 0.355404ZM22.3375 0.380003L22.5128 0.623411L22.4003 0.704462L22.2249 0.461053L22.0496 0.217644L22.1621 0.136594L22.3375 0.380003ZM22.2249 0.461053L22.4003 0.704462L22.2878 0.785512L22.1124 0.542103L21.9371 0.298695L22.0496 0.217644L22.2249 0.461053ZM22.1124 0.542103L22.2878 0.785512C22.2128 0.83956 22.1181 0.881176 22.0074 0.883941C21.8962 0.886722 21.7987 0.849423 21.7204 0.796904L21.8875 0.547727L22.0545 0.298549C22.0512 0.296315 22.0287 0.283221 21.9925 0.284128C21.9758 0.284544 21.9617 0.287894 21.9514 0.29174C21.9415 0.295424 21.9368 0.298904 21.9371 0.298695L22.1124 0.542103ZM21.8875 0.547727L21.7204 0.796904L21.6079 0.721477L21.775 0.472299L21.942 0.223122L22.0545 0.298549L21.8875 0.547727ZM21.775 0.472299L21.6079 0.721477L21.4954 0.64605L21.6624 0.396872L21.8295 0.147695L21.942 0.223122L21.775 0.472299ZM21.6624 0.396872L21.4954 0.64605C21.4921 0.643817 21.5031 0.651913 21.5262 0.653749C21.5505 0.655682 21.5682 0.649086 21.5741 0.646078L21.4375 0.379L21.3008 0.111922C21.4811 0.0197041 21.672 0.0421109 21.8295 0.147695L21.6624 0.396872ZM21.4375 0.379L21.5741 0.646078L21.4616 0.703632L21.325 0.436554L21.1883 0.169476L21.3008 0.111922L21.4375 0.379ZM21.325 0.436554L21.4616 0.703632L21.3491 0.761187L21.2125 0.494109L21.0758 0.227031L21.1883 0.169476L21.325 0.436554ZM21.2125 0.494109L21.3491 0.761187C21.2276 0.823326 21.0934 0.852923 20.9527 0.836549L20.9874 0.538563L21.0221 0.240576C21.0315 0.24167 21.0473 0.241631 21.0758 0.227031L21.2125 0.494109ZM20.9874 0.538563L20.9527 0.836549L20.8402 0.823449L20.8749 0.525462L20.9096 0.227476L21.0221 0.240576L20.9874 0.538563ZM20.8749 0.525462L20.8402 0.823449L20.7277 0.810348L20.7624 0.512362L20.7971 0.214375L20.9096 0.227476L20.8749 0.525462ZM20.7624 0.512362L20.7277 0.810348C20.6407 0.800217 20.5541 0.784811 20.4678 0.764229L20.5374 0.47242L20.6071 0.18061C20.6708 0.195817 20.7341 0.207039 20.7971 0.214375L20.7624 0.512362ZM20.5374 0.47242L20.4678 0.764229L20.3553 0.737388L20.4249 0.445578L20.4946 0.153769L20.6071 0.18061L20.5374 0.47242ZM20.4249 0.445578L20.3553 0.737388L20.2428 0.710546L20.3125 0.418737L20.3821 0.126928L20.4946 0.153769L20.4249 0.445578ZM20.3125 0.418737L20.2428 0.710546C20.1757 0.69454 20.1089 0.681462 20.0422 0.671276L20.0874 0.374714L20.1327 0.0781529C20.216 0.0908754 20.2992 0.107146 20.3821 0.126928L20.3125 0.418737ZM20.0874 0.374714L20.0422 0.671276L19.9297 0.654094L19.9749 0.357533L20.0202 0.0609714L20.1327 0.0781529L20.0874 0.374714ZM19.9749 0.357533L19.9297 0.654094L19.8172 0.636913L19.8624 0.340351L19.9077 0.0437899L20.0202 0.0609714L19.9749 0.357533ZM19.8624 0.340351L19.8172 0.636913C19.762 0.628492 19.7073 0.625751 19.6528 0.62855L19.6375 0.328944L19.6221 0.0293385C19.7176 0.0244376 19.8129 0.0293023 19.9077 0.0437899L19.8624 0.340351ZM19.6375 0.328944L19.6528 0.62855L19.5403 0.634324L19.5249 0.334718L19.5096 0.0351128L19.6221 0.0293385L19.6375 0.328944ZM19.5249 0.334718L19.5403 0.634324L19.4278 0.640098L19.4124 0.340493L19.3971 0.0408872L19.5096 0.0351128L19.5249 0.334718ZM19.4124 0.340493L19.4278 0.640098C19.3681 0.643165 19.308 0.650803 19.2474 0.663156L19.1875 0.369202L19.1275 0.0752479C19.2169 0.0570215 19.3068 0.0455197 19.3971 0.0408872L19.4124 0.340493ZM19.1875 0.369202L19.2474 0.663156L19.1349 0.68609L19.075 0.392136L19.015 0.0981824L19.1275 0.0752479L19.1875 0.369202ZM19.075 0.392136L19.1349 0.68609L19.0224 0.709025L18.9624 0.415071L18.9025 0.121117L19.015 0.0981824L19.075 0.392136ZM18.9624 0.415071L19.0224 0.709025C18.9664 0.720443 18.909 0.737766 18.85 0.761626L18.7374 0.483551L18.6249 0.205476C18.7159 0.168609 18.8085 0.140278 18.9025 0.121117L18.9624 0.415071ZM18.7374 0.483551L18.85 0.761626L18.7375 0.807172L18.625 0.529097L18.5124 0.251022L18.6249 0.205476L18.7374 0.483551ZM18.625 0.529097L18.7375 0.807172L18.625 0.852718L18.5124 0.574643L18.3999 0.296568L18.5124 0.251022L18.625 0.529097ZM18.5124 0.574643L18.625 0.852718C18.5109 0.898922 18.3902 0.920256 18.2662 0.911434L18.2874 0.61219L18.3087 0.312945C18.3347 0.314789 18.364 0.311092 18.3999 0.296568L18.5124 0.574643ZM18.2874 0.61219L18.2662 0.911434L18.1537 0.903435L18.1749 0.604191L18.1962 0.304946L18.3087 0.312945L18.2874 0.61219ZM18.1749 0.604191L18.1537 0.903435L18.0412 0.895436L18.0625 0.596192L18.0837 0.296947L18.1962 0.304946L18.1749 0.604191ZM18.0625 0.596192L18.0412 0.895436C17.9592 0.88961 17.8773 0.88092 17.7955 0.86938L17.8375 0.572322L17.8794 0.275263C17.9476 0.284885 18.0157 0.292109 18.0837 0.296947L18.0625 0.596192ZM17.8375 0.572322L17.7955 0.86938L17.683 0.853509L17.725 0.556451L17.7669 0.259392L17.8794 0.275263L17.8375 0.572322ZM17.725 0.556451L17.683 0.853509L17.5705 0.837638L17.6124 0.54058L17.6544 0.243521L17.7669 0.259392L17.725 0.556451ZM17.6124 0.54058L17.5705 0.837638C17.5063 0.828576 17.4422 0.823088 17.3783 0.821139L17.3874 0.521278L17.3966 0.221417C17.4827 0.224042 17.5686 0.231423 17.6544 0.243521L17.6124 0.54058ZM17.3874 0.521278L17.3783 0.821139L17.2658 0.817708L17.2749 0.517847L17.2841 0.217987L17.3966 0.221417L17.3874 0.521278ZM17.2749 0.517847L17.2658 0.817708L17.1533 0.814277L17.1624 0.514416L17.1716 0.214556L17.2841 0.217987L17.2749 0.517847ZM17.1624 0.514416L17.1533 0.814277C17.0349 0.810665 16.9209 0.781888 16.8133 0.732984L16.9375 0.459862L17.0616 0.18674C17.1039 0.206001 17.14 0.213594 17.1716 0.214556L17.1624 0.514416ZM16.9375 0.459862L16.8133 0.732984L16.7008 0.681861L16.8249 0.408739L16.9491 0.135617L17.0616 0.18674L16.9375 0.459862ZM16.8249 0.408739L16.7008 0.681861L16.5883 0.630737L16.7124 0.357615L16.8366 0.0844935L16.9491 0.135617L16.8249 0.408739ZM16.7124 0.357615L16.5883 0.630737C16.5943 0.633443 16.6096 0.638112 16.6294 0.636154C16.6481 0.634314 16.656 0.628081 16.6513 0.631146L16.4874 0.379814L16.3236 0.128482C16.4757 0.0293909 16.6589 0.00375783 16.8366 0.0844935L16.7124 0.357615ZM16.4874 0.379814L16.6513 0.631146L16.5388 0.704467L16.3749 0.453135L16.2111 0.201803L16.3236 0.128482L16.4874 0.379814ZM16.3749 0.453135L16.5388 0.704467L16.4263 0.777789L16.2624 0.526457L16.0986 0.275125L16.2111 0.201803L16.3749 0.453135ZM16.2624 0.526457L16.4263 0.777789C16.2867 0.868728 16.118 0.904938 15.9443 0.848217L16.0374 0.563039L16.1306 0.277861C16.1282 0.277068 16.1239 0.276 16.1182 0.275534C16.1125 0.275063 16.1068 0.275334 16.1018 0.276152C16.0914 0.277849 16.09 0.28076 16.0986 0.275125L16.2624 0.526457ZM16.0374 0.563039L15.9443 0.848217L15.8318 0.811477L15.9249 0.526299L16.0181 0.241121L16.1306 0.277861L16.0374 0.563039ZM15.9249 0.526299L15.8318 0.811477L15.7193 0.774737L15.8124 0.48956L15.9056 0.204382L16.0181 0.241121L15.9249 0.526299ZM15.8124 0.48956L15.7193 0.774737C15.687 0.764181 15.6593 0.762423 15.6324 0.766491L15.5874 0.469884L15.5425 0.173276C15.6656 0.154592 15.7879 0.165951 15.9056 0.204382L15.8124 0.48956ZM15.5874 0.469884L15.6324 0.766491L15.5199 0.783555L15.4749 0.486947L15.43 0.19034L15.5425 0.173276L15.5874 0.469884ZM15.4749 0.486947L15.5199 0.783555L15.4074 0.800619L15.3624 0.504011L15.3175 0.207404L15.43 0.19034L15.4749 0.486947ZM15.3624 0.504011L15.4074 0.800619C15.325 0.813122 15.2425 0.822474 15.1598 0.828657L15.1375 0.529493L15.1151 0.23033C15.1824 0.225288 15.2499 0.217652 15.3175 0.207404L15.3624 0.504011ZM15.1375 0.529493L15.1598 0.828657L15.0473 0.837075L15.0249 0.537912L15.0026 0.238748L15.1151 0.23033L15.1375 0.529493ZM15.0249 0.537912L15.0473 0.837075L14.9348 0.845494L14.9124 0.54633L14.8901 0.247167L15.0026 0.238748L15.0249 0.537912ZM14.9124 0.54633L14.9348 0.845494C14.8049 0.855219 14.6797 0.829617 14.5633 0.776686L14.6874 0.503594L14.8116 0.230501C14.8452 0.245778 14.87 0.248666 14.8901 0.247167L14.9124 0.54633ZM14.6874 0.503594L14.5633 0.776686L14.4508 0.725531L14.5749 0.452438L14.6991 0.179346L14.8116 0.230501L14.6874 0.503594ZM14.5749 0.452438L14.4508 0.725531L14.3383 0.674376L14.4624 0.401283L14.5866 0.128191L14.6991 0.179346L14.5749 0.452438ZM14.4624 0.401283L14.3383 0.674376C14.2883 0.651649 14.2424 0.638934 14.1999 0.633572L14.2374 0.335932L14.275 0.0382925C14.3825 0.0518585 14.4866 0.0827108 14.5866 0.128191L14.4624 0.401283ZM14.2374 0.335932L14.1999 0.633572L14.0874 0.619376L14.1249 0.321736L14.1625 0.0240967L14.275 0.0382925L14.2374 0.335932ZM14.1249 0.321736L14.0874 0.619376L13.9749 0.60518L14.0124 0.307541L14.05 0.00990081L14.1625 0.0240967L14.1249 0.321736ZM14.0124 0.307541L13.9749 0.60518C13.9313 0.599678 13.8878 0.600981 13.8433 0.609413L13.7874 0.314654L13.7316 0.019895C13.8371 -8.49962e-05 13.9436 -0.00352487 14.05 0.00990081L14.0124 0.307541ZM13.7874 0.314654L13.8433 0.609413L13.7308 0.630722L13.6749 0.335963L13.6191 0.0412043L13.7316 0.019895L13.7874 0.314654ZM13.6749 0.335963L13.7308 0.630722L13.6183 0.652031L13.5624 0.357272L13.5066 0.0625136L13.6191 0.0412043L13.6749 0.335963ZM13.5624 0.357272L13.6183 0.652031C13.5443 0.666046 13.4703 0.680456 13.3963 0.695261L13.3374 0.401093L13.2786 0.106924C13.3546 0.0917152 13.4306 0.0769117 13.5066 0.0625136L13.5624 0.357272ZM13.3374 0.401093L13.3963 0.695261L13.2838 0.717772L13.2249 0.423604L13.1661 0.129435L13.2786 0.106924L13.3374 0.401093ZM13.2249 0.423604L13.2838 0.717772L13.1713 0.740283L13.1124 0.446115L13.0536 0.151946L13.1661 0.129435L13.2249 0.423604ZM13.1124 0.446115L13.1713 0.740283C13.0456 0.765439 12.9196 0.757823 12.798 0.7198L12.8875 0.433462L12.977 0.147123C13.0053 0.155985 13.0293 0.156805 13.0536 0.151946L13.1124 0.446115ZM12.8875 0.433462L12.798 0.7198L12.6855 0.684636L12.775 0.398298L12.8645 0.111959L12.977 0.147123L12.8875 0.433462ZM12.775 0.398298L12.6855 0.684636L12.573 0.649472L12.6625 0.363134L12.7519 0.0767953L12.8645 0.111959L12.775 0.398298ZM12.6625 0.363134L12.573 0.649472C12.5751 0.650132 12.5788 0.651038 12.5839 0.651416C12.589 0.651796 12.594 0.651531 12.5984 0.650817C12.6075 0.649329 12.608 0.646945 12.5991 0.652653L12.4375 0.399914L12.2758 0.147176C12.4143 0.0585953 12.5805 0.0232187 12.7519 0.0767953L12.6625 0.363134ZM12.4375 0.399914L12.5991 0.652653L12.4866 0.724598L12.3249 0.471859L12.1633 0.219121L12.2758 0.147176L12.4375 0.399914ZM12.3249 0.471859L12.4866 0.724598L12.3741 0.796542L12.2124 0.543804L12.0508 0.291065L12.1633 0.219121L12.3249 0.471859ZM12.2124 0.543804L12.3741 0.796542C12.231 0.888014 12.0593 0.920014 11.8856 0.85731L11.9874 0.575135L12.0893 0.292959C12.0871 0.292158 12.0828 0.290902 12.0768 0.290234C12.0707 0.289558 12.0644 0.289663 12.0586 0.290476C12.0464 0.292172 12.0434 0.295809 12.0508 0.291065L12.2124 0.543804ZM11.9874 0.575135L11.8856 0.85731L11.7731 0.816696L11.8749 0.534521L11.9768 0.252346L12.0893 0.292959L11.9874 0.575135ZM11.8749 0.534521L11.7731 0.816696L11.6606 0.776083L11.7624 0.493908L11.8643 0.211732L11.9768 0.252346L11.8749 0.534521ZM11.7624 0.493908L11.6606 0.776083C11.5892 0.750326 11.518 0.726162 11.4468 0.703585L11.5374 0.417619L11.6281 0.131653C11.7069 0.156642 11.7857 0.183338 11.8643 0.211732L11.7624 0.493908ZM11.5374 0.417619L11.4468 0.703585L11.3343 0.66791L11.4249 0.381944L11.5156 0.0959778L11.6281 0.131653L11.5374 0.417619ZM11.4249 0.381944L11.3343 0.66791L11.2218 0.632235L11.3124 0.346269L11.4031 0.0603027L11.5156 0.0959778L11.4249 0.381944ZM11.3124 0.346269L11.2218 0.632235C11.2206 0.631859 11.2207 0.631995 11.2218 0.632127C11.223 0.632263 11.2244 0.632292 11.2257 0.632175C11.229 0.631897 11.2273 0.63126 11.2194 0.635114L11.0874 0.365692L10.9555 0.0962699C11.0951 0.0278836 11.2497 0.0116552 11.4031 0.0603027L11.3124 0.346269ZM11.0874 0.365692L11.2194 0.635114L11.1069 0.690212L10.9749 0.42079L10.843 0.151368L10.9555 0.0962699L11.0874 0.365692ZM10.9749 0.42079L11.1069 0.690212L10.9944 0.74531L10.8624 0.475888L10.7305 0.206466L10.843 0.151368L10.9749 0.42079ZM10.8624 0.475888L10.9944 0.74531C10.8833 0.799722 10.7638 0.830942 10.6385 0.831364L10.6375 0.531366L10.6364 0.231367C10.6611 0.231284 10.6916 0.225519 10.7305 0.206466L10.8624 0.475888ZM10.6375 0.531366L10.6385 0.831364L10.526 0.831743L10.525 0.531745L10.5239 0.231746L10.6364 0.231367L10.6375 0.531366ZM10.525 0.531745L10.526 0.831743L10.4135 0.832122L10.4124 0.532124L10.4114 0.232125L10.5239 0.231746L10.525 0.531745ZM10.4124 0.532124L10.4135 0.832122C10.3467 0.832347 10.28 0.835329 10.2132 0.841076L10.1875 0.54218L10.1617 0.243283C10.2449 0.236128 10.3282 0.232406 10.4114 0.232125L10.4124 0.532124ZM10.1875 0.54218L10.2132 0.841076L10.1007 0.850753L10.075 0.551857L10.0492 0.25296L10.1617 0.243283L10.1875 0.54218ZM10.075 0.551857L10.1007 0.850753L9.98816 0.86043L9.96245 0.561534L9.93674 0.262637L10.0492 0.25296L10.075 0.551857ZM9.96245 0.561534L9.98816 0.86043C9.91555 0.866676 9.84293 0.873799 9.7703 0.8818L9.73745 0.583605L9.7046 0.285409C9.78197 0.276885 9.85935 0.269294 9.93674 0.262637L9.96245 0.561534ZM9.73745 0.583605L9.7703 0.8818L9.6578 0.894194L9.62495 0.595998L9.5921 0.297802L9.7046 0.285409L9.73745 0.583605ZM9.62495 0.595998L9.6578 0.894194L9.5453 0.906588L9.51245 0.608392L9.4796 0.310196L9.5921 0.297802L9.62495 0.595998ZM9.51245 0.608392L9.5453 0.906588C9.44416 0.91773 9.34291 0.915554 9.2422 0.900188L9.28745 0.603621L9.3327 0.307053C9.38199 0.314574 9.43074 0.315579 9.4796 0.310196L9.51245 0.608392ZM9.28745 0.603621L9.2422 0.900188L9.1297 0.883023L9.17495 0.586455L9.2202 0.289887L9.3327 0.307053L9.28745 0.603621ZM9.17495 0.586455L9.1297 0.883023L9.0172 0.865857L9.06245 0.56929L9.1077 0.272722L9.2202 0.289887L9.17495 0.586455ZM9.06245 0.56929L9.0172 0.865857C8.90706 0.849052 8.80138 0.813103 8.70085 0.761689L8.83745 0.494591L8.97404 0.227493C9.02351 0.25279 9.06783 0.26664 9.1077 0.272722L9.06245 0.56929ZM8.83745 0.494591L8.70085 0.761689L8.58835 0.704156L8.72495 0.437058L8.86155 0.16996L8.97404 0.227493L8.83745 0.494591ZM8.72495 0.437058L8.58835 0.704156L8.47585 0.646623L8.61245 0.379525L8.74905 0.112427L8.86155 0.16996L8.72495 0.437058ZM8.61245 0.379525L8.47585 0.646623C8.45346 0.635174 8.44561 0.637396 8.4427 0.637941L8.38745 0.343073L8.3322 0.0482046C8.47929 0.0206417 8.62143 0.0471658 8.74905 0.112427L8.61245 0.379525ZM8.38745 0.343073L8.4427 0.637941L8.3302 0.659021L8.27495 0.364153L8.2197 0.0692851L8.3322 0.0482046L8.38745 0.343073ZM8.27495 0.364153L8.3302 0.659021L8.2177 0.680102L8.16245 0.385234L8.1072 0.0903656L8.2197 0.0692851L8.27495 0.364153ZM8.16245 0.385234L8.2177 0.680102C8.13236 0.696093 8.04677 0.707491 7.96098 0.71424L7.93745 0.415164L7.91392 0.116088C7.97813 0.111037 8.04254 0.102481 8.1072 0.0903656L8.16245 0.385234ZM7.93745 0.415164L7.96098 0.71424L7.84848 0.72309L7.82495 0.424014L7.80142 0.124938L7.91392 0.116088L7.93745 0.415164ZM7.82495 0.424014L7.84848 0.72309L7.73598 0.73194L7.71245 0.432863L7.68892 0.133787L7.80142 0.124938L7.82495 0.424014ZM7.71245 0.432863L7.73598 0.73194C7.63852 0.739606 7.54111 0.736307 7.44416 0.72217L7.48745 0.425309L7.53074 0.128448C7.58378 0.136184 7.63637 0.137921 7.68892 0.133787L7.71245 0.432863ZM7.48745 0.425309L7.44416 0.72217L7.33166 0.705766L7.37495 0.408905L7.41824 0.112044L7.53074 0.128448L7.48745 0.425309ZM7.37495 0.408905L7.33166 0.705766L7.21916 0.689362L7.26245 0.392501L7.30574 0.0956402L7.41824 0.112044L7.37495 0.408905ZM7.26245 0.392501L7.21916 0.689362C7.17363 0.682723 7.12854 0.682885 7.08292 0.689881L7.03745 0.393346L6.99198 0.0968111C7.09636 0.0808083 7.20127 0.080407 7.30574 0.0956402L7.26245 0.392501ZM7.03745 0.393346L7.08292 0.689881L6.97041 0.70713L6.92495 0.410595L6.87948 0.11406L6.99198 0.0968111L7.03745 0.393346ZM6.92495 0.410595L6.97041 0.70713L6.85791 0.724379L6.81245 0.427844L6.76698 0.131309L6.87948 0.11406L6.92495 0.410595ZM6.81245 0.427844L6.85791 0.724379C6.74405 0.741836 6.63005 0.736836 6.51803 0.710192L6.58745 0.418334L6.65687 0.126477C6.69485 0.135511 6.73084 0.13685 6.76698 0.131309L6.81245 0.427844ZM6.58745 0.418334L6.51803 0.710192L6.40553 0.683433L6.47495 0.391575L6.54437 0.0997176L6.65687 0.126477L6.58745 0.418334ZM6.47495 0.391575L6.40553 0.683433L6.29303 0.656674L6.36245 0.364816L6.43187 0.0729587L6.54437 0.0997176L6.47495 0.391575ZM6.36245 0.364816L6.29303 0.656674C6.23278 0.642345 6.17317 0.632968 6.11406 0.628344L6.13745 0.329258L6.16084 0.0301712C6.25173 0.0372801 6.34211 0.0516093 6.43187 0.0729587L6.36245 0.364816ZM6.13745 0.329258L6.11406 0.628344L6.00155 0.619545L6.02495 0.320458L6.04834 0.0213716L6.16084 0.0301712L6.13745 0.329258ZM6.02495 0.320458L6.00155 0.619545L5.88905 0.610745L5.91245 0.311658L5.93584 0.012572L6.04834 0.0213716L6.02495 0.320458ZM5.91245 0.311658L5.88905 0.610745C5.87236 0.609439 5.85007 0.611689 5.81759 0.627326L5.68745 0.357023L5.55731 0.0867203C5.67483 0.0301382 5.80253 0.00214472 5.93584 0.012572L5.91245 0.311658ZM5.68745 0.357023L5.81759 0.627326L5.70509 0.68149L5.57495 0.411187L5.44481 0.140885L5.55731 0.0867203L5.68745 0.357023ZM5.57495 0.411187L5.70509 0.68149L5.59259 0.735654L5.46245 0.465352L5.33231 0.195049L5.44481 0.140885L5.57495 0.411187ZM5.46245 0.465352L5.59259 0.735654C5.48203 0.788882 5.36351 0.819432 5.23946 0.820264L5.23745 0.52027L5.23544 0.220277C5.26139 0.220103 5.29286 0.21404 5.33231 0.195049L5.46245 0.465352ZM5.23745 0.52027L5.23946 0.820264L5.12696 0.821018L5.12495 0.521025L5.12294 0.221031L5.23544 0.220277L5.23745 0.52027ZM5.12495 0.521025L5.12696 0.821018L5.01446 0.821772L5.01245 0.521779L5.01044 0.221786L5.12294 0.221031L5.12495 0.521025ZM5.01245 0.521779L5.01446 0.821772C4.92727 0.822357 4.84018 0.817641 4.75322 0.807657L4.78745 0.509615L4.82167 0.211574C4.88472 0.218814 4.94762 0.222207 5.01044 0.221786L5.01245 0.521779ZM4.78745 0.509615L4.75322 0.807657L4.64072 0.794739L4.67495 0.496697L4.70917 0.198656L4.82167 0.211574L4.78745 0.509615ZM4.67495 0.496697L4.64072 0.794739L4.52822 0.781821L4.56245 0.483779L4.59667 0.185738L4.70917 0.198656L4.67495 0.496697ZM4.56245 0.483779L4.52822 0.781821C4.48744 0.777137 4.44642 0.77927 4.40376 0.788939L4.33745 0.49636L4.27113 0.203781C4.37847 0.179452 4.48746 0.173197 4.59667 0.185738L4.56245 0.483779ZM4.33745 0.49636L4.40376 0.788939L4.29126 0.814437L4.22495 0.521859L4.15863 0.22928L4.27113 0.203781L4.33745 0.49636ZM4.22495 0.521859L4.29126 0.814437L4.17876 0.839936L4.11245 0.547357L4.04613 0.254778L4.15863 0.22928L4.22495 0.521859ZM4.11245 0.547357L4.17876 0.839936C4.07034 0.864512 3.96022 0.870223 3.84999 0.856352L3.88745 0.558699L3.92491 0.261047C3.96468 0.266051 4.00457 0.2642 4.04613 0.254778L4.11245 0.547357ZM3.88745 0.558699L3.84999 0.856352L3.7375 0.842195L3.77495 0.544542L3.81241 0.24689L3.92491 0.261047L3.88745 0.558699ZM3.77495 0.544542L3.7375 0.842195L3.625 0.828038L3.66245 0.530386L3.69991 0.232733L3.81241 0.24689L3.77495 0.544542ZM3.66245 0.530386L3.625 0.828038C3.57673 0.821965 3.52873 0.822393 3.48027 0.829381L3.43745 0.532453L3.39463 0.235525C3.49617 0.220881 3.59817 0.219931 3.69991 0.232733L3.66245 0.530386ZM3.43745 0.532453L3.48027 0.829381L3.36777 0.845606L3.32495 0.548677L3.28213 0.251749L3.39463 0.235525L3.43745 0.532453ZM3.32495 0.548677L3.36777 0.845606L3.25527 0.86183L3.21245 0.564902L3.16963 0.267974L3.28213 0.251749L3.32495 0.548677ZM3.21245 0.564902L3.25527 0.86183C3.13428 0.879278 3.01411 0.868608 2.89798 0.832323L2.98745 0.545975L3.07692 0.259627C3.11079 0.27021 3.14061 0.272158 3.16963 0.267974L3.21245 0.564902ZM2.98745 0.545975L2.89798 0.832323L2.78548 0.797173L2.87495 0.510825L2.96442 0.224477L3.07692 0.259627L2.98745 0.545975ZM2.87495 0.510825L2.78548 0.797173L2.67298 0.762022L2.76245 0.475674L2.85192 0.189326L2.96442 0.224477L2.87495 0.510825ZM2.76245 0.475674L2.67298 0.762022C2.60728 0.741495 2.54197 0.724598 2.47703 0.711244L2.53745 0.417392L2.59787 0.123539C2.68292 0.141028 2.76761 0.162986 2.85192 0.189326L2.76245 0.475674ZM2.53745 0.417392L2.47703 0.711244L2.36452 0.688112L2.42495 0.39426L2.48537 0.100407L2.59787 0.123539L2.53745 0.417392ZM2.42495 0.39426L2.36452 0.688112L2.25203 0.664981L2.31245 0.371128L2.37287 0.0772754L2.48537 0.100407L2.42495 0.39426ZM2.31245 0.371128L2.25203 0.664981C2.24136 0.662788 2.22881 0.662272 2.20629 0.671989L2.08745 0.396533L1.96861 0.121076C2.09608 0.0660775 2.23353 0.0486251 2.37287 0.0772754L2.31245 0.371128ZM2.08745 0.396533L2.20629 0.671989L2.09379 0.720526L1.97495 0.445069L1.85611 0.169612L1.96861 0.121076L2.08745 0.396533ZM1.97495 0.445069L2.09379 0.720526L1.98129 0.769062L1.86245 0.493605L1.74361 0.218149L1.85611 0.169612L1.97495 0.445069ZM1.86245 0.493605L1.98129 0.769062C1.87586 0.814548 1.76528 0.841756 1.6509 0.846888L1.63745 0.547189L1.624 0.24749C1.65962 0.245892 1.69904 0.237378 1.74361 0.218149L1.86245 0.493605ZM1.63745 0.547189L1.6509 0.846888L1.53839 0.851935L1.52495 0.552236L1.51151 0.252538L1.624 0.24749L1.63745 0.547189ZM1.52495 0.552236L1.53839 0.851935L1.4259 0.856982L1.41245 0.557283L1.39901 0.257585L1.51151 0.252538L1.52495 0.552236ZM1.41245 0.557283L1.4259 0.856982C1.35432 0.860193 1.28273 0.864633 1.21112 0.870301L1.18745 0.571236L1.16377 0.272172C1.24218 0.265966 1.32058 0.261103 1.39901 0.257585L1.41245 0.557283ZM1.18745 0.571236L1.21112 0.870301L1.09863 0.879206L1.07495 0.580142L1.05128 0.281077L1.16377 0.272172L1.18745 0.571236ZM1.07495 0.580142L1.09863 0.879206L0.986122 0.888111L0.962448 0.589047L0.938774 0.289982L1.05128 0.281077L1.07495 0.580142ZM0.962448 0.589047L0.986122 0.888111C0.878342 0.896643 0.771225 0.887535 0.665947 0.861702L0.73745 0.570346L0.808945 0.27899C0.853668 0.289965 0.896545 0.293325 0.938774 0.289982L0.962448 0.589047ZM0.73745 0.570346L0.665947 0.861702L0.553452 0.834095L0.624947 0.542739L0.696442 0.251383L0.808945 0.27899L0.73745 0.570346ZM0.624947 0.542739L0.553452 0.834095L0.440948 0.806489L0.512444 0.515133L0.583939 0.223777L0.696442 0.251383L0.624947 0.542739ZM0.512444 0.515133L0.440948 0.806489C0.366608 0.788245 0.3284 0.781244 0.315422 0.77974L0.349945 0.481734L0.384476 0.183727C0.438156 0.189947 0.508286 0.205212 0.583939 0.223777L0.512444 0.515133ZM0.349945 0.481734L0.315422 0.77974L0.265419 0.773948L0.29995 0.475941L0.334473 0.177934L0.384476 0.183727L0.349945 0.481734ZM0.29995 0.475941L-5.34058e-05 0.475881L-4.57764e-05 0.464295L0.29995 0.464355L0.599953 0.464416L0.599945 0.476001L0.29995 0.475941ZM0.29995 0.464355V0.764355H0.199951V0.464355V0.164355H0.29995V0.464355Z" fill="#7E8B69"/>
</svg>
