<svg width="66" height="1" viewBox="0 0 66 1" fill="none" xmlns="http://www.w3.org/2000/svg">
<path d="M0.1 0.464355L0.144571 0.167685L0.12241 0.164355H0.1V0.464355ZM0.5625 0.469524L0.445986 0.193074V0.193074L0.5625 0.469524ZM1.0125 0.401983L0.846547 0.651902L1.0125 0.401983ZM1.125 0.476686L1.29095 0.226766L1.125 0.476686ZM1.2375 0.551389L1.07155 0.801308L1.2375 0.551389ZM1.6875 0.638279L1.67667 0.938083L1.6875 0.638279ZM1.9125 0.570266L2.07434 0.82287L1.9125 0.570266ZM2.025 0.49819L1.86316 0.245586L2.025 0.49819ZM2.1375 0.426114L2.29934 0.678719L2.1375 0.426114ZM2.3625 0.377096L2.30227 0.670987L2.3625 0.377096ZM2.5875 0.423212L2.52727 0.717103L2.5875 0.423212ZM2.8125 0.420456L2.87959 0.712858L2.8125 0.420456ZM2.925 0.394643L2.85791 0.102241L2.925 0.394643ZM3.0375 0.368829L2.97041 0.0764278L3.0375 0.368829ZM3.4875 0.40073L3.43693 0.696438L3.4875 0.40073ZM3.825 0.413935L3.81696 0.114043L3.825 0.413935ZM3.9375 0.410918L3.92946 0.111026L3.9375 0.410918ZM4.1625 0.445072L4.25662 0.160219L4.1625 0.445072ZM4.3875 0.519415L4.29338 0.804268L4.3875 0.519415ZM4.6125 0.568857L4.64503 0.270626L4.6125 0.568857ZM4.8375 0.593399L4.80497 0.89163L4.8375 0.593399ZM5.0625 0.531934L4.89805 0.281026L5.0625 0.531934ZM5.175 0.458198L5.33945 0.709106L5.175 0.458198ZM5.2875 0.384461L5.12305 0.133553L5.2875 0.384461ZM5.5125 0.340766L5.4351 0.63061L5.5125 0.340766ZM5.7375 0.400848L5.8149 0.111004L5.7375 0.400848ZM5.9625 0.451072L5.90953 0.746358L5.9625 0.451072ZM6.075 0.471255L6.12798 0.175969L6.075 0.471255ZM6.4125 0.489594L6.47014 0.784004L6.4125 0.489594ZM6.6375 0.445541L6.57986 0.151131L6.6375 0.445541ZM7.3125 0.404269L7.36433 0.699758L7.3125 0.404269ZM7.425 0.384537L7.37317 0.0890478L7.425 0.384537ZM7.7625 0.383849L7.66474 0.667475L7.7625 0.383849ZM7.9875 0.461398L7.88975 0.745024L7.9875 0.461398ZM8.2125 0.517209L8.25742 0.220591V0.220591L8.2125 0.517209ZM8.4375 0.551282L8.39258 0.8479V0.8479L8.4375 0.551282ZM8.6625 0.505773L8.80828 0.767974L8.6625 0.505773ZM8.8875 0.380681L8.74173 0.118479L8.8875 0.380681ZM9.5625 0.387005L9.43927 0.660525V0.660525L9.5625 0.387005ZM9.7875 0.488379L9.91074 0.21486V0.21486L9.7875 0.488379ZM10.125 0.431814L9.99591 0.161007L10.125 0.431814ZM10.2375 0.378187L10.3666 0.648994L10.2375 0.378187ZM10.4625 0.319687L10.4495 0.0199685L10.4625 0.319687ZM10.9125 0.381759L10.7435 0.629642L10.9125 0.381759ZM11.1375 0.53514L11.3065 0.287258L11.1375 0.53514ZM11.3625 0.580301L11.2815 0.291432L11.3625 0.580301ZM11.475 0.548772L11.394 0.259902L11.475 0.548772ZM11.5875 0.517242L11.6685 0.806111L11.5875 0.517242ZM11.8125 0.440588L11.7008 0.162151L11.8125 0.440588ZM12.0375 0.35034L12.1492 0.628777L12.0375 0.35034ZM12.2625 0.330807L12.196 0.623334L12.2625 0.330807ZM12.4875 0.381988L12.554 0.0894613L12.4875 0.381988ZM12.825 0.405012L12.8216 0.105032L12.825 0.405012ZM13.1625 0.422277L13.2146 0.126833L13.1625 0.422277ZM14.0625 0.597579L13.9942 0.305453L14.0625 0.597579ZM14.2875 0.544989L14.3558 0.837116L14.2875 0.544989ZM14.5125 0.51614L14.5057 0.216217L14.5125 0.51614ZM14.9625 0.508373L14.9622 0.208373L14.9625 0.508373ZM15.6375 0.51303L15.6331 0.812998L15.6375 0.51303ZM15.8625 0.530692L15.8202 0.827701L15.8625 0.530692ZM16.0875 0.562705L16.0452 0.859714L16.0875 0.562705ZM16.7625 0.367526L16.9201 0.112263L16.7625 0.367526ZM16.9875 0.506449L16.8299 0.761712L16.9875 0.506449ZM17.6625 0.554108L17.5917 0.262587L17.6625 0.554108ZM17.8875 0.499448L17.8167 0.207927L17.8875 0.499448ZM18.1125 0.513545L18.2162 0.232025L18.1125 0.513545ZM18.3375 0.596398L18.2338 0.877918L18.3375 0.596398ZM18.5625 0.600152L18.6578 0.884626L18.5625 0.600152ZM18.7875 0.524807L18.8828 0.809281L18.7875 0.524807ZM19.0125 0.522758L18.9219 0.808762L19.0125 0.522758ZM19.125 0.558382L19.2156 0.272378L19.125 0.558382ZM19.2375 0.594006L19.3281 0.308002L19.2375 0.594006ZM19.4625 0.632498L19.4549 0.9324L19.4625 0.632498ZM19.6875 0.638234L19.6951 0.338332L19.6875 0.638234ZM19.9125 0.559534L19.7364 0.316657L19.9125 0.559534ZM20.025 0.477967L19.8489 0.235089L20.025 0.477967ZM20.1375 0.396399L20.3136 0.639276L20.1375 0.396399ZM20.3625 0.331929L20.4076 0.0353343L20.3625 0.331929ZM20.5875 0.366124L20.5424 0.662718L20.5875 0.366124ZM20.8125 0.444468L20.9559 0.180984L20.8125 0.444468ZM21.0375 0.566961L21.1809 0.303476L21.0375 0.566961ZM21.4875 0.629191L21.4866 0.92919L21.4875 0.629191ZM21.7125 0.545652L21.8918 0.786172L21.7125 0.545652ZM21.9375 0.377917L21.7582 0.137397L21.9375 0.377917ZM22.1625 0.371584L21.9923 0.6186L22.1625 0.371584ZM22.3875 0.526654L22.2173 0.773671L22.3875 0.526654ZM22.6125 0.539567L22.7619 0.799705L22.6125 0.539567ZM22.8375 0.410323L22.9869 0.67046L22.8375 0.410323ZM23.0625 0.382603L23.156 0.0975468L23.0625 0.382603ZM23.2875 0.456407L23.194 0.741463L23.2875 0.456407ZM23.5125 0.502574L23.4879 0.801561L23.5125 0.502574ZM23.7375 0.521103L23.7129 0.820091L23.7375 0.521103ZM23.9625 0.484108L24.0766 0.761567L23.9625 0.484108ZM24.1875 0.39159L24.3016 0.669049L24.1875 0.39159ZM24.6375 0.35358L24.6302 0.653491L24.6375 0.35358ZM24.8625 0.364288L24.8413 0.66354L24.8625 0.364288ZM24.975 0.372246L24.9538 0.671498L24.975 0.372246ZM25.0875 0.380203L25.0663 0.679456L25.0875 0.380203ZM25.3125 0.433899L25.4255 0.155989L25.3125 0.433899ZM25.5375 0.525375L25.4245 0.803285L25.5375 0.525375ZM25.7625 0.575884L25.7498 0.875615L25.7625 0.575884ZM25.875 0.580655L25.8623 0.880385L25.875 0.580655ZM25.9875 0.585426L26.0002 0.285695L25.9875 0.585426ZM26.2125 0.599526L26.2373 0.300552L26.2125 0.599526ZM26.4375 0.618184L26.4623 0.31921L26.4375 0.618184ZM26.6625 0.580591L26.778 0.857474L26.6625 0.580591ZM26.8875 0.486748L26.772 0.209866L26.8875 0.486748ZM27.1125 0.45696L27.0673 0.75354L27.1125 0.45696ZM27.225 0.474094L27.1798 0.770674L27.225 0.474094ZM27.3375 0.491227L27.3827 0.194647L27.3375 0.491227ZM27.5625 0.499718L27.5395 0.200599L27.5625 0.499718ZM27.7875 0.482432L27.7645 0.183314L27.7875 0.482432ZM28.0125 0.494506L28.0668 0.199467L28.0125 0.494506ZM28.2375 0.53594L28.1832 0.830979L28.2375 0.53594ZM28.4625 0.524448L28.5451 0.81286L28.4625 0.524448ZM28.6875 0.460029L28.7701 0.748441L28.6875 0.460029ZM28.9125 0.403464L28.849 0.110257L28.9125 0.403464ZM29.1375 0.354753L29.074 0.0615452L29.1375 0.354753ZM29.3625 0.401841L29.5233 0.148593L29.3625 0.401841ZM29.5875 0.544729L29.4267 0.797977L29.5875 0.544729ZM29.8125 0.589017L29.8829 0.880641L29.8125 0.589017ZM30.0375 0.534704L30.1079 0.826328L30.0375 0.534704ZM30.2625 0.474806L30.1787 0.186758L30.2625 0.474806ZM30.375 0.442064L30.4588 0.730112L30.375 0.442064ZM30.4875 0.409322L30.5713 0.69737L30.4875 0.409322ZM30.7125 0.37883L30.7065 0.67877L30.7125 0.37883ZM30.9375 0.383331L30.9435 0.0833909L30.9375 0.383331ZM31.1625 0.361865L31.2244 0.655413L31.1625 0.361865ZM31.3875 0.314432L31.4494 0.60798L31.3875 0.314432ZM31.6125 0.3061L31.5719 0.603334L31.6125 0.3061ZM31.8375 0.33687L31.8781 0.0396366L31.8375 0.33687ZM32.0625 0.371679L32.1135 0.0760538L32.0625 0.371679ZM32.2875 0.410529L32.2365 0.706154L32.2875 0.410529ZM32.9625 0.424643L32.948 0.124993L32.9625 0.424643ZM33.075 0.419208L33.0895 0.718859L33.075 0.419208ZM33.1875 0.413773L33.173 0.114123L33.1875 0.413773ZM33.4125 0.391966L33.3693 0.0950933L33.4125 0.391966ZM33.6375 0.359221L33.6807 0.656094L33.6375 0.359221ZM33.8625 0.348539L33.8473 0.648156V0.648156L33.8625 0.348539ZM34.0875 0.359918L34.1027 0.0603015V0.0603015L34.0875 0.359918ZM34.3125 0.429264L34.1648 0.690365L34.3125 0.429264ZM34.425 0.492919L34.5727 0.231819L34.425 0.492919ZM34.5375 0.556575L34.3898 0.817676L34.5375 0.556575ZM34.7625 0.585299L34.6735 0.298792L34.7625 0.585299ZM34.9875 0.515437L35.0765 0.801943L34.9875 0.515437ZM35.2125 0.503784L35.1517 0.79756L35.2125 0.503784ZM35.325 0.527062L35.3858 0.233285L35.325 0.527062ZM35.4375 0.55034L35.4983 0.256563L35.4375 0.55034ZM35.6625 0.517668L35.7961 0.786282L35.6625 0.517668ZM35.775 0.461717L35.6414 0.193104L35.775 0.461717ZM35.8875 0.405767L36.0211 0.674381L35.8875 0.405767ZM36.1125 0.354954L36.0988 0.654642L36.1125 0.354954ZM36.3375 0.36523L36.3512 0.0655422L36.3375 0.36523ZM36.5625 0.424748L36.4319 0.694848L36.5625 0.424748ZM36.7875 0.53351L36.9181 0.263411L36.7875 0.53351ZM37.0125 0.566176L36.9556 0.271613L37.0125 0.566176ZM37.125 0.54446L37.1819 0.839023L37.125 0.54446ZM37.2375 0.522745L37.1806 0.228182L37.2375 0.522745ZM37.4625 0.520154L37.4122 0.815911L37.4625 0.520154ZM37.6875 0.558404L37.7378 0.262647L37.6875 0.558404ZM37.9125 0.54196L38.0029 0.828004L37.9125 0.54196ZM38.1375 0.470823L38.0471 0.184779L38.1375 0.470823ZM38.3625 0.431627L38.3722 0.731471L38.3625 0.431627ZM38.475 0.427999L38.4653 0.128155L38.475 0.427999ZM38.5875 0.424372L38.5972 0.724216V0.724216L38.5875 0.424372ZM38.8125 0.438214L38.8585 0.141766L38.8125 0.438214ZM39.0375 0.473151L38.9915 0.769599L39.0375 0.473151ZM39.2625 0.443745L39.1471 0.166822L39.2625 0.443745ZM39.4875 0.349995L39.6029 0.626918L39.4875 0.349995ZM39.7125 0.321957L39.663 0.617838V0.617838L39.7125 0.321957ZM39.9375 0.359629L39.987 0.0637479V0.0637479L39.9375 0.359629ZM40.3875 0.560783L40.2449 0.824732L40.3875 0.560783ZM40.6125 0.542722L40.4403 0.297038L40.6125 0.542722ZM40.8375 0.385055L41.0097 0.630739L40.8375 0.385055ZM41.0625 0.368838L40.9166 0.63097L41.0625 0.368838ZM41.175 0.431454L41.0291 0.693586L41.175 0.431454ZM41.2875 0.494071L41.4334 0.231939L41.2875 0.494071ZM41.5125 0.568473L41.4812 0.86684V0.86684L41.5125 0.568473ZM41.625 0.580259L41.6563 0.281892V0.281892L41.625 0.580259ZM41.9625 0.584063L41.9106 0.28859L41.9625 0.584063ZM42.1875 0.544526L42.2394 0.839999L42.1875 0.544526ZM42.4125 0.468307L42.278 0.200171L42.4125 0.468307ZM42.6375 0.355404L42.772 0.623539L42.6375 0.355404ZM42.8625 0.380003L42.6871 0.623411L42.8625 0.380003ZM42.975 0.461053L43.1504 0.217644L42.975 0.461053ZM43.0875 0.542103L42.9121 0.785512L43.0875 0.542103ZM43.3125 0.547727L43.1454 0.298549L43.3125 0.547727ZM43.5375 0.396872L43.7046 0.64605L43.5375 0.396872ZM43.7625 0.379L43.6259 0.646078L43.7625 0.379ZM43.9875 0.494109L44.1241 0.227031L43.9875 0.494109ZM44.2125 0.538563L44.1778 0.240576L44.2125 0.538563ZM44.325 0.525462L44.3597 0.823449L44.325 0.525462ZM44.4375 0.512362L44.4722 0.810348L44.4375 0.512362ZM44.6625 0.47242L44.5929 0.18061L44.6625 0.47242ZM44.8875 0.418737L44.9571 0.710546L44.8875 0.418737ZM45.1125 0.374714L45.0672 0.0781529L45.1125 0.374714ZM45.225 0.357533L45.1797 0.0609714L45.225 0.357533ZM45.3375 0.340351L45.3828 0.636913L45.3375 0.340351ZM45.5625 0.328944L45.5471 0.62855L45.5625 0.328944ZM45.675 0.334718L45.6904 0.0351128L45.675 0.334718ZM45.7875 0.340493L45.7721 0.640098L45.7875 0.340493ZM46.0125 0.369202L45.9526 0.663156L46.0125 0.369202ZM46.2375 0.415071L46.2974 0.121117L46.2375 0.415071ZM46.4625 0.483551L46.3499 0.761626L46.4625 0.483551ZM46.6875 0.574643L46.8001 0.296568L46.6875 0.574643ZM46.9125 0.61219L46.9338 0.911434L46.9125 0.61219ZM47.1375 0.596192L47.1162 0.296947L47.1375 0.596192ZM47.3625 0.572322L47.4044 0.86938V0.86938L47.3625 0.572322ZM47.5875 0.54058L47.5456 0.243521V0.243521L47.5875 0.54058ZM47.8125 0.521278L47.8034 0.221417L47.8125 0.521278ZM48.0375 0.514416L48.0466 0.814277L48.0375 0.514416ZM48.2625 0.459862L48.1384 0.18674L48.2625 0.459862ZM48.375 0.408739L48.4991 0.681861V0.681861L48.375 0.408739ZM48.4875 0.357615L48.3634 0.0844935V0.0844935L48.4875 0.357615ZM48.7125 0.379814L48.5487 0.631146L48.7125 0.379814ZM48.9375 0.526457L49.1013 0.275125L48.9375 0.526457ZM49.1625 0.563039L49.0694 0.277861L49.1625 0.563039ZM49.3875 0.48956L49.4806 0.774737L49.3875 0.48956ZM49.6125 0.469884L49.6575 0.173276L49.6125 0.469884ZM50.0625 0.529493L50.0849 0.23033L50.0625 0.529493ZM50.2875 0.54633L50.2651 0.845494L50.2875 0.54633ZM50.5125 0.503594L50.3883 0.230501L50.5125 0.503594ZM50.7375 0.401283L50.8617 0.674376L50.7375 0.401283ZM50.9625 0.335932L50.9249 0.0382925L50.9625 0.335932ZM51.1875 0.307541L51.2251 0.60518L51.1875 0.307541ZM51.4125 0.314654L51.3567 0.609413L51.4125 0.314654ZM51.525 0.335963L51.5808 0.0412043L51.525 0.335963ZM51.6375 0.357272L51.5817 0.652031L51.6375 0.357272ZM51.8625 0.401093L51.9214 0.106924L51.8625 0.401093ZM52.0875 0.446115L52.0286 0.740283L52.0875 0.446115ZM52.3125 0.433462L52.223 0.147123L52.3125 0.433462ZM52.5375 0.363134L52.627 0.649472L52.5375 0.363134ZM52.7625 0.399914L52.6009 0.652653L52.7625 0.399914ZM52.875 0.471859L53.0366 0.219121L52.875 0.471859ZM53.2125 0.575135L53.1106 0.292959L53.2125 0.575135ZM53.4375 0.493908L53.5394 0.776083L53.4375 0.493908ZM53.6625 0.417619L53.5718 0.131653L53.6625 0.417619ZM53.775 0.381944L53.8657 0.66791L53.775 0.381944ZM53.8875 0.346269L53.9782 0.632235L53.8875 0.346269ZM54.1125 0.365692L54.2445 0.0962699L54.1125 0.365692ZM54.3375 0.475888L54.2055 0.74531L54.3375 0.475888ZM54.5625 0.531366L54.5615 0.831364L54.5625 0.531366ZM55.0125 0.54218L54.9868 0.841076L55.0125 0.54218ZM55.2375 0.561534L55.2632 0.262637L55.2375 0.561534ZM55.4625 0.583605L55.4954 0.285409L55.4625 0.583605ZM55.575 0.595998L55.5421 0.894194L55.575 0.595998ZM55.6875 0.608392L55.7204 0.310196L55.6875 0.608392ZM55.9125 0.603621L55.9578 0.900188L55.9125 0.603621ZM56.1375 0.56929L56.0923 0.272722L56.1375 0.56929ZM56.3625 0.494591L56.2259 0.227493L56.3625 0.494591ZM56.5875 0.379525L56.7241 0.646623L56.5875 0.379525ZM56.8125 0.343073L56.7572 0.637941L56.8125 0.343073ZM56.925 0.364153L56.9803 0.0692851L56.925 0.364153ZM57.0375 0.385234L56.9823 0.680102L57.0375 0.385234ZM57.2625 0.415164L57.239 0.71424L57.2625 0.415164ZM57.4875 0.432863L57.511 0.133787L57.4875 0.432863ZM57.7125 0.425309L57.6692 0.128448L57.7125 0.425309ZM57.9375 0.392501L57.9808 0.689362L57.9375 0.392501ZM58.1625 0.393346L58.208 0.0968111L58.1625 0.393346ZM58.275 0.410595L58.2295 0.70713L58.275 0.410595ZM58.3875 0.427844L58.433 0.131309L58.3875 0.427844ZM58.6125 0.418334L58.5431 0.126477L58.6125 0.418334ZM58.8375 0.364816L58.9069 0.656674L58.8375 0.364816ZM59.0625 0.329258L59.0391 0.0301712L59.0625 0.329258ZM59.2875 0.311658L59.3109 0.610745L59.2875 0.311658ZM59.5125 0.357023L59.3824 0.627326L59.5125 0.357023ZM59.625 0.411187L59.7551 0.140885L59.625 0.411187ZM59.7375 0.465352L59.6074 0.735654L59.7375 0.465352ZM60.4125 0.509615L60.3783 0.211574V0.211574L60.4125 0.509615ZM60.6375 0.483779L60.6717 0.781821V0.781821L60.6375 0.483779ZM60.8625 0.49636L60.9288 0.203781L60.8625 0.49636ZM61.3125 0.558699L61.275 0.261047L61.3125 0.558699ZM61.5375 0.530386L61.575 0.828038L61.5375 0.530386ZM61.7625 0.532453L61.8053 0.235525L61.7625 0.532453ZM61.9875 0.564902L61.9447 0.86183L61.9875 0.564902ZM62.2125 0.545975L62.123 0.259627L62.2125 0.545975ZM62.325 0.510825L62.4145 0.797173L62.325 0.510825ZM62.4375 0.475674L62.527 0.762022L62.4375 0.475674ZM62.6625 0.417392L62.6021 0.123539L62.6625 0.417392ZM62.775 0.39426L62.8354 0.688112L62.775 0.39426ZM62.8875 0.371128L62.8271 0.0772754L62.8875 0.371128ZM63.1125 0.396533L63.2313 0.121076L63.1125 0.396533ZM63.3375 0.493605L63.2187 0.769062L63.3375 0.493605ZM63.5625 0.547189L63.5491 0.846888L63.5625 0.547189ZM63.7875 0.557283L63.8009 0.257585L63.7875 0.557283ZM64.0125 0.571236L63.9888 0.870301L64.0125 0.571236ZM64.2375 0.589047L64.2612 0.289982L64.2375 0.589047ZM64.4625 0.570346L64.391 0.27899L64.4625 0.570346ZM64.6875 0.515133L64.759 0.806489L64.6875 0.515133ZM64.9 0.475941L64.9345 0.773948L65.2001 0.743184L65.2 0.475881L64.9 0.475941ZM64.9 0.464355V0.164355H64.5999L64.6 0.464416L64.9 0.464355ZM0 0.464355V0.764355H0.1V0.464355V0.164355H0V0.464355ZM0.1 0.464355L0.0554293 0.761026L0.230429 0.787317L0.275 0.490647L0.319571 0.193976L0.144571 0.167685L0.1 0.464355ZM0.275 0.490647L0.230429 0.787317C0.378522 0.809566 0.535283 0.806551 0.679014 0.745973L0.5625 0.469524L0.445986 0.193074C0.439717 0.195716 0.404811 0.206782 0.319571 0.193976L0.275 0.490647ZM0.5625 0.469524L0.679014 0.745973L0.791514 0.698559L0.675 0.422109L0.558486 0.145659L0.445986 0.193074L0.5625 0.469524ZM0.675 0.422109L0.791514 0.698559L0.904014 0.651144L0.7875 0.374694L0.670986 0.0982442L0.558486 0.145659L0.675 0.422109ZM0.7875 0.374694L0.904014 0.651144C0.901382 0.652253 0.896009 0.654136 0.888279 0.655296C0.880424 0.656475 0.872046 0.656617 0.86388 0.655627C0.846874 0.653564 0.840593 0.647948 0.846547 0.651902L1.0125 0.401983L1.17845 0.152063C1.03018 0.0536029 0.849664 0.0229379 0.670986 0.0982442L0.7875 0.374694ZM1.0125 0.401983L0.846547 0.651902L0.959047 0.726605L1.125 0.476686L1.29095 0.226766L1.17845 0.152063L1.0125 0.401983ZM1.125 0.476686L0.959047 0.726605L1.07155 0.801308L1.2375 0.551389L1.40345 0.301469L1.29095 0.226766L1.125 0.476686ZM1.2375 0.551389L1.07155 0.801308C1.1834 0.875579 1.3112 0.924886 1.45167 0.929959L1.4625 0.630154L1.47333 0.330349C1.4638 0.330005 1.4416 0.326802 1.40345 0.301469L1.2375 0.551389ZM1.4625 0.630154L1.45167 0.929959L1.56417 0.934021L1.575 0.634216L1.58583 0.334412L1.47333 0.330349L1.4625 0.630154ZM1.575 0.634216L1.56417 0.934021L1.67667 0.938083L1.6875 0.638279L1.69833 0.338474L1.58583 0.334412L1.575 0.634216ZM1.6875 0.638279L1.67667 0.938083C1.82339 0.943381 1.95775 0.897564 2.07434 0.82287L1.9125 0.570266L1.75066 0.317661C1.71725 0.339068 1.70161 0.338593 1.69833 0.338474L1.6875 0.638279ZM1.9125 0.570266L2.07434 0.82287L2.18684 0.750794L2.025 0.49819L1.86316 0.245586L1.75066 0.317661L1.9125 0.570266ZM2.025 0.49819L2.18684 0.750794L2.29934 0.678719L2.1375 0.426114L1.97566 0.17351L1.86316 0.245586L2.025 0.49819ZM2.1375 0.426114L2.29934 0.678719C2.31157 0.670879 2.31626 0.670423 2.31386 0.670947C2.31274 0.67119 2.31074 0.671491 2.30819 0.671507C2.30563 0.671524 2.30354 0.671249 2.30227 0.670987L2.3625 0.377096L2.42273 0.0832058C2.25867 0.0495796 2.10491 0.0907087 1.97566 0.17351L2.1375 0.426114ZM2.3625 0.377096L2.30227 0.670987L2.41477 0.694045L2.475 0.400154L2.53524 0.106263L2.42273 0.0832058L2.3625 0.377096ZM2.475 0.400154L2.41477 0.694045L2.52727 0.717103L2.5875 0.423212L2.64774 0.129321L2.53524 0.106263L2.475 0.400154ZM2.5875 0.423212L2.52727 0.717103C2.64455 0.74114 2.76297 0.739618 2.87959 0.712858L2.8125 0.420456L2.74541 0.128055C2.71203 0.135712 2.68045 0.136027 2.64774 0.129321L2.5875 0.423212ZM2.8125 0.420456L2.87959 0.712858L2.99209 0.687044L2.925 0.394643L2.85791 0.102241L2.74541 0.128055L2.8125 0.420456ZM2.925 0.394643L2.99209 0.687044L3.10459 0.661231L3.0375 0.368829L2.97041 0.0764278L2.85791 0.102241L2.925 0.394643ZM3.0375 0.368829L3.10459 0.661231C3.14142 0.65278 3.17644 0.651892 3.21193 0.657962L3.2625 0.362254L3.31307 0.0665466C3.19856 0.0469658 3.08358 0.0504611 2.97041 0.0764278L3.0375 0.368829ZM3.2625 0.362254L3.21193 0.657962L3.32443 0.6772L3.375 0.381492L3.42557 0.0857848L3.31307 0.0665466L3.2625 0.362254ZM3.375 0.381492L3.32443 0.6772L3.43693 0.696438L3.4875 0.40073L3.53807 0.105023L3.42557 0.0857848L3.375 0.381492ZM3.4875 0.40073L3.43693 0.696438C3.53101 0.712526 3.62564 0.719389 3.72054 0.716844L3.7125 0.416952L3.70446 0.11706C3.64936 0.118537 3.59399 0.114586 3.53807 0.105023L3.4875 0.40073ZM3.7125 0.416952L3.72054 0.716844L3.83304 0.713827L3.825 0.413935L3.81696 0.114043L3.70446 0.11706L3.7125 0.416952ZM3.825 0.413935L3.83304 0.713827L3.94554 0.71081L3.9375 0.410918L3.92946 0.111026L3.81696 0.114043L3.825 0.413935ZM3.9375 0.410918L3.94554 0.71081C3.98408 0.709777 4.02456 0.715446 4.06838 0.729926L4.1625 0.445072L4.25662 0.160219C4.15044 0.125138 4.04093 0.108037 3.92946 0.111026L3.9375 0.410918ZM4.1625 0.445072L4.06838 0.729926L4.18088 0.767097L4.275 0.482244L4.36912 0.19739L4.25662 0.160219L4.1625 0.445072ZM4.275 0.482244L4.18088 0.767097L4.29338 0.804268L4.3875 0.519415L4.48162 0.234561L4.36912 0.19739L4.275 0.482244ZM4.3875 0.519415L4.29338 0.804268C4.38745 0.835349 4.48307 0.856518 4.57997 0.867088L4.6125 0.568857L4.64503 0.270626C4.59193 0.264834 4.53755 0.253042 4.48162 0.234561L4.3875 0.519415ZM4.6125 0.568857L4.57997 0.867088L4.69247 0.879359L4.725 0.581128L4.75753 0.282897L4.64503 0.270626L4.6125 0.568857ZM4.725 0.581128L4.69247 0.879359L4.80497 0.89163L4.8375 0.593399L4.87003 0.295168L4.75753 0.282897L4.725 0.581128ZM4.8375 0.593399L4.80497 0.89163C4.96162 0.908717 5.10522 0.86263 5.22695 0.782842L5.0625 0.531934L4.89805 0.281026C4.88287 0.290971 4.8739 0.293965 4.87094 0.294772C4.86863 0.295405 4.86896 0.295051 4.87003 0.295168L4.8375 0.593399ZM5.0625 0.531934L5.22695 0.782842L5.33945 0.709106L5.175 0.458198L5.01055 0.207289L4.89805 0.281026L5.0625 0.531934ZM5.175 0.458198L5.33945 0.709106L5.45195 0.63537L5.2875 0.384461L5.12305 0.133553L5.01055 0.207289L5.175 0.458198ZM5.2875 0.384461L5.45195 0.63537C5.46244 0.628496 5.46397 0.62985 5.45719 0.631168C5.45392 0.631803 5.44982 0.632197 5.44533 0.632033C5.44086 0.63187 5.43732 0.631203 5.4351 0.63061L5.5125 0.340766L5.5899 0.0509221C5.41928 0.00536108 5.25723 0.0456044 5.12305 0.133553L5.2875 0.384461ZM5.5125 0.340766L5.4351 0.63061L5.5476 0.660651L5.625 0.370807L5.7024 0.0809631L5.5899 0.0509221L5.5125 0.340766ZM5.625 0.370807L5.5476 0.660651L5.6601 0.690692L5.7375 0.400848L5.8149 0.111004L5.7024 0.0809631L5.625 0.370807ZM5.7375 0.400848L5.6601 0.690692C5.74301 0.712832 5.82616 0.731402 5.90953 0.746358L5.9625 0.451072L6.01548 0.155786C5.94884 0.143832 5.88199 0.128919 5.8149 0.111004L5.7375 0.400848ZM5.9625 0.451072L5.90953 0.746358L6.02203 0.766541L6.075 0.471255L6.12798 0.175969L6.01548 0.155786L5.9625 0.451072ZM6.075 0.471255L6.02203 0.766541L6.13453 0.786723L6.1875 0.491438L6.24048 0.196152L6.12798 0.175969L6.075 0.471255ZM6.1875 0.491438L6.13453 0.786723C6.24624 0.806766 6.35876 0.805813 6.47014 0.784004L6.4125 0.489594L6.35486 0.195184C6.31625 0.202744 6.27876 0.203019 6.24048 0.196152L6.1875 0.491438ZM6.4125 0.489594L6.47014 0.784004L6.58264 0.761977L6.525 0.467567L6.46736 0.173157L6.35486 0.195184L6.4125 0.489594ZM6.525 0.467567L6.58264 0.761977L6.69514 0.739951L6.6375 0.445541L6.57986 0.151131L6.46736 0.173157L6.525 0.467567ZM6.6375 0.445541L6.69514 0.739951C6.75141 0.728934 6.807 0.723576 6.86218 0.723636L6.8625 0.423636L6.86282 0.123636C6.768 0.123534 6.67359 0.132779 6.57986 0.151131L6.6375 0.445541ZM6.8625 0.423636L6.86218 0.723636L6.97468 0.723757L6.975 0.423757L6.97532 0.123757L6.86282 0.123636L6.8625 0.423636ZM6.975 0.423757L6.97468 0.723757L7.08718 0.723879L7.0875 0.423879L7.08782 0.123879L6.97532 0.123757L6.975 0.423757ZM7.0875 0.423879L7.08718 0.723879C7.17992 0.723979 7.27237 0.715886 7.36433 0.699758L7.3125 0.404269L7.26067 0.108779C7.20263 0.11896 7.14508 0.123941 7.08782 0.123879L7.0875 0.423879ZM7.3125 0.404269L7.36433 0.699758L7.47683 0.680027L7.425 0.384537L7.37317 0.0890478L7.26067 0.108779L7.3125 0.404269ZM7.425 0.384537L7.47683 0.680027L7.58933 0.660295L7.5375 0.364806L7.48567 0.0693164L7.37317 0.0890478L7.425 0.384537ZM7.5375 0.364806L7.58933 0.660295C7.61213 0.656295 7.63571 0.657467 7.66474 0.667475L7.7625 0.383849L7.86026 0.100222C7.73929 0.0585313 7.61287 0.0470082 7.48567 0.0693164L7.5375 0.364806ZM7.7625 0.383849L7.66474 0.667475L7.77725 0.70625L7.875 0.422623L7.97276 0.138997L7.86026 0.100222L7.7625 0.383849ZM7.875 0.422623L7.77725 0.70625L7.88975 0.745024L7.9875 0.461398L8.08526 0.177771L7.97276 0.138997L7.875 0.422623ZM7.9875 0.461398L7.88975 0.745024C7.98114 0.776526 8.07381 0.799627 8.16758 0.813827L8.2125 0.517209L8.25742 0.220591C8.20119 0.212076 8.14386 0.197969 8.08526 0.177771L7.9875 0.461398ZM8.2125 0.517209L8.16758 0.813827L8.28008 0.830864L8.325 0.534246L8.36992 0.237627L8.25742 0.220591L8.2125 0.517209ZM8.325 0.534246L8.28008 0.830864L8.39258 0.8479L8.4375 0.551282L8.48242 0.254664L8.36992 0.237627L8.325 0.534246ZM8.4375 0.551282L8.39258 0.8479C8.54171 0.870484 8.68327 0.837474 8.80828 0.767974L8.6625 0.505773L8.51673 0.243571C8.49173 0.257466 8.48329 0.254796 8.48242 0.254664L8.4375 0.551282ZM8.6625 0.505773L8.80828 0.767974L8.92078 0.705428L8.775 0.443227L8.62923 0.181025L8.51673 0.243571L8.6625 0.505773ZM8.775 0.443227L8.92078 0.705428L9.03328 0.642882L8.8875 0.380681L8.74173 0.118479L8.62923 0.181025L8.775 0.443227ZM8.8875 0.380681L9.03328 0.642882C9.06714 0.624054 9.088 0.621935 9.10039 0.622436L9.1125 0.32268L9.12461 0.022925C8.987 0.0173647 8.85786 0.0539124 8.74173 0.118479L8.8875 0.380681ZM9.1125 0.32268L9.10039 0.622436L9.21289 0.626982L9.225 0.327226L9.23711 0.0274708L9.12461 0.022925L9.1125 0.32268ZM9.225 0.327226L9.21289 0.626982L9.32539 0.631527L9.3375 0.331772L9.34961 0.0320165L9.23711 0.0274708L9.225 0.327226ZM9.3375 0.331772L9.32539 0.631527C9.35848 0.632864 9.39592 0.640993 9.43927 0.660525L9.5625 0.387005L9.68574 0.113485C9.57909 0.0654338 9.46652 0.0367402 9.34961 0.0320165L9.3375 0.331772ZM9.5625 0.387005L9.43927 0.660525L9.55177 0.711212L9.675 0.437692L9.79824 0.164172L9.68574 0.113485L9.5625 0.387005ZM9.675 0.437692L9.55177 0.711212L9.66427 0.761899L9.7875 0.488379L9.91074 0.21486L9.79824 0.164172L9.675 0.437692ZM9.7875 0.488379L9.66427 0.761899C9.82061 0.83234 9.98789 0.829512 10.1416 0.756247L10.0125 0.48544L9.88341 0.214634C9.88176 0.215419 9.88231 0.214977 9.8849 0.214343C9.88758 0.213687 9.89144 0.213075 9.89608 0.213014C9.90073 0.212953 9.9048 0.213464 9.90786 0.214133C9.91083 0.214784 9.91185 0.215362 9.91074 0.21486L9.7875 0.488379ZM10.0125 0.48544L10.1416 0.756247L10.2541 0.70262L10.125 0.431814L9.99591 0.161007L9.88341 0.214634L10.0125 0.48544ZM10.125 0.431814L10.2541 0.70262L10.3666 0.648994L10.2375 0.378187L10.1084 0.107381L9.99591 0.161007L10.125 0.431814ZM10.2375 0.378187L10.3666 0.648994C10.4091 0.628721 10.4448 0.620734 10.4755 0.619406L10.4625 0.319687L10.4495 0.0199685C10.3302 0.0251382 10.2159 0.0561507 10.1084 0.107381L10.2375 0.378187ZM10.4625 0.319687L10.4755 0.619406L10.588 0.614533L10.575 0.314815L10.562 0.0150955L10.4495 0.0199685L10.4625 0.319687ZM10.575 0.314815L10.588 0.614533L10.7005 0.609661L10.6875 0.309942L10.6745 0.0102226L10.562 0.0150955L10.575 0.314815ZM10.6875 0.309942L10.7005 0.609661C10.701 0.609638 10.7033 0.609494 10.7088 0.611254C10.7148 0.613182 10.7264 0.617966 10.7435 0.629642L10.9125 0.381759L11.0815 0.133877C10.9645 0.0541134 10.8268 0.00362691 10.6745 0.0102226L10.6875 0.309942ZM10.9125 0.381759L10.7435 0.629642L10.856 0.706332L11.025 0.45845L11.194 0.210567L11.0815 0.133877L10.9125 0.381759ZM11.025 0.45845L10.856 0.706332L10.9685 0.783023L11.1375 0.53514L11.3065 0.287258L11.194 0.210567L11.025 0.45845ZM11.1375 0.53514L10.9685 0.783023C11.1032 0.874867 11.2687 0.918161 11.4435 0.869171L11.3625 0.580301L11.2815 0.291432C11.2845 0.290616 11.2889 0.289757 11.2943 0.289539C11.2998 0.289321 11.3049 0.28981 11.309 0.290642C11.3175 0.292349 11.3169 0.294349 11.3065 0.287258L11.1375 0.53514ZM11.3625 0.580301L11.4435 0.869171L11.556 0.837641L11.475 0.548772L11.394 0.259902L11.2815 0.291432L11.3625 0.580301ZM11.475 0.548772L11.556 0.837641L11.6685 0.806111L11.5875 0.517242L11.5065 0.228373L11.394 0.259902L11.475 0.548772ZM11.5875 0.517242L11.6685 0.806111C11.7543 0.782064 11.8395 0.752987 11.9242 0.719025L11.8125 0.440588L11.7008 0.162151C11.6355 0.188355 11.5707 0.21038 11.5065 0.228373L11.5875 0.517242ZM11.8125 0.440588L11.9242 0.719025L12.0367 0.673901L11.925 0.395464L11.8133 0.117027L11.7008 0.162151L11.8125 0.440588ZM11.925 0.395464L12.0367 0.673901L12.1492 0.628777L12.0375 0.35034L11.9258 0.0719032L11.8133 0.117027L11.925 0.395464ZM12.0375 0.35034L12.1492 0.628777C12.1706 0.620179 12.1835 0.620506 12.196 0.623334L12.2625 0.330807L12.329 0.0382798C12.1915 0.00698677 12.0544 0.0203364 11.9258 0.0719032L12.0375 0.35034ZM12.2625 0.330807L12.196 0.623334L12.3085 0.648925L12.375 0.356398L12.4415 0.0638705L12.329 0.0382798L12.2625 0.330807ZM12.375 0.356398L12.3085 0.648925L12.421 0.674516L12.4875 0.381988L12.554 0.0894613L12.4415 0.0638705L12.375 0.356398ZM12.4875 0.381988L12.421 0.674516C12.5183 0.696663 12.6168 0.707407 12.7159 0.706276L12.7125 0.406296L12.7091 0.106315C12.6582 0.106896 12.6067 0.101435 12.554 0.0894613L12.4875 0.381988ZM12.7125 0.406296L12.7159 0.706276L12.8284 0.704993L12.825 0.405012L12.8216 0.105032L12.7091 0.106315L12.7125 0.406296ZM12.825 0.405012L12.8284 0.704993L12.9409 0.703709L12.9375 0.403728L12.9341 0.103748L12.8216 0.105032L12.825 0.405012ZM12.9375 0.403728L12.9409 0.703709C12.997 0.703069 13.0535 0.70768 13.1104 0.717722L13.1625 0.422277L13.2146 0.126833C13.1215 0.110431 13.028 0.102677 12.9341 0.103748L12.9375 0.403728ZM13.1625 0.422277L13.1104 0.717722L13.2229 0.737554L13.275 0.442109L13.3271 0.146665L13.2146 0.126833L13.1625 0.422277ZM13.275 0.442109L13.2229 0.737554L13.3354 0.757386L13.3875 0.461942L13.4396 0.166497L13.3271 0.146665L13.275 0.442109ZM13.3875 0.461942L13.3354 0.757386C13.3971 0.768253 13.4593 0.78352 13.5222 0.803375L13.6125 0.517299L13.7028 0.231223C13.6157 0.203711 13.5279 0.182073 13.4396 0.166497L13.3875 0.461942ZM13.6125 0.517299L13.5222 0.803375L13.6347 0.8389L13.725 0.552824L13.8153 0.266748L13.7028 0.231223L13.6125 0.517299ZM13.725 0.552824L13.6347 0.8389L13.7472 0.874425L13.8375 0.588349L13.9278 0.302273L13.8153 0.266748L13.725 0.552824ZM13.8375 0.588349L13.7472 0.874425C13.8724 0.913969 14.0022 0.919766 14.1308 0.889706L14.0625 0.597579L13.9942 0.305453C13.9728 0.310452 13.9526 0.310096 13.9278 0.302273L13.8375 0.588349ZM14.0625 0.597579L14.1308 0.889706L14.2433 0.863411L14.175 0.571284L14.1067 0.279158L13.9942 0.305453L14.0625 0.597579ZM14.175 0.571284L14.2433 0.863411L14.3558 0.837116L14.2875 0.544989L14.2192 0.252863L14.1067 0.279158L14.175 0.571284ZM14.2875 0.544989L14.3558 0.837116C14.4112 0.824173 14.4656 0.817283 14.5193 0.816062L14.5125 0.51614L14.5057 0.216217C14.4094 0.218403 14.3138 0.230745 14.2192 0.252863L14.2875 0.544989ZM14.5125 0.51614L14.5193 0.816062L14.6318 0.813508L14.625 0.513585L14.6182 0.213663L14.5057 0.216217L14.5125 0.51614ZM14.625 0.513585L14.6318 0.813508L14.7443 0.810954L14.7375 0.511031L14.7307 0.211108L14.6182 0.213663L14.625 0.513585ZM14.7375 0.511031L14.7443 0.810954C14.8171 0.8093 14.89 0.80844 14.9628 0.808373L14.9625 0.508373L14.9622 0.208373C14.885 0.208444 14.8079 0.209356 14.7307 0.211108L14.7375 0.511031ZM14.9625 0.508373L14.9628 0.808373L15.0753 0.80827L15.075 0.50827L15.0747 0.20827L14.9622 0.208373L14.9625 0.508373ZM15.075 0.50827L15.0753 0.80827L15.1878 0.808167L15.1875 0.508167L15.1872 0.208167L15.0747 0.20827L15.075 0.50827ZM15.1875 0.508167L15.1878 0.808167C15.2612 0.808099 15.3346 0.808606 15.4081 0.809687L15.4125 0.509719L15.4169 0.209752C15.3404 0.208625 15.2638 0.208097 15.1872 0.208167L15.1875 0.508167ZM15.4125 0.509719L15.4081 0.809687L15.5206 0.811342L15.525 0.511375L15.5294 0.211407L15.4169 0.209752L15.4125 0.509719ZM15.525 0.511375L15.5206 0.811342L15.6331 0.812998L15.6375 0.51303L15.6419 0.213062L15.5294 0.211407L15.525 0.511375ZM15.6375 0.51303L15.6331 0.812998C15.6953 0.813913 15.7577 0.818796 15.8202 0.827701L15.8625 0.530692L15.9048 0.233683C15.8173 0.221246 15.7297 0.214354 15.6419 0.213062L15.6375 0.51303ZM15.8625 0.530692L15.8202 0.827701L15.9327 0.843707L15.975 0.546698L16.0173 0.24969L15.9048 0.233683L15.8625 0.530692ZM15.975 0.546698L15.9327 0.843707L16.0452 0.859714L16.0875 0.562705L16.1298 0.265696L16.0173 0.24969L15.975 0.546698ZM16.0875 0.562705L16.0452 0.859714C16.2015 0.881949 16.3469 0.840685 16.4713 0.763103L16.3125 0.50855L16.1537 0.253997C16.1397 0.26278 16.1318 0.26502 16.1298 0.265499C16.1287 0.265751 16.1286 0.265707 16.129 0.265685C16.1295 0.265662 16.1298 0.265702 16.1298 0.265696L16.0875 0.562705ZM16.3125 0.50855L16.4713 0.763103L16.5838 0.692941L16.425 0.438388L16.2662 0.183835L16.1537 0.253997L16.3125 0.50855ZM16.425 0.438388L16.5838 0.692941L16.6963 0.622779L16.5375 0.368226L16.3787 0.113673L16.2662 0.183835L16.425 0.438388ZM16.5375 0.368226L16.6963 0.622779C16.695 0.623584 16.6785 0.632883 16.6509 0.632969C16.6233 0.633055 16.6066 0.623821 16.6049 0.622789L16.7625 0.367526L16.9201 0.112263C16.8434 0.0649237 16.7517 0.0326523 16.6491 0.0329718C16.5465 0.0332912 16.455 0.0660942 16.3787 0.113673L16.5375 0.368226ZM16.7625 0.367526L16.6049 0.622789L16.7174 0.692251L16.875 0.436987L17.0326 0.181724L16.9201 0.112263L16.7625 0.367526ZM16.875 0.436987L16.7174 0.692251L16.8299 0.761712L16.9875 0.506449L17.1451 0.251185L17.0326 0.181724L16.875 0.436987ZM16.9875 0.506449L16.8299 0.761712C16.943 0.831546 17.0705 0.87557 17.2088 0.877269L17.2125 0.577292L17.2162 0.277315C17.2045 0.277171 17.182 0.273967 17.1451 0.251185L16.9875 0.506449ZM17.2125 0.577292L17.2088 0.877269L17.3213 0.878651L17.325 0.578674L17.3287 0.278697L17.2162 0.277315L17.2125 0.577292ZM17.325 0.578674L17.3213 0.878651L17.4338 0.880033L17.4375 0.580056L17.4412 0.280078L17.3287 0.278697L17.325 0.578674ZM17.4375 0.580056L17.4338 0.880033C17.5346 0.881272 17.6346 0.8696 17.7333 0.845629L17.6625 0.554108L17.5917 0.262587C17.5404 0.275056 17.4904 0.280683 17.4412 0.280078L17.4375 0.580056ZM17.6625 0.554108L17.7333 0.845629L17.8458 0.818299L17.775 0.526778L17.7042 0.235257L17.5917 0.262587L17.6625 0.554108ZM17.775 0.526778L17.8458 0.818299L17.9583 0.790969L17.8875 0.499448L17.8167 0.207927L17.7042 0.235257L17.775 0.526778ZM17.8875 0.499448L17.9583 0.790969C17.9733 0.787327 17.9876 0.78725 18.0088 0.795065L18.1125 0.513545L18.2162 0.232025C18.0874 0.184605 17.9517 0.17513 17.8167 0.207927L17.8875 0.499448ZM18.1125 0.513545L18.0088 0.795065L18.1213 0.836491L18.225 0.554971L18.3287 0.273452L18.2162 0.232025L18.1125 0.513545ZM18.225 0.554971L18.1213 0.836491L18.2338 0.877918L18.3375 0.596398L18.4412 0.314878L18.3287 0.273452L18.225 0.554971ZM18.3375 0.596398L18.2338 0.877918C18.3721 0.928849 18.5173 0.931658 18.6578 0.884626L18.5625 0.600152L18.4672 0.315678C18.4577 0.318876 18.4529 0.319183 18.4412 0.314878L18.3375 0.596398ZM18.5625 0.600152L18.6578 0.884626L18.7703 0.846953L18.675 0.56248L18.5797 0.278006L18.4672 0.315678L18.5625 0.600152ZM18.675 0.56248L18.7703 0.846953L18.8828 0.809281L18.7875 0.524807L18.6922 0.240333L18.5797 0.278006L18.675 0.56248ZM18.7875 0.524807L18.8828 0.809281C18.8979 0.804214 18.9078 0.804295 18.9219 0.808762L19.0125 0.522758L19.1031 0.236755C18.9672 0.193724 18.8271 0.19517 18.6922 0.240333L18.7875 0.524807ZM19.0125 0.522758L18.9219 0.808762L19.0344 0.844385L19.125 0.558382L19.2156 0.272378L19.1031 0.236755L19.0125 0.522758ZM19.125 0.558382L19.0344 0.844385L19.1469 0.880009L19.2375 0.594006L19.3281 0.308002L19.2156 0.272378L19.125 0.558382ZM19.2375 0.594006L19.1469 0.880009C19.2475 0.911846 19.3504 0.929736 19.4549 0.9324L19.4625 0.632498L19.4701 0.332595C19.4246 0.331435 19.3775 0.323663 19.3281 0.308002L19.2375 0.594006ZM19.4625 0.632498L19.4549 0.9324L19.5674 0.935268L19.575 0.635366L19.5826 0.335463L19.4701 0.332595L19.4625 0.632498ZM19.575 0.635366L19.5674 0.935268L19.6799 0.938137L19.6875 0.638234L19.6951 0.338332L19.5826 0.335463L19.575 0.635366ZM19.6875 0.638234L19.6799 0.938137C19.8349 0.94209 19.9731 0.886182 20.0886 0.802412L19.9125 0.559534L19.7364 0.316657C19.7187 0.329507 19.7068 0.33476 19.701 0.336816C19.698 0.337833 19.6964 0.338158 19.6957 0.338258C19.6954 0.338313 19.6952 0.338327 19.6952 0.33833C19.6952 0.338331 19.6951 0.338332 19.6951 0.338332C19.6951 0.338332 19.6951 0.338331 19.6951 0.338331C19.6951 0.338331 19.6951 0.338332 19.6951 0.338332L19.6875 0.638234ZM19.9125 0.559534L20.0886 0.802412L20.2011 0.720844L20.025 0.477967L19.8489 0.235089L19.7364 0.316657L19.9125 0.559534ZM20.025 0.477967L20.2011 0.720844L20.3136 0.639276L20.1375 0.396399L19.9614 0.153521L19.8489 0.235089L20.025 0.477967ZM20.1375 0.396399L20.3136 0.639276C20.328 0.628836 20.3343 0.627405 20.3326 0.627892C20.3318 0.62814 20.3296 0.628655 20.3264 0.62887C20.3232 0.629086 20.32 0.628922 20.3174 0.628523L20.3625 0.331929L20.4076 0.0353343C20.2381 0.00957596 20.0852 0.0637454 19.9614 0.153521L20.1375 0.396399ZM20.3625 0.331929L20.3174 0.628523L20.4299 0.645621L20.475 0.349026L20.5201 0.0524321L20.4076 0.0353343L20.3625 0.331929ZM20.475 0.349026L20.4299 0.645621L20.5424 0.662718L20.5875 0.366124L20.6326 0.06953L20.5201 0.0524321L20.475 0.349026ZM20.5875 0.366124L20.5424 0.662718C20.5789 0.668264 20.6209 0.681714 20.6691 0.707953L20.8125 0.444468L20.9559 0.180984C20.8541 0.125561 20.7461 0.0867811 20.6326 0.06953L20.5875 0.366124ZM20.8125 0.444468L20.6691 0.707953L20.7816 0.769199L20.925 0.505715L21.0684 0.24223L20.9559 0.180984L20.8125 0.444468ZM20.925 0.505715L20.7816 0.769199L20.8941 0.830445L21.0375 0.566961L21.1809 0.303476L21.0684 0.24223L20.925 0.505715ZM21.0375 0.566961L20.8941 0.830445C21.0067 0.891757 21.1303 0.928151 21.2616 0.928534L21.2625 0.628535L21.2634 0.328536C21.2447 0.328482 21.2183 0.323826 21.1809 0.303476L21.0375 0.566961ZM21.2625 0.628535L21.2616 0.928534L21.3741 0.928862L21.375 0.628863L21.3759 0.328865L21.2634 0.328536L21.2625 0.628535ZM21.375 0.628863L21.3741 0.928862L21.4866 0.92919L21.4875 0.629191L21.4884 0.329193L21.3759 0.328865L21.375 0.628863ZM21.4875 0.629191L21.4866 0.92919C21.6411 0.929641 21.7778 0.871135 21.8918 0.786172L21.7125 0.545652L21.5332 0.305132C21.5148 0.31883 21.5022 0.324761 21.4956 0.32723C21.4923 0.328448 21.4903 0.328894 21.4894 0.329056C21.4889 0.329141 21.4887 0.329172 21.4885 0.329183C21.4884 0.329193 21.4884 0.329193 21.4884 0.329193L21.4875 0.629191ZM21.7125 0.545652L21.8918 0.786172L22.0043 0.702304L21.825 0.461784L21.6457 0.221265L21.5332 0.305132L21.7125 0.545652ZM21.825 0.461784L22.0043 0.702304L22.1168 0.618436L21.9375 0.377917L21.7582 0.137397L21.6457 0.221265L21.825 0.461784ZM21.9375 0.377917L22.1168 0.618436C22.1171 0.618194 22.0964 0.633212 22.0584 0.634281C22.0196 0.635373 21.9957 0.620995 21.9923 0.6186L22.1625 0.371584L22.3327 0.124568C22.2543 0.0704834 22.1554 0.0313155 22.0416 0.0345184C21.9286 0.0376976 21.8329 0.0817271 21.7582 0.137397L21.9375 0.377917ZM22.1625 0.371584L21.9923 0.6186L22.1048 0.696135L22.275 0.449119L22.4452 0.202103L22.3327 0.124568L22.1625 0.371584ZM22.275 0.449119L22.1048 0.696135L22.2173 0.773671L22.3875 0.526654L22.5577 0.279638L22.4452 0.202103L22.275 0.449119ZM22.3875 0.526654L22.2173 0.773671C22.2904 0.824058 22.3798 0.862247 22.4828 0.868157C22.5869 0.874132 22.6817 0.845768 22.7619 0.799705L22.6125 0.539567L22.4631 0.27943C22.4683 0.276448 22.4881 0.267473 22.5172 0.269143C22.5452 0.270749 22.5596 0.280941 22.5577 0.279638L22.3875 0.526654ZM22.6125 0.539567L22.7619 0.799705L22.8744 0.735083L22.725 0.474945L22.5756 0.214808L22.4631 0.27943L22.6125 0.539567ZM22.725 0.474945L22.8744 0.735083L22.9869 0.67046L22.8375 0.410323L22.6881 0.150186L22.5756 0.214808L22.725 0.474945ZM22.8375 0.410323L22.9869 0.67046C22.9947 0.665988 22.9942 0.667901 22.9867 0.668831C22.9832 0.669264 22.9794 0.669313 22.9757 0.668936C22.9721 0.668565 22.9697 0.6679 22.969 0.667659L23.0625 0.382603L23.156 0.0975468C22.9919 0.0437105 22.8289 0.0692672 22.6881 0.150186L22.8375 0.410323ZM23.0625 0.382603L22.969 0.667659L23.0815 0.704561L23.175 0.419505L23.2685 0.134449L23.156 0.0975468L23.0625 0.382603ZM23.175 0.419505L23.0815 0.704561L23.194 0.741463L23.2875 0.456407L23.381 0.171351L23.2685 0.134449L23.175 0.419505ZM23.2875 0.456407L23.194 0.741463C23.2902 0.773034 23.3883 0.793364 23.4879 0.801561L23.5125 0.502574L23.5371 0.203586C23.4867 0.19943 23.4348 0.188983 23.381 0.171351L23.2875 0.456407ZM23.5125 0.502574L23.4879 0.801561L23.6004 0.810826L23.625 0.511838L23.6496 0.21285L23.5371 0.203586L23.5125 0.502574ZM23.625 0.511838L23.6004 0.810826L23.7129 0.820091L23.7375 0.521103L23.7621 0.222115L23.6496 0.21285L23.625 0.511838ZM23.7375 0.521103L23.7129 0.820091C23.8388 0.830459 23.9612 0.809019 24.0766 0.761567L23.9625 0.484108L23.8484 0.206649C23.8138 0.220876 23.7862 0.224099 23.7621 0.222115L23.7375 0.521103ZM23.9625 0.484108L24.0766 0.761567L24.1891 0.715308L24.075 0.437849L23.9609 0.16039L23.8484 0.206649L23.9625 0.484108ZM24.075 0.437849L24.1891 0.715308L24.3016 0.669049L24.1875 0.39159L24.0734 0.11413L23.9609 0.16039L24.075 0.437849ZM24.1875 0.39159L24.3016 0.669049C24.3413 0.652736 24.375 0.647255 24.4052 0.647991L24.4125 0.348081L24.4198 0.0481702C24.3 0.0452402 24.1837 0.0687648 24.0734 0.11413L24.1875 0.39159ZM24.4125 0.348081L24.4052 0.647991L24.5177 0.650741L24.525 0.350831L24.5323 0.0509201L24.4198 0.0481702L24.4125 0.348081ZM24.525 0.350831L24.5177 0.650741L24.6302 0.653491L24.6375 0.35358L24.6448 0.05367L24.5323 0.0509201L24.525 0.350831ZM24.6375 0.35358L24.6302 0.653491C24.7005 0.655211 24.7709 0.65856 24.8413 0.66354L24.8625 0.364288L24.8837 0.0650357C24.8041 0.0594055 24.7245 0.0556164 24.6448 0.05367L24.6375 0.35358ZM24.8625 0.364288L24.8413 0.66354L24.9538 0.671498L24.975 0.372246L24.9962 0.0729933L24.8837 0.0650357L24.8625 0.364288ZM24.975 0.372246L24.9538 0.671498L25.0663 0.679456L25.0875 0.380203L25.1087 0.0809509L24.9962 0.0729933L24.975 0.372246ZM25.0875 0.380203L25.0663 0.679456C25.1075 0.682365 25.1516 0.692311 25.1995 0.711809L25.3125 0.433899L25.4255 0.155989C25.3234 0.114503 25.2175 0.088652 25.1087 0.0809509L25.0875 0.380203ZM25.3125 0.433899L25.1995 0.711809L25.312 0.757547L25.425 0.479637L25.538 0.201727L25.4255 0.155989L25.3125 0.433899ZM25.425 0.479637L25.312 0.757547L25.4245 0.803285L25.5375 0.525375L25.6505 0.247465L25.538 0.201727L25.425 0.479637ZM25.5375 0.525375L25.4245 0.803285C25.5289 0.845734 25.6378 0.870863 25.7498 0.875615L25.7625 0.575884L25.7752 0.276153C25.7373 0.274544 25.6961 0.266 25.6505 0.247465L25.5375 0.525375ZM25.7625 0.575884L25.7498 0.875615L25.8623 0.880385L25.875 0.580655L25.8877 0.280924L25.7752 0.276153L25.7625 0.575884ZM25.875 0.580655L25.8623 0.880385L25.9748 0.885156L25.9875 0.585426L26.0002 0.285695L25.8877 0.280924L25.875 0.580655ZM25.9875 0.585426L25.9748 0.885156C26.0457 0.888166 26.1167 0.892613 26.1877 0.8985L26.2125 0.599526L26.2373 0.300552C26.1583 0.294 26.0793 0.289047 26.0002 0.285695L25.9875 0.585426ZM26.2125 0.599526L26.1877 0.8985L26.3002 0.907829L26.325 0.608855L26.3498 0.309881L26.2373 0.300552L26.2125 0.599526ZM26.325 0.608855L26.3002 0.907829L26.4127 0.917158L26.4375 0.618184L26.4623 0.31921L26.3498 0.309881L26.325 0.608855ZM26.4375 0.618184L26.4127 0.917158C26.5393 0.927657 26.6623 0.905729 26.778 0.857474L26.6625 0.580591L26.547 0.303709C26.5127 0.318016 26.4857 0.32115 26.4623 0.31921L26.4375 0.618184ZM26.6625 0.580591L26.778 0.857474L26.8905 0.810552L26.775 0.53367L26.6595 0.256787L26.547 0.303709L26.6625 0.580591ZM26.775 0.53367L26.8905 0.810552L27.003 0.763631L26.8875 0.486748L26.772 0.209866L26.6595 0.256787L26.775 0.53367ZM26.8875 0.486748L27.003 0.763631C27.031 0.751945 27.0506 0.750986 27.0673 0.75354L27.1125 0.45696L27.1577 0.16038C27.0244 0.14009 26.894 0.15899 26.772 0.209866L26.8875 0.486748ZM27.1125 0.45696L27.0673 0.75354L27.1798 0.770674L27.225 0.474094L27.2702 0.177513L27.1577 0.16038L27.1125 0.45696ZM27.225 0.474094L27.1798 0.770674L27.2923 0.787807L27.3375 0.491227L27.3827 0.194647L27.2702 0.177513L27.225 0.474094ZM27.3375 0.491227L27.2923 0.787807C27.3897 0.802634 27.4875 0.80636 27.5855 0.798836L27.5625 0.499718L27.5395 0.200599C27.4875 0.204599 27.4353 0.202665 27.3827 0.194647L27.3375 0.491227ZM27.5625 0.499718L27.5855 0.798836L27.698 0.790194L27.675 0.491075L27.652 0.191956L27.5395 0.200599L27.5625 0.499718ZM27.675 0.491075L27.698 0.790194L27.8105 0.781551L27.7875 0.482432L27.7645 0.183314L27.652 0.191956L27.675 0.491075ZM27.7875 0.482432L27.8105 0.781551C27.8593 0.777801 27.9083 0.780362 27.9582 0.789545L28.0125 0.494506L28.0668 0.199467C27.9667 0.181028 27.8657 0.175539 27.7645 0.183314L27.7875 0.482432ZM28.0125 0.494506L27.9582 0.789545L28.0707 0.810262L28.125 0.515223L28.1793 0.220184L28.0668 0.199467L28.0125 0.494506ZM28.125 0.515223L28.0707 0.810262L28.1832 0.830979L28.2375 0.53594L28.2918 0.240901L28.1793 0.220184L28.125 0.515223ZM28.2375 0.53594L28.1832 0.830979C28.3048 0.853373 28.4266 0.846774 28.5451 0.81286L28.4625 0.524448L28.3799 0.236036C28.3484 0.245068 28.3202 0.24613 28.2918 0.240901L28.2375 0.53594ZM28.4625 0.524448L28.5451 0.81286L28.6576 0.78065L28.575 0.492238L28.4924 0.203826L28.3799 0.236036L28.4625 0.524448ZM28.575 0.492238L28.6576 0.78065L28.7701 0.748441L28.6875 0.460029L28.6049 0.171617L28.4924 0.203826L28.575 0.492238ZM28.6875 0.460029L28.7701 0.748441C28.8389 0.728745 28.9075 0.711497 28.976 0.696671L28.9125 0.403464L28.849 0.110257C28.7675 0.127906 28.6861 0.148367 28.6049 0.171617L28.6875 0.460029ZM28.9125 0.403464L28.976 0.696671L29.0885 0.672316L29.025 0.379108L28.9615 0.0859009L28.849 0.110257L28.9125 0.403464ZM29.025 0.379108L29.0885 0.672316L29.201 0.64796L29.1375 0.354753L29.074 0.0615452L28.9615 0.0859009L29.025 0.379108ZM29.1375 0.354753L29.201 0.64796C29.1997 0.648237 29.1975 0.64855 29.1948 0.64856C29.1921 0.64857 29.1899 0.648272 29.1885 0.647985C29.1856 0.647373 29.1898 0.647566 29.2017 0.655089L29.3625 0.401841L29.5233 0.148593C29.3931 0.0658742 29.2384 0.0259687 29.074 0.0615452L29.1375 0.354753ZM29.3625 0.401841L29.2017 0.655089L29.3142 0.726533L29.475 0.473285L29.6358 0.220037L29.5233 0.148593L29.3625 0.401841ZM29.475 0.473285L29.3142 0.726533L29.4267 0.797977L29.5875 0.544729L29.7483 0.291481L29.6358 0.220037L29.475 0.473285ZM29.5875 0.544729L29.4267 0.797977C29.559 0.882019 29.7166 0.920775 29.8829 0.880641L29.8125 0.589017L29.7421 0.297393C29.7436 0.297022 29.7462 0.296581 29.7496 0.296507C29.7529 0.296432 29.7558 0.296754 29.7579 0.297171C29.7624 0.298051 29.7594 0.298517 29.7483 0.291481L29.5875 0.544729ZM29.8125 0.589017L29.8829 0.880641L29.9954 0.853485L29.925 0.561861L29.8546 0.270236L29.7421 0.297393L29.8125 0.589017ZM29.925 0.561861L29.9954 0.853485L30.1079 0.826328L30.0375 0.534704L29.9671 0.24308L29.8546 0.270236L29.925 0.561861ZM30.0375 0.534704L30.1079 0.826328C30.1875 0.807123 30.2669 0.785962 30.3463 0.762854L30.2625 0.474806L30.1787 0.186758C30.1081 0.207306 30.0375 0.226077 29.9671 0.24308L30.0375 0.534704ZM30.2625 0.474806L30.3463 0.762854L30.4588 0.730112L30.375 0.442064L30.2912 0.154016L30.1787 0.186758L30.2625 0.474806ZM30.375 0.442064L30.4588 0.730112L30.5713 0.69737L30.4875 0.409322L30.4037 0.121273L30.2912 0.154016L30.375 0.442064ZM30.4875 0.409322L30.5713 0.69737C30.6184 0.683679 30.6631 0.677902 30.7065 0.67877L30.7125 0.37883L30.7185 0.0788901C30.6119 0.0767576 30.5066 0.0913087 30.4037 0.121273L30.4875 0.409322ZM30.7125 0.37883L30.7065 0.67877L30.819 0.681021L30.825 0.381081L30.831 0.0811405L30.7185 0.0788901L30.7125 0.37883ZM30.825 0.381081L30.819 0.681021L30.9315 0.683271L30.9375 0.383331L30.9435 0.0833909L30.831 0.0811405L30.825 0.381081ZM30.9375 0.383331L30.9315 0.683271C31.0298 0.685237 31.1276 0.675824 31.2244 0.655413L31.1625 0.361865L31.1006 0.0683169C31.0474 0.0795271 30.9952 0.0844253 30.9435 0.0833909L30.9375 0.383331ZM31.1625 0.361865L31.2244 0.655413L31.3369 0.631696L31.275 0.338148L31.2131 0.0446005L31.1006 0.0683169L31.1625 0.361865ZM31.275 0.338148L31.3369 0.631696L31.4494 0.60798L31.3875 0.314432L31.3256 0.0208841L31.2131 0.0446005L31.275 0.338148ZM31.3875 0.314432L31.4494 0.60798C31.4911 0.599185 31.5314 0.597805 31.5719 0.603334L31.6125 0.3061L31.6532 0.00886697C31.5436 -0.00611708 31.4339 -0.00194278 31.3256 0.0208841L31.3875 0.314432ZM31.6125 0.3061L31.5719 0.603334L31.6844 0.618719L31.725 0.321485L31.7656 0.0242518L31.6532 0.00886697L31.6125 0.3061ZM31.725 0.321485L31.6844 0.618719L31.7969 0.634104L31.8375 0.33687L31.8781 0.0396366L31.7656 0.0242518L31.725 0.321485ZM31.8375 0.33687L31.7969 0.634104C31.8684 0.643882 31.9399 0.654949 32.0115 0.667305L32.0625 0.371679L32.1135 0.0760538C32.0351 0.0625106 31.9566 0.0503708 31.8781 0.0396366L31.8375 0.33687ZM32.0625 0.371679L32.0115 0.667305L32.124 0.68673L32.175 0.391104L32.226 0.0954784L32.1135 0.0760538L32.0625 0.371679ZM32.175 0.391104L32.124 0.68673L32.2365 0.706154L32.2875 0.410529L32.3385 0.114903L32.226 0.0954784L32.175 0.391104ZM32.2875 0.410529L32.2365 0.706154C32.328 0.721967 32.4201 0.729959 32.5124 0.729985L32.5125 0.429985L32.5126 0.129985C32.4549 0.129969 32.397 0.12499 32.3385 0.114903L32.2875 0.410529ZM32.5125 0.429985L32.5124 0.729985L32.6249 0.730016L32.625 0.430016L32.6251 0.130016L32.5126 0.129985L32.5125 0.429985ZM32.625 0.430016L32.6249 0.730016L32.7374 0.730047L32.7375 0.430047L32.7376 0.130047L32.6251 0.130016L32.625 0.430016ZM32.7375 0.430047L32.7374 0.730047C32.8173 0.730069 32.8971 0.728151 32.977 0.724294L32.9625 0.424643L32.948 0.124993C32.8779 0.128382 32.8077 0.130066 32.7376 0.130047L32.7375 0.430047ZM32.9625 0.424643L32.977 0.724294L33.0895 0.718859L33.075 0.419208L33.0605 0.119558L32.948 0.124993L32.9625 0.424643ZM33.075 0.419208L33.0895 0.718859L33.202 0.713424L33.1875 0.413773L33.173 0.114123L33.0605 0.119558L33.075 0.419208ZM33.1875 0.413773L33.202 0.713424C33.2867 0.709332 33.3713 0.701127 33.4557 0.688839L33.4125 0.391966L33.3693 0.0950933C33.3037 0.104635 33.2383 0.110968 33.173 0.114123L33.1875 0.413773ZM33.4125 0.391966L33.4557 0.688839L33.5682 0.672466L33.525 0.375593L33.4818 0.0787209L33.3693 0.0950933L33.4125 0.391966ZM33.525 0.375593L33.5682 0.672466L33.6807 0.656094L33.6375 0.359221L33.5943 0.0623485L33.4818 0.0787209L33.525 0.375593ZM33.6375 0.359221L33.6807 0.656094C33.7366 0.647964 33.792 0.645357 33.8473 0.648156L33.8625 0.348539L33.8777 0.0489216C33.783 0.0441331 33.6884 0.0486483 33.5943 0.0623485L33.6375 0.359221ZM33.8625 0.348539L33.8473 0.648156L33.9598 0.653846L33.975 0.354229L33.9902 0.0546115L33.8777 0.0489216L33.8625 0.348539ZM33.975 0.354229L33.9598 0.653846L34.0723 0.659536L34.0875 0.359918L34.1027 0.0603015L33.9902 0.0546115L33.975 0.354229ZM34.0875 0.359918L34.0723 0.659536C34.0943 0.660647 34.1244 0.6675 34.1648 0.690365L34.3125 0.429264L34.4602 0.168163C34.3507 0.106154 34.2307 0.0667767 34.1027 0.0603015L34.0875 0.359918ZM34.3125 0.429264L34.1648 0.690365L34.2773 0.75402L34.425 0.492919L34.5727 0.231819L34.4602 0.168163L34.3125 0.429264ZM34.425 0.492919L34.2773 0.75402L34.3898 0.817676L34.5375 0.556575L34.6852 0.295474L34.5727 0.231819L34.425 0.492919ZM34.5375 0.556575L34.3898 0.817676C34.529 0.89646 34.6893 0.922162 34.8515 0.871806L34.7625 0.585299L34.6735 0.298792C34.674 0.29865 34.6759 0.298127 34.6789 0.297849C34.682 0.297567 34.6852 0.297638 34.688 0.297999C34.6941 0.29878 34.6936 0.300187 34.6852 0.295474L34.5375 0.556575ZM34.7625 0.585299L34.8515 0.871806L34.964 0.836874L34.875 0.550368L34.786 0.263861L34.6735 0.298792L34.7625 0.585299ZM34.875 0.550368L34.964 0.836874L35.0765 0.801943L34.9875 0.515437L34.8985 0.22893L34.786 0.263861L34.875 0.550368ZM34.9875 0.515437L35.0765 0.801943C35.1042 0.793315 35.1277 0.7926 35.1517 0.79756L35.2125 0.503784L35.2733 0.210007C35.1473 0.18393 35.0208 0.190983 34.8985 0.22893L34.9875 0.515437ZM35.2125 0.503784L35.1517 0.79756L35.2642 0.820839L35.325 0.527062L35.3858 0.233285L35.2733 0.210007L35.2125 0.503784ZM35.325 0.527062L35.2642 0.820839L35.3767 0.844117L35.4375 0.55034L35.4983 0.256563L35.3858 0.233285L35.325 0.527062ZM35.4375 0.55034L35.3767 0.844117C35.5238 0.874544 35.6669 0.850516 35.7961 0.786282L35.6625 0.517668L35.5289 0.249054C35.5081 0.25942 35.5012 0.257174 35.4983 0.256563L35.4375 0.55034ZM35.6625 0.517668L35.7961 0.786282L35.9086 0.730331L35.775 0.461717L35.6414 0.193104L35.5289 0.249054L35.6625 0.517668ZM35.775 0.461717L35.9086 0.730331L36.0211 0.674381L35.8875 0.405767L35.7539 0.137153L35.6414 0.193104L35.775 0.461717ZM35.8875 0.405767L36.0211 0.674381C36.0558 0.657108 36.0804 0.653803 36.0988 0.654642L36.1125 0.354954L36.1262 0.0552667C35.9946 0.0492555 35.8692 0.0798259 35.7539 0.137153L35.8875 0.405767ZM36.1125 0.354954L36.0988 0.654642L36.2113 0.65978L36.225 0.360092L36.2387 0.0604044L36.1262 0.0552667L36.1125 0.354954ZM36.225 0.360092L36.2113 0.65978L36.3238 0.664917L36.3375 0.36523L36.3512 0.0655422L36.2387 0.0604044L36.225 0.360092ZM36.3375 0.36523L36.3238 0.664917C36.354 0.666297 36.3895 0.674322 36.4319 0.694848L36.5625 0.424748L36.6931 0.154649C36.5855 0.102667 36.471 0.0710129 36.3512 0.0655422L36.3375 0.36523ZM36.5625 0.424748L36.4319 0.694848L36.5444 0.749229L36.675 0.479129L36.8056 0.20903L36.6931 0.154649L36.5625 0.424748ZM36.675 0.479129L36.5444 0.749229L36.6569 0.803609L36.7875 0.53351L36.9181 0.263411L36.8056 0.20903L36.675 0.479129ZM36.7875 0.53351L36.6569 0.803609C36.7846 0.865304 36.9251 0.888592 37.0694 0.860738L37.0125 0.566176L36.9556 0.271613C36.9499 0.272713 36.9404 0.274224 36.9181 0.263411L36.7875 0.53351ZM37.0125 0.566176L37.0694 0.860738L37.1819 0.839023L37.125 0.54446L37.0681 0.249898L36.9556 0.271613L37.0125 0.566176ZM37.125 0.54446L37.1819 0.839023L37.2944 0.817308L37.2375 0.522745L37.1806 0.228182L37.0681 0.249898L37.125 0.54446ZM37.2375 0.522745L37.2944 0.817308C37.3342 0.809626 37.3729 0.80922 37.4122 0.815911L37.4625 0.520154L37.5128 0.224398C37.4021 0.205589 37.2908 0.20691 37.1806 0.228182L37.2375 0.522745ZM37.4625 0.520154L37.4122 0.815911L37.5247 0.835036L37.575 0.539279L37.6253 0.243522L37.5128 0.224398L37.4625 0.520154ZM37.575 0.539279L37.5247 0.835036L37.6372 0.854161L37.6875 0.558404L37.7378 0.262647L37.6253 0.243522L37.575 0.539279ZM37.6875 0.558404L37.6372 0.854161C37.7609 0.875179 37.8841 0.865587 38.0029 0.828004L37.9125 0.54196L37.8221 0.255917C37.7909 0.265759 37.7641 0.267129 37.7378 0.262647L37.6875 0.558404ZM37.9125 0.54196L38.0029 0.828004L38.1154 0.792435L38.025 0.506391L37.9346 0.220348L37.8221 0.255917L37.9125 0.54196ZM38.025 0.506391L38.1154 0.792435L38.2279 0.756866L38.1375 0.470823L38.0471 0.184779L37.9346 0.220348L38.025 0.506391ZM38.1375 0.470823L38.2279 0.756866C38.278 0.741027 38.3259 0.732963 38.3722 0.731471L38.3625 0.431627L38.3528 0.131782C38.2491 0.135127 38.147 0.153194 38.0471 0.184779L38.1375 0.470823ZM38.3625 0.431627L38.3722 0.731471L38.4847 0.727844L38.475 0.427999L38.4653 0.128155L38.3528 0.131782L38.3625 0.431627ZM38.475 0.427999L38.4847 0.727844L38.5972 0.724216L38.5875 0.424372L38.5778 0.124528L38.4653 0.128155L38.475 0.427999ZM38.5875 0.424372L38.5972 0.724216C38.6533 0.722406 38.7097 0.725843 38.7665 0.734661L38.8125 0.438214L38.8585 0.141766C38.7653 0.127293 38.6717 0.121502 38.5778 0.124528L38.5875 0.424372ZM38.8125 0.438214L38.7665 0.734661L38.879 0.75213L38.925 0.455683L38.971 0.159235L38.8585 0.141766L38.8125 0.438214ZM38.925 0.455683L38.879 0.75213L38.9915 0.769599L39.0375 0.473151L39.0835 0.176704L38.971 0.159235L38.925 0.455683ZM39.0375 0.473151L38.9915 0.769599C39.1249 0.79032 39.2556 0.771603 39.3779 0.720668L39.2625 0.443745L39.1471 0.166822C39.1194 0.178388 39.1001 0.179275 39.0835 0.176704L39.0375 0.473151ZM39.2625 0.443745L39.3779 0.720668L39.4904 0.673793L39.375 0.39687L39.2596 0.119947L39.1471 0.166822L39.2625 0.443745ZM39.375 0.39687L39.4904 0.673793L39.6029 0.626918L39.4875 0.349995L39.3721 0.0730722L39.2596 0.119947L39.375 0.39687ZM39.4875 0.349995L39.6029 0.626918C39.6295 0.615825 39.6475 0.615244 39.663 0.617838L39.7125 0.321957L39.762 0.0260752C39.6275 0.00355354 39.4955 0.0216658 39.3721 0.0730722L39.4875 0.349995ZM39.7125 0.321957L39.663 0.617838L39.7755 0.636674L39.825 0.340793L39.8745 0.0449116L39.762 0.0260752L39.7125 0.321957ZM39.825 0.340793L39.7755 0.636674L39.888 0.65551L39.9375 0.359629L39.987 0.0637479L39.8745 0.0449116L39.825 0.340793ZM39.9375 0.359629L39.888 0.65551C39.9267 0.662 39.9705 0.676484 40.0199 0.703187L40.1625 0.439238L40.3051 0.175289C40.2045 0.120961 40.0983 0.0823738 39.987 0.0637479L39.9375 0.359629ZM40.1625 0.439238L40.0199 0.703187L40.1324 0.763959L40.275 0.50001L40.4176 0.236061L40.3051 0.175289L40.1625 0.439238ZM40.275 0.50001L40.1324 0.763959L40.2449 0.824732L40.3875 0.560783L40.5301 0.296834L40.4176 0.236061L40.275 0.50001ZM40.3875 0.560783L40.2449 0.824732C40.3264 0.868757 40.4213 0.893934 40.524 0.885692C40.6252 0.877567 40.7129 0.838698 40.7847 0.788406L40.6125 0.542722L40.4403 0.297038C40.4371 0.299301 40.4498 0.28972 40.476 0.287616C40.5037 0.285394 40.5236 0.293323 40.5301 0.296834L40.3875 0.560783ZM40.6125 0.542722L40.7847 0.788406L40.8972 0.709572L40.725 0.463888L40.5528 0.218204L40.4403 0.297038L40.6125 0.542722ZM40.725 0.463888L40.8972 0.709572L41.0097 0.630739L40.8375 0.385055L40.6653 0.139371L40.5528 0.218204L40.725 0.463888ZM40.8375 0.385055L41.0097 0.630739C41.0124 0.628815 40.9989 0.63884 40.9716 0.640808C40.9429 0.642875 40.9227 0.634363 40.9166 0.63097L41.0625 0.368838L41.2084 0.106706C41.1273 0.0615681 41.0321 0.0348876 40.9284 0.0423601C40.8261 0.0497334 40.7376 0.088739 40.6653 0.139371L40.8375 0.385055ZM41.0625 0.368838L40.9166 0.63097L41.0291 0.693586L41.175 0.431454L41.3209 0.169323L41.2084 0.106706L41.0625 0.368838ZM41.175 0.431454L41.0291 0.693586L41.1416 0.756203L41.2875 0.494071L41.4334 0.231939L41.3209 0.169323L41.175 0.431454ZM41.2875 0.494071L41.1416 0.756203C41.2471 0.814928 41.3608 0.85422 41.4812 0.86684L41.5125 0.568473L41.5438 0.270106C41.5142 0.267012 41.4779 0.256703 41.4334 0.231939L41.2875 0.494071ZM41.5125 0.568473L41.4812 0.86684L41.5937 0.878626L41.625 0.580259L41.6563 0.281892L41.5438 0.270106L41.5125 0.568473ZM41.625 0.580259L41.5937 0.878626L41.7062 0.890412L41.7375 0.592045L41.7688 0.293678L41.6563 0.281892L41.625 0.580259ZM41.7375 0.592045L41.7062 0.890412C41.8092 0.901203 41.9122 0.897491 42.0144 0.879536L41.9625 0.584063L41.9106 0.28859C41.8628 0.296992 41.8158 0.298602 41.7688 0.293678L41.7375 0.592045ZM41.9625 0.584063L42.0144 0.879536L42.1269 0.859768L42.075 0.564295L42.0231 0.268821L41.9106 0.28859L41.9625 0.584063ZM42.075 0.564295L42.1269 0.859768L42.2394 0.839999L42.1875 0.544526L42.1356 0.249053L42.0231 0.268821L42.075 0.564295ZM42.1875 0.544526L42.2394 0.839999C42.3459 0.821288 42.4486 0.785837 42.5471 0.736442L42.4125 0.468307L42.278 0.200171C42.2264 0.226045 42.1791 0.241407 42.1356 0.249053L42.1875 0.544526ZM42.4125 0.468307L42.5471 0.736442L42.6595 0.679991L42.525 0.411855L42.3905 0.14372L42.278 0.200171L42.4125 0.468307ZM42.525 0.411855L42.6595 0.679991L42.772 0.623539L42.6375 0.355404L42.503 0.0872684L42.3905 0.14372L42.525 0.411855ZM42.6375 0.355404L42.772 0.623539C42.7639 0.627633 42.7437 0.634424 42.7174 0.631551C42.693 0.62888 42.6823 0.619917 42.6871 0.623411L42.8625 0.380003L43.0379 0.136594C42.9677 0.0860546 42.882 0.0459755 42.7826 0.0351047C42.6813 0.024032 42.5861 0.0455405 42.503 0.0872684L42.6375 0.355404ZM42.8625 0.380003L42.6871 0.623411L42.7996 0.704462L42.975 0.461053L43.1504 0.217644L43.0379 0.136594L42.8625 0.380003ZM42.975 0.461053L42.7996 0.704462L42.9121 0.785512L43.0875 0.542103L43.2629 0.298695L43.1504 0.217644L42.975 0.461053ZM43.0875 0.542103L42.9121 0.785512C42.9872 0.83956 43.0819 0.881176 43.1925 0.883941C43.3038 0.886722 43.4012 0.849423 43.4796 0.796904L43.3125 0.547727L43.1454 0.298549C43.1488 0.296315 43.1712 0.283221 43.2075 0.284128C43.2242 0.284544 43.2382 0.287894 43.2485 0.29174C43.2584 0.295424 43.2632 0.298904 43.2629 0.298695L43.0875 0.542103ZM43.3125 0.547727L43.4796 0.796904L43.5921 0.721477L43.425 0.472299L43.2579 0.223122L43.1454 0.298549L43.3125 0.547727ZM43.425 0.472299L43.5921 0.721477L43.7046 0.64605L43.5375 0.396872L43.3704 0.147695L43.2579 0.223122L43.425 0.472299ZM43.5375 0.396872L43.7046 0.64605C43.7079 0.643817 43.6969 0.651913 43.6738 0.653749C43.6494 0.655682 43.6317 0.649086 43.6259 0.646078L43.7625 0.379L43.8991 0.111922C43.7189 0.0197041 43.5279 0.0421109 43.3704 0.147695L43.5375 0.396872ZM43.7625 0.379L43.6259 0.646078L43.7384 0.703632L43.875 0.436554L44.0116 0.169476L43.8991 0.111922L43.7625 0.379ZM43.875 0.436554L43.7384 0.703632L43.8509 0.761187L43.9875 0.494109L44.1241 0.227031L44.0116 0.169476L43.875 0.436554ZM43.9875 0.494109L43.8509 0.761187C43.9723 0.823326 44.1066 0.852923 44.2472 0.836549L44.2125 0.538563L44.1778 0.240576C44.1684 0.24167 44.1527 0.241631 44.1241 0.227031L43.9875 0.494109ZM44.2125 0.538563L44.2472 0.836549L44.3597 0.823449L44.325 0.525462L44.2903 0.227476L44.1778 0.240576L44.2125 0.538563ZM44.325 0.525462L44.3597 0.823449L44.4722 0.810348L44.4375 0.512362L44.4028 0.214375L44.2903 0.227476L44.325 0.525462ZM44.4375 0.512362L44.4722 0.810348C44.5592 0.800217 44.6459 0.784811 44.7321 0.764229L44.6625 0.47242L44.5929 0.18061C44.5291 0.195817 44.4658 0.207039 44.4028 0.214375L44.4375 0.512362ZM44.6625 0.47242L44.7321 0.764229L44.8446 0.737388L44.775 0.445578L44.7054 0.153769L44.5929 0.18061L44.6625 0.47242ZM44.775 0.445578L44.8446 0.737388L44.9571 0.710546L44.8875 0.418737L44.8179 0.126928L44.7054 0.153769L44.775 0.445578ZM44.8875 0.418737L44.9571 0.710546C45.0242 0.69454 45.0911 0.681462 45.1578 0.671276L45.1125 0.374714L45.0672 0.0781529C44.9839 0.0908754 44.9008 0.107146 44.8179 0.126928L44.8875 0.418737ZM45.1125 0.374714L45.1578 0.671276L45.2703 0.654094L45.225 0.357533L45.1797 0.0609714L45.0672 0.0781529L45.1125 0.374714ZM45.225 0.357533L45.2703 0.654094L45.3828 0.636913L45.3375 0.340351L45.2922 0.0437899L45.1797 0.0609714L45.225 0.357533ZM45.3375 0.340351L45.3828 0.636913C45.4379 0.628492 45.4926 0.625751 45.5471 0.62855L45.5625 0.328944L45.5779 0.0293385C45.4824 0.0244376 45.3871 0.0293023 45.2922 0.0437899L45.3375 0.340351ZM45.5625 0.328944L45.5471 0.62855L45.6596 0.634324L45.675 0.334718L45.6904 0.0351128L45.5779 0.0293385L45.5625 0.328944ZM45.675 0.334718L45.6596 0.634324L45.7721 0.640098L45.7875 0.340493L45.8029 0.0408872L45.6904 0.0351128L45.675 0.334718ZM45.7875 0.340493L45.7721 0.640098C45.8319 0.643165 45.892 0.650803 45.9526 0.663156L46.0125 0.369202L46.0724 0.0752479C45.983 0.0570215 45.8931 0.0455197 45.8029 0.0408872L45.7875 0.340493ZM46.0125 0.369202L45.9526 0.663156L46.0651 0.68609L46.125 0.392136L46.1849 0.0981824L46.0724 0.0752479L46.0125 0.369202ZM46.125 0.392136L46.0651 0.68609L46.1776 0.709025L46.2375 0.415071L46.2974 0.121117L46.1849 0.0981824L46.125 0.392136ZM46.2375 0.415071L46.1776 0.709025C46.2336 0.720443 46.291 0.737766 46.3499 0.761626L46.4625 0.483551L46.5751 0.205476C46.484 0.168609 46.3914 0.140278 46.2974 0.121117L46.2375 0.415071ZM46.4625 0.483551L46.3499 0.761626L46.4624 0.807172L46.575 0.529097L46.6876 0.251022L46.5751 0.205476L46.4625 0.483551ZM46.575 0.529097L46.4624 0.807172L46.5749 0.852718L46.6875 0.574643L46.8001 0.296568L46.6876 0.251022L46.575 0.529097ZM46.6875 0.574643L46.5749 0.852718C46.689 0.898922 46.8097 0.920256 46.9338 0.911434L46.9125 0.61219L46.8912 0.312945C46.8653 0.314789 46.836 0.311092 46.8001 0.296568L46.6875 0.574643ZM46.9125 0.61219L46.9338 0.911434L47.0463 0.903435L47.025 0.604191L47.0037 0.304946L46.8912 0.312945L46.9125 0.61219ZM47.025 0.604191L47.0463 0.903435L47.1588 0.895436L47.1375 0.596192L47.1162 0.296947L47.0037 0.304946L47.025 0.604191ZM47.1375 0.596192L47.1588 0.895436C47.2407 0.88961 47.3226 0.88092 47.4044 0.86938L47.3625 0.572322L47.3206 0.275263C47.2524 0.284885 47.1843 0.292109 47.1162 0.296947L47.1375 0.596192ZM47.3625 0.572322L47.4044 0.86938L47.5169 0.853509L47.475 0.556451L47.4331 0.259392L47.3206 0.275263L47.3625 0.572322ZM47.475 0.556451L47.5169 0.853509L47.6294 0.837638L47.5875 0.54058L47.5456 0.243521L47.4331 0.259392L47.475 0.556451ZM47.5875 0.54058L47.6294 0.837638C47.6936 0.828576 47.7577 0.823088 47.8216 0.821139L47.8125 0.521278L47.8034 0.221417C47.7173 0.224042 47.6314 0.231423 47.5456 0.243521L47.5875 0.54058ZM47.8125 0.521278L47.8216 0.821139L47.9341 0.817708L47.925 0.517847L47.9159 0.217987L47.8034 0.221417L47.8125 0.521278ZM47.925 0.517847L47.9341 0.817708L48.0466 0.814277L48.0375 0.514416L48.0284 0.214556L47.9159 0.217987L47.925 0.517847ZM48.0375 0.514416L48.0466 0.814277C48.1651 0.810665 48.279 0.781888 48.3866 0.732984L48.2625 0.459862L48.1384 0.18674C48.096 0.206001 48.0599 0.213594 48.0284 0.214556L48.0375 0.514416ZM48.2625 0.459862L48.3866 0.732984L48.4991 0.681861L48.375 0.408739L48.2509 0.135617L48.1384 0.18674L48.2625 0.459862ZM48.375 0.408739L48.4991 0.681861L48.6116 0.630737L48.4875 0.357615L48.3634 0.0844935L48.2509 0.135617L48.375 0.408739ZM48.4875 0.357615L48.6116 0.630737C48.6057 0.633443 48.5904 0.638112 48.5705 0.636154C48.5519 0.634314 48.544 0.628081 48.5487 0.631146L48.7125 0.379814L48.8763 0.128482C48.7243 0.0293909 48.541 0.00375783 48.3634 0.0844935L48.4875 0.357615ZM48.7125 0.379814L48.5487 0.631146L48.6612 0.704467L48.825 0.453135L48.9888 0.201803L48.8763 0.128482L48.7125 0.379814ZM48.825 0.453135L48.6612 0.704467L48.7737 0.777789L48.9375 0.526457L49.1013 0.275125L48.9888 0.201803L48.825 0.453135ZM48.9375 0.526457L48.7737 0.777789C48.9132 0.868728 49.082 0.904938 49.2556 0.848217L49.1625 0.563039L49.0694 0.277861C49.0718 0.277068 49.0761 0.276 49.0817 0.275534C49.0875 0.275063 49.0931 0.275334 49.0981 0.276152C49.1086 0.277849 49.11 0.28076 49.1013 0.275125L48.9375 0.526457ZM49.1625 0.563039L49.2556 0.848217L49.3681 0.811477L49.275 0.526299L49.1819 0.241121L49.0694 0.277861L49.1625 0.563039ZM49.275 0.526299L49.3681 0.811477L49.4806 0.774737L49.3875 0.48956L49.2944 0.204382L49.1819 0.241121L49.275 0.526299ZM49.3875 0.48956L49.4806 0.774737C49.513 0.764181 49.5407 0.762423 49.5675 0.766491L49.6125 0.469884L49.6575 0.173276C49.5343 0.154592 49.412 0.165951 49.2944 0.204382L49.3875 0.48956ZM49.6125 0.469884L49.5675 0.766491L49.68 0.783555L49.725 0.486947L49.77 0.19034L49.6575 0.173276L49.6125 0.469884ZM49.725 0.486947L49.68 0.783555L49.7925 0.800619L49.8375 0.504011L49.8825 0.207404L49.77 0.19034L49.725 0.486947ZM49.8375 0.504011L49.7925 0.800619C49.8749 0.813122 49.9575 0.822474 50.0401 0.828657L50.0625 0.529493L50.0849 0.23033C50.0175 0.225288 49.9501 0.217652 49.8825 0.207404L49.8375 0.504011ZM50.0625 0.529493L50.0401 0.828657L50.1526 0.837075L50.175 0.537912L50.1974 0.238748L50.0849 0.23033L50.0625 0.529493ZM50.175 0.537912L50.1526 0.837075L50.2651 0.845494L50.2875 0.54633L50.3099 0.247167L50.1974 0.238748L50.175 0.537912ZM50.2875 0.54633L50.2651 0.845494C50.3951 0.855219 50.5203 0.829617 50.6367 0.776686L50.5125 0.503594L50.3883 0.230501C50.3547 0.245778 50.3299 0.248666 50.3099 0.247167L50.2875 0.54633ZM50.5125 0.503594L50.6367 0.776686L50.7492 0.725531L50.625 0.452438L50.5008 0.179346L50.3883 0.230501L50.5125 0.503594ZM50.625 0.452438L50.7492 0.725531L50.8617 0.674376L50.7375 0.401283L50.6133 0.128191L50.5008 0.179346L50.625 0.452438ZM50.7375 0.401283L50.8617 0.674376C50.9117 0.651649 50.9576 0.638934 51.0001 0.633572L50.9625 0.335932L50.9249 0.0382925C50.8174 0.0518585 50.7133 0.0827108 50.6133 0.128191L50.7375 0.401283ZM50.9625 0.335932L51.0001 0.633572L51.1126 0.619376L51.075 0.321736L51.0374 0.0240967L50.9249 0.0382925L50.9625 0.335932ZM51.075 0.321736L51.1126 0.619376L51.2251 0.60518L51.1875 0.307541L51.1499 0.00990081L51.0374 0.0240967L51.075 0.321736ZM51.1875 0.307541L51.2251 0.60518C51.2687 0.599678 51.3122 0.600981 51.3567 0.609413L51.4125 0.314654L51.4683 0.019895C51.3629 -8.49962e-05 51.2563 -0.00352487 51.1499 0.00990081L51.1875 0.307541ZM51.4125 0.314654L51.3567 0.609413L51.4692 0.630722L51.525 0.335963L51.5808 0.0412043L51.4683 0.019895L51.4125 0.314654ZM51.525 0.335963L51.4692 0.630722L51.5817 0.652031L51.6375 0.357272L51.6933 0.0625136L51.5808 0.0412043L51.525 0.335963ZM51.6375 0.357272L51.5817 0.652031C51.6557 0.666046 51.7296 0.680456 51.8036 0.695261L51.8625 0.401093L51.9214 0.106924C51.8454 0.0917152 51.7693 0.0769117 51.6933 0.0625136L51.6375 0.357272ZM51.8625 0.401093L51.8036 0.695261L51.9161 0.717772L51.975 0.423604L52.0339 0.129435L51.9214 0.106924L51.8625 0.401093ZM51.975 0.423604L51.9161 0.717772L52.0286 0.740283L52.0875 0.446115L52.1464 0.151946L52.0339 0.129435L51.975 0.423604ZM52.0875 0.446115L52.0286 0.740283C52.1544 0.765439 52.2804 0.757823 52.402 0.7198L52.3125 0.433462L52.223 0.147123C52.1946 0.155985 52.1706 0.156805 52.1464 0.151946L52.0875 0.446115ZM52.3125 0.433462L52.402 0.7198L52.5145 0.684636L52.425 0.398298L52.3355 0.111959L52.223 0.147123L52.3125 0.433462ZM52.425 0.398298L52.5145 0.684636L52.627 0.649472L52.5375 0.363134L52.448 0.0767953L52.3355 0.111959L52.425 0.398298ZM52.5375 0.363134L52.627 0.649472C52.6249 0.650132 52.6211 0.651038 52.6161 0.651416C52.611 0.651796 52.606 0.651531 52.6016 0.650817C52.5925 0.649329 52.5919 0.646945 52.6009 0.652653L52.7625 0.399914L52.9241 0.147176C52.7856 0.0585953 52.6194 0.0232187 52.448 0.0767953L52.5375 0.363134ZM52.7625 0.399914L52.6009 0.652653L52.7134 0.724598L52.875 0.471859L53.0366 0.219121L52.9241 0.147176L52.7625 0.399914ZM52.875 0.471859L52.7134 0.724598L52.8259 0.796542L52.9875 0.543804L53.1491 0.291065L53.0366 0.219121L52.875 0.471859ZM52.9875 0.543804L52.8259 0.796542C52.9689 0.888014 53.1407 0.920014 53.3144 0.85731L53.2125 0.575135L53.1106 0.292959C53.1129 0.292158 53.1172 0.290902 53.1232 0.290234C53.1293 0.289558 53.1355 0.289663 53.1414 0.290476C53.1536 0.292172 53.1565 0.295809 53.1491 0.291065L52.9875 0.543804ZM53.2125 0.575135L53.3144 0.85731L53.4269 0.816696L53.325 0.534521L53.2231 0.252346L53.1106 0.292959L53.2125 0.575135ZM53.325 0.534521L53.4269 0.816696L53.5394 0.776083L53.4375 0.493908L53.3356 0.211732L53.2231 0.252346L53.325 0.534521ZM53.4375 0.493908L53.5394 0.776083C53.6107 0.750326 53.682 0.726162 53.7532 0.703585L53.6625 0.417619L53.5718 0.131653C53.493 0.156642 53.4143 0.183338 53.3356 0.211732L53.4375 0.493908ZM53.6625 0.417619L53.7532 0.703585L53.8657 0.66791L53.775 0.381944L53.6843 0.0959778L53.5718 0.131653L53.6625 0.417619ZM53.775 0.381944L53.8657 0.66791L53.9782 0.632235L53.8875 0.346269L53.7968 0.0603027L53.6843 0.0959778L53.775 0.381944ZM53.8875 0.346269L53.9782 0.632235C53.9794 0.631859 53.9793 0.631995 53.9781 0.632127C53.977 0.632263 53.9756 0.632292 53.9742 0.632175C53.971 0.631897 53.9727 0.63126 53.9805 0.635114L54.1125 0.365692L54.2445 0.0962699C54.1048 0.0278836 53.9502 0.0116552 53.7968 0.0603027L53.8875 0.346269ZM54.1125 0.365692L53.9805 0.635114L54.093 0.690212L54.225 0.42079L54.357 0.151368L54.2445 0.0962699L54.1125 0.365692ZM54.225 0.42079L54.093 0.690212L54.2055 0.74531L54.3375 0.475888L54.4695 0.206466L54.357 0.151368L54.225 0.42079ZM54.3375 0.475888L54.2055 0.74531C54.3166 0.799722 54.4362 0.830942 54.5615 0.831364L54.5625 0.531366L54.5635 0.231367C54.5388 0.231284 54.5084 0.225519 54.4695 0.206466L54.3375 0.475888ZM54.5625 0.531366L54.5615 0.831364L54.674 0.831743L54.675 0.531745L54.676 0.231746L54.5635 0.231367L54.5625 0.531366ZM54.675 0.531745L54.674 0.831743L54.7865 0.832122L54.7875 0.532124L54.7885 0.232125L54.676 0.231746L54.675 0.531745ZM54.7875 0.532124L54.7865 0.832122C54.8532 0.832347 54.92 0.835329 54.9868 0.841076L55.0125 0.54218L55.0382 0.243283C54.955 0.236128 54.8718 0.232406 54.7885 0.232125L54.7875 0.532124ZM55.0125 0.54218L54.9868 0.841076L55.0993 0.850753L55.125 0.551857L55.1507 0.25296L55.0382 0.243283L55.0125 0.54218ZM55.125 0.551857L55.0993 0.850753L55.2118 0.86043L55.2375 0.561534L55.2632 0.262637L55.1507 0.25296L55.125 0.551857ZM55.2375 0.561534L55.2118 0.86043C55.2844 0.866676 55.357 0.873799 55.4296 0.8818L55.4625 0.583605L55.4954 0.285409C55.418 0.276885 55.3406 0.269294 55.2632 0.262637L55.2375 0.561534ZM55.4625 0.583605L55.4296 0.8818L55.5421 0.894194L55.575 0.595998L55.6079 0.297802L55.4954 0.285409L55.4625 0.583605ZM55.575 0.595998L55.5421 0.894194L55.6547 0.906588L55.6875 0.608392L55.7204 0.310196L55.6079 0.297802L55.575 0.595998ZM55.6875 0.608392L55.6547 0.906588C55.7558 0.91773 55.857 0.915554 55.9578 0.900188L55.9125 0.603621L55.8673 0.307053C55.818 0.314574 55.7692 0.315579 55.7204 0.310196L55.6875 0.608392ZM55.9125 0.603621L55.9578 0.900188L56.0703 0.883023L56.025 0.586455L55.9798 0.289887L55.8673 0.307053L55.9125 0.603621ZM56.025 0.586455L56.0703 0.883023L56.1828 0.865857L56.1375 0.56929L56.0923 0.272722L55.9798 0.289887L56.025 0.586455ZM56.1375 0.56929L56.1828 0.865857C56.2929 0.849052 56.3986 0.813103 56.4991 0.761689L56.3625 0.494591L56.2259 0.227493C56.1764 0.25279 56.1321 0.26664 56.0923 0.272722L56.1375 0.56929ZM56.3625 0.494591L56.4991 0.761689L56.6116 0.704156L56.475 0.437058L56.3384 0.16996L56.2259 0.227493L56.3625 0.494591ZM56.475 0.437058L56.6116 0.704156L56.7241 0.646623L56.5875 0.379525L56.4509 0.112427L56.3384 0.16996L56.475 0.437058ZM56.5875 0.379525L56.7241 0.646623C56.7465 0.635174 56.7543 0.637396 56.7572 0.637941L56.8125 0.343073L56.8678 0.0482046C56.7207 0.0206417 56.5785 0.0471658 56.4509 0.112427L56.5875 0.379525ZM56.8125 0.343073L56.7572 0.637941L56.8697 0.659021L56.925 0.364153L56.9803 0.0692851L56.8678 0.0482046L56.8125 0.343073ZM56.925 0.364153L56.8697 0.659021L56.9823 0.680102L57.0375 0.385234L57.0928 0.0903656L56.9803 0.0692851L56.925 0.364153ZM57.0375 0.385234L56.9823 0.680102C57.0676 0.696093 57.1532 0.707491 57.239 0.71424L57.2625 0.415164L57.286 0.116088C57.2218 0.111037 57.1574 0.102481 57.0928 0.0903656L57.0375 0.385234ZM57.2625 0.415164L57.239 0.71424L57.3515 0.72309L57.375 0.424014L57.3985 0.124938L57.286 0.116088L57.2625 0.415164ZM57.375 0.424014L57.3515 0.72309L57.464 0.73194L57.4875 0.432863L57.511 0.133787L57.3985 0.124938L57.375 0.424014ZM57.4875 0.432863L57.464 0.73194C57.5614 0.739606 57.6588 0.736307 57.7558 0.72217L57.7125 0.425309L57.6692 0.128448C57.6162 0.136184 57.5636 0.137921 57.511 0.133787L57.4875 0.432863ZM57.7125 0.425309L57.7558 0.72217L57.8683 0.705766L57.825 0.408905L57.7817 0.112044L57.6692 0.128448L57.7125 0.425309ZM57.825 0.408905L57.8683 0.705766L57.9808 0.689362L57.9375 0.392501L57.8942 0.0956402L57.7817 0.112044L57.825 0.408905ZM57.9375 0.392501L57.9808 0.689362C58.0263 0.682723 58.0714 0.682885 58.117 0.689881L58.1625 0.393346L58.208 0.0968111C58.1036 0.0808083 57.9987 0.080407 57.8942 0.0956402L57.9375 0.392501ZM58.1625 0.393346L58.117 0.689881L58.2295 0.70713L58.275 0.410595L58.3205 0.11406L58.208 0.0968111L58.1625 0.393346ZM58.275 0.410595L58.2295 0.70713L58.342 0.724379L58.3875 0.427844L58.433 0.131309L58.3205 0.11406L58.275 0.410595ZM58.3875 0.427844L58.342 0.724379C58.4559 0.741836 58.5699 0.736836 58.6819 0.710192L58.6125 0.418334L58.5431 0.126477C58.5051 0.135511 58.4691 0.13685 58.433 0.131309L58.3875 0.427844ZM58.6125 0.418334L58.6819 0.710192L58.7944 0.683433L58.725 0.391575L58.6556 0.0997176L58.5431 0.126477L58.6125 0.418334ZM58.725 0.391575L58.7944 0.683433L58.9069 0.656674L58.8375 0.364816L58.7681 0.0729587L58.6556 0.0997176L58.725 0.391575ZM58.8375 0.364816L58.9069 0.656674C58.9672 0.642345 59.0268 0.632968 59.0859 0.628344L59.0625 0.329258L59.0391 0.0301712C58.9482 0.0372801 58.8578 0.0516093 58.7681 0.0729587L58.8375 0.364816ZM59.0625 0.329258L59.0859 0.628344L59.1984 0.619545L59.175 0.320458L59.1516 0.0213716L59.0391 0.0301712L59.0625 0.329258ZM59.175 0.320458L59.1984 0.619545L59.3109 0.610745L59.2875 0.311658L59.2641 0.012572L59.1516 0.0213716L59.175 0.320458ZM59.2875 0.311658L59.3109 0.610745C59.3276 0.609439 59.3499 0.611689 59.3824 0.627326L59.5125 0.357023L59.6426 0.0867203C59.5251 0.0301382 59.3974 0.00214472 59.2641 0.012572L59.2875 0.311658ZM59.5125 0.357023L59.3824 0.627326L59.4949 0.68149L59.625 0.411187L59.7551 0.140885L59.6426 0.0867203L59.5125 0.357023ZM59.625 0.411187L59.4949 0.68149L59.6074 0.735654L59.7375 0.465352L59.8676 0.195049L59.7551 0.140885L59.625 0.411187ZM59.7375 0.465352L59.6074 0.735654C59.7179 0.788882 59.8364 0.819432 59.9605 0.820264L59.9625 0.52027L59.9645 0.220277C59.9386 0.220103 59.9071 0.21404 59.8676 0.195049L59.7375 0.465352ZM59.9625 0.52027L59.9605 0.820264L60.073 0.821018L60.075 0.521025L60.077 0.221031L59.9645 0.220277L59.9625 0.52027ZM60.075 0.521025L60.073 0.821018L60.1855 0.821772L60.1875 0.521779L60.1895 0.221786L60.077 0.221031L60.075 0.521025ZM60.1875 0.521779L60.1855 0.821772C60.2727 0.822357 60.3598 0.817641 60.4467 0.807657L60.4125 0.509615L60.3783 0.211574C60.3152 0.218814 60.2523 0.222207 60.1895 0.221786L60.1875 0.521779ZM60.4125 0.509615L60.4467 0.807657L60.5592 0.794739L60.525 0.496697L60.4908 0.198656L60.3783 0.211574L60.4125 0.509615ZM60.525 0.496697L60.5592 0.794739L60.6717 0.781821L60.6375 0.483779L60.6033 0.185738L60.4908 0.198656L60.525 0.496697ZM60.6375 0.483779L60.6717 0.781821C60.7125 0.777137 60.7535 0.77927 60.7962 0.788939L60.8625 0.49636L60.9288 0.203781C60.8215 0.179452 60.7125 0.173197 60.6033 0.185738L60.6375 0.483779ZM60.8625 0.49636L60.7962 0.788939L60.9087 0.814437L60.975 0.521859L61.0413 0.22928L60.9288 0.203781L60.8625 0.49636ZM60.975 0.521859L60.9087 0.814437L61.0212 0.839936L61.0875 0.547357L61.1538 0.254778L61.0413 0.22928L60.975 0.521859ZM61.0875 0.547357L61.0212 0.839936C61.1296 0.864512 61.2397 0.870223 61.35 0.856352L61.3125 0.558699L61.275 0.261047C61.2353 0.266051 61.1954 0.2642 61.1538 0.254778L61.0875 0.547357ZM61.3125 0.558699L61.35 0.856352L61.4625 0.842195L61.425 0.544542L61.3875 0.24689L61.275 0.261047L61.3125 0.558699ZM61.425 0.544542L61.4625 0.842195L61.575 0.828038L61.5375 0.530386L61.5 0.232733L61.3875 0.24689L61.425 0.544542ZM61.5375 0.530386L61.575 0.828038C61.6232 0.821965 61.6712 0.822393 61.7197 0.829381L61.7625 0.532453L61.8053 0.235525C61.7038 0.220881 61.6018 0.219931 61.5 0.232733L61.5375 0.530386ZM61.7625 0.532453L61.7197 0.829381L61.8322 0.845606L61.875 0.548677L61.9178 0.251749L61.8053 0.235525L61.7625 0.532453ZM61.875 0.548677L61.8322 0.845606L61.9447 0.86183L61.9875 0.564902L62.0303 0.267974L61.9178 0.251749L61.875 0.548677ZM61.9875 0.564902L61.9447 0.86183C62.0657 0.879278 62.1858 0.868608 62.302 0.832323L62.2125 0.545975L62.123 0.259627C62.0892 0.27021 62.0593 0.272158 62.0303 0.267974L61.9875 0.564902ZM62.2125 0.545975L62.302 0.832323L62.4145 0.797173L62.325 0.510825L62.2355 0.224477L62.123 0.259627L62.2125 0.545975ZM62.325 0.510825L62.4145 0.797173L62.527 0.762022L62.4375 0.475674L62.348 0.189326L62.2355 0.224477L62.325 0.510825ZM62.4375 0.475674L62.527 0.762022C62.5927 0.741495 62.658 0.724598 62.7229 0.711244L62.6625 0.417392L62.6021 0.123539C62.517 0.141028 62.4323 0.162986 62.348 0.189326L62.4375 0.475674ZM62.6625 0.417392L62.7229 0.711244L62.8354 0.688112L62.775 0.39426L62.7146 0.100407L62.6021 0.123539L62.6625 0.417392ZM62.775 0.39426L62.8354 0.688112L62.9479 0.664981L62.8875 0.371128L62.8271 0.0772754L62.7146 0.100407L62.775 0.39426ZM62.8875 0.371128L62.9479 0.664981C62.9586 0.662788 62.9711 0.662272 62.9937 0.671989L63.1125 0.396533L63.2313 0.121076C63.1039 0.0660775 62.9664 0.0486251 62.8271 0.0772754L62.8875 0.371128ZM63.1125 0.396533L62.9937 0.671989L63.1062 0.720526L63.225 0.445069L63.3438 0.169612L63.2313 0.121076L63.1125 0.396533ZM63.225 0.445069L63.1062 0.720526L63.2187 0.769062L63.3375 0.493605L63.4563 0.218149L63.3438 0.169612L63.225 0.445069ZM63.3375 0.493605L63.2187 0.769062C63.3241 0.814548 63.4347 0.841756 63.5491 0.846888L63.5625 0.547189L63.5759 0.24749C63.5403 0.245892 63.5009 0.237378 63.4563 0.218149L63.3375 0.493605ZM63.5625 0.547189L63.5491 0.846888L63.6616 0.851935L63.675 0.552236L63.6884 0.252538L63.5759 0.24749L63.5625 0.547189ZM63.675 0.552236L63.6616 0.851935L63.7741 0.856982L63.7875 0.557283L63.8009 0.257585L63.6884 0.252538L63.675 0.552236ZM63.7875 0.557283L63.7741 0.856982C63.8456 0.860193 63.9172 0.864633 63.9888 0.870301L64.0125 0.571236L64.0362 0.272172C63.9578 0.265966 63.8794 0.261103 63.8009 0.257585L63.7875 0.557283ZM64.0125 0.571236L63.9888 0.870301L64.1013 0.879206L64.125 0.580142L64.1487 0.281077L64.0362 0.272172L64.0125 0.571236ZM64.125 0.580142L64.1013 0.879206L64.2138 0.888111L64.2375 0.589047L64.2612 0.289982L64.1487 0.281077L64.125 0.580142ZM64.2375 0.589047L64.2138 0.888111C64.3216 0.896643 64.4287 0.887535 64.534 0.861702L64.4625 0.570346L64.391 0.27899C64.3463 0.289965 64.3034 0.293325 64.2612 0.289982L64.2375 0.589047ZM64.4625 0.570346L64.534 0.861702L64.6465 0.834095L64.575 0.542739L64.5035 0.251383L64.391 0.27899L64.4625 0.570346ZM64.575 0.542739L64.6465 0.834095L64.759 0.806489L64.6875 0.515133L64.616 0.223777L64.5035 0.251383L64.575 0.542739ZM64.6875 0.515133L64.759 0.806489C64.8333 0.788245 64.8716 0.781244 64.8845 0.77974L64.85 0.481734L64.8155 0.183727C64.7618 0.189947 64.6917 0.205212 64.616 0.223777L64.6875 0.515133ZM64.85 0.481734L64.8845 0.77974L64.9345 0.773948L64.9 0.475941L64.8655 0.177934L64.8155 0.183727L64.85 0.481734ZM64.9 0.475941L65.2 0.475881L65.2 0.464295L64.9 0.464355L64.6 0.464416L64.6 0.476001L64.9 0.475941ZM64.9 0.464355V0.764355H65V0.464355V0.164355H64.9V0.464355Z" fill="#8E988F"/>
</svg>
