<svg width="17" height="4" viewBox="0 0 17 4" fill="none" xmlns="http://www.w3.org/2000/svg">
<path d="M0.381104 1.39785L0.666511 1.49028L0.681104 1.44522V1.39785H0.381104ZM0.37236 1.42485L0.0869524 1.33243L0.0759306 1.36646L0.0732214 1.40213L0.37236 1.42485ZM0.362714 1.55185L0.0635758 1.52913L0.0599875 1.57638L0.0711341 1.62243L0.362714 1.55185ZM0.393454 1.67885L0.69134 1.6433L0.689228 1.6256L0.685035 1.60828L0.393454 1.67885ZM0.408612 1.80585L0.700148 1.87661L0.71291 1.82403L0.706498 1.7703L0.408612 1.80585ZM0.377788 1.93285L0.0862518 1.86209L0.0792696 1.89086L0.0780447 1.92044L0.377788 1.93285ZM0.372529 2.05985L0.666744 2.11848L0.671306 2.09559L0.672272 2.07226L0.372529 2.05985ZM0.347222 2.18685L0.0530063 2.12822L0.0383289 2.20188L0.0600876 2.27376L0.347222 2.18685ZM0.385664 2.31385L0.684115 2.28341L0.68118 2.25463L0.672798 2.22694L0.385664 2.31385ZM0.398618 2.44085L0.677225 2.55211L0.704545 2.4837L0.697069 2.41041L0.398618 2.44085ZM0.347902 2.56785L0.0692954 2.45659L0.037982 2.53501L0.0521646 2.61824L0.347902 2.56785ZM0.369542 2.69485L0.665657 2.74297L0.673667 2.69369L0.66528 2.64446L0.369542 2.69485ZM0.352803 2.79785L0.0566881 2.74973L0.000115186 3.09785H0.352803V2.79785ZM0.381104 1.29785H0.0811035V1.39785H0.381104H0.681104V1.29785H0.381104ZM0.381104 1.39785L0.0956961 1.30543L0.0869524 1.33243L0.37236 1.42485L0.657767 1.51728L0.666511 1.49028L0.381104 1.39785ZM0.37236 1.42485L0.0732214 1.40213L0.0635758 1.52913L0.362714 1.55185L0.661853 1.57457L0.671498 1.44757L0.37236 1.42485ZM0.362714 1.55185L0.0711341 1.62243L0.101874 1.74943L0.393454 1.67885L0.685035 1.60828L0.654294 1.48128L0.362714 1.55185ZM0.393454 1.67885L0.0955685 1.7144L0.110726 1.8414L0.408612 1.80585L0.706498 1.7703L0.69134 1.6433L0.393454 1.67885ZM0.408612 1.80585L0.117076 1.73509L0.0862518 1.86209L0.377788 1.93285L0.669324 2.00361L0.700148 1.87661L0.408612 1.80585ZM0.377788 1.93285L0.0780447 1.92044L0.0727857 2.04744L0.372529 2.05985L0.672272 2.07226L0.677531 1.94526L0.377788 1.93285ZM0.372529 2.05985L0.0783132 2.00122L0.0530063 2.12822L0.347222 2.18685L0.641437 2.24548L0.666744 2.11848L0.372529 2.05985ZM0.347222 2.18685L0.0600876 2.27376L0.0985295 2.40076L0.385664 2.31385L0.672798 2.22694L0.634356 2.09994L0.347222 2.18685ZM0.385664 2.31385L0.0872123 2.34429L0.100166 2.47129L0.398618 2.44085L0.697069 2.41041L0.684115 2.28341L0.385664 2.31385ZM0.398618 2.44085L0.120011 2.32959L0.0692954 2.45659L0.347902 2.56785L0.626509 2.67911L0.677225 2.55211L0.398618 2.44085ZM0.347902 2.56785L0.0521646 2.61824L0.0738043 2.74524L0.369542 2.69485L0.66528 2.64446L0.64364 2.51746L0.347902 2.56785ZM0.369542 2.69485L0.0734265 2.64673L0.0566881 2.74973L0.352803 2.79785L0.648919 2.84597L0.665657 2.74297L0.369542 2.69485ZM0.352803 2.79785V3.09785H0.381104V2.79785V2.49785H0.352803V2.79785Z" fill="#8E988F"/>
<path d="M2.40072 2.69979L2.2052 2.47225L2.12681 2.53961L2.10654 2.64096L2.40072 2.69979ZM2.42671 2.67746L2.62222 2.905L2.71373 2.82637L2.72532 2.70628L2.42671 2.67746ZM2.43897 2.5504L2.73759 2.57922L2.73881 2.56659L2.73895 2.55391L2.43897 2.5504ZM2.44049 2.42118L2.16096 2.31226L2.14115 2.36311L2.14051 2.41767L2.44049 2.42118ZM2.48731 2.30103L2.76683 2.40995L2.77666 2.38473L2.78182 2.35815L2.48731 2.30103ZM2.51148 2.17635L2.2213 2.10026L2.21883 2.10968L2.21697 2.11924L2.51148 2.17635ZM2.54376 2.05329L2.2633 1.94677L2.25762 1.96172L2.25357 1.97719L2.54376 2.05329ZM2.58947 1.93292L2.86993 2.03944L2.88658 1.99559L2.88905 1.94875L2.58947 1.93292ZM2.59625 1.80476L2.29724 1.77794L2.29666 1.78893L2.59625 1.80476ZM2.60766 1.67753L2.90646 1.70432L2.90806 1.68646L2.90752 1.66852L2.60766 1.67753ZM2.60374 1.54723L2.35043 1.38651L2.30112 1.46423L2.30388 1.55623L2.60374 1.54723ZM2.67666 1.4323L2.92998 1.59302L2.9595 1.54649L2.97056 1.49252L2.67666 1.4323ZM2.70216 1.30788L2.99605 1.3681L3.00461 1.32633L3.00119 1.28384L2.70216 1.30788ZM2.69157 1.17625L2.41025 1.07205L2.38722 1.13422L2.39254 1.20029L2.69157 1.17625ZM2.73623 1.05567L3.01756 1.15986L3.03161 1.12192L3.03511 1.08161L2.73623 1.05567ZM2.74728 0.928361L2.45003 0.887827L2.44904 0.895103L2.44841 0.902419L2.74728 0.928361ZM2.76448 0.802284L2.50577 0.650394L2.47535 0.702212L2.46723 0.761751L2.76448 0.802284ZM2.83253 0.686379L3.09123 0.838269L3.11983 0.789566L3.12875 0.733798L2.83253 0.686379ZM2.85261 0.560882L2.56193 0.486704L2.55855 0.499957L2.55639 0.513463L2.85261 0.560882ZM2.88406 0.437656L3.17474 0.511834L3.19317 0.439642L3.17567 0.367219L2.88406 0.437656ZM2.85119 0.301567L2.81422 0.0038538L2.48066 0.0452786L2.55957 0.372003L2.85119 0.301567ZM2.3811 2.79785L2.67528 2.85669L2.69489 2.75863L2.40072 2.69979L2.10654 2.64096L2.08693 2.73902L2.3811 2.79785ZM2.40072 2.69979L2.59623 2.92734L2.62222 2.905L2.42671 2.67746L2.2312 2.44991L2.2052 2.47225L2.40072 2.69979ZM2.42671 2.67746L2.72532 2.70628L2.73759 2.57922L2.43897 2.5504L2.14036 2.52157L2.1281 2.64863L2.42671 2.67746ZM2.43897 2.5504L2.73895 2.55391L2.74047 2.42469L2.44049 2.42118L2.14051 2.41767L2.139 2.54689L2.43897 2.5504ZM2.44049 2.42118L2.72001 2.53011L2.76683 2.40995L2.48731 2.30103L2.20778 2.19211L2.16096 2.31226L2.44049 2.42118ZM2.48731 2.30103L2.78182 2.35815L2.806 2.23347L2.51148 2.17635L2.21697 2.11924L2.19279 2.24392L2.48731 2.30103ZM2.51148 2.17635L2.80167 2.25245L2.83394 2.12939L2.54376 2.05329L2.25357 1.97719L2.2213 2.10026L2.51148 2.17635ZM2.54376 2.05329L2.82421 2.15981L2.86993 2.03944L2.58947 1.93292L2.30902 1.8264L2.2633 1.94677L2.54376 2.05329ZM2.58947 1.93292L2.88905 1.94875L2.89583 1.82059L2.59625 1.80476L2.29666 1.78893L2.28989 1.91709L2.58947 1.93292ZM2.59625 1.80476L2.89505 1.83156L2.90646 1.70432L2.60766 1.67753L2.30885 1.65073L2.29744 1.77796L2.59625 1.80476ZM2.60766 1.67753L2.90752 1.66852L2.90361 1.53823L2.60374 1.54723L2.30388 1.55623L2.30779 1.68653L2.60766 1.67753ZM2.60374 1.54723L2.85706 1.70795L2.92998 1.59302L2.67666 1.4323L2.42335 1.27158L2.35043 1.38651L2.60374 1.54723ZM2.67666 1.4323L2.97056 1.49252L2.99605 1.3681L2.70216 1.30788L2.40826 1.24766L2.38277 1.37208L2.67666 1.4323ZM2.70216 1.30788L3.00119 1.28384L2.99061 1.1522L2.69157 1.17625L2.39254 1.20029L2.40312 1.33193L2.70216 1.30788ZM2.69157 1.17625L2.9729 1.28044L3.01756 1.15986L2.73623 1.05567L2.45491 0.951471L2.41025 1.07205L2.69157 1.17625ZM2.73623 1.05567L3.03511 1.08161L3.04616 0.954304L2.74728 0.928361L2.44841 0.902419L2.43736 1.02972L2.73623 1.05567ZM2.74728 0.928361L3.04453 0.968895L3.06173 0.842818L2.76448 0.802284L2.46723 0.761751L2.45003 0.887827L2.74728 0.928361ZM2.76448 0.802284L3.02318 0.954175L3.09123 0.838269L2.83253 0.686379L2.57382 0.534489L2.50577 0.650394L2.76448 0.802284ZM2.83253 0.686379L3.12875 0.733798L3.14884 0.608301L2.85261 0.560882L2.55639 0.513463L2.5363 0.63896L2.83253 0.686379ZM2.85261 0.560882L3.1433 0.63506L3.17474 0.511834L2.88406 0.437656L2.59337 0.363478L2.56193 0.486704L2.85261 0.560882ZM2.88406 0.437656L3.17567 0.367219L3.1428 0.23113L2.85119 0.301567L2.55957 0.372003L2.59245 0.508093L2.88406 0.437656ZM2.85119 0.301567L2.88816 0.59928L2.91808 0.595565L2.8811 0.297852L2.84413 0.000138611L2.81422 0.0038538L2.85119 0.301567Z" fill="#8E988F"/>
<path d="M4.91273 1.39272L4.62812 1.48759L4.67332 1.6232L4.80712 1.67352L4.91273 1.39272ZM4.95284 1.40781L5.25283 1.41075L5.25489 1.20089L5.05845 1.12701L4.95284 1.40781ZM4.95153 1.54212L4.65154 1.53917L4.65072 1.62257L4.69306 1.69443L4.95153 1.54212ZM5.01746 1.65401L5.31735 1.66222L5.31971 1.576L5.27592 1.5017L5.01746 1.65401ZM5.01376 1.78911L4.71388 1.7809L4.71054 1.9026L4.79296 1.9922L5.01376 1.78911ZM5.108 1.89157L5.39768 1.81355L5.37856 1.74257L5.3288 1.68847L5.108 1.89157ZM5.14109 2.01441L5.43283 1.94405L5.43077 1.93639L5.14109 2.01441ZM5.17097 2.13832L4.87933 2.20865L4.88412 2.22851L4.89156 2.24754L5.17097 2.13832ZM5.21727 2.25675L5.51673 2.27465L5.52067 2.20889L5.49668 2.14753L5.21727 2.25675ZM5.2091 2.39335L4.90964 2.37545L4.90354 2.47746L4.96098 2.56198L5.2091 2.39335ZM5.28328 2.50249L5.57757 2.44424L5.56572 2.38435L5.5314 2.33386L5.28328 2.50249ZM5.30814 2.62807L5.01385 2.68633L5.02526 2.74394L5.05754 2.793L5.30814 2.62807ZM5.3804 2.73786L5.68037 2.73432L5.67934 2.64639L5.63099 2.57293L5.3804 2.73786ZM4.8811 1.29785L4.5965 1.39272L4.62812 1.48759L4.91273 1.39272L5.19733 1.29785L5.16571 1.20298L4.8811 1.29785ZM4.91273 1.39272L4.80712 1.67352L4.84723 1.6886L4.95284 1.40781L5.05845 1.12701L5.01834 1.11192L4.91273 1.39272ZM4.95284 1.40781L4.65286 1.40487L4.65154 1.53917L4.95153 1.54212L5.25151 1.54506L5.25283 1.41075L4.95284 1.40781ZM4.95153 1.54212L4.69306 1.69443L4.759 1.80632L5.01746 1.65401L5.27592 1.5017L5.20999 1.38981L4.95153 1.54212ZM5.01746 1.65401L4.71757 1.6458L4.71388 1.7809L5.01376 1.78911L5.31365 1.79732L5.31735 1.66222L5.01746 1.65401ZM5.01376 1.78911L4.79296 1.9922L4.8872 2.09466L5.108 1.89157L5.3288 1.68847L5.23456 1.58602L5.01376 1.78911ZM5.108 1.89157L4.81833 1.96959L4.85141 2.09243L5.14109 2.01441L5.43077 1.93639L5.39768 1.81355L5.108 1.89157ZM5.14109 2.01441L4.84945 2.08474L4.87933 2.20865L5.17097 2.13832L5.46261 2.06798L5.43273 1.94407L5.14109 2.01441ZM5.17097 2.13832L4.89156 2.24754L4.93786 2.36598L5.21727 2.25675L5.49668 2.14753L5.45038 2.02909L5.17097 2.13832ZM5.21727 2.25675L4.9178 2.23885L4.90964 2.37545L5.2091 2.39335L5.50857 2.41125L5.51673 2.27465L5.21727 2.25675ZM5.2091 2.39335L4.96098 2.56198L5.03516 2.67112L5.28328 2.50249L5.5314 2.33386L5.45722 2.22471L5.2091 2.39335ZM5.28328 2.50249L4.98899 2.56074L5.01385 2.68633L5.30814 2.62807L5.60243 2.56982L5.57757 2.44424L5.28328 2.50249ZM5.30814 2.62807L5.05754 2.793L5.1298 2.90279L5.3804 2.73786L5.63099 2.57293L5.55874 2.46315L5.30814 2.62807ZM5.3804 2.73786L5.08042 2.7414L5.08112 2.80139L5.3811 2.79785L5.68108 2.79431L5.68037 2.73432L5.3804 2.73786Z" fill="#8E988F"/>
<path d="M7.3811 1.39785H7.0811V1.40961L7.08202 1.42133L7.3811 1.39785ZM7.38322 1.42485L7.08414 1.44833L7.08472 1.45569L7.08566 1.463L7.38322 1.42485ZM7.39951 1.55185L7.69934 1.54175L7.69886 1.52767L7.69707 1.5137L7.39951 1.55185ZM7.40378 1.67885L7.67939 1.79734L7.70587 1.73575L7.70361 1.66875L7.40378 1.67885ZM7.34918 1.80585L7.07358 1.68736L7.03613 1.77446L7.05553 1.86725L7.34918 1.80585ZM7.37574 1.93285L7.67551 1.94449L7.67695 1.90759L7.66939 1.87145L7.37574 1.93285ZM7.37081 2.05985L7.07103 2.04821L7.06892 2.10277L7.08616 2.15458L7.37081 2.05985ZM7.41307 2.18685L7.68002 2.32375L7.73751 2.21165L7.69772 2.09212L7.41307 2.18685ZM7.34794 2.31385L7.081 2.17695L7.03424 2.26813L7.05303 2.36887L7.34794 2.31385ZM7.37163 2.44085L7.67145 2.45119L7.67259 2.41824L7.66655 2.38584L7.37163 2.44085ZM7.36725 2.56785L7.06743 2.55751L7.06708 2.56758L7.06741 2.57765L7.36725 2.56785ZM7.3714 2.69485L7.07156 2.70465L7.07208 2.72047L7.07426 2.73616L7.3714 2.69485ZM7.38572 2.79785V3.09785H7.73031L7.68286 2.75655L7.38572 2.79785ZM7.3811 1.29785H7.0811V1.39785H7.3811H7.6811V1.29785H7.3811ZM7.3811 1.39785L7.08202 1.42133L7.08414 1.44833L7.38322 1.42485L7.6823 1.40137L7.68018 1.37437L7.3811 1.39785ZM7.38322 1.42485L7.08566 1.463L7.10194 1.59L7.39951 1.55185L7.69707 1.5137L7.68079 1.3867L7.38322 1.42485ZM7.39951 1.55185L7.09968 1.56195L7.10395 1.68895L7.40378 1.67885L7.70361 1.66875L7.69934 1.54175L7.39951 1.55185ZM7.40378 1.67885L7.12818 1.56036L7.07358 1.68736L7.34918 1.80585L7.62479 1.92434L7.67939 1.79734L7.40378 1.67885ZM7.34918 1.80585L7.05553 1.86725L7.08209 1.99425L7.37574 1.93285L7.66939 1.87145L7.64283 1.74445L7.34918 1.80585ZM7.37574 1.93285L7.07597 1.92121L7.07103 2.04821L7.37081 2.05985L7.67058 2.07149L7.67551 1.94449L7.37574 1.93285ZM7.37081 2.05985L7.08616 2.15458L7.12842 2.28158L7.41307 2.18685L7.69772 2.09212L7.65546 1.96512L7.37081 2.05985ZM7.41307 2.18685L7.14613 2.04995L7.081 2.17695L7.34794 2.31385L7.61488 2.45075L7.68002 2.32375L7.41307 2.18685ZM7.34794 2.31385L7.05303 2.36887L7.07672 2.49587L7.37163 2.44085L7.66655 2.38584L7.64285 2.25884L7.34794 2.31385ZM7.37163 2.44085L7.07181 2.43051L7.06743 2.55751L7.36725 2.56785L7.66707 2.57819L7.67145 2.45119L7.37163 2.44085ZM7.36725 2.56785L7.06741 2.57765L7.07156 2.70465L7.3714 2.69485L7.67124 2.68506L7.66709 2.55806L7.36725 2.56785ZM7.3714 2.69485L7.07426 2.73616L7.08858 2.83916L7.38572 2.79785L7.68286 2.75655L7.66854 2.65355L7.3714 2.69485ZM7.38572 2.79785V2.49785H7.3811V2.79785V3.09785H7.38572V2.79785Z" fill="#8E988F"/>
<path d="M9.90536 3.20084L9.68356 2.99884L9.63265 3.05473L9.61431 3.12808L9.90536 3.20084ZM9.926 3.17817L10.1478 3.38017L10.2105 3.31135L10.2232 3.21914L9.926 3.17817ZM9.94345 3.05162L10.2407 3.0926L10.2414 3.08703L9.94345 3.05162ZM9.95856 2.92449L9.69162 2.78759L9.66702 2.83556L9.66066 2.88908L9.95856 2.92449ZM10.0181 2.80846L10.285 2.94535L10.3084 2.89969L10.3153 2.84884L10.0181 2.80846ZM10.0353 2.68185L9.76767 2.54623L9.7448 2.59135L9.738 2.64147L10.0353 2.68185ZM10.0942 2.56566L10.3617 2.70128L10.3856 2.65431L10.3919 2.60203L10.0942 2.56566ZM10.1097 2.43863L10.4075 2.475L10.4109 2.44659L10.409 2.41803L10.1097 2.43863ZM10.1005 2.30543L9.82379 2.18952L9.79632 2.2551L9.80121 2.32603L10.1005 2.30543ZM10.1501 2.18693L10.4268 2.30284L10.4404 2.27052L10.4461 2.23595L10.1501 2.18693ZM10.171 2.06123L9.92054 1.89603L9.88541 1.94928L9.87498 2.01222L10.171 2.06123ZM10.2451 1.94885L10.4955 2.11405L10.5262 2.06746L10.5382 2.01294L10.2451 1.94885ZM10.2722 1.82473L9.98027 1.75552L9.97915 1.76065L10.2722 1.82473ZM10.3015 1.70114L10.5934 1.77035L10.5937 1.76929L10.3015 1.70114ZM10.3304 1.57745L10.6225 1.6456L10.6248 1.636L10.6264 1.62629L10.3304 1.57745ZM10.3511 1.45173L10.6471 1.50056L10.6529 1.4654L10.6503 1.42986L10.3511 1.45173ZM10.3414 1.31838L10.2036 1.05187L10.0277 1.14277L10.0422 1.34025L10.3414 1.31838ZM9.8811 3.29785L10.1721 3.37061L10.1964 3.2736L9.90536 3.20084L9.61431 3.12808L9.59006 3.22509L9.8811 3.29785ZM9.90536 3.20084L10.1272 3.40284L10.1478 3.38017L9.926 3.17817L9.7042 2.97617L9.68356 2.99884L9.90536 3.20084ZM9.926 3.17817L10.2232 3.21914L10.2406 3.0926L9.94345 3.05162L9.64626 3.01065L9.62881 3.13719L9.926 3.17817ZM9.94345 3.05162L10.2414 3.08703L10.2565 2.9599L9.95856 2.92449L9.66066 2.88908L9.64555 3.01621L9.94345 3.05162ZM9.95856 2.92449L10.2255 3.06139L10.285 2.94535L10.0181 2.80846L9.75112 2.67156L9.69162 2.78759L9.95856 2.92449ZM10.0181 2.80846L10.3153 2.84884L10.3325 2.72223L10.0353 2.68185L9.738 2.64147L9.7208 2.76808L10.0181 2.80846ZM10.0353 2.68185L10.3029 2.81747L10.3617 2.70128L10.0942 2.56566L9.82655 2.43004L9.76767 2.54623L10.0353 2.68185ZM10.0942 2.56566L10.3919 2.60203L10.4075 2.475L10.1097 2.43863L9.81188 2.40226L9.79636 2.52929L10.0942 2.56566ZM10.1097 2.43863L10.409 2.41803L10.3998 2.28483L10.1005 2.30543L9.80121 2.32603L9.81037 2.45923L10.1097 2.43863ZM10.1005 2.30543L10.3772 2.42134L10.4268 2.30284L10.1501 2.18693L9.87343 2.07102L9.82379 2.18952L10.1005 2.30543ZM10.1501 2.18693L10.4461 2.23595L10.4669 2.11024L10.171 2.06123L9.87498 2.01222L9.85417 2.13792L10.1501 2.18693ZM10.171 2.06123L10.4214 2.22643L10.4955 2.11405L10.2451 1.94885L9.99467 1.78365L9.92054 1.89603L10.171 2.06123ZM10.2451 1.94885L10.5382 2.01294L10.5653 1.88881L10.2722 1.82473L9.97915 1.76065L9.95201 1.88477L10.2451 1.94885ZM10.2722 1.82473L10.5641 1.89393L10.5934 1.77035L10.3015 1.70114L10.0096 1.63194L9.98032 1.75553L10.2722 1.82473ZM10.3015 1.70114L10.5937 1.76929L10.6225 1.6456L10.3304 1.57745L10.0382 1.5093L10.0094 1.633L10.3015 1.70114ZM10.3304 1.57745L10.6264 1.62629L10.6471 1.50056L10.3511 1.45173L10.0551 1.40289L10.0344 1.52861L10.3304 1.57745ZM10.3511 1.45173L10.6503 1.42986L10.6406 1.29652L10.3414 1.31838L10.0422 1.34025L10.0519 1.47359L10.3511 1.45173ZM10.3414 1.31838L10.4791 1.5849L10.5188 1.56437L10.3811 1.29785L10.2434 1.03133L10.2036 1.05187L10.3414 1.31838Z" fill="#8E988F"/>
<path d="M12.4127 1.39272L12.7127 1.38826L12.712 1.34187L12.6973 1.29785L12.4127 1.39272ZM12.4131 1.42104L12.1132 1.4255L12.1142 1.49478L12.1455 1.5566L12.4131 1.42104ZM12.4712 1.53557L12.7411 1.40462L12.7388 1.40001L12.4712 1.53557ZM12.5271 1.65081L12.8269 1.64249L12.8252 1.57796L12.797 1.51988L12.5271 1.65081ZM12.5307 1.78345L12.2309 1.79177L12.2318 1.82759L12.2412 1.86217L12.5307 1.78345ZM12.5641 1.9062L12.2744 1.98498L12.2782 1.99702L12.5641 1.9062ZM12.6026 2.02725L12.3166 2.11807L12.3349 2.17554L12.3739 2.2215L12.6026 2.02725ZM12.6912 2.13157L12.9879 2.17571L13.008 2.04106L12.9198 1.93732L12.6912 2.13157ZM12.6703 2.27243L12.3735 2.22829L12.3586 2.32842L12.4074 2.4171L12.6703 2.27243ZM12.7325 2.38554L13.0235 2.3125L13.014 2.27486L12.9953 2.24086L12.7325 2.38554ZM12.7635 2.50907L12.4726 2.58211L12.4729 2.58336L12.7635 2.50907ZM12.7951 2.63243L12.5044 2.70672L12.5245 2.78554L12.5817 2.84338L12.7951 2.63243ZM12.8946 2.73312L13.1883 2.79445L13.2212 2.63673L13.1079 2.52217L12.8946 2.73312ZM12.3811 1.29785L12.0965 1.39272L12.1281 1.48759L12.4127 1.39272L12.6973 1.29785L12.6657 1.20298L12.3811 1.29785ZM12.4127 1.39272L12.1128 1.39718L12.1132 1.4255L12.4131 1.42104L12.7131 1.41658L12.7127 1.38826L12.4127 1.39272ZM12.4131 1.42104L12.1455 1.5566L12.2035 1.67113L12.4712 1.53557L12.7388 1.40001L12.6808 1.28548L12.4131 1.42104ZM12.4712 1.53557L12.2012 1.6665L12.2571 1.78174L12.5271 1.65081L12.797 1.51988L12.7411 1.40464L12.4712 1.53557ZM12.5271 1.65081L12.2272 1.65913L12.2309 1.79177L12.5307 1.78345L12.8306 1.77514L12.8269 1.64249L12.5271 1.65081ZM12.5307 1.78345L12.2412 1.86217L12.2746 1.98491L12.5641 1.9062L12.8536 1.82749L12.8202 1.70474L12.5307 1.78345ZM12.5641 1.9062L12.2782 1.99702L12.3166 2.11807L12.6026 2.02725L12.8885 1.93643L12.85 1.81538L12.5641 1.9062ZM12.6026 2.02725L12.3739 2.2215L12.4626 2.32582L12.6912 2.13157L12.9198 1.93732L12.8312 1.833L12.6026 2.02725ZM12.6912 2.13157L12.3945 2.08744L12.3735 2.22829L12.6703 2.27243L12.967 2.31656L12.9879 2.17571L12.6912 2.13157ZM12.6703 2.27243L12.4074 2.4171L12.4697 2.53022L12.7325 2.38554L12.9953 2.24086L12.9331 2.12775L12.6703 2.27243ZM12.7325 2.38554L12.4415 2.45858L12.4726 2.58211L12.7635 2.50907L13.0545 2.43604L13.0235 2.3125L12.7325 2.38554ZM12.7635 2.50907L12.4729 2.58336L12.5044 2.70672L12.7951 2.63243L13.0857 2.55815L13.0542 2.43479L12.7635 2.50907ZM12.7951 2.63243L12.5817 2.84338L12.6813 2.94406L12.8946 2.73312L13.1079 2.52217L13.0084 2.42149L12.7951 2.63243ZM12.8946 2.73312L12.601 2.67179L12.5874 2.73652L12.8811 2.79785L13.1748 2.85918L13.1883 2.79445L12.8946 2.73312Z" fill="#8E988F"/>
<path d="M14.4127 2.70298L14.1627 2.53716L14.1407 2.57034L14.1281 2.60811L14.4127 2.70298ZM14.4282 2.67968L14.6782 2.8455L14.7039 2.80678L14.7166 2.76209L14.4282 2.67968ZM14.4631 2.55745L14.7516 2.63987L14.7545 2.62971L14.7566 2.61938L14.4631 2.55745ZM14.4895 2.43237L14.2059 2.33458L14.1998 2.3522L14.196 2.37044L14.4895 2.43237ZM14.5309 2.3123L14.2811 2.14617L14.2598 2.17817L14.2473 2.21451L14.5309 2.3123ZM14.6038 2.20273L14.8536 2.36887L14.8739 2.33824L14.8863 2.30361L14.6038 2.20273ZM14.6465 2.0831L14.929 2.18398L14.9463 2.13568L14.9465 2.0844L14.6465 2.0831ZM14.6471 1.94942L14.3614 1.85794L14.3473 1.90193L14.3471 1.94812L14.6471 1.94942ZM14.6858 1.82846L14.4191 1.69116L14.4077 1.71328L14.4001 1.73698L14.6858 1.82846ZM14.7446 1.7142L14.4781 1.57642L14.4779 1.57689L14.7446 1.7142ZM14.8037 1.60001L15.0702 1.73778L15.0738 1.73082L15.077 1.72368L14.8037 1.60001ZM14.8563 1.48368L15.1296 1.60736L15.1634 1.53269L15.1545 1.45122L14.8563 1.48368ZM14.8412 1.34477L14.6127 1.15036L14.529 1.24877L14.5429 1.37723L14.8412 1.34477ZM14.3811 2.79785L14.6657 2.89272L14.6973 2.79785L14.4127 2.70298L14.1281 2.60811L14.0965 2.70298L14.3811 2.79785ZM14.4127 2.70298L14.6627 2.86881L14.6782 2.8455L14.4282 2.67968L14.1782 2.51385L14.1627 2.53716L14.4127 2.70298ZM14.4282 2.67968L14.7166 2.76209L14.7516 2.63987L14.4631 2.55745L14.1747 2.47503L14.1397 2.59726L14.4282 2.67968ZM14.4631 2.55745L14.7566 2.61938L14.783 2.4943L14.4895 2.43237L14.196 2.37044L14.1696 2.49552L14.4631 2.55745ZM14.4895 2.43237L14.7731 2.53017L14.8145 2.4101L14.5309 2.3123L14.2473 2.21451L14.2059 2.33458L14.4895 2.43237ZM14.5309 2.3123L14.7807 2.47844L14.8536 2.36887L14.6038 2.20273L14.354 2.03659L14.2811 2.14617L14.5309 2.3123ZM14.6038 2.20273L14.8863 2.30361L14.929 2.18398L14.6465 2.0831L14.364 1.98221L14.3213 2.10184L14.6038 2.20273ZM14.6465 2.0831L14.9465 2.0844L14.9471 1.95072L14.6471 1.94942L14.3471 1.94812L14.3465 2.0818L14.6465 2.0831ZM14.6471 1.94942L14.9328 2.0409L14.9715 1.91994L14.6858 1.82846L14.4001 1.73698L14.3614 1.85794L14.6471 1.94942ZM14.6858 1.82846L14.9525 1.96577L15.0114 1.8515L14.7446 1.7142L14.4779 1.57689L14.4191 1.69116L14.6858 1.82846ZM14.7446 1.7142L15.0111 1.85197L15.0702 1.73778L14.8037 1.60001L14.5372 1.46223L14.4781 1.57642L14.7446 1.7142ZM14.8037 1.60001L15.077 1.72368L15.1296 1.60736L14.8563 1.48368L14.583 1.36001L14.5303 1.47633L14.8037 1.60001ZM14.8563 1.48368L15.1545 1.45122L15.1394 1.31231L14.8412 1.34477L14.5429 1.37723L14.5581 1.51614L14.8563 1.48368ZM14.8412 1.34477L15.0697 1.53919L15.1096 1.49226L14.8811 1.29785L14.6526 1.10344L14.6127 1.15036L14.8412 1.34477Z" fill="#8E988F"/>
<path d="M16.3811 1.39785H16.0811V1.52732L16.1753 1.61613L16.3811 1.39785ZM16.4097 1.42485L16.69 1.53188L16.7616 1.34431L16.6155 1.20657L16.4097 1.42485ZM16.3612 1.55185L16.081 1.44482L16.0647 1.48738L16.0618 1.53286L16.3612 1.55185ZM16.3532 1.67885L16.0538 1.65986L16.0489 1.73758L16.0824 1.80789L16.3532 1.67885ZM16.4137 1.80585L16.7053 1.87615L16.7303 1.7728L16.6845 1.67681L16.4137 1.80585ZM16.3831 1.93285L16.0914 1.86255L16.0785 1.91601L16.0855 1.97056L16.3831 1.93285ZM16.3992 2.05985L16.6778 2.17099L16.7065 2.09902L16.6968 2.02214L16.3992 2.05985ZM16.3485 2.18685L16.0699 2.07571L16.0432 2.14267L16.0498 2.21445L16.3485 2.18685ZM16.3602 2.31385L16.0615 2.34145L16.0636 2.36411L16.0691 2.38619L16.3602 2.31385ZM16.3918 2.44085L16.687 2.38718L16.6853 2.37778L16.6829 2.36851L16.3918 2.44085ZM16.4149 2.56785L16.7012 2.65749L16.7233 2.58693L16.7101 2.51418L16.4149 2.56785ZM16.3751 2.69485L16.0888 2.60521L16.0792 2.63599L16.0763 2.66811L16.3751 2.69485ZM16.3638 2.82185L16.065 2.79511L16.0622 2.826L16.0658 2.85681L16.3638 2.82185ZM16.3787 2.94885L16.6782 2.93147L16.6777 2.92266L16.6766 2.9139L16.3787 2.94885ZM16.3811 1.29785H16.0811V1.39785H16.3811H16.6811V1.29785H16.3811ZM16.3811 1.39785L16.1753 1.61613L16.2039 1.64313L16.4097 1.42485L16.6155 1.20657L16.5869 1.17957L16.3811 1.39785ZM16.4097 1.42485L16.1295 1.31782L16.081 1.44482L16.3612 1.55185L16.6415 1.65888L16.69 1.53188L16.4097 1.42485ZM16.3612 1.55185L16.0618 1.53286L16.0538 1.65986L16.3532 1.67885L16.6526 1.69785L16.6606 1.57085L16.3612 1.55185ZM16.3532 1.67885L16.0824 1.80789L16.1429 1.93489L16.4137 1.80585L16.6845 1.67681L16.624 1.54981L16.3532 1.67885ZM16.4137 1.80585L16.122 1.73555L16.0914 1.86255L16.3831 1.93285L16.6747 2.00315L16.7053 1.87615L16.4137 1.80585ZM16.3831 1.93285L16.0855 1.97056L16.1015 2.09756L16.3992 2.05985L16.6968 2.02214L16.6807 1.89514L16.3831 1.93285ZM16.3992 2.05985L16.1205 1.94871L16.0699 2.07571L16.3485 2.18685L16.6272 2.29799L16.6778 2.17099L16.3992 2.05985ZM16.3485 2.18685L16.0498 2.21445L16.0615 2.34145L16.3602 2.31385L16.659 2.28625L16.6472 2.15925L16.3485 2.18685ZM16.3602 2.31385L16.0691 2.38619L16.1007 2.51319L16.3918 2.44085L16.6829 2.36851L16.6514 2.24151L16.3602 2.31385ZM16.3918 2.44085L16.0966 2.49452L16.1197 2.62152L16.4149 2.56785L16.7101 2.51418L16.687 2.38718L16.3918 2.44085ZM16.4149 2.56785L16.1286 2.47821L16.0888 2.60521L16.3751 2.69485L16.6614 2.78449L16.7012 2.65749L16.4149 2.56785ZM16.3751 2.69485L16.0763 2.66811L16.065 2.79511L16.3638 2.82185L16.6626 2.84859L16.6739 2.72159L16.3751 2.69485ZM16.3638 2.82185L16.0658 2.85681L16.0807 2.98381L16.3787 2.94885L16.6766 2.9139L16.6617 2.7869L16.3638 2.82185ZM16.3787 2.94885L16.0792 2.96623L16.0816 3.00822L16.3811 2.99084L16.6806 2.97347L16.6782 2.93147L16.3787 2.94885Z" fill="#8E988F"/>
</svg>
