<svg width="3" height="1" viewBox="0 0 3 1" fill="none" xmlns="http://www.w3.org/2000/svg">
<path d="M2.09995 0.408203L2.05538 0.111533L2.07754 0.108203H2.09995V0.408203ZM1.41245 0.318542L1.52896 0.0420919L1.41245 0.318542ZM0.962451 0.495236L0.796498 0.245317L0.962451 0.495236ZM0.512451 0.582126L0.523277 0.881931L0.512451 0.582126ZM0.349951 0.541692L0.54939 0.317585L0.349951 0.541692ZM0.299951 0.497196L0.100512 0.721303L-4.88758e-05 0.631811V0.497196L0.299951 0.497196ZM0.299951 0.408203V0.108203H0.599951L0.599951 0.408203L0.299951 0.408203ZM2.19995 0.408203V0.708203H2.09995V0.408203V0.108203H2.19995V0.408203ZM2.09995 0.408203L2.14452 0.704874L1.96952 0.731165L1.92495 0.434494L1.88038 0.137824L2.05538 0.111533L2.09995 0.408203ZM1.92495 0.434494L1.96952 0.731165C1.82143 0.753414 1.66467 0.750398 1.52094 0.689821L1.63745 0.413371L1.75396 0.136921C1.76023 0.139564 1.79514 0.15063 1.88038 0.137824L1.92495 0.434494ZM1.63745 0.413371L1.52094 0.689821L1.40844 0.642406L1.52495 0.365957L1.64146 0.0895065L1.75396 0.136921L1.63745 0.413371ZM1.52495 0.365957L1.40844 0.642406L1.29594 0.594992L1.41245 0.318542L1.52896 0.0420919L1.64146 0.0895065L1.52495 0.365957ZM1.41245 0.318542L1.29594 0.594992C1.29857 0.596101 1.30394 0.597984 1.31167 0.599144C1.31953 0.600323 1.32791 0.600465 1.33607 0.599474C1.35308 0.597412 1.35936 0.591796 1.3534 0.595749L1.18745 0.34583L1.0215 0.095911C1.16978 -0.00254941 1.35029 -0.0332144 1.52896 0.0420919L1.41245 0.318542ZM1.18745 0.34583L1.3534 0.595749L1.2409 0.670452L1.07495 0.420533L0.908998 0.170614L1.0215 0.095911L1.18745 0.34583ZM1.07495 0.420533L1.2409 0.670452L1.1284 0.745155L0.962451 0.495236L0.796498 0.245317L0.908998 0.170614L1.07495 0.420533ZM0.962451 0.495236L1.1284 0.745155C1.01655 0.819427 0.888749 0.868734 0.748277 0.873806L0.737451 0.574002L0.726625 0.274197C0.736154 0.273853 0.758349 0.270649 0.796498 0.245317L0.962451 0.495236ZM0.737451 0.574002L0.748277 0.873806L0.635777 0.877869L0.624951 0.578064L0.614125 0.278259L0.726625 0.274197L0.737451 0.574002ZM0.624951 0.578064L0.635777 0.877869L0.523277 0.881931L0.512451 0.582126L0.501625 0.282322L0.614125 0.278259L0.624951 0.578064ZM0.512451 0.582126L0.523277 0.881931C0.420326 0.885649 0.27011 0.872234 0.150512 0.765799L0.349951 0.541692L0.54939 0.317585C0.521791 0.293023 0.496473 0.285031 0.488015 0.282926C0.480367 0.281023 0.483179 0.282988 0.501625 0.282322L0.512451 0.582126ZM0.349951 0.541692L0.150512 0.765799L0.100512 0.721303L0.299951 0.497196L0.49939 0.273089L0.54939 0.317585L0.349951 0.541692ZM0.299951 0.497196L-4.88758e-05 0.497196V0.408203L0.299951 0.408203L0.599951 0.408203V0.497196L0.299951 0.497196ZM0.299951 0.408203V0.708203H0.199951V0.408203V0.108203H0.299951V0.408203Z" fill="#7E8B69"/>
</svg>
