<svg width="65" height="25" viewBox="0 0 65 25" fill="none" xmlns="http://www.w3.org/2000/svg">
<path d="M63.5706 21.2007C63.7975 21.2437 63.9339 21.2437 63.9558 21.2437L0.476124 23.7349C0.484589 23.6222 0.492805 23.5127 0.522884 23.4107C0.552963 23.3087 0.603382 23.2168 0.643982 23.1169C0.738049 22.5056 0.386993 21.7392 0.501072 21.306C0.600803 20.9272 0.797703 20.4691 1.20024 19.9516C1.34445 19.7663 5.57195 18.979 4.38918 18.7737C4.09821 18.7232 3.25753 18.7987 2.60044 18.3893C2.48537 18.3176 2.40132 18.2301 2.43286 18.1561C2.49998 17.9986 2.62413 17.8061 2.81659 17.6087C3.41722 16.9926 4.47118 16.5003 4.65823 16.0534C4.83978 15.6196 4.67374 14.3962 5.34051 13.8232C5.4577 13.7225 5.62776 13.7146 5.75734 13.7503C5.98466 13.8131 6.31183 14.2361 6.83847 14.5189C6.93719 14.5719 7.04183 14.5932 7.15121 14.5466C7.70065 14.3129 8.37851 14.0574 8.57301 13.5004C8.8115 12.8174 9.4683 11.996 9.36474 11.6219C9.26901 11.2762 8.66329 10.8345 8.98192 10.1603C9.17913 9.74302 9.61188 9.61351 9.81733 9.25228C9.92218 9.06792 9.97964 8.82065 10.0702 8.5039C10.2709 7.80236 10.5055 7.37555 10.9046 7.2051C11.2741 7.04731 11.8745 6.92767 12.3967 7.00791C12.882 7.08247 13.2386 7.34089 13.6222 7.29017C14.039 7.23504 16.539 7.71336 17.8824 6.15753C18.1165 5.88639 18.0263 5.28609 18.3799 4.93196C18.5208 4.79089 19.1673 4.90299 19.8782 4.54405C20.3404 4.31063 20.6458 3.93123 20.977 3.63968C21.1217 3.51238 21.3074 3.43523 22.2637 3.42369C24.6759 3.39457 26.4192 3.32082 26.6302 3.47258C26.8096 3.60161 26.9544 4.18529 27.3322 4.98031C27.8261 6.01957 28.1651 6.76536 28.8281 6.81647C29.3174 6.85419 29.7516 6.92303 29.9157 6.7828C30.2673 6.48252 30.3491 5.92156 30.8959 5.43064C32.0473 4.3971 32.9665 3.62859 34.1698 3.46864C35.2616 3.32352 35.8135 3.23676 36.0513 2.76664C36.4309 2.01628 36.7559 0.946216 37.2146 0.811352C37.5305 0.71848 38.7451 0.742794 40.3553 0.642468C41.1822 0.590949 41.9949 0.28808 42.8038 0.570488C43.6035 0.849677 44.9797 2.10153 46.2672 2.55491C47.2858 2.91359 48.153 3.03732 48.2001 3.48086C48.2319 3.78162 47.7858 4.6561 48.0932 6.47881C48.1453 6.78776 48.2437 6.8137 48.3741 6.83218C48.6602 6.87274 49.1584 6.81921 49.4002 7.16288C49.6539 7.52344 49.8832 8.31357 50.4542 8.48502C51.0786 8.67248 51.9292 8.81277 52.4245 8.92429C53.2555 9.11136 54.5467 9.46364 54.874 9.84204C55.0207 10.0116 55.1057 10.2099 55.208 10.5382C55.5917 11.7702 55.935 12.9969 56.436 13.0615C56.6555 13.0898 56.9984 12.7391 58.2881 12.5002C59.2392 12.324 60.7103 12.1999 60.8422 12.644C60.9883 13.1354 61.1473 13.6321 61.9974 14.2873C62.4638 14.6469 63.2422 15.0237 63.6284 15.5501C64.1122 16.2093 64.5103 16.7309 64.297 17.3348C64.118 17.8416 63.8409 18.247 63.6355 18.5537C63.2506 19.1281 62.9886 20.3177 63.3412 20.9735C63.3942 21.0719 63.4621 21.1802 63.5706 21.2007Z" fill="#B5D1A8"/>
<path d="M64.3524 21.1915C64.3813 21.4105 64.2271 21.6114 64.0081 21.6403C63.789 21.6691 63.5881 21.5149 63.5593 21.2959L63.9558 21.2437L64.3524 21.1915ZM63.9428 21.1445L64.0466 20.7582L64.3045 20.8275L64.3394 21.0923L63.9428 21.1445ZM63.3752 20.9014L63.6719 20.6331L63.3752 20.9014ZM63.267 20.7817L63.5637 20.5134L63.267 20.7817ZM63.1044 20.3888L62.727 20.2563L63.1044 20.3888ZM63.2121 20.082L63.5895 20.2146L63.2121 20.082ZM63.3652 19.6534L63.7415 19.789L63.3652 19.6534ZM63.4148 19.5157L63.0385 19.3801L63.4148 19.5157ZM63.4736 19.2253L63.0743 19.2014V19.2014L63.4736 19.2253ZM63.4919 18.9198L63.8912 18.9438V18.9438L63.4919 18.9198ZM63.5789 18.6387L63.2367 18.4314L63.5789 18.6387ZM63.7344 18.3819L64.0765 18.5892L63.7344 18.3819ZM63.9241 18.1423L64.2061 18.426V18.426L63.9241 18.1423ZM64.1478 17.9199L63.8658 17.6363H63.8658L64.1478 17.9199ZM64.3 17.6563L64.6867 17.7588L64.3 17.6563ZM64.3404 17.5039L63.9538 17.4014L64.3404 17.5039ZM64.3808 17.3514L63.9942 17.249L64.3808 17.3514ZM64.2592 16.9298L64.6019 16.7235L64.2592 16.9298ZM64.1781 16.7951L63.8354 17.0014L64.1781 16.7951ZM64.1417 16.1349L64.5403 16.1688L64.1417 16.1349ZM64.0433 15.854L63.7705 16.1466L64.0433 15.854ZM63.9299 15.7483L64.2027 15.4558L63.9299 15.7483ZM63.8165 15.6426L63.5437 15.9351L63.8165 15.6426ZM63.457 15.1154L63.8024 14.9136L63.457 15.1154ZM63.2094 14.9429L63.2854 14.5501L63.2094 14.9429ZM62.8784 14.8788L62.8024 15.2716L62.8784 14.8788ZM62.598 14.7487L62.8577 14.4445L62.598 14.7487ZM62.3681 14.5525L62.1084 14.8568L62.3681 14.5525ZM62.1466 14.3496L61.8661 14.6348L62.1466 14.3496ZM61.9334 14.1399L62.2138 13.8547L61.9334 14.1399ZM61.7524 13.908L61.4072 14.1099L61.7524 13.908ZM61.6781 13.7809L61.3328 13.9829L61.6781 13.7809ZM61.6038 13.6539L61.9491 13.4519L61.6038 13.6539ZM61.3633 13.4563L61.2071 13.8245L61.3633 13.4563ZM61.0309 13.3153L61.1871 12.9471L61.0309 13.3153ZM60.9062 13.0582L60.5158 12.9713L60.9062 13.0582ZM60.9893 12.685L61.3797 12.7719L60.9893 12.685ZM60.8478 12.4628L60.7715 12.8555L60.8478 12.4628ZM59.997 12.2809L60.0937 11.8927L59.997 12.2809ZM59.846 12.2432L59.7493 12.6314L59.846 12.2432ZM59.5515 12.2996L59.3324 11.965L59.5515 12.2996ZM59.2644 12.4876L59.4836 12.8222L59.2644 12.4876ZM58.9575 12.4937L58.768 12.8459L58.9575 12.4937ZM58.6308 12.3179L58.8203 11.9656L58.6308 12.3179ZM58.3232 12.2894L58.1708 11.9195L58.3232 12.2894ZM58.0348 12.4082L58.1872 12.778L58.0348 12.4082ZM57.7478 12.5207L57.8872 12.8956L57.7478 12.5207ZM57.605 12.5738L57.4656 12.1989L57.605 12.5738ZM57.4621 12.6269L57.3227 12.252L57.4621 12.6269ZM57.1745 12.7263L57.2963 13.1073L57.1745 12.7263ZM56.8849 12.8189L56.7631 12.4379L56.8849 12.8189ZM56.5811 12.926L56.4383 12.5524L56.5811 12.926ZM56.4221 12.9868L56.565 13.3605L56.4221 12.9868ZM56.2631 13.0476L56.1203 12.674L56.2631 13.0476ZM56.0547 12.9469L55.6722 13.0641L56.0547 12.9469ZM56.0052 12.7854L56.3876 12.6682L56.0052 12.7854ZM55.9557 12.6239L55.5733 12.7411V12.7411L55.9557 12.6239ZM55.8532 12.323L56.227 12.1807L55.8532 12.323ZM55.747 12.0443L55.3732 12.1866L55.747 12.0443ZM55.3601 11.5406L55.655 11.2704L55.3601 11.5406ZM55.2881 11.2494L54.8984 11.1592L55.2881 11.2494ZM55.3667 10.9099L55.7564 11L55.3667 10.9099ZM55.3309 10.606L55.6798 10.4105L55.3309 10.606ZM55.1807 10.3379L54.8317 10.5334L55.1807 10.3379ZM54.9983 10.1092L54.7336 10.409L54.9983 10.1092ZM54.7838 9.91979L55.0485 9.61992L54.7838 9.91979ZM54.5681 9.71555L54.8525 9.43421L54.5681 9.71555ZM54.3514 9.49645L54.067 9.77778L54.3514 9.49645ZM54.1015 9.33224L54.2457 8.95912L54.1015 9.33224ZM53.96 9.27758L53.8159 9.6507L53.96 9.27758ZM53.8186 9.22293L53.6744 9.59604L53.8186 9.22293ZM53.5116 9.20321L53.429 8.81184L53.5116 9.20321ZM53.1806 9.27309L53.2632 9.66447L53.1806 9.27309ZM52.8951 9.1691L52.5923 9.43054L52.8951 9.1691ZM52.6551 8.89124L52.9578 8.6298L52.6551 8.89124ZM52.3682 8.8161L52.511 9.18975V9.18975L52.3682 8.8161ZM52.0343 8.9437L51.8915 8.57005V8.57005L52.0343 8.9437ZM51.7228 8.96276L51.8411 8.58065L51.7228 8.96276ZM51.4338 8.87328L51.5521 8.49117L51.4338 8.87328ZM51.1641 8.7077L51.4418 8.41987L51.1641 8.7077ZM50.9136 8.46602L51.1914 8.17819L50.9136 8.46602ZM50.6695 8.30156L50.8072 7.92602L50.6695 8.30156ZM50.4316 8.21431L50.2939 8.58984L50.4316 8.21431ZM50.1573 8.11472L50.2928 7.73838L50.1573 8.11472ZM50.0019 8.05875L49.8663 8.43509L50.0019 8.05875ZM49.8464 8.00279L49.7109 8.37912L49.8464 8.00279ZM49.6482 7.79781L50.0327 7.68734L49.6482 7.79781ZM49.6054 7.64879L49.221 7.75926L49.6054 7.64879ZM49.5626 7.49978L49.1781 7.61025L49.5626 7.49978ZM49.4173 7.24362L49.7065 6.96723L49.4173 7.24362ZM49.3149 7.13646L49.0258 7.41286L49.3149 7.13646ZM49.2125 7.02931L49.5016 6.75292L49.2125 7.02931ZM48.9601 6.91459L48.9399 7.31408L48.9601 6.91459ZM48.6601 6.89944L48.6803 6.49995L48.6601 6.89944ZM48.3842 6.80243L48.6157 6.47625L48.3842 6.80243ZM48.1321 6.62356L48.3637 6.29738L48.1321 6.62356ZM47.9657 6.38501L48.3518 6.28031L47.9657 6.38501ZM47.9253 6.2359L47.5392 6.34059L47.9253 6.2359ZM47.8848 6.08678L47.4988 6.19148V6.19148L47.8848 6.08678ZM47.9141 5.78333L47.5495 5.61875L47.9141 5.78333ZM48.0534 5.47465L48.418 5.63924L48.0534 5.47465ZM48.0998 5.17141L47.7046 5.2331L48.0998 5.17141ZM48.0766 5.02251L48.4718 4.96082L48.0766 5.02251ZM48.0534 4.87361L48.4486 4.81192L48.0534 4.87361ZM48.0974 4.58557L47.7373 4.41143L48.0974 4.58557ZM48.1647 4.44643L48.5248 4.62057L48.1647 4.44643ZM48.232 4.30729L47.8719 4.13315L48.232 4.30729ZM48.0729 3.42412L48.4102 3.20908L48.0729 3.42412ZM47.9296 3.19928L47.5923 3.41432L47.9296 3.19928ZM47.7179 3.03214L47.8634 2.65957L47.7179 3.03214ZM47.5778 2.97743L47.7234 2.60486L47.5778 2.97743ZM47.4378 2.92271L47.2922 3.29528L47.4378 2.92271ZM47.163 2.79611L46.9747 3.14902L47.163 2.79611ZM47.0283 2.72423L47.2166 2.37132L47.0283 2.72423ZM46.8936 2.65235L46.7053 3.00526L46.8936 2.65235ZM46.6147 2.54379L46.516 2.93144L46.6147 2.54379ZM46.3262 2.47041L46.4248 2.08276L46.3262 2.47041ZM46.0422 2.38315L46.1782 2.007L46.0422 2.38315ZM45.9024 2.33258L46.0384 1.95642L45.9024 2.33258ZM45.7625 2.282L45.6265 2.65816L45.7625 2.282ZM45.489 2.16384L45.3085 2.52079L45.489 2.16384ZM45.3554 2.09625L45.5359 1.73929L45.3554 2.09625ZM44.9726 1.86373L45.2305 1.55795L44.9726 1.86373ZM44.7418 1.66906L44.4839 1.97484L44.7418 1.66906ZM44.5125 1.47257L44.7751 1.17088L44.5125 1.47257ZM44.0426 1.09525L44.2542 0.755765L44.0426 1.09525ZM43.3825 0.720429L43.5587 0.361327L43.3825 0.720429ZM43.2447 0.652805L43.0685 1.01191L43.2447 0.652805ZM42.9462 0.601353L42.9061 0.203363L42.9462 0.601353ZM42.3231 0.627874L42.2614 1.02309V1.02309L42.3231 0.627874ZM42.0412 0.583881L42.1029 0.188665V0.188665L42.0412 0.583881ZM41.745 0.517818L41.6358 0.902626L41.745 0.517818ZM41.5897 0.473752L41.4805 0.85856L41.5897 0.473752ZM41.4344 0.429686L41.5436 0.0448782V0.0448782L41.4344 0.429686ZM41.1313 0.406566L41.0751 0.010521L41.1313 0.406566ZM40.8356 0.448459L40.8917 0.844504L40.8356 0.448459ZM40.543 0.523006L40.682 0.898095L40.543 0.523006ZM40.2536 0.630208L40.1147 0.255118L40.2536 0.630208ZM39.9598 0.708943L40.0263 1.10338L39.9598 0.708943ZM39.6617 0.75921L39.5952 0.364775L39.6617 0.75921ZM39.3627 0.800184L39.3207 0.4024V0.4024L39.3627 0.800184ZM39.0631 0.831862L39.1051 1.22965V1.22965L39.0631 0.831862ZM38.7637 0.863563L38.7215 0.465795L38.7637 0.863563ZM38.6142 0.879425L38.6564 1.27719L38.6142 0.879425ZM38.4646 0.895287L38.5068 1.29306L38.4646 0.895287ZM38.165 0.896827L38.127 1.29502L38.165 0.896827ZM37.8649 0.868184L37.9029 0.469994L37.8649 0.868184ZM37.5833 0.881648L37.5007 0.490278L37.5833 0.881648ZM37.3201 0.937219L37.4028 1.32859L37.3201 0.937219ZM37.1263 1.07882L37.4772 1.27081L37.1263 1.07882ZM37.0017 1.30646L36.6508 1.11448L37.0017 1.30646ZM36.8125 1.52109L37.0613 1.83432L36.8125 1.52109ZM36.6856 1.62189L36.4368 1.30866L36.6856 1.62189ZM36.5587 1.7227L36.8074 2.03593L36.5587 1.7227ZM36.3394 1.94658L36.0194 1.70656L36.3394 1.94658ZM36.1548 2.19271L36.4748 2.43273L36.1548 2.19271ZM36.0202 2.45502L36.403 2.57117L36.0202 2.45502ZM35.9357 2.73349L35.553 2.61735L35.9357 2.73349ZM35.7786 2.95148L36.0047 3.28143L35.7786 2.95148ZM35.6637 3.03022L35.8898 3.36017L35.6637 3.03022ZM35.5488 3.10896L35.7749 3.43891L35.5488 3.10896ZM35.2882 3.21217L35.222 2.81769L35.2882 3.21217ZM35.1426 3.23662L35.2088 3.6311L35.1426 3.23662ZM34.9969 3.26108L35.0632 3.65556L34.9969 3.26108ZM34.125 3.44987L33.9056 3.11538L34.125 3.44987ZM33.9912 3.5376L33.7719 3.20311L33.9912 3.5376ZM33.8574 3.62533L34.0768 3.95982L33.8574 3.62533ZM33.5671 3.71676L33.5576 3.31687L33.5671 3.71676ZM33.2539 3.72414L33.2633 4.12403L33.2539 3.72414ZM32.9705 3.81074L32.7516 3.47598L32.9705 3.81074ZM32.717 3.97654L32.936 4.3113L32.717 3.97654ZM32.4644 4.1417L32.2456 3.80682L32.4644 4.1417ZM32.3384 4.22396L32.5572 4.55884L32.3384 4.22396ZM32.2125 4.30622L31.9938 3.97134L32.2125 4.30622ZM31.9743 4.48845L31.7083 4.18966L31.9743 4.48845ZM31.7496 4.68841L32.0155 4.9872L31.7496 4.68841ZM31.5507 4.91676L31.2191 4.693L31.5507 4.91676ZM31.464 5.04512L31.7956 5.26887L31.464 5.04512ZM31.3774 5.17349L31.0458 4.94973L31.3774 5.17349ZM31.1097 5.33294L31.1774 5.72717L31.1097 5.33294ZM30.9286 5.36402L30.861 4.96979L30.9286 5.36402ZM30.7476 5.39511L30.8153 5.78934L30.7476 5.39511ZM30.5672 5.61325L30.9672 5.61186L30.5672 5.61325ZM30.5685 5.98738L30.1685 5.98877L30.5685 5.98738ZM30.4865 6.30495L30.8244 6.51895L30.4865 6.30495ZM30.4038 6.43546L30.0659 6.22147L30.4038 6.43546ZM30.3212 6.56597L30.6591 6.77997L30.3212 6.56597ZM30.077 6.736L30.1721 7.12454L30.077 6.736ZM29.4466 6.80591L29.5731 6.42645L29.4466 6.80591ZM29.1549 6.70865L29.0284 7.0881L29.1549 6.70865ZM28.885 6.62914L28.7884 7.0173L28.885 6.62914ZM28.426 6.4375L28.1253 6.70119L28.426 6.4375ZM28.2524 6.23948L28.5532 5.97579L28.2524 6.23948ZM28.0093 6.06032L27.8268 6.41629L28.0093 6.06032ZM27.6965 5.90002L27.8789 5.54405L27.6965 5.90002ZM27.5053 5.66854L27.1155 5.75817L27.5053 5.66854ZM27.4705 5.51719L27.0807 5.60683L27.4705 5.51719ZM27.4357 5.36585L27.0459 5.45549L27.4357 5.36585ZM27.3172 5.08689L27.6517 4.86753L27.3172 5.08689ZM27.1498 4.83165L26.8153 5.05101L27.1498 4.83165ZM27.0381 4.5527L27.4314 4.47984L27.0381 4.5527ZM26.982 4.25004L26.5887 4.3229L26.982 4.25004ZM26.8797 3.97083L26.5338 4.17167L26.8797 3.97083ZM26.7312 3.71508L27.0772 3.51423L26.7312 3.71508ZM26.5334 3.48922L26.2849 3.80265L26.5334 3.48922ZM26.2863 3.29328L26.5348 2.97985L26.2863 3.29328ZM26.0097 3.29396L25.793 2.95778L26.0097 3.29396ZM25.7037 3.49127L25.9205 3.82745L25.7037 3.49127ZM25.4008 3.51495L25.2219 3.87272L25.4008 3.51495ZM25.1009 3.36501L25.2798 3.00724L25.1009 3.36501ZM24.8013 3.31904L24.7252 2.92635L24.8013 3.31904ZM24.6517 3.34804L24.7278 3.74074L24.6517 3.34804ZM24.2025 3.41785L24.1711 3.01908L24.2025 3.41785ZM24.0526 3.42964L24.0839 3.82841L24.0526 3.42964ZM23.9026 3.44143L23.8713 3.04266L23.9026 3.44143ZM23.6017 3.39304L23.7498 3.02146L23.6017 3.39304ZM23.2997 3.27268L23.1516 3.64425L23.2997 3.27268ZM22.9996 3.26593L22.8647 2.88938L22.9996 3.26593ZM22.8505 3.31937L22.7156 2.94282L22.8505 3.31937ZM22.7015 3.3728L22.8364 3.74935L22.7015 3.3728ZM22.4025 3.43695L22.374 3.03797L22.4025 3.43695ZM22.1028 3.45838L22.0743 3.0594V3.0594L22.1028 3.45838ZM21.8133 3.52902L21.9711 3.89661L21.8133 3.52902ZM21.6737 3.58895L21.8314 3.95654L21.6737 3.58895ZM21.534 3.64889L21.6917 4.01648L21.534 3.64889ZM21.2403 3.70624L21.2336 4.10619L21.2403 3.70624ZM21.0863 3.70367L21.093 3.30372L21.0863 3.70367ZM20.9323 3.70109L20.939 3.30115L20.9323 3.70109ZM20.6747 3.80632L20.9631 4.08347L20.6747 3.80632ZM20.4675 4.02192L20.1791 3.74477L20.4675 4.02192ZM20.2627 4.24765L20.5661 4.50826L20.2627 4.24765ZM20.0601 4.48353L19.7566 4.22292L20.0601 4.48353ZM19.8193 4.67666L19.6295 4.32452L19.8193 4.67666ZM19.5401 4.82707L19.7298 5.17921L19.5401 4.82707ZM19.2454 4.91446L19.2141 4.51569L19.2454 4.91446ZM19.0903 4.92665L19.1217 5.32542L19.0903 4.92665ZM18.9352 4.93884L18.9039 4.54007L18.9352 4.93884ZM18.6395 4.97849L18.7162 5.37107L18.6395 4.97849ZM18.3583 5.03341L18.2816 4.64082L18.3583 5.03341ZM18.1522 5.20257L17.7891 5.03477L18.1522 5.20257ZM18.0867 5.34429L18.4498 5.51209V5.51209L18.0867 5.34429ZM18.0212 5.486L17.6581 5.31819L18.0212 5.486ZM17.8942 5.74033L18.2454 5.93193L17.8942 5.74033ZM17.8328 5.85295L17.4817 5.66135L17.8328 5.85295ZM17.7713 5.96557L18.1225 6.15717L17.7713 5.96557ZM17.6603 6.24684L17.2765 6.13401L17.6603 6.24684ZM17.5611 6.58414L17.9449 6.69697L17.5611 6.58414ZM17.3351 6.74912L17.3435 6.3492L17.3351 6.74912ZM16.9823 6.74177L16.9906 6.34186L16.9823 6.74177ZM16.6795 6.81238L16.8821 7.15726L16.6795 6.81238ZM16.553 6.88667L16.3504 6.5418L16.553 6.88667ZM16.4266 6.96095L16.6293 7.30583L16.4266 6.96095ZM16.1559 7.06345L16.2326 7.45602L16.1559 7.06345ZM16.0116 7.09166L16.0883 7.48423L16.0116 7.09166ZM15.8672 7.11987L15.7905 6.7273L15.8672 7.11987ZM15.5779 7.19435L15.4563 6.81327L15.5779 7.19435ZM15.2877 7.2869L15.4093 7.66798L15.2877 7.2869ZM14.9926 7.31092L15.0514 6.91525L14.9926 7.31092ZM14.6927 7.26641L14.634 7.66208L14.6927 7.26641ZM14.3912 7.28124L14.2961 6.89271L14.3912 7.28124ZM14.0882 7.3554L14.1833 7.74394L14.0882 7.3554ZM13.7897 7.35798L13.6983 7.74741L13.7897 7.35798ZM13.4956 7.28898L13.587 6.89956L13.4956 7.28898ZM13.1873 7.26865L13.2223 7.66711L13.1873 7.26865ZM13.026 7.28282L12.991 6.88435L13.026 7.28282ZM12.8647 7.29699L12.8297 6.89852L12.8647 7.29699ZM12.576 7.18778L12.2977 7.47506L12.576 7.18778ZM12.4487 7.06439L12.727 6.77711L12.4487 7.06439ZM12.3213 6.94101L12.5996 6.65373L12.3213 6.94101ZM12.0508 6.92423L12.2896 7.24509L12.0508 6.92423ZM11.7644 7.13742L11.5255 6.81655L11.7644 7.13742ZM11.4834 7.26797L11.5519 7.66206L11.4834 7.26797ZM11.3456 7.29193L11.4141 7.68602L11.3456 7.29193ZM11.2078 7.31589L11.1393 6.9218L11.2078 7.31589ZM10.8885 7.34491L10.8773 6.94507L10.8885 7.34491ZM10.7069 7.34998L10.7181 7.74983L10.7069 7.34998ZM10.5253 7.35505L10.5365 7.7549L10.5253 7.35505ZM10.2785 7.51177L10.6459 7.66991L10.2785 7.51177ZM10.148 7.81507L9.78055 7.65692L10.148 7.81507ZM10.0745 8.12444L9.67504 8.10372L10.0745 8.12444ZM10.0663 8.28216L9.66686 8.26144L10.0663 8.28216ZM10.0581 8.43989L10.4576 8.46061L10.0581 8.43989ZM10.0512 8.76203L9.65125 8.76512L10.0512 8.76203ZM10.0538 9.09086L10.4538 9.08777L10.0538 9.09086ZM9.91418 9.35087L9.68958 9.01988L9.91418 9.35087ZM9.63245 9.54204L9.40785 9.21105L9.63245 9.54204ZM9.39488 9.74683L9.09542 9.48164L9.39488 9.74683ZM9.29818 9.85603L8.99872 9.59085L9.29818 9.85603ZM9.20147 9.96523L9.50093 10.2304L9.20147 9.96523ZM9.05861 10.2069L9.43634 10.3385L9.05861 10.2069ZM8.96629 10.4719L8.58856 10.3403L8.96629 10.4719ZM8.95821 10.7485L9.34493 10.6463L8.95821 10.7485ZM9.03437 11.0366L8.64765 11.1389L9.03437 11.0366ZM9.17102 11.3068L8.8559 11.5532L9.17102 11.3068ZM9.36817 11.5589L9.68328 11.3126L9.36817 11.5589ZM9.42297 11.8398L9.80788 11.9487L9.42297 11.8398ZM9.33543 12.1495L8.95052 12.0406L9.33543 12.1495ZM9.2464 12.4516L9.62875 12.5691L9.2464 12.4516ZM9.15587 12.7461L9.53822 12.8636L9.15587 12.7461ZM8.98718 12.9976L9.24524 13.3032L8.98718 12.9976ZM8.86376 13.1018L8.60571 12.7962L8.86376 13.1018ZM8.74034 13.206L8.99839 13.5117L8.74034 13.206ZM8.37472 14.0705L8.59048 14.4073L8.37472 14.0705ZM8.09785 14.2478L8.31361 14.5847L8.09785 14.2478ZM7.82408 14.4113L8.01752 14.7614L7.82408 14.4113ZM7.68876 14.4861L7.49532 14.136L7.68876 14.4861ZM7.55343 14.5608L7.35999 14.2107L7.55343 14.5608ZM7.25666 14.6034L7.33492 14.2111L7.25666 14.6034ZM7.09522 14.5712L7.01696 14.9635L7.09522 14.5712ZM6.93378 14.539L7.01204 14.1467L6.93378 14.539ZM6.68154 14.3805L6.35682 14.6141L6.68154 14.3805ZM6.49994 14.1281L6.82466 13.8945L6.49994 14.1281ZM6.2825 13.904L6.03789 14.2205L6.2825 13.904ZM6.02921 13.7082L5.78461 14.0247L6.02921 13.7082ZM5.75055 13.6846L5.92612 14.044L5.75055 13.6846ZM5.59852 13.7589L5.77409 14.1183L5.59852 13.7589ZM5.44649 13.8331L5.27092 13.4737L5.44649 13.8331ZM5.18191 14.018L4.9015 13.7328L5.18191 14.018ZM4.9568 14.2393L5.23721 14.5246L4.9568 14.2393ZM4.85297 14.5087L5.25237 14.4868L4.85297 14.5087ZM4.87044 14.8263L4.47105 14.8482L4.87044 14.8263ZM4.83926 15.131L4.45343 15.0255V15.0255L4.83926 15.131ZM4.75944 15.4229L5.14528 15.5284V15.5284L4.75944 15.4229ZM4.68478 15.7093L4.29649 15.6132L4.68478 15.7093ZM4.65003 15.8497L5.03832 15.9458L4.65003 15.8497ZM4.61528 15.9902L5.00357 16.0863L4.61528 15.9902ZM4.46614 16.2213L4.71451 16.5348L4.46614 16.2213ZM4.35176 16.3119L4.10339 15.9983L4.35176 16.3119ZM4.23738 16.4025L4.48575 16.716L4.23738 16.4025ZM3.98001 16.5491L4.12604 16.9215L3.98001 16.5491ZM3.69405 16.6613L3.54802 16.2889L3.69405 16.6613ZM3.44204 16.8264L3.15919 16.5435L3.44204 16.8264ZM3.22401 17.0444L3.50686 17.3272L3.22401 17.0444ZM3.03801 17.2931L2.68773 17.0999L3.03801 17.2931ZM2.88402 17.5723L3.23429 17.7655L2.88402 17.5723ZM2.72323 17.8285L2.39845 17.595L2.72323 17.8285ZM2.55563 18.0616L2.88041 18.2951L2.55563 18.0616ZM2.57833 18.2481L2.35872 18.5825L2.57833 18.2481ZM2.68483 18.3181L2.90443 17.9838L2.68483 18.3181ZM2.79132 18.3881L2.57172 18.7224L2.79132 18.3881ZM3.02533 18.5706L3.29006 18.2707L3.02533 18.5706ZM3.15284 18.6832L3.41757 18.3833L3.15284 18.6832ZM3.28035 18.7957L3.54508 18.4959L3.28035 18.7957ZM3.5674 18.8476L3.42519 18.4738L3.5674 18.8476ZM3.72694 18.7869L3.86914 19.1608L3.72694 18.7869ZM3.88647 18.7263L4.02868 19.1001L3.88647 18.7263ZM4.13829 18.7102L3.96411 19.0703L4.13829 18.7102ZM4.23058 18.7548L4.05639 19.1149L4.23058 18.7548ZM4.32285 18.7995L4.49704 18.4394L4.32285 18.7995ZM4.31085 18.8651L4.23215 18.4729L4.31085 18.8651ZM4.10227 18.9069L4.02358 18.5147V18.5147L4.10227 18.9069ZM3.8619 18.9877L3.70076 18.6216L3.8619 18.9877ZM3.58972 19.1075L3.42859 18.7414L3.58972 19.1075ZM3.33154 19.2934L3.04426 19.0151L3.33154 19.2934ZM3.08735 19.5454L3.37462 19.8238L3.08735 19.5454ZM2.81816 19.703L2.90204 20.0941L2.81816 19.703ZM2.52395 19.7661L2.44007 19.375L2.52395 19.7661ZM2.21036 19.7533L2.10748 20.1399L2.21036 19.7533ZM2.04387 19.709L1.94099 20.0956L2.04387 19.709ZM1.87738 19.6647L1.98027 19.2782L1.87738 19.6647ZM1.59205 19.7152L1.84145 20.0279L1.59205 19.7152ZM1.47321 19.8099L1.2238 19.4972L1.47321 19.8099ZM1.35436 19.9047L1.60377 20.2175L1.35436 19.9047ZM1.18153 20.1388L0.808563 19.9943L1.18153 20.1388ZM1.12754 20.2781L1.50051 20.4226L1.12754 20.2781ZM1.07356 20.4174L0.700592 20.2728L1.07356 20.4174ZM0.915005 20.6685L0.622818 20.3954L0.915005 20.6685ZM0.810436 20.7804L0.51825 20.5072L0.810436 20.7804ZM0.705868 20.8922L0.998055 21.1654L0.705868 20.8922ZM0.569065 21.1496L0.178535 21.063L0.569065 21.1496ZM0.536831 21.2951L0.927361 21.3816L0.536831 21.2951ZM0.504597 21.4405L0.89513 21.5271L0.504597 21.4405ZM0.452793 21.7425L0.849701 21.7922L0.452793 21.7425ZM0.433224 21.899L0.0363159 21.8494L0.433224 21.899ZM0.413651 22.0555L0.810558 22.1052L0.413651 22.0555ZM0.402458 22.3553L0.00313568 22.3786L0.402458 22.3553ZM0.410831 22.4985L0.81015 22.4751L0.410831 22.4985ZM0.419209 22.6417L0.818527 22.6184L0.419209 22.6417ZM0.503029 22.9437L0.864304 22.772L0.503029 22.9437ZM0.578472 23.1024L0.217201 23.2741L0.578472 23.1024ZM0.653919 23.2612L0.292641 23.4329L0.653919 23.2612ZM0.705936 23.5016L1.09047 23.6118L0.705936 23.5016ZM0.659088 23.6651L0.274567 23.555L0.659088 23.6651ZM0.595779 23.7439L0.56583 24.1428L0.595779 23.7439ZM0.555897 23.7409L0.525948 24.1398L0.331665 24.1252L0.223373 23.9632L0.555897 23.7409ZM0.485313 23.6353L0.0870056 23.5986L0.190697 22.475L0.817837 23.413L0.485313 23.6353ZM0.874432 23.7717C0.85413 23.9916 0.659344 24.1535 0.439365 24.1332C0.219383 24.1129 0.057518 23.9181 0.0778198 23.6982L0.476124 23.7349L0.874432 23.7717ZM63.9558 21.2437L63.5593 21.2959L63.5462 21.1967L63.9428 21.1445L64.3394 21.0923L64.3524 21.1915L63.9558 21.2437ZM63.9428 21.1445L63.839 21.5308L63.6093 21.4691L63.7131 21.0828L63.8169 20.6965L64.0466 20.7582L63.9428 21.1445ZM63.7131 21.0828L63.6093 21.4691C63.415 21.4169 63.2213 21.3276 63.0785 21.1696L63.3752 20.9014L63.6719 20.6331C63.6735 20.6349 63.705 20.6665 63.8169 20.6965L63.7131 21.0828ZM63.3752 20.9014L63.0785 21.1696L62.9703 21.0499L63.267 20.7817L63.5637 20.5134L63.6719 20.6331L63.3752 20.9014ZM63.267 20.7817L62.9703 21.0499L62.862 20.9302L63.1587 20.6619L63.4555 20.3937L63.5637 20.5134L63.267 20.7817ZM63.1587 20.6619L62.862 20.9302C62.7853 20.8453 62.724 20.7389 62.6987 20.6119C62.6735 20.485 62.6893 20.3635 62.727 20.2563L63.1044 20.3888L63.4818 20.5214C63.4835 20.5164 63.4905 20.4915 63.4833 20.4557C63.4762 20.4197 63.46 20.3987 63.4555 20.3937L63.1587 20.6619ZM63.1044 20.3888L62.727 20.2563L62.7809 20.1029L63.1583 20.2354L63.5356 20.368L63.4818 20.5214L63.1044 20.3888ZM63.1583 20.2354L62.7809 20.1029L62.8347 19.9495L63.2121 20.082L63.5895 20.2146L63.5356 20.368L63.1583 20.2354ZM63.2121 20.082L62.8347 19.9495C62.871 19.8463 62.9058 19.7483 62.9393 19.6554L63.3156 19.791L63.6919 19.9266C63.6593 20.0173 63.6251 20.1132 63.5895 20.2146L63.2121 20.082ZM63.3156 19.791L62.9393 19.6554L62.9889 19.5177L63.3652 19.6534L63.7415 19.789L63.6919 19.9266L63.3156 19.791ZM63.3652 19.6534L62.9889 19.5177L63.0385 19.3801L63.4148 19.5157L63.7911 19.6513L63.7415 19.789L63.3652 19.6534ZM63.4148 19.5157L63.0385 19.3801C63.058 19.3259 63.0704 19.2669 63.0743 19.2014L63.4736 19.2253L63.8729 19.2493C63.8646 19.3875 63.8377 19.522 63.7911 19.6513L63.4148 19.5157ZM63.4736 19.2253L63.0743 19.2014L63.0835 19.0486L63.4827 19.0726L63.882 19.0965L63.8729 19.2493L63.4736 19.2253ZM63.4827 19.0726L63.0835 19.0486L63.0926 18.8959L63.4919 18.9198L63.8912 18.9438L63.882 19.0965L63.4827 19.0726ZM63.4919 18.9198L63.0926 18.8959C63.1025 18.7305 63.1506 18.5737 63.2367 18.4314L63.5789 18.6387L63.921 18.8459C63.9034 18.8749 63.8935 18.9055 63.8912 18.9438L63.4919 18.9198ZM63.5789 18.6387L63.2367 18.4314L63.3145 18.303L63.6566 18.5103L63.9987 18.7176L63.921 18.8459L63.5789 18.6387ZM63.6566 18.5103L63.3145 18.303L63.3923 18.1746L63.7344 18.3819L64.0765 18.5892L63.9987 18.7176L63.6566 18.5103ZM63.7344 18.3819L63.3923 18.1746C63.4619 18.0598 63.5456 17.9545 63.6421 17.8586L63.9241 18.1423L64.2061 18.426C64.1534 18.4784 64.1107 18.5328 64.0765 18.5892L63.7344 18.3819ZM63.9241 18.1423L63.6421 17.8586L63.7539 17.7474L64.0359 18.0311L64.3179 18.3148L64.2061 18.426L63.9241 18.1423ZM64.0359 18.0311L63.7539 17.7474L63.8658 17.6363L64.1478 17.9199L64.4298 18.2036L64.3179 18.3148L64.0359 18.0311ZM64.1478 17.9199L63.8658 17.6363C63.89 17.6122 63.9046 17.5868 63.9134 17.5538L64.3 17.6563L64.6867 17.7588C64.6416 17.929 64.5547 18.0795 64.4298 18.2036L64.1478 17.9199ZM64.3 17.6563L63.9134 17.5538L63.9538 17.4014L64.3404 17.5039L64.7271 17.6063L64.6867 17.7588L64.3 17.6563ZM64.3404 17.5039L63.9538 17.4014L63.9942 17.249L64.3808 17.3514L64.7675 17.4539L64.7271 17.6063L64.3404 17.5039ZM64.3808 17.3514L63.9942 17.249C63.9948 17.2467 63.9945 17.2469 63.9944 17.2492C63.9942 17.2517 63.9942 17.2553 63.9948 17.2595C63.9954 17.2638 63.9964 17.2673 63.9973 17.2697C63.9982 17.2721 63.9986 17.2724 63.9975 17.2707L64.3402 17.0644L64.6829 16.8581C64.793 17.0409 64.822 17.2481 64.7675 17.4539L64.3808 17.3514ZM64.3402 17.0644L63.9975 17.2707L63.9165 17.136L64.2592 16.9298L64.6019 16.7235L64.6829 16.8581L64.3402 17.0644ZM64.2592 16.9298L63.9165 17.136L63.8354 17.0014L64.1781 16.7951L64.5208 16.5888L64.6019 16.7235L64.2592 16.9298ZM64.1781 16.7951L63.8354 17.0014C63.7329 16.831 63.6973 16.6418 63.7134 16.4515L64.112 16.4853L64.5105 16.5192C64.5069 16.5625 64.5154 16.5798 64.5208 16.5888L64.1781 16.7951ZM64.112 16.4853L63.7134 16.4515L63.7283 16.2763L64.1269 16.3101L64.5254 16.344L64.5105 16.5192L64.112 16.4853ZM64.1269 16.3101L63.7283 16.2763L63.7432 16.1011L64.1417 16.1349L64.5403 16.1688L64.5254 16.344L64.1269 16.3101ZM64.1417 16.1349L63.7432 16.1011C63.7442 16.0889 63.7417 16.0942 63.7471 16.1094C63.7497 16.1168 63.7534 16.1245 63.7582 16.1317C63.7629 16.1388 63.7674 16.1437 63.7705 16.1466L64.0433 15.854L64.3161 15.5615C64.4943 15.7277 64.559 15.9483 64.5403 16.1688L64.1417 16.1349ZM64.0433 15.854L63.7705 16.1466L63.6571 16.0408L63.9299 15.7483L64.2027 15.4558L64.3161 15.5615L64.0433 15.854ZM63.9299 15.7483L63.6571 16.0408L63.5437 15.9351L63.8165 15.6426L64.0893 15.3501L64.2027 15.4558L63.9299 15.7483ZM63.8165 15.6426L63.5437 15.9351C63.4383 15.8368 63.3491 15.7237 63.2757 15.5981L63.6211 15.3964L63.9665 15.1946C64.0026 15.2563 64.0437 15.3074 64.0893 15.3501L63.8165 15.6426ZM63.6211 15.3964L63.2757 15.5981L63.1937 15.4576L63.5391 15.2559L63.8845 15.0541L63.9665 15.1946L63.6211 15.3964ZM63.5391 15.2559L63.1937 15.4576L63.1116 15.3171L63.457 15.1154L63.8024 14.9136L63.8845 15.0541L63.5391 15.2559ZM63.457 15.1154L63.1116 15.3171C63.1111 15.3162 63.1119 15.3178 63.1146 15.3208C63.1173 15.3238 63.121 15.3271 63.1254 15.3302C63.1298 15.3332 63.1335 15.335 63.1356 15.3359C63.1377 15.3367 63.1373 15.3363 63.1335 15.3356L63.2094 14.9429L63.2854 14.5501C63.5042 14.5924 63.6872 14.7164 63.8024 14.9136L63.457 15.1154ZM63.2094 14.9429L63.1335 15.3356L62.968 15.3036L63.0439 14.9108L63.1199 14.5181L63.2854 14.5501L63.2094 14.9429ZM63.0439 14.9108L62.968 15.3036L62.8024 15.2716L62.8784 14.8788L62.9543 14.4861L63.1199 14.5181L63.0439 14.9108ZM62.8784 14.8788L62.8024 15.2716C62.6323 15.2387 62.4733 15.1683 62.3383 15.053L62.598 14.7487L62.8577 14.4445C62.8758 14.46 62.9038 14.4763 62.9543 14.4861L62.8784 14.8788ZM62.598 14.7487L62.3383 15.053L62.2233 14.9549L62.483 14.6506L62.7427 14.3464L62.8577 14.4445L62.598 14.7487ZM62.483 14.6506L62.2233 14.9549L62.1084 14.8568L62.3681 14.5525L62.6278 14.2483L62.7427 14.3464L62.483 14.6506ZM62.3681 14.5525L62.1084 14.8568C62.0247 14.7853 61.944 14.7114 61.8661 14.6348L62.1466 14.3496L62.4271 14.0644C62.4914 14.1277 62.5583 14.189 62.6278 14.2483L62.3681 14.5525ZM62.1466 14.3496L61.8661 14.6348L61.7595 14.5299L62.04 14.2447L62.3205 13.9596L62.4271 14.0644L62.1466 14.3496ZM62.04 14.2447L61.7595 14.5299L61.6529 14.4251L61.9334 14.1399L62.2138 13.8547L62.3205 13.9596L62.04 14.2447ZM61.9334 14.1399L61.6529 14.4251C61.557 14.3308 61.4748 14.2256 61.4072 14.1099L61.7524 13.908L62.0977 13.706C62.1291 13.7598 62.1675 13.8092 62.2138 13.8547L61.9334 14.1399ZM61.7524 13.908L61.4072 14.1099L61.3328 13.9829L61.6781 13.7809L62.0234 13.579L62.0977 13.706L61.7524 13.908ZM61.6781 13.7809L61.3328 13.9829L61.2585 13.8558L61.6038 13.6539L61.9491 13.4519L62.0234 13.579L61.6781 13.7809ZM61.6038 13.6539L61.2585 13.8558C61.2585 13.8558 61.2585 13.8557 61.2584 13.8557C61.2583 13.8556 61.2582 13.8553 61.2578 13.855C61.2573 13.8543 61.2557 13.8526 61.2526 13.85C61.2464 13.8449 61.2327 13.8354 61.2071 13.8245L61.3633 13.4563L61.5195 13.0881C61.6912 13.1609 61.847 13.2774 61.9491 13.4519L61.6038 13.6539ZM61.3633 13.4563L61.2071 13.8245L61.0409 13.754L61.1971 13.3858L61.3533 13.0176L61.5195 13.0881L61.3633 13.4563ZM61.1971 13.3858L61.0409 13.754L60.8747 13.6835L61.0309 13.3153L61.1871 12.9471L61.3533 13.0176L61.1971 13.3858ZM61.0309 13.3153L60.8747 13.6835C60.7544 13.6325 60.63 13.5413 60.5567 13.3903C60.4851 13.2425 60.489 13.0919 60.5158 12.9713L60.9062 13.0582L61.2967 13.1451C61.2958 13.1489 61.3067 13.1033 61.2766 13.0412C61.2449 12.9759 61.1966 12.9511 61.1871 12.9471L61.0309 13.3153ZM60.9062 13.0582L60.5158 12.9713L60.5573 12.7847L60.9477 12.8716L61.3382 12.9585L61.2967 13.1451L60.9062 13.0582ZM60.9477 12.8716L60.5573 12.7847L60.5988 12.5981L60.9893 12.685L61.3797 12.7719L61.3382 12.9585L60.9477 12.8716ZM60.9893 12.685L60.5988 12.5981C60.5988 12.5983 60.598 12.6019 60.5974 12.6087C60.5969 12.6155 60.5965 12.6263 60.5979 12.6402C60.6008 12.6694 60.611 12.7097 60.6372 12.751C60.6936 12.8395 60.7703 12.8553 60.7715 12.8555L60.8478 12.4628L60.9241 12.0702C61.0473 12.0941 61.2085 12.1587 61.3121 12.3213C61.4141 12.4816 61.4062 12.6529 61.3797 12.7719L60.9893 12.685ZM60.8478 12.4628L60.7715 12.8555L60.5885 12.8199L60.6648 12.4273L60.7412 12.0346L60.9241 12.0702L60.8478 12.4628ZM60.6648 12.4273L60.5885 12.8199L60.4055 12.7843L60.4819 12.3917L60.5582 11.999L60.7412 12.0346L60.6648 12.4273ZM60.4819 12.3917L60.4055 12.7843C60.278 12.7595 60.1598 12.7337 60.0512 12.7066L60.1479 12.3185L60.2447 11.9304C60.3374 11.9535 60.4418 11.9764 60.5582 11.999L60.4819 12.3917ZM60.1479 12.3185L60.0512 12.7066L59.9002 12.669L59.997 12.2809L60.0937 11.8927L60.2447 11.9304L60.1479 12.3185ZM59.997 12.2809L59.9002 12.669L59.7493 12.6314L59.846 12.2432L59.9427 11.8551L60.0937 11.8927L59.997 12.2809ZM59.846 12.2432L59.7493 12.6314C59.7505 12.6317 59.7536 12.6323 59.7583 12.6325C59.7631 12.6326 59.7678 12.6322 59.7721 12.6314C59.7812 12.6296 59.781 12.6274 59.7706 12.6342L59.5515 12.2996L59.3324 11.965C59.5106 11.8482 59.7222 11.8001 59.9427 11.8551L59.846 12.2432ZM59.5515 12.2996L59.7706 12.6342L59.6271 12.7282L59.408 12.3936L59.1888 12.059L59.3324 11.965L59.5515 12.2996ZM59.408 12.3936L59.6271 12.7282L59.4836 12.8222L59.2644 12.4876L59.0453 12.153L59.1888 12.059L59.408 12.3936ZM59.2644 12.4876L59.4836 12.8222C59.3805 12.8897 59.2588 12.9334 59.1239 12.936C58.9909 12.9387 58.8705 12.9011 58.768 12.8459L58.9575 12.4937L59.1471 12.1414C59.1535 12.1449 59.1387 12.1356 59.108 12.1362C59.0754 12.1368 59.0527 12.1481 59.0453 12.153L59.2644 12.4876ZM58.9575 12.4937L58.768 12.8459L58.6046 12.758L58.7942 12.4058L58.9837 12.0535L59.1471 12.1414L58.9575 12.4937ZM58.7942 12.4058L58.6046 12.758L58.4412 12.6701L58.6308 12.3179L58.8203 11.9656L58.9837 12.0535L58.7942 12.4058ZM58.6308 12.3179L58.4412 12.6701C58.4247 12.6612 58.4235 12.664 58.4353 12.6651C58.4411 12.6656 58.4485 12.6656 58.4565 12.6643C58.4645 12.6631 58.471 12.6611 58.4756 12.6592L58.3232 12.2894L58.1708 11.9195C58.3992 11.8254 58.628 11.8621 58.8203 11.9656L58.6308 12.3179ZM58.3232 12.2894L58.4756 12.6592L58.3314 12.7186L58.179 12.3488L58.0266 11.9789L58.1708 11.9195L58.3232 12.2894ZM58.179 12.3488L58.3314 12.7186L58.1872 12.778L58.0348 12.4082L57.8824 12.0384L58.0266 11.9789L58.179 12.3488ZM58.0348 12.4082L58.1872 12.778C58.0869 12.8194 57.9869 12.8586 57.8872 12.8956L57.7478 12.5207L57.6084 12.1458C57.6992 12.112 57.7905 12.0762 57.8824 12.0384L58.0348 12.4082ZM57.7478 12.5207L57.8872 12.8956L57.7443 12.9488L57.605 12.5738L57.4656 12.1989L57.6084 12.1458L57.7478 12.5207ZM57.605 12.5738L57.7443 12.9488L57.6015 13.0019L57.4621 12.6269L57.3227 12.252L57.4656 12.1989L57.605 12.5738ZM57.4621 12.6269L57.6015 13.0019C57.5005 13.0394 57.3988 13.0746 57.2963 13.1073L57.1745 12.7263L57.0526 12.3453C57.1433 12.3164 57.2333 12.2853 57.3227 12.252L57.4621 12.6269ZM57.1745 12.7263L57.2963 13.1073L57.1515 13.1536L57.0297 12.7726L56.9079 12.3916L57.0526 12.3453L57.1745 12.7263ZM57.0297 12.7726L57.1515 13.1536L57.0068 13.1999L56.8849 12.8189L56.7631 12.4379L56.9079 12.3916L57.0297 12.7726ZM56.8849 12.8189L57.0068 13.1999C56.9181 13.2283 56.8239 13.2615 56.724 13.2997L56.5811 12.926L56.4383 12.5524C56.5504 12.5095 56.6587 12.4713 56.7631 12.4379L56.8849 12.8189ZM56.5811 12.926L56.724 13.2997L56.565 13.3605L56.4221 12.9868L56.2793 12.6132L56.4383 12.5524L56.5811 12.926ZM56.4221 12.9868L56.565 13.3605L56.406 13.4212L56.2631 13.0476L56.1203 12.674L56.2793 12.6132L56.4221 12.9868ZM56.2631 13.0476L56.406 13.4212C56.2987 13.4623 56.1303 13.4965 55.9575 13.413C55.7839 13.3291 55.7062 13.175 55.6722 13.0641L56.0547 12.9469L56.4371 12.8298C56.4361 12.8265 56.4097 12.743 56.3055 12.6927C56.2022 12.6428 56.1215 12.6735 56.1203 12.674L56.2631 13.0476ZM56.0547 12.9469L55.6722 13.0641L55.6227 12.9026L56.0052 12.7854L56.3876 12.6682L56.4371 12.8298L56.0547 12.9469ZM56.0052 12.7854L55.6227 12.9026L55.5733 12.7411L55.9557 12.6239L56.3382 12.5067L56.3876 12.6682L56.0052 12.7854ZM55.9557 12.6239L55.5733 12.7411C55.5425 12.6408 55.5112 12.549 55.4793 12.4654L55.8532 12.323L56.227 12.1807C56.2659 12.2829 56.3029 12.3917 56.3382 12.5067L55.9557 12.6239ZM55.8532 12.323L55.4793 12.4654L55.4263 12.326L55.8001 12.1837L56.1739 12.0413L56.227 12.1807L55.8532 12.323ZM55.8001 12.1837L55.4263 12.326L55.3732 12.1866L55.747 12.0443L56.1208 11.9019L56.1739 12.0413L55.8001 12.1837ZM55.747 12.0443L55.3732 12.1866C55.3576 12.1457 55.3314 12.1013 55.2877 12.0537L55.5827 11.7835L55.8776 11.5132C55.9823 11.6276 56.0657 11.7571 56.1208 11.9019L55.747 12.0443ZM55.5827 11.7835L55.2877 12.0537L55.1765 11.9323L55.4714 11.6621L55.7663 11.3918L55.8776 11.5132L55.5827 11.7835ZM55.4714 11.6621L55.1765 11.9323L55.0652 11.8109L55.3601 11.5406L55.655 11.2704L55.7663 11.3918L55.4714 11.6621ZM55.3601 11.5406L55.0652 11.8109C54.896 11.6262 54.8445 11.392 54.8984 11.1592L55.2881 11.2494L55.6778 11.3396C55.6766 11.3448 55.6801 11.3328 55.6748 11.3111C55.6692 11.2884 55.6586 11.2743 55.655 11.2704L55.3601 11.5406ZM55.2881 11.2494L54.8984 11.1592L54.9377 10.9894L55.3274 11.0796L55.7171 11.1698L55.6778 11.3396L55.2881 11.2494ZM55.3274 11.0796L54.9377 10.9894L54.977 10.8197L55.3667 10.9099L55.7564 11L55.7171 11.1698L55.3274 11.0796ZM55.3667 10.9099L54.977 10.8197C54.9811 10.8018 54.98 10.7948 54.9801 10.7958C54.9802 10.7962 54.9804 10.7974 54.9809 10.799C54.9814 10.8006 54.9819 10.8015 54.9819 10.8015L55.3309 10.606L55.6798 10.4105C55.7851 10.5985 55.8018 10.8038 55.7564 11L55.3667 10.9099ZM55.3309 10.606L54.9819 10.8015L54.9068 10.6675L55.2558 10.472L55.6047 10.2765L55.6798 10.4105L55.3309 10.606ZM55.2558 10.472L54.9068 10.6675L54.8317 10.5334L55.1807 10.3379L55.5296 10.1424L55.6047 10.2765L55.2558 10.472ZM55.1807 10.3379L54.8317 10.5334C54.802 10.4804 54.7689 10.4402 54.7336 10.409L54.9983 10.1092L55.263 9.80931C55.3707 9.90437 55.4592 10.0167 55.5296 10.1424L55.1807 10.3379ZM54.9983 10.1092L54.7336 10.409L54.6263 10.3143L54.891 10.0145L55.1558 9.71462L55.263 9.80931L54.9983 10.1092ZM54.891 10.0145L54.6263 10.3143L54.519 10.2196L54.7838 9.91979L55.0485 9.61992L55.1558 9.71462L54.891 10.0145ZM54.7838 9.91979L54.519 10.2196C54.4403 10.1501 54.3619 10.0758 54.2838 9.99688L54.5681 9.71555L54.8525 9.43421C54.9189 9.50133 54.9842 9.56318 55.0485 9.61992L54.7838 9.91979ZM54.5681 9.71555L54.2838 9.99688L54.1754 9.88733L54.4597 9.606L54.7441 9.32467L54.8525 9.43421L54.5681 9.71555ZM54.4597 9.606L54.1754 9.88733L54.067 9.77778L54.3514 9.49645L54.6357 9.21512L54.7441 9.32467L54.4597 9.606ZM54.3514 9.49645L54.067 9.77778C54.0338 9.74423 53.9981 9.72111 53.9573 9.70536L54.1015 9.33224L54.2457 8.95912C54.3935 9.01626 54.5244 9.1026 54.6357 9.21512L54.3514 9.49645ZM54.1015 9.33224L53.9573 9.70536L53.8159 9.6507L53.96 9.27758L54.1042 8.90447L54.2457 8.95912L54.1015 9.33224ZM53.96 9.27758L53.8159 9.6507L53.6744 9.59604L53.8186 9.22293L53.9627 8.84981L54.1042 8.90447L53.96 9.27758ZM53.8186 9.22293L53.6744 9.59604C53.6605 9.59067 53.6378 9.58537 53.5942 9.59458L53.5116 9.20321L53.429 8.81184C53.606 8.77446 53.788 8.7823 53.9627 8.84981L53.8186 9.22293ZM53.5116 9.20321L53.5942 9.59458L53.4287 9.62953L53.3461 9.23815L53.2634 8.84678L53.429 8.81184L53.5116 9.20321ZM53.3461 9.23815L53.4287 9.62953L53.2632 9.66447L53.1806 9.27309L53.0979 8.88172L53.2634 8.84678L53.3461 9.23815ZM53.1806 9.27309L53.2632 9.66447C53.1434 9.68976 53.0152 9.68618 52.8895 9.64041C52.7657 9.59531 52.6677 9.5178 52.5923 9.43054L52.8951 9.1691L53.1978 8.90767C53.2024 8.91303 53.192 8.89916 53.1633 8.88872C53.1328 8.87762 53.1074 8.87973 53.0979 8.88172L53.1806 9.27309ZM52.8951 9.1691L52.5923 9.43054L52.4723 9.29161L52.7751 9.03017L53.0778 8.76873L53.1978 8.90767L52.8951 9.1691ZM52.7751 9.03017L52.4723 9.29161L52.3524 9.15268L52.6551 8.89124L52.9578 8.6298L53.0778 8.76873L52.7751 9.03017ZM52.6551 8.89124L52.3524 9.15268C52.3522 9.15246 52.3575 9.15869 52.3695 9.16676C52.3821 9.17518 52.3999 9.18413 52.422 9.18994C52.4704 9.20261 52.505 9.19204 52.511 9.18975L52.3682 8.8161L52.2254 8.44246C52.3427 8.39763 52.4807 8.37833 52.6247 8.41604C52.7677 8.45348 52.8776 8.53693 52.9578 8.6298L52.6551 8.89124ZM52.3682 8.8161L52.511 9.18975L52.344 9.25355L52.2012 8.8799L52.0584 8.50625L52.2254 8.44246L52.3682 8.8161ZM52.2012 8.8799L52.344 9.25355L52.1771 9.31734L52.0343 8.9437L51.8915 8.57005L52.0584 8.50625L52.2012 8.8799ZM52.0343 8.9437L52.1771 9.31734C51.9979 9.38581 51.8012 9.40576 51.6045 9.34486L51.7228 8.96276L51.8411 8.58065C51.8417 8.58082 51.8433 8.58143 51.8485 8.58111C51.8545 8.58074 51.8684 8.57889 51.8915 8.57005L52.0343 8.9437ZM51.7228 8.96276L51.6045 9.34486L51.46 9.30013L51.5783 8.91802L51.6966 8.53591L51.8411 8.58065L51.7228 8.96276ZM51.5783 8.91802L51.46 9.30013L51.3155 9.25539L51.4338 8.87328L51.5521 8.49117L51.6966 8.53591L51.5783 8.91802ZM51.4338 8.87328L51.3155 9.25539C51.1509 9.20445 51.008 9.11301 50.8863 8.99553L51.1641 8.7077L51.4418 8.41987C51.4871 8.46352 51.524 8.48247 51.5521 8.49117L51.4338 8.87328ZM51.1641 8.7077L50.8863 8.99553L50.7611 8.87469L51.0388 8.58686L51.3166 8.29903L51.4418 8.41987L51.1641 8.7077ZM51.0388 8.58686L50.7611 8.87469L50.6359 8.75385L50.9136 8.46602L51.1914 8.17819L51.3166 8.29903L51.0388 8.58686ZM50.9136 8.46602L50.6359 8.75385C50.5784 8.69839 50.5431 8.68126 50.5317 8.67709L50.6695 8.30156L50.8072 7.92602C50.9544 7.98002 51.0819 8.07253 51.1914 8.17819L50.9136 8.46602ZM50.6695 8.30156L50.5317 8.67709L50.4128 8.63347L50.5505 8.25793L50.6883 7.88239L50.8072 7.92602L50.6695 8.30156ZM50.5505 8.25793L50.4128 8.63347L50.2939 8.58984L50.4316 8.21431L50.5693 7.83877L50.6883 7.88239L50.5505 8.25793ZM50.4316 8.21431L50.2939 8.58984C50.2155 8.5611 50.1248 8.52818 50.0217 8.49106L50.1573 8.11472L50.2928 7.73838C50.3969 7.77588 50.4891 7.80935 50.5693 7.83877L50.4316 8.21431ZM50.1573 8.11472L50.0217 8.49106L49.8663 8.43509L50.0019 8.05875L50.1374 7.68241L50.2928 7.73838L50.1573 8.11472ZM50.0019 8.05875L49.8663 8.43509L49.7109 8.37912L49.8464 8.00279L49.982 7.62645L50.1374 7.68241L50.0019 8.05875ZM49.8464 8.00279L49.7109 8.37912C49.4957 8.30163 49.3304 8.14023 49.2638 7.90827L49.6482 7.79781L50.0327 7.68734C50.0305 7.67969 50.0231 7.66246 50.0067 7.64549C49.991 7.62925 49.9786 7.62522 49.982 7.62645L49.8464 8.00279ZM49.6482 7.79781L49.2638 7.90827L49.221 7.75926L49.6054 7.64879L49.9899 7.53833L50.0327 7.68734L49.6482 7.79781ZM49.6054 7.64879L49.221 7.75926L49.1781 7.61025L49.5626 7.49978L49.947 7.38932L49.9899 7.53833L49.6054 7.64879ZM49.5626 7.49978L49.1781 7.61025C49.1666 7.57016 49.1497 7.54249 49.1282 7.52001L49.4173 7.24362L49.7065 6.96723C49.8216 7.08762 49.9015 7.23072 49.947 7.38932L49.5626 7.49978ZM49.4173 7.24362L49.1282 7.52001L49.0258 7.41286L49.3149 7.13646L49.6041 6.86007L49.7065 6.96723L49.4173 7.24362ZM49.3149 7.13646L49.0258 7.41286L48.9233 7.3057L49.2125 7.02931L49.5016 6.75292L49.6041 6.86007L49.3149 7.13646ZM49.2125 7.02931L48.9233 7.3057C48.9224 7.30469 48.9228 7.30526 48.9247 7.30664C48.9266 7.30805 48.9294 7.30971 48.9327 7.3112C48.936 7.3127 48.9388 7.31355 48.9406 7.31398C48.9423 7.31439 48.9423 7.3142 48.9399 7.31408L48.9601 6.91459L48.9803 6.5151C49.1809 6.52522 49.3617 6.60652 49.5016 6.75292L49.2125 7.02931ZM48.9601 6.91459L48.9399 7.31408L48.7899 7.30651L48.8101 6.90702L48.8303 6.50752L48.9803 6.5151L48.9601 6.91459ZM48.8101 6.90702L48.7899 7.30651L48.64 7.29893L48.6601 6.89944L48.6803 6.49995L48.8303 6.50752L48.8101 6.90702ZM48.6601 6.89944L48.64 7.29893C48.4617 7.28993 48.2968 7.23094 48.1526 7.12862L48.3842 6.80243L48.6157 6.47625C48.6395 6.49318 48.6586 6.49886 48.6803 6.49995L48.6601 6.89944ZM48.3842 6.80243L48.1526 7.12862L48.0266 7.03918L48.2581 6.713L48.4897 6.38681L48.6157 6.47625L48.3842 6.80243ZM48.2581 6.713L48.0266 7.03918L47.9006 6.94975L48.1321 6.62356L48.3637 6.29738L48.4897 6.38681L48.2581 6.713ZM48.1321 6.62356L47.9006 6.94975C47.741 6.83645 47.6309 6.67864 47.5796 6.48971L47.9657 6.38501L48.3518 6.28031C48.3529 6.28465 48.354 6.28721 48.3546 6.28845C48.3551 6.28966 48.3555 6.29016 48.3556 6.29032C48.3557 6.29048 48.356 6.29098 48.357 6.29192C48.358 6.29289 48.36 6.29477 48.3637 6.29738L48.1321 6.62356ZM47.9657 6.38501L47.5796 6.48971L47.5392 6.34059L47.9253 6.2359L48.3113 6.1312L48.3518 6.28031L47.9657 6.38501ZM47.9253 6.2359L47.5392 6.34059L47.4988 6.19148L47.8848 6.08678L48.2709 5.98209L48.3113 6.1312L47.9253 6.2359ZM47.8848 6.08678L47.4988 6.19148C47.4451 5.99375 47.4688 5.79751 47.5495 5.61875L47.9141 5.78333L48.2786 5.94791C48.2715 5.96381 48.2703 5.97233 48.2701 5.97472C48.2699 5.97661 48.2698 5.9783 48.2709 5.98209L47.8848 6.08678ZM47.9141 5.78333L47.5495 5.61875L47.6192 5.46441L47.9837 5.62899L48.3483 5.79357L48.2786 5.94791L47.9141 5.78333ZM47.9837 5.62899L47.6192 5.46441L47.6888 5.31007L48.0534 5.47465L48.418 5.63924L48.3483 5.79357L47.9837 5.62899ZM48.0534 5.47465L47.6888 5.31007C47.7074 5.26897 47.7067 5.24631 47.7046 5.2331L48.0998 5.17141L48.4951 5.10972C48.524 5.29505 48.4923 5.47455 48.418 5.63924L48.0534 5.47465ZM48.0998 5.17141L47.7046 5.2331L47.6814 5.0842L48.0766 5.02251L48.4718 4.96082L48.4951 5.10972L48.0998 5.17141ZM48.0766 5.02251L47.6814 5.0842L47.6581 4.9353L48.0534 4.87361L48.4486 4.81192L48.4718 4.96082L48.0766 5.02251ZM48.0534 4.87361L47.6581 4.9353C47.6298 4.75352 47.658 4.57541 47.7373 4.41143L48.0974 4.58557L48.4575 4.75971C48.4471 4.78125 48.446 4.79517 48.4486 4.81192L48.0534 4.87361ZM48.0974 4.58557L47.7373 4.41143L47.8046 4.27229L48.1647 4.44643L48.5248 4.62057L48.4575 4.75971L48.0974 4.58557ZM48.1647 4.44643L47.8046 4.27229L47.8719 4.13315L48.232 4.30729L48.5921 4.48143L48.5248 4.62057L48.1647 4.44643ZM48.232 4.30729L47.8719 4.13315C47.8744 4.12786 47.8746 4.12576 47.8746 4.1251C47.8747 4.12415 47.8752 4.11828 47.8721 4.10539L48.2606 4.01025L48.6491 3.9151C48.6958 4.10564 48.6796 4.30036 48.5921 4.48143L48.232 4.30729ZM48.2606 4.01025L47.8721 4.10539L47.8334 3.94749L48.2219 3.85234L48.6104 3.7572L48.6491 3.9151L48.2606 4.01025ZM48.2219 3.85234L47.8334 3.94749L47.7947 3.78959L48.1833 3.69444L48.5718 3.5993L48.6104 3.7572L48.2219 3.85234ZM48.1833 3.69444L47.7947 3.78959C47.7772 3.71783 47.7554 3.67014 47.7356 3.63916L48.0729 3.42412L48.4102 3.20908C48.486 3.328 48.5378 3.46053 48.5718 3.5993L48.1833 3.69444ZM48.0729 3.42412L47.7356 3.63916L47.664 3.52674L48.0012 3.3117L48.3385 3.09666L48.4102 3.20908L48.0729 3.42412ZM48.0012 3.3117L47.664 3.52674L47.5923 3.41432L47.9296 3.19928L48.2668 2.98424L48.3385 3.09666L48.0012 3.3117ZM47.9296 3.19928L47.5923 3.41432C47.5923 3.41431 47.5924 3.41442 47.5925 3.41461C47.5926 3.41481 47.5928 3.41502 47.593 3.41521C47.5934 3.41567 47.5935 3.41568 47.5929 3.41524C47.592 3.4145 47.5863 3.4102 47.5723 3.40471L47.7179 3.03214L47.8634 2.65957C48.0252 2.7228 48.1678 2.82881 48.2668 2.98424L47.9296 3.19928ZM47.7179 3.03214L47.5723 3.40471L47.4322 3.35L47.5778 2.97743L47.7234 2.60486L47.8634 2.65957L47.7179 3.03214ZM47.5778 2.97743L47.4322 3.35L47.2922 3.29528L47.4378 2.92271L47.5834 2.55014L47.7234 2.60486L47.5778 2.97743ZM47.4378 2.92271L47.2922 3.29528C47.184 3.253 47.0782 3.20421 46.9747 3.14902L47.163 2.79611L47.3513 2.4432C47.4275 2.48385 47.5048 2.51946 47.5834 2.55014L47.4378 2.92271ZM47.163 2.79611L46.9747 3.14902L46.84 3.07714L47.0283 2.72423L47.2166 2.37132L47.3513 2.4432L47.163 2.79611ZM47.0283 2.72423L46.84 3.07714L46.7053 3.00526L46.8936 2.65235L47.0819 2.29945L47.2166 2.37132L47.0283 2.72423ZM46.8936 2.65235L46.7053 3.00526C46.6431 2.97209 46.5802 2.94776 46.516 2.93144L46.6147 2.54379L46.7133 2.15613C46.8414 2.18873 46.9644 2.23678 47.0819 2.29945L46.8936 2.65235ZM46.6147 2.54379L46.516 2.93144L46.3718 2.89475L46.4704 2.5071L46.5691 2.11945L46.7133 2.15613L46.6147 2.54379ZM46.4704 2.5071L46.3718 2.89475L46.2276 2.85807L46.3262 2.47041L46.4248 2.08276L46.5691 2.11945L46.4704 2.5071ZM46.3262 2.47041L46.2276 2.85807C46.1188 2.83039 46.0117 2.79747 45.9061 2.7593L46.0422 2.38315L46.1782 2.007C46.2592 2.03627 46.3414 2.06152 46.4248 2.08276L46.3262 2.47041ZM46.0422 2.38315L45.9061 2.7593L45.7663 2.70873L45.9024 2.33258L46.0384 1.95642L46.1782 2.007L46.0422 2.38315ZM45.9024 2.33258L45.7663 2.70873L45.6265 2.65816L45.7625 2.282L45.8986 1.90585L46.0384 1.95642L45.9024 2.33258ZM45.7625 2.282L45.6265 2.65816C45.518 2.6189 45.412 2.57309 45.3085 2.52079L45.489 2.16384L45.6695 1.80688C45.7443 1.8447 45.8207 1.87767 45.8986 1.90585L45.7625 2.282ZM45.489 2.16384L45.3085 2.52079L45.1749 2.4532L45.3554 2.09625L45.5359 1.73929L45.6695 1.80688L45.489 2.16384ZM45.3554 2.09625L45.1749 2.4532L45.0412 2.38561L45.2217 2.02865L45.4022 1.6717L45.5359 1.73929L45.3554 2.09625ZM45.2217 2.02865L45.0412 2.38561C44.9242 2.32644 44.8152 2.25424 44.7147 2.16951L44.9726 1.86373L45.2305 1.55795C45.2839 1.603 45.341 1.64075 45.4022 1.6717L45.2217 2.02865ZM44.9726 1.86373L44.7147 2.16951L44.5993 2.07217L44.8572 1.76639L45.1151 1.46061L45.2305 1.55795L44.9726 1.86373ZM44.8572 1.76639L44.5993 2.07217L44.4839 1.97484L44.7418 1.66906L44.9997 1.36328L45.1151 1.46061L44.8572 1.76639ZM44.7418 1.66906L44.4839 1.97484C44.4054 1.90859 44.3273 1.84173 44.2498 1.77425L44.5125 1.47257L44.7751 1.17088C44.8495 1.23561 44.9243 1.29974 44.9997 1.36328L44.7418 1.66906ZM44.5125 1.47257L44.2498 1.77425L44.1359 1.6751L44.3986 1.37342L44.6612 1.07173L44.7751 1.17088L44.5125 1.47257ZM44.3986 1.37342L44.1359 1.6751L44.022 1.57595L44.2847 1.27426L44.5473 0.972576L44.6612 1.07173L44.3986 1.37342ZM44.2847 1.27426L44.022 1.57595C43.9621 1.52378 43.8985 1.47675 43.8311 1.43474L44.0426 1.09525L44.2542 0.755765C44.3576 0.820228 44.4554 0.892538 44.5473 0.972576L44.2847 1.27426ZM44.0426 1.09525L43.8311 1.43474L43.703 1.35488L43.9145 1.01539L44.126 0.675907L44.2542 0.755765L44.0426 1.09525ZM43.9145 1.01539L43.703 1.35488L43.5748 1.27502L43.7863 0.935536L43.9979 0.596049L44.126 0.675907L43.9145 1.01539ZM43.7863 0.935536L43.5748 1.27502C43.501 1.22903 43.4241 1.1864 43.3442 1.14716L43.5203 0.788054L43.6965 0.428951C43.8003 0.479874 43.9008 0.535563 43.9979 0.596049L43.7863 0.935536ZM43.5203 0.788054L43.3442 1.14716L43.2063 1.07953L43.3825 0.720429L43.5587 0.361327L43.6965 0.428951L43.5203 0.788054ZM43.3825 0.720429L43.2063 1.07953L43.0685 1.01191L43.2447 0.652805L43.4209 0.293702L43.5587 0.361327L43.3825 0.720429ZM43.2447 0.652805L43.0685 1.01191C43.0472 1.00147 43.0231 0.99563 42.9862 0.999343L42.9462 0.601353L42.9061 0.203363C43.0835 0.185513 43.2584 0.213975 43.4209 0.293702L43.2447 0.652805ZM42.9462 0.601353L42.9862 0.999343L42.8255 1.01552L42.7854 0.617526L42.7454 0.219536L42.9061 0.203363L42.9462 0.601353ZM42.7854 0.617526L42.8255 1.01552L42.6648 1.03169L42.6247 0.633698L42.5847 0.235709L42.7454 0.219536L42.7854 0.617526ZM42.6247 0.633698L42.6648 1.03169C42.5281 1.04544 42.3931 1.04365 42.2614 1.02309L42.3231 0.627874L42.3848 0.232659C42.441 0.241431 42.507 0.243522 42.5847 0.235709L42.6247 0.633698ZM42.3231 0.627874L42.2614 1.02309L42.1205 1.00109L42.1821 0.605877L42.2438 0.210662L42.3848 0.232659L42.3231 0.627874ZM42.1821 0.605877L42.1205 1.00109L41.9795 0.979096L42.0412 0.583881L42.1029 0.188665L42.2438 0.210662L42.1821 0.605877ZM42.0412 0.583881L41.9795 0.979096C41.8676 0.961628 41.7529 0.935867 41.6358 0.902626L41.745 0.517818L41.8542 0.13301C41.9441 0.158524 42.0269 0.176804 42.1029 0.188665L42.0412 0.583881ZM41.745 0.517818L41.6358 0.902626L41.4805 0.85856L41.5897 0.473752L41.6989 0.0889441L41.8542 0.13301L41.745 0.517818ZM41.5897 0.473752L41.4805 0.85856L41.3252 0.814494L41.4344 0.429686L41.5436 0.0448782L41.6989 0.0889441L41.5897 0.473752ZM41.4344 0.429686L41.3252 0.814494C41.271 0.799107 41.2263 0.797097 41.1874 0.802611L41.1313 0.406566L41.0751 0.010521C41.2334 -0.0118929 41.3908 0.00151002 41.5436 0.0448782L41.4344 0.429686ZM41.1313 0.406566L41.1874 0.802611L41.0395 0.823558L40.9834 0.427512L40.9273 0.0314671L41.0751 0.010521L41.1313 0.406566ZM40.9834 0.427512L41.0395 0.823558L40.8917 0.844504L40.8356 0.448459L40.7794 0.0524133L40.9273 0.0314671L40.9834 0.427512ZM40.8356 0.448459L40.8917 0.844504C40.8223 0.854329 40.7525 0.871954 40.682 0.898095L40.543 0.523006L40.4041 0.147916C40.5264 0.102589 40.6517 0.0705158 40.7794 0.0524133L40.8356 0.448459ZM40.543 0.523006L40.682 0.898095L40.5373 0.951696L40.3983 0.576607L40.2594 0.201517L40.4041 0.147916L40.543 0.523006ZM40.3983 0.576607L40.5373 0.951696L40.3926 1.0053L40.2536 0.630208L40.1147 0.255118L40.2594 0.201517L40.3983 0.576607ZM40.2536 0.630208L40.3926 1.0053C40.2731 1.04956 40.1509 1.08237 40.0263 1.10338L39.9598 0.708943L39.8934 0.314508C39.9675 0.302001 40.0412 0.282327 40.1147 0.255118L40.2536 0.630208ZM39.9598 0.708943L40.0263 1.10338L39.8772 1.12851L39.8107 0.734076L39.7443 0.339641L39.8934 0.314508L39.9598 0.708943ZM39.8107 0.734076L39.8772 1.12851L39.7281 1.15365L39.6617 0.75921L39.5952 0.364775L39.7443 0.339641L39.8107 0.734076ZM39.6617 0.75921L39.7281 1.15365C39.6207 1.17176 39.5129 1.18654 39.4048 1.19797L39.3627 0.800184L39.3207 0.4024C39.4123 0.392708 39.5038 0.380169 39.5952 0.364775L39.6617 0.75921ZM39.3627 0.800184L39.4048 1.19797L39.2549 1.21381L39.2129 0.816023L39.1708 0.418239L39.3207 0.4024L39.3627 0.800184ZM39.2129 0.816023L39.2549 1.21381L39.1051 1.22965L39.0631 0.831862L39.021 0.434079L39.1708 0.418239L39.2129 0.816023ZM39.0631 0.831862L39.1051 1.22965C39.0053 1.2402 38.9055 1.25076 38.8059 1.26133L38.7637 0.863563L38.7215 0.465795C38.8212 0.455215 38.9211 0.444643 39.021 0.434079L39.0631 0.831862ZM38.7637 0.863563L38.8059 1.26133L38.6564 1.27719L38.6142 0.879425L38.572 0.481656L38.7215 0.465795L38.7637 0.863563ZM38.6142 0.879425L38.6564 1.27719L38.5068 1.29306L38.4646 0.895287L38.4224 0.497518L38.572 0.481656L38.6142 0.879425ZM38.4646 0.895287L38.5068 1.29306C38.3804 1.30646 38.2537 1.30711 38.127 1.29502L38.165 0.896827L38.203 0.498637C38.2765 0.505644 38.3495 0.505259 38.4224 0.497518L38.4646 0.895287ZM38.165 0.896827L38.127 1.29502L37.977 1.2807L38.015 0.882506L38.053 0.484315L38.203 0.498637L38.165 0.896827ZM38.015 0.882506L37.977 1.2807L37.8269 1.26637L37.8649 0.868184L37.9029 0.469994L38.053 0.484315L38.015 0.882506ZM37.8649 0.868184L37.8269 1.26637C37.7624 1.26022 37.7096 1.26381 37.6659 1.27302L37.5833 0.881648L37.5007 0.490278C37.6325 0.462442 37.7674 0.457056 37.9029 0.469994L37.8649 0.868184ZM37.5833 0.881648L37.6659 1.27302L37.5343 1.3008L37.4517 0.909434L37.3691 0.518063L37.5007 0.490278L37.5833 0.881648ZM37.4517 0.909434L37.5343 1.3008L37.4028 1.32859L37.3201 0.937219L37.2375 0.545849L37.3691 0.518063L37.4517 0.909434ZM37.3201 0.937219L37.4028 1.32859C37.4076 1.32757 37.4232 1.3231 37.4418 1.30952C37.4607 1.29569 37.472 1.28022 37.4772 1.27081L37.1263 1.07882L36.7753 0.886838C36.8752 0.704308 37.0403 0.587483 37.2375 0.545849L37.3201 0.937219ZM37.1263 1.07882L37.4772 1.27081L37.4149 1.38463L37.064 1.19264L36.7131 1.00066L36.7753 0.886838L37.1263 1.07882ZM37.064 1.19264L37.4149 1.38463L37.3526 1.49845L37.0017 1.30646L36.6508 1.11448L36.7131 1.00066L37.064 1.19264ZM37.0017 1.30646L37.3526 1.49845C37.28 1.63125 37.1776 1.74192 37.0613 1.83432L36.8125 1.52109L36.5637 1.20786C36.6166 1.16585 36.6404 1.13343 36.6508 1.11448L37.0017 1.30646ZM36.8125 1.52109L37.0613 1.83432L36.9344 1.93512L36.6856 1.62189L36.4368 1.30866L36.5637 1.20786L36.8125 1.52109ZM36.6856 1.62189L36.9344 1.93512L36.8074 2.03593L36.5587 1.7227L36.3099 1.40947L36.4368 1.30866L36.6856 1.62189ZM36.5587 1.7227L36.8074 2.03593C36.7482 2.08301 36.6994 2.13332 36.6594 2.18659L36.3394 1.94658L36.0194 1.70656C36.1026 1.59574 36.1999 1.4968 36.3099 1.40947L36.5587 1.7227ZM36.3394 1.94658L36.6594 2.18659L36.5671 2.30966L36.2471 2.06965L35.9271 1.82963L36.0194 1.70656L36.3394 1.94658ZM36.2471 2.06965L36.5671 2.30966L36.4748 2.43273L36.1548 2.19271L35.8348 1.9527L35.9271 1.82963L36.2471 2.06965ZM36.1548 2.19271L36.4748 2.43273C36.4396 2.47962 36.4169 2.52549 36.403 2.57117L36.0202 2.45502L35.6375 2.33887C35.68 2.1989 35.7469 2.0699 35.8348 1.9527L36.1548 2.19271ZM36.0202 2.45502L36.403 2.57117L36.3608 2.71041L35.978 2.59426L35.5952 2.47811L35.6375 2.33887L36.0202 2.45502ZM35.978 2.59426L36.3608 2.71041L36.3185 2.84964L35.9357 2.73349L35.553 2.61735L35.5952 2.47811L35.978 2.59426ZM35.9357 2.73349L36.3185 2.84964C36.2652 3.02528 36.1598 3.17511 36.0047 3.28143L35.7786 2.95148L35.5525 2.62153C35.5536 2.62076 35.5536 2.62063 35.5529 2.62125C35.5523 2.62189 35.5515 2.62276 35.5509 2.62369C35.5492 2.62598 35.5506 2.62505 35.553 2.61735L35.9357 2.73349ZM35.7786 2.95148L36.0047 3.28143L35.8898 3.36017L35.6637 3.03022L35.4376 2.70027L35.5525 2.62153L35.7786 2.95148ZM35.6637 3.03022L35.8898 3.36017L35.7749 3.43891L35.5488 3.10896L35.3227 2.77901L35.4376 2.70027L35.6637 3.03022ZM35.5488 3.10896L35.7749 3.43891C35.6475 3.52625 35.5054 3.5813 35.3545 3.60664L35.2882 3.21217L35.222 2.81769C35.2653 2.81042 35.2969 2.79667 35.3227 2.77901L35.5488 3.10896ZM35.2882 3.21217L35.3545 3.60664L35.2088 3.6311L35.1426 3.23662L35.0763 2.84214L35.222 2.81769L35.2882 3.21217ZM35.1426 3.23662L35.2088 3.6311L35.0632 3.65556L34.9969 3.26108L34.9307 2.8666L35.0763 2.84214L35.1426 3.23662ZM34.9969 3.26108L35.0632 3.65556C34.961 3.6727 34.8581 3.68798 34.7544 3.70138L34.7031 3.30469L34.6519 2.90799C34.7457 2.89586 34.8386 2.88206 34.9307 2.8666L34.9969 3.26108ZM34.7031 3.30469L34.7544 3.70138L34.6063 3.72053L34.555 3.32384L34.5037 2.92714L34.6519 2.90799L34.7031 3.30469ZM34.555 3.32384L34.6063 3.72053L34.4582 3.73968L34.4069 3.34299L34.3556 2.94629L34.5037 2.92714L34.555 3.32384ZM34.4069 3.34299L34.4582 3.73968C34.4237 3.74415 34.3866 3.75664 34.3444 3.78436L34.125 3.44987L33.9056 3.11538C34.0418 3.02612 34.1927 2.96736 34.3556 2.94629L34.4069 3.34299ZM34.125 3.44987L34.3444 3.78436L34.2106 3.87209L33.9912 3.5376L33.7719 3.20311L33.9056 3.11538L34.125 3.44987ZM33.9912 3.5376L34.2106 3.87209L34.0768 3.95982L33.8574 3.62533L33.6381 3.29084L33.7719 3.20311L33.9912 3.5376ZM33.8574 3.62533L34.0768 3.95982C33.9265 4.05837 33.7573 4.11238 33.5765 4.11665L33.5671 3.71676L33.5576 3.31687C33.5857 3.31621 33.61 3.30927 33.6381 3.29084L33.8574 3.62533ZM33.5671 3.71676L33.5765 4.11665L33.4199 4.12034L33.4105 3.72045L33.401 3.32056L33.5576 3.31687L33.5671 3.71676ZM33.4105 3.72045L33.4199 4.12034L33.2633 4.12403L33.2539 3.72414L33.2445 3.32425L33.401 3.32056L33.4105 3.72045ZM33.2539 3.72414L33.2633 4.12403C33.2308 4.1248 33.2094 4.13248 33.1895 4.14549L32.9705 3.81074L32.7516 3.47598C32.9007 3.37845 33.0682 3.32841 33.2445 3.32425L33.2539 3.72414ZM32.9705 3.81074L33.1895 4.14549L33.0627 4.2284L32.8438 3.89364L32.6248 3.55888L32.7516 3.47598L32.9705 3.81074ZM32.8438 3.89364L33.0627 4.2284L32.936 4.3113L32.717 3.97654L32.4981 3.64179L32.6248 3.55888L32.8438 3.89364ZM32.717 3.97654L32.936 4.3113C32.8514 4.36661 32.7671 4.4217 32.6831 4.47658L32.4644 4.1417L32.2456 3.80682C32.3295 3.75203 32.4136 3.69701 32.4981 3.64179L32.717 3.97654ZM32.4644 4.1417L32.6831 4.47658L32.5572 4.55884L32.3384 4.22396L32.1197 3.88908L32.2456 3.80682L32.4644 4.1417ZM32.3384 4.22396L32.5572 4.55884L32.4313 4.6411L32.2125 4.30622L31.9938 3.97134L32.1197 3.88908L32.3384 4.22396ZM32.2125 4.30622L32.4313 4.6411C32.3639 4.68509 32.3003 4.73378 32.2402 4.78724L31.9743 4.48845L31.7083 4.18966C31.798 4.10982 31.8932 4.03702 31.9938 3.97134L32.2125 4.30622ZM31.9743 4.48845L32.2402 4.78724L32.1279 4.88722L31.8619 4.58843L31.596 4.28964L31.7083 4.18966L31.9743 4.48845ZM31.8619 4.58843L32.1279 4.88722L32.0155 4.9872L31.7496 4.68841L31.4837 4.38962L31.596 4.28964L31.8619 4.58843ZM31.7496 4.68841L32.0155 4.9872C31.9663 5.03102 31.9219 5.08175 31.8822 5.14051L31.5507 4.91676L31.2191 4.693C31.2949 4.5806 31.3831 4.47911 31.4837 4.38962L31.7496 4.68841ZM31.5507 4.91676L31.8822 5.14051L31.7956 5.26887L31.464 5.04512L31.1325 4.82137L31.2191 4.693L31.5507 4.91676ZM31.464 5.04512L31.7956 5.26887L31.709 5.39724L31.3774 5.17349L31.0458 4.94973L31.1325 4.82137L31.464 5.04512ZM31.3774 5.17349L31.709 5.39724C31.5789 5.58999 31.384 5.6917 31.1774 5.72717L31.1097 5.33294L31.042 4.9387C31.0625 4.93519 31.0669 4.93126 31.0625 4.93388C31.0603 4.93515 31.0571 4.9374 31.0536 4.9407C31.0501 4.944 31.0475 4.94725 31.0458 4.94973L31.3774 5.17349ZM31.1097 5.33294L31.1774 5.72717L30.9963 5.75825L30.9286 5.36402L30.861 4.96979L31.042 4.9387L31.1097 5.33294ZM30.9286 5.36402L30.9963 5.75825L30.8153 5.78934L30.7476 5.39511L30.6799 5.00087L30.861 4.96979L30.9286 5.36402ZM30.7476 5.39511L30.8153 5.78934C30.8205 5.78844 30.873 5.77713 30.9202 5.72011C30.9666 5.66402 30.9672 5.61268 30.9672 5.61186L30.5672 5.61325L30.1672 5.61465C30.1667 5.48912 30.1972 5.33907 30.3037 5.21026C30.411 5.08053 30.5539 5.0225 30.6799 5.00087L30.7476 5.39511ZM30.5672 5.61325L30.9672 5.61186L30.9678 5.79892L30.5678 5.80032L30.1678 5.80171L30.1672 5.61465L30.5672 5.61325ZM30.5678 5.80032L30.9678 5.79892L30.9685 5.98599L30.5685 5.98738L30.1685 5.98877L30.1678 5.80171L30.5678 5.80032ZM30.5685 5.98738L30.9685 5.98599C30.9691 6.17073 30.9282 6.35508 30.8244 6.51895L30.4865 6.30495L30.1485 6.09096C30.155 6.08081 30.1687 6.05344 30.1685 5.98877L30.5685 5.98738ZM30.4865 6.30495L30.8244 6.51895L30.7418 6.64946L30.4038 6.43546L30.0659 6.22147L30.1485 6.09096L30.4865 6.30495ZM30.4038 6.43546L30.7418 6.64946L30.6591 6.77997L30.3212 6.56597L29.9833 6.35198L30.0659 6.22147L30.4038 6.43546ZM30.3212 6.56597L30.6591 6.77997C30.5442 6.96147 30.3718 7.07569 30.1721 7.12454L30.077 6.736L29.982 6.34745C29.988 6.34598 29.9911 6.3447 29.9921 6.3443C29.9929 6.34393 29.9921 6.34421 29.9903 6.34547C29.9884 6.34676 29.9865 6.34837 29.9849 6.35005C29.9834 6.3517 29.9829 6.35258 29.9833 6.35198L30.3212 6.56597ZM30.077 6.736L30.1721 7.12454L30.0105 7.16406L29.9155 6.77551L29.8204 6.38697L29.982 6.34745L30.077 6.736ZM29.9155 6.77551L30.0105 7.16406L29.849 7.20357L29.7539 6.81503L29.6589 6.42648L29.8204 6.38697L29.9155 6.77551ZM29.7539 6.81503L29.849 7.20357C29.6743 7.2463 29.4946 7.24359 29.32 7.18537L29.4466 6.80591L29.5731 6.42645C29.5929 6.43307 29.6182 6.43643 29.6589 6.42648L29.7539 6.81503ZM29.4466 6.80591L29.32 7.18537L29.1742 7.13674L29.3007 6.75728L29.4273 6.37782L29.5731 6.42645L29.4466 6.80591ZM29.3007 6.75728L29.1742 7.13674L29.0284 7.0881L29.1549 6.70865L29.2814 6.32919L29.4273 6.37782L29.3007 6.75728ZM29.1549 6.70865L29.0284 7.0881C28.9391 7.05834 28.8593 7.03493 28.7884 7.0173L28.885 6.62914L28.9816 6.24098C29.0762 6.26452 29.1763 6.29412 29.2814 6.32919L29.1549 6.70865ZM28.885 6.62914L28.7884 7.0173L28.6643 6.98642L28.761 6.59826L28.8576 6.2101L28.9816 6.24098L28.885 6.62914ZM28.761 6.59826L28.6643 6.98642L28.5403 6.95554L28.6369 6.56739L28.7335 6.17923L28.8576 6.2101L28.761 6.59826ZM28.6369 6.56739L28.5403 6.95554C28.3759 6.91464 28.2352 6.82657 28.1253 6.70119L28.426 6.4375L28.7268 6.17381C28.7311 6.17869 28.7329 6.17949 28.7319 6.1789C28.7309 6.17826 28.7308 6.17855 28.7335 6.17923L28.6369 6.56739ZM28.426 6.4375L28.1253 6.70119L28.0385 6.60217L28.3392 6.33849L28.64 6.0748L28.7268 6.17381L28.426 6.4375ZM28.3392 6.33849L28.0385 6.60217L27.9517 6.50316L28.2524 6.23948L28.5532 5.97579L28.64 6.0748L28.3392 6.33849ZM28.2524 6.23948L27.9517 6.50316C27.9362 6.48548 27.9003 6.45397 27.8268 6.41629L28.0093 6.06032L28.1917 5.70434C28.3267 5.77353 28.453 5.86146 28.5532 5.97579L28.2524 6.23948ZM28.0093 6.06032L27.8268 6.41629L27.6704 6.33615L27.8529 5.98017L28.0353 5.6242L28.1917 5.70434L28.0093 6.06032ZM27.8529 5.98017L27.6704 6.33615L27.514 6.256L27.6965 5.90002L27.8789 5.54405L28.0353 5.6242L27.8529 5.98017ZM27.6965 5.90002L27.514 6.256C27.3202 6.15668 27.1688 5.99006 27.1155 5.75817L27.5053 5.66854L27.8951 5.5789C27.8944 5.57578 27.8928 5.57058 27.8897 5.56427C27.8866 5.55791 27.8828 5.55213 27.8789 5.54736C27.8707 5.53743 27.8671 5.53797 27.8789 5.54405L27.6965 5.90002ZM27.5053 5.66854L27.1155 5.75817L27.0807 5.60683L27.4705 5.51719L27.8603 5.42756L27.8951 5.5789L27.5053 5.66854ZM27.4705 5.51719L27.0807 5.60683L27.0459 5.45549L27.4357 5.36585L27.8255 5.27622L27.8603 5.42756L27.4705 5.51719ZM27.4357 5.36585L27.0459 5.45549C27.0331 5.39995 27.0121 5.35101 26.9827 5.30625L27.3172 5.08689L27.6517 4.86753C27.7339 4.99294 27.7919 5.12997 27.8255 5.27622L27.4357 5.36585ZM27.3172 5.08689L26.9827 5.30625L26.899 5.17863L27.2335 4.95927L27.568 4.73991L27.6517 4.86753L27.3172 5.08689ZM27.2335 4.95927L26.899 5.17863L26.8153 5.05101L27.1498 4.83165L27.4843 4.61229L27.568 4.73991L27.2335 4.95927ZM27.1498 4.83165L26.8153 5.05101C26.7301 4.92111 26.6731 4.77825 26.6448 4.62556L27.0381 4.5527L27.4314 4.47984C27.4405 4.52892 27.4579 4.57204 27.4843 4.61229L27.1498 4.83165ZM27.0381 4.5527L26.6448 4.62556L26.6167 4.47423L27.01 4.40137L27.4034 4.32851L27.4314 4.47984L27.0381 4.5527ZM27.01 4.40137L26.6167 4.47423L26.5887 4.3229L26.982 4.25004L27.3753 4.17718L27.4034 4.32851L27.01 4.40137ZM26.982 4.25004L26.5887 4.3229C26.578 4.26521 26.5594 4.21569 26.5338 4.17167L26.8797 3.97083L27.2257 3.76999C27.2991 3.89648 27.3486 4.03309 27.3753 4.17718L26.982 4.25004ZM26.8797 3.97083L26.5338 4.17167L26.4596 4.04379L26.8055 3.84295L27.1514 3.64211L27.2257 3.76999L26.8797 3.97083ZM26.8055 3.84295L26.4596 4.04379L26.3853 3.91592L26.7312 3.71508L27.0772 3.51423L27.1514 3.64211L26.8055 3.84295ZM26.7312 3.71508L26.3853 3.91592C26.3626 3.87677 26.3307 3.83895 26.2849 3.80265L26.5334 3.48922L26.782 3.1758C26.9009 3.27013 27.0009 3.38288 27.0772 3.51423L26.7312 3.71508ZM26.5334 3.48922L26.2849 3.80265L26.1614 3.70468L26.4099 3.39125L26.6584 3.07782L26.782 3.1758L26.5334 3.48922ZM26.4099 3.39125L26.1614 3.70468L26.0378 3.6067L26.2863 3.29328L26.5348 2.97985L26.6584 3.07782L26.4099 3.39125ZM26.2863 3.29328L26.0378 3.6067C26.0571 3.62201 26.0994 3.6446 26.1564 3.64446C26.2076 3.64433 26.2331 3.62586 26.2265 3.63014L26.0097 3.29396L25.793 2.95778C25.8884 2.89629 26.011 2.84482 26.1544 2.84446C26.3036 2.8441 26.4332 2.89923 26.5348 2.97985L26.2863 3.29328ZM26.0097 3.29396L26.2265 3.63014L26.0735 3.72879L25.8567 3.39261L25.64 3.05644L25.793 2.95778L26.0097 3.29396ZM25.8567 3.39261L26.0735 3.72879L25.9205 3.82745L25.7037 3.49127L25.487 3.15509L25.64 3.05644L25.8567 3.39261ZM25.7037 3.49127L25.9205 3.82745C25.712 3.96184 25.4609 3.99224 25.2219 3.87272L25.4008 3.51495L25.5797 3.15719C25.5716 3.15314 25.5496 3.14544 25.5203 3.14773C25.4928 3.14989 25.4807 3.15914 25.487 3.15509L25.7037 3.49127ZM25.4008 3.51495L25.2219 3.87272L25.0719 3.79775L25.2508 3.43998L25.4297 3.08221L25.5797 3.15719L25.4008 3.51495ZM25.2508 3.43998L25.0719 3.79775L24.922 3.72277L25.1009 3.36501L25.2798 3.00724L25.4297 3.08221L25.2508 3.43998ZM25.1009 3.36501L24.922 3.72277C24.8926 3.70805 24.882 3.71086 24.8774 3.71173L24.8013 3.31904L24.7252 2.92635C24.9202 2.88855 25.1093 2.922 25.2798 3.00724L25.1009 3.36501ZM24.8013 3.31904L24.8774 3.71173L24.7278 3.74074L24.6517 3.34804L24.5756 2.95535L24.7252 2.92635L24.8013 3.31904ZM24.6517 3.34804L24.7278 3.74074L24.5782 3.76974L24.502 3.37705L24.4259 2.98436L24.5756 2.95535L24.6517 3.34804ZM24.502 3.37705L24.5782 3.76974C24.4638 3.79191 24.349 3.80756 24.2338 3.81661L24.2025 3.41785L24.1711 3.01908C24.2558 3.01241 24.3408 3.00087 24.4259 2.98436L24.502 3.37705ZM24.2025 3.41785L24.2338 3.81661L24.0839 3.82841L24.0526 3.42964L24.0212 3.03087L24.1711 3.01908L24.2025 3.41785ZM24.0526 3.42964L24.0839 3.82841L23.934 3.8402L23.9026 3.44143L23.8713 3.04266L24.0212 3.03087L24.0526 3.42964ZM23.9026 3.44143L23.934 3.8402C23.7681 3.85325 23.6065 3.82556 23.4536 3.76461L23.6017 3.39304L23.7498 3.02146C23.7982 3.04076 23.8373 3.04533 23.8713 3.04266L23.9026 3.44143ZM23.6017 3.39304L23.4536 3.76461L23.3026 3.70443L23.4507 3.33286L23.5988 2.96128L23.7498 3.02146L23.6017 3.39304ZM23.4507 3.33286L23.3026 3.70443L23.1516 3.64425L23.2997 3.27268L23.4478 2.9011L23.5988 2.96128L23.4507 3.33286ZM23.2997 3.27268L23.1516 3.64425C23.1465 3.6422 23.1432 3.64138 23.1417 3.64106C23.1403 3.64075 23.1399 3.64079 23.1402 3.6408C23.1406 3.64081 23.1407 3.64076 23.1403 3.64083C23.1399 3.6409 23.138 3.64124 23.1346 3.64248L22.9996 3.26593L22.8647 2.88938C23.0585 2.81992 23.2592 2.82592 23.4478 2.9011L23.2997 3.27268ZM22.9996 3.26593L23.1346 3.64248L22.9855 3.69591L22.8505 3.31937L22.7156 2.94282L22.8647 2.88938L22.9996 3.26593ZM22.8505 3.31937L22.9855 3.69591L22.8364 3.74935L22.7015 3.3728L22.5665 2.99626L22.7156 2.94282L22.8505 3.31937ZM22.7015 3.3728L22.8364 3.74935C22.7046 3.79659 22.5692 3.82606 22.431 3.83593L22.4025 3.43695L22.374 3.03797C22.4356 3.03356 22.4995 3.02026 22.5665 2.99626L22.7015 3.3728ZM22.4025 3.43695L22.431 3.83593L22.2812 3.84665L22.2527 3.44767L22.2242 3.04868L22.374 3.03797L22.4025 3.43695ZM22.2527 3.44767L22.2812 3.84665L22.1314 3.85736L22.1028 3.45838L22.0743 3.0594L22.2242 3.04868L22.2527 3.44767ZM22.1028 3.45838L22.1314 3.85736C22.0765 3.86128 22.0237 3.87405 21.9711 3.89661L21.8133 3.52902L21.6556 3.16143C21.7892 3.10409 21.9294 3.06976 22.0743 3.0594L22.1028 3.45838ZM21.8133 3.52902L21.9711 3.89661L21.8314 3.95654L21.6737 3.58895L21.5159 3.22136L21.6556 3.16143L21.8133 3.52902ZM21.6737 3.58895L21.8314 3.95654L21.6917 4.01648L21.534 3.64889L21.3763 3.2813L21.5159 3.22136L21.6737 3.58895ZM21.534 3.64889L21.6917 4.01648C21.546 4.07901 21.392 4.10883 21.2336 4.10619L21.2403 3.70624L21.247 3.3063C21.294 3.30708 21.3358 3.29867 21.3763 3.2813L21.534 3.64889ZM21.2403 3.70624L21.2336 4.10619L21.0796 4.10361L21.0863 3.70367L21.093 3.30372L21.247 3.3063L21.2403 3.70624ZM21.0863 3.70367L21.0796 4.10361L20.9256 4.10104L20.9323 3.70109L20.939 3.30115L21.093 3.30372L21.0863 3.70367ZM20.9323 3.70109L20.9256 4.10104C20.9226 4.10099 20.9299 4.10143 20.9422 4.09641C20.9547 4.09127 20.9619 4.08477 20.9631 4.08347L20.6747 3.80632L20.3863 3.52917C20.535 3.37443 20.729 3.29764 20.939 3.30115L20.9323 3.70109ZM20.6747 3.80632L20.9631 4.08347L20.8595 4.19127L20.5711 3.91412L20.2827 3.63697L20.3863 3.52917L20.6747 3.80632ZM20.5711 3.91412L20.8595 4.19127L20.756 4.29907L20.4675 4.02192L20.1791 3.74477L20.2827 3.63697L20.5711 3.91412ZM20.4675 4.02192L20.756 4.29907C20.6923 4.36535 20.629 4.43507 20.5661 4.50826L20.2627 4.24765L19.9592 3.98705C20.0314 3.903 20.1047 3.82222 20.1791 3.74477L20.4675 4.02192ZM20.2627 4.24765L20.5661 4.50826L20.4648 4.62619L20.1614 4.36559L19.8579 4.10499L19.9592 3.98705L20.2627 4.24765ZM20.1614 4.36559L20.4648 4.62619L20.3636 4.74413L20.0601 4.48353L19.7566 4.22292L19.8579 4.10499L20.1614 4.36559ZM20.0601 4.48353L20.3636 4.74413C20.2634 4.86073 20.1444 4.95586 20.009 5.0288L19.8193 4.67666L19.6295 4.32452C19.6802 4.29719 19.7217 4.26357 19.7566 4.22292L20.0601 4.48353ZM19.8193 4.67666L20.009 5.0288L19.8694 5.104L19.6797 4.75186L19.4899 4.39973L19.6295 4.32452L19.8193 4.67666ZM19.6797 4.75186L19.8694 5.104L19.7298 5.17921L19.5401 4.82707L19.3504 4.47493L19.4899 4.39973L19.6797 4.75186ZM19.5401 4.82707L19.7298 5.17921C19.5888 5.25521 19.4367 5.30066 19.2768 5.31323L19.2454 4.91446L19.2141 4.51569C19.2609 4.51201 19.3053 4.49919 19.3504 4.47493L19.5401 4.82707ZM19.2454 4.91446L19.2768 5.31323L19.1217 5.32542L19.0903 4.92665L19.059 4.52788L19.2141 4.51569L19.2454 4.91446ZM19.0903 4.92665L19.1217 5.32542L18.9666 5.33761L18.9352 4.93884L18.9039 4.54007L19.059 4.52788L19.0903 4.92665ZM18.9352 4.93884L18.9666 5.33761C18.8771 5.34464 18.7937 5.35593 18.7162 5.37107L18.6395 4.97849L18.5628 4.5859C18.6728 4.56444 18.7865 4.54929 18.9039 4.54007L18.9352 4.93884ZM18.6395 4.97849L18.7162 5.37107L18.5755 5.39853L18.4989 5.00595L18.4222 4.61336L18.5628 4.5859L18.6395 4.97849ZM18.4989 5.00595L18.5755 5.39853L18.4349 5.42599L18.3583 5.03341L18.2816 4.64082L18.4222 4.61336L18.4989 5.00595ZM18.3583 5.03341L18.4349 5.42599C18.4481 5.42342 18.4696 5.41557 18.4902 5.39861C18.5098 5.38251 18.5161 5.3686 18.5153 5.37038L18.1522 5.20257L17.7891 5.03477C17.881 4.83591 18.0492 4.6862 18.2816 4.64082L18.3583 5.03341ZM18.1522 5.20257L18.5153 5.37038L18.4498 5.51209L18.0867 5.34429L17.7236 5.17648L17.7891 5.03477L18.1522 5.20257ZM18.0867 5.34429L18.4498 5.51209L18.3843 5.6538L18.0212 5.486L17.6581 5.31819L17.7236 5.17648L18.0867 5.34429ZM18.0212 5.486L18.3843 5.6538C18.3377 5.75468 18.2914 5.8476 18.2454 5.93193L17.8942 5.74033L17.5431 5.54873C17.579 5.4829 17.6174 5.40626 17.6581 5.31819L18.0212 5.486ZM17.8942 5.74033L18.2454 5.93193L18.1839 6.04455L17.8328 5.85295L17.4817 5.66135L17.5431 5.54873L17.8942 5.74033ZM17.8328 5.85295L18.1839 6.04455L18.1225 6.15717L17.7713 5.96557L17.4202 5.77397L17.4817 5.66135L17.8328 5.85295ZM17.7713 5.96557L18.1225 6.15717C18.0991 6.19996 18.0718 6.26529 18.044 6.35967L17.6603 6.24684L17.2765 6.13401C17.3149 6.00352 17.3616 5.88134 17.4202 5.77397L17.7713 5.96557ZM17.6603 6.24684L18.044 6.35967L17.9945 6.52832L17.6107 6.41549L17.2269 6.30266L17.2765 6.13401L17.6603 6.24684ZM17.6107 6.41549L17.9945 6.52832L17.9449 6.69697L17.5611 6.58414L17.1774 6.47131L17.2269 6.30266L17.6107 6.41549ZM17.5611 6.58414L17.9449 6.69697C17.91 6.81562 17.841 6.94131 17.7157 7.03278C17.5905 7.12414 17.45 7.1516 17.3268 7.14903L17.3351 6.74912L17.3435 6.3492C17.3379 6.34909 17.2938 6.35027 17.244 6.38664C17.194 6.42311 17.1792 6.46509 17.1774 6.47131L17.5611 6.58414ZM17.3351 6.74912L17.3268 7.14903L17.1504 7.14536L17.1587 6.74544L17.167 6.34553L17.3435 6.3492L17.3351 6.74912ZM17.1587 6.74544L17.1504 7.14536L16.974 7.14169L16.9823 6.74177L16.9906 6.34186L17.167 6.34553L17.1587 6.74544ZM16.9823 6.74177L16.974 7.14169C16.9153 7.14046 16.8906 7.15226 16.8821 7.15726L16.6795 6.81238L16.4768 6.46751C16.6369 6.37346 16.8141 6.33818 16.9906 6.34186L16.9823 6.74177ZM16.6795 6.81238L16.8821 7.15726L16.7557 7.23154L16.553 6.88667L16.3504 6.5418L16.4768 6.46751L16.6795 6.81238ZM16.553 6.88667L16.7557 7.23154L16.6293 7.30583L16.4266 6.96095L16.224 6.61608L16.3504 6.5418L16.553 6.88667ZM16.4266 6.96095L16.6293 7.30583C16.5059 7.37831 16.3731 7.42857 16.2326 7.45602L16.1559 7.06345L16.0791 6.67088C16.1311 6.66072 16.1788 6.64264 16.224 6.61608L16.4266 6.96095ZM16.1559 7.06345L16.2326 7.45602L16.0883 7.48423L16.0116 7.09166L15.9348 6.69909L16.0791 6.67088L16.1559 7.06345ZM16.0116 7.09166L16.0883 7.48423L15.944 7.51244L15.8672 7.11987L15.7905 6.7273L15.9348 6.69909L16.0116 7.09166ZM15.8672 7.11987L15.944 7.51244C15.8634 7.52818 15.7819 7.54911 15.6994 7.57543L15.5779 7.19435L15.4563 6.81327C15.5672 6.77789 15.6786 6.74917 15.7905 6.7273L15.8672 7.11987ZM15.5779 7.19435L15.6994 7.57543L15.5543 7.62171L15.4328 7.24063L15.3112 6.85954L15.4563 6.81327L15.5779 7.19435ZM15.4328 7.24063L15.5543 7.62171L15.4093 7.66798L15.2877 7.2869L15.1661 6.90582L15.3112 6.85954L15.4328 7.24063ZM15.2877 7.2869L15.4093 7.66798C15.2546 7.71731 15.0946 7.73043 14.9339 7.70659L14.9926 7.31092L15.0514 6.91525C15.0907 6.92109 15.1273 6.91819 15.1661 6.90582L15.2877 7.2869ZM14.9926 7.31092L14.9339 7.70659L14.784 7.68434L14.8427 7.28867L14.9014 6.893L15.0514 6.91525L14.9926 7.31092ZM14.8427 7.28867L14.784 7.68434L14.634 7.66208L14.6927 7.26641L14.7514 6.87075L14.9014 6.893L14.8427 7.28867ZM14.6927 7.26641L14.634 7.66208C14.5867 7.65507 14.5385 7.65701 14.4863 7.66977L14.3912 7.28124L14.2961 6.89271C14.446 6.85603 14.5987 6.84808 14.7514 6.87075L14.6927 7.26641ZM14.3912 7.28124L14.4863 7.66977L14.3348 7.70685L14.2397 7.31832L14.1446 6.92979L14.2961 6.89271L14.3912 7.28124ZM14.2397 7.31832L14.3348 7.70685L14.1833 7.74394L14.0882 7.3554L13.9931 6.96687L14.1446 6.92979L14.2397 7.31832ZM14.0882 7.3554L14.1833 7.74394C14.0232 7.78313 13.8597 7.78529 13.6983 7.74741L13.7897 7.35798L13.8811 6.96856C13.9157 6.97668 13.9513 6.97712 13.9931 6.96687L14.0882 7.3554ZM13.7897 7.35798L13.6983 7.74741L13.5513 7.7129L13.6426 7.32348L13.734 6.93406L13.8811 6.96856L13.7897 7.35798ZM13.6426 7.32348L13.5513 7.7129L13.4042 7.6784L13.4956 7.28898L13.587 6.89956L13.734 6.93406L13.6426 7.32348ZM13.4956 7.28898L13.4042 7.6784C13.3505 7.66579 13.2905 7.66111 13.2223 7.66711L13.1873 7.26865L13.1523 6.87018C13.2991 6.85728 13.4447 6.86617 13.587 6.89956L13.4956 7.28898ZM13.1873 7.26865L13.2223 7.66711L13.061 7.68128L13.026 7.28282L12.991 6.88435L13.1523 6.87018L13.1873 7.26865ZM13.026 7.28282L13.061 7.68128L12.8997 7.69545L12.8647 7.29699L12.8297 6.89852L12.991 6.88435L13.026 7.28282ZM12.8647 7.29699L12.8997 7.69545C12.6647 7.7161 12.457 7.62944 12.2977 7.47506L12.576 7.18778L12.8543 6.9005C12.8634 6.90927 12.8634 6.90643 12.8534 6.90265C12.8487 6.90089 12.8436 6.8996 12.8386 6.89893C12.8336 6.89828 12.8304 6.89845 12.8297 6.89852L12.8647 7.29699ZM12.576 7.18778L12.2977 7.47506L12.1703 7.35168L12.4487 7.06439L12.727 6.77711L12.8543 6.9005L12.576 7.18778ZM12.4487 7.06439L12.1703 7.35168L12.043 7.22829L12.3213 6.94101L12.5996 6.65373L12.727 6.77711L12.4487 7.06439ZM12.3213 6.94101L12.043 7.22829C12.0475 7.23272 12.0891 7.26963 12.1652 7.27436C12.2409 7.27906 12.2858 7.24789 12.2896 7.24509L12.0508 6.92423L11.8119 6.60336C11.9111 6.5295 12.0489 6.4656 12.2148 6.47589C12.3811 6.48621 12.5102 6.56705 12.5996 6.65373L12.3213 6.94101ZM12.0508 6.92423L12.2896 7.24509L12.1464 7.35169L11.9076 7.03082L11.6687 6.70996L11.8119 6.60336L12.0508 6.92423ZM11.9076 7.03082L12.1464 7.35169L12.0032 7.45828L11.7644 7.13742L11.5255 6.81655L11.6687 6.70996L11.9076 7.03082ZM11.7644 7.13742L12.0032 7.45828C11.871 7.55671 11.7202 7.6328 11.5519 7.66206L11.4834 7.26797L11.4148 6.87388C11.4303 6.87119 11.4668 6.86025 11.5255 6.81655L11.7644 7.13742ZM11.4834 7.26797L11.5519 7.66206L11.4141 7.68602L11.3456 7.29193L11.2771 6.89784L11.4148 6.87388L11.4834 7.26797ZM11.3456 7.29193L11.4141 7.68602L11.2763 7.70997L11.2078 7.31589L11.1393 6.9218L11.2771 6.89784L11.3456 7.29193ZM11.2078 7.31589L11.2763 7.70997C11.1609 7.73005 11.0345 7.74099 10.8996 7.74476L10.8885 7.34491L10.8773 6.94507C10.9844 6.94208 11.071 6.93367 11.1393 6.9218L11.2078 7.31589ZM10.8885 7.34491L10.8996 7.74476L10.7181 7.74983L10.7069 7.34998L10.6957 6.95014L10.8773 6.94507L10.8885 7.34491ZM10.7069 7.34998L10.7181 7.74983L10.5365 7.7549L10.5253 7.35505L10.5142 6.95521L10.6957 6.95014L10.7069 7.34998ZM10.5253 7.35505L10.5365 7.7549C10.5307 7.75506 10.5543 7.75535 10.5873 7.73445C10.6226 7.71203 10.6401 7.68333 10.6459 7.66991L10.2785 7.51177L9.9111 7.35362C9.96039 7.23911 10.0409 7.13374 10.1585 7.05908C10.2736 6.98594 10.3989 6.95842 10.5142 6.95521L10.5253 7.35505ZM10.2785 7.51177L10.6459 7.66991L10.5806 7.82156L10.2132 7.66342L9.84582 7.50527L9.9111 7.35362L10.2785 7.51177ZM10.2132 7.66342L10.5806 7.82156L10.5154 7.97321L10.148 7.81507L9.78055 7.65692L9.84582 7.50527L10.2132 7.66342ZM10.148 7.81507L10.5154 7.97321C10.4897 8.03276 10.4769 8.08948 10.474 8.14516L10.0745 8.12444L9.67504 8.10372C9.68306 7.9491 9.71915 7.79957 9.78055 7.65692L10.148 7.81507ZM10.0745 8.12444L10.474 8.14516L10.4658 8.30288L10.0663 8.28216L9.66686 8.26144L9.67504 8.10372L10.0745 8.12444ZM10.0663 8.28216L10.4658 8.30288L10.4576 8.46061L10.0581 8.43989L9.65868 8.41917L9.66686 8.26144L10.0663 8.28216ZM10.0581 8.43989L10.4576 8.46061C10.4526 8.55751 10.4504 8.65694 10.4512 8.75894L10.0512 8.76203L9.65125 8.76512C9.65034 8.64789 9.6528 8.53257 9.65868 8.41917L10.0581 8.43989ZM10.0512 8.76203L10.4512 8.75894L10.4525 8.92335L10.0525 8.92645L9.65252 8.92954L9.65125 8.76512L10.0512 8.76203ZM10.0525 8.92645L10.4525 8.92335L10.4538 9.08777L10.0538 9.09086L9.65379 9.09395L9.65252 8.92954L10.0525 8.92645ZM10.0538 9.09086L10.4538 9.08777C10.4557 9.33662 10.3386 9.54626 10.1388 9.68186L9.91418 9.35087L9.68958 9.01988C9.69136 9.01867 9.67876 9.02713 9.6671 9.04886C9.65513 9.07114 9.65376 9.08949 9.65379 9.09395L10.0538 9.09086ZM9.91418 9.35087L10.1388 9.68186L9.99792 9.77744L9.77332 9.44645L9.54871 9.11546L9.68958 9.01988L9.91418 9.35087ZM9.77332 9.44645L9.99792 9.77744L9.85705 9.87303L9.63245 9.54204L9.40785 9.21105L9.54871 9.11546L9.77332 9.44645ZM9.63245 9.54204L9.85705 9.87303C9.78627 9.92107 9.73338 9.96793 9.69434 10.012L9.39488 9.74683L9.09542 9.48164C9.18532 9.38013 9.29081 9.29047 9.40785 9.21105L9.63245 9.54204ZM9.39488 9.74683L9.69434 10.012L9.59763 10.1212L9.29818 9.85603L8.99872 9.59085L9.09542 9.48164L9.39488 9.74683ZM9.29818 9.85603L9.59763 10.1212L9.50093 10.2304L9.20147 9.96523L8.90201 9.70005L8.99872 9.59085L9.29818 9.85603ZM9.20147 9.96523L9.50093 10.2304C9.46961 10.2658 9.4493 10.3013 9.43634 10.3385L9.05861 10.2069L8.68088 10.0753C8.72947 9.93585 8.8044 9.81028 8.90201 9.70005L9.20147 9.96523ZM9.05861 10.2069L9.43634 10.3385L9.39018 10.471L9.01245 10.3394L8.63472 10.2078L8.68088 10.0753L9.05861 10.2069ZM9.01245 10.3394L9.39018 10.471L9.34402 10.6035L8.96629 10.4719L8.58856 10.3403L8.63472 10.2078L9.01245 10.3394ZM8.96629 10.4719L9.34402 10.6035C9.34115 10.6118 9.33858 10.6223 9.34493 10.6463L8.95821 10.7485L8.57149 10.8507C8.52706 10.6826 8.52988 10.5087 8.58856 10.3403L8.96629 10.4719ZM8.95821 10.7485L9.34493 10.6463L9.38301 10.7904L8.99629 10.8926L8.60957 10.9948L8.57149 10.8507L8.95821 10.7485ZM8.99629 10.8926L9.38301 10.7904L9.42109 10.9344L9.03437 11.0366L8.64765 11.1389L8.60957 10.9948L8.99629 10.8926ZM9.03437 11.0366L9.42109 10.9344C9.43162 10.9743 9.45131 11.0159 9.48614 11.0604L9.17102 11.3068L8.8559 11.5532C8.7593 11.4296 8.68789 11.2911 8.64765 11.1389L9.03437 11.0366ZM9.17102 11.3068L9.48614 11.0604L9.58471 11.1865L9.2696 11.4329L8.95448 11.6792L8.8559 11.5532L9.17102 11.3068ZM9.2696 11.4329L9.58471 11.1865L9.68328 11.3126L9.36817 11.5589L9.05305 11.8053L8.95448 11.6792L9.2696 11.4329ZM9.36817 11.5589L9.68328 11.3126C9.82807 11.4977 9.87155 11.7235 9.80788 11.9487L9.42297 11.8398L9.03806 11.731C9.03807 11.731 9.03779 11.732 9.03746 11.7339C9.03714 11.7358 9.03677 11.7385 9.03658 11.7421C9.03617 11.7494 9.03658 11.7586 9.03856 11.7688C9.04287 11.7909 9.05171 11.8036 9.05305 11.8053L9.36817 11.5589ZM9.42297 11.8398L9.80788 11.9487L9.76411 12.1035L9.3792 11.9947L8.99429 11.8858L9.03806 11.731L9.42297 11.8398ZM9.3792 11.9947L9.76411 12.1035L9.72034 12.2583L9.33543 12.1495L8.95052 12.0406L8.99429 11.8858L9.3792 11.9947ZM9.33543 12.1495L9.72034 12.2583C9.69038 12.3643 9.65985 12.4679 9.62875 12.5691L9.2464 12.4516L8.86405 12.3341C8.8933 12.2389 8.92212 12.1411 8.95052 12.0406L9.33543 12.1495ZM9.2464 12.4516L9.62875 12.5691L9.58348 12.7163L9.20113 12.5988L8.81878 12.4813L8.86405 12.3341L9.2464 12.4516ZM9.20113 12.5988L9.58348 12.7163L9.53822 12.8636L9.15587 12.7461L8.77352 12.6286L8.81878 12.4813L9.20113 12.5988ZM9.15587 12.7461L9.53822 12.8636C9.48439 13.0388 9.38315 13.1868 9.24524 13.3032L8.98718 12.9976L8.72913 12.692C8.75578 12.6695 8.767 12.6498 8.77352 12.6286L9.15587 12.7461ZM8.98718 12.9976L9.24524 13.3032L9.12181 13.4074L8.86376 13.1018L8.60571 12.7962L8.72913 12.692L8.98718 12.9976ZM8.86376 13.1018L9.12181 13.4074L8.99839 13.5117L8.74034 13.206L8.48228 12.9004L8.60571 12.7962L8.86376 13.1018ZM8.74034 13.206L8.99839 13.5117C8.99549 13.5141 8.994 13.5158 8.99334 13.5166C8.99269 13.5174 8.9923 13.518 8.99193 13.5186C8.99149 13.5194 8.98849 13.525 8.98628 13.5392L8.59097 13.4781L8.19566 13.4171C8.22687 13.2151 8.32219 13.0356 8.48228 12.9004L8.74034 13.206ZM8.59097 13.4781L8.98628 13.5392L8.96035 13.7071L8.56504 13.646L8.16973 13.5849L8.19566 13.4171L8.59097 13.4781ZM8.56504 13.646L8.96035 13.7071L8.93441 13.875L8.5391 13.8139L8.14379 13.7528L8.16973 13.5849L8.56504 13.646ZM8.5391 13.8139L8.93441 13.875C8.90026 14.096 8.78302 14.284 8.59048 14.4073L8.37472 14.0705L8.15896 13.7337C8.16018 13.7329 8.15897 13.7335 8.15644 13.736C8.15384 13.7385 8.15091 13.742 8.14823 13.7462C8.14556 13.7504 8.14405 13.7538 8.14335 13.7557C8.1427 13.7575 8.14317 13.7569 8.14379 13.7528L8.5391 13.8139ZM8.37472 14.0705L8.59048 14.4073L8.45205 14.496L8.23628 14.1592L8.02052 13.8223L8.15896 13.7337L8.37472 14.0705ZM8.23628 14.1592L8.45205 14.496L8.31361 14.5847L8.09785 14.2478L7.88208 13.911L8.02052 13.8223L8.23628 14.1592ZM8.09785 14.2478L8.31361 14.5847C8.21448 14.6482 8.11578 14.7071 8.01752 14.7614L7.82408 14.4113L7.63064 14.0612C7.71282 14.0158 7.79663 13.9658 7.88208 13.911L8.09785 14.2478ZM7.82408 14.4113L8.01752 14.7614L7.88219 14.8362L7.68876 14.4861L7.49532 14.136L7.63064 14.0612L7.82408 14.4113ZM7.68876 14.4861L7.88219 14.8362L7.74687 14.911L7.55343 14.5608L7.35999 14.2107L7.49532 14.136L7.68876 14.4861ZM7.55343 14.5608L7.74687 14.911C7.56829 15.0096 7.37223 15.0343 7.1784 14.9957L7.25666 14.6034L7.33492 14.2111C7.34861 14.2139 7.35442 14.213 7.35479 14.2129C7.35524 14.2128 7.3555 14.2128 7.35587 14.2127C7.35625 14.2125 7.35759 14.212 7.35999 14.2107L7.55343 14.5608ZM7.25666 14.6034L7.1784 14.9957L7.01696 14.9635L7.09522 14.5712L7.17348 14.1789L7.33492 14.2111L7.25666 14.6034ZM7.09522 14.5712L7.01696 14.9635L6.85552 14.9312L6.93378 14.539L7.01204 14.1467L7.17348 14.1789L7.09522 14.5712ZM6.93378 14.539L6.85552 14.9312C6.65502 14.8912 6.48017 14.7856 6.35682 14.6141L6.68154 14.3805L7.00626 14.147C7.00727 14.1484 7.00738 14.1483 7.00642 14.1474C7.00542 14.1464 7.00412 14.1454 7.00276 14.1445C7.00143 14.1437 7.00099 14.1436 7.002 14.144C7.00309 14.1444 7.00623 14.1455 7.01204 14.1467L6.93378 14.539ZM6.68154 14.3805L6.35682 14.6141L6.26602 14.4879L6.59074 14.2543L6.91546 14.0207L7.00626 14.147L6.68154 14.3805ZM6.59074 14.2543L6.26602 14.4879L6.17522 14.3616L6.49994 14.1281L6.82466 13.8945L6.91546 14.0207L6.59074 14.2543ZM6.49994 14.1281L6.17522 14.3616C6.1379 14.3098 6.09265 14.2628 6.03789 14.2205L6.2825 13.904L6.5271 13.5875C6.64119 13.6756 6.74091 13.7781 6.82466 13.8945L6.49994 14.1281ZM6.2825 13.904L6.03789 14.2205L5.91125 14.1226L6.15586 13.8061L6.40046 13.4896L6.5271 13.5875L6.2825 13.904ZM6.15586 13.8061L5.91125 14.1226L5.78461 14.0247L6.02921 13.7082L6.27382 13.3917L6.40046 13.4896L6.15586 13.8061ZM6.02921 13.7082L5.78461 14.0247C5.79427 14.0322 5.82154 14.0485 5.86246 14.0519C5.90182 14.0553 5.9255 14.0443 5.92612 14.044L5.75055 13.6846L5.57498 13.3252C5.67695 13.2754 5.79774 13.2436 5.93 13.2548C6.0638 13.2661 6.17973 13.319 6.27382 13.3917L6.02921 13.7082ZM5.75055 13.6846L5.92612 14.044L5.77409 14.1183L5.59852 13.7589L5.42295 13.3995L5.57498 13.3252L5.75055 13.6846ZM5.59852 13.7589L5.77409 14.1183L5.62206 14.1925L5.44649 13.8331L5.27092 13.4737L5.42295 13.3995L5.59852 13.7589ZM5.44649 13.8331L5.62206 14.1925C5.55663 14.2245 5.50449 14.2618 5.46232 14.3033L5.18191 14.018L4.9015 13.7328C5.0094 13.6267 5.13365 13.5408 5.27092 13.4737L5.44649 13.8331ZM5.18191 14.018L5.46232 14.3033L5.34977 14.4139L5.06936 14.1287L4.78894 13.8434L4.9015 13.7328L5.18191 14.018ZM5.06936 14.1287L5.34977 14.4139L5.23721 14.5246L4.9568 14.2393L4.67638 13.9541L4.78894 13.8434L5.06936 14.1287ZM4.9568 14.2393L5.23721 14.5246C5.23649 14.5253 5.23795 14.524 5.24036 14.5204C5.24282 14.5167 5.24553 14.5118 5.24781 14.5058C5.25283 14.4928 5.25225 14.4846 5.25237 14.4868L4.85297 14.5087L4.45358 14.5307C4.4415 14.3111 4.5187 14.1091 4.67638 13.9541L4.9568 14.2393ZM4.85297 14.5087L5.25237 14.4868L5.2611 14.6455L4.86171 14.6675L4.46231 14.6895L4.45358 14.5307L4.85297 14.5087ZM4.86171 14.6675L5.2611 14.6455L5.26984 14.8043L4.87044 14.8263L4.47105 14.8482L4.46231 14.6895L4.86171 14.6675ZM4.87044 14.8263L5.26984 14.8043C5.2779 14.9509 5.26362 15.0956 5.2251 15.2365L4.83926 15.131L4.45343 15.0255C4.46812 14.9717 4.47462 14.9133 4.47105 14.8482L4.87044 14.8263ZM4.83926 15.131L5.2251 15.2365L5.18519 15.3824L4.79935 15.2769L4.41352 15.1714L4.45343 15.0255L4.83926 15.131ZM4.79935 15.2769L5.18519 15.3824L5.14528 15.5284L4.75944 15.4229L4.37361 15.3174L4.41352 15.1714L4.79935 15.2769ZM4.75944 15.4229L5.14528 15.5284C5.11949 15.6227 5.09542 15.715 5.07307 15.8053L4.68478 15.7093L4.29649 15.6132C4.32047 15.5163 4.34618 15.4177 4.37361 15.3174L4.75944 15.4229ZM4.68478 15.7093L5.07307 15.8053L5.03832 15.9458L4.65003 15.8497L4.26173 15.7537L4.29649 15.6132L4.68478 15.7093ZM4.65003 15.8497L5.03832 15.9458L5.00357 16.0863L4.61528 15.9902L4.22699 15.8941L4.26173 15.7537L4.65003 15.8497ZM4.61528 15.9902L5.00357 16.0863C4.95893 16.2667 4.85957 16.4199 4.71451 16.5348L4.46614 16.2213L4.21778 15.9077C4.22094 15.9052 4.22268 15.9034 4.22349 15.9026C4.22428 15.9017 4.22453 15.9013 4.22454 15.9013C4.22455 15.9013 4.22473 15.901 4.22506 15.9002C4.22541 15.8994 4.22615 15.8975 4.22699 15.8941L4.61528 15.9902ZM4.46614 16.2213L4.71451 16.5348L4.60013 16.6254L4.35176 16.3119L4.10339 15.9983L4.21778 15.9077L4.46614 16.2213ZM4.35176 16.3119L4.60013 16.6254L4.48575 16.716L4.23738 16.4025L3.98901 16.0889L4.10339 15.9983L4.35176 16.3119ZM4.23738 16.4025L4.48575 16.716C4.37688 16.8023 4.25626 16.8705 4.12604 16.9215L3.98001 16.5491L3.83399 16.1767C3.89442 16.1531 3.94537 16.1235 3.98901 16.0889L4.23738 16.4025ZM3.98001 16.5491L4.12604 16.9215L3.98306 16.9776L3.83703 16.6052L3.69101 16.2328L3.83399 16.1767L3.98001 16.5491ZM3.83703 16.6052L3.98306 16.9776L3.84007 17.0337L3.69405 16.6613L3.54802 16.2889L3.69101 16.2328L3.83703 16.6052ZM3.69405 16.6613L3.84007 17.0337C3.79624 17.0509 3.75877 17.0753 3.7249 17.1092L3.44204 16.8264L3.15919 16.5435C3.27067 16.4321 3.4012 16.3465 3.54802 16.2889L3.69405 16.6613ZM3.44204 16.8264L3.7249 17.1092L3.61588 17.2182L3.33303 16.9354L3.05018 16.6526L3.15919 16.5435L3.44204 16.8264ZM3.33303 16.9354L3.61588 17.2182L3.50686 17.3272L3.22401 17.0444L2.94116 16.7616L3.05018 16.6526L3.33303 16.9354ZM3.22401 17.0444L3.50686 17.3272C3.46166 17.3725 3.42208 17.4249 3.38828 17.4862L3.03801 17.2931L2.68773 17.0999C2.75658 16.975 2.84101 16.8617 2.94116 16.7616L3.22401 17.0444ZM3.03801 17.2931L3.38828 17.4862L3.31129 17.6258L2.96101 17.4327L2.61074 17.2395L2.68773 17.0999L3.03801 17.2931ZM2.96101 17.4327L3.31129 17.6258L3.23429 17.7655L2.88402 17.5723L2.53375 17.3791L2.61074 17.2395L2.96101 17.4327ZM2.88402 17.5723L3.23429 17.7655C3.17611 17.871 3.11412 17.97 3.04801 18.062L2.72323 17.8285L2.39845 17.595C2.44407 17.5315 2.48928 17.4598 2.53375 17.3791L2.88402 17.5723ZM2.72323 17.8285L3.04801 18.062L2.96421 18.1785L2.63943 17.9451L2.31465 17.7116L2.39845 17.595L2.72323 17.8285ZM2.63943 17.9451L2.96421 18.1785L2.88041 18.2951L2.55563 18.0616L2.23085 17.8281L2.31465 17.7116L2.63943 17.9451ZM2.55563 18.0616L2.88041 18.2951C2.8811 18.2942 2.92986 18.2282 2.91647 18.1182C2.90145 17.9948 2.82381 17.9308 2.79794 17.9138L2.57833 18.2481L2.35872 18.5825C2.26185 18.5188 2.14492 18.4005 2.12233 18.2149C2.10138 18.0427 2.17429 17.9068 2.23085 17.8281L2.55563 18.0616ZM2.57833 18.2481L2.79794 17.9138L2.90443 17.9838L2.68483 18.3181L2.46522 18.6524L2.35872 18.5825L2.57833 18.2481ZM2.68483 18.3181L2.90443 17.9838L3.01093 18.0537L2.79132 18.3881L2.57172 18.7224L2.46522 18.6524L2.68483 18.3181ZM2.79132 18.3881L3.01093 18.0537C3.102 18.1136 3.19524 18.187 3.29006 18.2707L3.02533 18.5706L2.7606 18.8704C2.68541 18.8041 2.62264 18.7558 2.57172 18.7224L2.79132 18.3881ZM3.02533 18.5706L3.29006 18.2707L3.41757 18.3833L3.15284 18.6832L2.88811 18.983L2.7606 18.8704L3.02533 18.5706ZM3.15284 18.6832L3.41757 18.3833L3.54508 18.4959L3.28035 18.7957L3.01561 19.0956L2.88811 18.983L3.15284 18.6832ZM3.28035 18.7957L3.54508 18.4959C3.54206 18.4932 3.52228 18.4777 3.48702 18.4714C3.45185 18.465 3.42829 18.4726 3.42519 18.4738L3.5674 18.8476L3.7096 19.2215C3.60015 19.2631 3.47556 19.2823 3.34471 19.2586C3.21377 19.2349 3.10365 19.1733 3.01561 19.0956L3.28035 18.7957ZM3.5674 18.8476L3.42519 18.4738L3.58473 18.4131L3.72694 18.7869L3.86914 19.1608L3.7096 19.2215L3.5674 18.8476ZM3.72694 18.7869L3.58473 18.4131L3.74427 18.3524L3.88647 18.7263L4.02868 19.1001L3.86914 19.1608L3.72694 18.7869ZM3.88647 18.7263L3.74427 18.3524C3.88821 18.2976 4.10292 18.2488 4.31248 18.3501L4.13829 18.7102L3.96411 19.0703C4.00821 19.0916 4.04354 19.0918 4.05463 19.0911C4.06391 19.0905 4.0567 19.0895 4.02868 19.1001L3.88647 18.7263ZM4.13829 18.7102L4.31248 18.3501L4.40475 18.3948L4.23058 18.7548L4.05639 19.1149L3.96411 19.0703L4.13829 18.7102ZM4.23058 18.7548L4.40475 18.3948L4.49704 18.4394L4.32285 18.7995L4.14867 19.1596L4.05639 19.1149L4.23058 18.7548ZM4.32285 18.7995L4.49704 18.4394C4.52453 18.4527 4.57522 18.479 4.62386 18.5226C4.65753 18.5528 4.79975 18.6902 4.75945 18.9103C4.72194 19.115 4.55816 19.197 4.52583 19.2127C4.4716 19.2391 4.41974 19.2512 4.38954 19.2572L4.31085 18.8651L4.23215 18.4729C4.23183 18.4729 4.22701 18.4739 4.21902 18.4763C4.21174 18.4785 4.19588 18.4836 4.17558 18.4935C4.16164 18.5003 4.00804 18.5723 3.97254 18.7661C3.93424 18.9753 4.07027 19.1007 4.08956 19.118C4.10899 19.1355 4.12536 19.1461 4.13319 19.1509C4.14177 19.1562 4.14748 19.159 4.14867 19.1596L4.32285 18.7995ZM4.31085 18.8651L4.38954 19.2572L4.28525 19.2782L4.20656 18.886L4.12787 18.4938L4.23215 18.4729L4.31085 18.8651ZM4.20656 18.886L4.28525 19.2782L4.18097 19.2991L4.10227 18.9069L4.02358 18.5147L4.12787 18.4938L4.20656 18.886ZM4.10227 18.9069L4.18097 19.2991C4.14848 19.3056 4.09689 19.3213 4.02303 19.3538L3.8619 18.9877L3.70076 18.6216C3.80836 18.5743 3.91702 18.5361 4.02358 18.5147L4.10227 18.9069ZM3.8619 18.9877L4.02303 19.3538L3.88694 19.4137L3.72581 19.0476L3.56468 18.6815L3.70076 18.6216L3.8619 18.9877ZM3.72581 19.0476L3.88694 19.4137L3.75085 19.4736L3.58972 19.1075L3.42859 18.7414L3.56468 18.6815L3.72581 19.0476ZM3.58972 19.1075L3.75085 19.4736C3.71515 19.4893 3.67059 19.5183 3.61881 19.5718L3.33154 19.2934L3.04426 19.0151C3.15527 18.9005 3.28283 18.8055 3.42859 18.7414L3.58972 19.1075ZM3.33154 19.2934L3.61881 19.5718L3.49672 19.6978L3.20944 19.4194L2.92217 19.1411L3.04426 19.0151L3.33154 19.2934ZM3.20944 19.4194L3.49672 19.6978L3.37462 19.8238L3.08735 19.5454L2.80008 19.2671L2.92217 19.1411L3.20944 19.4194ZM3.08735 19.5454L3.37462 19.8238C3.24748 19.955 3.08979 20.0538 2.90204 20.0941L2.81816 19.703L2.73427 19.3119C2.74266 19.3101 2.76443 19.3039 2.80008 19.2671L3.08735 19.5454ZM2.81816 19.703L2.90204 20.0941L2.75494 20.1257L2.67105 19.7345L2.58717 19.3434L2.73427 19.3119L2.81816 19.703ZM2.67105 19.7345L2.75494 20.1257L2.60783 20.1572L2.52395 19.7661L2.44007 19.375L2.58717 19.3434L2.67105 19.7345ZM2.52395 19.7661L2.60783 20.1572C2.4396 20.1933 2.27058 20.1833 2.10748 20.1399L2.21036 19.7533L2.31324 19.3668C2.37212 19.3825 2.41216 19.381 2.44007 19.375L2.52395 19.7661ZM2.21036 19.7533L2.10748 20.1399L1.94099 20.0956L2.04387 19.709L2.14676 19.3225L2.31324 19.3668L2.21036 19.7533ZM2.04387 19.709L1.94099 20.0956L1.7745 20.0512L1.87738 19.6647L1.98027 19.2782L2.14676 19.3225L2.04387 19.709ZM1.87738 19.6647L1.7745 20.0512C1.76478 20.0487 1.77283 20.0525 1.79247 20.049C1.80201 20.0474 1.8119 20.0443 1.82129 20.04C1.8306 20.0357 1.83733 20.0312 1.84145 20.0279L1.59205 19.7152L1.34264 19.4024C1.53521 19.2489 1.76551 19.221 1.98027 19.2782L1.87738 19.6647ZM1.59205 19.7152L1.84145 20.0279L1.72261 20.1227L1.47321 19.8099L1.2238 19.4972L1.34264 19.4024L1.59205 19.7152ZM1.47321 19.8099L1.72261 20.1227L1.60377 20.2175L1.35436 19.9047L1.10495 19.592L1.2238 19.4972L1.47321 19.8099ZM1.35436 19.9047L1.60377 20.2175C1.57886 20.2373 1.56444 20.2577 1.5545 20.2834L1.18153 20.1388L0.808563 19.9943C0.870602 19.8342 0.971401 19.6985 1.10495 19.592L1.35436 19.9047ZM1.18153 20.1388L1.5545 20.2834L1.50051 20.4226L1.12754 20.2781L0.754578 20.1336L0.808563 19.9943L1.18153 20.1388ZM1.12754 20.2781L1.50051 20.4226L1.44653 20.5619L1.07356 20.4174L0.700592 20.2728L0.754578 20.1336L1.12754 20.2781ZM1.07356 20.4174L1.44653 20.5619C1.39161 20.7036 1.31091 20.8308 1.2072 20.9417L0.915005 20.6685L0.622818 20.3954C0.658527 20.3572 0.683533 20.3169 0.700592 20.2728L1.07356 20.4174ZM0.915005 20.6685L1.2072 20.9417L1.10262 21.0536L0.810436 20.7804L0.51825 20.5072L0.622818 20.3954L0.915005 20.6685ZM0.810436 20.7804L1.10262 21.0536L0.998055 21.1654L0.705868 20.8922L0.413681 20.619L0.51825 20.5072L0.810436 20.7804ZM0.705868 20.8922L0.998055 21.1654C0.975826 21.1892 0.965157 21.211 0.959595 21.2361L0.569065 21.1496L0.178535 21.063C0.21595 20.8942 0.296478 20.7444 0.413681 20.619L0.705868 20.8922ZM0.569065 21.1496L0.959595 21.2361L0.927361 21.3816L0.536831 21.2951L0.146301 21.2085L0.178535 21.063L0.569065 21.1496ZM0.536831 21.2951L0.927361 21.3816L0.89513 21.5271L0.504597 21.4405L0.114067 21.354L0.146301 21.2085L0.536831 21.2951ZM0.504597 21.4405L0.89513 21.5271C0.876492 21.6112 0.86129 21.6995 0.849701 21.7922L0.452793 21.7425L0.0558853 21.6929C0.0703964 21.5769 0.0897293 21.4639 0.114067 21.354L0.504597 21.4405ZM0.452793 21.7425L0.849701 21.7922L0.830132 21.9487L0.433224 21.899L0.0363159 21.8494L0.0558853 21.6929L0.452793 21.7425ZM0.433224 21.899L0.830132 21.9487L0.810558 22.1052L0.413651 22.0555L0.0167465 22.0059L0.0363159 21.8494L0.433224 21.899ZM0.413651 22.0555L0.810558 22.1052C0.800243 22.1877 0.797745 22.263 0.801773 22.3319L0.402458 22.3553L0.00313568 22.3786C-0.00400543 22.2565 0.000961304 22.1321 0.0167465 22.0059L0.413651 22.0555ZM0.402458 22.3553L0.801773 22.3319L0.81015 22.4751L0.410831 22.4985L0.0115128 22.5218L0.00313568 22.3786L0.402458 22.3553ZM0.410831 22.4985L0.81015 22.4751L0.818527 22.6184L0.419209 22.6417L0.0198898 22.6651L0.0115128 22.5218L0.410831 22.4985ZM0.419209 22.6417L0.818527 22.6184C0.820511 22.6522 0.831291 22.7025 0.864304 22.772L0.503029 22.9437L0.141754 23.1154C0.074173 22.9732 0.0290756 22.8221 0.0198898 22.6651L0.419209 22.6417ZM0.503029 22.9437L0.864304 22.772L0.939747 22.9307L0.578472 23.1024L0.217201 23.2741L0.141754 23.1154L0.503029 22.9437ZM0.578472 23.1024L0.939747 22.9307L1.01519 23.0894L0.653919 23.2612L0.292641 23.4329L0.217201 23.2741L0.578472 23.1024ZM0.653919 23.2612L1.01519 23.0894C1.06988 23.2045 1.14984 23.4046 1.09047 23.6118L0.705936 23.5016L0.321411 23.3915C0.312782 23.4216 0.31131 23.446 0.311501 23.4611C0.311691 23.476 0.313545 23.4846 0.313683 23.4852C0.313866 23.486 0.313026 23.482 0.309547 23.4724C0.306114 23.463 0.300743 23.4499 0.292641 23.4329L0.653919 23.2612ZM0.705936 23.5016L1.09047 23.6118L1.06704 23.6936L0.682514 23.5834L0.297989 23.4732L0.321411 23.3915L0.705936 23.5016ZM0.682514 23.5834L1.06704 23.6936L1.04362 23.7753L0.659088 23.6651L0.274567 23.555L0.297989 23.4732L0.682514 23.5834ZM0.659088 23.6651L1.04362 23.7753C1.0298 23.8235 1.00248 23.9027 0.94331 23.9763C0.874615 24.0618 0.745056 24.1562 0.56583 24.1428L0.595779 23.7439L0.625729 23.345C0.559151 23.34 0.492405 23.3535 0.433369 23.3836C0.37756 23.4119 0.34111 23.4486 0.319794 23.4751C0.298729 23.5013 0.287384 23.5238 0.282227 23.5351C0.276779 23.5471 0.274673 23.5546 0.274567 23.555L0.659088 23.6651ZM0.595779 23.7439L0.56583 24.1428L0.525948 24.1398L0.555897 23.7409L0.585842 23.342L0.625729 23.345L0.595779 23.7439ZM0.555897 23.7409L0.223373 23.9632L0.152794 23.8577L0.485313 23.6353L0.817837 23.413L0.888416 23.5186L0.555897 23.7409ZM0.485313 23.6353L0.883621 23.6721L0.874432 23.7717L0.476124 23.7349L0.0778198 23.6982L0.0870056 23.5986L0.485313 23.6353Z" fill="#7E8B69"/>
</svg>
