<svg width="65" height="25" viewBox="0 0 65 25" fill="none" xmlns="http://www.w3.org/2000/svg">
<path d="M1.22355 21.2007C0.996647 21.2437 0.860252 21.2437 0.838342 21.2437L64.3181 23.7349C64.3096 23.6222 64.3014 23.5127 64.2713 23.4107C64.2412 23.3087 64.1908 23.2168 64.1502 23.1169C64.0561 22.5056 64.4072 21.7392 64.2931 21.306C64.1934 20.9272 63.9965 20.4691 63.5939 19.9516C63.4497 19.7663 59.2222 18.979 60.405 18.7737C60.696 18.7232 61.5367 18.7987 62.1937 18.3893C62.3088 18.3176 62.3929 18.2301 62.3613 18.1561C62.2942 17.9986 62.1701 17.8061 61.9776 17.6087C61.377 16.9926 60.323 16.5003 60.136 16.0534C59.9544 15.6196 60.1205 14.3962 59.4537 13.8232C59.3365 13.7225 59.1664 13.7146 59.0368 13.7503C58.8095 13.8131 58.4824 14.2361 57.9557 14.5189C57.857 14.5719 57.7524 14.5932 57.643 14.5466C57.0935 14.3129 56.4157 14.0574 56.2212 13.5004C55.9827 12.8174 55.3259 11.996 55.4295 11.6219C55.5252 11.2762 56.1309 10.8345 55.8123 10.1603C55.6151 9.74302 55.1823 9.61351 54.9769 9.25228C54.872 9.06792 54.8145 8.82065 54.724 8.5039C54.5233 7.80236 54.2887 7.37555 53.8896 7.2051C53.52 7.04731 52.9197 6.92767 52.3975 7.00791C51.9122 7.08247 51.5556 7.34089 51.172 7.29017C50.7552 7.23504 48.2552 7.71336 46.9118 6.15753C46.6777 5.88639 46.7679 5.28609 46.4143 4.93196C46.2734 4.79089 45.6269 4.90299 44.916 4.54405C44.4537 4.31063 44.1484 3.93123 43.8171 3.63968C43.6725 3.51238 43.4868 3.43523 42.5305 3.42369C40.1183 3.39457 38.375 3.32082 38.164 3.47258C37.9846 3.60161 37.8398 4.18529 37.462 4.98031C36.9681 6.01957 36.6291 6.76536 35.966 6.81647C35.4768 6.85419 35.0426 6.92303 34.8785 6.7828C34.5269 6.48252 34.4451 5.92156 33.8983 5.43064C32.7469 4.3971 31.8277 3.62859 30.6244 3.46864C29.5326 3.32352 28.9807 3.23676 28.7429 2.76664C28.3633 2.01628 28.0383 0.946216 27.5796 0.811352C27.2637 0.71848 26.0491 0.742794 24.4389 0.642468C23.612 0.590949 22.7992 0.28808 21.9904 0.570488C21.1907 0.849677 19.8145 2.10153 18.527 2.55491C17.5084 2.91359 16.6412 3.03732 16.5941 3.48086C16.5623 3.78162 17.0084 4.6561 16.701 6.47881C16.6489 6.78776 16.5505 6.8137 16.4201 6.83218C16.134 6.87274 15.6358 6.81921 15.394 7.16288C15.1403 7.52344 14.911 8.31357 14.3399 8.48502C13.7156 8.67248 12.865 8.81277 12.3697 8.92429C11.5387 9.11136 10.2475 9.46364 9.92019 9.84204C9.77351 10.0116 9.6885 10.2099 9.58623 10.5382C9.20246 11.7702 8.85924 12.9969 8.35822 13.0615C8.13872 13.0898 7.79574 12.7391 6.5061 12.5002C5.55502 12.324 4.08393 12.1999 3.95195 12.644C3.80591 13.1354 3.6469 13.6321 2.79683 14.2873C2.33035 14.6469 1.55203 15.0237 1.16576 15.5501C0.682017 16.2093 0.283911 16.7309 0.497199 17.3348C0.676193 17.8416 0.95325 18.247 1.1587 18.5537C1.54355 19.1281 1.80563 20.3177 1.45296 20.9735C1.40004 21.0719 1.33211 21.1802 1.22355 21.2007Z" fill="#BCC597"/>
<path d="M0.441764 21.1915C0.41293 21.4105 0.56711 21.6114 0.786134 21.6403C1.00516 21.6691 1.20609 21.5149 1.23492 21.2959L0.838342 21.2437L0.441764 21.1915ZM0.851394 21.1445L0.747604 20.7582L0.489674 20.8275L0.454816 21.0923L0.851394 21.1445ZM1.41897 20.9014L1.12226 20.6331L1.41897 20.9014ZM1.52721 20.7817L1.2305 20.5134L1.52721 20.7817ZM1.68982 20.3888L2.06721 20.2563L1.68982 20.3888ZM1.58206 20.082L1.20466 20.2146L1.58206 20.082ZM1.42897 19.6534L1.05266 19.789L1.42897 19.6534ZM1.37937 19.5157L1.75567 19.3801L1.37937 19.5157ZM1.3206 19.2253L1.71988 19.2014V19.2014L1.3206 19.2253ZM1.30228 18.9198L0.902997 18.9438V18.9438L1.30228 18.9198ZM1.21533 18.6387L1.55744 18.4314L1.21533 18.6387ZM1.05977 18.3819L0.717657 18.5892L1.05977 18.3819ZM0.870121 18.1423L0.588126 18.426V18.426L0.870121 18.1423ZM0.646399 17.9199L0.928394 17.6363H0.928394L0.646399 17.9199ZM0.494145 17.6563L0.107489 17.7588L0.494145 17.6563ZM0.453751 17.5039L0.840407 17.4014L0.453751 17.5039ZM0.413358 17.3514L0.800013 17.249L0.413358 17.3514ZM0.535028 16.9298L0.192327 16.7235L0.535028 16.9298ZM0.61606 16.7951L0.958761 17.0014L0.61606 16.7951ZM0.65245 16.1349L0.253885 16.1688L0.65245 16.1349ZM0.750929 15.854L1.02374 16.1466L0.750929 15.854ZM0.86429 15.7483L0.59148 15.4558L0.86429 15.7483ZM0.97765 15.6426L1.25046 15.9351L0.97765 15.6426ZM1.33718 15.1154L0.991773 14.9136L1.33718 15.1154ZM1.58476 14.9429L1.50881 14.5501L1.58476 14.9429ZM1.9158 14.8788L1.99175 15.2716L1.9158 14.8788ZM2.19624 14.7487L1.93654 14.4445L2.19624 14.7487ZM2.42606 14.5525L2.68576 14.8568L2.42606 14.5525ZM2.6476 14.3496L2.92807 14.6348L2.6476 14.3496ZM2.86083 14.1399L2.58035 13.8547L2.86083 14.1399ZM3.04177 13.908L3.38704 14.1099L3.04177 13.908ZM3.11608 13.7809L3.46136 13.9829L3.11608 13.7809ZM3.1904 13.6539L2.84513 13.4519L3.1904 13.6539ZM3.43091 13.4563L3.58713 13.8245L3.43091 13.4563ZM3.76328 13.3153L3.60707 12.9471L3.76328 13.3153ZM3.88796 13.0582L4.27841 12.9713L3.88796 13.0582ZM3.80492 12.685L3.41447 12.7719L3.80492 12.685ZM3.94638 12.4628L4.02271 12.8555L3.94638 12.4628ZM4.79722 12.2809L4.70049 11.8927L4.79722 12.2809ZM4.94819 12.2432L5.04493 12.6314L4.94819 12.2432ZM5.24269 12.2996L5.46183 11.965L5.24269 12.2996ZM5.52976 12.4876L5.31062 12.8222L5.52976 12.4876ZM5.83666 12.4937L6.0262 12.8459L5.83666 12.4937ZM6.16341 12.3179L5.97387 11.9656L6.16341 12.3179ZM6.47097 12.2894L6.62337 11.9195L6.47097 12.2894ZM6.75936 12.4082L6.60697 12.778L6.75936 12.4082ZM7.0464 12.5207L6.90701 12.8956L7.0464 12.5207ZM7.18924 12.5738L7.32863 12.1989L7.18924 12.5738ZM7.33208 12.6269L7.47147 12.252L7.33208 12.6269ZM7.6197 12.7263L7.49786 13.1073L7.6197 12.7263ZM7.90927 12.8189L8.03111 12.4379L7.90927 12.8189ZM8.21305 12.926L8.35591 12.5524L8.21305 12.926ZM8.37205 12.9868L8.22919 13.3605L8.37205 12.9868ZM8.53105 13.0476L8.67391 12.674L8.53105 13.0476ZM8.73953 12.9469L9.12198 13.0641L8.73953 12.9469ZM8.789 12.7854L8.40655 12.6682L8.789 12.7854ZM8.83848 12.6239L9.22094 12.7411V12.7411L8.83848 12.6239ZM8.94103 12.323L8.56722 12.1807L8.94103 12.323ZM9.04718 12.0443L9.421 12.1866L9.04718 12.0443ZM9.43409 11.5406L9.13919 11.2704L9.43409 11.5406ZM9.50608 11.2494L9.89578 11.1592L9.50608 11.2494ZM9.4275 10.9099L9.0378 11L9.4275 10.9099ZM9.46332 10.606L9.11436 10.4105L9.46332 10.606ZM9.61353 10.3379L9.96249 10.5334L9.61353 10.3379ZM9.7959 10.1092L10.0606 10.409L9.7959 10.1092ZM10.0104 9.91979L9.74568 9.61992L10.0104 9.91979ZM10.2261 9.71555L9.94172 9.43421L10.2261 9.71555ZM10.4428 9.49645L10.7272 9.77778L10.4428 9.49645ZM10.6927 9.33224L10.5485 8.95912L10.6927 9.33224ZM10.8342 9.27758L10.9783 9.6507L10.8342 9.27758ZM10.9756 9.22293L11.1198 9.59604L10.9756 9.22293ZM11.2826 9.20321L11.3652 8.81184L11.2826 9.20321ZM11.6136 9.27309L11.531 9.66447L11.6136 9.27309ZM11.8991 9.1691L12.2019 9.43054L11.8991 9.1691ZM12.1391 8.89124L11.8364 8.6298L12.1391 8.89124ZM12.426 8.8161L12.2832 9.18975V9.18975L12.426 8.8161ZM12.7599 8.9437L12.9027 8.57005V8.57005L12.7599 8.9437ZM13.0714 8.96276L12.9531 8.58065L13.0714 8.96276ZM13.3604 8.87328L13.2421 8.49117L13.3604 8.87328ZM13.6301 8.7077L13.3524 8.41987L13.6301 8.7077ZM13.8806 8.46602L13.6028 8.17819L13.8806 8.46602ZM14.1247 8.30156L13.987 7.92602L14.1247 8.30156ZM14.3626 8.21431L14.5003 8.58984L14.3626 8.21431ZM14.6369 8.11472L14.5014 7.73838L14.6369 8.11472ZM14.7923 8.05875L14.9279 8.43509L14.7923 8.05875ZM14.9477 8.00279L15.0833 8.37912L14.9477 8.00279ZM15.146 7.79781L14.7615 7.68734L15.146 7.79781ZM15.1888 7.64879L15.5732 7.75926L15.1888 7.64879ZM15.2316 7.49978L15.616 7.61025L15.2316 7.49978ZM15.3768 7.24362L15.0877 6.96723L15.3768 7.24362ZM15.4793 7.13646L15.7684 7.41286L15.4793 7.13646ZM15.5817 7.02931L15.2925 6.75292L15.5817 7.02931ZM15.8341 6.91459L15.8543 7.31408L15.8341 6.91459ZM16.1341 6.89944L16.1139 6.49995L16.1341 6.89944ZM16.41 6.80243L16.1785 6.47625L16.41 6.80243ZM16.662 6.62356L16.4305 6.29738L16.662 6.62356ZM16.8285 6.38501L16.4424 6.28031L16.8285 6.38501ZM16.8689 6.2359L17.255 6.34059L16.8689 6.2359ZM16.9094 6.08678L17.2954 6.19148V6.19148L16.9094 6.08678ZM16.8801 5.78333L17.2447 5.61875L16.8801 5.78333ZM16.7408 5.47465L16.3762 5.63924L16.7408 5.47465ZM16.6943 5.17141L17.0896 5.2331L16.6943 5.17141ZM16.7176 5.02251L16.3224 4.96082L16.7176 5.02251ZM16.7408 4.87361L16.3456 4.81192L16.7408 4.87361ZM16.6968 4.58557L17.0569 4.41143L16.6968 4.58557ZM16.6295 4.44643L16.2694 4.62057L16.6295 4.44643ZM16.5622 4.30729L16.9223 4.13315L16.5622 4.30729ZM16.7213 3.42412L16.384 3.20908L16.7213 3.42412ZM16.8646 3.19928L17.2019 3.41432L16.8646 3.19928ZM17.0763 3.03214L16.9308 2.65957L17.0763 3.03214ZM17.2164 2.97743L17.0708 2.60486L17.2164 2.97743ZM17.3564 2.92271L17.502 3.29528L17.3564 2.92271ZM17.6312 2.79611L17.8195 3.14902L17.6312 2.79611ZM17.7659 2.72423L17.5776 2.37132L17.7659 2.72423ZM17.9006 2.65235L18.0889 3.00526L17.9006 2.65235ZM18.1795 2.54379L18.2781 2.93144L18.1795 2.54379ZM18.468 2.47041L18.3693 2.08276L18.468 2.47041ZM18.752 2.38315L18.6159 2.007L18.752 2.38315ZM18.8918 2.33258L18.7558 1.95642L18.8918 2.33258ZM19.0317 2.282L19.1677 2.65816L19.0317 2.282ZM19.3052 2.16384L19.4857 2.52079L19.3052 2.16384ZM19.4388 2.09625L19.2583 1.73929L19.4388 2.09625ZM19.8216 1.86373L19.5637 1.55795L19.8216 1.86373ZM20.0524 1.66906L20.3103 1.97484L20.0524 1.66906ZM20.2817 1.47257L20.0191 1.17088L20.2817 1.47257ZM20.7515 1.09525L20.54 0.755765L20.7515 1.09525ZM21.4117 0.720429L21.2355 0.361327L21.4117 0.720429ZM21.5495 0.652805L21.7257 1.01191L21.5495 0.652805ZM21.848 0.601353L21.8881 0.203363L21.848 0.601353ZM22.4711 0.627874L22.5328 1.02309V1.02309L22.4711 0.627874ZM22.753 0.583881L22.6913 0.188665V0.188665L22.753 0.583881ZM23.0492 0.517818L23.1584 0.902626L23.0492 0.517818ZM23.2045 0.473752L23.3137 0.85856L23.2045 0.473752ZM23.3598 0.429686L23.2506 0.0448782V0.0448782L23.3598 0.429686ZM23.6629 0.406566L23.719 0.010521L23.6629 0.406566ZM23.9586 0.448459L23.9025 0.844504L23.9586 0.448459ZM24.2512 0.523006L24.1122 0.898095L24.2512 0.523006ZM24.5406 0.630208L24.6795 0.255118L24.5406 0.630208ZM24.8343 0.708943L24.7679 1.10338L24.8343 0.708943ZM25.1325 0.75921L25.199 0.364775L25.1325 0.75921ZM25.4315 0.800184L25.4735 0.4024V0.4024L25.4315 0.800184ZM25.7311 0.831862L25.6891 1.22965V1.22965L25.7311 0.831862ZM26.0305 0.863563L26.0727 0.465795L26.0305 0.863563ZM26.18 0.879425L26.1378 1.27719L26.18 0.879425ZM26.3296 0.895287L26.2874 1.29306L26.3296 0.895287ZM26.6292 0.896827L26.6672 1.29502L26.6292 0.896827ZM26.9293 0.868184L26.8913 0.469994L26.9293 0.868184ZM27.2109 0.881648L27.2935 0.490278L27.2109 0.881648ZM27.4741 0.937219L27.3914 1.32859L27.4741 0.937219ZM27.6679 1.07882L27.317 1.27081L27.6679 1.07882ZM27.7925 1.30646L28.1434 1.11448L27.7925 1.30646ZM27.9817 1.52109L27.7329 1.83432L27.9817 1.52109ZM28.1086 1.62189L28.3574 1.30866L28.1086 1.62189ZM28.2355 1.7227L27.9867 2.03593L28.2355 1.7227ZM28.4548 1.94658L28.7747 1.70656L28.4548 1.94658ZM28.6394 2.19271L28.3194 2.43273L28.6394 2.19271ZM28.7739 2.45502L28.3912 2.57117L28.7739 2.45502ZM28.8584 2.73349L29.2412 2.61735L28.8584 2.73349ZM29.0156 2.95148L28.7895 3.28143L29.0156 2.95148ZM29.1305 3.03022L28.9044 3.36017L29.1305 3.03022ZM29.2454 3.10896L29.0193 3.43891L29.2454 3.10896ZM29.506 3.21217L29.5722 2.81769L29.506 3.21217ZM29.6516 3.23662L29.5854 3.6311L29.6516 3.23662ZM29.7973 3.26108L29.731 3.65556L29.7973 3.26108ZM30.6692 3.44987L30.8885 3.11538L30.6692 3.44987ZM30.803 3.5376L31.0223 3.20311L30.803 3.5376ZM30.9367 3.62533L30.7174 3.95982L30.9367 3.62533ZM31.2271 3.71676L31.2365 3.31687L31.2271 3.71676ZM31.5403 3.72414L31.5309 4.12403L31.5403 3.72414ZM31.8237 3.81074L32.0426 3.47598L31.8237 3.81074ZM32.0772 3.97654L31.8582 4.3113L32.0772 3.97654ZM32.3298 4.1417L32.5486 3.80682L32.3298 4.1417ZM32.4558 4.22396L32.237 4.55884L32.4558 4.22396ZM32.5817 4.30622L32.8004 3.97134L32.5817 4.30622ZM32.8199 4.48845L33.0859 4.18966L32.8199 4.48845ZM33.0446 4.68841L32.7786 4.9872L33.0446 4.68841ZM33.2435 4.91676L33.5751 4.693L33.2435 4.91676ZM33.3302 5.04512L32.9986 5.26887L33.3302 5.04512ZM33.4168 5.17349L33.7484 4.94973L33.4168 5.17349ZM33.6845 5.33294L33.6168 5.72717L33.6845 5.33294ZM33.8655 5.36402L33.9332 4.96979L33.8655 5.36402ZM34.0466 5.39511L33.9789 5.78934L34.0466 5.39511ZM34.227 5.61325L33.827 5.61186L34.227 5.61325ZM34.2257 5.98738L34.6257 5.98877L34.2257 5.98738ZM34.3077 6.30495L33.9698 6.51895L34.3077 6.30495ZM34.3904 6.43546L34.7283 6.22147L34.3904 6.43546ZM34.473 6.56597L34.135 6.77997L34.473 6.56597ZM34.7172 6.736L34.6221 7.12454L34.7172 6.736ZM35.3476 6.80591L35.2211 6.42645L35.3476 6.80591ZM35.6393 6.70865L35.7658 7.0881L35.6393 6.70865ZM35.9092 6.62914L36.0058 7.0173L35.9092 6.62914ZM36.3681 6.4375L36.6689 6.70119L36.3681 6.4375ZM36.5417 6.23948L36.241 5.97579L36.5417 6.23948ZM36.7849 6.06032L36.9674 6.41629L36.7849 6.06032ZM37.0977 5.90002L36.9153 5.54405L37.0977 5.90002ZM37.2889 5.66854L37.6787 5.75817L37.2889 5.66854ZM37.3237 5.51719L37.7135 5.60683L37.3237 5.51719ZM37.3585 5.36585L37.7483 5.45549L37.3585 5.36585ZM37.477 5.08689L37.1425 4.86753L37.477 5.08689ZM37.6444 4.83165L37.9789 5.05101L37.6444 4.83165ZM37.7561 4.5527L37.3628 4.47984L37.7561 4.5527ZM37.8122 4.25004L38.2055 4.3229L37.8122 4.25004ZM37.9145 3.97083L38.2604 4.17167L37.9145 3.97083ZM38.063 3.71508L37.717 3.51423L38.063 3.71508ZM38.2608 3.48922L38.5093 3.80265L38.2608 3.48922ZM38.5079 3.29328L38.2594 2.97985L38.5079 3.29328ZM38.7844 3.29396L39.0012 2.95778L38.7844 3.29396ZM39.0905 3.49127L38.8737 3.82745L39.0905 3.49127ZM39.3934 3.51495L39.5723 3.87272L39.3934 3.51495ZM39.6933 3.36501L39.5144 3.00724L39.6933 3.36501ZM39.9929 3.31904L40.069 2.92635L39.9929 3.31904ZM40.1425 3.34804L40.0664 3.74074L40.1425 3.34804ZM40.5917 3.41785L40.6231 3.01908L40.5917 3.41785ZM40.7416 3.42964L40.7103 3.82841L40.7416 3.42964ZM40.8915 3.44143L40.9229 3.04266L40.8915 3.44143ZM41.1925 3.39304L41.0444 3.02146L41.1925 3.39304ZM41.4945 3.27268L41.6426 3.64425L41.4945 3.27268ZM41.7946 3.26593L41.9295 2.88938L41.7946 3.26593ZM41.9436 3.31937L42.0786 2.94282L41.9436 3.31937ZM42.0927 3.3728L41.9578 3.74935L42.0927 3.3728ZM42.3917 3.43695L42.4202 3.03797L42.3917 3.43695ZM42.6913 3.45838L42.7199 3.0594V3.0594L42.6913 3.45838ZM42.9809 3.52902L42.8231 3.89661L42.9809 3.52902ZM43.1205 3.58895L42.9628 3.95654L43.1205 3.58895ZM43.2602 3.64889L43.1025 4.01648L43.2602 3.64889ZM43.5539 3.70624L43.5606 4.10619L43.5539 3.70624ZM43.7079 3.70367L43.7012 3.30372L43.7079 3.70367ZM43.8619 3.70109L43.8552 3.30115L43.8619 3.70109ZM44.1195 3.80632L43.8311 4.08347L44.1195 3.80632ZM44.3267 4.02192L44.6151 3.74477L44.3267 4.02192ZM44.5315 4.24765L44.2281 4.50826L44.5315 4.24765ZM44.7341 4.48353L45.0375 4.22292L44.7341 4.48353ZM44.9749 4.67666L45.1647 4.32452L44.9749 4.67666ZM45.2541 4.82707L45.0644 5.17921L45.2541 4.82707ZM45.5488 4.91446L45.5801 4.51569L45.5488 4.91446ZM45.7039 4.92665L45.6725 5.32542L45.7039 4.92665ZM45.859 4.93884L45.8903 4.54007L45.859 4.93884ZM46.1547 4.97849L46.078 5.37107L46.1547 4.97849ZM46.4359 5.03341L46.5126 4.64082L46.4359 5.03341ZM46.642 5.20257L47.0051 5.03477L46.642 5.20257ZM46.7075 5.34429L46.3444 5.51209V5.51209L46.7075 5.34429ZM46.773 5.486L47.1361 5.31819L46.773 5.486ZM46.9 5.74033L46.5488 5.93193L46.9 5.74033ZM46.9614 5.85295L47.3125 5.66135L46.9614 5.85295ZM47.0229 5.96557L46.6717 6.15717L47.0229 5.96557ZM47.1339 6.24684L47.5177 6.13401L47.1339 6.24684ZM47.2331 6.58414L46.8493 6.69697L47.2331 6.58414ZM47.4591 6.74912L47.4507 6.3492L47.4591 6.74912ZM47.8119 6.74177L47.8036 6.34186L47.8119 6.74177ZM48.1147 6.81238L47.9121 7.15726L48.1147 6.81238ZM48.2411 6.88667L48.4438 6.5418L48.2411 6.88667ZM48.3676 6.96095L48.1649 7.30583L48.3676 6.96095ZM48.6383 7.06345L48.5616 7.45602L48.6383 7.06345ZM48.7826 7.09166L48.7059 7.48423L48.7826 7.09166ZM48.9269 7.11987L49.0037 6.7273L48.9269 7.11987ZM49.2163 7.19435L49.3379 6.81327L49.2163 7.19435ZM49.5065 7.2869L49.3849 7.66798L49.5065 7.2869ZM49.8015 7.31092L49.7428 6.91525L49.8015 7.31092ZM50.1015 7.26641L50.1602 7.66208L50.1015 7.26641ZM50.403 7.28124L50.4981 6.89271L50.403 7.28124ZM50.706 7.3554L50.6109 7.74394L50.706 7.3554ZM51.0045 7.35798L51.0959 7.74741L51.0045 7.35798ZM51.2986 7.28898L51.2072 6.89956L51.2986 7.28898ZM51.6069 7.26865L51.5719 7.66711L51.6069 7.26865ZM51.7682 7.28282L51.8032 6.88435L51.7682 7.28282ZM51.9295 7.29699L51.9645 6.89852L51.9295 7.29699ZM52.2182 7.18778L52.4965 7.47506L52.2182 7.18778ZM52.3455 7.06439L52.0672 6.77711L52.3455 7.06439ZM52.4729 6.94101L52.1945 6.65373L52.4729 6.94101ZM52.7434 6.92423L52.5046 7.24509L52.7434 6.92423ZM53.0298 7.13742L53.2687 6.81655L53.0298 7.13742ZM53.3108 7.26797L53.2423 7.66206L53.3108 7.26797ZM53.4486 7.29193L53.3801 7.68602L53.4486 7.29193ZM53.5864 7.31589L53.6549 6.9218L53.5864 7.31589ZM53.9057 7.34491L53.9169 6.94507L53.9057 7.34491ZM54.0873 7.34998L54.0761 7.74983L54.0873 7.34998ZM54.2688 7.35505L54.2577 7.7549L54.2688 7.35505ZM54.5157 7.51177L54.1483 7.66991L54.5157 7.51177ZM54.6462 7.81507L55.0136 7.65692L54.6462 7.81507ZM54.7197 8.12444L55.1191 8.10372L54.7197 8.12444ZM54.7279 8.28216L55.1273 8.26144L54.7279 8.28216ZM54.736 8.43989L54.3366 8.46061L54.736 8.43989ZM54.743 8.76203L55.1429 8.76512L54.743 8.76203ZM54.7404 9.09086L54.3404 9.08777L54.7404 9.09086ZM54.88 9.35087L55.1046 9.01988L54.88 9.35087ZM55.1617 9.54204L55.3863 9.21105L55.1617 9.54204ZM55.3993 9.74683L55.6988 9.48164L55.3993 9.74683ZM55.496 9.85603L55.7955 9.59085L55.496 9.85603ZM55.5927 9.96523L55.2933 10.2304L55.5927 9.96523ZM55.7356 10.2069L55.3578 10.3385L55.7356 10.2069ZM55.8279 10.4719L56.2056 10.3403L55.8279 10.4719ZM55.836 10.7485L55.4493 10.6463L55.836 10.7485ZM55.7598 11.0366L56.1465 11.1389L55.7598 11.0366ZM55.6232 11.3068L55.9383 11.5532L55.6232 11.3068ZM55.426 11.5589L55.1109 11.3126L55.426 11.5589ZM55.3712 11.8398L54.9863 11.9487L55.3712 11.8398ZM55.4588 12.1495L55.8437 12.0406L55.4588 12.1495ZM55.5478 12.4516L55.1654 12.5691L55.5478 12.4516ZM55.6383 12.7461L55.256 12.8636L55.6383 12.7461ZM55.807 12.9976L55.549 13.3032L55.807 12.9976ZM55.9304 13.1018L56.1885 12.7962L55.9304 13.1018ZM56.0539 13.206L55.7958 13.5117L56.0539 13.206ZM56.4195 14.0705L56.2037 14.4073L56.4195 14.0705ZM56.6963 14.2478L56.4806 14.5847L56.6963 14.2478ZM56.9701 14.4113L56.7767 14.7614L56.9701 14.4113ZM57.1054 14.4861L57.2989 14.136L57.1054 14.4861ZM57.2408 14.5608L57.4342 14.2107L57.2408 14.5608ZM57.5375 14.6034L57.4593 14.2111L57.5375 14.6034ZM57.699 14.5712L57.7772 14.9635L57.699 14.5712ZM57.8604 14.539L57.7821 14.1467L57.8604 14.539ZM58.1127 14.3805L58.4374 14.6141L58.1127 14.3805ZM58.2943 14.1281L57.9695 13.8945L58.2943 14.1281ZM58.5117 13.904L58.7563 14.2205L58.5117 13.904ZM58.765 13.7082L59.0096 14.0247L58.765 13.7082ZM59.0436 13.6846L58.8681 14.044L59.0436 13.6846ZM59.1957 13.7589L59.0201 14.1183L59.1957 13.7589ZM59.3477 13.8331L59.5233 13.4737L59.3477 13.8331ZM59.6123 14.018L59.8927 13.7328L59.6123 14.018ZM59.8374 14.2393L59.557 14.5246L59.8374 14.2393ZM59.9412 14.5087L59.5418 14.4868L59.9412 14.5087ZM59.9237 14.8263L60.3231 14.8482L59.9237 14.8263ZM59.9549 15.131L60.3408 15.0255V15.0255L59.9549 15.131ZM60.0347 15.4229L59.6489 15.5284V15.5284L60.0347 15.4229ZM60.1094 15.7093L60.4977 15.6132L60.1094 15.7093ZM60.1442 15.8497L59.7559 15.9458L60.1442 15.8497ZM60.1789 15.9902L59.7906 16.0863L60.1789 15.9902ZM60.328 16.2213L60.0797 16.5348L60.328 16.2213ZM60.4424 16.3119L60.6908 15.9983L60.4424 16.3119ZM60.5568 16.4025L60.3084 16.716L60.5568 16.4025ZM60.8142 16.5491L60.6681 16.9215L60.8142 16.5491ZM61.1001 16.6613L61.2462 16.2889L61.1001 16.6613ZM61.3521 16.8264L61.635 16.5435L61.3521 16.8264ZM61.5702 17.0444L61.2873 17.3272L61.5702 17.0444ZM61.7562 17.2931L62.1065 17.0999L61.7562 17.2931ZM61.9102 17.5723L61.5599 17.7655L61.9102 17.5723ZM62.071 17.8285L62.3957 17.595L62.071 17.8285ZM62.2386 18.0616L61.9138 18.2951L62.2386 18.0616ZM62.2159 18.2481L62.4355 18.5825L62.2159 18.2481ZM62.1094 18.3181L61.8898 17.9838L62.1094 18.3181ZM62.0029 18.3881L62.2225 18.7224L62.0029 18.3881ZM61.7689 18.5706L61.5041 18.2707L61.7689 18.5706ZM61.6413 18.6832L61.3766 18.3833L61.6413 18.6832ZM61.5138 18.7957L61.2491 18.4959L61.5138 18.7957ZM61.2268 18.8476L61.369 18.4738L61.2268 18.8476ZM61.0673 18.7869L60.925 19.1608L61.0673 18.7869ZM60.9077 18.7263L60.7655 19.1001L60.9077 18.7263ZM60.6559 18.7102L60.8301 19.0703L60.6559 18.7102ZM60.5636 18.7548L60.7378 19.1149L60.5636 18.7548ZM60.4713 18.7995L60.2972 18.4394L60.4713 18.7995ZM60.4833 18.8651L60.562 18.4729L60.4833 18.8651ZM60.6919 18.9069L60.7706 18.5147V18.5147L60.6919 18.9069ZM60.9323 18.9877L61.0934 18.6216L60.9323 18.9877ZM61.2045 19.1075L61.3656 18.7414L61.2045 19.1075ZM61.4627 19.2934L61.7499 19.0151L61.4627 19.2934ZM61.7068 19.5454L61.4196 19.8238L61.7068 19.5454ZM61.976 19.703L61.8922 20.0941L61.976 19.703ZM62.2702 19.7661L62.3541 19.375L62.2702 19.7661ZM62.5838 19.7533L62.6867 20.1399L62.5838 19.7533ZM62.7503 19.709L62.8532 20.0956L62.7503 19.709ZM62.9168 19.6647L62.8139 19.2782L62.9168 19.6647ZM63.2021 19.7152L62.9527 20.0279L63.2021 19.7152ZM63.321 19.8099L63.5704 19.4972L63.321 19.8099ZM63.4398 19.9047L63.1904 20.2175L63.4398 19.9047ZM63.6127 20.1388L63.9856 19.9943L63.6127 20.1388ZM63.6666 20.2781L63.2937 20.4226L63.6666 20.2781ZM63.7206 20.4174L64.0936 20.2728L63.7206 20.4174ZM63.8792 20.6685L64.1714 20.3954L63.8792 20.6685ZM63.9838 20.7804L64.2759 20.5072L63.9838 20.7804ZM64.0883 20.8922L63.7961 21.1654L64.0883 20.8922ZM64.2251 21.1496L64.6157 21.063L64.2251 21.1496ZM64.2574 21.2951L63.8668 21.3816L64.2574 21.2951ZM64.2896 21.4405L63.8991 21.5271L64.2896 21.4405ZM64.3414 21.7425L63.9445 21.7922L64.3414 21.7425ZM64.361 21.899L64.7579 21.8494L64.361 21.899ZM64.3805 22.0555L63.9836 22.1052L64.3805 22.0555ZM64.3917 22.3553L64.7911 22.3786L64.3917 22.3553ZM64.3834 22.4985L63.984 22.4751L64.3834 22.4985ZM64.375 22.6417L63.9757 22.6184L64.375 22.6417ZM64.2912 22.9437L63.9299 22.772L64.2912 22.9437ZM64.2157 23.1024L64.577 23.2741L64.2157 23.1024ZM64.1403 23.2612L64.5015 23.4329L64.1403 23.2612ZM64.0883 23.5016L63.7037 23.6118L64.0883 23.5016ZM64.1351 23.6651L64.5196 23.555L64.1351 23.6651ZM64.1984 23.7439L64.2284 24.1428L64.1984 23.7439ZM64.2383 23.7409L64.2682 24.1398L64.4625 24.1252L64.5708 23.9632L64.2383 23.7409ZM64.3089 23.6353L64.7072 23.5986L64.6035 22.475L63.9764 23.413L64.3089 23.6353ZM63.9198 23.7717C63.9401 23.9916 64.1348 24.1535 64.3548 24.1332C64.5748 24.1129 64.7367 23.9181 64.7164 23.6982L64.3181 23.7349L63.9198 23.7717ZM0.838342 21.2437L1.23492 21.2959L1.24797 21.1967L0.851394 21.1445L0.454816 21.0923L0.441764 21.1915L0.838342 21.2437ZM0.851394 21.1445L0.955184 21.5308L1.18485 21.4691L1.08106 21.0828L0.977273 20.6965L0.747604 20.7582L0.851394 21.1445ZM1.08106 21.0828L1.18485 21.4691C1.37915 21.4169 1.57292 21.3276 1.71569 21.1696L1.41897 20.9014L1.12226 20.6331C1.1207 20.6349 1.0892 20.6665 0.977273 20.6965L1.08106 21.0828ZM1.41897 20.9014L1.71569 21.1696L1.82393 21.0499L1.52721 20.7817L1.2305 20.5134L1.12226 20.6331L1.41897 20.9014ZM1.52721 20.7817L1.82393 21.0499L1.93217 20.9302L1.63546 20.6619L1.33874 20.3937L1.2305 20.5134L1.52721 20.7817ZM1.63546 20.6619L1.93217 20.9302C2.00888 20.8453 2.07019 20.7389 2.09547 20.6119C2.12072 20.485 2.1049 20.3635 2.06721 20.2563L1.68982 20.3888L1.31242 20.5214C1.31066 20.5164 1.30374 20.4915 1.31086 20.4557C1.31802 20.4197 1.33419 20.3987 1.33874 20.3937L1.63546 20.6619ZM1.68982 20.3888L2.06721 20.2563L2.01333 20.1029L1.63594 20.2354L1.25854 20.368L1.31242 20.5214L1.68982 20.3888ZM1.63594 20.2354L2.01333 20.1029L1.95945 19.9495L1.58206 20.082L1.20466 20.2146L1.25854 20.368L1.63594 20.2354ZM1.58206 20.082L1.95945 19.9495C1.92321 19.8463 1.88836 19.7483 1.85488 19.6554L1.47857 19.791L1.10227 19.9266C1.13493 20.0173 1.16906 20.1132 1.20466 20.2146L1.58206 20.082ZM1.47857 19.791L1.85488 19.6554L1.80528 19.5177L1.42897 19.6534L1.05266 19.789L1.10227 19.9266L1.47857 19.791ZM1.42897 19.6534L1.80528 19.5177L1.75567 19.3801L1.37937 19.5157L1.00306 19.6513L1.05266 19.789L1.42897 19.6534ZM1.37937 19.5157L1.75567 19.3801C1.73614 19.3259 1.72381 19.2669 1.71988 19.2014L1.3206 19.2253L0.921319 19.2493C0.929608 19.3875 0.956454 19.522 1.00306 19.6513L1.37937 19.5157ZM1.3206 19.2253L1.71988 19.2014L1.71072 19.0486L1.31144 19.0726L0.912158 19.0965L0.921319 19.2493L1.3206 19.2253ZM1.31144 19.0726L1.71072 19.0486L1.70156 18.8959L1.30228 18.9198L0.902997 18.9438L0.912158 19.0965L1.31144 19.0726ZM1.30228 18.9198L1.70156 18.8959C1.69164 18.7305 1.64364 18.5737 1.55744 18.4314L1.21533 18.6387L0.873225 18.8459C0.890745 18.8749 0.9007 18.9055 0.902997 18.9438L1.30228 18.9198ZM1.21533 18.6387L1.55744 18.4314L1.47966 18.303L1.13755 18.5103L0.795441 18.7176L0.873225 18.8459L1.21533 18.6387ZM1.13755 18.5103L1.47966 18.303L1.40187 18.1746L1.05977 18.3819L0.717657 18.5892L0.795441 18.7176L1.13755 18.5103ZM1.05977 18.3819L1.40187 18.1746C1.33233 18.0598 1.24859 17.9545 1.15212 17.8586L0.870121 18.1423L0.588126 18.426C0.640797 18.4784 0.68349 18.5328 0.717657 18.5892L1.05977 18.3819ZM0.870121 18.1423L1.15212 17.8586L1.04025 17.7474L0.75826 18.0311L0.476265 18.3148L0.588126 18.426L0.870121 18.1423ZM0.75826 18.0311L1.04025 17.7474L0.928394 17.6363L0.646399 17.9199L0.364404 18.2036L0.476265 18.3148L0.75826 18.0311ZM0.646399 17.9199L0.928394 17.6363C0.904165 17.6122 0.889542 17.5868 0.880801 17.5538L0.494145 17.6563L0.107489 17.7588C0.152606 17.929 0.239486 18.0795 0.364404 18.2036L0.646399 17.9199ZM0.494145 17.6563L0.880801 17.5538L0.840407 17.4014L0.453751 17.5039L0.0670953 17.6063L0.107489 17.7588L0.494145 17.6563ZM0.453751 17.5039L0.840407 17.4014L0.800013 17.249L0.413358 17.3514L0.0267016 17.4539L0.0670953 17.6063L0.453751 17.5039ZM0.413358 17.3514L0.800013 17.249C0.79941 17.2467 0.799673 17.2469 0.799833 17.2492C0.799998 17.2517 0.799972 17.2553 0.799371 17.2595C0.79877 17.2638 0.797788 17.2673 0.796896 17.2697C0.796031 17.2721 0.795626 17.2724 0.796697 17.2707L0.453996 17.0644L0.111295 16.8581C0.0012213 17.0409 -0.027835 17.2481 0.0267016 17.4539L0.413358 17.3514ZM0.453996 17.0644L0.796697 17.2707L0.877729 17.136L0.535028 16.9298L0.192327 16.7235L0.111295 16.8581L0.453996 17.0644ZM0.535028 16.9298L0.877729 17.136L0.958761 17.0014L0.61606 16.7951L0.273359 16.5888L0.192327 16.7235L0.535028 16.9298ZM0.61606 16.7951L0.958761 17.0014C1.06134 16.831 1.09694 16.6418 1.08078 16.4515L0.682211 16.4853L0.283647 16.5192C0.287326 16.5625 0.278824 16.5798 0.273359 16.5888L0.61606 16.7951ZM0.682211 16.4853L1.08078 16.4515L1.0659 16.2763L0.667331 16.3101L0.268766 16.344L0.283647 16.5192L0.682211 16.4853ZM0.667331 16.3101L1.0659 16.2763L1.05101 16.1011L0.65245 16.1349L0.253885 16.1688L0.268766 16.344L0.667331 16.3101ZM0.65245 16.1349L1.05101 16.1011C1.04998 16.0889 1.05245 16.0942 1.04711 16.1094C1.04452 16.1168 1.04078 16.1245 1.03603 16.1317C1.03132 16.1388 1.02677 16.1437 1.02374 16.1466L0.750929 15.854L0.478119 15.5615C0.299915 15.7277 0.235157 15.9483 0.253885 16.1688L0.65245 16.1349ZM0.750929 15.854L1.02374 16.1466L1.1371 16.0408L0.86429 15.7483L0.59148 15.4558L0.478119 15.5615L0.750929 15.854ZM0.86429 15.7483L1.1371 16.0408L1.25046 15.9351L0.97765 15.6426L0.70484 15.3501L0.59148 15.4558L0.86429 15.7483ZM0.97765 15.6426L1.25046 15.9351C1.35591 15.8368 1.4451 15.7237 1.51847 15.5981L1.17307 15.3964L0.82766 15.1946C0.791624 15.2563 0.750535 15.3074 0.70484 15.3501L0.97765 15.6426ZM1.17307 15.3964L1.51847 15.5981L1.60053 15.4576L1.25512 15.2559L0.909716 15.0541L0.82766 15.1946L1.17307 15.3964ZM1.25512 15.2559L1.60053 15.4576L1.68259 15.3171L1.33718 15.1154L0.991773 14.9136L0.909716 15.0541L1.25512 15.2559ZM1.33718 15.1154L1.68259 15.3171C1.6831 15.3162 1.68227 15.3178 1.67959 15.3208C1.67685 15.3238 1.67317 15.3271 1.66878 15.3302C1.66441 15.3332 1.66073 15.335 1.65857 15.3359C1.65652 15.3367 1.65692 15.3363 1.6607 15.3356L1.58476 14.9429L1.50881 14.5501C1.28999 14.5924 1.10695 14.7164 0.991773 14.9136L1.33718 15.1154ZM1.58476 14.9429L1.6607 15.3356L1.82623 15.3036L1.75028 14.9108L1.67433 14.5181L1.50881 14.5501L1.58476 14.9429ZM1.75028 14.9108L1.82623 15.3036L1.99175 15.2716L1.9158 14.8788L1.83986 14.4861L1.67433 14.5181L1.75028 14.9108ZM1.9158 14.8788L1.99175 15.2716C2.16193 15.2387 2.32086 15.1683 2.45594 15.053L2.19624 14.7487L1.93654 14.4445C1.91839 14.46 1.89037 14.4763 1.83986 14.4861L1.9158 14.8788ZM2.19624 14.7487L2.45594 15.053L2.57085 14.9549L2.31115 14.6506L2.05145 14.3464L1.93654 14.4445L2.19624 14.7487ZM2.31115 14.6506L2.57085 14.9549L2.68576 14.8568L2.42606 14.5525L2.16637 14.2483L2.05145 14.3464L2.31115 14.6506ZM2.42606 14.5525L2.68576 14.8568C2.76945 14.7853 2.85022 14.7114 2.92807 14.6348L2.6476 14.3496L2.36712 14.0644C2.30281 14.1277 2.2359 14.189 2.16637 14.2483L2.42606 14.5525ZM2.6476 14.3496L2.92807 14.6348L3.03469 14.5299L2.75421 14.2447L2.47374 13.9596L2.36712 14.0644L2.6476 14.3496ZM2.75421 14.2447L3.03469 14.5299L3.14131 14.4251L2.86083 14.1399L2.58035 13.8547L2.47374 13.9596L2.75421 14.2447ZM2.86083 14.1399L3.14131 14.4251C3.23716 14.3308 3.31938 14.2256 3.38704 14.1099L3.04177 13.908L2.69649 13.706C2.66506 13.7598 2.62666 13.8092 2.58035 13.8547L2.86083 14.1399ZM3.04177 13.908L3.38704 14.1099L3.46136 13.9829L3.11608 13.7809L2.77081 13.579L2.69649 13.706L3.04177 13.908ZM3.11608 13.7809L3.46136 13.9829L3.53567 13.8558L3.1904 13.6539L2.84513 13.4519L2.77081 13.579L3.11608 13.7809ZM3.1904 13.6539L3.53567 13.8558C3.53569 13.8558 3.53572 13.8557 3.53578 13.8557C3.53585 13.8556 3.53602 13.8553 3.53634 13.855C3.53694 13.8543 3.53849 13.8526 3.54158 13.85C3.54782 13.8449 3.56145 13.8354 3.58713 13.8245L3.43091 13.4563L3.27469 13.0881C3.10294 13.1609 2.94723 13.2774 2.84513 13.4519L3.1904 13.6539ZM3.43091 13.4563L3.58713 13.8245L3.75332 13.754L3.5971 13.3858L3.44088 13.0176L3.27469 13.0881L3.43091 13.4563ZM3.5971 13.3858L3.75332 13.754L3.9195 13.6835L3.76328 13.3153L3.60707 12.9471L3.44088 13.0176L3.5971 13.3858ZM3.76328 13.3153L3.9195 13.6835C4.03977 13.6325 4.16424 13.5413 4.23746 13.3903C4.30911 13.2425 4.30523 13.0919 4.27841 12.9713L3.88796 13.0582L3.4975 13.1451C3.49836 13.1489 3.48754 13.1033 3.51763 13.0412C3.5493 12.9759 3.59759 12.9511 3.60707 12.9471L3.76328 13.3153ZM3.88796 13.0582L4.27841 12.9713L4.23689 12.7847L3.84644 12.8716L3.45599 12.9585L3.4975 13.1451L3.88796 13.0582ZM3.84644 12.8716L4.23689 12.7847L4.19538 12.5981L3.80492 12.685L3.41447 12.7719L3.45599 12.9585L3.84644 12.8716ZM3.80492 12.685L4.19538 12.5981C4.19541 12.5983 4.19623 12.6019 4.19677 12.6087C4.19732 12.6155 4.19765 12.6263 4.19628 12.6402C4.19342 12.6694 4.18323 12.7097 4.15694 12.751C4.10056 12.8395 4.02384 12.8553 4.02271 12.8555L3.94638 12.4628L3.87005 12.0702C3.74693 12.0941 3.58565 12.1587 3.48212 12.3213C3.38009 12.4816 3.388 12.6529 3.41447 12.7719L3.80492 12.685ZM3.94638 12.4628L4.02271 12.8555L4.20568 12.8199L4.12935 12.4273L4.05302 12.0346L3.87005 12.0702L3.94638 12.4628ZM4.12935 12.4273L4.20568 12.8199L4.38865 12.7843L4.31232 12.3917L4.23599 11.999L4.05302 12.0346L4.12935 12.4273ZM4.31232 12.3917L4.38865 12.7843C4.51618 12.7595 4.63442 12.7337 4.74299 12.7066L4.64626 12.3185L4.54952 11.9304C4.4568 11.9535 4.35242 11.9764 4.23599 11.999L4.31232 12.3917ZM4.64626 12.3185L4.74299 12.7066L4.89396 12.669L4.79722 12.2809L4.70049 11.8927L4.54952 11.9304L4.64626 12.3185ZM4.79722 12.2809L4.89396 12.669L5.04493 12.6314L4.94819 12.2432L4.85146 11.8551L4.70049 11.8927L4.79722 12.2809ZM4.94819 12.2432L5.04493 12.6314C5.04374 12.6317 5.04057 12.6323 5.03587 12.6325C5.03113 12.6326 5.02636 12.6322 5.02211 12.6314C5.01299 12.6296 5.01317 12.6274 5.02356 12.6342L5.24269 12.2996L5.46183 11.965C5.28355 11.8482 5.07201 11.8001 4.85146 11.8551L4.94819 12.2432ZM5.24269 12.2996L5.02356 12.6342L5.16709 12.7282L5.38622 12.3936L5.60536 12.059L5.46183 11.965L5.24269 12.2996ZM5.38622 12.3936L5.16709 12.7282L5.31062 12.8222L5.52976 12.4876L5.74889 12.153L5.60536 12.059L5.38622 12.3936ZM5.52976 12.4876L5.31062 12.8222C5.4137 12.8897 5.53541 12.9334 5.67032 12.936C5.80333 12.9387 5.92373 12.9011 6.0262 12.8459L5.83666 12.4937L5.64712 12.1414C5.64068 12.1449 5.65547 12.1356 5.68618 12.1362C5.71879 12.1368 5.7415 12.1481 5.74889 12.153L5.52976 12.4876ZM5.83666 12.4937L6.0262 12.8459L6.18957 12.758L6.00003 12.4058L5.8105 12.0535L5.64712 12.1414L5.83666 12.4937ZM6.00003 12.4058L6.18957 12.758L6.35295 12.6701L6.16341 12.3179L5.97387 11.9656L5.8105 12.0535L6.00003 12.4058ZM6.16341 12.3179L6.35295 12.6701C6.36944 12.6612 6.37069 12.664 6.35888 12.6651C6.35304 12.6656 6.34574 12.6656 6.33773 12.6643C6.32973 12.6631 6.32318 12.6611 6.31858 12.6592L6.47097 12.2894L6.62337 11.9195C6.395 11.8254 6.16615 11.8621 5.97387 11.9656L6.16341 12.3179ZM6.47097 12.2894L6.31858 12.6592L6.46277 12.7186L6.61517 12.3488L6.76756 11.9789L6.62337 11.9195L6.47097 12.2894ZM6.61517 12.3488L6.46277 12.7186L6.60697 12.778L6.75936 12.4082L6.91176 12.0384L6.76756 11.9789L6.61517 12.3488ZM6.75936 12.4082L6.60697 12.778C6.7073 12.8194 6.80732 12.8586 6.90701 12.8956L7.0464 12.5207L7.18579 12.1458C7.09502 12.112 7.00368 12.0762 6.91176 12.0384L6.75936 12.4082ZM7.0464 12.5207L6.90701 12.8956L7.04985 12.9488L7.18924 12.5738L7.32863 12.1989L7.18579 12.1458L7.0464 12.5207ZM7.18924 12.5738L7.04985 12.9488L7.19269 13.0019L7.33208 12.6269L7.47147 12.252L7.32863 12.1989L7.18924 12.5738ZM7.33208 12.6269L7.19269 13.0019C7.2937 13.0394 7.39543 13.0746 7.49786 13.1073L7.6197 12.7263L7.74155 12.3453C7.65093 12.3164 7.56091 12.2853 7.47147 12.252L7.33208 12.6269ZM7.6197 12.7263L7.49786 13.1073L7.64265 13.1536L7.76449 12.7726L7.88633 12.3916L7.74155 12.3453L7.6197 12.7263ZM7.76449 12.7726L7.64265 13.1536L7.78743 13.1999L7.90927 12.8189L8.03111 12.4379L7.88633 12.3916L7.76449 12.7726ZM7.90927 12.8189L7.78743 13.1999C7.8761 13.2283 7.97032 13.2615 8.07019 13.2997L8.21305 12.926L8.35591 12.5524C8.24378 12.5095 8.13549 12.4713 8.03111 12.4379L7.90927 12.8189ZM8.21305 12.926L8.07019 13.2997L8.22919 13.3605L8.37205 12.9868L8.51491 12.6132L8.35591 12.5524L8.21305 12.926ZM8.37205 12.9868L8.22919 13.3605L8.38819 13.4212L8.53105 13.0476L8.67391 12.674L8.51491 12.6132L8.37205 12.9868ZM8.53105 13.0476L8.38819 13.4212C8.49545 13.4623 8.66387 13.4965 8.83666 13.413C9.01032 13.3291 9.08801 13.175 9.12198 13.0641L8.73953 12.9469L8.35707 12.8298C8.35806 12.8265 8.38451 12.743 8.48867 12.6927C8.59197 12.6428 8.67264 12.6735 8.67391 12.674L8.53105 13.0476ZM8.73953 12.9469L9.12198 13.0641L9.17146 12.9026L8.789 12.7854L8.40655 12.6682L8.35707 12.8298L8.73953 12.9469ZM8.789 12.7854L9.17146 12.9026L9.22094 12.7411L8.83848 12.6239L8.45603 12.5067L8.40655 12.6682L8.789 12.7854ZM8.83848 12.6239L9.22094 12.7411C9.25166 12.6408 9.283 12.549 9.31485 12.4654L8.94103 12.323L8.56722 12.1807C8.5283 12.2829 8.49128 12.3917 8.45603 12.5067L8.83848 12.6239ZM8.94103 12.323L9.31485 12.4654L9.36792 12.326L8.99411 12.1837L8.6203 12.0413L8.56722 12.1807L8.94103 12.323ZM8.99411 12.1837L9.36792 12.326L9.421 12.1866L9.04718 12.0443L8.67337 11.9019L8.6203 12.0413L8.99411 12.1837ZM9.04718 12.0443L9.421 12.1866C9.4366 12.1457 9.46283 12.1013 9.50644 12.0537L9.21154 11.7835L8.91663 11.5132C8.81187 11.6276 8.72853 11.7571 8.67337 11.9019L9.04718 12.0443ZM9.21154 11.7835L9.50644 12.0537L9.61772 11.9323L9.32282 11.6621L9.02791 11.3918L8.91663 11.5132L9.21154 11.7835ZM9.32282 11.6621L9.61772 11.9323L9.729 11.8109L9.43409 11.5406L9.13919 11.2704L9.02791 11.3918L9.32282 11.6621ZM9.43409 11.5406L9.729 11.8109C9.8982 11.6262 9.94965 11.392 9.89578 11.1592L9.50608 11.2494L9.11638 11.3396C9.11759 11.3448 9.11405 11.3328 9.11942 11.3111C9.12502 11.2884 9.1356 11.2743 9.13919 11.2704L9.43409 11.5406ZM9.50608 11.2494L9.89578 11.1592L9.85649 10.9894L9.46679 11.0796L9.07709 11.1698L9.11638 11.3396L9.50608 11.2494ZM9.46679 11.0796L9.85649 10.9894L9.8172 10.8197L9.4275 10.9099L9.0378 11L9.07709 11.1698L9.46679 11.0796ZM9.4275 10.9099L9.8172 10.8197C9.81307 10.8018 9.81418 10.7948 9.81406 10.7958C9.81402 10.7962 9.81383 10.7974 9.8133 10.799C9.81278 10.8006 9.81228 10.8015 9.81228 10.8015L9.46332 10.606L9.11436 10.4105C9.00905 10.5985 8.9924 10.8038 9.0378 11L9.4275 10.9099ZM9.46332 10.606L9.81228 10.8015L9.88739 10.6675L9.53843 10.472L9.18946 10.2765L9.11436 10.4105L9.46332 10.606ZM9.53843 10.472L9.88739 10.6675L9.96249 10.5334L9.61353 10.3379L9.26457 10.1424L9.18946 10.2765L9.53843 10.472ZM9.61353 10.3379L9.96249 10.5334C9.99219 10.4804 10.0253 10.4402 10.0606 10.409L9.7959 10.1092L9.53117 9.80931C9.4235 9.90437 9.33502 10.0167 9.26457 10.1424L9.61353 10.3379ZM9.7959 10.1092L10.0606 10.409L10.1679 10.3143L9.90316 10.0145L9.63843 9.71462L9.53117 9.80931L9.7959 10.1092ZM9.90316 10.0145L10.1679 10.3143L10.2751 10.2196L10.0104 9.91979L9.74568 9.61992L9.63843 9.71462L9.90316 10.0145ZM10.0104 9.91979L10.2751 10.2196C10.3539 10.1501 10.4323 10.0758 10.5104 9.99688L10.2261 9.71555L9.94172 9.43421C9.87531 9.50133 9.80995 9.56318 9.74568 9.61992L10.0104 9.91979ZM10.2261 9.71555L10.5104 9.99688L10.6188 9.88733L10.3345 9.606L10.0501 9.32467L9.94172 9.43421L10.2261 9.71555ZM10.3345 9.606L10.6188 9.88733L10.7272 9.77778L10.4428 9.49645L10.1585 9.21512L10.0501 9.32467L10.3345 9.606ZM10.4428 9.49645L10.7272 9.77778C10.7604 9.74423 10.7961 9.72111 10.8369 9.70536L10.6927 9.33224L10.5485 8.95912C10.4007 9.01626 10.2698 9.1026 10.1585 9.21512L10.4428 9.49645ZM10.6927 9.33224L10.8369 9.70536L10.9783 9.6507L10.8342 9.27758L10.69 8.90447L10.5485 8.95912L10.6927 9.33224ZM10.8342 9.27758L10.9783 9.6507L11.1198 9.59604L10.9756 9.22293L10.8315 8.84981L10.69 8.90447L10.8342 9.27758ZM10.9756 9.22293L11.1198 9.59604C11.1337 9.59067 11.1563 9.58537 11.2 9.59458L11.2826 9.20321L11.3652 8.81184C11.1882 8.77446 11.0062 8.7823 10.8315 8.84981L10.9756 9.22293ZM11.2826 9.20321L11.2 9.59458L11.3655 9.62953L11.4481 9.23815L11.5307 8.84678L11.3652 8.81184L11.2826 9.20321ZM11.4481 9.23815L11.3655 9.62953L11.531 9.66447L11.6136 9.27309L11.6963 8.88172L11.5307 8.84678L11.4481 9.23815ZM11.6136 9.27309L11.531 9.66447C11.6508 9.68976 11.779 9.68618 11.9047 9.64041C12.0285 9.59531 12.1265 9.5178 12.2019 9.43054L11.8991 9.1691L11.5964 8.90767C11.5918 8.91303 11.6022 8.89916 11.6309 8.88872C11.6614 8.87762 11.6868 8.87973 11.6963 8.88172L11.6136 9.27309ZM11.8991 9.1691L12.2019 9.43054L12.3219 9.29161L12.0191 9.03017L11.7164 8.76873L11.5964 8.90767L11.8991 9.1691ZM12.0191 9.03017L12.3219 9.29161L12.4418 9.15268L12.1391 8.89124L11.8364 8.6298L11.7164 8.76873L12.0191 9.03017ZM12.1391 8.89124L12.4418 9.15268C12.442 9.15246 12.4367 9.15869 12.4247 9.16676C12.4121 9.17518 12.3943 9.18413 12.3721 9.18994C12.3238 9.20261 12.2892 9.19204 12.2832 9.18975L12.426 8.8161L12.5688 8.44246C12.4515 8.39763 12.3135 8.37833 12.1695 8.41604C12.0265 8.45348 11.9166 8.53693 11.8364 8.6298L12.1391 8.89124ZM12.426 8.8161L12.2832 9.18975L12.4502 9.25355L12.593 8.8799L12.7357 8.50625L12.5688 8.44246L12.426 8.8161ZM12.593 8.8799L12.4502 9.25355L12.6171 9.31734L12.7599 8.9437L12.9027 8.57005L12.7357 8.50625L12.593 8.8799ZM12.7599 8.9437L12.6171 9.31734C12.7963 9.38581 12.993 9.40576 13.1897 9.34486L13.0714 8.96276L12.9531 8.58065C12.9525 8.58082 12.9509 8.58143 12.9457 8.58111C12.9397 8.58074 12.9258 8.57889 12.9027 8.57005L12.7599 8.9437ZM13.0714 8.96276L13.1897 9.34486L13.3342 9.30013L13.2159 8.91802L13.0976 8.53591L12.9531 8.58065L13.0714 8.96276ZM13.2159 8.91802L13.3342 9.30013L13.4787 9.25539L13.3604 8.87328L13.2421 8.49117L13.0976 8.53591L13.2159 8.91802ZM13.3604 8.87328L13.4787 9.25539C13.6432 9.20445 13.7862 9.11301 13.9079 8.99553L13.6301 8.7077L13.3524 8.41987C13.3071 8.46352 13.2702 8.48247 13.2421 8.49117L13.3604 8.87328ZM13.6301 8.7077L13.9079 8.99553L14.0331 8.87469L13.7553 8.58686L13.4776 8.29903L13.3524 8.41987L13.6301 8.7077ZM13.7553 8.58686L14.0331 8.87469L14.1583 8.75385L13.8806 8.46602L13.6028 8.17819L13.4776 8.29903L13.7553 8.58686ZM13.8806 8.46602L14.1583 8.75385C14.2158 8.69839 14.2511 8.68126 14.2625 8.67709L14.1247 8.30156L13.987 7.92602C13.8398 7.98002 13.7123 8.07253 13.6028 8.17819L13.8806 8.46602ZM14.1247 8.30156L14.2625 8.67709L14.3814 8.63347L14.2437 8.25793L14.1059 7.88239L13.987 7.92602L14.1247 8.30156ZM14.2437 8.25793L14.3814 8.63347L14.5003 8.58984L14.3626 8.21431L14.2249 7.83877L14.1059 7.88239L14.2437 8.25793ZM14.3626 8.21431L14.5003 8.58984C14.5787 8.5611 14.6694 8.52818 14.7725 8.49106L14.6369 8.11472L14.5014 7.73838C14.3973 7.77588 14.3051 7.80935 14.2249 7.83877L14.3626 8.21431ZM14.6369 8.11472L14.7725 8.49106L14.9279 8.43509L14.7923 8.05875L14.6568 7.68241L14.5014 7.73838L14.6369 8.11472ZM14.7923 8.05875L14.9279 8.43509L15.0833 8.37912L14.9477 8.00279L14.8122 7.62645L14.6568 7.68241L14.7923 8.05875ZM14.9477 8.00279L15.0833 8.37912C15.2985 8.30163 15.4638 8.14023 15.5304 7.90827L15.146 7.79781L14.7615 7.68734C14.7637 7.67969 14.7711 7.66246 14.7875 7.64549C14.8032 7.62925 14.8156 7.62522 14.8122 7.62645L14.9477 8.00279ZM15.146 7.79781L15.5304 7.90827L15.5732 7.75926L15.1888 7.64879L14.8043 7.53833L14.7615 7.68734L15.146 7.79781ZM15.1888 7.64879L15.5732 7.75926L15.616 7.61025L15.2316 7.49978L14.8472 7.38932L14.8043 7.53833L15.1888 7.64879ZM15.2316 7.49978L15.616 7.61025C15.6276 7.57016 15.6445 7.54249 15.666 7.52001L15.3768 7.24362L15.0877 6.96723C14.9726 7.08762 14.8927 7.23072 14.8472 7.38932L15.2316 7.49978ZM15.3768 7.24362L15.666 7.52001L15.7684 7.41286L15.4793 7.13646L15.1901 6.86007L15.0877 6.96723L15.3768 7.24362ZM15.4793 7.13646L15.7684 7.41286L15.8708 7.3057L15.5817 7.02931L15.2925 6.75292L15.1901 6.86007L15.4793 7.13646ZM15.5817 7.02931L15.8708 7.3057C15.8718 7.30469 15.8714 7.30526 15.8695 7.30664C15.8675 7.30805 15.8648 7.30971 15.8615 7.3112C15.8582 7.3127 15.8554 7.31355 15.8536 7.31398C15.8519 7.31439 15.8519 7.3142 15.8543 7.31408L15.8341 6.91459L15.8139 6.5151C15.6133 6.52522 15.4325 6.60652 15.2925 6.75292L15.5817 7.02931ZM15.8341 6.91459L15.8543 7.31408L16.0042 7.30651L15.9841 6.90702L15.9639 6.50752L15.8139 6.5151L15.8341 6.91459ZM15.9841 6.90702L16.0042 7.30651L16.1542 7.29893L16.1341 6.89944L16.1139 6.49995L15.9639 6.50752L15.9841 6.90702ZM16.1341 6.89944L16.1542 7.29893C16.3325 7.28993 16.4974 7.23094 16.6416 7.12862L16.41 6.80243L16.1785 6.47625C16.1547 6.49318 16.1356 6.49886 16.1139 6.49995L16.1341 6.89944ZM16.41 6.80243L16.6416 7.12862L16.7676 7.03918L16.536 6.713L16.3045 6.38681L16.1785 6.47625L16.41 6.80243ZM16.536 6.713L16.7676 7.03918L16.8936 6.94975L16.662 6.62356L16.4305 6.29738L16.3045 6.38681L16.536 6.713ZM16.662 6.62356L16.8936 6.94975C17.0532 6.83645 17.1633 6.67864 17.2145 6.48971L16.8285 6.38501L16.4424 6.28031C16.4413 6.28465 16.4402 6.28721 16.4396 6.28845C16.4391 6.28966 16.4387 6.29016 16.4386 6.29032C16.4385 6.29048 16.4382 6.29098 16.4372 6.29192C16.4362 6.29289 16.4342 6.29477 16.4305 6.29738L16.662 6.62356ZM16.8285 6.38501L17.2145 6.48971L17.255 6.34059L16.8689 6.2359L16.4829 6.1312L16.4424 6.28031L16.8285 6.38501ZM16.8689 6.2359L17.255 6.34059L17.2954 6.19148L16.9094 6.08678L16.5233 5.98209L16.4829 6.1312L16.8689 6.2359ZM16.9094 6.08678L17.2954 6.19148C17.349 5.99375 17.3254 5.79751 17.2447 5.61875L16.8801 5.78333L16.5156 5.94791C16.5227 5.96381 16.5239 5.97233 16.5241 5.97472C16.5243 5.97661 16.5243 5.9783 16.5233 5.98209L16.9094 6.08678ZM16.8801 5.78333L17.2447 5.61875L17.175 5.46441L16.8105 5.62899L16.4459 5.79357L16.5156 5.94791L16.8801 5.78333ZM16.8105 5.62899L17.175 5.46441L17.1054 5.31007L16.7408 5.47465L16.3762 5.63924L16.4459 5.79357L16.8105 5.62899ZM16.7408 5.47465L17.1054 5.31007C17.0868 5.26897 17.0875 5.24631 17.0896 5.2331L16.6943 5.17141L16.2991 5.10972C16.2702 5.29505 16.3019 5.47455 16.3762 5.63924L16.7408 5.47465ZM16.6943 5.17141L17.0896 5.2331L17.1128 5.0842L16.7176 5.02251L16.3224 4.96082L16.2991 5.10972L16.6943 5.17141ZM16.7176 5.02251L17.1128 5.0842L17.136 4.9353L16.7408 4.87361L16.3456 4.81192L16.3224 4.96082L16.7176 5.02251ZM16.7408 4.87361L17.136 4.9353C17.1644 4.75352 17.1362 4.57541 17.0569 4.41143L16.6968 4.58557L16.3367 4.75971C16.3471 4.78125 16.3482 4.79517 16.3456 4.81192L16.7408 4.87361ZM16.6968 4.58557L17.0569 4.41143L16.9896 4.27229L16.6295 4.44643L16.2694 4.62057L16.3367 4.75971L16.6968 4.58557ZM16.6295 4.44643L16.9896 4.27229L16.9223 4.13315L16.5622 4.30729L16.2021 4.48143L16.2694 4.62057L16.6295 4.44643ZM16.5622 4.30729L16.9223 4.13315C16.9198 4.12786 16.9196 4.12576 16.9196 4.1251C16.9195 4.12415 16.919 4.11828 16.9221 4.10539L16.5336 4.01025L16.1451 3.9151C16.0984 4.10564 16.1145 4.30036 16.2021 4.48143L16.5622 4.30729ZM16.5336 4.01025L16.9221 4.10539L16.9608 3.94749L16.5723 3.85234L16.1837 3.7572L16.1451 3.9151L16.5336 4.01025ZM16.5723 3.85234L16.9608 3.94749L16.9994 3.78959L16.6109 3.69444L16.2224 3.5993L16.1837 3.7572L16.5723 3.85234ZM16.6109 3.69444L16.9994 3.78959C17.017 3.71783 17.0388 3.67014 17.0586 3.63916L16.7213 3.42412L16.384 3.20908C16.3082 3.328 16.2564 3.46053 16.2224 3.5993L16.6109 3.69444ZM16.7213 3.42412L17.0586 3.63916L17.1302 3.52674L16.7929 3.3117L16.4557 3.09666L16.384 3.20908L16.7213 3.42412ZM16.7929 3.3117L17.1302 3.52674L17.2019 3.41432L16.8646 3.19928L16.5273 2.98424L16.4557 3.09666L16.7929 3.3117ZM16.8646 3.19928L17.2019 3.41432C17.2019 3.41431 17.2018 3.41442 17.2017 3.41461C17.2015 3.41481 17.2014 3.41502 17.2012 3.41521C17.2008 3.41567 17.2007 3.41568 17.2012 3.41524C17.2022 3.4145 17.2079 3.4102 17.2219 3.40471L17.0763 3.03214L16.9308 2.65957C16.7689 2.7228 16.6264 2.82881 16.5273 2.98424L16.8646 3.19928ZM17.0763 3.03214L17.2219 3.40471L17.3619 3.35L17.2164 2.97743L17.0708 2.60486L16.9308 2.65957L17.0763 3.03214ZM17.2164 2.97743L17.3619 3.35L17.502 3.29528L17.3564 2.92271L17.2108 2.55014L17.0708 2.60486L17.2164 2.97743ZM17.3564 2.92271L17.502 3.29528C17.6102 3.253 17.716 3.20421 17.8195 3.14902L17.6312 2.79611L17.4429 2.4432C17.3667 2.48385 17.2894 2.51946 17.2108 2.55014L17.3564 2.92271ZM17.6312 2.79611L17.8195 3.14902L17.9542 3.07714L17.7659 2.72423L17.5776 2.37132L17.4429 2.4432L17.6312 2.79611ZM17.7659 2.72423L17.9542 3.07714L18.0889 3.00526L17.9006 2.65235L17.7123 2.29945L17.5776 2.37132L17.7659 2.72423ZM17.9006 2.65235L18.0889 3.00526C18.1511 2.97209 18.214 2.94776 18.2781 2.93144L18.1795 2.54379L18.0809 2.15613C17.9528 2.18873 17.8298 2.23678 17.7123 2.29945L17.9006 2.65235ZM18.1795 2.54379L18.2781 2.93144L18.4224 2.89475L18.3237 2.5071L18.2251 2.11945L18.0809 2.15613L18.1795 2.54379ZM18.3237 2.5071L18.4224 2.89475L18.5666 2.85807L18.468 2.47041L18.3693 2.08276L18.2251 2.11945L18.3237 2.5071ZM18.468 2.47041L18.5666 2.85807C18.6754 2.83039 18.7825 2.79747 18.8881 2.7593L18.752 2.38315L18.6159 2.007C18.535 2.03627 18.4528 2.06152 18.3693 2.08276L18.468 2.47041ZM18.752 2.38315L18.8881 2.7593L19.0279 2.70873L18.8918 2.33258L18.7558 1.95642L18.6159 2.007L18.752 2.38315ZM18.8918 2.33258L19.0279 2.70873L19.1677 2.65816L19.0317 2.282L18.8956 1.90585L18.7558 1.95642L18.8918 2.33258ZM19.0317 2.282L19.1677 2.65816C19.2762 2.6189 19.3822 2.57309 19.4857 2.52079L19.3052 2.16384L19.1246 1.80688C19.0498 1.8447 18.9735 1.87767 18.8956 1.90585L19.0317 2.282ZM19.3052 2.16384L19.4857 2.52079L19.6193 2.4532L19.4388 2.09625L19.2583 1.73929L19.1246 1.80688L19.3052 2.16384ZM19.4388 2.09625L19.6193 2.4532L19.753 2.38561L19.5725 2.02865L19.392 1.6717L19.2583 1.73929L19.4388 2.09625ZM19.5725 2.02865L19.753 2.38561C19.87 2.32644 19.979 2.25424 20.0794 2.16951L19.8216 1.86373L19.5637 1.55795C19.5103 1.603 19.4532 1.64075 19.392 1.6717L19.5725 2.02865ZM19.8216 1.86373L20.0794 2.16951L20.1949 2.07217L19.937 1.76639L19.6791 1.46061L19.5637 1.55795L19.8216 1.86373ZM19.937 1.76639L20.1949 2.07217L20.3103 1.97484L20.0524 1.66906L19.7945 1.36328L19.6791 1.46061L19.937 1.76639ZM20.0524 1.66906L20.3103 1.97484C20.3888 1.90859 20.4669 1.84173 20.5444 1.77425L20.2817 1.47257L20.0191 1.17088C19.9447 1.23561 19.8699 1.29974 19.7945 1.36328L20.0524 1.66906ZM20.2817 1.47257L20.5444 1.77425L20.6583 1.6751L20.3956 1.37342L20.133 1.07173L20.0191 1.17088L20.2817 1.47257ZM20.3956 1.37342L20.6583 1.6751L20.7721 1.57595L20.5095 1.27426L20.2468 0.972576L20.133 1.07173L20.3956 1.37342ZM20.5095 1.27426L20.7721 1.57595C20.8321 1.52378 20.8957 1.47675 20.9631 1.43474L20.7515 1.09525L20.54 0.755765C20.4365 0.820228 20.3388 0.892538 20.2468 0.972576L20.5095 1.27426ZM20.7515 1.09525L20.9631 1.43474L21.0912 1.35488L20.8797 1.01539L20.6682 0.675907L20.54 0.755765L20.7515 1.09525ZM20.8797 1.01539L21.0912 1.35488L21.2194 1.27502L21.0079 0.935536L20.7963 0.596049L20.6682 0.675907L20.8797 1.01539ZM21.0079 0.935536L21.2194 1.27502C21.2932 1.22903 21.3701 1.1864 21.45 1.14716L21.2738 0.788054L21.0976 0.428951C20.9939 0.479874 20.8934 0.535563 20.7963 0.596049L21.0079 0.935536ZM21.2738 0.788054L21.45 1.14716L21.5879 1.07953L21.4117 0.720429L21.2355 0.361327L21.0976 0.428951L21.2738 0.788054ZM21.4117 0.720429L21.5879 1.07953L21.7257 1.01191L21.5495 0.652805L21.3733 0.293702L21.2355 0.361327L21.4117 0.720429ZM21.5495 0.652805L21.7257 1.01191C21.747 1.00147 21.7711 0.99563 21.808 0.999343L21.848 0.601353L21.8881 0.203363C21.7107 0.185513 21.5358 0.213975 21.3733 0.293702L21.5495 0.652805ZM21.848 0.601353L21.808 0.999343L21.9687 1.01552L22.0087 0.617526L22.0488 0.219536L21.8881 0.203363L21.848 0.601353ZM22.0087 0.617526L21.9687 1.01552L22.1294 1.03169L22.1695 0.633698L22.2095 0.235709L22.0488 0.219536L22.0087 0.617526ZM22.1695 0.633698L22.1294 1.03169C22.266 1.04544 22.4011 1.04365 22.5328 1.02309L22.4711 0.627874L22.4094 0.232659C22.3532 0.241431 22.2872 0.243522 22.2095 0.235709L22.1695 0.633698ZM22.4711 0.627874L22.5328 1.02309L22.6737 1.00109L22.612 0.605877L22.5504 0.210662L22.4094 0.232659L22.4711 0.627874ZM22.612 0.605877L22.6737 1.00109L22.8147 0.979096L22.753 0.583881L22.6913 0.188665L22.5504 0.210662L22.612 0.605877ZM22.753 0.583881L22.8147 0.979096C22.9266 0.961628 23.0412 0.935867 23.1584 0.902626L23.0492 0.517818L22.94 0.13301C22.8501 0.158524 22.7673 0.176804 22.6913 0.188665L22.753 0.583881ZM23.0492 0.517818L23.1584 0.902626L23.3137 0.85856L23.2045 0.473752L23.0953 0.0889441L22.94 0.13301L23.0492 0.517818ZM23.2045 0.473752L23.3137 0.85856L23.469 0.814494L23.3598 0.429686L23.2506 0.0448782L23.0953 0.0889441L23.2045 0.473752ZM23.3598 0.429686L23.469 0.814494C23.5232 0.799107 23.5679 0.797097 23.6068 0.802611L23.6629 0.406566L23.719 0.010521C23.5608 -0.0118929 23.4034 0.00151002 23.2506 0.0448782L23.3598 0.429686ZM23.6629 0.406566L23.6068 0.802611L23.7547 0.823558L23.8108 0.427512L23.8669 0.0314671L23.719 0.010521L23.6629 0.406566ZM23.8108 0.427512L23.7547 0.823558L23.9025 0.844504L23.9586 0.448459L24.0147 0.0524133L23.8669 0.0314671L23.8108 0.427512ZM23.9586 0.448459L23.9025 0.844504C23.9719 0.854329 24.0417 0.871954 24.1122 0.898095L24.2512 0.523006L24.3901 0.147916C24.2678 0.102589 24.1425 0.0705158 24.0147 0.0524133L23.9586 0.448459ZM24.2512 0.523006L24.1122 0.898095L24.2569 0.951696L24.3959 0.576607L24.5348 0.201517L24.3901 0.147916L24.2512 0.523006ZM24.3959 0.576607L24.2569 0.951696L24.4016 1.0053L24.5406 0.630208L24.6795 0.255118L24.5348 0.201517L24.3959 0.576607ZM24.5406 0.630208L24.4016 1.0053C24.5211 1.04956 24.6432 1.08237 24.7679 1.10338L24.8343 0.708943L24.9008 0.314508C24.8266 0.302001 24.753 0.282327 24.6795 0.255118L24.5406 0.630208ZM24.8343 0.708943L24.7679 1.10338L24.9169 1.12851L24.9834 0.734076L25.0499 0.339641L24.9008 0.314508L24.8343 0.708943ZM24.9834 0.734076L24.9169 1.12851L25.066 1.15365L25.1325 0.75921L25.199 0.364775L25.0499 0.339641L24.9834 0.734076ZM25.1325 0.75921L25.066 1.15365C25.1735 1.17176 25.2813 1.18654 25.3894 1.19797L25.4315 0.800184L25.4735 0.4024C25.3818 0.392708 25.2903 0.380169 25.199 0.364775L25.1325 0.75921ZM25.4315 0.800184L25.3894 1.19797L25.5392 1.21381L25.5813 0.816023L25.6233 0.418239L25.4735 0.4024L25.4315 0.800184ZM25.5813 0.816023L25.5392 1.21381L25.6891 1.22965L25.7311 0.831862L25.7732 0.434079L25.6233 0.418239L25.5813 0.816023ZM25.7311 0.831862L25.6891 1.22965C25.7889 1.2402 25.8887 1.25076 25.9883 1.26133L26.0305 0.863563L26.0727 0.465795C25.9729 0.455215 25.8731 0.444643 25.7732 0.434079L25.7311 0.831862ZM26.0305 0.863563L25.9883 1.26133L26.1378 1.27719L26.18 0.879425L26.2222 0.481656L26.0727 0.465795L26.0305 0.863563ZM26.18 0.879425L26.1378 1.27719L26.2874 1.29306L26.3296 0.895287L26.3718 0.497518L26.2222 0.481656L26.18 0.879425ZM26.3296 0.895287L26.2874 1.29306C26.4138 1.30646 26.5405 1.30711 26.6672 1.29502L26.6292 0.896827L26.5912 0.498637C26.5177 0.505644 26.4447 0.505259 26.3718 0.497518L26.3296 0.895287ZM26.6292 0.896827L26.6672 1.29502L26.8172 1.2807L26.7792 0.882506L26.7412 0.484315L26.5912 0.498637L26.6292 0.896827ZM26.7792 0.882506L26.8172 1.2807L26.9673 1.26637L26.9293 0.868184L26.8913 0.469994L26.7412 0.484315L26.7792 0.882506ZM26.9293 0.868184L26.9673 1.26637C27.0318 1.26022 27.0846 1.26381 27.1283 1.27302L27.2109 0.881648L27.2935 0.490278C27.1617 0.462442 27.0268 0.457056 26.8913 0.469994L26.9293 0.868184ZM27.2109 0.881648L27.1283 1.27302L27.2598 1.3008L27.3425 0.909434L27.4251 0.518063L27.2935 0.490278L27.2109 0.881648ZM27.3425 0.909434L27.2598 1.3008L27.3914 1.32859L27.4741 0.937219L27.5567 0.545849L27.4251 0.518063L27.3425 0.909434ZM27.4741 0.937219L27.3914 1.32859C27.3866 1.32757 27.371 1.3231 27.3524 1.30952C27.3335 1.29569 27.3222 1.28022 27.317 1.27081L27.6679 1.07882L28.0188 0.886838C27.919 0.704308 27.7539 0.587483 27.5567 0.545849L27.4741 0.937219ZM27.6679 1.07882L27.317 1.27081L27.3793 1.38463L27.7302 1.19264L28.0811 1.00066L28.0188 0.886838L27.6679 1.07882ZM27.7302 1.19264L27.3793 1.38463L27.4416 1.49845L27.7925 1.30646L28.1434 1.11448L28.0811 1.00066L27.7302 1.19264ZM27.7925 1.30646L27.4416 1.49845C27.5142 1.63125 27.6166 1.74192 27.7329 1.83432L27.9817 1.52109L28.2304 1.20786C28.1775 1.16585 28.1538 1.13343 28.1434 1.11448L27.7925 1.30646ZM27.9817 1.52109L27.7329 1.83432L27.8598 1.93512L28.1086 1.62189L28.3574 1.30866L28.2304 1.20786L27.9817 1.52109ZM28.1086 1.62189L27.8598 1.93512L27.9867 2.03593L28.2355 1.7227L28.4843 1.40947L28.3574 1.30866L28.1086 1.62189ZM28.2355 1.7227L27.9867 2.03593C28.046 2.08301 28.0948 2.13332 28.1348 2.18659L28.4548 1.94658L28.7747 1.70656C28.6916 1.59574 28.5942 1.4968 28.4843 1.40947L28.2355 1.7227ZM28.4548 1.94658L28.1348 2.18659L28.2271 2.30966L28.5471 2.06965L28.8671 1.82963L28.7747 1.70656L28.4548 1.94658ZM28.5471 2.06965L28.2271 2.30966L28.3194 2.43273L28.6394 2.19271L28.9594 1.9527L28.8671 1.82963L28.5471 2.06965ZM28.6394 2.19271L28.3194 2.43273C28.3546 2.47962 28.3773 2.52549 28.3912 2.57117L28.7739 2.45502L29.1567 2.33887C29.1142 2.1989 29.0473 2.0699 28.9594 1.9527L28.6394 2.19271ZM28.7739 2.45502L28.3912 2.57117L28.4334 2.71041L28.8162 2.59426L29.199 2.47811L29.1567 2.33887L28.7739 2.45502ZM28.8162 2.59426L28.4334 2.71041L28.4757 2.84964L28.8584 2.73349L29.2412 2.61735L29.199 2.47811L28.8162 2.59426ZM28.8584 2.73349L28.4757 2.84964C28.529 3.02528 28.6343 3.17511 28.7895 3.28143L29.0156 2.95148L29.2417 2.62153C29.2406 2.62076 29.2406 2.62063 29.2412 2.62125C29.2419 2.62189 29.2427 2.62276 29.2433 2.62369C29.245 2.62598 29.2436 2.62505 29.2412 2.61735L28.8584 2.73349ZM29.0156 2.95148L28.7895 3.28143L28.9044 3.36017L29.1305 3.03022L29.3566 2.70027L29.2417 2.62153L29.0156 2.95148ZM29.1305 3.03022L28.9044 3.36017L29.0193 3.43891L29.2454 3.10896L29.4715 2.77901L29.3566 2.70027L29.1305 3.03022ZM29.2454 3.10896L29.0193 3.43891C29.1467 3.52625 29.2888 3.5813 29.4397 3.60664L29.506 3.21217L29.5722 2.81769C29.5289 2.81042 29.4973 2.79667 29.4715 2.77901L29.2454 3.10896ZM29.506 3.21217L29.4397 3.60664L29.5854 3.6311L29.6516 3.23662L29.7178 2.84214L29.5722 2.81769L29.506 3.21217ZM29.6516 3.23662L29.5854 3.6311L29.731 3.65556L29.7973 3.26108L29.8635 2.8666L29.7178 2.84214L29.6516 3.23662ZM29.7973 3.26108L29.731 3.65556C29.8332 3.6727 29.9361 3.68798 30.0398 3.70138L30.091 3.30469L30.1423 2.90799C30.0485 2.89586 29.9556 2.88206 29.8635 2.8666L29.7973 3.26108ZM30.091 3.30469L30.0398 3.70138L30.1879 3.72053L30.2392 3.32384L30.2905 2.92714L30.1423 2.90799L30.091 3.30469ZM30.2392 3.32384L30.1879 3.72053L30.336 3.73968L30.3873 3.34299L30.4386 2.94629L30.2905 2.92714L30.2392 3.32384ZM30.3873 3.34299L30.336 3.73968C30.3705 3.74415 30.4076 3.75664 30.4498 3.78436L30.6692 3.44987L30.8885 3.11538C30.7524 3.02612 30.6015 2.96736 30.4386 2.94629L30.3873 3.34299ZM30.6692 3.44987L30.4498 3.78436L30.5836 3.87209L30.803 3.5376L31.0223 3.20311L30.8885 3.11538L30.6692 3.44987ZM30.803 3.5376L30.5836 3.87209L30.7174 3.95982L30.9367 3.62533L31.1561 3.29084L31.0223 3.20311L30.803 3.5376ZM30.9367 3.62533L30.7174 3.95982C30.8677 4.05837 31.0369 4.11238 31.2177 4.11665L31.2271 3.71676L31.2365 3.31687C31.2085 3.31621 31.1842 3.30927 31.1561 3.29084L30.9367 3.62533ZM31.2271 3.71676L31.2177 4.11665L31.3743 4.12034L31.3837 3.72045L31.3931 3.32056L31.2365 3.31687L31.2271 3.71676ZM31.3837 3.72045L31.3743 4.12034L31.5309 4.12403L31.5403 3.72414L31.5497 3.32425L31.3931 3.32056L31.3837 3.72045ZM31.5403 3.72414L31.5309 4.12403C31.5634 4.1248 31.5848 4.13248 31.6047 4.14549L31.8237 3.81074L32.0426 3.47598C31.8935 3.37845 31.726 3.32841 31.5497 3.32425L31.5403 3.72414ZM31.8237 3.81074L31.6047 4.14549L31.7315 4.2284L31.9504 3.89364L32.1694 3.55888L32.0426 3.47598L31.8237 3.81074ZM31.9504 3.89364L31.7315 4.2284L31.8582 4.3113L32.0772 3.97654L32.2961 3.64179L32.1694 3.55888L31.9504 3.89364ZM32.0772 3.97654L31.8582 4.3113C31.9428 4.36661 32.0271 4.4217 32.1111 4.47658L32.3298 4.1417L32.5486 3.80682C32.4647 3.75203 32.3805 3.69701 32.2961 3.64179L32.0772 3.97654ZM32.3298 4.1417L32.1111 4.47658L32.237 4.55884L32.4558 4.22396L32.6745 3.88908L32.5486 3.80682L32.3298 4.1417ZM32.4558 4.22396L32.237 4.55884L32.3629 4.6411L32.5817 4.30622L32.8004 3.97134L32.6745 3.88908L32.4558 4.22396ZM32.5817 4.30622L32.3629 4.6411C32.4303 4.68509 32.4939 4.73378 32.554 4.78724L32.8199 4.48845L33.0859 4.18966C32.9962 4.10982 32.901 4.03702 32.8004 3.97134L32.5817 4.30622ZM32.8199 4.48845L32.554 4.78724L32.6663 4.88722L32.9323 4.58843L33.1982 4.28964L33.0859 4.18966L32.8199 4.48845ZM32.9323 4.58843L32.6663 4.88722L32.7786 4.9872L33.0446 4.68841L33.3105 4.38962L33.1982 4.28964L32.9323 4.58843ZM33.0446 4.68841L32.7786 4.9872C32.8279 5.03102 32.8723 5.08175 32.912 5.14051L33.2435 4.91676L33.5751 4.693C33.4992 4.5806 33.4111 4.47911 33.3105 4.38962L33.0446 4.68841ZM33.2435 4.91676L32.912 5.14051L32.9986 5.26887L33.3302 5.04512L33.6617 4.82137L33.5751 4.693L33.2435 4.91676ZM33.3302 5.04512L32.9986 5.26887L33.0852 5.39724L33.4168 5.17349L33.7484 4.94973L33.6617 4.82137L33.3302 5.04512ZM33.4168 5.17349L33.0852 5.39724C33.2153 5.58999 33.4102 5.6917 33.6168 5.72717L33.6845 5.33294L33.7522 4.9387C33.7317 4.93519 33.7273 4.93126 33.7317 4.93388C33.7339 4.93515 33.7371 4.9374 33.7406 4.9407C33.7441 4.944 33.7467 4.94725 33.7484 4.94973L33.4168 5.17349ZM33.6845 5.33294L33.6168 5.72717L33.7979 5.75825L33.8655 5.36402L33.9332 4.96979L33.7522 4.9387L33.6845 5.33294ZM33.8655 5.36402L33.7979 5.75825L33.9789 5.78934L34.0466 5.39511L34.1143 5.00087L33.9332 4.96979L33.8655 5.36402ZM34.0466 5.39511L33.9789 5.78934C33.9737 5.78844 33.9211 5.77713 33.874 5.72011C33.8276 5.66402 33.827 5.61268 33.827 5.61186L34.227 5.61325L34.627 5.61465C34.6274 5.48912 34.597 5.33907 34.4905 5.21026C34.3832 5.08053 34.2403 5.0225 34.1143 5.00087L34.0466 5.39511ZM34.227 5.61325L33.827 5.61186L33.8264 5.79892L34.2264 5.80032L34.6264 5.80171L34.627 5.61465L34.227 5.61325ZM34.2264 5.80032L33.8264 5.79892L33.8257 5.98599L34.2257 5.98738L34.6257 5.98877L34.6264 5.80171L34.2264 5.80032ZM34.2257 5.98738L33.8257 5.98599C33.8251 6.17073 33.866 6.35508 33.9698 6.51895L34.3077 6.30495L34.6456 6.09096C34.6392 6.08081 34.6255 6.05344 34.6257 5.98877L34.2257 5.98738ZM34.3077 6.30495L33.9698 6.51895L34.0524 6.64946L34.3904 6.43546L34.7283 6.22147L34.6456 6.09096L34.3077 6.30495ZM34.3904 6.43546L34.0524 6.64946L34.135 6.77997L34.473 6.56597L34.8109 6.35198L34.7283 6.22147L34.3904 6.43546ZM34.473 6.56597L34.135 6.77997C34.25 6.96147 34.4224 7.07569 34.6221 7.12454L34.7172 6.736L34.8122 6.34745C34.8062 6.34598 34.8031 6.3447 34.8021 6.3443C34.8013 6.34393 34.8021 6.34421 34.8039 6.34547C34.8058 6.34676 34.8077 6.34837 34.8093 6.35005C34.8108 6.3517 34.8113 6.35258 34.8109 6.35198L34.473 6.56597ZM34.7172 6.736L34.6221 7.12454L34.7837 7.16406L34.8787 6.77551L34.9738 6.38697L34.8122 6.34745L34.7172 6.736ZM34.8787 6.77551L34.7837 7.16406L34.9452 7.20357L35.0403 6.81503L35.1353 6.42648L34.9738 6.38697L34.8787 6.77551ZM35.0403 6.81503L34.9452 7.20357C35.1199 7.2463 35.2996 7.24359 35.4742 7.18537L35.3476 6.80591L35.2211 6.42645C35.2013 6.43307 35.176 6.43643 35.1353 6.42648L35.0403 6.81503ZM35.3476 6.80591L35.4742 7.18537L35.62 7.13674L35.4935 6.75728L35.3669 6.37782L35.2211 6.42645L35.3476 6.80591ZM35.4935 6.75728L35.62 7.13674L35.7658 7.0881L35.6393 6.70865L35.5127 6.32919L35.3669 6.37782L35.4935 6.75728ZM35.6393 6.70865L35.7658 7.0881C35.8551 7.05834 35.9349 7.03493 36.0058 7.0173L35.9092 6.62914L35.8126 6.24098C35.718 6.26452 35.6179 6.29412 35.5127 6.32919L35.6393 6.70865ZM35.9092 6.62914L36.0058 7.0173L36.1298 6.98642L36.0332 6.59826L35.9366 6.2101L35.8126 6.24098L35.9092 6.62914ZM36.0332 6.59826L36.1298 6.98642L36.2539 6.95554L36.1573 6.56739L36.0607 6.17923L35.9366 6.2101L36.0332 6.59826ZM36.1573 6.56739L36.2539 6.95554C36.4182 6.91464 36.559 6.82657 36.6689 6.70119L36.3681 6.4375L36.0674 6.17381C36.0631 6.17869 36.0613 6.17949 36.0622 6.1789C36.0633 6.17826 36.0634 6.17855 36.0607 6.17923L36.1573 6.56739ZM36.3681 6.4375L36.6689 6.70119L36.7557 6.60217L36.4549 6.33849L36.1542 6.0748L36.0674 6.17381L36.3681 6.4375ZM36.4549 6.33849L36.7557 6.60217L36.8425 6.50316L36.5417 6.23948L36.241 5.97579L36.1542 6.0748L36.4549 6.33849ZM36.5417 6.23948L36.8425 6.50316C36.858 6.48548 36.8939 6.45397 36.9674 6.41629L36.7849 6.06032L36.6025 5.70434C36.4675 5.77353 36.3412 5.86146 36.241 5.97579L36.5417 6.23948ZM36.7849 6.06032L36.9674 6.41629L37.1238 6.33615L36.9413 5.98017L36.7589 5.6242L36.6025 5.70434L36.7849 6.06032ZM36.9413 5.98017L37.1238 6.33615L37.2801 6.256L37.0977 5.90002L36.9153 5.54405L36.7589 5.6242L36.9413 5.98017ZM37.0977 5.90002L37.2801 6.256C37.4739 6.15668 37.6254 5.99006 37.6787 5.75817L37.2889 5.66854L36.8991 5.5789C36.8998 5.57578 36.9014 5.57058 36.9045 5.56427C36.9076 5.55791 36.9114 5.55213 36.9153 5.54736C36.9235 5.53743 36.9271 5.53797 36.9153 5.54405L37.0977 5.90002ZM37.2889 5.66854L37.6787 5.75817L37.7135 5.60683L37.3237 5.51719L36.9339 5.42756L36.8991 5.5789L37.2889 5.66854ZM37.3237 5.51719L37.7135 5.60683L37.7483 5.45549L37.3585 5.36585L36.9687 5.27622L36.9339 5.42756L37.3237 5.51719ZM37.3585 5.36585L37.7483 5.45549C37.7611 5.39995 37.7821 5.35101 37.8115 5.30625L37.477 5.08689L37.1425 4.86753C37.0603 4.99294 37.0023 5.12997 36.9687 5.27622L37.3585 5.36585ZM37.477 5.08689L37.8115 5.30625L37.8952 5.17863L37.5607 4.95927L37.2262 4.73991L37.1425 4.86753L37.477 5.08689ZM37.5607 4.95927L37.8952 5.17863L37.9789 5.05101L37.6444 4.83165L37.3099 4.61229L37.2262 4.73991L37.5607 4.95927ZM37.6444 4.83165L37.9789 5.05101C38.0641 4.92111 38.1211 4.77825 38.1494 4.62556L37.7561 4.5527L37.3628 4.47984C37.3537 4.52892 37.3363 4.57204 37.3099 4.61229L37.6444 4.83165ZM37.7561 4.5527L38.1494 4.62556L38.1775 4.47423L37.7841 4.40137L37.3908 4.32851L37.3628 4.47984L37.7561 4.5527ZM37.7841 4.40137L38.1775 4.47423L38.2055 4.3229L37.8122 4.25004L37.4189 4.17718L37.3908 4.32851L37.7841 4.40137ZM37.8122 4.25004L38.2055 4.3229C38.2162 4.26521 38.2348 4.21569 38.2604 4.17167L37.9145 3.97083L37.5685 3.76999C37.4951 3.89648 37.4456 4.03309 37.4189 4.17718L37.8122 4.25004ZM37.9145 3.97083L38.2604 4.17167L38.3346 4.04379L37.9887 3.84295L37.6428 3.64211L37.5685 3.76999L37.9145 3.97083ZM37.9887 3.84295L38.3346 4.04379L38.4089 3.91592L38.063 3.71508L37.717 3.51423L37.6428 3.64211L37.9887 3.84295ZM38.063 3.71508L38.4089 3.91592C38.4316 3.87677 38.4635 3.83895 38.5093 3.80265L38.2608 3.48922L38.0122 3.1758C37.8933 3.27013 37.7933 3.38288 37.717 3.51423L38.063 3.71508ZM38.2608 3.48922L38.5093 3.80265L38.6328 3.70468L38.3843 3.39125L38.1358 3.07782L38.0122 3.1758L38.2608 3.48922ZM38.3843 3.39125L38.6328 3.70468L38.7564 3.6067L38.5079 3.29328L38.2594 2.97985L38.1358 3.07782L38.3843 3.39125ZM38.5079 3.29328L38.7564 3.6067C38.7371 3.62201 38.6948 3.6446 38.6378 3.64446C38.5866 3.64433 38.5611 3.62586 38.5677 3.63014L38.7844 3.29396L39.0012 2.95778C38.9058 2.89629 38.7831 2.84482 38.6398 2.84446C38.4906 2.8441 38.361 2.89923 38.2594 2.97985L38.5079 3.29328ZM38.7844 3.29396L38.5677 3.63014L38.7207 3.72879L38.9375 3.39261L39.1542 3.05644L39.0012 2.95778L38.7844 3.29396ZM38.9375 3.39261L38.7207 3.72879L38.8737 3.82745L39.0905 3.49127L39.3072 3.15509L39.1542 3.05644L38.9375 3.39261ZM39.0905 3.49127L38.8737 3.82745C39.0821 3.96184 39.3333 3.99224 39.5723 3.87272L39.3934 3.51495L39.2145 3.15719C39.2226 3.15314 39.2446 3.14544 39.2739 3.14773C39.3014 3.14989 39.3135 3.15914 39.3072 3.15509L39.0905 3.49127ZM39.3934 3.51495L39.5723 3.87272L39.7222 3.79775L39.5433 3.43998L39.3645 3.08221L39.2145 3.15719L39.3934 3.51495ZM39.5433 3.43998L39.7222 3.79775L39.8722 3.72277L39.6933 3.36501L39.5144 3.00724L39.3645 3.08221L39.5433 3.43998ZM39.6933 3.36501L39.8722 3.72277C39.9016 3.70805 39.9122 3.71086 39.9167 3.71173L39.9929 3.31904L40.069 2.92635C39.874 2.88855 39.6849 2.922 39.5144 3.00724L39.6933 3.36501ZM39.9929 3.31904L39.9167 3.71173L40.0664 3.74074L40.1425 3.34804L40.2186 2.95535L40.069 2.92635L39.9929 3.31904ZM40.1425 3.34804L40.0664 3.74074L40.216 3.76974L40.2921 3.37705L40.3683 2.98436L40.2186 2.95535L40.1425 3.34804ZM40.2921 3.37705L40.216 3.76974C40.3304 3.79191 40.4452 3.80756 40.5603 3.81661L40.5917 3.41785L40.6231 3.01908C40.5383 3.01241 40.4534 3.00087 40.3683 2.98436L40.2921 3.37705ZM40.5917 3.41785L40.5603 3.81661L40.7103 3.82841L40.7416 3.42964L40.773 3.03087L40.6231 3.01908L40.5917 3.41785ZM40.7416 3.42964L40.7103 3.82841L40.8602 3.8402L40.8915 3.44143L40.9229 3.04266L40.773 3.03087L40.7416 3.42964ZM40.8915 3.44143L40.8602 3.8402C41.0261 3.85325 41.1876 3.82556 41.3406 3.76461L41.1925 3.39304L41.0444 3.02146C40.996 3.04076 40.9569 3.04533 40.9229 3.04266L40.8915 3.44143ZM41.1925 3.39304L41.3406 3.76461L41.4916 3.70443L41.3435 3.33286L41.1954 2.96128L41.0444 3.02146L41.1925 3.39304ZM41.3435 3.33286L41.4916 3.70443L41.6426 3.64425L41.4945 3.27268L41.3464 2.9011L41.1954 2.96128L41.3435 3.33286ZM41.4945 3.27268L41.6426 3.64425C41.6477 3.6422 41.6509 3.64138 41.6525 3.64106C41.6539 3.64075 41.6543 3.64079 41.654 3.6408C41.6536 3.64081 41.6535 3.64076 41.6539 3.64083C41.6543 3.6409 41.6562 3.64124 41.6596 3.64248L41.7946 3.26593L41.9295 2.88938C41.7357 2.81992 41.535 2.82592 41.3464 2.9011L41.4945 3.27268ZM41.7946 3.26593L41.6596 3.64248L41.8087 3.69591L41.9436 3.31937L42.0786 2.94282L41.9295 2.88938L41.7946 3.26593ZM41.9436 3.31937L41.8087 3.69591L41.9578 3.74935L42.0927 3.3728L42.2277 2.99626L42.0786 2.94282L41.9436 3.31937ZM42.0927 3.3728L41.9578 3.74935C42.0896 3.79659 42.225 3.82606 42.3631 3.83593L42.3917 3.43695L42.4202 3.03797C42.3586 3.03356 42.2947 3.02026 42.2277 2.99626L42.0927 3.3728ZM42.3917 3.43695L42.3631 3.83593L42.513 3.84665L42.5415 3.44767L42.57 3.04868L42.4202 3.03797L42.3917 3.43695ZM42.5415 3.44767L42.513 3.84665L42.6628 3.85736L42.6913 3.45838L42.7199 3.0594L42.57 3.04868L42.5415 3.44767ZM42.6913 3.45838L42.6628 3.85736C42.7177 3.86128 42.7705 3.87405 42.8231 3.89661L42.9809 3.52902L43.1386 3.16143C43.0049 3.10409 42.8648 3.06976 42.7199 3.0594L42.6913 3.45838ZM42.9809 3.52902L42.8231 3.89661L42.9628 3.95654L43.1205 3.58895L43.2783 3.22136L43.1386 3.16143L42.9809 3.52902ZM43.1205 3.58895L42.9628 3.95654L43.1025 4.01648L43.2602 3.64889L43.4179 3.2813L43.2783 3.22136L43.1205 3.58895ZM43.2602 3.64889L43.1025 4.01648C43.2482 4.07901 43.4022 4.10883 43.5606 4.10619L43.5539 3.70624L43.5472 3.3063C43.5002 3.30708 43.4584 3.29867 43.4179 3.2813L43.2602 3.64889ZM43.5539 3.70624L43.5606 4.10619L43.7146 4.10361L43.7079 3.70367L43.7012 3.30372L43.5472 3.3063L43.5539 3.70624ZM43.7079 3.70367L43.7146 4.10361L43.8686 4.10104L43.8619 3.70109L43.8552 3.30115L43.7012 3.30372L43.7079 3.70367ZM43.8619 3.70109L43.8686 4.10104C43.8716 4.10099 43.8643 4.10143 43.852 4.09641C43.8395 4.09127 43.8323 4.08477 43.8311 4.08347L44.1195 3.80632L44.4079 3.52917C44.2592 3.37443 44.0652 3.29764 43.8552 3.30115L43.8619 3.70109ZM44.1195 3.80632L43.8311 4.08347L43.9346 4.19127L44.2231 3.91412L44.5115 3.63697L44.4079 3.52917L44.1195 3.80632ZM44.2231 3.91412L43.9346 4.19127L44.0382 4.29907L44.3267 4.02192L44.6151 3.74477L44.5115 3.63697L44.2231 3.91412ZM44.3267 4.02192L44.0382 4.29907C44.1019 4.36535 44.1652 4.43507 44.2281 4.50826L44.5315 4.24765L44.835 3.98705C44.7628 3.903 44.6895 3.82222 44.6151 3.74477L44.3267 4.02192ZM44.5315 4.24765L44.2281 4.50826L44.3293 4.62619L44.6328 4.36559L44.9363 4.10499L44.835 3.98705L44.5315 4.24765ZM44.6328 4.36559L44.3293 4.62619L44.4306 4.74413L44.7341 4.48353L45.0375 4.22292L44.9363 4.10499L44.6328 4.36559ZM44.7341 4.48353L44.4306 4.74413C44.5308 4.86073 44.6498 4.95586 44.7852 5.0288L44.9749 4.67666L45.1647 4.32452C45.1139 4.29719 45.0724 4.26357 45.0375 4.22292L44.7341 4.48353ZM44.9749 4.67666L44.7852 5.0288L44.9248 5.104L45.1145 4.75186L45.3042 4.39973L45.1647 4.32452L44.9749 4.67666ZM45.1145 4.75186L44.9248 5.104L45.0644 5.17921L45.2541 4.82707L45.4438 4.47493L45.3042 4.39973L45.1145 4.75186ZM45.2541 4.82707L45.0644 5.17921C45.2054 5.25521 45.3575 5.30066 45.5174 5.31323L45.5488 4.91446L45.5801 4.51569C45.5332 4.51201 45.4888 4.49919 45.4438 4.47493L45.2541 4.82707ZM45.5488 4.91446L45.5174 5.31323L45.6725 5.32542L45.7039 4.92665L45.7352 4.52788L45.5801 4.51569L45.5488 4.91446ZM45.7039 4.92665L45.6725 5.32542L45.8276 5.33761L45.859 4.93884L45.8903 4.54007L45.7352 4.52788L45.7039 4.92665ZM45.859 4.93884L45.8276 5.33761C45.9171 5.34464 46.0005 5.35593 46.078 5.37107L46.1547 4.97849L46.2314 4.5859C46.1214 4.56444 46.0076 4.54929 45.8903 4.54007L45.859 4.93884ZM46.1547 4.97849L46.078 5.37107L46.2186 5.39853L46.2953 5.00595L46.372 4.61336L46.2314 4.5859L46.1547 4.97849ZM46.2953 5.00595L46.2186 5.39853L46.3593 5.42599L46.4359 5.03341L46.5126 4.64082L46.372 4.61336L46.2953 5.00595ZM46.4359 5.03341L46.3593 5.42599C46.3461 5.42342 46.3246 5.41557 46.304 5.39861C46.2844 5.38251 46.2781 5.3686 46.2789 5.37038L46.642 5.20257L47.0051 5.03477C46.9132 4.83591 46.745 4.6862 46.5126 4.64082L46.4359 5.03341ZM46.642 5.20257L46.2789 5.37038L46.3444 5.51209L46.7075 5.34429L47.0706 5.17648L47.0051 5.03477L46.642 5.20257ZM46.7075 5.34429L46.3444 5.51209L46.4099 5.6538L46.773 5.486L47.1361 5.31819L47.0706 5.17648L46.7075 5.34429ZM46.773 5.486L46.4099 5.6538C46.4565 5.75468 46.5028 5.8476 46.5488 5.93193L46.9 5.74033L47.2511 5.54873C47.2152 5.4829 47.1768 5.40626 47.1361 5.31819L46.773 5.486ZM46.9 5.74033L46.5488 5.93193L46.6103 6.04455L46.9614 5.85295L47.3125 5.66135L47.2511 5.54873L46.9 5.74033ZM46.9614 5.85295L46.6103 6.04455L46.6717 6.15717L47.0229 5.96557L47.374 5.77397L47.3125 5.66135L46.9614 5.85295ZM47.0229 5.96557L46.6717 6.15717C46.6951 6.19996 46.7224 6.26529 46.7501 6.35967L47.1339 6.24684L47.5177 6.13401C47.4793 6.00352 47.4326 5.88134 47.374 5.77397L47.0229 5.96557ZM47.1339 6.24684L46.7501 6.35967L46.7997 6.52832L47.1835 6.41549L47.5672 6.30266L47.5177 6.13401L47.1339 6.24684ZM47.1835 6.41549L46.7997 6.52832L46.8493 6.69697L47.2331 6.58414L47.6168 6.47131L47.5672 6.30266L47.1835 6.41549ZM47.2331 6.58414L46.8493 6.69697C46.8842 6.81562 46.9532 6.94131 47.0785 7.03278C47.2037 7.12414 47.3442 7.1516 47.4674 7.14903L47.4591 6.74912L47.4507 6.3492C47.4563 6.34909 47.5004 6.35027 47.5502 6.38664C47.6002 6.42311 47.615 6.46509 47.6168 6.47131L47.2331 6.58414ZM47.4591 6.74912L47.4674 7.14903L47.6438 7.14536L47.6355 6.74544L47.6271 6.34553L47.4507 6.3492L47.4591 6.74912ZM47.6355 6.74544L47.6438 7.14536L47.8202 7.14169L47.8119 6.74177L47.8036 6.34186L47.6271 6.34553L47.6355 6.74544ZM47.8119 6.74177L47.8202 7.14169C47.8789 7.14046 47.9036 7.15226 47.9121 7.15726L48.1147 6.81238L48.3174 6.46751C48.1573 6.37346 47.9801 6.33818 47.8036 6.34186L47.8119 6.74177ZM48.1147 6.81238L47.9121 7.15726L48.0385 7.23154L48.2411 6.88667L48.4438 6.5418L48.3174 6.46751L48.1147 6.81238ZM48.2411 6.88667L48.0385 7.23154L48.1649 7.30583L48.3676 6.96095L48.5702 6.61608L48.4438 6.5418L48.2411 6.88667ZM48.3676 6.96095L48.1649 7.30583C48.2883 7.37831 48.4211 7.42857 48.5616 7.45602L48.6383 7.06345L48.715 6.67088C48.6631 6.66072 48.6154 6.64264 48.5702 6.61608L48.3676 6.96095ZM48.6383 7.06345L48.5616 7.45602L48.7059 7.48423L48.7826 7.09166L48.8594 6.69909L48.715 6.67088L48.6383 7.06345ZM48.7826 7.09166L48.7059 7.48423L48.8502 7.51244L48.9269 7.11987L49.0037 6.7273L48.8594 6.69909L48.7826 7.09166ZM48.9269 7.11987L48.8502 7.51244C48.9307 7.52818 49.0122 7.54911 49.0948 7.57543L49.2163 7.19435L49.3379 6.81327C49.227 6.77789 49.1156 6.74917 49.0037 6.7273L48.9269 7.11987ZM49.2163 7.19435L49.0948 7.57543L49.2399 7.62171L49.3614 7.24063L49.483 6.85954L49.3379 6.81327L49.2163 7.19435ZM49.3614 7.24063L49.2399 7.62171L49.3849 7.66798L49.5065 7.2869L49.628 6.90582L49.483 6.85954L49.3614 7.24063ZM49.5065 7.2869L49.3849 7.66798C49.5396 7.71731 49.6996 7.73043 49.8603 7.70659L49.8015 7.31092L49.7428 6.91525C49.7035 6.92109 49.6668 6.91819 49.628 6.90582L49.5065 7.2869ZM49.8015 7.31092L49.8603 7.70659L50.0102 7.68434L49.9515 7.28867L49.8928 6.893L49.7428 6.91525L49.8015 7.31092ZM49.9515 7.28867L50.0102 7.68434L50.1602 7.66208L50.1015 7.26641L50.0428 6.87075L49.8928 6.893L49.9515 7.28867ZM50.1015 7.26641L50.1602 7.66208C50.2075 7.65507 50.2557 7.65701 50.3079 7.66977L50.403 7.28124L50.4981 6.89271C50.3482 6.85603 50.1955 6.84808 50.0428 6.87075L50.1015 7.26641ZM50.403 7.28124L50.3079 7.66977L50.4594 7.70685L50.5545 7.31832L50.6496 6.92979L50.4981 6.89271L50.403 7.28124ZM50.5545 7.31832L50.4594 7.70685L50.6109 7.74394L50.706 7.3554L50.8011 6.96687L50.6496 6.92979L50.5545 7.31832ZM50.706 7.3554L50.6109 7.74394C50.771 7.78313 50.9345 7.78529 51.0959 7.74741L51.0045 7.35798L50.9131 6.96856C50.8785 6.97668 50.8429 6.97712 50.8011 6.96687L50.706 7.3554ZM51.0045 7.35798L51.0959 7.74741L51.2429 7.7129L51.1515 7.32348L51.0602 6.93406L50.9131 6.96856L51.0045 7.35798ZM51.1515 7.32348L51.2429 7.7129L51.39 7.6784L51.2986 7.28898L51.2072 6.89956L51.0602 6.93406L51.1515 7.32348ZM51.2986 7.28898L51.39 7.6784C51.4437 7.66579 51.5037 7.66111 51.5719 7.66711L51.6069 7.26865L51.6419 6.87018C51.4951 6.85728 51.3495 6.86617 51.2072 6.89956L51.2986 7.28898ZM51.6069 7.26865L51.5719 7.66711L51.7332 7.68128L51.7682 7.28282L51.8032 6.88435L51.6419 6.87018L51.6069 7.26865ZM51.7682 7.28282L51.7332 7.68128L51.8945 7.69545L51.9295 7.29699L51.9645 6.89852L51.8032 6.88435L51.7682 7.28282ZM51.9295 7.29699L51.8945 7.69545C52.1295 7.7161 52.3372 7.62944 52.4965 7.47506L52.2182 7.18778L51.9399 6.9005C51.9308 6.90927 51.9308 6.90643 51.9408 6.90265C51.9454 6.90089 51.9506 6.8996 51.9556 6.89893C51.9605 6.89828 51.9637 6.89845 51.9645 6.89852L51.9295 7.29699ZM52.2182 7.18778L52.4965 7.47506L52.6239 7.35168L52.3455 7.06439L52.0672 6.77711L51.9399 6.9005L52.2182 7.18778ZM52.3455 7.06439L52.6239 7.35168L52.7512 7.22829L52.4729 6.94101L52.1945 6.65373L52.0672 6.77711L52.3455 7.06439ZM52.4729 6.94101L52.7512 7.22829C52.7466 7.23272 52.7051 7.26963 52.629 7.27436C52.5533 7.27906 52.5083 7.24789 52.5046 7.24509L52.7434 6.92423L52.9823 6.60336C52.8831 6.5295 52.7453 6.4656 52.5794 6.47589C52.4131 6.48621 52.284 6.56705 52.1945 6.65373L52.4729 6.94101ZM52.7434 6.92423L52.5046 7.24509L52.6478 7.35169L52.8866 7.03082L53.1255 6.70996L52.9823 6.60336L52.7434 6.92423ZM52.8866 7.03082L52.6478 7.35169L52.791 7.45828L53.0298 7.13742L53.2687 6.81655L53.1255 6.70996L52.8866 7.03082ZM53.0298 7.13742L52.791 7.45828C52.9232 7.55671 53.074 7.6328 53.2423 7.66206L53.3108 7.26797L53.3793 6.87388C53.3639 6.87119 53.3274 6.86025 53.2687 6.81655L53.0298 7.13742ZM53.3108 7.26797L53.2423 7.66206L53.3801 7.68602L53.4486 7.29193L53.5171 6.89784L53.3793 6.87388L53.3108 7.26797ZM53.4486 7.29193L53.3801 7.68602L53.5179 7.70997L53.5864 7.31589L53.6549 6.9218L53.5171 6.89784L53.4486 7.29193ZM53.5864 7.31589L53.5179 7.70997C53.6333 7.73005 53.7596 7.74099 53.8946 7.74476L53.9057 7.34491L53.9169 6.94507C53.8097 6.94208 53.7232 6.93367 53.6549 6.9218L53.5864 7.31589ZM53.9057 7.34491L53.8946 7.74476L54.0761 7.74983L54.0873 7.34998L54.0985 6.95014L53.9169 6.94507L53.9057 7.34491ZM54.0873 7.34998L54.0761 7.74983L54.2577 7.7549L54.2688 7.35505L54.28 6.95521L54.0985 6.95014L54.0873 7.34998ZM54.2688 7.35505L54.2577 7.7549C54.2635 7.75506 54.2399 7.75535 54.2069 7.73445C54.1716 7.71203 54.154 7.68333 54.1483 7.66991L54.5157 7.51177L54.8831 7.35362C54.8338 7.23911 54.7533 7.13374 54.6357 7.05908C54.5205 6.98594 54.3953 6.95842 54.28 6.95521L54.2688 7.35505ZM54.5157 7.51177L54.1483 7.66991L54.2135 7.82156L54.581 7.66342L54.9484 7.50527L54.8831 7.35362L54.5157 7.51177ZM54.581 7.66342L54.2135 7.82156L54.2788 7.97321L54.6462 7.81507L55.0136 7.65692L54.9484 7.50527L54.581 7.66342ZM54.6462 7.81507L54.2788 7.97321C54.3045 8.03276 54.3173 8.08948 54.3202 8.14516L54.7197 8.12444L55.1191 8.10372C55.1111 7.9491 55.075 7.79957 55.0136 7.65692L54.6462 7.81507ZM54.7197 8.12444L54.3202 8.14516L54.3284 8.30288L54.7279 8.28216L55.1273 8.26144L55.1191 8.10372L54.7197 8.12444ZM54.7279 8.28216L54.3284 8.30288L54.3366 8.46061L54.736 8.43989L55.1355 8.41917L55.1273 8.26144L54.7279 8.28216ZM54.736 8.43989L54.3366 8.46061C54.3416 8.55751 54.3438 8.65694 54.343 8.75894L54.743 8.76203L55.1429 8.76512C55.1439 8.64789 55.1414 8.53257 55.1355 8.41917L54.736 8.43989ZM54.743 8.76203L54.343 8.75894L54.3417 8.92335L54.7417 8.92645L55.1417 8.92954L55.1429 8.76512L54.743 8.76203ZM54.7417 8.92645L54.3417 8.92335L54.3404 9.08777L54.7404 9.09086L55.1404 9.09395L55.1417 8.92954L54.7417 8.92645ZM54.7404 9.09086L54.3404 9.08777C54.3385 9.33662 54.4556 9.54626 54.6554 9.68186L54.88 9.35087L55.1046 9.01988C55.1028 9.01867 55.1154 9.02713 55.1271 9.04886C55.1391 9.07114 55.1404 9.08949 55.1404 9.09395L54.7404 9.09086ZM54.88 9.35087L54.6554 9.68186L54.7963 9.77744L55.0209 9.44645L55.2455 9.11546L55.1046 9.01988L54.88 9.35087ZM55.0209 9.44645L54.7963 9.77744L54.9371 9.87303L55.1617 9.54204L55.3863 9.21105L55.2455 9.11546L55.0209 9.44645ZM55.1617 9.54204L54.9371 9.87303C55.0079 9.92107 55.0608 9.96793 55.0998 10.012L55.3993 9.74683L55.6988 9.48164C55.6089 9.38013 55.5034 9.29047 55.3863 9.21105L55.1617 9.54204ZM55.3993 9.74683L55.0998 10.012L55.1966 10.1212L55.496 9.85603L55.7955 9.59085L55.6988 9.48164L55.3993 9.74683ZM55.496 9.85603L55.1966 10.1212L55.2933 10.2304L55.5927 9.96523L55.8922 9.70005L55.7955 9.59085L55.496 9.85603ZM55.5927 9.96523L55.2933 10.2304C55.3246 10.2658 55.3449 10.3013 55.3578 10.3385L55.7356 10.2069L56.1133 10.0753C56.0647 9.93585 55.9898 9.81028 55.8922 9.70005L55.5927 9.96523ZM55.7356 10.2069L55.3578 10.3385L55.404 10.471L55.7817 10.3394L56.1595 10.2078L56.1133 10.0753L55.7356 10.2069ZM55.7817 10.3394L55.404 10.471L55.4502 10.6035L55.8279 10.4719L56.2056 10.3403L56.1595 10.2078L55.7817 10.3394ZM55.8279 10.4719L55.4502 10.6035C55.453 10.6118 55.4556 10.6223 55.4493 10.6463L55.836 10.7485L56.2227 10.8507C56.2671 10.6826 56.2643 10.5087 56.2056 10.3403L55.8279 10.4719ZM55.836 10.7485L55.4493 10.6463L55.4112 10.7904L55.7979 10.8926L56.1846 10.9948L56.2227 10.8507L55.836 10.7485ZM55.7979 10.8926L55.4112 10.7904L55.3731 10.9344L55.7598 11.0366L56.1465 11.1389L56.1846 10.9948L55.7979 10.8926ZM55.7598 11.0366L55.3731 10.9344C55.3626 10.9743 55.3429 11.0159 55.3081 11.0604L55.6232 11.3068L55.9383 11.5532C56.0349 11.4296 56.1063 11.2911 56.1465 11.1389L55.7598 11.0366ZM55.6232 11.3068L55.3081 11.0604L55.2095 11.1865L55.5246 11.4329L55.8397 11.6792L55.9383 11.5532L55.6232 11.3068ZM55.5246 11.4329L55.2095 11.1865L55.1109 11.3126L55.426 11.5589L55.7411 11.8053L55.8397 11.6792L55.5246 11.4329ZM55.426 11.5589L55.1109 11.3126C54.9661 11.4977 54.9226 11.7235 54.9863 11.9487L55.3712 11.8398L55.7561 11.731C55.7561 11.731 55.7564 11.732 55.7567 11.7339C55.7571 11.7358 55.7574 11.7385 55.7576 11.7421C55.758 11.7494 55.7576 11.7586 55.7556 11.7688C55.7513 11.7909 55.7425 11.8036 55.7411 11.8053L55.426 11.5589ZM55.3712 11.8398L54.9863 11.9487L55.0301 12.1035L55.415 11.9947L55.7999 11.8858L55.7561 11.731L55.3712 11.8398ZM55.415 11.9947L55.0301 12.1035L55.0738 12.2583L55.4588 12.1495L55.8437 12.0406L55.7999 11.8858L55.415 11.9947ZM55.4588 12.1495L55.0738 12.2583C55.1038 12.3643 55.1343 12.4679 55.1654 12.5691L55.5478 12.4516L55.9301 12.3341C55.9009 12.2389 55.8721 12.1411 55.8437 12.0406L55.4588 12.1495ZM55.5478 12.4516L55.1654 12.5691L55.2107 12.7163L55.5931 12.5988L55.9754 12.4813L55.9301 12.3341L55.5478 12.4516ZM55.5931 12.5988L55.2107 12.7163L55.256 12.8636L55.6383 12.7461L56.0207 12.6286L55.9754 12.4813L55.5931 12.5988ZM55.6383 12.7461L55.256 12.8636C55.3098 13.0388 55.411 13.1868 55.549 13.3032L55.807 12.9976L56.0651 12.692C56.0384 12.6695 56.0272 12.6498 56.0207 12.6286L55.6383 12.7461ZM55.807 12.9976L55.549 13.3032L55.6724 13.4074L55.9304 13.1018L56.1885 12.7962L56.0651 12.692L55.807 12.9976ZM55.9304 13.1018L55.6724 13.4074L55.7958 13.5117L56.0539 13.206L56.3119 12.9004L56.1885 12.7962L55.9304 13.1018ZM56.0539 13.206L55.7958 13.5117C55.7987 13.5141 55.8002 13.5158 55.8009 13.5166C55.8015 13.5174 55.8019 13.518 55.8023 13.5186C55.8027 13.5194 55.8057 13.525 55.8079 13.5392L56.2032 13.4781L56.5985 13.4171C56.5673 13.2151 56.472 13.0356 56.3119 12.9004L56.0539 13.206ZM56.2032 13.4781L55.8079 13.5392L55.8338 13.7071L56.2292 13.646L56.6245 13.5849L56.5985 13.4171L56.2032 13.4781ZM56.2292 13.646L55.8338 13.7071L55.8598 13.875L56.2551 13.8139L56.6504 13.7528L56.6245 13.5849L56.2292 13.646ZM56.2551 13.8139L55.8598 13.875C55.8939 14.096 56.0112 14.284 56.2037 14.4073L56.4195 14.0705L56.6352 13.7337C56.634 13.7329 56.6352 13.7335 56.6377 13.736C56.6403 13.7385 56.6433 13.742 56.646 13.7462C56.6486 13.7504 56.6501 13.7538 56.6508 13.7557C56.6515 13.7575 56.651 13.7569 56.6504 13.7528L56.2551 13.8139ZM56.4195 14.0705L56.2037 14.4073L56.3421 14.496L56.5579 14.1592L56.7737 13.8223L56.6352 13.7337L56.4195 14.0705ZM56.5579 14.1592L56.3421 14.496L56.4806 14.5847L56.6963 14.2478L56.9121 13.911L56.7737 13.8223L56.5579 14.1592ZM56.6963 14.2478L56.4806 14.5847C56.5797 14.6482 56.6784 14.7071 56.7767 14.7614L56.9701 14.4113L57.1635 14.0612C57.0814 14.0158 56.9976 13.9658 56.9121 13.911L56.6963 14.2478ZM56.9701 14.4113L56.7767 14.7614L56.912 14.8362L57.1054 14.4861L57.2989 14.136L57.1635 14.0612L56.9701 14.4113ZM57.1054 14.4861L56.912 14.8362L57.0473 14.911L57.2408 14.5608L57.4342 14.2107L57.2989 14.136L57.1054 14.4861ZM57.2408 14.5608L57.0473 14.911C57.2259 15.0096 57.422 15.0343 57.6158 14.9957L57.5375 14.6034L57.4593 14.2111C57.4456 14.2139 57.4398 14.213 57.4394 14.2129C57.4389 14.2128 57.4387 14.2128 57.4383 14.2127C57.4379 14.2125 57.4366 14.212 57.4342 14.2107L57.2408 14.5608ZM57.5375 14.6034L57.6158 14.9957L57.7772 14.9635L57.699 14.5712L57.6207 14.1789L57.4593 14.2111L57.5375 14.6034ZM57.699 14.5712L57.7772 14.9635L57.9387 14.9312L57.8604 14.539L57.7821 14.1467L57.6207 14.1789L57.699 14.5712ZM57.8604 14.539L57.9387 14.9312C58.1392 14.8912 58.314 14.7856 58.4374 14.6141L58.1127 14.3805L57.7879 14.147C57.7869 14.1484 57.7868 14.1483 57.7878 14.1474C57.7888 14.1464 57.7901 14.1454 57.7914 14.1445C57.7928 14.1437 57.7932 14.1436 57.7922 14.144C57.7911 14.1444 57.788 14.1455 57.7821 14.1467L57.8604 14.539ZM58.1127 14.3805L58.4374 14.6141L58.5282 14.4879L58.2034 14.2543L57.8787 14.0207L57.7879 14.147L58.1127 14.3805ZM58.2034 14.2543L58.5282 14.4879L58.619 14.3616L58.2943 14.1281L57.9695 13.8945L57.8787 14.0207L58.2034 14.2543ZM58.2943 14.1281L58.619 14.3616C58.6563 14.3098 58.7015 14.2628 58.7563 14.2205L58.5117 13.904L58.2671 13.5875C58.153 13.6756 58.0533 13.7781 57.9695 13.8945L58.2943 14.1281ZM58.5117 13.904L58.7563 14.2205L58.8829 14.1226L58.6383 13.8061L58.3937 13.4896L58.2671 13.5875L58.5117 13.904ZM58.6383 13.8061L58.8829 14.1226L59.0096 14.0247L58.765 13.7082L58.5204 13.3917L58.3937 13.4896L58.6383 13.8061ZM58.765 13.7082L59.0096 14.0247C58.9999 14.0322 58.9726 14.0485 58.9317 14.0519C58.8924 14.0553 58.8687 14.0443 58.8681 14.044L59.0436 13.6846L59.2192 13.3252C59.1172 13.2754 58.9964 13.2436 58.8642 13.2548C58.7304 13.2661 58.6145 13.319 58.5204 13.3917L58.765 13.7082ZM59.0436 13.6846L58.8681 14.044L59.0201 14.1183L59.1957 13.7589L59.3712 13.3995L59.2192 13.3252L59.0436 13.6846ZM59.1957 13.7589L59.0201 14.1183L59.1721 14.1925L59.3477 13.8331L59.5233 13.4737L59.3712 13.3995L59.1957 13.7589ZM59.3477 13.8331L59.1721 14.1925C59.2376 14.2245 59.2897 14.2618 59.3319 14.3033L59.6123 14.018L59.8927 13.7328C59.7848 13.6267 59.6605 13.5408 59.5233 13.4737L59.3477 13.8331ZM59.6123 14.018L59.3319 14.3033L59.4444 14.4139L59.7248 14.1287L60.0052 13.8434L59.8927 13.7328L59.6123 14.018ZM59.7248 14.1287L59.4444 14.4139L59.557 14.5246L59.8374 14.2393L60.1178 13.9541L60.0052 13.8434L59.7248 14.1287ZM59.8374 14.2393L59.557 14.5246C59.5577 14.5253 59.5562 14.524 59.5538 14.5204C59.5514 14.5167 59.5487 14.5118 59.5464 14.5058C59.5414 14.4928 59.5419 14.4846 59.5418 14.4868L59.9412 14.5087L60.3406 14.5307C60.3527 14.3111 60.2755 14.1091 60.1178 13.9541L59.8374 14.2393ZM59.9412 14.5087L59.5418 14.4868L59.5331 14.6455L59.9325 14.6675L60.3319 14.6895L60.3406 14.5307L59.9412 14.5087ZM59.9325 14.6675L59.5331 14.6455L59.5244 14.8043L59.9237 14.8263L60.3231 14.8482L60.3319 14.6895L59.9325 14.6675ZM59.9237 14.8263L59.5244 14.8043C59.5163 14.9509 59.5306 15.0956 59.5691 15.2365L59.9549 15.131L60.3408 15.0255C60.3261 14.9717 60.3196 14.9133 60.3231 14.8482L59.9237 14.8263ZM59.9549 15.131L59.5691 15.2365L59.609 15.3824L59.9948 15.2769L60.3807 15.1714L60.3408 15.0255L59.9549 15.131ZM59.9948 15.2769L59.609 15.3824L59.6489 15.5284L60.0347 15.4229L60.4206 15.3174L60.3807 15.1714L59.9948 15.2769ZM60.0347 15.4229L59.6489 15.5284C59.6747 15.6227 59.6988 15.715 59.7211 15.8053L60.1094 15.7093L60.4977 15.6132C60.4737 15.5163 60.448 15.4177 60.4206 15.3174L60.0347 15.4229ZM60.1094 15.7093L59.7211 15.8053L59.7559 15.9458L60.1442 15.8497L60.5325 15.7537L60.4977 15.6132L60.1094 15.7093ZM60.1442 15.8497L59.7559 15.9458L59.7906 16.0863L60.1789 15.9902L60.5672 15.8941L60.5325 15.7537L60.1442 15.8497ZM60.1789 15.9902L59.7906 16.0863C59.8353 16.2667 59.9346 16.4199 60.0797 16.5348L60.328 16.2213L60.5764 15.9077C60.5732 15.9052 60.5715 15.9034 60.5707 15.9026C60.5699 15.9017 60.5697 15.9013 60.5697 15.9013C60.5696 15.9013 60.5695 15.901 60.5691 15.9002C60.5688 15.8994 60.568 15.8975 60.5672 15.8941L60.1789 15.9902ZM60.328 16.2213L60.0797 16.5348L60.1941 16.6254L60.4424 16.3119L60.6908 15.9983L60.5764 15.9077L60.328 16.2213ZM60.4424 16.3119L60.1941 16.6254L60.3084 16.716L60.5568 16.4025L60.8052 16.0889L60.6908 15.9983L60.4424 16.3119ZM60.5568 16.4025L60.3084 16.716C60.4173 16.8023 60.5379 16.8705 60.6681 16.9215L60.8142 16.5491L60.9602 16.1767C60.8998 16.1531 60.8488 16.1235 60.8052 16.0889L60.5568 16.4025ZM60.8142 16.5491L60.6681 16.9215L60.8111 16.9776L60.9572 16.6052L61.1032 16.2328L60.9602 16.1767L60.8142 16.5491ZM60.9572 16.6052L60.8111 16.9776L60.9541 17.0337L61.1001 16.6613L61.2462 16.2889L61.1032 16.2328L60.9572 16.6052ZM61.1001 16.6613L60.9541 17.0337C60.9979 17.0509 61.0354 17.0753 61.0693 17.1092L61.3521 16.8264L61.635 16.5435C61.5235 16.4321 61.393 16.3465 61.2462 16.2889L61.1001 16.6613ZM61.3521 16.8264L61.0693 17.1092L61.1783 17.2182L61.4612 16.9354L61.744 16.6526L61.635 16.5435L61.3521 16.8264ZM61.4612 16.9354L61.1783 17.2182L61.2873 17.3272L61.5702 17.0444L61.853 16.7616L61.744 16.6526L61.4612 16.9354ZM61.5702 17.0444L61.2873 17.3272C61.3325 17.3725 61.3721 17.4249 61.4059 17.4862L61.7562 17.2931L62.1065 17.0999C62.0376 16.975 61.9532 16.8617 61.853 16.7616L61.5702 17.0444ZM61.7562 17.2931L61.4059 17.4862L61.4829 17.6258L61.8332 17.4327L62.1835 17.2395L62.1065 17.0999L61.7562 17.2931ZM61.8332 17.4327L61.4829 17.6258L61.5599 17.7655L61.9102 17.5723L62.2604 17.3791L62.1835 17.2395L61.8332 17.4327ZM61.9102 17.5723L61.5599 17.7655C61.6181 17.871 61.6801 17.97 61.7462 18.062L62.071 17.8285L62.3957 17.595C62.3501 17.5315 62.3049 17.4598 62.2604 17.3791L61.9102 17.5723ZM62.071 17.8285L61.7462 18.062L61.83 18.1785L62.1548 17.9451L62.4795 17.7116L62.3957 17.595L62.071 17.8285ZM62.1548 17.9451L61.83 18.1785L61.9138 18.2951L62.2386 18.0616L62.5633 17.8281L62.4795 17.7116L62.1548 17.9451ZM62.2386 18.0616L61.9138 18.2951C61.9131 18.2942 61.8643 18.2282 61.8777 18.1182C61.8927 17.9948 61.9704 17.9308 61.9963 17.9138L62.2159 18.2481L62.4355 18.5825C62.5323 18.5188 62.6493 18.4005 62.6719 18.2149C62.6928 18.0427 62.6199 17.9068 62.5633 17.8281L62.2386 18.0616ZM62.2159 18.2481L61.9963 17.9138L61.8898 17.9838L62.1094 18.3181L62.329 18.6524L62.4355 18.5825L62.2159 18.2481ZM62.1094 18.3181L61.8898 17.9838L61.7833 18.0537L62.0029 18.3881L62.2225 18.7224L62.329 18.6524L62.1094 18.3181ZM62.0029 18.3881L61.7833 18.0537C61.6922 18.1136 61.599 18.187 61.5041 18.2707L61.7689 18.5706L62.0336 18.8704C62.1088 18.8041 62.1716 18.7558 62.2225 18.7224L62.0029 18.3881ZM61.7689 18.5706L61.5041 18.2707L61.3766 18.3833L61.6413 18.6832L61.9061 18.983L62.0336 18.8704L61.7689 18.5706ZM61.6413 18.6832L61.3766 18.3833L61.2491 18.4959L61.5138 18.7957L61.7786 19.0956L61.9061 18.983L61.6413 18.6832ZM61.5138 18.7957L61.2491 18.4959C61.2521 18.4932 61.2719 18.4777 61.3072 18.4714C61.3423 18.465 61.3659 18.4726 61.369 18.4738L61.2268 18.8476L61.0846 19.2215C61.194 19.2631 61.3186 19.2823 61.4495 19.2586C61.5804 19.2349 61.6905 19.1733 61.7786 19.0956L61.5138 18.7957ZM61.2268 18.8476L61.369 18.4738L61.2095 18.4131L61.0673 18.7869L60.925 19.1608L61.0846 19.2215L61.2268 18.8476ZM61.0673 18.7869L61.2095 18.4131L61.0499 18.3524L60.9077 18.7263L60.7655 19.1001L60.925 19.1608L61.0673 18.7869ZM60.9077 18.7263L61.0499 18.3524C60.906 18.2976 60.6913 18.2488 60.4817 18.3501L60.6559 18.7102L60.8301 19.0703C60.786 19.0916 60.7506 19.0918 60.7396 19.0911C60.7303 19.0905 60.7375 19.0895 60.7655 19.1001L60.9077 18.7263ZM60.6559 18.7102L60.4817 18.3501L60.3894 18.3948L60.5636 18.7548L60.7378 19.1149L60.8301 19.0703L60.6559 18.7102ZM60.5636 18.7548L60.3894 18.3948L60.2972 18.4394L60.4713 18.7995L60.6455 19.1596L60.7378 19.1149L60.5636 18.7548ZM60.4713 18.7995L60.2972 18.4394C60.2697 18.4527 60.219 18.479 60.1703 18.5226C60.1367 18.5528 59.9944 18.6902 60.0347 18.9103C60.0722 19.115 60.236 19.197 60.2684 19.2127C60.3226 19.2391 60.3745 19.2512 60.4047 19.2572L60.4833 18.8651L60.562 18.4729C60.5624 18.4729 60.5672 18.4739 60.5752 18.4763C60.5825 18.4785 60.5983 18.4836 60.6186 18.4935C60.6325 18.5003 60.7861 18.5723 60.8217 18.7661C60.86 18.9753 60.7239 19.1007 60.7046 19.118C60.6852 19.1355 60.6688 19.1461 60.661 19.1509C60.6524 19.1562 60.6467 19.159 60.6455 19.1596L60.4713 18.7995ZM60.4833 18.8651L60.4047 19.2572L60.5089 19.2782L60.5876 18.886L60.6663 18.4938L60.562 18.4729L60.4833 18.8651ZM60.5876 18.886L60.5089 19.2782L60.6132 19.2991L60.6919 18.9069L60.7706 18.5147L60.6663 18.4938L60.5876 18.886ZM60.6919 18.9069L60.6132 19.2991C60.6457 19.3056 60.6973 19.3213 60.7712 19.3538L60.9323 18.9877L61.0934 18.6216C60.9858 18.5743 60.8772 18.5361 60.7706 18.5147L60.6919 18.9069ZM60.9323 18.9877L60.7712 19.3538L60.9073 19.4137L61.0684 19.0476L61.2295 18.6815L61.0934 18.6216L60.9323 18.9877ZM61.0684 19.0476L60.9073 19.4137L61.0433 19.4736L61.2045 19.1075L61.3656 18.7414L61.2295 18.6815L61.0684 19.0476ZM61.2045 19.1075L61.0433 19.4736C61.079 19.4893 61.1236 19.5183 61.1754 19.5718L61.4627 19.2934L61.7499 19.0151C61.6389 18.9005 61.5114 18.8055 61.3656 18.7414L61.2045 19.1075ZM61.4627 19.2934L61.1754 19.5718L61.2975 19.6978L61.5847 19.4194L61.872 19.1411L61.7499 19.0151L61.4627 19.2934ZM61.5847 19.4194L61.2975 19.6978L61.4196 19.8238L61.7068 19.5454L61.9941 19.2671L61.872 19.1411L61.5847 19.4194ZM61.7068 19.5454L61.4196 19.8238C61.5467 19.955 61.7044 20.0538 61.8922 20.0941L61.976 19.703L62.0599 19.3119C62.0515 19.3101 62.0298 19.3039 61.9941 19.2671L61.7068 19.5454ZM61.976 19.703L61.8922 20.0941L62.0393 20.1257L62.1231 19.7345L62.207 19.3434L62.0599 19.3119L61.976 19.703ZM62.1231 19.7345L62.0393 20.1257L62.1864 20.1572L62.2702 19.7661L62.3541 19.375L62.207 19.3434L62.1231 19.7345ZM62.2702 19.7661L62.1864 20.1572C62.3546 20.1933 62.5236 20.1833 62.6867 20.1399L62.5838 19.7533L62.4809 19.3668C62.4221 19.3825 62.382 19.381 62.3541 19.375L62.2702 19.7661ZM62.5838 19.7533L62.6867 20.1399L62.8532 20.0956L62.7503 19.709L62.6474 19.3225L62.4809 19.3668L62.5838 19.7533ZM62.7503 19.709L62.8532 20.0956L63.0197 20.0512L62.9168 19.6647L62.8139 19.2782L62.6474 19.3225L62.7503 19.709ZM62.9168 19.6647L63.0197 20.0512C63.0294 20.0487 63.0214 20.0525 63.0017 20.049C62.9922 20.0474 62.9823 20.0443 62.9729 20.04C62.9636 20.0357 62.9569 20.0312 62.9527 20.0279L63.2021 19.7152L63.4515 19.4024C63.259 19.2489 63.0287 19.221 62.8139 19.2782L62.9168 19.6647ZM63.2021 19.7152L62.9527 20.0279L63.0716 20.1227L63.321 19.8099L63.5704 19.4972L63.4515 19.4024L63.2021 19.7152ZM63.321 19.8099L63.0716 20.1227L63.1904 20.2175L63.4398 19.9047L63.6892 19.592L63.5704 19.4972L63.321 19.8099ZM63.4398 19.9047L63.1904 20.2175C63.2153 20.2373 63.2297 20.2577 63.2397 20.2834L63.6127 20.1388L63.9856 19.9943C63.9236 19.8342 63.8228 19.6985 63.6892 19.592L63.4398 19.9047ZM63.6127 20.1388L63.2397 20.2834L63.2937 20.4226L63.6666 20.2781L64.0396 20.1336L63.9856 19.9943L63.6127 20.1388ZM63.6666 20.2781L63.2937 20.4226L63.3477 20.5619L63.7206 20.4174L64.0936 20.2728L64.0396 20.1336L63.6666 20.2781ZM63.7206 20.4174L63.3477 20.5619C63.4026 20.7036 63.4833 20.8308 63.587 20.9417L63.8792 20.6685L64.1714 20.3954C64.1357 20.3572 64.1107 20.3169 64.0936 20.2728L63.7206 20.4174ZM63.8792 20.6685L63.587 20.9417L63.6916 21.0536L63.9838 20.7804L64.2759 20.5072L64.1714 20.3954L63.8792 20.6685ZM63.9838 20.7804L63.6916 21.0536L63.7961 21.1654L64.0883 20.8922L64.3805 20.619L64.2759 20.5072L63.9838 20.7804ZM64.0883 20.8922L63.7961 21.1654C63.8184 21.1892 63.829 21.211 63.8346 21.2361L64.2251 21.1496L64.6157 21.063C64.5782 20.8942 64.4977 20.7444 64.3805 20.619L64.0883 20.8922ZM64.2251 21.1496L63.8346 21.2361L63.8668 21.3816L64.2574 21.2951L64.6479 21.2085L64.6157 21.063L64.2251 21.1496ZM64.2574 21.2951L63.8668 21.3816L63.8991 21.5271L64.2896 21.4405L64.6801 21.354L64.6479 21.2085L64.2574 21.2951ZM64.2896 21.4405L63.8991 21.5271C63.9177 21.6112 63.9329 21.6995 63.9445 21.7922L64.3414 21.7425L64.7383 21.6929C64.7238 21.5769 64.7045 21.4639 64.6801 21.354L64.2896 21.4405ZM64.3414 21.7425L63.9445 21.7922L63.9641 21.9487L64.361 21.899L64.7579 21.8494L64.7383 21.6929L64.3414 21.7425ZM64.361 21.899L63.9641 21.9487L63.9836 22.1052L64.3805 22.0555L64.7774 22.0059L64.7579 21.8494L64.361 21.899ZM64.3805 22.0555L63.9836 22.1052C63.9939 22.1877 63.9964 22.263 63.9924 22.3319L64.3917 22.3553L64.7911 22.3786C64.7982 22.2565 64.7932 22.1321 64.7774 22.0059L64.3805 22.0555ZM64.3917 22.3553L63.9924 22.3319L63.984 22.4751L64.3834 22.4985L64.7827 22.5218L64.7911 22.3786L64.3917 22.3553ZM64.3834 22.4985L63.984 22.4751L63.9757 22.6184L64.375 22.6417L64.7743 22.6651L64.7827 22.5218L64.3834 22.4985ZM64.375 22.6417L63.9757 22.6184C63.9737 22.6522 63.9629 22.7025 63.9299 22.772L64.2912 22.9437L64.6524 23.1154C64.72 22.9732 64.7651 22.8221 64.7743 22.6651L64.375 22.6417ZM64.2912 22.9437L63.9299 22.772L63.8544 22.9307L64.2157 23.1024L64.577 23.2741L64.6524 23.1154L64.2912 22.9437ZM64.2157 23.1024L63.8544 22.9307L63.779 23.0894L64.1403 23.2612L64.5015 23.4329L64.577 23.2741L64.2157 23.1024ZM64.1403 23.2612L63.779 23.0894C63.7243 23.2045 63.6443 23.4046 63.7037 23.6118L64.0883 23.5016L64.4728 23.3915C64.4814 23.4216 64.4829 23.446 64.4827 23.4611C64.4825 23.476 64.4806 23.4846 64.4805 23.4852C64.4803 23.486 64.4812 23.482 64.4846 23.4724C64.4881 23.463 64.4934 23.4499 64.5015 23.4329L64.1403 23.2612ZM64.0883 23.5016L63.7037 23.6118L63.7271 23.6936L64.1117 23.5834L64.4962 23.4732L64.4728 23.3915L64.0883 23.5016ZM64.1117 23.5834L63.7271 23.6936L63.7506 23.7753L64.1351 23.6651L64.5196 23.555L64.4962 23.4732L64.1117 23.5834ZM64.1351 23.6651L63.7506 23.7753C63.7644 23.8235 63.7917 23.9027 63.8509 23.9763C63.9196 24.0618 64.0491 24.1562 64.2284 24.1428L64.1984 23.7439L64.1685 23.345C64.235 23.34 64.3018 23.3535 64.3608 23.3836C64.4166 23.4119 64.4531 23.4486 64.4744 23.4751C64.4955 23.5013 64.5068 23.5238 64.512 23.5351C64.5174 23.5471 64.5195 23.5546 64.5196 23.555L64.1351 23.6651ZM64.1984 23.7439L64.2284 24.1428L64.2682 24.1398L64.2383 23.7409L64.2083 23.342L64.1685 23.345L64.1984 23.7439ZM64.2383 23.7409L64.5708 23.9632L64.6414 23.8577L64.3089 23.6353L63.9764 23.413L63.9058 23.5186L64.2383 23.7409ZM64.3089 23.6353L63.9106 23.6721L63.9198 23.7717L64.3181 23.7349L64.7164 23.6982L64.7072 23.5986L64.3089 23.6353Z" fill="#7E8B69"/>
</svg>
